<?xml version="1.0" encoding="UTF-8"?>
<svg id="Layer_1" xmlns="http://www.w3.org/2000/svg" xmlns:xlink="http://www.w3.org/1999/xlink" version="1.1" viewBox="0 0 1200 1200">
  <!-- Generator: Adobe Illustrator 29.4.0, SVG Export Plug-In . SVG Version: 2.1.0 Build 152)  -->
  <defs>
    <style>
      .st0 {
        fill: #e1c2b9;
      }

      .st1 {
        fill: #faa83f;
      }

      .st2 {
        fill: #cb6f28;
      }

      .st3 {
        fill: #b4a7a2;
      }

      .st4 {
        fill: #5d8aa1;
      }

      .st5 {
        fill: #beb0a2;
      }

      .st6 {
        fill: #ddb584;
      }

      .st7 {
        fill: url(#linear-gradient);
      }

      .st8 {
        fill: #f15f22;
      }

      .st9 {
        fill: #fccd65;
      }

      .st10 {
        fill: #8d2f1d;
      }

      .st11 {
        fill: #fff;
      }

      .st12 {
        fill: #6f857f;
      }

      .st13 {
        fill: #b75d27;
      }

      .st14 {
        fill: #6a9cb3;
      }

      .st15 {
        fill: #702e14;
      }

      .st16 {
        fill: #7cabc0;
      }

      .st17 {
        fill: #f79644;
      }

      .st18 {
        fill: #fde393;
      }

      .st19 {
        fill: #a24823;
      }

      .st20 {
        fill: #f8bc4b;
      }

      .st21 {
        fill: #cebcb4;
      }

      .st22 {
        fill: #e98823;
      }

      .st23 {
        fill: #ab897a;
      }

      .st24 {
        fill: #f3d7a9;
      }
    </style>
    <linearGradient id="linear-gradient" x1="172.31" y1="394.69" x2="1018.76" y2="817.05" gradientUnits="userSpaceOnUse">
      <stop offset=".45" stop-color="#6092a9"/>
      <stop offset="1" stop-color="#3b6f84"/>
    </linearGradient>
  </defs>
  <g id="Generative_Object">
    <g>
      <path class="st23" d="M98.19,717.24c-1.39,15.64,3.37,29.82,12.91,41.3,66.84,80.46,333.18,94.65,434.27,96.79,58.99,1.25,121.8-.32,180.68-3.87,84.31-5.09,294.69-24.19,351.68-89.05,12.26-13.95,17.42-26.24,11.62-45.17.3-.64.78-2.6,1.29-3.87,71.98,48.62-8.39,88.9-54.85,105.83-205.42,74.83-632.5,71.37-842.73,11.62-44.59-12.68-173.05-55.47-94.86-113.57Z"/>
      <path class="st22" d="M144.65,761.12c2.08,2.34,5.03,3.73,7.74,5.16,1.5.79,4.87,1.82,6.45,2.58,3.51,1.68,6.63,3.53,10.32,5.16,150.12,66.16,413.48,64.27,577.52,54.2,82.85-5.09,303-26.61,342.64-110.99,5.8,18.93.65,31.22-11.62,45.17-95.71,55.55-216.3,71.5-325.87,80.01-107.37,8.34-220.4,8.36-327.8,0-107.18-8.34-222.49-22.66-312.96-83.89-9.54-11.48-14.3-25.65-12.91-41.3.11-1.29,1.37-1.43,1.29-2.58,5.31,13.05,32.44,40.01,45.17,46.46Z"/>
      <path class="st1" d="M1077.72,762.41c-56.99,64.85-267.36,83.96-351.68,89.05-58.88,3.55-121.68,5.12-180.68,3.87-101.1-2.15-367.43-16.33-434.27-96.79,90.47,61.22,205.78,75.55,312.96,83.89,107.41,8.36,220.43,8.34,327.8,0,109.57-8.51,230.16-24.46,325.87-80.01Z"/>
    </g>
    <g>
      <path class="st15" d="M398.89,726.28c72.84,38.55,338.41,40.56,406.53-6.45,51.41-35.48,39.24-95.56,83.24-132.93,45.03-38.25,203.63-67.84,167.13-156.16l2.58-1.29c10.44,22.57,8.35,41.16-5.16,61.95-35.49,54.6-119.52,61.62-163.26,100.66-42.52,37.96-31.35,103.02-89.69,138.09-31.12,18.71-81.62,23.08-117.44,25.81-69.95,5.33-233.73,8.77-292.31-28.39-51.79-32.86-45.39-97.01-86.47-134.22-45.76-41.45-199.15-65.02-173.58-156.16,1.03-3.66,1.32-3.59,2.58-6.45,1.58.31,2.65-.57,3.87-1.29-29.09,91.75,98.5,113.08,152.93,147.12,63.01,39.4,42.13,114.28,109.05,149.7Z"/>
      <path class="st14" d="M1076.43,464.29c-7.48,21.5-6.75,45.19-18.07,65.17-12.69,22.4-38.87,32.99-50.33,53.56l-5.16,4.52c-3.51-10.67-4.37-28.02-16.78-31.62,17.33-9.67,42.79-22.34,57.43-34.85,8.01-6.84,32.79-27.86,9.68-29.68,13.51-20.78,15.6-39.38,5.16-61.95-2.02-4.36-5.7-7.94-6.45-12.91,15.5,18.9,16.68,25.14,24.52,47.75Z"/>
      <path class="st4" d="M832.52,721.11c-35.18,40.95-131.77,63.33-183.26,52.91-.13-.03.46-2.31-.65-2.58-2.73-.67-8.5,1.55-10.32-1.29,13.52-2.12,39.15,1.19,44.52-14.2,35.82-2.73,86.32-7.1,117.44-25.81,11.16,3.58,21.5-7.6,32.26-9.03Z"/>
      <path class="st11" d="M204.02,697.88c-1.82,12.09-21.83,1.7-11.62-6.45,4.91-3.91,12.57.09,11.62,6.45Z"/>
      <path class="st11" d="M555.05,801.13c-.84-.02-3.24,1.43-6.45,1.29l-3.87-11.62c7.67-5.19,15.26,2.25,10.32,10.32Z"/>
      <g>
        <path class="st7" d="M130.45,437.19c-25.57,91.14,127.82,114.71,173.58,156.16,41.07,37.2,34.67,101.36,86.47,134.22,58.58,37.16,222.36,33.72,292.31,28.39-5.37,15.38-31.01,12.08-44.52,14.2,1.83,2.84,7.6.62,10.32,1.29,1.11.27.51,2.55.65,2.58-62.48-8.97-129.49-3.48-191.65-11.62-56.03-7.34-94.96-28.51-119.38-80.66-12.39-26.48-15.5-58.61-39.36-78.08-20.62-16.83-57-26.55-81.31-38.72-36.37-18.21-73.23-40.99-95.5-76.14-3.31,1.17,14.55,45.03,16.13,49.04-21.06,7.44,4.05,22.69,5.16,9.03,16.9,10.91,29.19,31.41,34.85,50.33.84,2.82-5.52,11.56,6.45,12.91-6.47,27.16-5.63,56.62,7.74,81.31-10.22,8.15,9.79,18.54,11.62,6.45,29.43,1.31,51.07,23.5,75.5,36.14,32.25,16.68,71.29,32.02,106.47,41.3-4.34,13.49,12.95,16.51,10.32,3.87,25.58,6.17,51.37,11.62,77.43,15.49l3.23,11.62c6.41.72,10.57-4.27,9.68-10.32,19.93,2.53,36.69,4.12,56.78,5.16,2.28.12,2.9,1.19,5.16,1.29,3.21.14,5.62-1.31,6.45-1.29,23.73.57,44.54.99,67.11-1.29-1.07,12.54,11.28,17.8,11.62,2.58,9.31-.08,72.1.36,75.5-1.29,1.34-.65,1.24-5.12,3.23-6.45-.16,5.19-1.02,9.2,5.16,10.32,5.28.96,5.97-2.44,7.74-2.58,28.46-2.31,48.97-7.87,76.14-14.2,1.77-.41,3.45-.88,5.16-1.29,113.43-27.18,177.66-47.45,194.87-177.45.44-3.29-5.99-2.51,0-10.97-1.46,21.59,23.35,6.09,8.39-2.58-3.02-1.75-3.19-.91-5.81,0-1.94-3.56,2.18-9.87,3.87-12.91,11.47-20.57,37.64-31.15,50.33-53.56,11.32-19.99,10.59-43.67,18.07-65.17,21.94,63.25,39.54,186.56,14.2,249.08-.52,1.27-.99,3.23-1.29,3.87-39.65,84.38-259.79,105.9-342.64,110.99-164.05,10.07-427.41,11.96-577.52-54.2l-10.32-5.16c-1.59-.76-4.95-1.79-6.45-2.58.26-4.37-6.21-4.39-7.74-5.16-12.73-6.45-39.86-33.41-45.17-46.46-14.56-35.8-14.51-107.86-10.32-146.48,4.68-43.11,17.27-95.08,41.3-130.99Z"/>
        <g>
          <g>
            <path class="st11" d="M138.84,726.28c9.15-2.76,13.14,10.51,5.16,12.91-11.9,3.57-11.28-11.06-5.16-12.91Z"/>
            <path class="st11" d="M1001.58,598.51c.11-.15,2.41-2.52,2.58-2.58,2.62-.91,2.78-1.75,5.81,0,14.96,8.67-9.85,24.17-8.39,2.58Z"/>
            <path class="st11" d="M107.87,679.82c9.71-3.86,13.19,10.23,6.45,12.91-9.71,3.86-13.19-10.23-6.45-12.91Z"/>
            <path class="st11" d="M1078.37,679.82c9.71-3.86,13.19,10.23,6.45,12.91-9.71,3.86-13.19-10.23-6.45-12.91Z"/>
            <path class="st11" d="M143.36,546.89c-1.12,13.66-26.22-1.6-5.16-9.03,1.42,3.59,5.6,3.65,5.16,9.03Z"/>
            <path class="st11" d="M1078.37,577.86c13.16-4.48,12.18,17.9,0,12.91-4.58-1.88-4.39-11.41,0-12.91Z"/>
            <path class="st11" d="M153.04,638.52c5.98-2.28,13.02,4.05,9.68,9.68-6.46,10.89-19.48-5.93-9.68-9.68Z"/>
            <path class="st11" d="M1025.46,743.05c8.59.1,8.11,12.86,2.58,14.2-6.5,1.57-14.1-14.33-2.58-14.2Z"/>
            <path class="st11" d="M111.74,579.15c7.69-.15,8.92,10.99,2.58,14.2-9.3,1.68-5.03-5.1-8.39-10.97.33-.97,5.48-3.22,5.81-3.23Z"/>
            <path class="st11" d="M1048.04,736.6l-3.87-11.62c8.77-12.49,20.62,14.52,3.87,11.62Z"/>
            <path class="st11" d="M280.8,767.57c9.53-4.29,14.6,10.93,6.45,12.91-5.86,1.42-11.77-10.51-6.45-12.91Z"/>
            <path class="st11" d="M990.61,690.14c9.38-2.91,12.4,10.94,6.45,12.91-7.35,2.43-12.51-11.02-6.45-12.91Z"/>
            <path class="st11" d="M226.6,737.89c7.19-3.22,16.45,7.24,6.45,12.91h-3.87c-.36-3.68-8.51-10.25-2.58-12.91Z"/>
            <path class="st11" d="M902.85,766.28c8.59-3.85,13.89,10.57,6.45,12.91-8.06,2.53-9.76-11.42-6.45-12.91Z"/>
            <path class="st11" d="M161.43,757.25c5.83.22-2.18-5.21-1.29-9.03,2.03-2.95,5.75-3.65,8.39-2.58,7.72,3.14.49,19.61-7.1,11.62Z"/>
            <path class="st11" d="M1036.43,650.13l-3.87-9.03c6.46-18.53,22.15,17.22,3.87,9.03Z"/>
            <path class="st11" d="M633.77,802.42c-.33,15.22-12.69,9.96-11.62-2.58,10.62-1.07,9.48,2.6,11.62,2.58Z"/>
            <path class="st11" d="M486.65,795.97c.89,6.05-3.27,11.05-9.68,10.32l-3.23-11.62c2.79.41,8.78.77,12.91,1.29Z"/>
            <path class="st11" d="M958.35,735.31c8.56-2.74,13.14,9.43,5.16,12.91-3.52,1.53-12.51-10.55-5.16-12.91Z"/>
            <path class="st11" d="M396.31,779.19c2.62,12.64-14.67,9.61-10.32-3.87,1.91.5,8.76-3.7,10.32,3.87Z"/>
            <path class="st11" d="M1055.14,539.15c10.61-2.71,9.86,15.49,2.58,14.2-1.97-.35-8.48-12.69-2.58-14.2Z"/>
            <path class="st5" d="M1048.04,736.6c-5.51-.96-7.05-7.09-3.87-11.62l3.87,11.62Z"/>
            <path class="st21" d="M1036.43,650.13c-3.94-1.77-5.63-4-3.87-9.03l3.87,9.03Z"/>
            <path class="st21" d="M717.66,805c-6.19-1.12-5.32-5.14-5.16-10.32.3-.2,1,.2,1.29,0l3.87,10.32Z"/>
            <path class="st5" d="M161.43,757.25c-2.66-2.8-4.38-4.54-1.29-9.03-.89,3.82,7.13,9.25,1.29,9.03Z"/>
          </g>
          <g>
            <path class="st12" d="M169.17,774.03c-3.7-1.63-6.81-3.48-10.32-5.16l10.32,5.16Z"/>
            <path class="st12" d="M152.39,766.28c-2.71-1.43-5.66-2.82-7.74-5.16,1.53.77,8,.8,7.74,5.16Z"/>
          </g>
        </g>
      </g>
      <path class="st4" d="M986.09,555.92c-28.18,15.74-85.36,36.73-103.24,58.72-26.07,32.04-23.83,75.63-50.33,106.47-10.76,1.44-21.11,12.61-32.26,9.03,58.35-35.07,47.17-100.13,89.69-138.09,43.73-39.04,127.76-46.06,163.26-100.66,23.12,1.82-1.67,22.84-9.68,29.68-14.64,12.51-40.1,25.17-57.43,34.85Z"/>
      <g>
        <path class="st16" d="M649.26,774.03c51.49,10.42,148.07-11.96,183.26-52.91,26.5-30.84,24.27-74.43,50.33-106.47,17.89-21.99,75.06-42.99,103.24-58.72,12.41,3.6,13.27,20.95,16.78,31.62l5.16-4.52c-1.69,3.04-5.81,9.35-3.87,12.91-.17.06-2.48,2.43-2.58,2.58-5.99,8.46.44,7.68,0,10.97-17.21,130-81.45,150.27-194.87,177.45,6.83-19.84-21.64-15.51-5.16,1.29-27.17,6.33-47.69,11.88-76.14,14.2.75-8.84-4.65-12.46-11.62-7.74-.3.2-.99-.2-1.29,0-1.99,1.33-1.88,5.8-3.23,6.45-3.39,1.66-66.18,1.21-75.5,1.29-2.14.02-.99-3.65-11.62-2.58-22.57,2.28-43.38,1.86-67.11,1.29,4.94-8.08-2.66-15.52-10.32-10.32-3.83,2.59-3.37,6.11-1.29,10.32-20.1-1.05-36.85-2.63-56.78-5.16-4.13-.52-10.12-.88-12.91-1.29-26.06-3.86-51.86-9.31-77.43-15.49-1.57-7.57-8.41-3.37-10.32-3.87-35.18-9.27-74.22-24.62-106.47-41.3-24.43-12.63-46.06-34.83-75.5-36.14.96-6.36-6.71-10.37-11.62-6.45-13.37-24.68-14.21-54.15-7.74-81.31.76-3.2,14.95-14.99-6.45-12.91-5.65-18.92-17.94-39.42-34.85-50.33.44-5.39-3.75-5.44-5.16-9.03-1.58-4.01-19.44-47.88-16.13-49.04,22.28,35.15,59.13,57.94,95.5,76.14,24.31,12.17,60.69,21.89,81.31,38.72,23.86,19.47,26.97,51.6,39.36,78.08,24.41,52.15,63.34,73.32,119.38,80.66,62.16,8.14,129.16,2.65,191.65,11.62Z"/>
        <g>
          <path class="st11" d="M184.66,610.13c-11.97-1.34-5.61-10.09-6.45-12.91,21.41-2.08,7.21,9.71,6.45,12.91Z"/>
          <path class="st11" d="M806.71,786.93c-1.71.41-3.4.88-5.16,1.29-16.48-16.8,11.99-21.13,5.16-1.29Z"/>
          <path class="st11" d="M725.4,802.42c-1.77.14-2.46,3.54-7.74,2.58l-3.87-10.32c6.96-4.72,12.37-1.1,11.62,7.74Z"/>
          <path class="st3" d="M548.6,802.42c-2.26-.1-2.88-1.17-5.16-1.29-2.08-4.21-2.54-7.73,1.29-10.32l3.87,11.62Z"/>
          <path class="st11" d="M905.43,688.85c10.13-2.86,11.85,12.82,3.87,14.2-9.18,1.58-10.59-12.3-3.87-14.2Z"/>
          <path class="st11" d="M242.73,650.13l-3.87-6.45c.55-9.63,11.71-5.66,12.91-1.94,1.72,5.35-3.04,11.17-9.03,8.39Z"/>
          <path class="st11" d="M280.16,701.76l-2.58-10.32c11.31-10.8,17.37,15.92,2.58,10.32Z"/>
          <path class="st11" d="M941.57,637.23c5.75-2.58,14.53,7.77,6.45,12.91-6.29,4.11-11.1-10.82-6.45-12.91Z"/>
          <path class="st11" d="M849.94,731.44c4.91-.89,6.67,1.11,9.68,4.52-5.06,20.57-15.4-2.06-9.68-4.52Z"/>
          <path class="st11" d="M340.17,734.02c8.17-3.66,11.19,11.17,5.16,12.91s-9.49-10.97-5.16-12.91Z"/>
          <path class="st3" d="M277.58,691.43l2.58,10.32c-6.75-2.55-6.38-6.7-2.58-10.32Z"/>
          <path class="st0" d="M242.73,650.13c-4.01-1.86-4.21-.53-3.87-6.45l3.87,6.45Z"/>
        </g>
      </g>
    </g>
    <g>
      <path class="st9" d="M398.89,726.28c-66.92-35.42-46.04-110.3-109.05-149.7-54.43-34.04-182.02-55.37-152.93-147.12,1.4-.82,2.38-2,3.87-2.58-22.58,93.12,122.09,111.66,169.71,154.87,32.5,29.49,41.42,66.25,60.01,103.89,11.26,22.81,9.81,16.92,27.1,34.85,2.23,2.31,2.23,2.7,1.29,5.81Z"/>
      <path class="st20" d="M1055.78,430.74c36.5,88.32-122.1,117.91-167.13,156.16-44,37.37-31.83,97.44-83.24,132.93l-7.74.65c37.83-31.89,35.75-82.15,67.11-121.31,55.01-68.69,197.03-61.88,187.13-172.29.13.24,3.36,2.63,3.87,3.87Z"/>
      <g>
        <path class="st9" d="M1051.91,426.87c9.89,110.41-132.12,103.6-187.13,172.29-31.36,39.16-29.28,89.42-67.11,121.31l7.74-.65c-68.12,47.01-333.68,45.01-406.53,6.45.94-3.11.94-3.49-1.29-5.81-17.29-17.92-15.84-12.04-27.1-34.85-18.59-37.64-27.51-74.4-60.01-103.89-47.62-43.21-192.29-61.75-169.71-154.87,12.37-51.01,159.22-86.16,204.55-92.92,152.86-22.79,308.51-19.78,462.02-5.16,67.6,6.44,210.4,33.61,244.56,98.08Z"/>
        <g>
          <path class="st18" d="M207.89,386.86c-18.08,11.26-46.15,31.13-47.75,54.2-1.75,25.08,19.02,43.53,37.43,56.78,46.41,33.42,101.67,35.25,140.67,80.01,31,35.59,46.93,109.47,76.14,127.77,53.89,33.74,313.79,33.15,366.52-1.29,25.29-16.52,27.44-47.24,38.72-72.27,21.94-48.71,48.45-75.88,96.79-98.08,3.01-1.38,6.19-2.13,9.03-3.87,29.06-2.72,103.94-48.48,107.12-81.31,5.06-52.38-76.78-70.97-109.7-86.47-.43-.2-7.91-5.11-7.1-6.45,67.79,17.05,182.5,69.41,89.05,143.25-72.14,57-142.38,35.43-182.61,138.74-17.57,45.11-8.36,69.58-63.88,85.82-69.6,20.36-295.38,29.66-353.61-12.91-23.56-17.22-29.55-68.97-44.52-96.15-42.38-76.93-116.59-66.88-176.16-118.09-56.16-48.27-32.87-82.44,23.88-109.7Z"/>
          <g>
            <path class="st17" d="M702.17,330.08c-34.31.23-71.28,3.8-99.37,24.52-1.61-6.88-.89-1.43-2.58-2.58-3.86-2.62-13.48-10.43-16.13-11.62-22.11-9.87-123.28-2.96-154.87-3.87-2.35-.07-6.37,1.29-5.81-2.58,92.94-10.33,185.52-12.02,278.76-3.87Z"/>
            <path class="st8" d="M966.74,416.54c-22.47,22.51-37.02,43.5-51.62,71.63-4.34,8.35-10.35,34.35-20,36.78s-35.07-7.12-40.65-16.13c-15.15-24.48,14.48-65.71,14.84-90.98-1.44-.57-11.38,22.84-12.26,25.17-4.99,13.1-11.96,54.45-21.29,60.01-13.68,8.15-84.49,2.64-98.08-6.45-2.2-1.47-6.39-7.3-7.1-9.68-6.49-21.79,18.18-76.89,14.84-102.6-14.35,20.79-14.48,88.45-26.46,103.89-10.2,13.16-66.95,12.29-83.24,9.68-63.87-10.26-20.17-80.43-35.49-122.6.78-6.72,1.85-16.72,0-23.23,1.69,1.15.98-4.3,2.58,2.58,10.42,44.67-13.76,107.27,50.98,114.86,81.53,9.56,66.43-75.03,101.95-122.6,3.04,29.84-19.62,82.37-14.84,109.05,5.87,32.82,64.66,39.38,88.4,22.58,13.66-9.66,34.9-59.23,45.81-76.79,8.76-14.09,18.4-27.9,29.04-40.65l-18.71,36.78c-7.03,19.94-34.49,95.46,10.97,87.11,17.68-3.25,49.64-54.62,70.34-68.4Z"/>
            <path class="st10" d="M597.64,390.73c.84-5.02,2-10.48,2.58-15.49,15.32,42.17-28.38,112.35,35.49,122.6,16.29,2.62,73.04,3.48,83.24-9.68,11.97-15.44,12.11-83.1,26.46-103.89,3.34,25.71-21.34,80.81-14.84,102.6.71,2.38,4.9,8.21,7.1,9.68,13.59,9.09,84.41,14.6,98.08,6.45,9.34-5.57,16.31-46.91,21.29-60.01.89-2.33,10.82-25.73,12.26-25.17-.36,25.28-29.99,66.51-14.84,90.98,5.58,9.02,30.53,18.68,40.65,16.13s15.67-28.43,20-36.78c14.61-28.13,29.16-49.12,51.62-71.63,1.56-1.04,3.52-1.64,5.16-2.58-20.48,24.49-45.78,56.08-55.49,87.11-4.58,14.64-12.05,31.01,9.03,29.04-2.84,1.75-6.02,2.49-9.03,3.87-7.41.68-22.1,5.78-28.39,9.03-93.47-40.5-208.97-39.98-310.38-40.01-70.93-.02-159.15.79-227.14,20.65-13.32,3.89-36.35,17.23-45.81,19.36-8.65,1.94-15.62-5.94-21.94-9.03,5.84-36.37-37.8-111.52-68.4-129.06,19.2,10.26,32.11,23.65,43.88,41.3,7.69,11.54,35.75,74.74,40.65,76.14,10.05,2.87,32.86-8.45,38.07-17.42,13.99-24.08-14.07-87.58-23.88-112.92,15.53,20.91,23.6,45.55,30.33,70.34,4.53,16.69-.73,39.01,21.29,44.52,16.16,4.05,80.28-2.77,92.92-12.91,1.82-1.46,6.72-9.15,7.1-10.97,1.71-8.23-3.97-49.76-6.45-59.37-.34-1.32-1.62-5.38-3.87-4.52-.95-18.3-4.68-35-7.74-52.91,2.25-2.09,3.26.16,3.87,1.94,11.53,33.68,11.61,85.87,21.94,113.57,1.08,2.91,4.54,7.76,7.1,9.68,16.18,12.12,98.26,6.26,110.34-10.97,9.55-13.62,6.83-70.79,7.74-89.69Z"/>
            <path class="st8" d="M454.38,419.12c2.26-.86,3.53,3.19,3.87,4.52,2.48,9.61,8.16,51.14,6.45,59.37-.38,1.82-5.28,9.51-7.1,10.97-12.64,10.13-76.76,16.95-92.92,12.91-22.02-5.51-16.76-27.83-21.29-44.52-6.73-24.79-14.8-49.43-30.33-70.34,9.8,25.35,37.86,88.84,23.88,112.92-5.21,8.97-28.03,20.3-38.07,17.42-4.9-1.4-32.96-64.6-40.65-76.14,59.12,56.91,72.09,19.36,54.2-44.52l-20-38.07c14.08,13.72,27.28,29.7,36.78,47.11,22.51,41.25,14.79,76.1,78.08,71.63,46.78-3.31,49.18-23.35,47.11-63.24Z"/>
            <path class="st8" d="M597.64,390.73c-.91,18.9,1.81,76.07-7.74,89.69-12.09,17.23-94.16,23.09-110.34,10.97-2.56-1.92-6.01-6.77-7.1-9.68-10.33-27.7-10.41-79.89-21.94-113.57-.61-1.77-1.63-4.02-3.87-1.94-.56-3.29-4.48-22.51-3.23-23.23,29.09,39.69,30.22,152.96,103.24,130.35,34.57-10.71,45.7-51.21,50.98-82.6Z"/>
            <path class="st8" d="M214.34,404.93c30.6,17.53,74.24,92.69,68.4,129.06-4.84-2.37-12.03-6.71-14.2-7.74,1.8-1.48,5.54-.95,6.45-3.23,3.97-9.93-22.68-68-29.68-78.72-11.85-18.14-32.33-34.2-51.62-43.88-.36-6.48,18.77,3.44,20.65,4.52Z"/>
            <path class="st2" d="M268.54,526.24c2.16,1.03,9.36,5.37,14.2,7.74,6.32,3.09,13.29,10.98,21.94,9.03l38.72,33.55c.81,3.09,1.71,3.09,2.58,5.16l-7.74-3.87c-39-44.77-94.26-46.59-140.67-80.01l2.58-2.58c19.73,12.66,46.71,20.66,68.4,30.97Z"/>
            <g>
              <path class="st17" d="M423.41,333.95c-.56,3.87,3.45,2.51,5.81,2.58,31.58.91,132.76-6,154.87,3.87,2.65,1.18,12.27,8.99,16.13,11.62,1.85,6.51.78,16.51,0,23.23-.58,5-1.74,10.46-2.58,15.49-5.28,31.39-16.4,71.89-50.98,82.6-73.02,22.61-74.15-90.66-103.24-130.35-1.26.72,2.66,19.94,3.23,23.23,3.06,17.92,6.79,34.61,7.74,52.91,2.07,39.88-.32,59.93-47.11,63.24-63.29,4.48-55.57-30.38-78.08-71.63-9.5-17.4-22.7-33.38-36.78-47.11l20,38.07c17.89,63.89,4.92,101.44-54.2,44.52-11.77-17.65-24.68-31.04-43.88-41.3-1.88-1.08-21.01-11-20.65-4.52,19.29,9.68,39.77,25.74,51.62,43.88,7.01,10.73,33.66,68.8,29.68,78.72-.91,2.28-4.65,1.75-6.45,3.23-21.69-10.31-48.66-18.31-68.4-30.97-19.24-12.35-36.26-31.38-40.01-54.2,1.61-23.07,29.67-42.95,47.75-54.2,66.37-31.88,142.62-44.81,215.52-52.91Z"/>
              <g>
                <path class="st1" d="M506.65,357.18c9.37-1.19,53-1.48,61.95,0,28.98,4.79,5.56,50.89-4.52,63.88-36.95,47.62-94.75-28.46-89.05-47.75,2.07-7,24.75-15.26,31.62-16.13Z"/>
                <path class="st1" d="M354.37,349.43c7.43-1.24,34.99-.38,42.59,1.29,36.86,8.09,29.8,64.29-2.58,69.69-47.99,8-79.31-64.4-40.01-70.98Z"/>
                <path class="st17" d="M258.87,371.37c42.48-8.56,45.6,72.22,1.29,50.33-21.16-10.45-25.58-45.44-1.29-50.33Z"/>
                <path class="st1" d="M196.92,429.45c34.8-8.65,51.41,56.43,9.03,43.88-19.92-5.9-27.84-39.21-9.03-43.88Z"/>
                <path class="st13" d="M200.14,495.27l-2.58,2.58c-18.41-13.26-39.17-31.7-37.43-56.78,3.75,22.82,20.76,41.86,40.01,54.2Z"/>
              </g>
            </g>
            <path class="st8" d="M1032.55,448.81c-3.17,32.82-78.06,78.58-107.12,81.31-21.08,1.98-13.61-14.4-9.03-29.04,9.71-31.04,35.02-62.62,55.49-87.11,6-3.46,15.85-10.36,23.23-8.39-22.36,4.57-68.88,75.66-65.82,92.92,3.96,22.32,55.18.22,66.46-7.1,16.54-10.73,26.71-26.17,36.78-42.59Z"/>
            <g>
              <path class="st17" d="M922.86,362.34c32.91,15.5,114.76,34.08,109.7,86.47-10.07,16.42-20.24,31.86-36.78,42.59-11.28,7.32-62.5,29.42-66.46,7.1-3.06-17.26,43.46-88.35,65.82-92.92-7.38-1.97-17.23,4.93-23.23,8.39-1.64.94-3.6,1.54-5.16,2.58-20.7,13.78-52.65,65.15-70.34,68.4-45.46,8.35-18-67.18-10.97-87.11l18.71-36.78c-10.64,12.75-20.28,26.56-29.04,40.65-10.91,17.56-32.16,67.13-45.81,76.79-23.75,16.8-82.53,10.23-88.4-22.58-4.77-26.68,17.88-79.22,14.84-109.05-35.52,47.58-20.43,132.17-101.95,122.6-64.74-7.59-40.55-70.19-50.98-114.86,28.1-20.72,65.06-24.29,99.37-24.52,39.01-.27,93.4,5.61,132.28,11.62,29.78,4.6,59.52,12.28,88.4,20.65Z"/>
              <path class="st1" d="M658.94,339.11c8.16-1.08,33.1-1.05,41.3,0,50.23,6.42,21.05,67.81-7.74,83.89-77.38,43.2-89.86-76.45-33.55-83.89Z"/>
              <path class="st1" d="M794.45,346.85c15.64-2.18,50.85-.33,60.01,14.84,22.89,37.9-76.24,105.74-86.47,28.39-3.09-23.34.7-39.64,26.46-43.23Z"/>
              <path class="st1" d="M927.37,368.79c15.4-1.71,31.87,16.83,29.04,31.62-1.49,7.76-26.31,33.26-34.2,35.49-36.95,10.43-27.65-63.47,5.16-67.11Z"/>
              <path class="st1" d="M986.74,424.29c19.93-4.11,29.15,30.39,10.32,45.17-37.64,29.55-30.38-41.03-10.32-45.17Z"/>
            </g>
          </g>
          <path class="st2" d="M916.4,533.98c-48.34,22.2-74.85,49.38-96.79,98.08-.55-2.74-3.67,2.26-3.87,2.58l33.55-59.37c1.98-2.05,3.64-4.94,3.87-5.16,9.02-8.76,23.84-21.4,34.85-27.1,6.29-3.26,20.99-8.36,28.39-9.03Z"/>
          <path class="st19" d="M819.61,632.07c-11.28,25.03-13.43,55.75-38.72,72.27l-3.87-2.58c24.76-14.96,25.54-45.55,38.72-67.11.2-.32,3.32-5.32,3.87-2.58Z"/>
          <g>
            <path class="st2" d="M780.9,704.34c-52.73,34.44-312.62,35.03-366.52,1.29l2.58-2.58c52.09,31.28,308.39,29.93,360.07-1.29l3.87,2.58Z"/>
            <path class="st13" d="M345.98,581.73c6.41,15.32,22.68,33.32,30.97,50.33,10.94,22.43,16.2,56.69,40.01,70.98l-2.58,2.58c-29.21-18.29-45.14-92.18-76.14-127.77l7.74,3.87Z"/>
            <path class="st6" d="M888.01,543.02c-11.01,5.7-25.82,18.34-34.85,27.1-3.07-16.98-9.83-27.45-26.46-33.55-36.52-13.41-222.22-17.03-272.31-18.07-49.31-1.02-105.14-1.08-153.58,7.74-13.29,2.42-52.6,10.15-57.43,23.88-1.83,5.21-1.37,21.19,0,26.46l-38.72-33.55c9.47-2.13,32.5-15.47,45.81-19.36,67.99-19.86,156.21-20.67,227.14-20.65,101.41.02,216.91-.5,310.38,40.01Z"/>
            <path class="st6" d="M815.74,634.65c-13.18,21.56-13.95,52.15-38.72,67.11-51.67,31.22-307.98,32.57-360.07,1.29-23.8-14.29-29.07-48.55-40.01-70.98,7.24-6.26,25.18,6.32,31.62,11.62,10.92,8.99,17.32,23.27,29.68,30.97,40.1,25,156.66,27.18,203.91,21.94,38.18-4.24,161.75-36.6,176.16-74.21,1.44-3.77-.62-11.52,5.16-19.36,2.63-3.56,5.92-1.52,7.74-3.87.52-.67-3.29-.11-1.94-1.94,1.67-2.25,1.98,1.21,4.52-1.94,6.26-7.77,7.3-11.5,15.49-20l-33.55,59.37Z"/>
            <g>
              <path class="st6" d="M853.17,570.12c-.23.22-1.89,3.11-3.87,5.16-8.19,8.5-9.22,12.23-15.49,20-2.53,3.14-2.84-.32-4.52,1.94-1.36,1.83,2.46,1.26,1.94,1.94-1.82,2.35-5.12.31-7.74,3.87-5.78,7.84-3.72,15.59-5.16,19.36-14.41,37.61-137.98,69.97-176.16,74.21-47.25,5.24-163.8,3.06-203.91-21.94-12.36-7.71-18.76-21.98-29.68-30.97-6.44-5.3-24.38-17.87-31.62-11.62-8.3-17.01-24.56-35.02-30.97-50.33-.87-2.08-1.77-2.07-2.58-5.16-1.37-5.27-1.83-21.24,0-26.46,4.83-13.72,44.14-21.46,57.43-23.88,48.43-8.82,104.27-8.77,153.58-7.74,50.09,1.04,235.79,4.66,272.31,18.07,16.63,6.1,23.39,16.57,26.46,33.55Z"/>
              <g>
                <path class="st24" d="M528.59,536.56c46.99-.81,245.69,1.42,276.18,25.81,24.21,19.37-.66,54.51-19.36,68.4-69.29,51.48-275.23,36.83-348.45-5.16-17.93-10.28-67.53-50.52-42.59-72.27,17.88-15.6,108.05-16.32,134.22-16.78Z"/>
                <path class="st24" d="M595.7,544.31c37.59-.06,120.44,4.67,152.29,23.23,27.75,16.17,2.32,27.88-16.78,36.14-60.64,26.21-154.88,27.43-215.52,1.29-15.47-6.67-43.09-18.58-31.62-39.36,11.12-20.14,89.95-21.26,111.63-21.29Z"/>
              </g>
            </g>
          </g>
        </g>
      </g>
    </g>
  </g>
</svg>