<?xml version="1.0" encoding="UTF-8"?>
<svg id="ARM_R" xmlns="http://www.w3.org/2000/svg" version="1.1" viewBox="0 0 500 500">
  <!-- Generator: Adobe Illustrator 29.4.0, SVG Export Plug-In . SVG Version: 2.1.0 Build 152)  -->
  <defs>
    <style>
      .st0 {
        fill: #715842;
      }

      .st1 {
        fill: #42372f;
      }

      .st2 {
        fill: #644f39;
      }

      .st3 {
        fill: #9e735d;
      }

      .st4 {
        fill: #443823;
      }

      .st5 {
        fill: #bc6454;
      }

      .st6 {
        fill: #8d614d;
      }

      .st7 {
        fill: #937d6c;
      }

      .st8 {
        fill: #beb0a3;
      }

      .st9 {
        fill: #e7d2c3;
      }

      .st10 {
        fill: #f8f1ed;
      }
    </style>
  </defs>
  <g>
    <polygon class="st7" points="237.94 357.91 247.29 370.8 277.77 376.27 295.86 394.06 295.86 406.93 237.94 406.69 205.79 386.97 204.32 376.27 237.94 357.91"/>
    <path class="st0" d="M263.95,405.72c-3.51-.67-5.74-21.92-10.44-25.09-5.64-2.46-12.28,5.08-17.9,7.48,6.78-6.5-1.21-20.32-6.71-21.19-4.52-.72-19.83,10.17-25.17,12.47-.84.36-1.4.87-2.24,1.25l.56,26.18c20.67.71,41.29-.31,61.9-1.07,0,0,0,0,0-.01Z"/>
    <path class="st0" d="M226.13,367.75c-1.77.1-18.29,4.84-18.47,1.92,10.15-49.54,22.57-98.83,31.31-148.6.39-2.2.56-4,.82-6.15.12-1.02.06-4.73,1.35-5.1-.31-.54-.62-.96-.9-1.3-.44-.15-.88-.29-1.31-.43-2.09,3.57-1.38,10.23-3.35,13.44-.91,1.48-20.74,12.66-24.4,13.99-.08.52-.28.3-.45,1.7l24.49-11.23-28.71,138.83c-1.64,5.9,2.52,9.31-4.14,7.54l2.62,4.34c.38-.07,1.14.47,1.52.41.64-.11,1.11-.35,1.75-.44,6.15-4.79,13.82-5.21,20.7-7.24.28-1.24-2.18-1.7-2.82-1.66Z"/>
    <path class="st8" d="M226.13,367.75c-1.77.1-18.29,4.84-18.47,1.92,10.15-49.54,22.57-98.83,31.31-148.6,1.88-.05.33-3.04,2.36-1.19,15.06,13.7-17.96,111.92-19.24,135.44-.28,5.21,1.41,8.47,4.04,12.44Z"/>
    <g>
      <path class="st9" d="M262.33,234.55c8.18-.33,9.79-.03,18.04-3.39.69-.28-3.31-.25-3.02-1.29.12,1.49,3.68,1.7,2.64,7.13-2.97,15.56-33.61,114.34-40.96,128.28-2.14,4.06-6.93,3.22-10.08,4.15.28-1.24-2.18-1.7-2.82-1.66-2.63-3.98-4.32-7.24-4.04-12.44,1.28-23.51,34.3-121.74,19.24-135.44-2.03-1.85-.48,1.14-2.36,1.19.39-2.2.56-4,.82-6.15,7.98,5.41,8.86,21.84,21.48,22.08.75.01.93-2.44,1.06-2.45Z"/>
      <path class="st10" d="M273.95,247.64c3.84-.25-4.2,23.79-4.75,25.57-9.21,29.96-21.53,59.2-31.01,89.1l-3.01.57,38.77-115.24Z"/>
    </g>
    <path class="st8" d="M238.93,208.08c-4.78-1.58-9.57-3.09-14.41-4.46-1.54,2.42-3.36,4.66-5.54,6.67-.55,3.8-6.26,15.72-7.79,25.22,3.66-1.33,23.49-12.5,24.4-13.99,1.97-3.21,1.26-9.88,3.35-13.44Z"/>
    <path class="st8" d="M202.36,372.35c1.14-28.73,5.23-56.83,6.63-85.57.37.04,2.82-35.71.95-34.32.36-5.11.15-10.09.79-15.26l24.49-11.23-28.71,138.83c-1.64,5.9,2.52,9.31-4.14,7.54Z"/>
  </g>
  <g>
    <path class="st1" d="M166,128.36s-4.07-4.85-3.76-9.03,7.51-43.49,14.99-50.44,21.81-15.38,28.36-16.15c0,0,14.38-2.73,18.79-.14s9.5,17.71,9.5,17.71l.97,10.25-3.32-.28-12.17-15.63-11.49-.68-22.96,10.83-3.07,16.79-7.19,18.45,1.79,15.21-10.43,3.11Z"/>
    <path class="st7" d="M217.07,55.86s-19.9.89-33.77,17.16c-13.86,16.27-17.94,53.47-17.94,53.47,0,0,23.08,3.91,26.06.31s12.68-24.35,12.68-24.35l17.75-36.3-4.78-10.29Z"/>
    <path class="st7" d="M231.18,70.25c19.95,25.07,35.65,133.58,35.65,133.58-.17-.22-.01-.68-.18-.9-3.69-4.74-7.91-12.08-15.89-11.7-5.62.27-16.13,6.32-17.62,11.96-2.73-2.36-3.99-7.39-4.96-10.65-3.4-11.42-21.01-70.83-20.46-77.91.04-.57-7.81-5.08-7.21-6.93,5.05-15.48,17.9-47.12,19.58-51.23,3.83,3.8-8.71-11.11,11.1,13.78Z"/>
    <path class="st0" d="M220.08,56.47c.89,16.63-14.52,35.76-19.58,51.23-.6,1.85,7.25,6.36,7.21,6.93-.55,7.08,17.06,66.49,20.46,77.91.97,3.26,2.23,8.29,4.96,10.65-.27,1.02,1.26,4.04,1.09,5.37-.61,4.9-.93,8.54-1.94,13.45-.15.71-1.68,3.26-1.96,4.13l-16.18-54.53-17.03,33.29c-.06-.13-.88-1.2-1.44-2.51l18.28-34.01-14.92-50.59c7.76-6.4-1-12.56,1.89-21.83,3.73-11.95,16.03-27.54,16.15-40.11,2.57-2.21,2.43.04,3.01.61Z"/>
    <path class="st8" d="M195.67,202.4c-10.89-25.25-26.07-48.42-30.31-75.91,2.83,2.01,7.74-.82,9.14-.92,11.05-.77,14.23.72,24.53-7.77l14.92,50.59-18.28,34.01Z"/>
    <path class="st8" d="M226.46,240.24c1.9-2.23,1.93-8.13,3.86-14.1l-16.18-54.53-17.03,33.29c4.78,11.12,12.48,28.83,15.63,40.63,4.76-.87,8.94-4.58,13.72-5.29Z"/>
    <g>
      <path class="st5" d="M256.06,201.34c4.57-.3,7.26,4.62,10.58,1.59.17.22.02.68.18.9,10.33,13.61,12.17,19.65,15.78,36.43,1.64,7.61-2.38,4.29,3.71,13.7.22,1.11-.85,1.56-1.43,2.15-.71-2.6-3.28-4.06-5.02-1.78.32-1.43.16-18.39-1.39-18.37.15,2.08-.92,3.92-1.15,5.83-4.62-.97.35-3.99-1.18-5.82-.32-.38-7.98-1.65-9.77-2.21-2.67-.84-3.6-2.43-7.18-3.21l-8.84-20.59c3.46-2.59,3.99-3.79,9.04-3.7-3.95-4.02-10.71.59-13.52,4.61l-1.08-.71c2.89-5.08,4.89-8.39,11.27-8.81Z"/>
      <path class="st4" d="M266.64,202.93c-3.32,3.03-6.01-1.89-10.58-1.59-8.17-6.62-16.27,1.45-21.85,7.23.17-1.33-1.36-4.36-1.09-5.37,1.49-5.64,12-11.7,17.62-11.96,7.99-.38,12.2,6.95,15.89,11.7Z"/>
      <path class="st2" d="M241.25,224.86c.27,10.6,4.92,26.51,12.55,34.29s19.63,9.11,24.82-1.77c.51-1.08.98-1.85,1.25-3.05,1.74-2.28,4.31-.82,5.02,1.78-6.96,7.11-8.8,7.61-17.17,11.87-12.65,2.05-24.1-6.64-34.27-12.64-1.66-.98-2.91-1.16-3.05-1.25-5.36-3.28-10.43-7.34-16.07-10.26,13.45-5.85,12.19-5.91,15.99-17.7.28-.86,1.82-3.42,1.96-4.13l8.97,2.84Z"/>
      <path class="st2" d="M267.71,267.98c-.13.07.89,2.43.1,2.78-13.3,5.88-22.29-8.9-33.27-10.04-.37-1-2.26-4.41-1.09-5.37,10.17,6,21.62,14.69,34.27,12.64Z"/>
      <path class="st6" d="M256.06,201.34c-6.38.42-8.37,3.73-11.27,8.81-3.24,5.68-3.72,8.04-3.55,14.71l-8.97-2.84c1-4.91,1.33-8.55,1.94-13.45,5.58-5.78,13.67-13.84,21.85-7.23Z"/>
      <path class="st5" d="M277.32,241.79c-.77,6.38,2.8,13.92-7.58,13.19l-3.37-21.23c1.79.56,9.45,1.83,9.77,2.21,1.53,1.83-3.44,4.85,1.18,5.82Z"/>
      <path class="st3" d="M245.87,210.87c-3.17,4.52-2.55,11.24-2.29,16.32.23,4.4.31,8.45,1.65,12.72,4.21,13.47,19.98,32.89,33.38,17.48-5.19,10.88-17.27,9.46-24.82,1.77s-12.27-23.69-12.55-34.29c-.17-6.66.31-9.02,3.55-14.71l1.08.71Z"/>
      <path class="st3" d="M278.47,235.96c.15,2.08-.92,3.92-1.15,5.83-.77,6.38,2.8,13.92-7.58,13.19l-3.37-21.23c-2.67-.84-3.6-2.43-7.18-3.21l-8.84-20.59c3.46-2.59,3.99-3.79,9.04-3.7-3.95-4.02-10.71.59-13.52,4.61-3.17,4.52-2.55,11.24-2.29,16.32-.86,4.41.59,7.88,1.65,12.72,4.21,13.47,19.98,32.89,33.38,17.48.51-1.08.98-1.85,1.25-3.05.32-1.43.16-18.39-1.39-18.37Z"/>
    </g>
  </g>
</svg>