<?xml version="1.0" encoding="UTF-8"?>
<svg id="Body" xmlns="http://www.w3.org/2000/svg" version="1.1" viewBox="0 0 600 500">
  <!-- Generator: Adobe Illustrator 29.4.0, SVG Export Plug-In . SVG Version: 2.1.0 Build 152)  -->
  <defs>
    <style>
      .st0 {
        fill: #715842;
      }

      .st1 {
        fill: #6f5a4c;
      }

      .st2 {
        fill: #9f5d48;
      }

      .st3 {
        fill: #644f39;
      }

      .st4 {
        fill: #44372a;
      }

      .st5 {
        fill: #937d6c;
      }

      .st6 {
        fill: #beb0a3;
      }

      .st7 {
        fill: #584a40;
      }

      .st8 {
        fill: #aa9587;
      }

      .st9 {
        fill: #e7d2c3;
      }

      .st10 {
        fill: #b06451;
      }

      .st11 {
        fill: #846c57;
      }

      .st12 {
        fill: #f8f1ed;
      }
    </style>
  </defs>
  <path class="st0" d="M367.8,202.2l-60.01-10.16c-.76,6.13-17.92,26.79-15.21,30.37,5.05,6.68,49.63,13.86,60.21,16.75,2.82.77,2.88.17,4.26,2.79-.59,1.09-1.99,1.16-2.65,2.23-.5.82-1.08,1.6-1.61,2.46-.82,1.33-20.22.89-21.68,3.25-3.76-3.2-13.15-1.16-18.47-2.12-11.9-2.16-11.35-4.91-22.31-9.95-2.36-1.08-18.89-12.9-19.93-10.38,1.92,26.37-4.68,41,28.18,45.35l17.82.11c-1.15,1.85-2.25,3.9-3.42,5.81-21.06.96-26.84-2.96-43.3-15.42l4.51,26.69,9.8,14.74c-10.54-5.19-14.1-12.59-21.91-18.76-1.9-1.5-3.21-3.6-5.43-4.91,2.77,1.15,2.7-1.91,3.03-4.02,2.89-18.47-1.08-42.18,2.4-61.19,5.72,2.25,10.74,5.28,16.99,6.48,2.35.45,3.42,2.22,5.26.67l29.06-41.87,56,11.16c1.51,1.7-1.28,8.06-1.61,9.94Z"/>
  <path class="st12" d="M407.43,93.89c5.96,9.98,7.31,20.5,9.52,31.04-2.99,16.87-10.65,33.71-17.07,49.48l-14.13,4.45s7.18-36.61,4.1-33.61c-.37-2.88.9-7.01-.85-8.6-4.25-3.86-50.34-12.66-58.98-17.42l-3.51,13.73c-1.56.88-.38-1.93-1.78-1.79l.96-4.47c.45-2.1-19.85-4.52-18.99-2.23-4.78-2.27-.3-16.45-6.89-13.18,3.63,24.97-8.75,46.05-11.95,70.34-.2,1.55-.07,4.65-2.94,3.57,3.6-28.31,12.92-86.92-3.91-112.1.29-4.13,6.9,4.01,7.17,4.35,3.71,4.73,8.82,16.87,11.42,19.76,6.43,7.18,39.71,11.41,51.52,14.4.93.24-.48,2.67.45,2.9,17.77,4.43,36.39,5.18,53.74,11.61,3.33-4.59-71.32-22.89-71.32-22.89,16.03,4.95,43.5,13.17,59.56,14.74,2.03.2,3.75.87,5.88.33,3.12-2.14-1.94-17.78-3.51-21.33-2.39-5.43-8.44-15.41-14.48-18.09.72-3.18-1.24-8.18-3.04-10.94,11.93-.74,19.19,21.62,24.37,24.9.2.12,2.23-.96,4.65,1Z"/>
  <path class="st8" d="M309.8,281.29s-4.32,23.08-21.18,17.82c-13.21-4.12-24.78-12.4-29.59-16.15-.71-.71-1.46-1.38-2.37-1.92-8.8-5.23-64.48-8.7-74.63-14.66-6.58,6.98,13.17,12.37,14.26,22.56,4.22,1.98-38.97,64.13-35.67,68.12,15.18,18.33,39.48,19.72,73.83,27.37,12.12,4.09,25.91.14,40.57-3.12,25.34-2.14,46.6-38.92,47.18-45.9.9-10.87-12.41-54.11-12.41-54.11Z"/>
  <path class="st6" d="M284.93,185.23c3.6-28.31,12.92-86.93-3.91-112.1-7.03-10.52-14.79-29.88-27.3-32.15-7.31-1.32-17.49,3.29-18.4,10.05-.18,1.37.01,1.67.45,2.9,28.83-2.61,50.89,29.69,49.29,52.25-2.14,30.15-38.56,43.97-76.97,30.81-1.67,2.56-12.08-7.37-12.55-4.39-.34,2.14-12.16,52.24-10.37,53.85,1.06.95,28.72,9.09,31.3,10.16,9.11,3.8,59.57,20.33,66.21,18.98-2.31-9.7.98-20.5,2.23-30.37Z"/>
  <path class="st11" d="M331.12,249.89c-4.76,7.73-9.94,15.32-14.7,23l-17.82-.11c-32.87-4.35-26.27-18.98-28.18-45.35,1.04-2.52,17.57,9.3,19.93,10.38,10.96,5.04,10.4,7.79,22.31,9.95,5.33.97,14.71-1.08,18.47,2.12Z"/>
  <path class="st11" d="M312.99,278.7c-10.13,16.56,2.63,41.59-28.99,26l-9.8-14.74-4.51-26.69c16.47,12.46,22.24,16.38,43.3,15.42Z"/>
  <path class="st9" d="M317.9,72.68c-4.1,3.72-17.44-4.51-20.51-.22.49.53.74.86.74,1.56.02,2.09,7.12,19.36,9.06,20.66,4.19,2.8,20.8,6.74,26.81,8.6,0,0,74.65,18.3,71.32,22.89-17.35-6.43-35.97-7.18-53.74-11.61-.93-.23-45.54-10.12-51.97-17.3-2.59-2.9-7.71-15.04-11.42-19.76-.27-.34-6.88-8.48-7.17-4.35-7.03-10.52-14.79-29.88-27.3-32.15,1.72-1.68,15.62-2.38,16.66-2.01.1.04-.72,1.5.13,1.9,9.85,4.67-5.17,2.56,4.1,9.37,22.69,16.67,11.06,14.39,43.29,22.44Z"/>
  <path class="st4" d="M285.18,33.82c-19.49.05,8.17,15.46,14.1,19.87,4.89,3.65,10,7.17,14.99,10.72s10.04,7.12,14.99,10.72c-3.76-.85-7.63-1.52-11.37-2.46-32.23-8.05-20.6-5.77-43.29-22.44-9.27-6.81,5.75-4.7-4.1-9.37-.85-.4-.03-1.86-.13-1.9,2.44-13.36,4.48-9.45,14.8-5.15Z"/>
  <path class="st4" d="M214.38,141.87c12.27-18.77,46.22-39.89,38.66-62.7,11.73,19.16-10,46.91-21.22,63.2,6.98,7.49,24.51,1.1,31.25-4.47,14.77-12.19,19.19-37.25,11.77-54.49-6.07-14.11-25.7-31.89-43.46-26.68l2,3.24c-2-1.14-4.42-1.56-5.82-3.13,1.17-.46,7.75-2.86,8.2-2.9,28.83-2.61,50.89,29.69,49.29,52.25-2.14,30.15-18.76,57.19-70.69,35.68Z"/>
  <path class="st4" d="M282.7,215.6c1.78-.36.95-1.57,2.45-1.34,6.7-1.59-2.38,9.46-6.06,8.04-6.25-1.2-11.28-4.23-16.99-6.48-1.95-.77-4.05-1.47-6.01-2.23-49.29-19.12-69.24-16.91-39.15-14.07.08-.98-1.25-1.62-.45-2.9,9.11,3.8,59.57,20.33,66.21,18.98Z"/>
  <path class="st5" d="M256.66,278.04s14.58,15.64,31.96,21.07,21.18-17.82,21.18-17.82c0,0,4.82,66.17-15.26,91.33-20.08,25.16-92.58,5.59-92.58,5.59,0,0,31.47-23.05,41.48-51.08,10-28.03-18.41-54.28-18.41-54.28l31.63,5.18Z"/>
  <path class="st11" d="M367.8,202.2c-1.55,9.07-6.74,32.29-10.75,39.75-1.38-2.62-1.45-2.02-4.26-2.79-10.58-2.88-55.16-10.07-60.21-16.75-2.7-3.58,14.46-24.25,15.21-30.37l60.01,10.16Z"/>
  <path class="st4" d="M361.19,242.84c-2.87,2.25-1.8,4.3-6.78,1.34.66-1.08,2.06-1.14,2.65-2.23,4.01-7.46,9.2-30.68,10.75-39.75.32-1.88,3.12-8.24,1.61-9.94l-56-11.16-29.06,41.87c-1.84,1.55-2.91-.22-5.26-.67,3.68,1.42,12.76-9.63,6.06-8.04l33.61-47.9,55.42,13.84-12.99,62.64Z"/>
  <path class="st4" d="M256.09,213.59c-4,15.27-3.24,32.2-3.93,48.24-.34,8.02-6.66,22.06,7.54,15.19-.33,2.11-.27,5.17-3.03,4.02-8.8-5.23-64.48-8.7-74.63-14.66-4.25-2.49-5.94-4.3-9.18-7.59-.19-2.18,7.4,1.5,7.75,1.67,7.92,3.92,53.45,6.79,62.8,9.3.31.08-9.67,1.29-5.19-.19-2.66-10.57,14.78-41.42,11.06-49.5-1.06-2.31-68.72-12.85-70.27-12.32-1.66.57-.27,4.84-2.71,5.02.17-4.39,32.54-30.4,32.88-34.8-30.09-2.84-2.39,16.5,46.9,35.62Z"/>
  <path class="st3" d="M262.09,215.83c-3.48,19.01.49,42.71-2.4,61.19-14.2,6.88-7.88-7.17-7.54-15.19.69-16.04-.07-32.97,3.93-48.24,1.96.76,4.06,1.46,6.01,2.23Z"/>
  <path class="st10" d="M395.93,97.02l-1.03-.22c-23.07-3.86-45.92-9.56-68.73-14.85-.82-.19-1.46-.3-2.07-.45-8.82-2.1-17.66-3.81-25.97-7.48,0-.7-.25-1.03-.74-1.56,3.07-4.29,16.41,3.95,20.51.22,3.74.93,7.61,1.6,11.37,2.46,12.01,2.72,24.07,5.63,36.37,6.92,6.38.67,14,4.94,15.82-3.13,6.04,2.68,12.09,12.66,14.48,18.09Z"/>
  <path class="st2" d="M395.93,97.02l-1.03-.22-22.18-4.23c-15.57-3.26-31.07-7.03-46.55-10.62-.82-.19-1.46-.3-2.07-.45-8.82-2.1-17.66-3.81-25.97-7.48.02,2.09,7.12,19.36,9.06,20.66,4.19,2.8,20.8,6.74,26.81,8.6,16.03,4.95,43.5,13.17,59.56,14.74,2.03.2,3.75.87,5.88.33,3.12-2.14-1.94-17.78-3.51-21.33Z"/>
  <path class="st6" d="M172.86,258.78c3.23,3.29,4.93,5.1,9.18,7.59-6.58,6.98,13.17,12.37,14.26,22.56-5.95-2.79-35.78-4.71-42.09-2.75.06-.18-2.23-.55-1.39-3.57,2.79-10.05,11.21-20.15,16.49-27.4,1.33,1.06,2.38,2.38,3.56,3.57Z"/>
  <path class="st7" d="M378.41,67.99c-.69-1.05-.21-2.15-1.49-3.13-2.19-1.68-3.09-1.24-4.97-2.01-2.53-1.03-.26-4.86-2.57-5.92-4.42-2.02-9.74-3.96-13.04-6.04-17-10.67-42.94-9.18-57.05,2.8,4.89,3.65,10,7.17,14.99,10.72,16.02-8.2,35.27-5.79,49.35,6.92.8,3.55,2.1,7.08,2.01,10.72,6.38.67,14,4.94,15.82-3.13.72-3.18-1.24-8.18-3.04-10.94Z"/>
  <path class="st7" d="M352.62,52.13c-17-10.67-39.23-10.42-53.34,1.57-5.92-4.41-33.58-19.83-14.1-19.87,6.98-.02,15.3,5.51,23.9,7.03,13.89,2.47,37.52-3.97,43.54,11.28Z"/>
  <path class="st1" d="M363.62,71.34c.8,3.55,2.1,7.08,2.01,10.72-12.3-1.29-24.36-4.2-36.37-6.92-4.96-3.6-9.99-7.17-14.99-10.72,16.02-8.2,35.27-5.79,49.35,6.92Z"/>
  <path class="st4" d="M231.77,75.89c-1.09-1.77,7.48-12.57,1.62-15.92l-2-3.24c17.75-5.21,37.39,12.58,43.46,26.68,7.42,17.24,3,42.3-11.77,54.49-6.75,5.57-29.15,20.33-49.15-.34,11.22-16.29,29.57-42.52,17.84-61.68Z"/>
  <path class="st11" d="M172.86,258.78c-1.17-1.19-2.23-2.52-3.56-3.57,6.93-9.53,6.54-30.22,7-42.43,2.43-.18,17.78-19.69,19.45-20.26,1.55-.53,52.47,25.25,53.53,27.56,3.72,8.08-8.53,39.12-5.87,49.69-4.48,1.48-54.88-5.39-62.8-9.3-.35-.17-7.94-3.86-7.75-1.67Z"/>
  <path class="st9" d="M330.01,119.24s67.38,15.26,71.63,19.13c1.74,1.58-7.6,36.39-5.71,36.25.99-.07.73-1.62.9-1.67,1.73-.57,1.94.25,3.68-2.01l.84,1.12c-6.48,15.91-15.03,30.85-20.95,46.9-4.91,2.8-12.9,18.94-19.22,23.9l12.99-62.64-55.42-13.84-33.61,47.9c-1.5-.23-.68.98-2.45,1.34-2.31-9.7.98-20.5,2.23-30.37,2.86,1.08,2.73-2.02,2.94-3.57,3.2-24.29,11.95-70.34,11.95-70.34l30.2,7.93Z"/>
  <path class="st9" d="M333,140.45l39.27,8.48c2.15,2.14-3.7,17.56-4.47,18.2-3.59,2.98-35.44-8.8-41.95-8.6l7.15-18.09Z"/>
  <path class="st4" d="M241.35,53.86s-36.38,3.65-39.39,14.1-13.08,19.84-5.67,70.01c0,0,9.77,15.59,49.86,8.93l-4.8-93.05Z"/>
</svg>