<?xml version="1.0" encoding="UTF-8"?>
<svg id="ARM_R" xmlns="http://www.w3.org/2000/svg" version="1.1" viewBox="0 0 500 500">
  <!-- Generator: Adobe Illustrator 29.4.0, SVG Export Plug-In . SVG Version: 2.1.0 Build 152)  -->
  <defs>
    <style>
      .st0 {
        fill: #715842;
      }

      .st1 {
        fill: #6f5a4c;
      }

      .st2 {
        fill: #9f5d48;
      }

      .st3 {
        fill: #9e735d;
      }

      .st4 {
        fill: #44372a;
      }

      .st5 {
        fill: #604f30;
      }

      .st6 {
        fill: #d3bead;
      }

      .st7 {
        fill: #8d614d;
      }

      .st8 {
        fill: #b36142;
      }

      .st9 {
        fill: #beb0a3;
      }

      .st10 {
        fill: #e7d2c3;
      }

      .st11 {
        fill: #846c57;
      }
    </style>
  </defs>
  <path class="st7" d="M208.42,71.93c1.21,1.49,3.31,1.78,5.05,2.82,5.08,3.04,8.15,7.06,11.76,11.54.84,9.56-1.25,19.27-4.47,28.45l-51.72,91.1c-.1-.24-26.86-19.08-27.04-19.27,6.65-6.94,9.12-3.4,13.94-12.06,8.97-16.11,37.24-48.26,38.62-64.37.79-9.23,13.52-33.21,4.38-37.67.82-1.32,9.26-.44,9.48-.55Z"/>
  <path class="st6" d="M194.34,116.7l3.51,1.13c-16.67,23.09-30.19,49.64-52.04,68.25,3.14,2.28,7.31,4.11,7.7,8.44-7.05-1.51-19.75,1.83-24.66,7.41,5.59-31.36,20.13-62.59,31.55-92.61,8.29,9.65,22.36,11.22,33.95,7.38Z"/>
  <path class="st6" d="M189.78,72.11c21.36,1.3,25.35,24.4,10.49,37.81-12.86,11.61-38.55,8.47-36.77-12.1,5.31-12.95,10.64-23.62,26.28-25.71Z"/>
  <path class="st7" d="M194.34,116.7c-11.59,3.84-25.65,2.27-33.95-7.38.98-2.57,1.22-6.87,3.12-11.5-1.78,20.57,23.91,23.71,36.77,12.1,14.85-13.41,10.87-36.51-10.49-37.81,28.66-3.81,29.01,36.49,4.55,44.59Z"/>
  <g>
    <path class="st1" d="M231.41,331.94c.49.06,8.44,3.98,8.84,4.26,2.96,2.05,6.66,6.86,9.35,9.56-.74,1.69-.42,4.14-.22,5.85l-1.13,5.38c-10.08-10.51-21.81-1.21-32.73,2.63-.33-.97-.64-1.57-.9-2.75.58-10.16,4.02-16.17,11.29-23.14,1.44-.23,5.21-1.83,5.49-1.79Z"/>
    <path class="st11" d="M249.38,351.61c.23,1.91,1.2,11.18.47,12.16-2.26,3.04-16.55,8.54-21.88,6.54-4.4-1.65-7.27-6.96-11.56-7.93-.3-.71-.6-1.87-.9-2.75,10.92-3.84,22.65-13.14,32.73-2.63l1.13-5.38Z"/>
    <path class="st5" d="M138.15,190.63c2.73-1.93,10.43-4.48,13.74-4.48.26,0,4.87.67,5.11.76,4.05,1.54,5.51,4.16,7.45,6.99-.44.23-2.2-.25-2.56-.38-28.52-10.9-31.63,24.15-24.03,42.8-.34-.09-4.86-.82-5.11-.76-.1-6.61-5.3-16.01-5.9-21.79-.76-7.39,5.4-18.99,11.29-23.14Z"/>
    <path class="st0" d="M249.38,351.61c-.2-1.71-.52-4.16.22-5.85,1.03,1.04,1.68,2.65,2.72,3.67.92,2.12-.42,17.16-1.02,17.81-.9.97-5.39.68-6.04,1.06-2.62,1.55-6.53,5.68-8.81,6.53-2.05.76-8.4-3.27-10.97,1.3-2.02-3.88-6.13-6.86-9.05-13.76,4.29.97,7.16,6.28,11.56,7.93,5.34,2,19.62-3.49,21.88-6.54.73-.98-.24-10.24-.47-12.16Z"/>
    <path class="st9" d="M247.28,396.38c3.57,6.32,9.37,10.83,13.51,16.72-2.91,7.93-19.71-6.86-22.87-10.93l9.36-5.79Z"/>
    <path class="st2" d="M203.56,312.76c1.83,3.26,14.84,23.17,16.4,23.68,1.29.42,2.92-2.14,3.94-2.35.75-.15,1.29-.24,2.01-.35-7.27,6.97-10.71,12.98-11.29,23.14-.28-1.3-1.69-5.76-1.6-6.77.29-3.34,5.35-10.68,5.28-11.3-.18-1.52-9.25-9.51-10.71-11.4-5.4-6.97-9.84-14.33-14.76-21.48l10.79,13.04-.05-6.21Z"/>
    <path class="st10" d="M178.73,220.86c-6.63,1.99-19.86,7.62-25.3,11.91-1.25.99-6.22,8.29-6.82,8.46-1.06.3-4.75-3.52-5.64-3.78-1.28-.38-2.72-1.01-3.1-1.12-.34-.09-4.86-.82-5.11-.76-.31.07-4.97,3.54-5.14,3.81-1.83,2.8.09,10.42.92,13.53,8.88,33.16,52.64,69.38,78.66,92.42,1.81,1.6,2.66,4.14,5.82,4.79.29-3.34,5.35-10.68,5.28-11.3-.18-1.52-9.25-9.51-10.71-11.4-5.4-6.97-9.84-14.33-14.76-21.48-10.07-14.61-20.89-29.19-28.87-45.14-3-5.99-9.18-15.09-5.08-20.69-.47-.9-.27-2.96-.71-4.03,3.38-3.83,4.27-6.76,8.98-3.23,6.44,2.14,14.23-5.96,18.74-.8,8.18,9.36,35.75,71.99,41.59,86.89,3.08-3.3-2.6-16.74-4.35-21.23-10.26-26.32-24.78-51.05-35.53-77.17-2.81-1.64-6.16-.5-8.87.31Z"/>
    <path class="st11" d="M164.45,193.9c5.42,7.89,8.23,19.19,14.27,26.96-6.63,1.99-19.86,7.62-25.3,11.91-1.25.99-6.22,8.29-6.82,8.46-1.06.3-4.75-3.52-5.64-3.78,4.92-14.8,2.6-33.77,22.35-38.15l-1.43-5.77c.36.14,2.12.61,2.56.38Z"/>
    <path class="st3" d="M187.85,282.33c6.67,11.17,9.64,19.64,15.71,30.44l.05,6.21-10.79-13.04c-10.07-14.61-20.89-29.19-28.87-45.14-3-5.99-9.18-15.09-5.08-20.69,6.55,12.55,20.63,28.24,28.98,42.22Z"/>
    <path class="st0" d="M161.9,193.52l1.43,5.77c-19.76,4.38-17.43,23.36-22.35,38.15-1.28-.38-2.72-1.01-3.1-1.12-7.6-18.66-4.5-53.7,24.03-42.8Z"/>
    <path class="st8" d="M167.14,232.85c.55.41,6.28,9.92,7.42,11.56,10.09,14.5,14.67,28.47,22.95,43.28.44.78,1.2,1.42,1.63,2.2l-3.21,1.81c-2-1.53-5.71-16.8-8.08-9.37-8.35-13.98-22.43-29.67-28.98-42.22-.47-.9-.27-2.96-.71-4.03,3.38-3.83,4.27-6.76,8.98-3.23Z"/>
    <g>
      <path class="st4" d="M272.69,366.2c.21.5.9.98,1.09,1.47.1.24,1.1,2.88,1.17,3.11,1.91,6.83.94,12.78-6.31,16.05l-8.63-7.82c-.82,4.08,7.36,7.19,7.07,9.55-.24,1.92-11.05,12.96-14.32,10.6l-6.61-10.46c-4.46.74.16,5.95,1.14,7.68l-9.36,5.79c-4.84-6.23-8.63-18.69-12.45-26.03,2.58-4.58,8.93-.54,10.97-1.3,2.28-.85,6.19-4.97,8.81-6.53.65-.38,5.14-.08,6.04-1.06.6-.66,1.94-15.69,1.02-17.81,6.29,6.18,10.98,15.11,20.37,16.76Z"/>
      <path class="st4" d="M242.78,384.93c.89-.24,3.34,2.93,1.44,3.48-1.25.36-1.19-2.42-1.44-3.48Z"/>
    </g>
    <g>
      <path class="st9" d="M273.78,367.67c.79-.5,5.21,1.22,5.66,1.5.7,2.16,1.93,3.97,4.73,3.32.94.82,3.64,3.55,4.54,4.6.39.45.71,1,1.09,1.47-1.03,1.24-4.72,2.6-4.68,2.9.08.59,5.45,8.6,6.33,10.09.38.64-1.44,1-.65,2.19-8.31,7.31-14.09-7.46-21.91-4.25-2,2.8,23.4,23.79,8.97,27.47-1.61.41-21.35-15.94-25.11-17.79,3.27,2.36,14.09-8.68,14.32-10.6.29-2.36-7.89-5.47-7.07-9.55l8.63,7.82c7.26-3.27,8.22-9.22,6.31-16.05-.06-.23-1.07-2.87-1.17-3.11Z"/>
      <path class="st9" d="M284.17,372.48c-2.81.65-4.03-1.16-4.73-3.32,1.71,1.08,3.19,1.99,4.73,3.32Z"/>
      <polygon class="st9" points="279.55 379.31 280.83 379.5 281.38 380.23 280.64 380.78 279.55 379.31"/>
    </g>
    <path class="st2" d="M227.47,318.94c1.63,4.15,4.09,8.36,3.94,13-.29-.04-4.05,1.56-5.49,1.79-.73.12-1.26.2-2.01.35-5.12-16.37-16.54-29.44-24.77-44.2-.43-.78-2-.83-2.44-1.61,1.12-1.84-29.01-55.02-29.56-55.43,6.44,2.14,14.23-5.96,18.74-.8,8.18,9.36,35.75,71.99,41.59,86.89Z"/>
    <path class="st8" d="M199.14,289.89c8.23,14.76,19.65,27.83,24.77,44.2-1.02.21-2.66,2.78-3.94,2.35-1.56-.51-14.56-20.42-16.4-23.68-6.07-10.8-9.04-19.27-15.71-30.44,2.37-7.43,6.08,7.84,8.08,9.37l3.21-1.81Z"/>
  </g>
</svg>