<?xml version="1.0" encoding="UTF-8"?>
<svg id="Layer_1" xmlns="http://www.w3.org/2000/svg" xmlns:xlink="http://www.w3.org/1999/xlink" version="1.1" viewBox="0 0 500 500">
  <!-- Generator: Adobe Illustrator 29.4.0, SVG Export Plug-In . SVG Version: 2.1.0 Build 152)  -->
  <defs>
    <style>
      .st0 {
        fill: #a75c30;
      }

      .st1 {
        fill: #f0b88f;
      }

      .st2 {
        fill: url(#linear-gradient2);
      }

      .st3 {
        fill: url(#linear-gradient1);
      }

      .st4 {
        fill: url(#linear-gradient);
      }

      .st5 {
        fill: #e98372;
      }

      .st6 {
        fill: #f7d1b3;
      }

      .st7 {
        fill: #d99f77;
      }

      .st8 {
        fill: #a61d0f;
      }

      .st9 {
        fill: #d33528;
      }

      .st10 {
        fill: #964c22;
      }

      .st11 {
        fill: #b93d2d;
      }

      .st12 {
        fill: #491905;
      }

      .st13 {
        fill: #d85b4b;
      }

      .st14 {
        fill: #713518;
      }
    </style>
    <linearGradient id="linear-gradient" x1="483.66" y1="279.1" x2="416.06" y2="298.83" gradientUnits="userSpaceOnUse">
      <stop offset="0" stop-color="#340e02"/>
      <stop offset="1" stop-color="#4f1b06"/>
    </linearGradient>
    <linearGradient id="linear-gradient1" x1="390.14" y1="304.83" x2="366.14" y2="350.74" gradientUnits="userSpaceOnUse">
      <stop offset="0" stop-color="#582008"/>
      <stop offset="1" stop-color="#79310f"/>
    </linearGradient>
    <linearGradient id="linear-gradient2" x1="161.92" y1="265.17" x2="25.16" y2="298.82" gradientUnits="userSpaceOnUse">
      <stop offset="0" stop-color="#4d1a05"/>
      <stop offset="1" stop-color="#8d4017"/>
    </linearGradient>
  </defs>
  <g id="Generative_Object">
    <g>
      <path class="st4" d="M354.56,357.55l-4.45-.61c6.33.43,3.52-2.3,3.64-6.27,16.6-.37,32.88-2.66,48.97-6.48,2.74-.65,21.25-5.15,21.86-6.68l-.4-40.27c29-10.71,58.62-31.22,56.66-65.97,3.21,17.23,5.09,53.67-.81,69.82-14.93,40.86-87.27,55.29-125.46,56.46Z"/>
      <path class="st12" d="M172.03,323.96c.03,1.15-.21,7.18,0,7.49.47.68,2.93-.59,2.83,1.01-10.34-.99-20.55-1.44-30.96-1.21-41.66.91-107.9,20.21-123.64-34,17.49,44.19,88.98,26.68,124.86,25.9,9-.19,17.96.08,26.91.81Z"/>
      <path class="st14" d="M353.75,350.67c-.13,3.98,2.69,6.7-3.64,6.27l4.45.61c-40.62,1.24-75.62-6.03-114.94-13.36l.4-8.09c37.32,8.06,75.25,15.42,113.73,14.57Z"/>
      <path class="st12" d="M239.62,335.69l.4.4-.4,8.09c-21.59-4.02-42.78-9.63-64.76-11.74.09-1.61-2.37-.33-2.83-1.01-.21-.31.03-6.34,0-7.49,22.84,1.86,45.1,7.78,67.59,11.74Z"/>
      <path class="st10" d="M353.75,311.01c.84,13.16.42,26.46,0,39.66-38.48.85-76.4-6.51-113.73-14.57l-.4-.4c-.43-6.45.4-13.01.4-19.43l34.81,11.94-35.21-13.96c0-4.85,0-9.72,0-14.57,36.96,7.97,76.17,13.23,114.13,11.33Z"/>
      <path class="st14" d="M239.62,299.67c0,4.85,0,9.72,0,14.57,0,.96.4,1.74.4,2.02,0,6.41-.84,12.98-.4,19.43-22.49-3.96-44.75-9.87-67.59-11.74-.39-12.93.22-25.92,0-38.85,23.21,2.7,44.93,9.68,67.59,14.57Z"/>
      <path class="st3" d="M402.72,344.19c-16.09,3.82-32.37,6.11-48.97,6.48.42-13.2.84-26.5,0-39.66,16.3-.81,33.15-3.47,48.97-7.29v40.47Z"/>
      <path class="st14" d="M402.72,344.19v-40.47c7.37-1.78,14.34-3.85,21.45-6.48l.4,40.27c-.6,1.53-19.12,6.03-21.86,6.68Z"/>
      <g>
        <path class="st2" d="M172.03,285.1c.22,12.93-.39,25.92,0,38.85-8.96-.73-17.92-1-26.91-.81-35.88.78-107.37,18.29-124.86-25.9-5.45-13.76-5.8-45.72.81-58.69-15.35,36.41,28.04,44.8,54.44,46.14,32.61,1.65,63.29-3.47,96.53.4Z"/>
        <path class="st14" d="M109.91,290.77c.94-.05,1.89.03,2.83,0-2.17,1.13-5.7,1.45-8.3,1.42,1.04-.98,4.15-1.35,5.46-1.42Z"/>
      </g>
      <path class="st14" d="M240.03,316.27c0-.28-.4-1.07-.4-2.02l35.21,13.96-34.81-11.94Z"/>
    </g>
    <g>
      <path class="st0" d="M480.84,231.27c1.96,34.75-27.66,55.26-56.66,65.97-7.11,2.63-14.08,4.7-21.45,6.48-15.83,3.81-32.67,6.47-48.97,7.29-37.96,1.9-77.18-3.36-114.13-11.33-22.66-4.89-44.38-11.87-67.59-14.57-33.24-3.87-63.91,1.25-96.53-.4-26.4-1.34-69.78-9.73-54.44-46.14,6.87-13.48,20.46-25.54,32.58-34.4,66.41-48.57,182.31-66.82,263.07-60.71,52.99,4.01,152.5,25.47,164.12,87.83Z"/>
      <path class="st6" d="M273.82,148.31c46.92-.88,101.35,5.67,144.08,25.5,77.74,36.08,73.66,98.21-9.31,121.42-72.22,20.2-136.37,1.64-206.41-12.14-45.05-8.87-79.64-3.21-123.85-4.86-83.14-3.09-56.87-46.79-7.69-77.3,54.98-34.11,138.83-51.41,203.17-52.61Z"/>
      <g>
        <path class="st6" d="M285.76,228.44l1.01,2.02c-18.13,9.42-37.88,16.25-58.28,18.62.06-.25.75-1.18.81-1.21,2.67-1.48,14.6-3.26,18.62-4.45,6.78-2.02,28.33-8.63,33.19-12.14,1.31-.95,1.03-.42.61-2.02,1.17-.36,2.89-.44,4.05-.81Z"/>
        <path class="st6" d="M296.69,270.13c-1.97-3.52-5.11-14.77-4.86-19.22.28-4.84,3.57-11.23,8.3-12.75.6.32-5.93,10.01-6.27,11.94-.99,5.65,1.83,14.15,2.83,20.03Z"/>
        <path class="st6" d="M296.69,270.13c.02.11,1.66.56.2,1.62-.46-.36-.04-1.32-.2-1.62Z"/>
        <g>
          <g>
            <path class="st8" d="M292.64,154.78l-18.01.81c-.67,1.39-.03,1.35.81,2.02-13.23.61-26.59,1.11-39.66,3.24-3.72.61-25.36,4.87-26.1,7.89-.54,2.21,5.36,5.9,7.08,7.08,17.97,12.33,52.05,23.95,73.66,26.31,17.14,1.87,34.96-.54,52.21-.4,1.64-1.69,3.53-5.08,5.67-6.07,7.15-3.31,22.41-3.87,31.16-7.29,19.99-7.78,1.46-14.78-8.9-17.81-22.53-6.59-50.57-5.07-71.23-10.52-.66-.18-2.68.3-3.04-.2-.24-.34.18-3.83,0-4.65,27.67.87,68.1,4.97,93.69,15.38,3.7,1.5,12.18,5,11.53,9.51-.4,2.79-24.49,26-27.32,26.91-4.79,1.56-21.99-.33-29.14.4-11,1.14-32.66,9.01-41.69,8.5-6.55-.37-39.2-12.34-47.35-15.38-14.4-5.36-29.24-11.96-41.69-21.05-6.19-4.52-18.8-12.14-6.07-17.4,16.56-6.85,65.34-7.69,84.39-7.29Z"/>
            <g>
              <path class="st9" d="M296.28,155.19c.18.83-.24,4.31,0,4.65.35.5,2.37.03,3.04.2,20.66,5.46,48.7,3.93,71.23,10.52,10.37,3.03,28.89,10.02,8.9,17.81-8.76,3.41-24.02,3.97-31.16,7.29-2.13.99-4.02,4.38-5.67,6.07-17.25-.14-35.07,2.27-52.21.4-21.61-2.36-55.69-13.97-73.66-26.31-1.72-1.18-7.62-4.87-7.08-7.08.74-3.02,22.38-7.29,26.1-7.89,13.08-2.13,26.44-2.63,39.66-3.24-.84-.67-1.48-.64-.81-2.02l18.01-.81c1.36.03,2.35.36,3.64.4Z"/>
              <g>
                <path class="st9" d="M275.64,185.14l-.61,2.83c6.96.67,13.66,2.55,20.44,4.05-1.04,1.38-5.16.91-6.68.81-19.57-1.32-39.47-8.07-55.25-19.63-.26-1.97,7.32-2.61,8.9-3.84,5.65,2.54,12.8,10.49,18.01,12.55,2.99,1.18,11.61,2.63,15.18,3.24Z"/>
                <path class="st5" d="M319.76,189.18c-10.74.5-21.7-1.43-32.38-2.83-2.27-.3-4.42-.88-6.68-1.21-.33-.05-.07,1.26-.4,1.21-1.2-.18-2.98-.93-4.65-1.21-3.57-.61-12.19-2.06-15.18-3.24-5.21-2.06-12.36-10-18.01-12.55,1.49-1.16-.47-2.97,3.04-1.62,6.35,2.45,10.28,8.49,14.57,10.93,7.39,4.2,38.06,5.04,48.57,6.88,2.59.45,9.79,1.46,11.13,3.64Z"/>
                <path class="st13" d="M287.38,186.35c-.65.72.02,1,.61,1.21,5.71,2.12,13.2,3.8,19.22,5.67,3.29,1.02,7.01,1.82,9.92,3.24-7.22-1.15-14.47-2.87-21.65-4.45-6.78-1.49-13.48-3.38-20.44-4.05l.61-2.83c1.67.29,3.45,1.03,4.65,1.21.33.05.07-1.26.4-1.21,2.25.33,4.41.92,6.68,1.21Z"/>
                <path class="st9" d="M319.76,189.18c.15.24.07,1.11.81,1.42-.52,2.07-11.41,1.35-13.36,2.63-6.03-1.87-13.51-3.55-19.22-5.67-.59-.22-1.25-.49-.61-1.21,10.68,1.4,21.64,3.34,32.38,2.83Z"/>
                <path class="st13" d="M234.56,162.47c.33-.03,3.58.04,2.83,1.21l-11.13,5.06c-1.17-1.98,6.77-6.12,8.3-6.27Z"/>
                <g>
                  <path class="st13" d="M275.44,164.49c17.18-.92,61.88.01,77.3,6.07,2.04.8,17.48,8.45,10.12,10.12-3.15.71-30.47.17-34.4-.4-3.29-.48-8.26-3.55-11.74-4.45-7.45-1.94-18.26-3.94-25.9-4.45-9.17-.61-19.1,2.8-26.51-5.06.12-1.28,9.67-1.74,11.13-1.82Z"/>
                  <path class="st13" d="M308.22,167.73c11.78.12,24.94.59,36.43,3.24,1.15.27,3.81.59,4.45.81,1.19.41,1.4,1.94,1.62,2.02,2.16.86,5.18.77,7.08,2.63l-49.58-8.7Z"/>
                </g>
              </g>
            </g>
          </g>
          <g>
            <path class="st8" d="M409.81,245.04c8.76-1.05,16.43,3.71,22.66,9.31,8.64,7.76,10.76,13.14.4,21.05-22.71,17.35-95.58,22.41-118.18,4.45-7.66-6.09-18.01-23.74-11.33-33.19.98-.3,11.6,6.42,13.76,7.29,16.34,6.57,56.72,8.22,73.26,2.02,7.47-2.8,11.87-10.02,19.43-10.93Z"/>
            <g>
              <path class="st8" d="M414.26,253.53c9.7-.24,15.31,11.22,7.69,17.81-2.22,1.92-5.81,2.75-8.3,4.25l10.32-.61c2.03,1.02-5.7,4.21-6.48,4.45-19.63,6.07-74.45,3.88-92.68-6.07-3.84-2.1-7.73-4.76-9.92-8.7,22.98-.55,46.24,2.32,69.01-2.63,8.58-1.87,22.21-8.3,30.35-8.5Z"/>
              <path class="st11" d="M416.08,261.63c-.12.83-.73,1.98-1.21,2.63-7.59,10.15-41.07,10.56-53.02,10.32-2.82-.06-13.22-.16-11.53-4.45,12.1-2.47,24.24-4.51,36.43-6.48.24-.04,2.52-1.78,4.25,0-2.92.67-6.45,1.13-9.11,2.43,6.65.36,14.98,1.02,20.64-3.24.49-.37,2.13-1.61,1.42-2.43.34-.09.75-1.05,1.42-1.21,3.84-.95,8.58-1.18,10.73,2.43Z"/>
              <path class="st13" d="M361.85,274.58c11.95.24,45.43-.17,53.02-10.32.48-.65,1.09-1.8,1.21-2.63,4,6.71-5.07,10.59-10.12,12.75l6.48,1.21c-15.85,6.32-34.34,1.83-50.59-1.01Z"/>
              <path class="st13" d="M390.99,263.65c4.37-1.01,8.62-2.12,12.95-3.24.71.82-.93,2.06-1.42,2.43-5.66,4.26-13.99,3.59-20.64,3.24,2.65-1.3,6.19-1.76,9.11-2.43Z"/>
            </g>
          </g>
          <g>
            <path class="st8" d="M416.69,184.33c8.93-1.45,27.4,13.52,33.39,20.03,10.3,11.19,20.72,31.41,10.52,45.73-9.34,13.13-19.56-.58-28.53-5.06-4.13-2.07-14.77-4.21-16.8-7.08s-2.77-8.46-5.67-12.14c-3.9-4.97-18.12-10.63-19.43-12.95-.41-.73-.55-2.03-.4-2.83.34-1.84,24.61-25.33,26.91-25.7Z"/>
            <g>
              <path class="st9" d="M421.95,189.59c12.14-2.36,29.18,23.07,31.77,33.39,1.3,5.17,2.42,15.11-3.04,18.42-3.89,2.36-16.34.92-20.24-1.62-3.64-2.37-3.06-6.47-5.06-9.92-4.26-7.35-22.17-14.32-23.47-17-.4-.82-.56-1.94-.4-2.83.39-2.2,17.85-19.93,20.44-20.44Z"/>
              <path class="st9" d="M441.98,211.85l-3.24-1.42c4.29,7.19,10.52,16.69,4.05,24.49-12.28,4.66-7.46-6.88-11.74-12.75-2.58-3.54-13.37-7.05-14.17-11.33-1.19-6.42,7.88-11.8,13.56-10.73,3.95.75,9.36,8.52,11.53,11.74Z"/>
              <path class="st13" d="M441.98,211.85c4.75,7.04,12.6,18.6.81,23.07,6.47-7.8.24-17.29-4.05-24.49l3.24,1.42Z"/>
            </g>
          </g>
          <g>
            <path class="st8" d="M285.76,228.44c-1.16.37-2.88.45-4.05.81-16.08,4.92-32.24,10.08-48.77,13.36-24.08,4.78-48.57,5.66-72.85,10.52-20.96,4.2-43.81,13.46-64.76,14.57-14.41.76-63.27.26-55.25-24.08,10.99-33.34,93.36-65.23,125.26-72.65,31.02-7.21,22.9-.51,42.09,15.38,19.97,16.53,49.94,27.22,75.28,31.57,2.31.4,12.72.14,13.56,2.23,2.34,5.81-6.85,7.14-10.52,8.3Z"/>
            <path class="st13" d="M99.59,213.06h.4c-13.21,14.25-11.07,24.61,9.71,26.1-28.53,7.11-33.43-12.4-10.12-26.1Z"/>
            <g>
              <path class="st9" d="M99.59,213.06c-23.31,13.71-18.41,33.22,10.12,26.1-20.78-1.49-22.93-11.85-9.71-26.1.97-1.05,2.05-1.81,3.04-2.83,1.7.41-.73,1.16-.61,1.42.46.99,16.63-10.55,18.42-11.53,11.65-6.42,45.98-21.55,58.28-23.47,10.53-1.65,8.24,3.53,13.56,10.73,19.01,25.72,50.29,23.74,75.89,35.82.54.25,3.22,1.51,3.04,2.23-17.76,4.92-37.04,9.62-55.25,12.75-12.3,2.11-24.92,2.77-37.23,4.86-32.21,5.47-66.52,14.09-99.16,15.78-42.78,2.22-14.91-24.85,1.21-38.04,6.33-5.17,41.52-30.44,47.35-30.76.69-.04,1.39-.06.81.81-10.42,5.9-22.3,11.57-29.95,21.05-.26.32-1.02,1.45.2,1.21Z"/>
              <path class="st9" d="M219.79,230.47c-2.17-3.04-1.84-6.3-.81-9.71,9.05.18,17.87,2.75,26.91,2.43-5.1-3.23-14.41-4.53-20.64-4.86-15.5-.81-58.17,5.24-69.21-2.02-3.56-2.34-4.93-6.01-2.63-9.92s17.89-8.55,20.03-15.18c-6.26,6.9-33.88,10.66-26.1,24.08,4.06,7.02,17.35,7.42,24.28,7.49.07,1.37-1.62,1.33-2.63,1.62-3.52.99-7.1,1.89-10.73,2.43-9.85,1.46-35.17,1.69-30.35-14.77,2.74-9.38,40.72-29.43,51.6-28.53,11.42.94,7.62,13.36,16.19,20.24,10.03,8.05,35.63,7.48,50.59,15.38,7.98,4.22,5.44,5.94-1.62,8.09-7.92,2.42-16.74,2.46-24.89,3.24Z"/>
              <path class="st9" d="M218.98,220.75c-1.03,3.42-1.36,6.68.81,9.71-20.11,1.91-40.32,2.66-60.51,3.64l-1.01-7.29c3.63-.54,7.21-1.44,10.73-2.43,1.01-.28,2.7-.25,2.63-1.62,15.53.15,31.98-2.33,47.35-2.02Z"/>
              <path class="st13" d="M126.5,243.42c-1.23,1.5-6.26,3.06-8.5,3.64-8.95,2.33-25.35,6.25-32.18-1.42,13.6.39,27.27.38,40.67-2.23Z"/>
              <path class="st5" d="M218.98,220.75c-15.38-.31-31.82,2.18-47.35,2.02-6.93-.07-20.22-.47-24.28-7.49-7.77-13.42,19.85-17.18,26.1-24.08-2.15,6.63-17.85,11.47-20.03,15.18-2.3,3.9-.93,7.58,2.63,9.92,11.04,7.26,53.71,1.21,69.21,2.02,6.23.33,15.54,1.63,20.64,4.86-9.05.32-17.86-2.25-26.91-2.43Z"/>
            </g>
          </g>
          <g>
            <path class="st8" d="M294.87,231.68c.38.04.78-.16,1.01.2.54,5.45-4.15,9.69-6.07,14.57-2.22,5.62-3.14,11.37-2.83,17.4.28,5.61,4.74,15.65-1.82,19.22-15.96,8.7-108.04-15.56-134.37-16.19-7.23-.17-14.45.86-21.65.61,18.78-3.16,37.65-5.75,56.46-8.7,7.01-1.1,13.98-3.46,21.05-4.45,24.81-3.48,41.2-1.65,65.57-11.74,3.49-1.44,20.92-11.09,22.66-10.93Z"/>
            <path class="st8" d="M250.55,277.41c5.73-2.82,13.8-2.9,19.43-5.67.44-.21,1.48.14,2.02-1.01-.03-3.22,2.47-18.14-1.01-19.22-4.76-1.49-20.36,5.59-26.31,6.48-3.38.5-10.88-.38-12.55,0-.25.06-3.72,3.22-3.84,3.44-1.66,2.87.2,5.9,2.83,7.49,2.44,3.82,5.66,5.34,9.31,7.69-6.78-.61-26.87-3.35-32.58-5.67-3.9-1.58-8.61-6.76-4.05-10.12,5.46-4.02,35.94-4.8,44.92-6.48,6.68-1.25,22.42-7.59,27.93-6.88s1.34,6.46,1.01,9.92c-.62,6.47,1.51,11.28,2.83,17.4l-29.95,2.63Z"/>
            <path class="st13" d="M269.97,271.75c-5.63,2.76-13.7,2.85-19.43,5.67-3.51.53-6.82-.51-10.12-.81-3.65-2.35-6.87-3.87-9.31-7.69.34.2,6.84,2.31,7.49,2.43,9.7,1.8,21.54.79,31.37.4Z"/>
            <g>
              <path class="st9" d="M269.97,271.75c-9.83.38-21.66,1.39-31.37-.4-.64-.12-7.15-2.22-7.49-2.43-2.63-1.59-4.49-4.61-2.83-7.49.13-.22,3.59-3.38,3.84-3.44,1.67-.38,9.17.5,12.55,0,5.95-.88,21.54-7.96,26.31-6.48,3.48,1.09.99,16,1.01,19.22-.54,1.15-1.59.8-2.02,1.01Z"/>
              <path class="st13" d="M262.49,260.41c.83.84-2.51,3.07-2.83,3.24-5.38,2.81-15.42,3.51-19.63-1.82,7.45,1.06,15.31,1.1,22.46-1.42Z"/>
            </g>
          </g>
          <g>
            <path class="st7" d="M346.27,211.04c16.4-.92,38.62,1.97,52.61,10.93,27.46,17.58-11.44,31.47-26.71,33.59,1.16-1.51,4.98-1.35,7.29-2.02,3.47-1.01,7.83-2.57,10.93-4.45-9.97-.74-18.67,5.55-28.33,6.48-13.44,1.29-49.73-4.16-57.27-16.8-11.34-18.99,29.93-27.07,41.48-27.72Z"/>
            <path class="st6" d="M345.86,212.25c12.29-.68,58.92,2.29,54.84,22.46-3.18,15.71-46.83,17.56-58.89,16.39-52.94-5.12-44.21-36.18,4.05-38.85Z"/>
            <g>
              <path class="st7" d="M345.46,215.89c11.1-.71,39.24,1.02,46.34,10.73,9.75,13.33-19.11,19.58-27.32,20.44-11.32,1.18-44.46-.05-50.79-11.13-8.07-14.12,23.25-19.49,31.77-20.03Z"/>
              <path class="st1" d="M347.08,220.75c7.65-.54,25.02.43,31.16,5.26,3.6,2.83,3.54,5.65,0,8.5-8.66,6.99-40.88,7.05-49.78.4-12.21-9.12,13.21-13.78,18.62-14.17Z"/>
            </g>
          </g>
        </g>
      </g>
    </g>
  </g>
</svg>