<?xml version="1.0" encoding="UTF-8"?>
<svg id="Head" xmlns="http://www.w3.org/2000/svg" version="1.1" viewBox="0 0 500 500">
  <!-- Generator: Adobe Illustrator 29.4.0, SVG Export Plug-In . SVG Version: 2.1.0 Build 152)  -->
  <defs>
    <style>
      .st0 {
        fill: #c6b2a7;
      }

      .st1 {
        fill: #9f5d48;
      }

      .st2 {
        fill: #d3c2b6;
      }

      .st3 {
        fill: #7f6450;
      }

      .st4 {
        fill: #635144;
      }

      .st5 {
        fill: #ddc9bc;
      }

      .st6 {
        fill: #fff;
      }

      .st7 {
        fill: #b36142;
      }

      .st8 {
        fill: #e5b59a;
      }

      .st9 {
        fill: #e7d2c3;
      }
    </style>
  </defs>
  <path class="st1" d="M261.52,223.09c-.87-29.14-.49-66.81,4.63-95.53.17-.96.26-2.09-.78-2.76-1.31-.85-3.34-.33-4.77.31-7.14,3.17-12.19,8.18-16.43,13.34-17.18,20.92-23.5,46.42-17.58,70.95l34.93,13.69Z"/>
  <path class="st1" d="M180.55,233.48c-21.53,8.72-49.78,18.86-72.66,22.99-.76.14-1.63.39-1.85,1.35-.27,1.21.68,2.58,1.55,3.48,4.35,4.46,9.49,6.85,14.52,8.58,20.38,7.04,41.19,4.71,57.88-6.51l.56-29.89Z"/>
  <path class="st1" d="M248.42,198.2c-15.43-24.73-34.07-57.47-44.11-84.86-.33-.91-.83-1.94-2.06-1.99-1.56-.07-3.05,1.4-3.97,2.67-4.57,6.34-6.41,13.21-7.48,19.8-4.3,26.72,3.08,51.94,20.55,70.14l37.07-5.76Z"/>
  <path class="st1" d="M215,167.15c-28.36-6.77-64.61-16.98-91-29.42-.88-.42-1.95-.8-2.87.03-1.16,1.04-1.19,3.13-.95,4.69,1.2,7.72,4.71,13.91,8.59,19.35,15.7,22.05,38.67,34.81,63.89,35.5l22.34-30.14Z"/>
  <path class="st2" d="M147.46,315.3c12.31,6.92,27.2,7.76,41.42,7.81.07-.48.15-.97.22-1.44,1.35-8.44,13.03-11.67,16.28-19.58,2.17-5.27,7.38-19.35,4.61-24.34-2.25-4.06-19.17-2.74-23.64-3.99-7.16-2-13.11-24.56-20.53-24.18-2.07.11-1.21,23.31-2.98,24.39-2.01,1.23-3.68,7.96-4.97,9.93-6.31,9.65-17.51,11.71-25.43,20.07,4.63,4.28,9.51,8.23,15.03,11.33Z"/>
  <path class="st1" d="M271.69,188.17c-55.29,3.77-126.94,6.63-182.19,2.34-1.84-.14-4.01-.16-5.15,1.29-1.45,1.83-.2,4.5,1.19,6.36,6.94,9.28,17.1,15.6,27.45,20.81,41.94,21.14,91.24,27.32,137.1,17.2l21.6-48Z"/>
  <path class="st9" d="M296.08,254.79c.7-6.97,6.35-12.93,6.15-19.94-.27-9.81-11.7-16.49-12.23-26.29l-.84-.37c0-.24-.01-.47-.02-.71-.37-9.42-1.39-19.05-5.48-27.54-7.44-15.42-24.1-24.73-40.97-27.71s-34.16-.58-51.11,1.83l-7.37,4.32c-11.89,11.51-19.22,27.17-22.65,43.36-3.43,16.19-3.19,32.96-1.57,49.43.96,9.78,2.58,19.97,8.44,27.86,5.5,7.41,14.24,11.92,23.24,13.92,9.01,2,18.36,1.71,27.56,1.04,9.14-.66,18.24-1.69,27.35-2.72,5.61-.63,11.38-1.32,16.3-4.08.85-.48,1.65-1.03,2.42-1.61,4.55-.09,8.99-.95,12.24-3.99,1.66-1.55,2.83-3.55,3.98-5.51,2.02-3.44,4.03-6.89,6.05-10.33-2.65-.63-5.37-.41-8.1.08,2.32-4.97,4.15-10.15,5.58-15.47,3.76,1.2,7.42,2.81,11.03,4.42Z"/>
  <path class="st5" d="M242.9,290.84c-9.05-3.31-17.58-7.73-24.59-14.36-2.43-1.03-4.85-2.07-7.24-3.17-7.04-3.23-14.02-7.29-19.59-12.73-8.6-8.4-12.57-19.59-13.37-31.35-.55-8.13,1.41-16.41,2.91-24.36,1.41-7.46,3.45-14.74,7.41-21.34,9.91-16.51,27.12-25.08,44.79-30.78,1.3-.42,2.61-.86,3.91-1.3-15.09-1.66-30.46.47-45.56,2.61l-7.37,4.32c-11.89,11.51-19.22,27.17-22.65,43.36-3.43,16.19-3.19,32.96-1.57,49.43.96,9.78,2.58,19.97,8.44,27.86,5.5,7.41,14.24,11.92,23.24,13.92,9.01,2,18.36,1.71,27.56,1.04,8.15-.59,16.28-1.48,24.4-2.39-.25-.25-.49-.51-.72-.77Z"/>
  <path class="st3" d="M287.17,228.87l-3.89-5.82c-.86-1.29-1.97-2.71-3.51-2.73-1.35-.02-2.43,1.07-3.34,2.07-.31.35-.64.73-.68,1.19-.05.61.4,1.13.83,1.57,1.04,1.08,2.12,2.18,3.46,2.85,2.36,1.18,5.67,1.18,6.83,3.55.37-.72.39-1.61.04-2.34"/>
  <circle class="st8" cx="177.38" cy="228.92" r="10.55"/>
  <g>
    <path class="st2" d="M193.87,207.41c2.35,5.68,2.27,12.16,4.84,17.75.49,1.06,1.09,2.11,2,2.85s2.16,1.14,3.28.77c.88-.29,1.55-1,2.09-1.76,1.39-1.97,2.08-4.33,2.74-6.65.98-3.4,1.95-6.81,2.93-10.21-1.82-.49-3.75.6-5.6.28-.95-.17-1.79-.69-2.57-1.25-2-1.44-3.76-3.21-5.19-5.22-1.86.77-3.52,2.04-4.74,3.64"/>
    <g>
      <circle class="st7" cx="203.9" cy="204.67" r="9.88"/>
      <circle class="st6" cx="201.3" cy="200.98" r="4.09"/>
    </g>
  </g>
  <path class="st5" d="M290,209.55s-11.78-16.65-9.64-21.38l-.42-14.45s14.14,25.83,10.06,35.83Z"/>
  <g>
    <path class="st3" d="M280.12,248.89c-3.36-5.65-6.72-11.31-10.08-16.96-4.47,8.47-8.93,16.94-13.4,25.41l-17.8-27.73-8.6,10.09-2.86-6.59c-19.61,8.44-23.48,20.57-36.37,7.15,5.19,13.42,6.14,28.2,13,23.65,1.75-1.16,3.71-2.37,5.79-2.1,1.5.2,2.78,1.15,3.99,2.07,3.89,2.95,7.77,5.91,11.66,8.86,1.4-2.63,2.8-5.27,4.21-7.9,5.47,4.53,11.49,8.4,17.88,11.5,1.64.79,3.4,1.56,5.21,1.39s3.64-1.62,3.57-3.44c.9,1.74,3.51.12,4.6-1.51,3.26-4.87,6.52-9.74,9.78-14.61,3.41,1.69,5.95,5.03,6.66,8.77,6.3-4.01,6.9-14.46,1.11-19.17"/>
    <path class="st4" d="M232.6,254.19c1.05-7.83,4.18-14.81,8.72-20.71-.83-1.29-1.66-2.58-2.49-3.87-2.87,3.36-5.73,6.73-8.6,10.09-.95-2.2-1.91-4.39-2.86-6.59-19.61,8.44-23.48,20.57-36.37,7.15,5.19,13.42,6.14,28.2,13,23.65,1.75-1.16,3.71-2.37,5.79-2.1,1.5.2,2.78,1.15,3.99,2.07,3.89,2.95,7.77,5.91,11.66,8.86,1.4-2.63,2.8-5.27,4.21-7.9,1.06.88,2.14,1.72,3.24,2.55-.77-4.08-.93-8.46-.29-13.19Z"/>
    <path class="st1" d="M259.2,260.71c-6.03.15-5.24.4-11.24-.23-2.45-.26-4.81-1.03-7.24-1.43-7.72-1.26-15.48,1.36-22.85,3.95l-.54,1.38c-.61.22-1.11.58-1.52,1.02,3.21,2.44,6.43,4.88,9.64,7.32,1.4-2.63,2.8-5.27,4.21-7.9,5.47,4.53,11.49,8.4,17.89,11.5,1.64.79,3.4,1.56,5.21,1.39,1.81-.17,3.64-1.62,3.57-3.44.9,1.74,3.51.12,4.6-1.51,3.08-4.59,2.25-3.37,5.33-7.96-1.39-.41-5.65-4.13-7.05-4.1Z"/>
  </g>
  <path class="st0" d="M187.38,284.58c-8.13-8.98-15.73-19.87-19.12-31.66-1.47-5.1-2.03-10.63-1.85-16.03-.58-1.66-1.12-3.33-1.57-5.01-3.61-13.42-1.61-26.13.9-39.53.54-2.91.99-5.8,1.47-8.67-2.47,5.81-4.35,11.9-5.66,18.06-3.43,16.19-3.19,32.96-1.57,49.43.96,9.78,2.58,19.97,8.44,27.86,5.5,7.41,14.24,11.92,23.24,13.92,1.88.42,3.77.73,5.68.96-3.58-2.88-6.95-6.02-9.96-9.34Z"/>
</svg>