<?xml version="1.0" encoding="UTF-8"?>
<svg id="ARM_L" xmlns="http://www.w3.org/2000/svg" version="1.1" viewBox="0 0 500 500">
  <!-- Generator: Adobe Illustrator 29.4.0, SVG Export Plug-In . SVG Version: 2.1.0 Build 152)  -->
  <defs>
    <style>
      .st0 {
        fill: #715842;
      }

      .st1 {
        fill: #6f5a4c;
      }

      .st2 {
        fill: #9f5d48;
      }

      .st3 {
        fill: #644f39;
      }

      .st4 {
        fill: #9e735d;
      }

      .st5 {
        fill: #44372a;
      }

      .st6 {
        fill: #7f6450;
      }

      .st7 {
        fill: #604f30;
      }

      .st8 {
        fill: #bc6454;
      }

      .st9 {
        fill: #d3bead;
      }

      .st10 {
        fill: #8d614d;
      }

      .st11 {
        fill: #beb0a3;
      }

      .st12 {
        fill: #e7d2c3;
      }

      .st13 {
        fill: #b06451;
      }

      .st14 {
        fill: #6b543e;
      }
    </style>
  </defs>
  <path class="st10" d="M224.86,252.51s-15.4-30.64-11.03-66.4c0,0-8.66-67.93,4.81-78.67,0,0,6.68-3.33,21.4,6.88,14.72,10.2,14.84,31.52,14.84,31.52l-7.99,86.51-12.53,20.16h-9.5Z"/>
  <path class="st0" d="M259.21,237.33c1.01,2.83,2.7,12.16,3.99,13.58-8.74,6.73-13.63,15.04-17.17,25.56,0,0-8.02-4.24-9.19-4.79-.08-6.91-.43-13.18,1.6-19.97,1.29-4.33,3.78-8.59,7.59-11.18,4.52-3.07,8.6-2.81,13.18-4.79.14.38-.14,1.2,0,1.6Z"/>
  <path class="st9" d="M258.41,157.45c.75,3.9,1.94,13.99,2.4,18.37,2.1,20.06,3.21,41.63-1.6,61.51-.14-.39.14-1.22,0-1.6-.99-2.6-1.69-5.31-3.99-7.19l3.2-71.09Z"/>
  <path class="st5" d="M249.62,121.51c3.42,5.01,12.4,30.83,12.78,36.75.37,5.72-1.91,11.8-1.6,17.57-.46-4.39-1.64-14.48-2.4-18.37-1.8-9.28-3.41-10.65-6.39-18.37-3.32-8.6-5.99-17.34-11.98-24.76,2.82,1.65,6.57,2.77,9.59,7.19Z"/>
  <path class="st10" d="M258.41,157.45l-3.2,71.09c-.37-.3-8.18-3.81-8.79-3.99-2.74-.83-4.16-.72-6.39,1.6,1.81-14.8,5.74-29.14,7.99-43.93,2.23-14.66,4.48-28.17,3.99-43.14,2.98,7.72,4.59,9.09,6.39,18.37Z"/>
  <path class="st7" d="M255.21,228.55c-.37-.3-8.18-3.81-8.79-3.99-2.74-.83-4.16-.72-6.39,1.6-3.18,3.3-6.51,18.57-10.38,23.96-1.76,2.45-.64,4.01-4.79,2.4-.24.79-.54,1.57-.8,2.4,1.69,4.62,3.13,9.28,5.59,13.58.06.1.9.5,1.6,1.6,1.68.05,4.11.9,5.59,1.6-.08-6.91-.43-13.18,1.6-19.97,1.29-4.33,3.78-8.59,7.59-11.18,4.52-3.07,8.6-2.81,13.18-4.79-.99-2.6-1.69-5.31-3.99-7.19Z"/>
  <g>
    <path class="st12" d="M274.04,235.26c-1.68-1.05-10.82.04-12.38.8-.53.26-8.37,7.79-8.39,8.39-.08,3.72,1.1,2.08,2.4,4.39-3.04-.35-2.31.53-2.4,2.8-.29,7.33,5.74,15.06,9.59,21.17-2.46-.41-1.37,1.87-.8,2.8,7.35,11.9,34.31,50.62,45.13,57.11,2.04,1.23,4.63,1.56,6.79,2.4-.51.82-2.17,5.25-2.4,6.39-2.45-.49-4.29-2.1-6.39-3.2-1.84-3.26-5.47-4.79-7.99-7.59-18.52-20.58-50.28-59.03-64.7-81.88,1.68.05,4.11.9,5.59,1.6,1.17.55,9.19,4.79,9.19,4.79,3.54-10.52,8.43-18.83,17.17-25.56,3.26,3.57,10.13,2.84,9.59,5.59Z"/>
    <path class="st10" d="M255.67,248.84c2.68,4.8,7.13,10.46,10.38,15.18,15.89,23.06,35.13,45.07,51.12,67.1-19.43-16.14-40.78-36.82-54.32-58.31-3.85-6.11-10.75-18.21-10.46-25.54.09-2.27.23,1.22,3.27,1.57Z"/>
    <path class="st4" d="M262.86,272.8c13.53,21.49,34.89,42.17,54.32,58.31v.8c-.35.3-3.07,3-3.2,3.2-2.16-.84-4.75-1.17-6.79-2.4-10.82-6.49-37.79-45.21-45.13-57.11-.57-.93-1.67-3.2.8-2.8Z"/>
    <g>
      <path class="st6" d="M337.15,335.11c1.37.72,2.53,1.61,3.99,2.4-.21,3,4.4,5.23,4.79,8.39.1.8-2,14.96-2.4,15.98-2.6,6.77-13.18,11.38-19.97,9.19-.34-1.44-3.74-6.59-4.79-8.79.42-15.13-3.84-32.37,18.37-27.16Z"/>
      <path class="st1" d="M325.96,329.52c8.55.98,7.19,3.51,11.18,5.59-22.21-5.21-17.95,12.03-18.37,27.16-4.13-8.57-9.47-9.38-7.19-20.77.23-1.14,1.88-5.57,2.4-6.39.12-.19,2.84-2.89,3.2-3.2s3.01-2.32,3.2-2.4c.35-.14,1.12.11,1.6,0,2.88-.65,1.88-.24,3.99,0Z"/>
      <path class="st14" d="M338.74,390.23c-.13,3.52,2.01,6.79,3.2,10.78l-7.19,2c-1.26-7.98.03-16.46-4.79-22.37-.04-1.33-.83-6.74-.4-7.19,6.81-4.4,10.27,9.3,9.99,13.98-.05.82-2.38,1.32-2.4,1.6-.09,1.84,1.6,1.1,1.6,1.2Z"/>
      <path class="st14" d="M349.13,404.6c-.54-1.48-1.55-3.41-2.4-4.79-.02-2.55-.86-5.19-2.4-7.19,7.43-11.56,11.97-.37,14.38,7.59l-9.59,4.39Z"/>
      <path class="st3" d="M344.34,392.62c1.53,2,2.38,4.64,2.4,7.19.04,5.52-4.01,20.4-10.38,11.98,11.3,4.3,7.06-11.66-1.6-7.19-.1-.49.08-1.1,0-1.6l7.19-2c-1.18-3.99-3.33-7.26-3.2-10.78,3.15-.5,3.88.17,5.59,2.4Z"/>
      <path class="st14" d="M361.11,409.4c-4.35,12.55-8.34,3.66-11.18-3.2,3.88-1.77,11.39-3.43,11.18,3.2Z"/>
      <path class="st14" d="M369.1,387.03c2.02,2.93,2.45,9.1-2,9.59-3.44.37-5.26-5.07-6.79-7.19,2.88-3.38,5.89-6.6,8.79-2.4Z"/>
      <path class="st1" d="M336.35,411.79c-2.62-3.46-.98-4.13-1.6-7.19,8.66-4.47,12.9,11.49,1.6,7.19Z"/>
      <g>
        <path class="st5" d="M369.1,387.03c-2.9-4.21-5.91-.98-8.79,2.4-.78-1.07-1.65-2.08-2.4-3.2,14.81-1.44-8.12-21.49-3.2-3.2,2.67,9.91,10.28,15.14,6.39,26.36.21-6.62-7.31-4.97-11.18-3.2-.06-.13-.43-.57-.8-1.6l9.59-4.39c-2.41-7.96-6.95-19.14-14.38-7.59-1.71-2.23-2.45-2.9-5.59-2.4,0-.1-1.69.65-1.6-1.2.01-.28,2.35-.78,2.4-1.6.28-4.68-3.17-18.38-9.99-13.98-.43.45.36,5.86.4,7.19.16,5.01,3.91,22.45-5.99,20.77-.47-.08-3.43-2.25-3.59-2.8-1.49-5.01,5.27-18.77,3.2-27.56,6.79,2.2,17.37-2.41,19.97-9.19.39-1.02,2.5-15.17,2.4-15.98-.4-3.16-5-5.39-4.79-8.39,5.28,2.83,21.68,5.76,23.17,10.78,4.56,15.38-16.25,7-16.77,9.59,5.88,10.79,18.48,17.38,21.57,29.16Z"/>
        <path class="st14" d="M357.92,386.23c-.87-1.3-.86-3.44-3.2-3.2-4.93-18.3,18.01,1.75,3.2,3.2Z"/>
        <path class="st14" d="M341.14,369.46c5.24,3.33,5.04,12.7,10.38,14.38-1.36,1.92-4.86,3.44-6.79,4.79-1.59-.1-7.6-13.38-7.59-14.78.02-3.37,2.14-3.21,3.99-4.39Z"/>
        <path class="st14" d="M351.53,383.83c-5.34-1.68-5.14-11.05-10.38-14.38.81-.51,1.83-2.03,3.59-2.4,3.68,3.14,9.82,12.49,6.79,16.77Z"/>
        <path class="st14" d="M347.13,359.87c2.73-.39,12.52,16.78,5.59,15.98-.93-.11-10.33-15.29-5.59-15.98Z"/>
      </g>
    </g>
    <path class="st2" d="M294.81,272.8c7.49,12.54,18.48,29.61,23.96,42.74,1.88,4.51,3.77,9.05,3.2,13.98-.47.11-1.25-.14-1.6,0-14.37-18.11-28-37-42.34-55.12,5.04-2.5,11.52-4.66,16.77-1.6Z"/>
    <path class="st13" d="M286.02,258.42c-2.12-3.45-4.61-6.7-6.39-10.38-.1.84-4.95,14.68-5.59,15.98-.47.94-1.27,1.43-1.6,2.4.8.87,3.96,5.93,5.59,7.99,5.04-2.5,11.52-4.66,16.77-1.6-2.87-4.81-5.85-9.61-8.79-14.38Z"/>
    <path class="st8" d="M272.44,266.41c.8.87,3.96,5.93,5.59,7.99,14.34,18.11,27.97,37,42.34,55.12-.19.07-2.83,2.09-3.2,2.4v-.8c-16-22.03-35.23-44.04-51.12-67.1,1.78-1.66,4.95.83,6.39,2.4Z"/>
    <g>
      <path class="st8" d="M274.04,235.26c2.13,1.34,5.87,10.5,5.59,12.78-.1.84-4.95,14.68-5.59,15.98-.47.94-1.27,1.43-1.6,2.4-1.44-1.57-4.61-4.06-6.39-2.4-3.25-4.72-10.12-11.97-12.8-16.77-1.29-2.31-.06.92.02-2.8.01-.59,7.85-8.13,8.39-8.39,1.57-.76,10.7-1.85,12.38-.8Z"/>
      <path class="st8" d="M266.45,237.65c13.37,2.11,3.55,14.39.8,22.37-3.5.92-2.13-21.76-.8-22.37Z"/>
    </g>
    <path class="st11" d="M232.5,248.84c14.42,22.85,46.18,61.3,64.7,81.88,2.52,2.8,6.15,4.33,7.99,7.59-11.96-6.23-63.21-42.27-70.3-51.52-5.14-6.72-19.16-36.9-3.99-39.54.06.1.9.5,1.6,1.6Z"/>
  </g>
</svg>