<?xml version="1.0" encoding="UTF-8"?>
<svg id="Torso" xmlns="http://www.w3.org/2000/svg" version="1.1" viewBox="0 0 500 500">
  <!-- Generator: Adobe Illustrator 29.4.0, SVG Export Plug-In . SVG Version: 2.1.0 Build 152)  -->
  <defs>
    <style>
      .st0 {
        fill: #715842;
      }

      .st1 {
        fill: #6f5a4c;
      }

      .st2 {
        fill: #9f5d48;
      }

      .st3 {
        fill: #644f39;
      }

      .st4 {
        fill: #44372a;
      }

      .st5 {
        fill: #937d6c;
      }

      .st6 {
        fill: #beb0a3;
      }

      .st7 {
        fill: #584a40;
      }

      .st8 {
        fill: #aa9587;
      }

      .st9 {
        fill: #e7d2c3;
      }

      .st10 {
        fill: #b06451;
      }

      .st11 {
        fill: #846c57;
      }

      .st12 {
        fill: #f8f1ed;
      }
    </style>
  </defs>
  <path class="st0" d="M333.78,215.35l-60.01-9.57c-.76,5.77-17.92,25.25-15.21,28.63,5.05,6.29,49.63,13.07,60.21,15.78,2.82.72,2.88.16,4.26,2.63-.59,1.03-1.99,1.09-2.65,2.11-.5.77-1.08,1.51-1.61,2.32-.82,1.25-20.22.84-21.68,3.07-3.76-3.02-13.15-1.09-18.47-2-11.9-2.03-11.35-4.63-22.31-9.38-2.36-1.02-18.89-12.16-19.93-9.79,1.92,24.85-4.68,38.64,28.18,42.74l17.82.1c-1.15,1.75-2.25,3.68-3.42,5.47-21.06.91-26.84-2.79-43.3-14.53l4.51,25.15,9.8,13.89c-10.54-4.9-14.1-11.87-21.91-17.68-1.9-1.42-3.21-3.39-5.43-4.63,2.77,1.09,2.7-1.8,3.03-3.79,2.89-17.41-1.08-39.75,2.4-57.67,5.72,2.12,10.74,4.97,16.99,6.1,2.35.43,3.42,2.09,5.26.63l29.06-39.47,56,10.52c1.51,1.6-1.28,7.59-1.61,9.37Z"/>
  <path class="st12" d="M373.41,113.26c5.96,9.4,7.31,19.32,9.52,29.26-2.99,15.9-10.65,31.78-17.07,46.64l-14.13,4.2s7.18-34.51,4.1-31.68c-.37-2.72.9-6.61-.85-8.1-4.25-3.64-50.34-11.93-58.98-16.42l-3.51,12.95c-1.56.83-.38-1.82-1.78-1.68l.96-4.21c.45-1.98-19.85-4.26-18.99-2.1-4.78-2.14-.3-15.5-6.89-12.42,3.63,23.54-8.75,43.41-11.95,66.3-.2,1.46-.07,4.39-2.94,3.37,3.6-26.69,12.92-81.93-3.91-105.66.29-3.89,6.9,3.78,7.17,4.1,3.71,4.45,8.82,15.9,11.42,18.63,6.43,6.77,39.71,10.75,51.52,13.57.93.22-.48,2.52.45,2.74,17.77,4.17,36.39,4.88,53.74,10.94,3.33-4.32-71.32-21.57-71.32-21.57,16.03,4.67,43.5,12.41,59.56,13.89,2.03.19,3.75.82,5.88.32,3.12-2.02-1.94-16.76-3.51-20.1-2.39-5.12-8.44-14.53-14.48-17.05.72-3-1.24-7.71-3.04-10.31,11.93-.7,19.19,20.38,24.37,23.47.2.12,2.23-.9,4.65.95Z"/>
  <path class="st8" d="M275.78,289.9s-4.32,21.76-21.18,16.79c-13.21-3.89-24.78-11.69-29.59-15.22-.71-.67-1.46-1.3-2.37-1.81-8.8-4.93-67.73-11.34-77.88-16.95-6.58,6.58-25.67,12.2-24.58,21.8,4.22,1.87,3.12,63.04,6.42,66.8,15.18,17.27,39.48,18.59,73.83,25.8,12.12,3.85,25.91.13,40.57-2.94,25.34-2.02,46.6-36.68,47.18-43.27.9-10.25-12.41-51-12.41-51Z"/>
  <path class="st6" d="M250.91,199.36c3.6-26.69,12.92-81.93-3.91-105.66-7.03-9.92-14.79-28.16-27.3-30.3-7.31-1.25-17.49,3.1-18.4,9.47-.18,1.29-4.76,8.59-4.32,9.75,28.83-2.46,55.66,20.97,54.06,42.24-2.14,28.42-38.56,41.45-76.97,29.04-1.67,2.41-6.83-30.38-7.3-27.57-.34,2.02-28.42,72.68-26.62,74.19,1.06.89,39.52,12.96,42.09,13.97,9.11,3.58,59.78,14.77,66.42,13.49-2.31-9.14.98-19.32,2.23-28.63Z"/>
  <path class="st11" d="M297.1,260.3c-4.76,7.28-9.94,14.44-14.7,21.68l-17.82-.1c-32.87-4.1-26.27-17.89-28.18-42.74,1.04-2.37,17.57,8.76,19.93,9.79,10.96,4.75,10.4,7.35,22.31,9.38,5.33.91,14.71-1.02,18.47,2Z"/>
  <path class="st11" d="M278.97,287.46c-10.13,15.61,2.63,39.2-28.99,24.51l-9.8-13.89-4.51-25.15c16.47,11.74,22.24,15.44,43.3,14.53Z"/>
  <path class="st9" d="M283.88,93.27c-4.1,3.51-17.44-4.25-20.51-.21.49.5.74.81.74,1.47.02,1.97,7.12,18.25,9.06,19.47,4.19,2.64,20.8,6.35,26.81,8.1,0,0,74.65,17.25,71.32,21.57-17.35-6.06-35.97-6.77-53.74-10.94-.93-.22-45.54-9.54-51.97-16.31-2.59-2.73-7.71-14.17-11.42-18.63-.27-.32-6.88-7.99-7.17-4.1-7.03-9.92-14.79-28.16-27.3-30.3,1.72-1.58,15.62-2.24,16.66-1.9.1.03-.72,1.41.13,1.79,9.85,4.4-5.17,2.41,4.1,8.83,22.69,15.71,11.06,13.56,43.29,21.15Z"/>
  <path class="st4" d="M251.16,56.65c-19.49.04,8.17,14.57,14.1,18.73,4.89,3.44,10,6.76,14.99,10.1s10.04,6.71,14.99,10.1c-3.76-.8-7.63-1.43-11.37-2.31-32.23-7.59-20.6-5.44-43.29-21.15-9.27-6.42,5.75-4.43-4.1-8.83-.85-.38-.03-1.76-.13-1.79,2.44-12.6,4.48-8.91,14.8-4.85Z"/>
  <path class="st4" d="M187.53,159.47c12.27-17.69,46.22-37.6,38.66-59.1,11.73,18.05-10,44.21-21.22,59.57,6.98,7.06,24.51,1.04,31.25-4.21,14.77-11.49,19.19-35.11,11.77-51.36-6.07-13.3-25.7-30.06-43.46-25.15l2,3.05c-2-1.08-4.42-1.47-5.82-2.95,1.17-.43,13.33-5.59,13.77-5.63,28.83-2.46,45.32,30.88,43.72,52.15-2.14,28.42-18.76,53.9-70.69,33.63Z"/>
  <path class="st4" d="M248.67,227.98c1.78-.34.95-1.48,2.45-1.26,6.7-1.5-2.38,8.92-6.06,7.58-6.25-1.13-11.28-2.98-16.99-5.1-1.95-.72-3.77-1.33-5.82-1.72-49.85-9.26-91.18-16.28-82.23-27.71,9.11,3.58,102,29.48,108.64,28.21Z"/>
  <path class="st5" d="M222.64,286.83s14.58,14.74,31.96,19.86c16.86,4.96,21.18-16.79,21.18-16.79,0,0,4.82,62.36-15.26,86.08-20.08,23.72-92.58,5.27-92.58,5.27,0,0,31.47-21.72,41.48-48.14,10-26.42-18.41-51.16-18.41-51.16l31.63,4.89Z"/>
  <path class="st11" d="M333.78,215.35c-1.55,8.55-6.74,30.43-10.75,37.47-1.38-2.47-1.45-1.91-4.26-2.63-10.58-2.72-55.16-9.49-60.21-15.78-2.7-3.37,14.46-22.85,15.21-28.63l60.01,9.57Z"/>
  <path class="st4" d="M327.17,253.66c-2.87,2.12-1.8,4.05-6.78,1.26.66-1.01,2.06-1.08,2.65-2.11,4.01-7.03,9.2-28.92,10.75-37.47.32-1.77,3.12-7.76,1.61-9.37l-56-10.52-29.06,39.47c-1.84,1.46-2.91-.21-5.26-.63,3.68,1.34,12.76-9.07,6.06-7.58l33.61-45.15,55.42,13.05-12.99,59.04Z"/>
  <path class="st4" d="M222.06,226.09c-4,14.39-3.24,30.35-3.93,45.47-.34,7.56-5.37,15.37,7.54,14.31-.33,1.99-.27,4.88-3.03,3.79-8.8-4.93-84.48-14.2-94.63-19.82-4.25-2.35-5.94-4.06-9.18-7.16-.19-2.06,7.4,1.41,7.75,1.58,7.92,3.69,73.45,12.4,82.8,14.77.31.08-9.67,1.22-5.19-.18-2.66-9.96,19.49-45.79,11.06-46.66-36.46-3.73-42.49-24.13,6.81-6.1Z"/>
  <path class="st3" d="M228.07,229.19c-3.48,17.92.49,39.26-2.4,56.67-13.19,1-7.88-6.75-7.54-14.31.69-15.12-.75-30.2,3.26-44.59,1.96.72,4.73,1.5,6.68,2.23Z"/>
  <path class="st10" d="M361.91,116.21l-1.03-.21c-23.07-3.64-45.92-9.01-68.73-13.99-.82-.18-1.46-.29-2.07-.42-8.82-1.98-17.66-3.59-25.97-7.05,0-.66-.25-.98-.74-1.47,3.07-4.04,16.41,3.72,20.51.21,3.74.88,7.61,1.51,11.37,2.31,12.01,2.57,24.07,5.3,36.37,6.52,6.38.63,14,4.66,15.82-2.95,6.04,2.52,12.09,11.93,14.48,17.05Z"/>
  <path class="st2" d="M361.91,116.21l-1.03-.21-22.18-3.99c-15.57-3.08-31.07-6.62-46.55-10.01-.82-.18-1.46-.29-2.07-.42-8.82-1.98-17.66-3.59-25.97-7.05.02,1.97,7.12,18.25,9.06,19.47,4.19,2.64,20.8,6.35,26.81,8.1,16.03,4.67,43.5,12.41,59.56,13.89,2.03.19,3.75.82,5.88.32,3.12-2.02-1.94-16.76-3.51-20.1Z"/>
  <path class="st6" d="M137.05,272.7c3.23,3.1,6.72.78,10.96,3.13-6.58,6.58,13.17,11.66,14.26,21.26-5.95-2.63-35.78-4.44-42.09-2.6.06-.17-17.76-2.49-16.92-5.34,2.79-9.47,10.07-19.73,15.34-26.56,1.33.99,17.27,8.98,18.44,10.11Z"/>
  <path class="st7" d="M344.38,88.85c-.69-.99-.21-2.03-1.49-2.95-2.19-1.59-3.09-1.17-4.97-1.89-2.53-.97-.26-4.58-2.57-5.58-4.42-1.9-9.74-3.74-13.04-5.69-17-10.06-42.94-8.65-57.05,2.64,4.89,3.44,10,6.76,14.99,10.1,16.02-7.73,35.27-5.46,49.35,6.52.8,3.34,2.1,6.67,2.01,10.1,6.38.63,14,4.66,15.82-2.95.72-3-1.24-7.71-3.04-10.31Z"/>
  <path class="st7" d="M318.6,73.9c-17-10.06-39.23-9.82-53.34,1.48-5.92-4.16-33.58-18.69-14.1-18.73,6.98-.02,15.3,5.19,23.9,6.63,13.89,2.33,37.52-3.74,43.54,10.63Z"/>
  <path class="st1" d="M329.6,92c.8,3.34,2.1,6.67,2.01,10.1-12.3-1.22-24.36-3.96-36.37-6.52-4.96-3.39-9.99-6.76-14.99-10.1,16.02-7.73,35.27-5.46,49.35,6.52Z"/>
  <path class="st11" d="M138.83,268.68c-1.17-1.12-18.9-5.09-20.23-6.08,6.93-8.98,18.45-58.76,20.11-59.3,1.55-.5,79.61,20.38,79.41,22.79-.74,8.98-3.3,45.12-5.51,55.11-4.48,1.39-58.1-7.25-66.03-10.95-.35-.16-7.94-3.64-7.75-1.58Z"/>
  <path class="st9" d="M295.99,137.16s67.38,14.38,71.63,18.03c1.74,1.49-7.6,34.29-5.71,34.17.99-.06.73-1.53.9-1.58,1.73-.54,1.94.23,3.68-1.89l.84,1.05c-6.48,15-15.03,29.08-20.95,44.2-4.91,2.64-12.9,17.85-19.22,22.52l12.99-59.04-55.42-13.05-33.61,45.15c-1.5-.22-.68.92-2.45,1.26-2.31-9.14.98-19.32,2.23-28.63,2.86,1.02,2.73-1.91,2.94-3.37,3.2-22.9,11.95-66.3,11.95-66.3l30.2,7.47Z"/>
  <path class="st9" d="M298.98,157.15l39.27,8c2.15,2.02-3.7,16.55-4.47,17.15-3.59,2.81-35.44-8.3-41.95-8.1l7.15-17.05Z"/>
  <path class="st4" d="M248,104.37c-4.93-10.8-18.82-23.9-33.38-25.79l-.11-4.88s-28.88,0-39.39,16.12c-6.55,10.05-13.08,18.7-5.67,65.99,0,0,8.09,12.15,39.71,9.63,3.56.12,6.98-.37,10.15-1.21h0c7.7-2.04,13.89-6.14,16.92-8.49,14.77-11.49,19.19-35.11,11.77-51.36Z"/>
</svg>