<?xml version="1.0" encoding="UTF-8"?>
<svg id="LEG_R" xmlns="http://www.w3.org/2000/svg" version="1.1" viewBox="0 0 500 500">
  <!-- Generator: Adobe Illustrator 29.4.0, SVG Export Plug-In . SVG Version: 2.1.0 Build 152)  -->
  <defs>
    <style>
      .st0 {
        fill: #715842;
      }

      .st1 {
        fill: #42372f;
      }

      .st2 {
        fill: #644f39;
      }

      .st3 {
        fill: #9e735d;
      }

      .st4 {
        fill: #443823;
      }

      .st5 {
        fill: #bc6454;
      }

      .st6 {
        fill: #d3bead;
      }

      .st7 {
        fill: #8d614d;
      }

      .st8 {
        fill: #a49385;
      }

      .st9 {
        fill: #937d6c;
      }

      .st10 {
        fill: #beb0a3;
      }

      .st11 {
        fill: #e7d2c3;
      }

      .st12 {
        fill: #f8f1ed;
      }
    </style>
  </defs>
  <g>
    <path class="st0" d="M256.76,394.46c-15.19-3.71-70.17,1.62-85.32-2.37l9.28-46.55c.4.02.77.35,1.17.37,4.2.23,26.56.84,27.82,3.72l-7.64,9.81c21.94-6.18,57.01,19.42,54.69,35.02Z"/>
    <path class="st9" d="M310.35,388.64l-8.54-17.78-74-19.33c-5.82,1.98.72-4.92-3.02-7.06-1.56-.89-13.94-5.27-16.17-5.51-2.83-.3-8.99.72-12.02,1.32-4.88.97-9.98,3.97-14.68,5.63,4.2.23,26.56.84,27.82,3.72l-22.83,15.73c21.94-6.18,72.2,13.5,69.88,29.1,1.17.29,45.39,4,45.39,4l8.2-9.82Z"/>
    <path class="st10" d="M181.17,341.39s30.04-65.84,27.6-63.02c-.72-.37,19.56-60.13,20.62-64.26.07-.28.4-.51.46-.79l34.52-3.82c-24.71,38.91-46.18,83.03-71.92,120.99-3.95,5.83-5.41,17.54-11.27,10.91Z"/>
    <path class="st0" d="M276.55,193.85c-2.03,2.9-2.7,6.33-4.23,9.16-25.85,47.72-57.12,92.75-84.7,139.46l10.64,3.5c-3.7-.06-7.88,1.31-11.57,1.76-.28-.08-.51-.38-.79-.46-1.15-.31-2.61-.81-3.62-1.04l-.25-4.36c5.86,6.64,6.45-5.57,10.4-11.41,25.74-37.96,47.21-82.07,71.92-120.99l-34.52,3.82c.02-.1.13-1.94.12-2.04l.46-.79c4.43,1.71,35.09-4.48,36.68-5.74,2.12-1.67,6.76-10.75,8.78-13.4.15.76.48,1.6.67,2.5Z"/>
    <path class="st10" d="M206.95,351.39c-2.01-.67-7.88-2.77-10.18-2.81l-9.14-6.1c27.57-46.71,58.85-91.75,84.7-139.46,2.53.93,2.16,7.04,2.12,9.13-.72,31.91-56.23,94.54-67.42,127.81-.46,1.35.61,9.63-.07,11.44Z"/>
    <path class="st10" d="M275.88,191.35c-2.03,2.64-6.67,11.72-8.78,13.4-1.59,1.26-32.25,7.45-36.68,5.74,2.4-3.58,5.84-7.12,9.56-9.25,1.03-.59,5.45-1.42,7.95-2.8,1.66-.92,3.44-1.49,5.91-2.92,4.11-2.39,5.08-6.29,9.03-9.03,3.09-2.13,7.54-9.45,11.04-9.99.71,4.76,1.03,10.18,1.98,14.86Z"/>
    <g>
      <path class="st11" d="M296.87,233.22c.58-.04,1.45-.05,2.04.12-.26.66.28,4.32-.14,5.72-23.9,28.59-31.47,58.27-54.51,87.56-6.65,8.46-20.84,21.58-23.7,30.11-.27.81,2.29-4.4,2.13-3.69-4.55.52-15.88-2.13-17.46-2.65.68-1.8,1.35-9.08,1.8-10.44,11.19-33.27,66.69-95.9,67.42-127.81.05-2.09.42-8.2-2.12-9.13,1.53-2.83,2.2-6.26,4.23-9.16,4.6,22.12-7.64,41.5,20.31,39.37Z"/>
      <path class="st12" d="M300.08,245.41c3.82,2-15.59,27.01-17.98,30.25-18.08,24.45-39.19,46.88-57.09,71.51l-4.7-.08,79.78-101.68Z"/>
    </g>
  </g>
  <g>
    <path class="st1" d="M220.45,69.52s3.69-5.81,9.58-10.11,19.62-9.05,32.14-7.1c0,0,12.26,1.27,25.41,13.51s21.16,32.45,21.16,32.45c0,0,3.83,20.92-6.1,31.11-8.62,8.84-20.41,14.19-20.41,14.19l-3-4.05,16.04-21.04.36-24.33-19.05-26.71-17.75-8.92-23.8,7.84-14.6,3.16Z"/>
    <path class="st6" d="M211.09,126.91c-.85-3.09-2.89-6.58-3.75-9.72s-3.07-6.02-3.57-7.9c-1.68-6.4-2.35-11.73-.96-18.28.83-3.91,5.97-13.07,8.41-16.48,16.44-14.8,33.07,17.4,29.68,29.57-.45,1.6-21.39,21.21-24.91,21.39-.27.01-4.01-1.86-4.83-2.26-.58.49-.37,3.08-.08,3.68Z"/>
    <path class="st0" d="M218.4,67.29c16.37-15.89,30.19,39.96,32.65,55.06,4.58,28.2,6.62,57.34,10.64,85.72.44,3.13-2.38,4.62.75,7.27.3.26,2.05.51,2,1.63-4.65,1.39-4.69,8.18-9.35,7.39,0-16.89-4.98-36.03-5.46-53.18l-20.7,31.06c-.27-1.48-.18-3.07-.47-4.55,3.58-4.66,20.12-27.13,20.7-31.06,2.11-14.41-7.54-40.63-6.69-56.27-2-3.05-25.54,28.75-31.37,16.54-.29-.61-.5-3.19.08-3.68.82.4,4.56,2.27,4.83,2.26,3.51-.18,24.46-19.79,24.91-21.39,3.39-12.17-13.24-44.36-29.68-29.57,2.99-4.17,3.83-4,7.17-7.24Z"/>
    <path class="st8" d="M251.74,57.51c2.01,7.13-8.79,2.03-11.31,6.21-.73,2.55,9.69,19.02,10.56,22.34,5.16,19.66,5.62,54.64,8.79,76.73,1.83,12.77,5.25,25.65,7.15,38.31.26,1.72-1.62,1.95-.99,3.78-1.58.96-2.89,1.99-4.27,3.19-4.02-28.39-7.05-57.42-11.63-85.62-2.45-15.1-8.96-57.48-31.65-55.16,2.31-3.01,9.09-5.54,12.53-6.72,7.29-2.52,13.14-3.41,20.82-3.06Z"/>
    <path class="st6" d="M255.08,224.37c0,1.47.58,3.2.47,4.55-1.33,15.25-10.11,12.62-18.41,17.51-4.32-14.36-5.55-29.51-8.21-44.17l20.7-31.06c.47,17.16,5.45,36.29,5.46,53.18Z"/>
    <path class="st6" d="M228.46,197.7c-4.59-23.81-10.94-47.3-17.37-70.79,5.83,12.21,29.37-19.59,31.37-16.54-.84,15.64,8.8,41.86,6.69,56.27-.58,3.93-17.11,26.41-20.7,31.06Z"/>
    <g>
      <path class="st2" d="M265.64,228.79c-3.88,14.36-.45,53.08,20.95,47.46,5.8-1.52,7.71-14.78,11.62-6.99-21.41,18.1-32.99,5.01-49.68-10.23-.67-.62-1.44-1.11-2-1.63-3.51-3.23-6.94-7.44-10.3-10.89.16-.16.65.06.91-.09,8.3-4.88,17.08-2.25,18.41-17.51,4.31,4.27,5.74,4.3,10.09-.12Z"/>
      <path class="st5" d="M293.8,216.72c1.23-.15,5.3,10.94,6.46,18.17,1.73,10.83-2.4,21.22-1.75,27.74.16,1.6.78,3.08,1.43,5.54-.58.21-1.28.72-1.72,1.1-3.91-7.79-5.82,5.47-11.62,6.99-21.4,5.62-24.83-33.1-20.95-47.46.7-2.6,1.37-6.3,2.8-8.56,1.67-2.65,5.34-4.85,7.53-7.2,7.46-4.04,12.68,4.29,17.83,3.68Z"/>
      <path class="st4" d="M287.23,206.37c2.69,1.95,5.93,6.94,6.57,10.35-5.15.61-10.37-7.73-17.83-3.68,1.3-1.41,2.48-.98,3.4-2.65.42-.97-2.78-1.97-2.96-1.99l3.17-4.92c2.46.45,5.6,1.41,7.65,2.89Z"/>
      <path class="st0" d="M268.44,220.24c-1.42,2.26-2.09,5.95-2.8,8.56-4.35,4.42-5.79,4.39-10.09.12.12-1.35-.47-3.08-.47-4.55,4.65.79,4.7-6,9.35-7.39,7.09-2.12-.91,5.32,4.01,3.26Z"/>
      <path class="st4" d="M279.58,203.48l-3.17,4.92c-4.07-.61-11.93,3.09-13.99,6.95-3.12-2.65-.3-4.14-.75-7.27,1.38-1.21,2.69-2.23,4.27-3.19,4.1-2.49,8.78-2.3,13.64-1.4Z"/>
      <path class="st7" d="M276.41,208.4c.18.03,3.38,1.02,2.96,1.99-.92,1.67-2.1,1.24-3.4,2.65-2.19,2.36-5.86,4.55-7.53,7.2-4.92,2.06,3.08-5.39-4.01-3.26.04-1.12-1.7-1.37-2-1.63,2.06-3.86,9.91-7.56,13.99-6.95Z"/>
      <path class="st3" d="M277.1,213.66c-2.17,2.34-4.39,4.76-5.51,7.74s-.9,6.71,1.39,8.93c.53.51,1.18.99,1.31,1.71.15.84-.47,1.59-1.01,2.25-1.28,1.57-2.34,3.43-2.4,5.45-.07,2.11.94,4.08,1.92,5.94,1.73,3.29,3.46,6.59,5.43,9.75.32.51.7,1.06,1.29,1.19.43.1.88-.06,1.29-.23,3.76-1.54,7.06-4.18,9.38-7.52,2.5,1.44,2.77,4.89,2.74,7.77-.03,3.12-.07,6.23-.1,9.35-.03,2.4-.11,4.98-1.56,6.9-2.46,3.25-7.68,4.41-11.67,3.56-2.32-.5-4.38-2.57-6.36-3.87-1.65-1.08-2.97-2.61-4.11-4.23-3.04-4.29-5.04-9.31-5.78-14.51-.46-3.27-.44-6.58-.41-9.88.04-4.67.09-9.4,1.37-13.88,1.55-5.44,2.24-9.09,5.97-13.34"/>
    </g>
    <path class="st9" d="M288.03,73.75l-9.63-7.07s0,0,0,0c-31.25-18.1-34.25-3.68-39.07-3.85,5.16,19.66,17.28,77.87,20.45,99.96,1.83,12.77,5.25,25.65,7.15,38.31.26,1.72-1.62,1.95-.99,3.78,4.1-2.49,8.78-2.3,13.64-1.4,2.46.45,5.6,1.41,7.65,2.89,1.68-3.23-3.11-5.41-3.43-6.54-1.3-4.62,1.42-14.68,1.95-20,1.38-13.88,3.25-28.61,3.64-51.39l8.7-13.21s1.63-5.41,1.76-17.64c.14-12.22-11.81-23.84-11.81-23.84Z"/>
  </g>
</svg>