<?xml version="1.0" encoding="UTF-8"?>
<svg id="Layer_1" xmlns="http://www.w3.org/2000/svg" xmlns:xlink="http://www.w3.org/1999/xlink" version="1.1" viewBox="0 0 304.99 277.58">
  <!-- Generator: Adobe Illustrator 29.4.0, SVG Export Plug-In . SVG Version: 2.1.0 Build 152)  -->
  <defs>
    <style>
      .st0 {
        fill: #e32322;
      }

      .st1 {
        fill: url(#linear-gradient2);
      }

      .st2 {
        fill: url(#linear-gradient1);
      }

      .st3 {
        fill: #5d6b81;
      }

      .st4 {
        fill: #07030c;
      }

      .st5 {
        fill: #f3ce5c;
      }

      .st6 {
        fill: #f58e5e;
      }

      .st7 {
        fill: url(#linear-gradient);
      }

      .st8 {
        fill: #4d546a;
      }

      .st9 {
        fill: #303950;
      }

      .st10 {
        fill: #fff;
      }

      .st11 {
        fill: #fae4db;
      }

      .st12 {
        fill: #7a8699;
      }

      .st13 {
        fill: #f4be61;
      }

      .st14 {
        fill: #70180f;
      }

      .st15 {
        fill: #fcfa18;
      }

      .st16 {
        fill: #870904;
      }

      .st17 {
        fill: #1f2233;
      }

      .st18 {
        fill: #150f1c;
      }

      .st19 {
        fill: #aa140b;
      }
    </style>
    <linearGradient id="linear-gradient" x1="217.02" y1="155.6" x2="50.69" y2="268.93" gradientTransform="translate(1.41 42.91) rotate(7.35)" gradientUnits="userSpaceOnUse">
      <stop offset=".22" stop-color="#05020b"/>
      <stop offset="1" stop-color="#252739"/>
    </linearGradient>
    <linearGradient id="linear-gradient1" x1="174.79" y1="93.62" x2="8.45" y2="206.95" xlink:href="#linear-gradient"/>
    <linearGradient id="linear-gradient2" x1="139.56" y1="108.31" x2="196.3" y2="111.01" gradientTransform="translate(1.41 42.91) rotate(7.35)" gradientUnits="userSpaceOnUse">
      <stop offset="0" stop-color="#0d0b18"/>
      <stop offset="1" stop-color="#1d2235"/>
    </linearGradient>
  </defs>
  <path class="st4" d="M130.34,26.28c-.23,21.03,1.22,33.72-16.6,46.79-4.01-1.74-8.37-3.11-12.08-5.45-.97-.61-2.21-1.32-3.07-2.06,3.47-15.52,14.56-27.48,22.49-40.74,2.43-4.07,4.27-8.63,6.65-12.76.71-1.24,1.31-2.43,2.13-3.62.4,5.92.54,11.89.48,17.85Z"/>
  <path class="st8" d="M63.9,67.19l-6.12,8.66c-3.35-.09-6.78-.67-9.36-2.88-1.12,1.77,2.44,9.28,3.32,8.77,33.16-19.33,20.09-6.56,26.82-12.33-.4,2.2-2.18,5.64-1.22,5.63.25,1.39.12,1.09,1.23,1.27,5.42.88,9.5-1.3,13.66,3.99,1.36,3.43-4.95-.09-5.27-.12-1.75-.19-16.94-.04-17.14,1.4-.07.51,2.04.19,1.26,1-4.49,1.6-11,2.39-15.07,4.73-9.33,5.37-17.08,25.4-25.76,27.26-3.13.67-5.75-.85-8.58-.27,1.51,2.88,4.74,1.84,6.79,3.38-1.21.07-1.73.41-3.35.12-5.19-.92-7.09-5.15-10.5-9.14,5.56-3.86,12.44-6.99,16.05-12.38.24-.36,3.1-2.58,1.24-3.18-5.09,4.39-13.04,2.46-18.9,6.46-.5-.28-1.52-.64-2.12-.83,3.4-1.64,7.98-2.44,11.37-4.09,2.64-1.29,25.26-14.42,25.68-15.87.14-.5-3.8-7.36-2.63-9.79.11-.22,2.75-2.02,3.74-3.13l1.68-.06c-1.77,12.2,8.15,3.73,13.16,1.42Z"/>
  <path class="st18" d="M97.91,44.89c-.6-.16-.5.29-.62.48-.34-.09-.88-.02-1.09-.14-8.11-4.56-14.18.21-21.63,3.88,8.51-15.23,23.16-26.77,28.69-43.56,2.71,5.08,6.2,22.68,4.51,27.55-.68,1.97-9.26,8.34-9.86,11.79Z"/>
  <path class="st8" d="M98.58,65.55c-6.84-5.94-6.03-12.99-1.29-20.18.12-.18.02-.64.62-.48l29.81-32.85c-2.38,4.13-4.22,8.69-6.65,12.76-7.93,13.26-19.02,25.23-22.49,40.74Z"/>
  <path class="st11" d="M66.28,104.75c-.7,2.13.76,1.88,1.83,3.02-9.67,6.32-14.09,9.37-23.25,16.46-3.61,2.79-5.05,4.43-9.93,3.72-1.26-4.28-8.68-4.92-9.81-10.16,1.62.29,2.15-.05,3.35-.12.58.44,5.63,7.47,6.54,7.52,1.15.05,1.58-3.78,3.3-4.02l3.48,3.23,1.54-1.19c-.21-1.5-1.2-3.03-1.25-3.22-.31-1.21-1.07-3.61-1.62-4.66-.92-1.76-.1.01-1.5-1.31,2.05-1.3,4.7-4.4,7.48-6.26l3.19,5.42c-1.6-.39-2.33-1.32-3.72-1.31,3.71,3.38-1.78,3.82-.68,7.42,1.09-1.46,6.09-4.67,6.59-5.82.11-.26.08-.74.14-1.09,1.78-1.53,3.57-3.03,5.56-4.29.88-.56,1.17-.92,1.23-.95,2.53-1.38,1.88-.87,4.66-1.62.91-.25,1.95-.69,2.88-.74Z"/>
  <path class="st12" d="M96.2,45.23c.16,1.06-.39.8-.69,1.02-13.99-2-29.03,10.68-39.68,18.79-1.91-2.3,3.12-5.56,3.72-7.3,4.62-2.95,10.11-6.21,15.01-8.63,7.45-3.67,13.52-8.44,21.63-3.88Z"/>
  <path class="st8" d="M55.83,65.04c1.78,2.14,2.3.63,4.45.02l9.58-.99c-2.19.69-3.93,2.18-5.96,3.12-5.01,2.31-14.93,10.78-13.16-1.42l-1.68.06c3.84-4.33,5.79-5.09,10.5-8.1-.61,1.74-5.64,5-3.72,7.3Z"/>
  <path class="st18" d="M14.62,108.65c-.98-1.15-6.78-6.64-6.85-7.28-.3-3.12,2.23-2.22,3.12-2.66.6.19,1.61.55,2.12.83,6.78,3.77,11.99,1.18,17.66-3.28-3.61,5.39-10.49,8.52-16.05,12.38Z"/>
  <path class="st9" d="M95.49,85.17c1.69.33,6.27-2.02,8.9-2.19,6.61-.43,16.07.94,20.63,6-4.45.83-8.1-2.72-11.63-.39-2.55-.79-13.19-3.89-14.97-2.49-3.08,2.43,14.3,4.14,10.54,6.64-.75.5-10.11-2.2-11.86-.7,2.65-.27,5.92,2.29,7.99,2.7,14.47,2.88,13.69,3.2,27.12,9.61,1,.48,1.72,1.35,2.53-.23.47.79,2.46,1.95,1.49,3.53l-28.77-5.38c1.97,2.77-1.93,1.24-3.49,1.22,1.81,2.44,5.23,3.33,7.64,5.43.81.71,4.76,5.05,4.53,5.87-2.13,1.78-5.08,1.12-7.5,2.09.77-3.43-2.46-2.96-2.66-3.12-5.65-4.56-11.62-8.84-18.9-10.78,2.03.66-7.18.6-9.21-.53-15.24-4.54-13.58-4.02-28.28,2.36-1.91.81-2.7,2.62-3.16,2.93-2.78,1.86-5.43,4.97-7.48,6.26-1.53.97-4.82,2.6-6.51,3.05-1.31.35-2.59.52-3.97.6-2.05-1.54-5.28-.5-6.79-3.38,2.83-.58,5.45.94,8.58.27,8.68-1.85,16.43-21.89,25.76-27.26,4.06-2.34,10.58-3.13,15.07-4.73.78-.81-1.33-.49-1.26-1,.2-1.44,15.39-1.6,17.14-1.4.32.03,6.63,3.56,5.27.12,2.14,2.71.13,4.25,3.26,4.87Z"/>
  <path class="st17" d="M161.51,82.01c-4.39-1.31-9.09-2.35-13.71-1.49,10.4,6.07,17.57,19.26,19.06,31.09,2.92-5.2.6-12.59-1.33-17.69,9.86,8,10.2,25.77,6.9,37.03-.28.96-1.5,4.88-2.86,4.91,3.14-20.26-9.56-35.15-27.6-42.48-.18-.07-3.89-1.5-3.63.09l-.55-.07c-.12-.15.45-1.17-.06-1.68-1.49-1.47-7.65-1.47-9.16-2.29-1.83-1.01-3.5-7.75-7.22-6.49-2.08-2.14-7.04-3.61-5.72-7.41,4.57-.02,5.87-1.3,10.32,1.89.8.57,1.98,4.49,3.92,4.12.59-2.24-1.45-8.65.89-9.06,1.33-.23,18.2,3.1,20.64,3.78,2.2.61,10.63,3.04,10.1,5.75Z"/>
  <path class="st17" d="M85.98,102.85c.66.14.91.09,1.09.14,7.29,1.94,13.26,6.22,18.9,10.78.2.16,3.42-.31,2.66,3.12-.33.13-1.74.52-1.75.61,2.86,2.51,7.75,5.37,7.93,9.64-6.38-6.14-15.21-10.44-24.17-10.9l10.9,10.3c-14.74-8.44-40.33-10.46-51.8,4.99-1.68-2.63-1.37-4.9-4.9-7.3,9.17-7.09,13.58-10.14,23.25-16.46,1.43-.94,1.03-.47,2.47-1.91,1.34-1.33,2.25-4.06,2.48-4.13.27-.09,3.77,2.66,5.26,2.35,2.24-.47,2.23-2.34,2.54-2.45.73-.26,1.26,1.28,1.5,1.31,1.17.14,3.45-.13,3.63-.09Z"/>
  <path class="st17" d="M159.22,142.87c-.91,7.84-1.86,12.65-6.37,19.19-.82,1.19-9.84,11.06-10.58,10.87.16-1.81.66-2.14-1.26-1,3.01-10.34,5.53-23.31-1.07-32.66-.39,6.5-2.82,13.28-3.87,19.24-.26,1.5.91,3.05.39,5.61-.12.58-2.71,8.38-3.44,5.12.03-1.13,1.23-4.21-.91-3.73l-5.22,6c-.44-.26-.41-4.22-.73-5.1,1.66-.35,1.62-2.52,2.13-3.62,5.54-11.95,10.45-23.59,5.31-36.85,7.44,2.83,10.06,11.11,12.41,18,.75-.11,1.14-3.75,1.38-4.27.02-.05.96.32,1.13-.13,4.33-11.42,1.29-23.81-1.88-34.99,1.7,1.99,3.61,3.74,5.07,5.94,3.2,4.81,6.75,19.19,7.02,23.15.19,2.77-1.18,7.12.48,9.24Z"/>
  <path class="st9" d="M101.65,67.61c3.72,2.34,8.08,3.71,12.08,5.45-.85.62-2.07,1.12-2.51,2.18.83,1.05,2.93.3,4.41.29-1.32,3.8,3.63,5.27,5.72,7.41,1.86,1.91,3.81,3.76,5.35,5.97-.27.52-1.21-.02-1.68.06-4.56-5.06-14.02-6.42-20.63-6-2.63.17-7.22,2.52-8.9,2.19-.35-10.65-9.92-10.2-18.15-10.13-.96,0-1.65.01-1.25-2.19,1.38-1.18,1.18-1.33,2.91-2.05,6.34-2.62,15.96-1.98,22.65-3.19Z"/>
  <path class="st18" d="M128.29,162.79c-.51,1.1-.48,3.27-2.13,3.62-1.07-2.91-3.52-7.85-5.95-9.94,1.85,12,.17,24.39-2.98,36.03-1.41,5.23-3.54,11-6.46,15.57,3.13-17.65,11.14-38.53,4.6-57.23-1.68-4.8-5.28-8.87-7.74-13.23,6.15,3.47,14.52,11.11,17.78,17.31,1.13,2.15.79,6.1,2.88,7.88Z"/>
  <path class="st9" d="M113.4,88.59c9.12,2.81,16.33,7.18,21.35,15.54-.81,1.58-1.53.71-2.53.23-13.43-6.42-12.64-6.73-27.12-9.61-2.07-.41-5.34-2.97-7.99-2.7,1.76-1.5,11.11,1.2,11.86.7,3.76-2.5-13.62-4.21-10.54-6.64,1.77-1.4,12.42,1.7,14.97,2.49Z"/>
  <path class="st9" d="M159.22,142.87c-1.65-2.11-.28-6.47-.48-9.24-.27-3.95-3.82-18.34-7.02-23.15-1.46-2.19-3.37-3.95-5.07-5.94,3.17,11.18,6.21,23.57,1.88,34.99-.17.45-1.1.08-1.13.13,3.16-14.57-.02-34.53-9.6-46.27l.55.07c17.16,9.99,23.05,30.56,20.87,49.4Z"/>
  <path class="st9" d="M156.99,65.3c-5.33-1.09-11.45-1.54-16.69.07-.68.21-7.73,3.15-6.45,4.73,12.81-2.49,26,1.39,37.45,7.06,2.26,1.12,11.55,8.14,12.28,8.26,1.31.21,1.51.26,1.54-1.19l-3.74-5.49c2.34-2.06,2.67.71,4,1.35,10.49,5.08,22.26,10.4,27.2,21.86,2.46-.43.5-2.82,1.93-4.2,2.06,3.71,2.9,5.99,3.11,10.41l-3.62,15.1c-1.77.73-5.73,2.11-7.06,2.98-1.54-10.46,4.13-22.68-8.23-28.86-5.54-2.77-18.39-9.45-23.55-11.38-1.92-.72-6.24-3.02-4.79.49-1.95-1.23-6.72-3.84-8.87-4.48.53-2.71-7.9-5.14-10.1-5.75-2.45-.68-19.31-4.01-20.64-3.78-2.34.41-.3,6.82-.89,9.06-1.94.37-3.12-3.55-3.92-4.12,1.15-5.2-4.48-4.86-2.01-10.27l4.84,3.4c.96-.03,3.24-7.79,3.66-8.98,4.59-.51,9.64-1,14.23-.39,2.63.35,9.18,1.74,10.31,4.11Z"/>
  <path class="st9" d="M149.76,43.8c-.07,0,.14-.93-1.3-.72-2.08.3-16.35,3.37-16.95,4.21-1.02,1.44-1.56,8.47-2.51,10.8-1.31,3.23-3.78,6.27-5.06,9.08-2.47,5.4,3.16,5.07,2.01,10.27-4.45-3.19-5.75-1.91-10.32-1.89-1.48,0-3.58.76-4.41-.29.43-1.06,1.66-1.56,2.51-2.18,17.82-13.07,16.37-25.76,16.6-46.79,2.87,1.94-.14,13.19,1.24,14.06l30.45-3.3c-.02,2.2-9.63,7.51-10.43,7.55-1.71.1-1.74-.8-1.84-.79Z"/>
  <path class="st18" d="M149.76,43.8c-13.67,1.45-13.45,7-17.31,17.78-.42,1.19-2.7,8.95-3.66,8.98l-4.84-3.4c1.28-2.81,3.75-5.84,5.06-9.08.94-2.32,1.48-9.36,2.51-10.8.6-.84,14.87-3.9,16.95-4.21,1.44-.21,1.22.73,1.3.72Z"/>
  <g>
    <path class="st9" d="M282.53,126.54l10.99,13.93c-2.39,2.34-3.87-1.44-6.04-2.73-2.98-1.77-10.44-6.32-13.24-7.27-5.14-5.76-16.43-5.22-24.13-4.78-10.18.59-33.7,3.52-42.52,8.59-6.49,3.73-9.88,7.93-15.78,12.42-.66-.69,1.83-10.52,2.37-11.93,2.88-7.52,6.18-12.81,13.86-14.71,1.13-.28,10.67-4.6,7.62-8.21-.38-.45-3.14-13.11-5.51-15.16.62,1.35,1.79,1,2.37,2.05-1.43,1.38,2.53,2.77.07,3.2-4.95-11.46-16.71-16.78-27.2-21.86-1.33-.64-1.65-3.41-4-1.35l3.74,5.49c-.03,1.45-.23,1.4-1.54,1.19-.73-.12-10.02-7.14-12.28-8.26-11.46-5.66-24.65-9.54-37.45-7.06-1.29-1.58,5.76-4.52,6.45-4.73l24.34,3.14c-.59-1.87-5.34-2.74-7.65-3.21-1.13-2.37-7.68-3.76-10.31-4.11-4.58-.61-9.64-.12-14.23.39,3.85-10.78,3.64-16.33,17.31-17.78.1-.01.13.89,1.84.79.79-.05,10.41-5.35,10.43-7.55l-30.45,3.3c-1.38-.87,1.63-12.12-1.24-14.06.07-5.96-.08-11.93-.48-17.85.28-.4-.22-2.38,1.27-1.23,1.3,10.9,1.67,21.74,1.61,32.73,11.24-3.13,24.46.83,34.23-6.7-3.53,8.08-12.51,10.18-19.14,14.77,17.28-7.28,35.58-2.54,53.56-1.43l-15.9,6.85c10.11-2.88,20.56-.03,30.15,3.33-6.34.23-12.93.19-18.75,3.14,17.77,2.31,35.48,9.58,48.96,21.33-4.93-.75-10.17-1.08-15.05.28,12.53.91,21.23,5.51,30.52,13.39,3.8,3.22,5.89,8.89,11.52,9.83l-13.43-1.46c11.52,4.5,13.95,15.95,23.13,23.28Z"/>
    <path class="st3" d="M195.14,69.11c9.35.57,23.05,2.6,25.84,13.06l-31.99-12.75c1.57-.28,4.63-.41,6.16-.32Z"/>
    <path class="st3" d="M156.99,65.3c2.3.47,7.06,1.34,7.65,3.21l-24.34-3.14c5.24-1.61,11.36-1.16,16.69-.07Z"/>
  </g>
  <path class="st9" d="M97.29,45.37c-4.75,7.19-5.55,14.24,1.29,20.18.86.75,2.1,1.45,3.07,2.06-6.69,1.21-16.31.58-22.65,3.19.19-1.51,5.64-4.73,5.66-5.11.18-3-6.32,2.4-7.29,2.67-2.07.57-5.69-.2-9.03,1.06-4.75,1.78-6.06,6.55-10.56,6.42l6.12-8.66c2.03-.94,3.77-2.43,5.96-3.12,2.63-.84,5.2-1.71,8.01-1.75,1.17-.01,8.61,1.44,8.79.86l-7.37-3.18c5.65-4.12,10.65-9.61,16.23-13.75.3-.22.85.04.69-1.02.21.12.76.05,1.09.14Z"/>
  <path class="st8" d="M30.68,96.27c-5.67,4.46-10.88,7.05-17.66,3.28,5.86-4,13.82-2.06,18.9-6.46,1.86.6-1,2.81-1.24,3.18Z"/>
  <path class="st17" d="M95.49,85.17c-3.14-.62-1.13-2.16-3.26-4.87-4.16-5.28-8.25-3.11-13.66-3.99-1.11-.18-.97.12-1.23-1.27,8.24-.08,17.8-.52,18.15,10.13Z"/>
  <path class="st5" d="M89.57,91.84c-.18-.04-6.05,11.23-7.22,11.1-.24-.03-.77-1.56-1.5-1.31-.31.11-.3,1.99-2.54,2.45-1.49.31-4.98-2.43-5.26-2.35-.23.07-1.14,2.79-2.48,4.13-2.25-1.54-1.93-1.26-4.3-1.11-.92.06-1.96.49-2.88.74l-.19-2.81c.73-.39,1.39-2.06,2.27-2.49,4.18-2.04,23.19-12.82,24.1-8.36Z"/>
  <path class="st5" d="M58.48,104.86l.26,2.26c-.07.04-.35.4-1.23.95l-5.29-2.07c-1.69,2.37.15,3.78-.26,6.36-.06.36-.03.84-.14,1.09-.71-.14-1.49-.11-2.19-.28l-3.19-5.42c.45-.3,1.24-2.12,3.16-2.93,4.53-1.91,6.33-.02,8.89.04Z"/>
  <path class="st10" d="M32.44,117.07c-2.4,2.7,4.77,8.19,3.48,1.01,1.12,2.45,1.93,1.12,2.87,1.48.2.08.06,2.67,3.28.42.05.19,1.05,1.72,1.25,3.22l-1.54,1.19-3.48-3.23c-1.72.24-2.15,4.08-3.3,4.02-.91-.04-5.95-7.08-6.54-7.52,1.37-.08,2.65-.25,3.97-.6Z"/>
  <path class="st13" d="M40.45,115.32c-2.41.41-.53,3.05-1.66,4.23-.94-.36-1.74.97-2.87-1.48,1.29,7.19-5.88,1.69-3.48-1.01,1.69-.45,4.98-2.08,6.51-3.05,1.4,1.32.58-.46,1.5,1.31Z"/>
  <path class="st19" d="M57.51,108.07c-1.99,1.26-3.77,2.76-5.56,4.29.42-2.58-1.42-3.99.26-6.36l5.29,2.07Z"/>
  <path class="st0" d="M49.62,113.17c.7.17,1.48.14,2.19.28-.5,1.15-5.5,4.36-6.59,5.82-1.1-3.59,4.39-4.04.68-7.42,1.4,0,2.13.92,3.72,1.31Z"/>
  <path class="st6" d="M42.07,119.98c-3.23,2.25-3.08-.34-3.28-.42,1.13-1.18-.76-3.82,1.66-4.23.55,1.05,1.32,3.45,1.62,4.66Z"/>
  <path class="st14" d="M70.58,105.86c-1.44,1.44-1.04.97-2.47,1.91-1.08-1.14-2.53-.89-1.83-3.02,2.37-.14,2.05-.43,4.3,1.11Z"/>
  <path class="st0" d="M63.4,105.49c-2.78.76-2.13.24-4.66,1.62l-.26-2.26c2.16.04,3.15-1.32,4.73-2.17l.19,2.81Z"/>
  <path class="st8" d="M95.51,46.25c-5.58,4.14-10.58,9.63-16.23,13.75l7.37,3.18c-.17.58-7.61-.87-8.79-.86-5.83-2.53-12.22,1.19-17.59,2.73-2.14.62-2.67,2.12-4.45-.02,10.65-8.11,25.68-20.79,39.68-18.79Z"/>
  <path class="st12" d="M77.87,62.32c-2.81.04-5.37.91-8.01,1.75l-9.58.99c5.37-1.55,11.76-5.27,17.59-2.73Z"/>
  <g>
    <path class="st7" d="M147.89,263c8.54,4.34,17.77,7.68,27.18,9.45-2.27-4.11-4.72-8.41-5.58-10.93-8.37-7.76-8.36-20.73-12.3-29.66-.64-1.46-2.47-2.89-3.3-4.6-.28-.58-.59-1.21-.88-1.78-2.98-5.79-3.21-6.42-3.92-12.74-1.46,2.67-1.91,8.15-1.99,11.14-.07,2.55.76,22.13,3.63,14.93,2.75,6.59,4.5,14.79,8.94,21.17-.42,2.02-7.93-4.18-8.57-4.72-3.9-3.34-6.96-7.88-10.14-11.87-2.13-.47,1.47,9.69,1.7,10.51l5.22,9.11Z"/>
    <path class="st2" d="M100.35,163.91c.81,2.21,9.88-5.93,10.12-7.31,7.05,18.52-13.12,29.88-11.99,47.66,2.24-3.44,3-8.77,7.43-10.16-2.55,8.31-4.69,18.4-1.75,26.46.25-2.3.74-6.19,3.18-7.37-1.6,9.15.05,18.95,6.36,26.12,1.05-4.01-.47-10.26,2.55-13.29-.96,5.45-.66,11.13.16,16.64,2.25,1.17,4.43,2.48,6.58,3.9,6.16,4.08,11.79,8.94,18.14,12.73,1.95,1.16,3.95,2.27,5.99,3.32-6.46-6.15-16.65-14.15-19.99-21.84-3.12-7.17-3.14-17.11-4.62-24.5-.52-2.59-2.89-5.02-3.46-7.67-1.09-5.12.77-11.87-1.82-16.08-1.41,5.23-3.54,11-6.46,15.57,3.13-17.65,11.14-38.53,4.6-57.23-1.68-4.8-5.28-8.88-7.74-13.23,6.15,3.47,14.52,11.11,17.78,17.31,1.13,2.15.79,6.1,2.88,7.88,5.54-11.95,10.45-23.59,5.31-36.85,7.44,2.83,10.06,11.11,12.41,18,.75-.11,1.14-3.75,1.38-4.27,3.16-14.57-.02-34.53-9.6-46.27-.12-.15.45-1.17-.06-1.68-1.49-1.47-7.65-1.47-9.16-2.29-1.83-1.01-3.5-7.75-7.22-6.49,1.86,1.91,3.81,3.76,5.35,5.97-.27.52-1.21-.02-1.68.06-4.45.83-8.1-2.72-11.63-.39,9.12,2.81,16.33,7.18,21.35,15.54.47.79,2.46,1.95,1.49,3.53l-28.77-5.38c1.97,2.77-1.93,1.24-3.49,1.22,1.81,2.44,5.23,3.33,7.64,5.43.81.71,4.76,5.05,4.53,5.87-2.13,1.78-5.08,1.12-7.5,2.09-.33.13-1.74.52-1.75.61,2.86,2.51,7.75,5.37,7.93,9.64-6.38-6.14-15.21-10.44-24.17-10.9l10.9,10.3c-14.74-8.44-40.33-10.46-51.8,4.99-1.68-2.63-1.37-4.9-4.9-7.3-3.61,2.79-5.05,4.43-9.93,3.72-.18-.03-.36-.05-.55-.07l-5.2,1.55c3.15,11.59,13.79,15.9,25.02,12.96-8.21-1.64.43-9.67,4.05-11.99,27.09-17.37,53.22,4.73,42.1,33.51Z"/>
    <path class="st9" d="M115.24,106.62c4.68,2.06,7.8,6.19,9.43,10.95l-9.43-10.95Z"/>
  </g>
  <path class="st9" d="M161.51,82.01c2.15.64,6.92,3.25,8.87,4.48,17.86,11.27,20.86,33.73,9.62,50.45.35-7.07.88-14.43-2-21.11-1.05-.09-2.51,11.43-3.1,13.22-1.32,4.02-4.15,7.21-5.82,10.65l-1.2.68c.82-1.56,1.42-2.72,1.69-4.51,1.36-.03,2.58-3.96,2.86-4.91,3.3-11.26,2.97-29.04-6.9-37.03,1.93,5.1,4.25,12.49,1.33,17.69-1.49-11.83-8.66-25.02-19.06-31.09,4.61-.86,9.32.18,13.71,1.49Z"/>
  <path class="st18" d="M169.57,135.87c-.28,1.79-.87,2.95-1.69,4.51l1.2-.68c-2.31,4.76-9.16,19.43-12.44,23.14-1.49,1.69-2.41.81-3.79-.77,4.51-6.55,5.46-11.36,6.37-19.19,2.18-18.84-3.71-39.41-20.87-49.4-.26-1.59,3.44-.16,3.63-.09,18.05,7.33,30.74,22.23,27.6,42.48Z"/>
  <g>
    <path class="st1" d="M206.96,126.24c-3.84,2.52-8.02,8.49-9.97,12.61-.36.23-.56.44-.62.48-10.77,5.16-21.46,13.19-27.52,23.69-4.59,5.92-10.95,12.31-15.15,18.34-.43.62-7.09,10.33-4,9.49l10.42-13.95c-.28,2.57-2.64,4.45-3.38,6.79-4.29,3.41-4.81,9.87-5.26,14.89-1.46.38-.72-2.1-1.61-.49-2.54,4.64-1.32,9.74-.78,14.63-1.46,2.67-1.91,8.15-1.99,11.14-.07,2.55.76,22.13,3.63,14.93,2.75,6.59,4.5,14.79,8.94,21.17-.42,2.02-7.93-4.18-8.57-4.72-3.9-3.34-6.96-7.88-10.14-11.87-2.13-.47,1.47,9.69,1.7,10.51l5.67,9.91c-6.32-6.29-17.65-14.84-21.21-23.03-3.12-7.17-3.14-17.11-4.62-24.5-.52-2.59-2.89-5.02-3.46-7.67-1.09-5.12.77-11.87-1.82-16.08,3.15-11.64,4.83-24.03,2.98-36.03,2.42,2.1,4.88,7.03,5.95,9.94.32.88.3,4.84.73,5.1l5.22-6c2.13-.48.94,2.6.91,3.73.73,3.27,3.32-4.54,3.44-5.12.52-2.56-.65-4.11-.39-5.61,1.05-5.96,3.48-12.74,3.87-19.24,6.6,9.36,4.08,22.32,1.07,32.66,1.92-1.14,1.42-.81,1.26,1,.74.19,9.76-9.68,10.58-10.87,1.38,1.58,2.3,2.46,3.79.77,3.27-3.71,10.13-18.38,12.44-23.14,1.67-3.44,4.5-6.62,5.82-10.65.59-1.79,2.04-13.32,3.1-13.22,2.89,6.68,2.35,14.04,2,21.11,11.24-16.71,8.24-39.17-9.62-50.45-1.45-3.51,2.87-1.21,4.79-.49,5.16,1.93,18.01,8.61,23.55,11.38,12.36,6.18,6.69,18.41,8.23,28.86Z"/>
    <path class="st17" d="M195.09,99.69c3.28,3.12,9.27,8.7,9.08,13.68-.16,3.92-8.38,16.65-9.56,13.78,3.91-4.74,5.82-11.24,4.45-17.22-.46-2.02-6.2-8.98-3.96-10.24Z"/>
  </g>
  <path class="st18" d="M87.93,92.73c-.18-.05-4.11,2.8-4.77,2.66,0,0-13.51,2.77-17.68,4.81-.88.43-1.54,2.09-2.27,2.49-1.58.85-2.57,2.21-4.73,2.17-2.56-.05-4.37-1.94-8.89-.04,18.75-7.59,37.89-13.99,40.39-19.08,2.03,1.13-.02,7.65-2.05,6.99Z"/>
  <g>
    <path class="st4" d="M79,70.81c-1.73.71-2.62.6-4.37,1.05-12.77,3.28-11.73,14.54-22.89,9.89-.93-.39-4.44-7-3.32-8.77,2.57,2.21,6.01,2.78,9.36,2.88,4.49.13,5.81-4.64,10.56-6.42,3.34-1.26,6.97-.49,9.03-1.06.97-.27,7.48-5.68,7.29-2.67-.02.38-5.47,3.6-5.66,5.11Z"/>
    <path class="st15" d="M71.82,70.44c-1.67,3.43-5.12,2.52-8.09,5.03-6.65,6.96-.03-5.09,8.09-5.03Z"/>
    <path class="st16" d="M65.72,74.46c2.97-2.51,4.42-.6,6.09-4.03.06,0,.3-1.14,1.13-.13-1.79,3.87-2.12,2.73-7.22,4.16Z"/>
  </g>
</svg>