<?xml version="1.0" encoding="UTF-8"?>
<svg id="Extras" xmlns="http://www.w3.org/2000/svg" version="1.1" viewBox="0 0 500 500">
  <!-- Generator: Adobe Illustrator 29.4.0, SVG Export Plug-In . SVG Version: 2.1.0 Build 152)  -->
  <defs>
    <style>
      .st0 {
        fill: #2d251f;
      }

      .st1 {
        fill: #42372f;
      }
    </style>
  </defs>
  <path class="st1" d="M268.83,182.21c-9.08,4.47-21.14,3.69-27.67,11.42-5.36,6.35-4.55,15.71-3.2,23.91.21,1.25.51,2.63,1.56,3.33.9.59,2.06.48,3.13.36,11.68-1.38,23.35-2.77,35.03-4.15-5.55,3.01-12.52,2.81-17.75,6.34-5.42,3.65-7.72,10.46-8.81,16.9-1.31,7.74-1.39,15.68-.23,23.44.13.9.34,1.89,1.09,2.4.94.65,2.22.21,3.27-.24,9.27-4.01,18.53-8.02,27.8-12.03-2.67,3.95-5.4,8.04-6.27,12.72-.87,4.68.61,10.15,4.73,12.53,3.43,1.98,7.69,1.42,11.6.8,22.79-3.62,38.25-10.04,59.85-18.18-5.61,1.97-3.92,6.82-8.09,11.07-8.4,8.56-8.1,29.65,1.48,32.19,15.85-5.25,24.03-10.49,38.08-19.5,1.84-1.18,4.72-2.17,5.8-.28.47.83.3,1.86.15,2.8-.38,2.36-.52,4.75-.43,7.13.08,2.17.81,4.85,2.95,5.25,1.28.24,8.74,2.71,9.84,2,5.19-3.32,4.17-9.83,9.36-13.15,10.28-6.57,22.28-13.42,33.98-9.98,0,0,37.22-21.42,9.39-41.23,0,0-44.99,14.51-60.76-8.22-15.77-22.73-47.31-82.09-118.26-78.84,0,0-31.54.46-42.2,22.73,0,0-1.94,15.38,40.98,6.63"/>
  <path class="st0" d="M460.35,238.33c-4.27-8.44-33.12,10.44-40.11,4.06-65.59-59.91-66.15-63.65-66.15-63.65-1.23-.06-2.47-.1-3.72-.12-12.54-12.21-30.83-18.28-48.18-15.9-.81.11-1.71.3-2.15.98-.65,1.01.12,2.31.93,3.19,4.68,5.09,11.49,7.64,18.21,9.25,4.97,1.19,10.07,1.98,14.99,3.32-14.38,1.59-29.11,5.18-42.13,9.08-1.97.59-4.35,1.81-4.15,3.86,15.19,4.46,30.83-4.99,46.64-5.85-21.08,4.38-40.99,14.24-57.25,28.34,21.49-1.72,42.45-7.27,63.29-12.8-7.97,3.1-16.03,6.24-23.02,11.17-6.99,4.93-12.92,11.89-14.85,20.22,20.58-7.2,39.64-18.07,58.58-28.88-10.36,9.43-20.73,18.86-31.09,28.28-6.18,5.62-12.9,12.56-12.06,20.88,12.43-5.14,23.92-12.54,33.78-21.7-11.58,13.99-19.31,31.17-21.9,49.16,18.37-8.33,33.25-24.07,40.55-42.88-3.11,9.96-6.21,19.92-8.95,29.99-2.23,8.19-4.22,16.91-1.86,25.07,7.03-4.83,12.63-11.58,16.34-19.25-.55,2.65-1.01,5.32-1.26,8.02-.95,10.24,1.75,21.79,10.3,27.49.58.39,1.26.76,1.94.63.64-.12,1.11-.65,1.52-1.15,6.79-8.46,8.62-19.87,8.74-30.72.12-10.85,1.55-5.9,3.04-16.65,4.03,13.32,5.29,10.82,11.18,23.43,3.36,7.19,7.97,14.68,15.52,17.14,2.31-5.99,3.02-12.53,2.24-18.9,4.17,7.54,9.69,14.33,16.28,19.88,1.45-1.14,2.03-3.06,2.36-4.88,1.73-9.3,16.7-51.66,12.43-60.11Z"/>
</svg>