<?xml version="1.0" encoding="UTF-8"?>
<svg id="Layer_1" xmlns="http://www.w3.org/2000/svg" version="1.1" viewBox="0 0 223 273.79">
  <!-- Generator: Adobe Illustrator 29.4.0, SVG Export Plug-In . SVG Version: 2.1.0 Build 152)  -->
  <defs>
    <style>
      .st0 {
        fill: #bc6c69;
      }

      .st1 {
        fill: #3f2035;
      }

      .st2 {
        fill: #f2dc90;
      }

      .st3 {
        fill: #8c2829;
      }

      .st4 {
        fill: #daa08a;
      }

      .st5 {
        fill: #2a1932;
      }

      .st6 {
        fill: #c84e36;
      }

      .st7 {
        fill: #432b4c;
      }

      .st8 {
        fill: #cc7668;
      }

      .st9 {
        fill: #362d55;
      }

      .st10 {
        fill: #1d1a31;
      }

      .st11 {
        fill: #cd8f81;
      }

      .st12 {
        fill: #fed995;
      }

      .st13 {
        fill: #a97270;
      }

      .st14 {
        fill: #5c2333;
      }

      .st15 {
        fill: #a2433e;
      }

      .st16 {
        fill: #9b474d;
      }

      .st17 {
        fill: #b5837e;
      }
    </style>
  </defs>
  <path class="st8" d="M74.87,134.82c.65,2.52,1.9,3,2.18,3.64.69,1.56,2.2,7.11,2.55,7.28,1.21.59,1.08-1.51,1.46-1.46.26.04,2.06,1.51,2.18,1.46,2.6-1.04,1.36-4.06,1.82-5.1.76-1.72.44-3.23,1.82-4.37,1.88-.08,2.58-.35,4,1.09,2.4,2.41,6.86,21,10.92,24.76-.05.26-1.74.73-2.18,1.09-.23.19-2.94,1.75-3.64,2.18-1.7,1.05-2.89,1.92-4,3.64-4.73-2.61-1.65-5.14-1.82-5.46-1.05-2.03-12.29-9.36-16.02-14.93-1.58-2.36-2.52-7.59-3.28-8.01-.42-.23-4.94-.24-6.92-1.46.1-1.14,2.85-4.73,2.91-5.1l8.01.73Z"/>
  <path class="st8" d="M55.21,104.24c-.48,1.23,15.51-13.83,16.87-12.99,3.28,1.23,62.85,30.33,64.68,30.13,3.08-.34-49.25,26.72-47.58,27.27-8.44,2.88-24.46-17.59-25.24-9.47-3.09-4.12-17.01-21.33-20.39-25.49-2.51-3.1-3.95-5.18-5.83-8.74,2.57-.42,19.28-7.17,19.66-4.73-.85,1.21-1.65,2.64-2.18,4Z"/>
  <path class="st12" d="M95.99,165.4c-.78,7.49,1.84,14.64,5.83,20.75,1.22,1.87,7.85,6.96,8.01,8.37-4.08.58-11.19-10.9-12.01-10.92-.68-.02.1,2.7-1.09,1.82-2.84-3.73.87-2.23.73-2.91-.11-.55-3.1-4.85-3.28-6.19-.64.31-.36,2.88-.36,3.64-.46.06-1.15-.12-1.46,0l-.73-2.18c5.83-8.87-17.5-19.52-17.48-29.13,3.73,5.57,14.97,12.9,16.02,14.93.17.32-2.91,2.85,1.82,5.46,1.12-1.72,2.31-2.59,4-3.64Z"/>
  <path class="st2" d="M31.91,94.77c.28.22.44.82,1.46,1.46,2.82,2.48,2.83,5.83,4.37,8.74,1.88,3.55,3.31,5.64,5.83,8.74-.81.23-4-1.15-4.37-1.46-3.87-3.19-3.67-9.77-5.1-12.01-4.14-6.5-12.62-11.81-13.11-20.75,3.06,5.88,5.71,11.07,10.92,15.29Z"/>
  <path class="st6" d="M109.82,194.53c.23,1.95-1.48.85-.73,4.37,2.25,10.47,6.39,14.7,13.84,22.57-2.09.94-1.84-3.16-3.64,0-5.8-6.92-15.52-20.22-20.39-27.67-2.53-3.88-5.11-9.16-5.1-13.84,0-.76-.28-3.33.36-3.64.18,1.34,3.17,5.64,3.28,6.19.14.68-3.57-.82-.73,2.91,1.19.88.41-1.84,1.09-1.82.83.02,7.93,11.51,12.01,10.92Z"/>
  <path class="st15" d="M130.94,155.21c-1.71,6.97-.44,5.01,1.46,11.65-.11,12.71,6.49,22.03-10.92,25.49,10.12-14.82,10.14-27.08-9.47-31.68,4.36-3.97,10.26-16.9,7.28-22.21,10.67-7.2,6.4,13.76,7.28,19.3l4.37-2.55Z"/>
  <path class="st3" d="M136.77,136.28c-.13,6.71-4.32,12.79-5.83,18.93l-4.37,2.55c-.88-5.53,3.39-26.49-7.28-19.3-.48-.86-5.65-3.49-6.55-3.64,1.44.42,1.39-.69,1.46-.73,2.63-.12,5.4.24,8.01,0s5.79-2.83,6.55-2.91c2.27-.24,4.81,1.59,6.92,2.18l-1.82,1.09,2.91,1.82Z"/>
  <path class="st3" d="M138.22,193.08c-.9,3.68-3.4,2.3-7.28,2.18-3.48-.1-7.52-1.38-11.29-.73-.53-1.2,1.16-1.22,1.82-2.18,17.42-3.46,10.82-12.78,10.92-25.49,2.65,9.32,3.54,18.06,5.83,26.21Z"/>
  <g>
    <path class="st7" d="M190.65,133.36c4.24,3.34,14.35,4.13,8.01,9.83,0,0,16.85,15.92,15.66,15.66-5.59-1.25-32.55,20.51-35.32,27.67-.24-.02-2.15.52-2.91.36-.66,7.11-7.5,14.11-9.47,21.12-1.2,4.29-1.81,28.31-4.73,28.03l-5.83-10.92-3.28,9.83c-4.78-12.93-8.52-26.09-12.38-39.32-.37-1.27-2.14-2.39-2.18-2.55-2.29-8.15-3.17-16.9-5.83-26.21-1.89-6.65-3.17-4.68-1.46-11.65,1.51-6.14,13.7-58.1,13.84-64.81l5.59-5.69,4.67-5.43.73-1.46,10.12-6.71c9.6,2.58,14.83,62.63,24.76,62.26Z"/>
    <path class="st16" d="M155.34,171.23c8.7,9.4-5.39,15.46-11.65,21.12-.99-1.02-2.14-1.56-1.82-3.28.21-1.1,12.77-14.32,13.47-17.84Z"/>
    <path class="st16" d="M145.87,149.38c4.08,6.26-4.91,13.44-10.19,14.56l10.19-14.56Z"/>
  </g>
  <path class="st8" d="M112.74,134.82c.9.15,6.07,2.78,6.55,3.64,2.98,5.31-2.92,18.24-7.28,22.21,19.61,4.59,19.58,16.86,9.47,31.68-.66.96-2.35.98-1.82,2.18,3.77-.65,7.8.63,11.29.73,6.65,2.74-.03,29.07-2.55,29.86-1.58-.67-3.53-2.43-4.73-3.64-5.53-5.59-10.57-15.71-14.56-22.57-.75-3.52.95-2.42.73-4.37-.16-1.41-6.79-6.5-8.01-8.37-3.98-6.11-6.6-13.26-5.83-20.75.7-.43,3.41-2,3.64-2.18.35,2.39,2.44-.57,4.37,2.55,2.24,3.61,5.05,16.63,7.28,21.85,3.54,8.26,8.36,17.85,13.11,25.49l-29.86-77.19c.32-.88,16.68-1.35,18.2-1.09Z"/>
  <path class="st5" d="M85.79,133.36c.05.05-1.89.95-.36,1.46,1.73.58,8.3-1.69,10.56-2.18,4.95.47,13,1.68,18.2,1.46-.07.04-.02,1.14-1.46.73-1.53-.26-17.89.22-18.2,1.09l29.86,77.19c-4.75-7.64-9.57-17.23-13.11-25.49-2.23-5.22-5.05-18.23-7.28-21.85-1.93-3.12-4.02-.16-4.37-2.55.44-.36,2.14-.83,2.18-1.09-4.06-3.76-8.53-22.34-10.92-24.76-1.43-1.44-2.12-1.17-4-1.09-1.38,1.14-1.06,2.65-1.82,4.37-1.68-3.11-2.07-5.68-2.18-9.1,1.95-1.32,2.65,1.54,2.91,1.82Z"/>
  <path class="st11" d="M82.15,120.26c-6.84,2.51-9.05,7.74-7.28,14.56l-8.01-.73c.3-1.88-1.5-5.25-1.46-6.19.24-5.16,11.94-10.7,16.75-7.65Z"/>
  <path class="st10" d="M53.03,48.17c-.02.95-.08,1.98,0,2.91.68,7.69,2.01,10.21,8.01,14.93l-5.1-2.18c.46,5.06,2.54,10.04,7.28,12.38-.35,2.77-2.24-.37-2.55-.36-1.79.01.81,8.64,4.73,9.47,3.51.74,15.14.11,18.93-.73.52,1.75,1.88,1.53,3.28,1.46,7.29-.37,19.29-7.16,26.94-9.47,12.7-3.83,35.51-13.96,44.05,0-4.84,4.44-9.19,9.23-13.84,13.84-6.99-9.84-19.86-9.95-30.95-8.01-3.46.61-23.5,7.97-24.39,10.56-.96,2.79,6.6,37.98,6.86,40.51.07.68-1.51,1.27,0,2.91-2.9-1.89-1.59-2.9-3.28-4.37-.3-.26.49,1.75-1.82.73,1.47-9.02-5.28-47.43-22.15-37.96-2.38,1.33-4.76,2.1-6.92,3.64-.19.14-4.62,4.24-1.09,2.91-1.52,1.09-2.4,3.02-5.83,2.91.54-1.37,1.33-2.79,2.18-4-.38-2.43-17.09,4.32-19.66,4.73-1.54-2.91-1.55-6.26-4.37-8.74,7.94,4.96,8.94,1.54,17.48-.36l-3.64-3.28c4.64-1.27,9.45-4.17,13.84-6.19-4.73-5.8-5.6-12.04-7.28-18.93-.44-1.81-2.15-2.73-2.18-2.91-2-11.33,4.7-24.18-11.65-23.67,4.87-.72,9.58.68,14.2-.73,3.42-1.04,9.76-7.41,13.84-8.74-5.59,7.75-14.64,5.78-14.93,16.75Z"/>
  <path class="st9" d="M47.2,92.59l3.64,3.28c-8.54,1.91-9.54,5.32-17.48.36-1.02-.64-1.18-1.23-1.46-1.46,4.77-.7,10.72-.93,15.29-2.18Z"/>
  <g>
    <path class="st13" d="M26.08,35.06c-1.64,3.01-5.34,5.42-4,9.47,5.93-1.67,11.78-2.75,17.84-3.64,16.35-.52,9.65,12.33,11.65,23.67.03.18,1.74,1.1,2.18,2.91,1.69,6.89,2.55,13.14,7.28,18.93-4.38,2.02-9.2,4.92-13.84,6.19-4.58,1.25-10.52,1.48-15.29,2.18-5.21-4.23-7.86-9.41-10.92-15.29-.24-.01-.49.02-.73,0-1.85-4.09-2.93-8.7-3.64-13.11-.37-2.29-.59-5.62-.73-8.01-.57-9.48-2.06-14.05,5.83-21.12.3-.27,3.78-1.82,4.37-2.18Z"/>
    <path class="st4" d="M24.26,56.91c.9-.23,18.57-.56,18.57.36l-20.75,1.82c.99-.4,2.03-2.15,2.18-2.18Z"/>
  </g>
  <path class="st12" d="M123.66,221.47h-.73c-7.44-7.87-11.59-12.1-13.84-22.57,3.99,6.87,9.03,16.98,14.56,22.57Z"/>
  <path class="st5" d="M122.2,134.09c-2.61.24-5.38-.12-8.01,0,1.83-1.09,6.16-1.29,8.01,0Z"/>
  <path class="st15" d="M144.78,90.4c.81,4.37-7.09,44.57-9.56,46.57-1.29,1.05-5.41-6.65-8.24-2.79-2.96.88-8.81-.3-11.61,1.78-.7-.21-5.47-23.16-5.54-24.44,5.48-2.21,4.76-12.52.36-14.56-6.2-2.89-15.17,1.72-20.66,4.37-.26-2.53-1.06-5.59-.1-8.37.89-2.59,20.93-9.95,24.39-10.56,11.09-1.94,23.96-1.83,30.95,8.01Z"/>
  <path class="st8" d="M109.82,111.52c-7.39,2.98-13.73-3.9-18.93-7.28-1.51-1.64-1.29-2.24-1.36-2.91,5.48-2.65,14.45-7.26,20.66-4.37,4.39,2.05,5.12,12.35-.36,14.56Z"/>
  <path class="st8" d="M85.79,100.6c-2.42-1.07-14.99-5.31-16.75-5.1v-.73c5.91-1.49,18.22-3.19,16.75,5.83Z"/>
  <path class="st17" d="M95.26,131.91c.05,0-.25.64.73.73-2.26.5-8.83,2.76-10.56,2.18-1.52-.51.42-1.4.36-1.46,2.87-1.48,6.31-1.86,9.47-1.46Z"/>
  <path class="st5" d="M115.29,8.85c1.4,3.67,10.46,23.08,13.84,21.85.75-.27.14-1.81.36-2.18.04-.07,1.03.04,1.46,0,5.47,5.03,15.44,5.6,21.12,8.74,1.14.63,2.19.94,2.91,2.18-2.28,11.2,4.44,22.85,10.92,31.68-.07.49-6.32,4.58-7.28,5.46-8.55-13.96-31.36-3.83-44.05,0-7.65,2.31-19.65,9.09-26.94,9.47-1.4.07-2.76.29-3.28-1.46,9.25-2.05,40.53-16.44,47.79-22.57,12.98-10.96,8.09-6.5-1.92-13.4-29.09-20.05-17.95-30.67-18.17-40.77l3.25,1.01Z"/>
  <path class="st16" d="M84.34,84.58c-3.79.84-15.42,1.47-18.93.73,24.15-8.15,48.12-21.21,64.81-40.78,10.24,7.09,16.25,6.52,3.28,17.48-7.26,6.13-39.9,20.53-49.15,22.57Z"/>
  <path class="st1" d="M120.75,21.23c.53.57.87.92,1.46,1.46,2.37,2.14,4.67,4.01,7.28,5.83-.22.37.39,1.91-.36,2.18-3.38,1.23-13.53-3.61-14.93-7.28-1.8-4.72-.31-10,1.09-14.56,1.72,2.28.62,7.43,1.82,9.83,1.67,3.33,3.43,2.33,3.64,2.55Z"/>
  <path class="st15" d="M109.1,8.85c-4.59,1.69-24.4,13.02-25.85,13.11-1.35.08-1.82-1.76-1.09-2.91,9.06-5.63,15.3-13.23,26.94-10.19Z"/>
  <g>
    <path class="st0" d="M110.55,25.59c2.02,10.02,12.06,13.67,19.66,18.93-16.69,19.56-40.66,32.63-64.81,40.78-3.92-.83-6.52-9.45-4.73-9.47.31,0,2.2,3.13,2.55.36-4.74-2.34-6.82-7.32-7.28-12.38l5.1,2.18c-6-4.71-7.33-7.24-8.01-14.93l6.55,5.46-6.55-8.37c.28-10.97,9.33-9,14.93-16.75-4.07,1.33-10.42,7.69-13.84,8.74-4.62,1.41-9.33.01-14.2.73-6.06.89-11.91,1.98-17.84,3.64-1.33-4.05,2.37-6.46,4-9.47.71-.44,2.29-1.9,2.91-2.18.98-.45,2.64-1.12,3.64-1.46.78-.26,4.01-1.76,4.37-1.09l-1.82,4.73c3.42-5.54,3.27-1.62,4.73-2.18,2.57-.99,5.14-3.61,5.46-3.64,2.42-.26-.41,2.41.73,2.91,3.12,1.39,10.09-4.11,10.92-3.64-5.39,11.69,8.29-2.47,11.65-5.83l-1.46,5.83c1.37.5,11.42-9.14,13.11-10.19.08-.05.91,1.29,1.82.73-.72,1.15-.26,3,1.09,2.91,1.45-.09,21.26-11.42,25.85-13.11.55-.2,3.5-1.33,3.64-1.09-1.38,6.62-3.57,10.94-2.18,17.84Z"/>
    <path class="st14" d="M53.03,51.08c-.08-.94-.02-1.97,0-2.91l6.55,8.37-6.55-5.46Z"/>
    <path class="st11" d="M75.24,47.44c.62-.03,1.67-.19,1.82.36l-16.75,5.83c-.27-.8,14.08-6.15,14.93-6.19Z"/>
  </g>
  <path class="st16" d="M164.44,242.59c-.07-.01-.21-1.55-1.46-.36-.06,2.38-.62,4.53-.73,6.92l-4.37-4.73.73,9.1c-2.71-2.59-2.92-7.32-5.83-9.83l4.73,15.66c-5.46-6.57-10.73-15.82-17.48-21.12-9.3-7.3-11.65-5.89-20.75-16.75,1.81-3.16,1.55.94,3.64,0h.73c1.2,1.21,3.15,2.97,4.73,3.64,2.52-.79,9.2-27.12,2.55-29.86,3.88.11,6.38,1.49,7.28-2.18.05.16,1.81,1.28,2.18,2.55,3.86,13.23,7.6,26.39,12.38,39.32l3.28-9.83,5.83,10.92"/>
</svg>