<?xml version="1.0" encoding="UTF-8"?>
<svg xmlns="http://www.w3.org/2000/svg" version="1.1" viewBox="0 0 732.32 823.93">
  <!-- Generator: Adobe Illustrator 29.4.0, SVG Export Plug-In . SVG Version: 2.1.0 Build 152)  -->
  <defs>
    <style>
      .st0 {
        fill: #9b757d;
      }

      .st1 {
        fill: #2d251f;
      }

      .st2 {
        fill: #87515e;
      }

      .st3 {
        fill: #42372f;
      }

      .st4 {
        fill: #564941;
      }

      .st5 {
        fill: #59473a;
      }

      .st6 {
        fill: #60534c;
      }

      .st7 {
        fill: #382d26;
      }

      .st8 {
        fill: #473c35;
      }

      .st9 {
        fill: #ede6c5;
      }

      .st10 {
        fill: #ede6c5;
      }

      .st11 {
        fill: #302823;
      }

      .st12 {
        fill: #847062;
      }

      .st13 {
        fill: #28201c;
      }

      .st14 {
        fill: #66444a;
      }

      .st15 {
        fill: #f7f5ed;
      }

      .st16 {
        fill: #493a30;
      }

      .st17 {
        fill: #7a685c;
      }

      .st18 {
        fill: #29abe2;
      }

      .st19 {
        fill: #a06472;
      }

      .st20 {
        fill: #604e42;
      }

      .st21 {
        fill: #ddd5b6;
      }

      .st22 {
        fill: #280b0e;
      }

      .st23 {
        fill: #706057;
      }

      .st24 {
        fill: #9b5d69;
      }

      .st25 {
        fill: #6d5d54;
      }

      .st26 {
        fill: #280b0e;
      }

      .st27 {
        fill: #c9c1a7;
      }

      .st28 {
        fill: #726f6e;
      }
    </style>
  </defs>
  <g id="Extras">
    <path class="st3" d="M62.75,395.37c-9.08,4.47-21.14,3.69-27.67,11.42-5.36,6.35-4.55,15.71-3.2,23.91.21,1.25.51,2.63,1.56,3.33.9.59,2.06.48,3.13.36,11.68-1.38,23.35-2.77,35.03-4.15-5.55,3.01-12.52,2.81-17.75,6.34-5.42,3.65-7.72,10.46-8.81,16.9-1.31,7.74-1.39,15.68-.23,23.44.13.9.34,1.89,1.09,2.4.94.65,2.22.21,3.27-.24,9.27-4.01,18.53-8.02,27.8-12.03-2.67,3.95-5.4,8.04-6.27,12.72-.87,4.68.61,10.15,4.73,12.53,3.43,1.98,7.69,1.42,11.6.8,22.79-3.62,45.77-7.29,67.36-15.43-5.61,1.97-11.44,4.07-15.6,8.31-8.4,8.56-7.25,22.33-5.52,34.19,15.85-5.25,31.03-12.49,45.08-21.5,1.84-1.18,4.72-2.17,5.8-.28.47.83.3,1.86.15,2.8-.38,2.36-.52,4.75-.43,7.13.08,2.17.81,4.85,2.95,5.25,1.28.24,2.53-.49,3.63-1.2,5.19-3.32,10.38-6.63,15.57-9.95,10.28-6.57,22.28-13.42,33.98-9.98,0,0,37.22-21.42,9.39-41.23,0,0-44.99,14.51-60.76-8.22-15.77-22.73-47.31-82.09-118.26-78.84,0,0-31.54.46-42.2,22.73,0,0,16.7-2.32,36.17,0"/>
  </g>
  <g id="ARM_R">
    <g>
      <path class="st7" d="M504.88,487.27c-.43-.22-.86-.41-1.29-.6,0-.01,0-.03,0-.04-.04-.27-.08-.43-.11-.51.02-.52.13-1.21.13-1.39,0,.06,0,.11,0,.16-.09.53-.03.62,0,0,.01-.07.03-.15.04-.24.07-.36.15-.71.24-1.07.2-.81.44-1.61.71-2.41.24-.71.52-1.39.78-2.09-.5,1.34.33-.73.52-1.12.62-1.32,1.26-2.64,1.96-3.91.48-.88,1.03-1.71,1.61-2.52.1-.14.15-.22.17-.26.07-.08.14-.17.23-.28.28-.35.57-.69.87-1.03,1.12-1.29,2.26-2.55,3.35-3.87,1.13-1.37,2.25-2.74,3.5-4.01.27-.28.55-.55.84-.81.04-.03.21-.18.36-.32.23-.15.76-.53.77-.54.31-.19.64-.36.97-.52.3-.15.57-.34.83-.53,4.31,2.34,9.65,4.94,15.53,7.12,14.89,5.52,31.67,16.96,31.67,16.96l25.76,9.71s11.79,9.05,16.52,14.07c4.73,5.02,16.1,16.18,10.68,19.66,0,0,1.35,9.73-3.04,14.26,0,0-8.74-.95-16.43.85,0,0,6.33,14.4-7.02,12,0,0-10.46,2.47-19.79,2.39,0,0-10.28-2.5-10.36-17.79,0,0-12.38-8.3-20.02-12.9,0,0-33.91-8.38-34.53-23.04,0,0-1.37-2.07-4.6-4.6.58-.47,1.11-1.05,1.56-1.74,1.85-2.87.73-7.49-2.37-9.04Z"/>
      <path class="st7" d="M507.9,498.8c-12.52,1.86-63.12-12.03-63.12-12.03l-22.73-9.98s-22.26-59.36-8.81-77.22c13.45-17.86,15.3-85.57,79.77-101.8,0,0,20.41-3.71,32.93,0,0,0,21.33,8.35,19.94,43.6-1.39,35.25-39.42,35.25-39.42,35.25,0,0,2.94,35.42-26.9,65.49,0,0,16.84,15.34,41.77,17.25"/>
      <path class="st21" d="M609.53,536.85c2.44,3.4,4.4,7.14,5.79,11.09.4,1.14.76,2.36.57,3.56-.2,1.24-.97,2.29-1.71,3.3-2.65,3.58-5.29,7.17-7.94,10.75-.97,1.31-1.98,2.66-3.39,3.47s-3.35.94-4.58-.13c3-2.77,2.94-7.45,2.62-11.52-.21-2.59-.5-5.37-2.18-7.35-2.08-2.46-6.1-3.55-6.6-6.73-.34-2.23,1.38-4.26,3.27-5.5,4.93-3.24,7.88-5.04,12.79-1.78l1.36.85Z"/>
      <path class="st13" d="M592.62,540.65c-.08-4.22-8.01-16.73-11.74-18.7-3.73-1.97-7.93-2.91-11.69-4.82-3.36-1.71-6.28-4.14-9.14-6.59-3.96-3.38-7.86-6.82-11.71-10.32,3.96,2.08,7.92,4.17,11.87,6.25,5.88,3.1,11.88,6.24,18.41,7.49,1.19.23,2.42.4,3.51.95,1.17.6,2.09,1.59,2.92,2.6,3.23,3.9,10.67,16.25,9.04,21.04l-1.46,2.09Z"/>
      <path class="st13" d="M616.89,535.22c-18.55-12.84,3.4-13.29-23.13-32.64-1.75-1.28-3.56-2.54-4.93-4.22-.61-.75-1.13-1.59-1.91-2.17-1.27-.94-2.96-.99-4.53-1.1-15.54-1.05-28.98-10.75-43.65-16.01,5.03,4.64,10.99,8.13,16.9,11.57,4.25,2.48,8.56,4.99,13.3,6.33,3.96,1.12,8.25,1.45,11.72,3.66,1.73,1.1,5.8,2.96,7.25,4.41,5.68,5.68,9.09,7.03,12.69,12.22.95,1.38,9.62,21.26,10.82,22.43,1.96,1.91,5.02,2.68,8.45-.33l-2.98-4.16Z"/>
      <path class="st21" d="M620.29,521.93c4,2.14,7.93,4.41,11.77,6.8,1.15.71,2.33,1.48,3.02,2.64.79,1.32.82,2.96.64,4.5-.41,3.41-1.79,6.69-3.95,9.36-.83-2.1-1.86-4.41-3.97-5.22-1.03-.4-2.16-.37-3.25-.45-3.79-.29-7.31-2.01-10.71-3.69-1.11-.55-2.29-1.15-2.93-2.22-.8-1.33-.55-3.08.23-4.42s1.99-2.36,3.19-3.34c1.13-.93,2.25-1.86,3.38-2.8,1.02-.84,2.45-1.71,3.54-.98"/>
      <path class="st27" d="M595.38,537.78c1.36-.89,2.56-1.68,3.7-2.27-1.68,3.98-.75,8.98,2.84,12.27.73.67,1.61,1.21,2.43,1.76.27.18.54.35.81.52.01.01.03.02.04.03.14.13.22.19.24.19.05.07.09.15.13.22.12.33.23.67.32,1.02.31,1.12.52,2.27.74,3.4-.24-1.2.06.56.07.82.03.39.04.79.03,1.18-.07.51-.15,1.01-.26,1.51-.06.25-.43,1.45-.36,1.33-.35.89-.77,1.76-1.2,2.62-1.17,2.32-2.53,4.54-3.72,6.84-.07.13-.12.26-.18.4-.99.12-2-.09-2.75-.74,3-2.77,2.94-7.45,2.62-11.52-.21-2.59-.5-5.37-2.18-7.35-2.08-2.46-6.1-3.55-6.6-6.73-.34-2.23,1.38-4.26,3.27-5.5Z"/>
      <path class="st27" d="M614.33,525.88c.4-.33.79-.65,1.19-.98-.17,2.32.6,4.72,2.72,6.93,1.7,1.78,3.97,2.66,6.26,3.39.84.27,1.69.49,2.54.72.27.08.55.15.82.23.05.04.44.2.72.34.34.16.67.4,1.01.54.04.02.07.02.09.03.02.02.03.03.05.05.28.23.56.46.82.71,0,0,.27.27.48.49.18.22.49.61.55.7.22.31.42.63.62.96.51.82.95,1.68,1.37,2.55-.52.95-1.13,1.86-1.81,2.71-.83-2.1-1.86-4.41-3.97-5.22-1.03-.4-2.16-.37-3.25-.45-3.79-.29-7.31-2.01-10.71-3.69-1.11-.55-2.29-1.15-2.93-2.22-.8-1.33-.55-3.08.23-4.42s1.99-2.36,3.19-3.34Z"/>
      <path class="st21" d="M592.93,545.64c1.2,5.37.34,11.18-2.35,15.98s-7.2,8.55-12.41,10.33c1.15-2.99,2.01-6.14,1.98-9.34s-1.03-6.48-3.2-8.83c-.98-1.06-2.18-1.92-2.99-3.11-.74-1.07-1.13-2.37-1.26-3.66-.51-5.13,3.43-10.31,8.51-11.17,5.08-.87,10.52,2.71,11.74,7.71v2.1Z"/>
      <path class="st27" d="M581.2,535.83s.04,0,.06,0c-3.43,6.2-1.21,13.64,1.93,19.86.46.92,1,1.8,1.53,2.69.22.36.43.72.64,1.08.03.1.05.19.08.27-1.1,2.43-2.51,4.7-3.47,7.2-.51,1.33-.86,2.59-1.01,3.85-.9.45-1.83.85-2.78,1.17,1.15-2.99,2.01-6.14,1.98-9.34-.03-3.2-1.03-6.48-3.2-8.83-.98-1.06-2.18-1.92-2.99-3.11-.74-1.07-1.13-2.37-1.26-3.66-.51-5.13,3.43-10.31,8.51-11.17Z"/>
      <path class="st11" d="M413.24,399.57c13.45-17.86,15.3-85.57,79.77-101.8,0,0,20.41-3.71,32.93,0,0,0,21.33,8.35,19.94,43.6-1.06,26.73-23.18,33.19-33.81,34.75-5.21-.9-10.31.35-15.35,2.89-5.01,2.53-10.04,6.15-14.15,9.95-6.22,5.76-9.63,13.06-11.6,20.9-2.74,5.32-4.51,11.09-4.96,17.06-.39,5.23.07,11.05,1.94,16.1-1.4.05-2.78.14-4.15.29-3.04.34-6.08.78-8.75,2.39-3.57,2.15-5.35,6.49-3.95,10.49,1.19,3.4,3.73,6.14,6.28,8.6,2.16,2.08,4.3,4.26,6.58,6.19,7.22,6.1,15.43,11.23,24.37,14.34,7.22,2.51,14.79,3.83,22.1,6.04l-2.54,7.46c-12.52,1.86-63.12-12.03-63.12-12.03l-22.73-9.98s-22.26-59.36-8.81-77.22Z"/>
    </g>
  </g>
  <g id="LEG_R">
    <g>
      <path class="st6" d="M487.58,727.39c3.76-.6,7.84.05,10.86,2.38,2.07,1.6,3.51,3.88,4.64,6.24,1.48,3.12,2.47,6.45,3.34,9.79.9,3.4,1.7,6.91,1.28,10.4-.59,4.9-3.49,9.16-6.31,13.21-1.43,2.06-2.95,4.19-5.16,5.38-2.12,1.14-4.63,1.26-7.04,1.35-5.73.22-11.49.45-17.2-.15-1.19-.12-2.41-.3-3.43-.91-1.26-.76-2.05-2.1-2.67-3.43-1.55-3.29-2.41-6.89-2.68-10.52-.5-6.88,1.14-13.74,3.28-20.29.79-2.43,1.68-4.88,3.2-6.93s3.79-3.69,6.34-3.89l11.55-2.62Z"/>
      <path class="st7" d="M438.23,505.63s31.69,64.97,26.31,107.22c0,0,13.48,31.49-12.85,39.17,0,0-48.6,5.38-57.82-11.52s13.83,61.45,49.16,81.42l29.96,14.59v39.94s-34.57,9.22-34.57,9.22c0,0-27.12,3.84-46.59-12.29,0,0-33.3-26.12-33.3-55.31,0,0,.77-82.19-10.75-102.93,0,0-11.52-15.48,0-24.25,0,0,4.61-3.51,14.59,0s19.97,5.82,19.97,5.82c0,0-37.05-43.05-39.69-63.7-2.63-20.65-22.53-40.82,4.35-49.63,26.88-8.81,73.74-10.34,76.04-6.5s15.17,28.74,15.17,28.74Z"/>
      <path class="st10" d="M498.08,767.12c1.49.73,8.88-1.31,11.83-2.52,3.32-1.36,7.35-2.33,10.3-.3.79.55,1.76,1.32,2.58.83.63-.37.7-1.26.66-1.99-.22-3.92-1.26-7.79-3.04-11.29-1.43-2.82-3.44-5.49-6.27-6.9-2.83-1.41-9.08-5.59-11.32-3.36,0,0-7.26,3.32-9.08,8.39-1.82,5.06-3.67,13.19,4.34,17.14Z"/>
      <path class="st11" d="M347.01,483.39c26.88-8.81,73.74-10.34,76.04-6.5,2.3,3.84,15.17,28.74,15.17,28.74,0,0,2.71,5.55,6.4,14.46-6.68-4.79-13.72-9.1-21.65-11.23-3.37-.91-6.8-.56-9.95.77-1.6.67-2.88,1.53-4.02,2.55-2.92.94-5.56,2.74-7.5,5.25-1.64,2.13-2.62,4.5-3,6.95-1.95-2-4.72-3.39-7.19-4.2-3.93-1.27-8.23-.33-11.78,1.54-3.31,1.75-6.05,5.59-7.03,9.14-.64,2.03-.73,4.06-.27,6.1.09,2.03.69,3.91,1.8,5.66,2.64,6.34,5.23,12.72,8.86,18.58,6.75,10.9,15.51,19.84,24.84,28.25-1.3,2.24-2.66,4.44-3.96,6.68-.07.05-.14.1-.21.15-4.19,3.03-8.02,6.62-10.45,11.28-2.42,4.62-4.02,9.92-3.85,15.19.16,4.96,1.84,9.58,4.63,13.65,0,0,0,.01.01.02.37.55-.17,1.25-.79,1.03-2.35-.84-4.97-.98-7.37-.66-3.41.46-6.25,1.89-8.78,4.2-3.17,2.91-3.96,6.78-4.48,10.81-1.4,10.88.95,21.71,3.93,32.14,2.54,8.88,5.56,17.6,8.46,26.37,2.75,8.31,4.83,16.87,7.82,25.09,1.79,4.92,3.82,9.89,6.56,14.37,2.1,3.43,4.53,6.33,7.36,8.89,1.15,2.54,2.39,5.04,3.73,7.48,4.59,8.34,10.37,17.55,20.48,19.56.73.14,1.42.26,2.1.35-8.93.22-27.01-1-41.09-12.67,0,0-33.3-26.12-33.3-55.31,0,0,.77-82.19-10.75-102.93,0,0-11.52-15.48,0-24.25,0,0,4.61-3.51,14.59,0,9.99,3.51,19.97,5.82,19.97,5.82,0,0-37.05-43.05-39.69-63.7-2.63-20.65-22.53-40.82,4.35-49.63Z"/>
      <path class="st27" d="M492.78,758.6c.88-.33,1.78-.63,2.68-.9,1.72-.52,3.44-.86,5.2-1.2.47-.03.94-.09,1.41-.12.84-.06,1.68-.08,2.52-.07.83,0,1.66.05,2.49.12.25.02.5.05.75.08.06.01.13.03.22.04,1.63.32,3.23.7,4.81,1.23.44.15.87.34,1.31.48.03.01.05.02.08.02.75.35,1.5.69,2.23,1.08,1.58.83,3.11,1.78,4.57,2.8.34.24.67.48,1,.72.08.06.15.11.21.15.04.03.1.08.2.16.33.27.65.54.97.81-.07.46-.24.89-.63,1.12-.83.49-1.79-.29-2.58-.83-2.95-2.04-6.98-1.07-10.3.3-2.95,1.21-10.34,3.25-11.83,2.52-4.07-2-5.59-5.09-5.87-8.31.19-.07.37-.15.56-.22Z"/>
      <g>
        <path class="st23" d="M483.9,761.58c.68-8.39,1.29-17.23-2.34-24.82-3.64-7.61-11.56-12.99-19.97-13.57-2.78-.19-5.65.13-8.13,1.38-4.9,2.46-7.38,7.92-9.5,12.97,0,0-22.76,31.12-6.54,41.93,16.22,10.81,36.31,2.65,36.31,2.65,0,0,14.71-13.72,10.18-20.54Z"/>
        <path class="st10" d="M475.5,747.53c6.83.07,11.66,8.33,11.66,8.33,0,0,2.24,4.79,2.8,7.39.89,4.09,1.77,8.34.87,12.43-.9,4.09-4.13,7.98-8.31,8.24.54-5.56-3.08-11.27-8.34-13.15-5.26-1.89-6.62-1.08-9.75,3.55,0,0-24.71-26.8,11.07-26.8Z"/>
        <path class="st27" d="M459.78,768.06c.07-.01.36-.06.65-.12.1,0,1.23-.15,1.38-.17.58-.05,1.16-.09,1.74-.13,2.37-.13,4.74-.1,7.1.07.58.04,1.16.09,1.73.16.15.02.3.04.45.05,1.01.23,2.05.35,3.06.58.92.22,1.81.5,2.7.79.02.02.04.03.07.05.33.23.5.33.57.36.27.27.54.54.81.8.06.08.12.14.16.19.06.09.12.17.18.25.61.91,1.08,1.89,1.57,2.87.01.03.03.06.04.08.01.04.03.07.04.12.22.61.45,1.22.66,1.83.36,1.07.68,2.16.99,3.24.13.47.26.94.39,1.41-.08.28-.16.56-.26.84-.06.18-.13.37-.2.55-.25.45-.51.89-.75,1.34-.05.09-.09.17-.12.23-.03.03-.05.05-.09.08-.04.04-.09.08-.13.13.41-5.49-3.17-11.05-8.36-12.91-5.26-1.89-6.62-1.08-9.75,3.55,0,0-2.43-2.64-4.67-6.26,0,0,0,0,.01,0Z"/>
      </g>
      <g>
        <path class="st17" d="M439.58,789.94c-.74.53-.79,1.66-1.39,2.34-.85.96-2.27,1.15-3.55,1.23-10.29.67-21.05-1.26-29.48-7.19-8.44-5.93-14.11-16.29-12.79-26.51-.19-7.3,6.72-16.09,6.72-16.09,5.56-10.57,19.98-14.91,30.95-10.2,10.97,4.71,17.7,17.13,16.87,29.04,0,0-2.4,23.82-7.34,27.39Z"/>
        <path class="st10" d="M437.32,764.81s-20.81,15.82-7.34,27.39c1.26,1.08,2.97-1.36,4.62-1.2,9.26.85,18.1,5.64,23.87,12.93.49-10.08-.68-20.23-3.45-29.94-1.19-4.18-2.88-8.54-6.42-11.05s-9.43-2.07-11.28,1.87"/>
        <path class="st27" d="M428.18,780.93c.89-.01,1.78.02,2.66.08.36.03.71.07,1.07.1.03,0,.06,0,.08,0,0,0,0,0,.01,0,1.86.33,3.7.7,5.53,1.21,1.63.46,3.92.9,5.53,1.76.13.1.42.3.65.41.54.25,1.07.5,1.6.76.92.46,1.83.95,2.71,1.47.88.51,1.73,1.06,2.57,1.64.24.16.47.33.7.5.14.1.23.17.29.22.17.15.32.28.37.33.84.72,1.63,1.47,2.38,2.28.27.3.53.61.79.91.05.07.1.15.16.24.51.75.93,1.54,1.37,2.34,0,.02.02.03.03.05.01.04.03.08.05.13.13.36.24.72.34,1.09.06.21.09.46.13.71-.12-.27-.22-.2.13.63.03.5.03,1.01,0,1.52,0,.17-.01.3-.02.4-.16.99-.15,1.96.02,2.86-5.76-6.53-14.06-10.79-22.74-11.58-1.65-.15-3.36,2.28-4.62,1.2-4.29-3.69-5.1-7.8-4.21-11.71.74.29,1.55.45,2.42.44Z"/>
      </g>
    </g>
  </g>
  <g id="Body">
    <g>
      <path class="st3" d="M515.78,325.46s17.67-50.7-66.83-84.49c-84.49-33.8-129.81,16.13-129.81,16.13,0,0-94.48,91.41-89.1,195.87,0,0-25.35,73.61,36.87,80.97,0,0,61.45,28.87,99.86,27.33,38.41-1.54,71.44-36.1,71.44-56.07,0,0-12.29-65.29-2.3-69.13,0,0,11.52-53,27.65-62.99,0,0,46.09-9.22,52.23-47.62Z"/>
      <path class="st3" d="M376.77,227.7c-8.12,5.19-37.07,3.21-46.53,5.02-25.13,4.81-23.63,19.56-48.7,14.46,16.31,5.81,3.65-2.35,15.19,10.55-7.47-3.02-29.28,1.55-36.02,5.97,10.78-1.22,15.62,7.97,26.42,8.92-22.1,17.93-44.11,20.66-59.24,44.77,10.99-5.97,23.91-8.31,36.3-6.58-21.63,10.86-47.41,17.27-61.39,37.03,13.98-5.46,28.64-9.14,43.54-10.94-1.5,5.61-7.13,8.86-11.65,12.5-8.25,6.64-14.07,16.91-13.38,27.48,6.22-3.56,12.44-7.12,18.66-10.68-8.88,9.86-15.17,22.02-18.11,34.96,5.49-3.59,10.97-7.17,16.46-10.76-5.86,10.97-11.17,22.22-15.9,33.72,1.26-1.01,2.52-2.03,3.78-3.04-3.72,8.49-7.45,16.98-11.19,25.46,3.76-5.68,8.69-10.59,14.39-14.33-.57,2.55-5.15,11.77-5.72,14.33,3.98-3.02,10.73-22.21,15.44-23.86,4.72-1.65,16.46-36.02,20.6-33.21,7.86-18.83,9.31,5.5,14.86-14.13,4.03-14.27,7.84-29,16.39-41.11,17.77-25.17,15.78-25.79,40.05-44.76,6.77-5.29,48.53-19.35,50.26-27.77.3-1.46.43-3.08-.34-4.37-1.17-1.96-3.82-2.28-6.08-2.56-8.15-.99-16.03-4.12-22.65-8.98"/>
      <path class="st1" d="M535.27,268.63c6.44,9.74,26,16.37,35.57,23.06-12.28-3.4-24.55-6.81-36.83-10.21,17.85,6.09,31.44,23.12,33.41,41.88-2.73-7.33-7.33-13.95-13.23-19.08,6.98,20.03,5.04,42.98-5.2,61.55-1.36-9.12-3.07-18.19-5.12-27.17-4.14,18.43-15.26,35.2-30.62,46.19,2.01-10.35,2.14-21.05.39-31.45-5.1,19.64-17.2,37.39-33.62,49.31,4.11-11.29,3.95-24.08-.46-35.26.86,17.69-2.87,35.59-10.71,51.47-3.06-8.12-4.94-16.69-5.56-25.34-5.83,10.75-10.04,22.38-12.44,34.37-2.33-5.36-4.66-10.71-6.99-16.07-11.65,8.26-22.14,18.14-31.08,29.28-.91-11.61,4.55-22.77,10.95-32.51,6.4-9.73,13.97-18.89,18.18-29.75-7.61,1.9-14.21,7.49-17.35,14.67-.76-8.77,2.78-17.48,8.01-24.56,5.23-7.08,12.07-12.78,18.84-18.41-10.86,1.38-21.19,6.64-28.68,14.62-.01-4.97,3.17-9.32,6.28-13.2,6.79-8.46,13.95-16.63,21.45-24.47-13.45,5.21-25.97,12.83-36.77,22.4.06-9.15,7.67-16.29,14.98-21.8,11.18-8.43,23.06-15.92,35.47-22.41-11.06.76-21.85,5.05-30.43,12.08,10.31-15.13,24.39-27.67,40.62-36.15-3.84,2.88-5.61,8.25-4.23,12.85,3.25-2.25,6.17-4.97,8.65-8.05.78,6.72,4.21,13.09,9.38,17.45-2.05-8.17-4.09-16.34-6.14-24.5,11.44,7.79,2.71,7.58,15.83,11.98-8.36-17.57-63.16-7.5-22.78-40.16,5.02,8.1,33.82,10.83,34.64,9.66"/>
      <path class="st1" d="M371.94,246.85c-8.12,5.19-24.9,1.68-34.36,3.49-25.13,4.81-23.63,19.56-48.7,14.46,16.31,5.81,3.65-2.35,15.19,10.55-7.47-3.02-29.28,1.55-36.02,5.97,10.78-1.22,15.62,7.97,26.42,8.92-22.1,17.93-44.11,20.66-59.24,44.77,10.99-5.97,23.91-8.31,36.3-6.58-21.63,10.86-47.41,17.27-61.39,37.03,13.98-5.46,28.64-9.14,43.54-10.94-1.5,5.61-7.13,8.86-11.65,12.5-8.25,6.64-14.07,16.91-13.38,27.48,6.22-3.56,12.44-7.12,18.66-10.68-8.88,9.86-15.17,22.02-18.11,34.96,5.49-3.59,10.97-7.17,16.46-10.76-5.86,10.97-11.17,22.22-15.9,33.72,1.26-1.01,2.52-2.03,3.78-3.04-3.72,8.49-7.45,16.98-11.19,25.46,3.76-5.68,8.69-10.59,14.39-14.33-.57,2.55-5.15,11.77-5.72,14.33,3.98-3.02,10.73-22.21,15.44-23.86s16.46-36.02,20.6-33.21c7.86-18.83,9.31,5.5,14.86-14.13,4.03-14.27,7.84-29,16.39-41.11,17.77-25.17,15.78-25.79,40.05-44.76,6.77-5.29,48.53-19.35,50.26-27.77.3-1.46.43-3.08-.34-4.37-1.17-1.96-3.82-2.28-6.08-2.56-8.15-.99-16.03-4.12-22.65-8.98"/>
      <path class="st28" d="M498.31,321.92c.94,4.97,1.91,10.04,4.4,14.44s6.81,8.09,11.85,8.46c-4.49-.91-8.98-1.83-13.47-2.74,3.6,7.24,3.13,16.34-1.2,23.17-.03-5.35-1.31-10.69-3.69-15.49-.14,2.84-.72,5.66-1.72,8.32-2.99-2.53-5.7-5.4-8.05-8.53-1.25,9.8-6.22,19.09-13.69,25.56,1.98-4.99,3.61-10.11,4.89-15.32-4.81,4.08-8.62,9.19-13.01,13.71s-9.67,8.58-15.88,9.69c5.58-11.53,9.92-13.12,12.2-25.73.43-2.36,1.48,3.53-2.42-6.95-3.25,4.88-5.44-.68-10.45,2.35,8.79-10.55,20.32-18.8,33.13-23.73-3.28,4.88-2.32,5.09-2.73,10.96,7.57-6.95,11.75-8.87,18.35-16.75"/>
      <path class="st11" d="M230.03,452.97c-5.38-104.47,89.1-195.87,89.1-195.87,0,0,17.32-19.07,50.49-25.66-3.33,4.53-6.39,9.28-9.61,13.89-3.64,5.2-7.24,10.44-10.31,16-3.51,6.36-6.79,13.32-8.17,20.5-1.02,3.81-1.02,7.63,0,11.44.72,1.71,1.45,3.43,2.17,5.14,2.63,4.98,7.65,8.2,12.86,9.89.53.17,1.08.31,1.64.42-2.28,6.39-4.04,12.97-5.1,19.69-.62,3.94-1.17,7.88-1.51,11.85-3.46,9.76-6.58,19.65-10.43,29.26-3.23,7.13-7.21,13.8-11.41,20.42-3.9,6.14-7.74,12.31-10.63,19-2.1,4.86-4.16,9.7-5.36,14.86-.49,2.13-.89,4.3-1.23,6.47-.17.42-.35.85-.52,1.27-2.17,5.37-4.03,10.92-5.07,16.63-.8,4.38-1.48,8.85-1.58,13.31-.1,4.52-19.01,58.95,22.86,73.88,8.11,2.89,8.91,15.01,14.81,21.26,1.04,1.1,2.12,2.17,3.23,3.21-36.5-5.74-79.37-25.88-79.37-25.88-62.22-7.36-36.87-80.97-36.87-80.97Z"/>
      <path class="st11" d="M381.5,556.38c-11.62,1.92-54.23,13.69-61.59,22.88.09-6.24.17-12.49.26-18.73-6.6,7.87-12.07,16.69-16.19,26.1-2.53-8.38-3.92-17.11-4.11-25.86-4.44,6.03-7.9,12.78-10.19,19.91-3.75-8.25-8.1-16.23-13.01-23.84-2.52,8.1-4.14,16.49-4.81,24.95-9.71-20.27-17.1-41.55-24.47-62.78,18.66,9.05,42.45,9.93,61.11,18.98,13.84,6.71,27.23,16.27,42.6,15.67l30.42,2.73Z"/>
      <path class="st11" d="M443.99,524.93c-5.34,11.25-8.15,23.69-8.15,36.14-2.98-5.32-5.95-10.65-8.93-15.97-1.38,16.56-.61,33.3,2.27,49.66-4.66-9.59-9.32-19.17-13.98-28.76-.13,13.96,2.29,27.95,7.12,41.05-5.09-8.08-10.82-15.76-17.13-22.93,1.97,5.24,3.93,10.48,5.9,15.72-12.04-14.06-34.07-28.67-49.72-38.54,29.16-10.01,61.75-29.94,74.69-57.93,2.97,8.47,5.94,16.93,8.92,25.4"/>
    </g>
  </g>
  <g id="Head">
    <g>
      <path class="st7" d="M543.69,100.51c.85-2.84-.86-5.76-2.5-8.23-11.85-17.92-23.71-35.84-35.56-53.76-.95-1.44-1.96-2.93-3.48-3.76-2.36-1.29-5.44-.57-7.49,1.16-2.06,1.73-3.25,4.27-4.07,6.83-2.64,8.3-1.89,17.24-1.11,25.92.97,10.74,1.97,21.68,6.05,31.66.57,1.4,1.25,2.83,2.45,3.74,1.73,1.31,4.11,1.22,6.28,1.07,12.99-.88,25.99-1.75,38.98-2.63l.44-2.01Z"/>
      <path class="st3" d="M386.31,147.52c1.28,3.43,2.55,6.86,3.83,10.29.33.9.67,1.88.35,2.78-.54,1.5-2.49,1.83-4.08,1.87-5.33.11-10.67-.39-15.89-1.48-.06,2.56,1.46,4.85,2.99,6.9s3.2,4.18,3.5,6.72-1.42,5.51-3.97,5.48c-2.06-.03-3.58-1.86-4.8-3.52,1.5,7.43,2.56,14.96,3.16,22.52-2.74-1.93-5.63-3.66-8.63-5.16-.36,7.25,1.49,14.6,5.23,20.83-15.63,4.11-13.97,7.55-28.91,13.7,6.07-.98,12.48-1.91,18.39-.18,156.26,45.9,100.83,103.6,100.83,103.6-5.09,3.83-8.72,9.56-10,15.8,9.69-2.55,18.87-7.02,26.86-13.07-2.32,3.05-.17-8.59,1.49-5.13,8.68-6.78,14.14,1.64,21.43-6.62,3.86,13.09,7.72,26.17,11.58,39.26,11.61-13.08,12.12-32.79,8-49.79,3.75,7.58,9.3,14.26,16.05,19.34,2.15-9.49.56-19.78-4.37-28.18,7.15,3.69,14.3,7.38,21.45,11.07-.56-11.46-5.79-22.62-14.23-30.39,11.01,2.68,21.56,7.19,31.1,13.3-1.69-7.25-4.09-14.48-8.47-20.5-4.38-6.02-10.99-10.73-18.41-11.42,9.87,2.26,20.11,2.93,30.19,1.96-8.72-5.63-17.44-11.26-26.16-16.89-1.59-1.03-3.25-2.12-4.18-3.78-.98-1.74-1-3.85-.78-5.83.44-4.08.09-10.17,3.95-11.56,32.71-11.73,69.32,1.07,76.27-1.01,6.96-2.08,18.75-23.17,18.75-23.17l3.51-3.27c1.41.05-1.22.06,0,0,14.38-.69,29.22-4.87,35.71-7.19s8.81-29.68,8.81-29.68c0,0,6.03-7.42,10.2-11.13s1.86-17.16-4.64-19.94c-6.49-2.78-40.81,6.96-40.81,6.96-14.84-2.32-44.06-2.82-44.06-2.82,0,0-41.28-37.52-51.48-36.6,0,0-42.2-11.63-60.29-.02,0,0-25.97-27.81-39.89-59.35,0,0-7.88-17.62-13.91-12.06,0,0-18.09,25.51-20.41,64.93,0,0-5.1,22.73,2.32,29.68,0,0-17.62,12.9-40.35,13.41l2.75,9.33Z"/>
      <path class="st8" d="M362.77,193.92c3,1.5,5.88,3.23,8.63,5.16-.6-7.56-1.66-15.09-3.16-22.52,1.22,1.67,2.74,3.5,4.8,3.52,2.56.03,4.28-2.94,3.97-5.48-.31-2.54-1.97-4.67-3.5-6.72s-3.05-4.35-2.99-6.9c5.22,1.09,10.56,1.59,15.89,1.48,1.6-.03,3.54-.36,4.08-1.87.32-.9-.01-1.89-.35-2.78-1.28-3.43-2.55-6.86-3.83-10.29l-2.75-9.33c22.73-.51,40.35-13.41,40.35-13.41-7.42-6.96-2.32-29.68-2.32-29.68,2.32-39.42,20.41-64.93,20.41-64.93,6.03-5.57,13.91,12.06,13.91,12.06,13.91,31.54,39.89,59.35,39.89,59.35,18.09-11.61,60.29.02,60.29.02,10.2-.93,51.48,36.6,51.48,36.6,0,0,29.22.51,44.06,2.82,0,0,34.32-9.74,40.81-6.96,6.49,2.78,8.81,16.23,4.64,19.94-4.17,3.71-10.2,11.13-10.2,11.13,0,0-.31,3.69-1.03,8.47-.43-.16-.86-.3-1.31-.38-2.82-.55-5.66-.92-8.52-.64-2.88.29-5.7.78-8.52,1.41-1.25.28-2.41.8-3.45,1.5-5.73.73-11.47,1.37-17.21,2.05-1.81-1.06-3.91-1.68-6.14-1.68-6.83,0-13.65-.17-20.47-.38-3.48-.11-6.96-.25-10.44-.36-.14,0-.28-.01-.42-.02-4.67-1.31-9.33-2.63-13.86-4.37-4.44-2.05-8.48-4.71-12.39-7.66-4.87-3.82-9.66-7.71-14.65-11.38-5.07-3.74-10.4-6.62-16.26-8.95-11.43-4.53-24.6-4.3-36.06-.02-3.76,1.4-6.49,3.45-8.07,7.21-1.43,3.38-1.63,7.93.63,11.09,2.3,3.21,4.79,5.77,8.27,7.72.69.38,1.39.72,2.11,1.05-.94,0-1.91.11-2.94.34-3.18.72-5.73,3.06-7.44,5.72-2.63,4.09-17.16,1.56-14.69,5.41-.51,1.75-.58,3.65-.34,5.41.39,2.87,1.62,4.98,3.43,7.15.47.57.95,1.13,1.44,1.68-2.05-.91-4.11-1.8-6.18-2.67-13.2-5.55-25.04-4.19-38.93-7.68-5.54-1.39-12.77-4.98-15.82-.25-.76,1.18,13.85,10.01,13.61,11.31-1.03-.19-2.05-.38-3.08-.55-3.92-.68-7.68-1.3-11.64-.85-5.27.61-9.82,1.74-14.65,3.97-5.95,2.75-10.89,8.11-12.66,14.3-.47,1.28-.69,2.62-.67,3.96-.14,2.43.23,4.93,1.24,7.4.23.57.47,1.11.72,1.62-16.46-8.85-32.48-18.53-47.71-29.36-.03-.93-.02-1.87.03-2.8Z"/>
      <path class="st4" d="M651.06,144.14c.92,3.26,2.4,6.26,4.26,9.01-7.92-.01-15.85.14-23.77-.19-8.96-.37-17.92-.74-26.89-1.08-2.18-1.71-4.87-2.73-7.61-2.66-1.7.05,10.71-4.64,9.01-4.53-.86-.01-9.33-3.69-10.18-3.76-2.23-.42-18.32,7.98-20.45,7.18-5.77-2.72-6.23-4.52-11.68-7.8-11.3-6.8-11.58-26.76-24.36-30.2-7.27-1.96-27.75-3.48-35.13-4.97-10.08-2.03-8.41,4.08-9.7,4.04-.18-.67-.34-1.35-.47-2.04-.01-.17-.02-.34-.02-.51.31-1.27.27-2.73,1.46-6.3,19.59-8.13,60.55,1.26,60.55,1.26,10.2-.93,51.48,36.6,51.48,36.6,0,0,27.96.48,43.07,2.68,0,1.09.12,2.19.43,3.27Z"/>
      <path class="st25" d="M589.85,140.12c-7.63-11.02-19.2-18.56-30.47-25.81-2.7-1.74-5.5-3.51-8.67-3.99-3.47-.52-6.97.58-10.25,1.83-8.28,3.16-16.12,7.35-23.9,11.58-2.09,1.14-4.2,2.29-6.45,3.05-4.2,1.41-9.08,1.59-12.31,4.62,9.43,1.02,19.04,2.03,28.34.16,6.28-1.26,12.62-3.84,18.88-2.48,9.99,2.16,15.62,13.32,25.16,16.96,1.72.66,3.55,1.05,5.39.99,1.71-.06,3.39-.51,5-1.08,2.15-.77,4.29-1.81,5.75-3.56s2.1-4.35,1.04-6.37"/>
      <path class="st1" d="M572.79,147.59c-1.56,3.64-3.56,7.1-5.95,10.26-1.03,1.37-2.16,2.7-3.55,3.71-2.6,1.89-5.9,2.5-9.1,2.85-9.41,1.03-19.12.24-27.94-3.17-8.83-3.42-16.72-9.58-21.42-17.79-.97-1.7-1.81-3.49-3.07-4.98-2.17-2.59-5.4-4.11-7.59-6.69,1.77-.72,3.72-.88,5.64-.85,6.74.11,13.42,2.68,18.49,7.13,1.53,1.35,2.93,2.86,4.61,4.02,2.02,1.4,4.38,2.23,6.76,2.85,9.64,2.54,20.09,1.93,29.37-1.73,1.78-.7,3.72-1.52,5.53-.89,1.54.53,2.53,1.98,3.77,3.04,1.72,1.47,4.03,2.22,6.28,2.05"/>
      <g>
        <path class="st10" d="M565.82,142.4s-14.96-16-26.44-13.91c-11.48,2.09-22.61,5.22-24.35,9.04,0,0,6.96,16.7,25.39,16s25.39-11.13,25.39-11.13Z"/>
        <path class="st26" d="M565.82,134.9c-5.13-5.44-11.67-10.76-18.84-13.13-5.99-1.98-12.18-.06-18.08,1.49-3.58.94-12.3,2.54-13.86,6.77-.82,2.21-.08,6.16-.07,8.5,0,1.99-.42,4.59.09,6.54.46,1.76,1.98,3.64,3.04,5.06,6.38,8.52,16.01,11.88,26.44,10.57,7.57-.95,16.74-4.16,21.29-10.79.87-1.27.07-5.96.07-7.5s-.96-6.21-.07-7.5c-5.98,8.73-19.72,12.06-29.55,10.99-9.1-.99-17.63-7.4-21.24-15.86v15c2.5-4.26,9.5-5.61,13.86-6.77,5.91-1.56,12.08-3.47,18.08-1.49,7.16,2.36,13.71,7.69,18.84,13.13-.71-.76.07-6.35.07-7.5,0-1.34.88-6.49-.07-7.5Z"/>
      </g>
      <path class="st9" d="M557.28,200.46c1.68-.97,2.67-2.85,3.02-4.75s.14-3.86-.06-5.79c-.21-1.92-.41-3.84-.62-5.76-.05-.51-.19-1.12-.68-1.27-.31-.1-.64.05-.93.19-3.64,1.8-7.04,4.09-10.08,6.78-.82.73-1.64,1.51-2.11,2.49s-.54,2.24.09,3.14c.68.96,1.95,1.27,3.1,1.52,3.53.73,5.28,2.84,8.27,3.46"/>
      <path class="st7" d="M444.79,39.6c-2.41,8.11-4.93,20.04-10.12,26.72-3.4,4.38-5.55,8.54-7.08,13.87-1.25,4.33-.99,8.87-.82,13.38.38,9.93,1.23,19.3,4.89,27.69,1.98,4.55,8.28,10.65,12.23,13.65,3.81,2.9,8.46.49,13.19-.25s9.13-2.96,13.08-5.69c2.77-1.92,5.37-4.12,7.38-6.82,3.41-4.59,4.89-10.29,6.29-15.83l1.26-.88c-8.8,1.43-18.12-.65-25.47-5.69s-12.65-12.98-14.49-21.7c-2.53-12.02,1.36-24.53.08-36.76l-.42-1.69Z"/>
      <path class="st9" d="M540.91,193.91c.78-4.2,1.1-8.48.95-12.74-.09-2.66-.49-5.58-2.45-7.38-.83-.76-2.1-1.25-3.07-.68-.34.2-.6.5-.85.8-2.74,3.2-5.48,6.41-8.22,9.61-.15.17-.3.36-.33.58-.06.48.45.8.88,1.01,4.44,2.09,8.64,6.71,13.08,8.8"/>
      <path class="st7" d="M425.87,126.15c5.04,8.25,10.07,16.49,15.11,24.74-6.31,1.32-12.83-.19-19.1-1.7-10.83-2.6-21.66-5.21-32.49-7.81-1.69-.41-3.62-1.02-4.23-2.64,13.93-1.49,27.45-6.61,38.88-14.72"/>
      <path class="st7" d="M458.29,331.87s-14.68.85-32.96-2.76c-.12-.29-.26-.57-.4-.84.7-.08,1.39-.25,2.06-.52,9.45-3.77,19.64-4.69,29.59-6.35,4.66-.78,9.17-1.8,13.65-3.32,2.78-.94,5.62-1.98,8.17-3.44,3.48-1.98-9.98,49.54-11.86,47.48-2.36-2.58-12.22-39.44-15.5-39.85-8.12-1.02,9.23-45.99,1.11-47-6.28-.94-12.48-2.33-18.41-4.61-3.94-1.8-7.65-4-11.15-6.54-4.1-3.34-30.42-13.17-33.75-17.27-.46-.62,21.71,4.81,21.27,4.17.41-.31.8-.65,1.14-.99,2.55-2.55,3.21-5.37,3.65-8.81.52-4.04,1-8.08,1.53-12.12,1.16-8.35,2.58-16.75,4.96-24.85.36,1.57.76,3.11,1.2,4.64,6.14-9.78,13.11-19.03,20.83-27.62,4.44,6.15,2.95,14.54,2.59,22.12-.56,11.99,2.36,24.13,8.31,34.56,7.81-9.16,11.01-7.47,16.69-18.08.08,5.83,0,0,1.87,5.53,2.59,7.65,17.75,21.08,24.53,25.47.77-7.73,11.51-21.71,14.29-28.96,1.58-4.13-18.52-24.13-14.67-26.31,2.96-1.68,63.02,18.34,66.41,18.2,39.71-1.6,34.47,4.01,71.22-10.09l4.16,1.56s-11.79,21.09-18.75,23.17c-6.96,2.08-43.56-10.72-76.27,1.01-3.86,1.39-3.51,7.48-3.95,11.56-.22,1.98-.19,4.09.78,5.83.93,1.66,2.58,2.75,4.18,3.78l26.16,16.89c-8.6.82-17.32.45-25.83-1.08,5.62,1.76,10.54,5.73,14.04,10.54,4.38,6.02,6.77,13.25,8.47,20.5-9.54-6.11-20.1-10.62-31.1-13.3,8.44,7.77,13.67,18.93,14.23,30.39-7.15-3.69-14.3-7.38-21.45-11.07,4.92,8.4,6.51,18.69,4.37,28.18-6.75-5.09-12.3-11.77-16.05-19.34,4.12,17,3.61,36.71-8,49.79-3.86-13.09-7.72-26.17-11.58-39.26-7.29,8.26-5.86,23.16-14.55,29.94-1.65-3.46-10.69-15.15-8.37-18.2-7.99,6.05-17.17,10.52-26.86,13.07,1.28-6.24,4.91-11.97,10-15.8Z"/>
      <path class="st22" d="M664.95,137.63c1.01.05,1.43,2.07,1.73,3.03s.23,1.99.19,3c-.2,5.86,1.38,12,5.45,16.22,4.06,4.22,10.89,6,16.05,3.21,0,0,17.91-11.48,11.17-20.82-6.73-9.34-4.81-9.14-10.6-8.71s-24,4.07-24,4.07Z"/>
      <path class="st1" d="M464.66,151.6c-16.39,9.4-32.44,7.04-49.37,15.44-12.4,6.15-22.91,16.05-29.78,28.06,7.48-5.37,15.94-9.37,24.84-11.73-4.31,12.01-6.53,24.77-6.52,37.53,3.91-5.49,7.86-11.03,12.86-15.54-.77,19.15,2.43,38.45,9.32,56.33.1-10.97.31-22.43,5.47-32.11,14.52,13.86,18.39,36.25,33.07,49.95-4.7-11.79-6-24.91-3.72-37.39,9.32,12.5,18.7,25.05,29.91,35.89,3.96,3.83,8.38,7.56,13.75,8.77-12.5-16.79-17.26-40.16-8.61-59.22l2.21-6.91c-7.31.93-14.13,5.24-18.11,11.44-2.11-7.24.07-15.56,5.47-20.82-8.86.75-17.54,3.52-25.19,8.04.5-9.33,3.51-18.52,8.62-26.35-8.35-.48-16.84,1.92-23.71,6.7-2.53-8.32,2.18-18.19,10.23-21.46,2.64-1.07,5.75-1.66,7.42-3.97-7.04-6.33-17.12-9.13-26.42-7.31,14.02-3.79,27.4-9.94,39.41-18.1l-11.14,2.76Z"/>
      <circle class="st18" cx="551.78" cy="140.39" r="7.72"/>
      <circle class="st22" cx="552.54" cy="140.31" r="4.38"/>
      <path class="st24" d="M617.47,199.79c-6.07,2.81-12.43,5.85-16.29,11.32-2.5,3.54-3.72,7.8-4.75,12.01-2.26,9.3-3.75,18.8-4.43,28.35-.07,1-.15,2.05-.7,2.89-.63.97-1.77,1.46-2.88,1.79-6.26,1.81-13.54-.84-17.17-6.25-2.88-4.28-3.44-9.69-3.41-14.85.06-11.79,2.8-23.55,7.94-34.16.89-1.84,1.92-3.73,3.61-4.89,1.28-.88,2.84-.51,4.36-.83,4.36-.92,8.81-.33,13.26-.49,2.89-.1,5.93.75,8.4,2.25,2.8,1.7,4.64,1.66,7.85,2.33"/>
      <path class="st12" d="M485.33,107.08s-25.82-3.3-31.92-12.79c-1.8-2.79-5.11-1.9-8.4-2.3-2.08-.25-4.35-.34-6.08.83s-2.35,4.09-.66,5.31c.81.59,1.89.63,2.9.66,2.9.06,5.81.13,8.71.19-3.37,3.29-8.55,3.66-12.87,5.56-1.44.63-3.01,1.8-2.85,3.37.17,1.69,2.15,2.49,3.83,2.74,3.33.49,6.77.22,9.99-.8-1.31,1.76-3.52,2.6-5.1,4.12s-2.2,4.59-.28,5.64c2.26,1.24,4.6-1.71,7.16-2.03-1,2.15-2.01,4.31-3.01,6.46-.61,1.3-1.1,3.1.06,3.95.47.35,1.09.4,1.67.42,3.38.1,26.81-4.71,29.83-6.24,0,0,2.96-7.63,7.04-15.08Z"/>
      <path class="st4" d="M423.66,153.06c-3.82,1.01-7.78,1.76-11.72,1.44-3.19-.26-6.29-1.21-9.35-2.15-2.61-.8-5.22-1.6-7.83-2.4-.23.53.11,1.13.44,1.6,1.69,2.39,3.77,4.48,5.42,6.89,1.65,2.41,2.87,5.31,2.49,8.2-.02-3.05,2.3-5.6,4.76-7.4,4.04-2.96,8.89-4.8,13.87-5.27"/>
      <path class="st26" d="M526.94,128.96l-26.43,1.83,19.26,13.9s-12.23-5.2,7.16-15.73Z"/>
      <path class="st4" d="M397.04,170.16c-5.29.09-10.59-.42-15.76-1.52,2.23-.05,4,2.14,4.3,4.36s-.5,4.41-1.28,6.51c-.89-.8-1.78-1.6-2.66-2.4-.02,3.25-.03,6.5-.05,9.75,0,.32-.03.68-.28.87-.37.28-.88-.03-1.24-.33-.68-.57-1.35-1.15-2.03-1.72-1.18,5.24-1.54,10.65-1.07,16,1.08-6.41,4.22-12.26,7.31-17.97.98-1.82,1.98-3.66,3.39-5.17,1.17-1.26,2.59-2.25,3.99-3.24,1.82-1.28,3.64-2.55,5.46-3.83"/>
      <path class="st26" d="M572.88,134.49c2.86,1.62,5.87,3.48,7.48,6.21.32.55.54,1.14.45,1.55-.16.74-1.49,1.81-2.36,2.34.23-.14-.79.4-.99.49-.35.16-1.98.79-1.37.58.74-.26-.87.21-1.02.29.57-.32,4.7-.48,5.32-.36.49.09.86.27,1.33.41.85.26-.05-.06-.31-.22-.34-.22-.68-.43-1.02-.65-.89-.58-1.78-1.17-2.66-1.76-2.38-1.6-4.74-3.24-7.1-4.87-5.21-3.59-10.35-7.46-15.82-10.64-2.77-1.61-6.33-1.73-9.48-1.94-5.07-.34-10.04-.14-15.02.9-2,.42-5.57,2.52-2.74,4.46,2.98,2.04,7.7,1.51,10.97.82-2.01.42,1.61,0-.69.11.47-.02.95-.05,1.42-.06.26,0,2.54.13.67-.01.54.04,1.08.06,1.62.09.88.06,1.76.15,2.63.24.29.03.59.1.89.11.25,0-2.14-.3-1.34-.18l-2.9-1.06c9.07,5.74,17.57,12.39,26.72,17.99,6.3,3.85,14.25,2.92,20.78.17,4.33-1.82,10.61-5.62,7.39-10.97-1.97-3.27-5.86-5.83-9.14-7.69s-7.54-1.76-10.97-.82c-1.69.46-5.95,2.64-2.74,4.46h0Z"/>
      <path class="st15" d="M543.82,132.67s-8.27,5.84-3.39,10.22c0,0-8.19-4.4-15.5-4.36-1.04,0-2.07.1-3.05.31-7.85,1.7,10.16-4.29,21.94-6.17Z"/>
      <ellipse class="st15" cx="548.97" cy="136.31" rx="1.78" ry="2.19"/>
      <path class="st0" d="M696.43,146.02c-2.11-2.33-3.8-5.04-4.98-7.95-.1-.26-.21-.53-.43-.7-.44-.35-1.09-.12-1.6.1-5.38,2.33-11.35,3.29-17.2,2.77-.58-.05-1.45.24-1.22.77.09.19.3.29.5.38,1.34.56,2.69,1.12,4.11,1.42,3.26.67,6.67-.11,9.96.4,3.77.58,7.23,2.95,9.14,6.25.92-.97,1.44-2.32,1.4-3.65"/>
      <path class="st2" d="M575.78,200.88c.89-1.84,1.92-3.73,3.61-4.89,1.28-.88,2.84-.51,4.36-.83,4.35-.92,8.79-.34,13.23-.49-2.39,1.73-4.71,3.57-6.57,5.88-1.57,1.95-3.18,3.9-4.28,6.16-1.11,2.27-1.96,4.66-2.92,6.99-1.25,3.02-2.6,6.03-3.44,9.2-1.14,4.27-1.51,8.78-1.5,13.2.02,6.39.59,13.01,1.75,19.3.05.25.1.5.16.75-3.59-.97-6.86-3.16-8.93-6.25-2.88-4.28-3.44-9.69-3.41-14.85.06-11.79,2.8-23.55,7.94-34.16Z"/>
      <path class="st14" d="M640.32,198.79c-1.45-.06-2.9-.17-4.34-.3s.73.11-.7-.08c-.9-.12-1.8-.23-2.7-.35-3.22-.45-6.43-1-9.62-1.62-2.99-.57-5.97-1.2-8.94-1.87-1.19-.27-2.39-.54-3.58-.82-.38-.09-2.18-.53-.53-.12-.5-.12-.99-.24-1.49-.37-2.79-.69-5.61-1.64-8.5-1.67-6.22-.06-12.46.55-18.6,1.47-4.46.67-8.9,1.62-13.25,2.82-1.08.3-2.15.61-3.21.95-.3.1-1.83.85-2.16.69.37.19,1.69-.29.25-.11.07,0,2.14-.18.83-.11-1.17.06.68.09.8.02-.3.19-1.29-.08-1.61-.07-.79.02.74.08.75.08-.23-.05-.48-.06-.72-.1-.57-.1-1.14-.19-1.71-.3-.25-.05-.5-.11-.75-.16-.76-.17,1.09.33-.11-.04-2.45-.76-4.86-1.56-7.23-2.55-.83-.34.03.03-.79-.34-.61-.27-1.21-.56-1.81-.85-1.2-.58-2.38-1.17-3.55-1.79-2.26-1.19-4.48-2.46-6.67-3.78-3.41-2.06-6.74-4.24-9.98-6.54-.85-.6-1.67-1.27-2.53-1.84-.65-.43.5.56.55.42.08-.24-.85-1.53-.95-1.74-1.75-3.34-5.16-9.91-2.39-13.14,1.23-1.44-1.38-2.66-2.25-2.98-3.77-1.39-7.55-2.79-11.32-4.18-3.36-1.24-8.1-.87-11.29.71-2.81,1.38-2.63,3.44.28,4.52,3.77,1.39,7.55,2.79,11.32,4.18l-2.25-2.98c-2.4,2.81-1.26,7.18-.15,10.28.92,2.56,2,5.75,3.68,7.95.67.88,1.92,1.61,2.82,2.25,2.12,1.53,4.29,3.01,6.49,4.43,13.92,9.03,31.82,18.71,48.9,13.73,3.07-.9,6.26-1.95,9.13-2.54,1.69-.35,3.4-.65,5.11-.91.67-.1,1.34-.2,2.01-.29.51-.07,1.03-.13,1.54-.2-.76.09-.85.1-.28.04,2.34-.19,4.67-.42,7.02-.51.47-.02,3.12-.06,1.17-.05-1.67.01-.56,0-.17,0l-3.57-.6c14.03,3.78,28.67,7.16,43.22,7.79,2.59.11,8.31-.04,9.68-2.85s-4.38-3.52-5.82-3.58h0Z"/>
      <path class="st19" d="M606.74,198.31c-6.38-2.01-12.17-3.4-14.26-.77-5.34,5.31-7.5,11.15-9.06,14.28-4.03,8.11-5.59,17.51-5.13,26.05,1.57-6.79,7.33-14.1,8.89-20.89.39-1.68.78-3.38,1.49-4.95,2.46-5.47,8.2-8.56,13.56-11.26"/>
    </g>
  </g>
  <g id="LEG_L">
    <g>
      <path class="st5" d="M232.34,633.48c2.3,19.97,19.2,21.51,19.2,21.51,59.15-35.33,49.16-178.21,49.16-178.21,0,0-20.74-60.68-59.91-21.51-39.17,39.17-29.96,89.87-29.96,89.87l6.72,39.58,3.27,19.25s-8.45-9.68-14.59-16.59c-6.15-6.91-13.06,0-13.06,0-9.22,9.99-9.99,32.26,0,47.62,0,0-8.26,7.68-7.2,19.97s8.74,34.57,7.2,40.71-7.3,59.91-7.3,59.91c0,0-11.5,32.26,7.5,35.33,0,0,93.05,7,108.47,2.1,15.42-4.9,9.62-52.79-18.81-52.79,0,0-10.75-2.3-22.28,0-11.52,2.3-18.01-20.74-18.01-20.74,0,0-14.01-49.17,1.69-66.84"/>
      <path class="st16" d="M185.86,755.62s5.76-53.77,7.3-59.91c1.54-6.15-6.15-28.42-7.2-40.71-1.06-12.29,7.2-19.97,7.2-19.97-9.99-15.36-9.22-37.64,0-47.62,0,0,6.91-6.91,13.06,0,6.15,6.91,14.59,16.59,14.59,16.59l-3.27-19.25-6.72-39.58s-9.22-50.7,29.96-89.87c13.47-13.47,24.75-15.13,33.77-11.52-1.27,1.15-2.53,2.32-3.75,3.5-8.44,8.18-14.74,18.37-19.76,28.91-5.66,11.9-10.58,24.15-13.41,37.05-2.83,12.92-4.19,26.25-4.21,39.47,0,1.62.19,3.2.55,4.71-.13,1.11-.25,2.23-.36,3.34-.52,5.41.38,10.62,1.2,15.98,1.17,7.62,3.13,15.13,5.44,22.48,1.52,4.84,3.23,9.54,5.24,14.2-1.2.44-2.36.95-3.47,1.54-3.65,1.93-6.8,5.67-8.66,9.6-1.66-.58-3.38-.98-5.13-1.18-2.33-2.15-4.77-4.15-7.5-5.82-4.81-2.94-12.03-1.2-14.72,3.86-4.4,8.29-4.7,18.27-3.14,27.34.11.63.36,1.29.7,1.95,0,.11,0,.23,0,.34-.33,3.51-.77,7.01-.95,10.53-.1,1.86-.13,3.73-.02,5.59.2,3.38.53,6.89,1.41,10.16,1.36,5.03,3.59,9.88,6.57,14.15,1.47,2.11,3.02,4.17,4.3,6.39.56,6.85.39,13.73.55,20.61.15,6.49.86,13.38,3.27,19.47,2.72,6.9,6.19,13.48,12.04,18.29,6.04,4.96,12.47,8.53,20.12,10.52,6.82,1.77,14.05,2.43,21.08,2.6,1.31.03,2.6-.09,3.86-.34,4.63,2.43,9.56,4.42,14.63,5.51,5.21,1.12,10.54,1.6,15.84,2.2,1.29.22,2.58.47,3.85.77-.43,7.69-3.2,13.96-8.28,15.57-15.42,4.9-108.47-2.1-108.47-2.1-19-3.07-7.5-35.33-7.5-35.33Z"/>
      <g>
        <path class="st6" d="M278.64,758.58c-1.43-6.74,3.5-13.85,10.07-15.95,6.57-2.09,14.03.26,19.13,4.89s8.08,11.23,9.55,17.97c1.43,6.56,1.17,14.33-3.83,18.8-1.96,1.74-4.43,2.78-6.85,3.78-2.41,1-4.81,2-7.22,2.99-1.09.45-2.24.91-3.42.8-1.55-.15-2.81-1.27-3.96-2.33-5.03-4.67-10.18-9.51-13.08-15.72-2.9-6.22-3.06-14.24,1.46-19.4"/>
        <path class="st10" d="M303.13,757.19c3-1.36,6.55-.32,9.42,1.29,5.06,2.82,9.14,7.42,11.15,12.85,2.02,5.43,1.9,11.66-.49,16.93-2.12-3.73-6.61-8.97-10.87-8.41-2.13.28-4.13,4.19-6.25,4.54-4.72.79-9.81-1.46-12.38-5.5-2.56-4.04-2.41-9.64.41-13.5,1.19-1.63,2.1-3.6,3.66-4.88,1.54-1.27,2.17-1.96,5.3-3.14"/>
        <path class="st27" d="M296.58,778.79c4.24-1.73,8.57-3.24,13.07-4.1,1.58-.11,3.16-.12,4.74-.01,2.04.38,4.04.88,6,1.54,1.01,1.63,1.89,3.34,2.83,5.02.31,1.16.74,2.26,1.27,3.29-.31,1.28-.73,2.54-1.28,3.74-2.12-3.73-6.61-8.97-10.87-8.41-2.13.28-4.13,4.19-6.25,4.54-4.29.72-8.88-1.08-11.61-4.44.19-.16.38-.33.57-.49.51-.22,1.02-.44,1.53-.67Z"/>
      </g>
      <path class="st11" d="M238.66,700.02s-11.86-23.09-9.8-70.62c0,0,.55,18.81,15.65,22.58,0,0-12.71,28.99-5.85,48.04Z"/>
      <path class="st11" d="M246.29,747.81s-12.22-13.39-10.92-20.08l-9-31.4s2.83,35.52,4.89,38.61c0,0-1.24,17.94,4.53,16.99s2.63,11.59,10.51-4.12Z"/>
      <g>
        <path class="st23" d="M242.48,759.76c1.06-8.02,6.26-15.38,13.46-19.07,3.51-1.79,7.73-2.73,11.39-1.26,2.89,1.16,5.01,3.64,7.01,6.03,4.26,5.09,8.59,10.28,11.13,16.42,2.16,5.24,2.92,10.94,3.66,16.56.5,3.83,1,7.65,1.51,11.48.11.81.21,1.66-.09,2.42-.31.8-1.02,1.37-1.71,1.89-5.3,4.03-11.8,7.39-18.37,6.3-5.51-.91-10.21-4.84-15.75-5.56-2.57-.33-5.56-.11-7.31-2.02-.82-.9-1.18-2.12-1.49-3.3-2.69-10.1-3.85-20.6-3.42-31.04"/>
        <path class="st10" d="M256.07,773.94c0-9.05,9.15-12.14,9.15-12.14,0,0,8.6-3.23,11.91-2.42,5.33,2.42,6.02,4.27,8.12,6.27,11.11,10.61,5.75,26.87,2.96,38.28-.27-6.02-8.6-18.65-14.63-18.4-5.8.23-.97,3.82-6.77,4.02-1.66.06-3.35-.26-4.78-1.11-.51-.31-.91-.71-1.23-1.17-2.66-3.84-4.73-4.26-4.73-13.32Z"/>
        <path class="st27" d="M265.86,779.32c1.78-1.27,3.63-2.42,5.58-3.4.84-.28,1.69-.53,2.55-.73.51-.02,1.02-.02,1.53,0,.52.12,1.04.26,1.55.42.41.23.82.47,1.22.72.71.66,1.39,1.35,2.03,2.08,3.99,5.8,6.49,12.43,9.59,18.73-.57,2.38-1.18,4.67-1.7,6.78-.27-6.02-8.6-18.65-14.63-18.4-5.8.23-.97,3.82-6.77,4.02-1.66.06-3.35-.26-4.78-1.11-.51-.31-.91-.71-1.23-1.17-.51-.73-.99-1.34-1.45-1.9,2.08-2.1,4.22-4.14,6.5-6.03Z"/>
      </g>
      <g>
        <path class="st17" d="M242.87,790.17s6.24-39.09-6.12-44.51c-12.35-5.42-30.11,0-30.11,0,0,0-16.09,37.12-10.36,46.16,5.73,9.04,42.67,7.74,46.59-1.65Z"/>
        <path class="st10" d="M218.73,764.63c7.15.19,10.91-6.43,14.17-10.36.8-.97,1.69-1.96,2.88-2.34,2.1-.66,4.24.78,5.86,2.27,8.56,7.89,13.49,19.59,13.14,31.23-.15,4.98-1.83,10.7-6.47,12.49-.46-2.51-.3-5.2-1.42-7.49s-4.34-3.86-6.25-2.16c-1.18,1.05-1.32,2.81-1.92,4.27-1.91,4.65-8.67,5.52-12.92,2.84-4.25-2.69-6.44-7.64-7.98-12.42-1.11-3.47-2.02-7.07-1.86-10.72.16-3.64,2.78-7.6,2.78-7.6Z"/>
        <path class="st27" d="M222.12,791.06c2.41-2.77,4.96-5.42,7.76-7.79,1.45-1.01,2.96-1.92,4.54-2.71,1.31-.45,2.64-.81,4-1.09,2.16-.15,4.31-.11,6.47.08,1.56.28,3.1.64,4.61,1.13.17.09.35.18.51.28.09.15.17.31.25.46,1.33,4.02,1.87,8.31,2.45,12.49-1.01,1.8-2.44,3.26-4.4,4.02-.46-2.51-.3-5.2-1.42-7.49-1.13-2.29-4.34-3.86-6.25-2.16-1.18,1.05-1.32,2.81-1.92,4.27-1.91,4.65-8.67,5.52-12.92,2.84-1.62-1.02-2.94-2.38-4.04-3.93.12-.13.25-.25.36-.39Z"/>
      </g>
    </g>
  </g>
  <g id="ARM_L">
    <g>
      <path class="st5" d="M264.55,452.97s4.65-46.09,5.42-66.83c.77-20.74,52.4-69.13,52.4-69.13-30.73-19.2-6.83-58.38-6.83-58.38,0,0,22.03-34.57,70.94-3.84,48.91,30.73-4.36,73.74-4.36,73.74,4.61,16.9.77,39.17.77,39.17,2.3,32.26-36.1,70.67-36.1,70.67,61.45-2.3,96.78,26.88,102.93,33.8.51.57,1.21,1.12,2.05,1.64-4.01,4.12-7.28,9.14-9.54,14.02-2.2,4.74-3.8,9.7-3.96,14.96-13.51.57-31.43,7.96-47.7,8.92-19.2,1.13-84.49-24.94-84.49-24.94,0,0-22.28,3.07-33.8,0-11.52-3.07-7.73-33.8-7.73-33.8Z"/>
      <path class="st16" d="M264.55,452.97s4.65-46.09,5.42-66.83c.77-20.74,35.94-68.09,35.94-68.09-13.76-16.22,9.63-59.42,9.63-59.42,0,0,13.82-26.33,53.03-12.6-17.81,3.57-23.81,10.99-29.34,29.16-4.44,14.6-16.94,28.09-7.06,38.61,5.88,6.26,14.62,7.98,22.4,11.2-5.86,2.93-15.22,12.6-20.08,16.99-10.37,9.38-9.94,17.14-17.5,31.44-3.58,6.77-7.46,9.77-10.85,14.86-4.35,6.51-6.72,13.58-7.35,21.37-.55,6.78.56,13.38,2.96,19.49.32,1.46.88,2.87,1.52,4.07.36.68.8,1.31,1.3,1.88,1.88,3.36,4.15,6.52,6.76,9.44,1.31,1.47,2.71,2.86,4.17,4.19-.28.61-.53,1.25-.74,1.93-1.89,5.96,1.72,12.38,7.21,14.7.65.28,1.31.49,1.96.65.19.22.38.43.59.64,6.85,6.8,14.88,12.67,23.64,16.77,15.27,7.14,31.93,10.11,48.74,9.76,8.64-.18,17.27-1.23,25.77-2.69,3.76-.65,7.5-1.41,11.21-2.28,3.24-.76,6.34-1.98,9.56-2.79-.43.81-.83,1.63-1.21,2.43-2.2,4.74-3.8,9.7-3.96,14.96-13.51.57-31.43,7.96-47.7,8.92-19.2,1.13-84.49-24.94-84.49-24.94,0,0-22.28,3.07-33.8,0-11.52-3.07-7.73-33.8-7.73-33.8Z"/>
      <path class="st20" d="M328.34,440.86c1.56-3.18,5.2-7.27,7.65-10.83l.04-.06c3.25-4.55,6.51-9.14,9.03-14.14,3.98-8.19,6.56-16.98,9.59-25.6,1.9-5.74,3.85-11.44,6.27-16.97,1.68-3.93,3.56-7.79,5.09-11.79,3.05-7.93,5.12-17.18,1.26-25.14-1.46-3.29-4.71-6.31-6.39-8.54-1.09-1.46-1.55-2.72-1.1-3.91.42-1.17,1.69-2.31,3.49-3.56,2.77-1.85,6.02-3.86,8.59-6.13,7.83-6.69,12.83-16.38,13.81-26.61.75-7.01.6-14.19-2.73-20.41-1.74-3.31-4.56-6.17-7.56-8.57-1.91-1.62-4.26-3.23-4.99-5.3-.79-4,6.77-3.4,9.78-2.47,2.71.77,5.22,2.12,7.55,3.69,3.06,2.07,5.96,4.4,8.75,7.52,22.15,24.65-.27,50.9-13.52,63.73-.86,1.19-1.12,2.79-1.12,4.39-.01,2.17.22,4.46.39,6.69.84,8.1.78,18.18-.1,26.23-.25,2.78-.4,5.34-.78,8.79-1.62,25.4-24.66,53.84-34.27,63.91-.79.9-2,2.26-.25,2.6.95.29,3.79.29,5.57.33,4.24.05,9.16.21,14.44.73,38.03,3.12,68.58,19.08,83.89,33.21.4.29.86.59,1.35.89-1.98,2-3.78,4.21-5.38,6.53-1.62-.3-3.25-.6-4.87-.91-15.49-7.77-30-17.44-46.11-23.99-4.72-1.91-9.56-3.37-14.31-5.12-4.03-1.43-8.02-2.97-12.11-4.24-11.2-3.52-23.14-3.34-34.72-2.04-3.62.26-8.01.93-6.22-2.89Z"/>
      <g>
        <path class="st5" d="M425.51,492.9c0-.17,0-.38-.07-.48.01-.4.05-.81.09-1.21.02-.19.18-.76.2-1.07l.02-.06c.27-.9.64-1.74.99-2.61.04-.09.07-.16.09-.23.23-.38.45-.77.68-1.15.49-.78,1.03-1.54,1.59-2.27.58-.75,1.2-1.47,1.82-2.19.03-.03.05-.06.07-.09.07-.06.15-.14.25-.23.35-.33.69-.68,1.05-1.01,1.48-1.39,3.06-2.67,4.71-3.85.39-.28.79-.56,1.19-.82.16-.1.31-.21.47-.31.85-.46,1.67-.98,2.53-1.43,1.53-.8,3.1-1.51,4.73-2.09.37.02.68-.12.68-.16.2-.07.4-.15.56-.18.61-.14,1.22-.25,1.84-.34,9.27,5.85,19.72,10.82,19.72,10.82,0,0,18.46,9.95,26.28,10.47,29.12,1.92,17.06.34,22.83,2.46s16.71,7.97,16.71,7.97l8.99.03c26.43,26.07,10.19,56.93,10.19,56.93-5.03-26.4-29.73-21.55-29.73-21.55,4.33,1.59,3.89,20.59,3.89,20.59,10.68,13.26-5.63,28.69-5.12,27.3s-4.28-10.64-4.28-10.64c-3.65-7.89-13.55-9.89-13.55-9.89,3.77,12.02-9.8,26.68-9.8,26.68-3.18,8.65-19.33,12.54-19.33,12.54,8.22-6.8-.13-19.69-.13-19.69-4.33-1.59-15.52-30.67-15.52-30.67-7.93-2.91-28.39-25.78-28.39-25.78l2.94-19.15c.97-2.64-4.64-10.61-9.15-16.43-.02-.07-.03-.15-.05-.21Z"/>
        <path class="st16" d="M425.51,492.9c0-.17,0-.38-.07-.48.01-.4.05-.81.09-1.21.02-.19.18-.76.2-1.07l.02-.06c.27-.9.64-1.74.99-2.61.04-.09.07-.16.09-.23.23-.38.45-.77.68-1.15.49-.78,1.03-1.54,1.59-2.27.58-.75,1.2-1.47,1.82-2.19.03-.03.05-.06.07-.09.07-.06.15-.14.25-.23.35-.33.69-.68,1.05-1.01,1.28-1.2,2.64-2.31,4.05-3.36.68.58,1.36,1.15,2.05,1.7.73.58,1.46,1.15,2.2,1.72-.04,3.17.22,6.33.92,9.45,2.46,11.03,9.77,19.86,20.59,23.52.59.95,1.2,1.89,1.82,2.82-3.02,1.58-5.74,3.69-7.85,6.46-4.03,5.3-4.62,12.77-1.56,18.67,2.14,4.12,5.51,7.31,9.32,9.89,1.81,1.23,3.71,2.36,5.44,3.69.66,1.4,1.2,2.86,1.87,4.24,1.29,2.66,2.82,5.24,4.53,7.65,1.42,2,3.08,3.73,4.91,5.25.39.5.8.99,1.22,1.46,2.26,2.5,5.12,3.95,8.1,4.32.16.08.32.16.49.23.23.11.46.2.7.29.08.07.16.14.24.21.27,1.01.55,2.03.84,3.04.9,3.07,2.18,6.1,5.01,7.94.06.04.13.08.2.12-1.29,1.68-2.21,2.67-2.21,2.67-3.18,8.65-19.33,12.54-19.33,12.54,8.22-6.8-.13-19.69-.13-19.69-4.33-1.59-15.52-30.67-15.52-30.67-7.93-2.91-28.39-25.78-28.39-25.78l2.94-19.15c.97-2.64-4.64-10.61-9.15-16.43-.02-.07-.03-.15-.05-.21Z"/>
        <path class="st7" d="M476.24,531.19c2.24,5.06,4.47,10.12,6.71,15.18.86,1.95,1.79,3.99,3.45,5.33,2.06,1.67,4.87,1.98,7.37,2.86,4.84,1.72,8.74,5.9,10.11,10.86,0,0,6.52,1.39,13.45,4.94,6.93,3.54,1.5-13.8,1.5-13.8,0,0-8.77-8.23-16.28-9.44-7.51-1.21-12.13-7.3-12.13-7.3l-20.63-25.95,6.45,17.32Z"/>
        <path class="st10" d="M475.68,585.15s8.36,12.89.13,19.69c0,0,16.16-3.89,19.33-12.54,0,0,1.59-9.58-7.07-10.83s-12.4,3.69-12.4,3.69Z"/>
        <path class="st10" d="M513.67,569.67c1.89,1.44,3.67,3.34,4.82,5.84,0,0,4.79,9.25,4.28,10.64s15.79-14.04,5.12-27.3c0,0-6.35-7.77-11.68-4.29-5.33,3.48-2.53,15.12-2.53,15.12Z"/>
        <path class="st7" d="M524,538.25s-2.23-9.13-12.22-12.53c-10-3.4-14.97-13-14.97-13l-1.85-9.9s6.58,5.98,14.68,7.8c8.11,1.82,15.64,12.66,18.38,16.68,2.73,4.02,15.77,4.65,15.77,4.65,0,0-5.97,7.17-3.12,8.49s-16.68-2.2-16.68-2.2Z"/>
        <path class="st10" d="M539.4,536.36c-3.24,6.04,11.96,11.05,14.32,23.44,0,0,19.07-10.57,2.7-29.47,0,0-6.68-13.26-17.02,6.03Z"/>
        <path class="st20" d="M445.93,471.81c.37.02.68-.12.68-.16.2-.07.4-.15.56-.18.5-.12,1-.21,1.51-.29,5.63,3.85,11.82,7.24,17.61,10.3,8.7,4.52,17.72,8.98,27.25,11.49-.38.08-.76.16-1.14.23-.35.06-.69.12-1.04.17-5.6-1.58-11.16-3.28-16.85-4.54-.78-.17-1.56-.34-2.34-.5-5.48-3.16-11.49-5.33-17.24-8.01-3.99-2.46-8.02-4.85-12.06-7.22,1-.47,2.02-.9,3.06-1.27Z"/>
        <path class="st27" d="M475.68,585.15s1.39-1.83,4.43-2.98c-.09,2.57,1.02,5.15,2.11,7.41.36.76.71,1.52,1,2.31.02.07.14.43.21.64.07.31.18.77.2.85.19.9.28,1.81.38,2.72,0,.07.01.11.02.14-.01.07-.02.17-.04.3-.06.5-.12,1.02-.15,1.51,0,0,0,0,0,.01,0,.02-.02.03-.03.05-.18.38-.29.79-.44,1.19-.05.07-.12.17-.21.29-.1.12-.17.22-.23.3-1.29,1.2-2.36,2.42-3.29,3.79-2.26.78-3.83,1.16-3.83,1.16,8.22-6.8-.13-19.69-.13-19.69Z"/>
        <path class="st27" d="M516.81,569.45c.72.33-.18.03-.33-.14.24.27.83.54,1.16.76.65.44,1.29.9,1.91,1.38.63.48,1.24.97,1.86,1.47-.85-.68.32.3.57.58.44.48.87.98,1.26,1.5.19.25.35.52.54.76.02.02.03.04.05.06.16.34.31.75.36.87.12.27.2.56.33.82.03.06.05.1.07.13.09.52.16,1.16.17,1.29.06.46.03,2.02.09.41-.05,1.22-.06,2.42-.2,3.64-.06.54-.04,1.06.04,1.57-1.19,1.32-2.03,1.95-1.91,1.62.51-1.39-4.28-10.64-4.28-10.64-1.15-2.49-2.93-4.4-4.82-5.84,0,0-.16-.69-.34-1.77,1.16.53,2.33,1.02,3.48,1.55Z"/>
        <path class="st27" d="M540.1,535.1c.38.63.8,1.24,1.23,1.79,2.16,2.8,5.01,5.07,7.66,7.38.2.17.39.35.59.52.6.77.73.83.62.65.12.12.25.25.36.38.09.1.51.71.7.96.12.23.27.51.3.58.14.3.26.61.38.92-.2-.5.16.61.21.85.58,2.74.66,5.54.95,8.31-3.66-10.69-16.72-15.44-13.69-21.08.23-.44.47-.85.7-1.25Z"/>
      </g>
    </g>
  </g>
</svg>