<?xml version="1.0" encoding="UTF-8"?>
<svg id="Layer_1" xmlns="http://www.w3.org/2000/svg" version="1.1" viewBox="0 0 220.09 277.58">
  <!-- Generator: Adobe Illustrator 29.4.0, SVG Export Plug-In . SVG Version: 2.1.0 Build 152)  -->
  <defs>
    <style>
      .st0 {
        fill: #3f384e;
      }

      .st1 {
        fill: #5c415b;
      }

      .st2 {
        fill: #aa5b59;
      }

      .st3 {
        fill: #432b4c;
      }

      .st4 {
        fill: #c5c5d5;
      }

      .st5 {
        fill: #814156;
      }

      .st6 {
        fill: #362d55;
      }

      .st7 {
        fill: #7d3344;
      }

      .st8 {
        fill: #0d0c2c;
      }

      .st9 {
        fill: #faf1d5;
      }
    </style>
  </defs>
  <g>
    <path class="st3" d="M117.91,16.69c.3-.12,1,.06,1.46,0-.01,4.68,2.56,9.96,5.1,13.84-1.62-1.32-2.41-.52-2.91,1.09-4.88,15.73-8.09,49-7.28,65.54.25,5.02,3.46,10.37.73,14.93-11.71,4.95-23.76,7.86-34.22,15.29-4.45,3.16-7.16,6.42-10.92,10.19l-17.84,17.48,8.74-16.02-22.21,25.49c-5.03-6.61-10.45-13.7-11.65-22.21-2.11-.19-1.44,2.79-1.46,4-7.89-4.51-4.97,6.08-9.47,2.91-.3-1.09-.53-1.73-.73-2.91,1.11-6.92-3.63-11.89,5.1-12.38.07,0-.19,1.59.36,1.46,1.33-.32,8.74-23.32,10.92-21.85-1.11,9.82-1.46,18.94,2.18,28.4l7.65-30.95c3.25.79-3.67,11.94-1.09,13.47l12.38-19.66-2.91,13.84c4.08-5.11,8.41-10.19,12.01-15.66,1.13-1.71,16.88-31.8,18.2-28.4-.38,1.53-8.37,16.27-6.19,16.38,8.08-5.04,13.82-12.81,18.2-21.12l-1.46,8.01c9.38-11.39,18.92-22.94,22.94-37.5,2-7.25,4.63-16.79,0-22.94.62-.41,1.73-1.06,2.18-1.46,1.32-.03-.81,2.22.36,2.18.32-.01,1.71-1.41,1.82-1.46Z"/>
    <path class="st5" d="M113.55,17.42c4.63,6.15,2,15.69,0,22.94-4.02,14.57-13.55,26.11-22.94,37.5l1.46-8.01c-4.39,8.31-10.12,16.07-18.2,21.12-2.18-.11,5.8-14.85,6.19-16.38-1.32-3.4-17.08,26.69-18.2,28.4-3.61,5.46-7.93,10.55-12.01,15.66l2.91-13.84-12.38,19.66c-2.58-1.53,4.34-12.68,1.09-13.47l-7.65,30.95c-3.64-9.46-3.29-18.58-2.18-28.4-2.18-1.47-9.59,21.52-10.92,21.85-.55.13-.29-1.46-.36-1.46.56-8.5,4.82-15.76,7.28-23.67,1.92-6.16,1.62-10.28,4.37-16.38.44-.97.7-.68.73-.73.06-.12,3.06-1.55,1.46-2.18l-.36-1.46-13.47,5.46c9.54-10.64,16.82-23.56,29.86-30.58l-13.84,4.37c9.93-14.55,27.66-20.28,40.41-30.95l-4.73,1.09c11.42-9.88,29.55-13.67,41.51-21.48Z"/>
    <path class="st7" d="M31.99,93.88c-2.75,6.11-2.45,10.22-4.37,16.38-2.46,7.9-6.72,15.17-7.28,23.67-8.73.49-3.99,5.46-5.1,12.38-1.61-9.59-1.33-15.37,2.18-25.12l-4,3.28c-1.79-.93,12.92-30.16,18.57-30.58Z"/>
    <path class="st2" d="M117.91,16.69c-.11.04-1.5,1.45-1.82,1.46-1.17.04.96-2.21-.36-2.18.18-.16,1.4-1.37,1.46-1.46l.73,2.18Z"/>
    <path class="st7" d="M32.72,93.15l1.46-2.18c1.61.63-1.39,2.07-1.46,2.18Z"/>
  </g>
  <g>
    <path class="st6" d="M80.78,127.37c7.18,1.52,25.13,1.72,30.95,5.83,2.47,1.75-1.63,1.37,0,2.91,1.17,1.1,12.36,5.35,14.56,7.28l-2.55,1.82,9.47,6.55-6.55.73c2.43.87,11.45,14.4,7.65,14.93-1.72-1.95-4.14-3.22-4,.36.18.88,11.42,8.86,12.38,13.11.8,3.53-1.69,33.43-3.28,34.59-1.06.78-1.91-3.23-3.28.36-.23,9.08,9.29,11.14,14.56,16.75-1.52,3.48-4.95,4.12-8.01,5.83,10.87,8.43,4.39,4.55,2.18,8.01-.95,1.48-.35,5.84-2.18,7.65-5.99.53-12.76,3.27-17.84,4.37-6.85,1.48-13.79,2.82-20.75,3.64,1.13-7.75-3.71-12.22-10.19-6.92,5.61-.02,7.2,2.5,5.1,7.65-4.88.09-6.53,2.17-6.92,2.18-.21,0-.78-2.2-1.46-2.18-1.42.04-3.99.68-6.19.73,5.22-5.9-.83-13.89-6.55-8.37,6.07.6,4.09,4.03,3.64,8.37-4.72.09-5.14,2.21-5.46,2.18-.46-.04-.39-2.25-5.46-2.18,1.1-4.36,1.88-10.98-4.37-11.65,2.73-6.65,5.64-8.67,12.38-12.38,1.11.23,2,2.07,2.55,2.18,2.94.6,7.47-2.13,11.65-1.46,1.12.18,3.41,2.88,3.64,2.91,12.66,1.55,19.22-5.08,17.11-17.84-1.3-7.88-22.31-29.37-29.49-33.86-19.03-11.89-26.52-3.31-44.05-24.76,11.84-7.86,20.02-19.27,29.86-29.13,3.76-3.77,6.47-7.03,10.92-10.19Z"/>
    <path class="st8" d="M40,166.69c-.91-1.11-1.11-1.73-1.46-2.18l22.21-25.49-8.74,16.02,17.84-17.48c-9.84,9.86-18.02,21.27-29.86,29.13Z"/>
    <path class="st8" d="M104.08,262.08v.73c-1.69,0-3.41-.03-5.1,0,2.1-5.14.51-7.66-5.1-7.65,6.49-5.31,11.33-.83,10.19,6.92Z"/>
    <path class="st8" d="M70.58,263.54c-.72,0-1.46,0-2.18,0-2.03-2.33-.85-6.39-1.46-8.37-.41-1.36-2.66-.89-2.91-1.46-.51-1.17,2.04-1.46,2.18-1.82,6.25.67,5.46,7.29,4.37,11.65Z"/>
    <path class="st8" d="M84.42,263.54c-.96.02-1.95-.02-2.91,0,.45-4.35,2.43-7.77-3.64-8.37,5.73-5.52,11.78,2.47,6.55,8.37Z"/>
    <g>
      <path class="st6" d="M78.59,239.51c-6.74,3.7-9.65,5.73-12.38,12.38-.15.36-2.7.65-2.18,1.82.25.57,2.5.09,2.91,1.46.6,1.99-.58,6.04,1.46,8.37-8.62.09-21.32-.4-31.31,0,2.7-1.01,12.63-.41,14.2-1.46.96-.64,4.68-19.24,10.19-20.39,1.59-.33,5.93,2.23,6.55,2.18,2.96-.21,4.73-5.59,10.56-4.37Z"/>
      <path class="st4" d="M60.75,256.26c1.32-.25,1.65,4.25,1.46,4.37-2.12,1.35-3.43-2.76-1.46-4.37Z"/>
    </g>
  </g>
  <path class="st2" d="M196.56,100.43v2.91c-2.5.41-3.82-5.39-5.1-8.01l-1.46-16.02c4.52.68,3.3,11.7,4.37,15.66.49,1.81,1.7,3.73,2.18,5.46Z"/>
  <path class="st9" d="M190,79.31l1.46,16.02c-.7-1.43-.96-3.01-1.82-4.37l-.36,4.73c-.43-1.59-1.21-3.09-1.46-4.73-.21-1.37-.07-3.61,0-5.1.11-2.39.67-4.54.73-6.92,1.25-1.18,1.38.35,1.46.36Z"/>
  <g>
    <path class="st8" d="M124.47,30.52c4.87,7.46,14.59,20.75,20.39,27.67,9.1,10.86,11.46,9.45,20.75,16.75,6.75,5.3,12.02,14.54,17.48,21.12l-4.73-15.66c2.9,2.51,3.12,7.24,5.83,9.83.12.11.59,1.38,1.09,1.46,1.03.15,1.33-1.07,2.55-.73.25,1.64,1.02,3.14,1.46,4.73l.36-4.73c.86,1.36,1.12,2.94,1.82,4.37,1.28,2.62,2.6,8.42,5.1,8.01,0,2.7.07,5.34.36,8.01l-4.37-8.01-1.46,8.74-1.82-6.92-3.28,17.11-2.55-11.29c-1.01-1.45-5.18,18.32-6.19,20.02l.73-23.3-8.37,20.02c-1.72,1.24-1.96-3.17-2.18-4-1.93-7.14-3.14-14.52-5.83-21.48.02,3.44-.94,10.59-.73,13.47.14,1.81,3.07,9.62,1.82,10.19-6.09-7.71-11.52-28.37-19.66-10.19-1.81-.07-5.01-17.66-9.47-.73-2.06.07-.67-2.81-1.09-3.64-1.6-3.17-4.01-5.72-4.73-10.19-1.59,4.34-.53,7.53,1.09,11.65-2.22,1.45-4.47,2.29-5.46,5.1v-10.19c-.68-.37-7.1,3.83-8.37,4.37,2.74-4.56-.48-9.91-.73-14.93-.81-16.53,2.4-49.81,7.28-65.54.5-1.61,1.29-2.41,2.91-1.09Z"/>
    <path class="st5" d="M167.43,123.73l-6.55-8.01c-.21-2.88.75-10.04.73-13.47,2.68,6.96,3.89,14.34,5.83,21.48Z"/>
    <path class="st1" d="M132.48,111.35c-1.56-1.18-2.33.6-3.64,1.46-1.62-4.12-2.69-7.31-1.09-11.65.72,4.47,3.13,7.03,4.73,10.19Z"/>
    <path class="st0" d="M124.1,69.12l.73,30.58c-3.36-9.76-3.48-20.68-.73-30.58Z"/>
    <path class="st6" d="M121.19,58.92l-2.18,24.76c-.8-8.33-.84-16.88,2.18-24.76Z"/>
  </g>
</svg>