<?xml version="1.0" encoding="UTF-8"?>
<svg id="Head" xmlns="http://www.w3.org/2000/svg" version="1.1" viewBox="0 0 500 500">
  <!-- Generator: Adobe Illustrator 29.4.0, SVG Export Plug-In . SVG Version: 2.1.0 Build 152)  -->
  <defs>
    <style>
      .st0 {
        fill: #9b757d;
      }

      .st1 {
        fill: #2d251f;
      }

      .st2 {
        fill: #42372f;
      }

      .st3 {
        fill: #564941;
      }

      .st4 {
        fill: #382d26;
      }

      .st5 {
        fill: #473c35;
      }

      .st6 {
        fill: #ede6c5;
      }

      .st7 {
        fill: #ede6c5;
      }

      .st8 {
        fill: #847062;
      }

      .st9 {
        fill: #66444a;
      }

      .st10 {
        fill: #f7f5ed;
      }

      .st11 {
        fill: #29abe2;
      }

      .st12 {
        fill: #280b0e;
      }

      .st13 {
        fill: #6d5d54;
      }

      .st14 {
        fill: #280b0e;
      }
    </style>
  </defs>
  <path class="st4" d="M273.62,167.34c.85-2.84-.86-5.76-2.5-8.23-11.85-17.92-23.71-35.84-35.56-53.76-.95-1.44-1.96-2.93-3.48-3.76-2.36-1.29-5.44-.57-7.49,1.16-2.06,1.73-3.25,4.27-4.07,6.83-2.64,8.3-1.89,17.24-1.11,25.92.97,10.74,1.97,21.68,6.05,31.66.57,1.4,1.25,2.83,2.45,3.74,1.73,1.31,4.11,1.22,6.28,1.07,12.99-.88,25.99-1.75,38.98-2.63l.44-2.01Z"/>
  <path class="st2" d="M116.24,214.36c1.28,3.43,2.55,6.86,3.83,10.29.33.9.67,1.88.35,2.78-.54,1.5-2.49,1.83-4.08,1.87-5.33.11-10.67-.39-15.89-1.48-.06,2.56,1.46,4.85,2.99,6.9s3.2,4.18,3.5,6.72-1.42,5.51-3.97,5.48c-2.06-.03-3.58-1.86-4.8-3.52,1.5,7.43,2.56,14.96,3.16,22.52-2.74-1.93-5.63-3.66-8.63-5.16-.36,7.25,1.49,14.6,5.23,20.83-15.63,4.11-13.97,7.55-28.91,13.7,6.07-.98,12.48-1.91,18.39-.18,156.26,45.9,100.83,103.6,100.83,103.6-5.09,3.83-8.72,9.56-10,15.8,9.69-2.55,18.87-7.02,26.86-13.07-2.32,3.05-.17-8.59,1.49-5.13,8.68-6.78,14.14,1.64,21.43-6.62,3.86,13.09,7.72,26.17,11.58,39.26,11.61-13.08,12.12-32.79,8-49.79,3.75,7.58,9.3,14.26,16.05,19.34,2.15-9.49.56-19.78-4.37-28.18,7.15,3.69,14.3,7.38,21.45,11.07-.56-11.46-5.79-22.62-14.23-30.39,11.01,2.68,21.56,7.19,31.1,13.3-1.69-7.25-4.09-14.48-8.47-20.5-4.38-6.02-10.99-10.73-18.41-11.42,9.87,2.26,20.11,2.93,30.19,1.96-8.72-5.63-17.44-11.26-26.16-16.89-1.59-1.03-3.25-2.12-4.18-3.78-.98-1.74-1-3.85-.78-5.83.44-4.08.09-10.17,3.95-11.56,32.71-11.73,69.32,1.07,76.27-1.01,6.96-2.08,18.75-23.17,18.75-23.17l3.51-3.27c1.41.05-1.22.06,0,0,14.38-.69,29.22-4.87,35.71-7.19s8.81-29.68,8.81-29.68c0,0,6.03-7.42,10.2-11.13s1.86-17.16-4.64-19.94c-6.49-2.78-40.81,6.96-40.81,6.96-14.84-2.32-44.06-2.82-44.06-2.82,0,0-41.28-37.52-51.48-36.6,0,0-42.2-11.63-60.29-.02,0,0-25.97-27.81-39.89-59.35,0,0-7.88-17.62-13.91-12.06,0,0-18.09,25.51-20.41,64.93,0,0-5.1,22.73,2.32,29.68,0,0-17.62,12.9-40.35,13.41l2.75,9.33Z"/>
  <path class="st5" d="M92.7,260.75c3,1.5,5.88,3.23,8.63,5.16-.6-7.56-1.66-15.09-3.16-22.52,1.22,1.67,2.74,3.5,4.8,3.52,2.56.03,4.28-2.94,3.97-5.48-.31-2.54-1.97-4.67-3.5-6.72s-3.05-4.35-2.99-6.9c5.22,1.09,10.56,1.59,15.89,1.48,1.6-.03,3.54-.36,4.08-1.87.32-.9-.01-1.89-.35-2.78-1.28-3.43-2.55-6.86-3.83-10.29l-2.75-9.33c22.73-.51,40.35-13.41,40.35-13.41-7.42-6.96-2.32-29.68-2.32-29.68,2.32-39.42,20.41-64.93,20.41-64.93,6.03-5.57,13.91,12.06,13.91,12.06,13.91,31.54,39.89,59.35,39.89,59.35,18.09-11.61,60.29.02,60.29.02,10.2-.93,51.48,36.6,51.48,36.6,0,0,29.22.51,44.06,2.82,0,0,34.32-9.74,40.81-6.96,6.49,2.78,8.81,16.23,4.64,19.94-4.17,3.71-10.2,11.13-10.2,11.13,0,0-.31,3.69-1.03,8.47-.43-.16-.86-.3-1.31-.38-2.82-.55-5.66-.92-8.52-.64-2.88.29-5.7.78-8.52,1.41-1.25.28-2.41.8-3.45,1.5-5.73.73-11.47,1.37-17.21,2.05-1.81-1.06-3.91-1.68-6.14-1.68-6.83,0-13.65-.17-20.47-.38-3.48-.11-6.96-.25-10.44-.36-.14,0-.28-.01-.42-.02-4.67-1.31-9.33-2.63-13.86-4.37-4.44-2.05-8.48-4.71-12.39-7.66-4.87-3.82-9.66-7.71-14.65-11.38-5.07-3.74-10.4-6.62-16.26-8.95-11.43-4.53-24.6-4.3-36.06-.02-3.76,1.4-6.49,3.45-8.07,7.21-1.43,3.38-1.63,7.93.63,11.09,2.3,3.21,4.79,5.77,8.27,7.72.69.38,1.39.72,2.11,1.05-.94,0-1.91.11-2.94.34-3.18.72-5.73,3.06-7.44,5.72-2.63,4.09-17.16,1.56-14.69,5.41-.51,1.75-.58,3.65-.34,5.41.39,2.87,1.62,4.98,3.43,7.15.47.57.95,1.13,1.44,1.68-2.05-.91-4.11-1.8-6.18-2.67-13.2-5.55-25.04-4.19-38.93-7.68-5.54-1.39-12.77-4.98-15.82-.25-.76,1.18,13.85,10.01,13.61,11.31-1.03-.19-2.05-.38-3.08-.55-3.92-.68-7.68-1.3-11.64-.85-5.27.61-9.82,1.74-14.65,3.97-5.95,2.75-10.89,8.11-12.66,14.3-.47,1.28-.69,2.62-.67,3.96-.14,2.43.23,4.93,1.24,7.4.23.57.47,1.11.72,1.62-16.46-8.85-32.48-18.53-47.71-29.36-.03-.93-.02-1.87.03-2.8Z"/>
  <path class="st3" d="M380.99,210.97c.92,3.26,2.4,6.26,4.26,9.01-7.92-.01-15.85.14-23.77-.19-8.96-.37-17.92-.74-26.89-1.08-2.18-1.71-4.87-2.73-7.61-2.66-1.7.05,10.71-4.64,9.01-4.53-.86-.01-9.33-3.69-10.18-3.76-2.23-.42-18.32,7.98-20.45,7.18-5.77-2.72-6.23-4.52-11.68-7.8-11.3-6.8-11.58-26.76-24.36-30.2-7.27-1.96-27.75-3.48-35.13-4.97-10.08-2.03-8.41,4.08-9.7,4.04-.18-.67-.34-1.35-.47-2.04-.01-.17-.02-.34-.02-.51.31-1.27.27-2.73,1.46-6.3,19.59-8.13,60.55,1.26,60.55,1.26,10.2-.93,51.48,36.6,51.48,36.6,0,0,27.96.48,43.07,2.68,0,1.09.12,2.19.43,3.27Z"/>
  <path class="st13" d="M319.78,206.95c-7.63-11.02-19.2-18.56-30.47-25.81-2.7-1.74-5.5-3.51-8.67-3.99-3.47-.52-6.97.58-10.25,1.83-8.28,3.16-16.12,7.35-23.9,11.58-2.09,1.14-4.2,2.29-6.45,3.05-4.2,1.41-9.08,1.59-12.31,4.62,9.43,1.02,19.04,2.03,28.34.16,6.28-1.26,12.62-3.84,18.88-2.48,9.99,2.16,15.62,13.32,25.16,16.96,1.72.66,3.55,1.05,5.39.99,1.71-.06,3.39-.51,5-1.08,2.15-.77,4.29-1.81,5.75-3.56s2.1-4.35,1.04-6.37"/>
  <path class="st1" d="M302.72,214.43c-1.56,3.64-3.56,7.1-5.95,10.26-1.03,1.37-2.16,2.7-3.55,3.71-2.6,1.89-5.9,2.5-9.1,2.85-9.41,1.03-19.12.24-27.94-3.17-8.83-3.42-16.72-9.58-21.42-17.79-.97-1.7-1.81-3.49-3.07-4.98-2.17-2.59-5.4-4.11-7.59-6.69,1.77-.72,3.72-.88,5.64-.85,6.74.11,13.42,2.68,18.49,7.13,1.53,1.35,2.93,2.86,4.61,4.02,2.02,1.4,4.38,2.23,6.76,2.85,9.64,2.54,20.09,1.93,29.37-1.73,1.78-.7,3.72-1.52,5.53-.89,1.54.53,2.53,1.98,3.77,3.04,1.72,1.47,4.03,2.22,6.28,2.05"/>
  <g>
    <path class="st7" d="M295.75,209.24s-14.96-16-26.44-13.91c-11.48,2.09-22.61,5.22-24.35,9.04,0,0,6.96,16.7,25.39,16s25.39-11.13,25.39-11.13Z"/>
    <path class="st14" d="M295.75,206.74c-4.71-5.02-10.56-9.7-16.91-12.39-2.09-.89-4.31-1.55-6.59-1.68-3-.17-6.08.74-8.98,1.38-3.36.74-6.71,1.59-9.96,2.72-2.33.81-4.8,1.74-6.76,3.28-.57.45-1.36,1.1-1.58,1.83s-.02,1.77-.02,2.5-.17,1.76.03,2.5c.11.42.4.85.6,1.23,1.29,2.44,2.95,4.71,4.86,6.7,2.91,3.04,6.49,5.42,10.49,6.77,5.43,1.82,11.35,1.56,16.9.41,4.92-1.02,9.71-2.98,13.71-6.06,1.53-1.18,3.12-2.55,4.21-4.18.29-.43.02-1.98.02-2.5,0-.59,0-1.18,0-1.77,0-.15-.09-.63-.02-.73-1.05,1.57-2.58,2.9-4.05,4.06-3.99,3.11-8.77,5.1-13.7,6.15-6.14,1.3-12.7,1.48-18.6-.94-4.2-1.72-7.84-4.62-10.68-8.14-1.46-1.81-2.85-3.83-3.76-5.99v5c.67-1.37,2.06-2.27,3.36-2.98,2.04-1.13,4.26-1.92,6.47-2.62,2.78-.89,5.62-1.59,8.47-2.23,2.57-.57,5.26-1.34,7.9-1.4,3.84-.09,7.6,1.46,10.9,3.3s6.34,4.11,9.2,6.57c1.55,1.34,3.08,2.73,4.48,4.23-.24-.25.02-2.12.02-2.5,0-.59,0-1.18,0-1.77,0-.14.07-.64-.02-.73Z"/>
  </g>
  <path class="st6" d="M287.21,267.29c1.68-.97,2.67-2.85,3.02-4.75s.14-3.86-.06-5.79c-.21-1.92-.41-3.84-.62-5.76-.05-.51-.19-1.12-.68-1.27-.31-.1-.64.05-.93.19-3.64,1.8-7.04,4.09-10.08,6.78-.82.73-1.64,1.51-2.11,2.49s-.54,2.24.09,3.14c.68.96,1.95,1.27,3.1,1.52,3.53.73,5.28,2.84,8.27,3.46"/>
  <path class="st4" d="M174.72,106.43c-2.41,8.11-4.93,20.04-10.12,26.72-3.4,4.38-5.55,8.54-7.08,13.87-1.25,4.33-.99,8.87-.82,13.38.38,9.93,1.23,19.3,4.89,27.69,1.98,4.55,8.28,10.65,12.23,13.65,3.81,2.9,8.46.49,13.19-.25s9.13-2.96,13.08-5.69c2.77-1.92,5.37-4.12,7.38-6.82,3.41-4.59,4.89-10.29,6.29-15.83l1.26-.88c-8.8,1.43-18.12-.65-25.47-5.69s-12.65-12.98-14.49-21.7c-2.53-12.02,1.36-24.53.08-36.76l-.42-1.69Z"/>
  <path class="st6" d="M270.85,260.74c.78-4.2,1.1-8.48.95-12.74-.09-2.66-.49-5.58-2.45-7.38-.83-.76-2.1-1.25-3.07-.68-.34.2-.6.5-.85.8-2.74,3.2-5.48,6.41-8.22,9.61-.15.17-.3.36-.33.58-.06.48.45.8.88,1.01,4.44,2.09,8.64,6.71,13.08,8.8"/>
  <path class="st4" d="M155.8,192.98c5.04,8.25,10.07,16.49,15.11,24.74-6.31,1.32-12.83-.19-19.1-1.7-10.83-2.6-21.66-5.21-32.49-7.81-1.69-.41-3.62-1.02-4.23-2.64,13.93-1.49,27.45-6.61,38.88-14.72"/>
  <path class="st4" d="M188.23,398.71s-14.68.85-32.96-2.76c-.12-.29-.26-.57-.4-.84.7-.08,1.39-.25,2.06-.52,9.45-3.77,19.64-4.69,29.59-6.35,4.66-.78,9.17-1.8,13.65-3.32,2.78-.94,5.62-1.98,8.17-3.44,3.48-1.98-9.98,49.54-11.86,47.48-2.36-2.58-12.22-39.44-15.5-39.85-8.12-1.02,9.23-45.99,1.11-47-6.28-.94-12.48-2.33-18.41-4.61-3.94-1.8-7.65-4-11.15-6.54-4.1-3.34-30.42-13.17-33.75-17.27-.46-.62,21.71,4.81,21.27,4.17.41-.31.8-.65,1.14-.99,2.55-2.55,3.21-5.37,3.65-8.81.52-4.04,1-8.08,1.53-12.12,1.16-8.35,2.58-16.75,4.96-24.85.36,1.57.76,3.11,1.2,4.64,6.14-9.78,13.11-19.03,20.83-27.62,4.44,6.15,2.95,14.54,2.59,22.12-.56,11.99,2.36,24.13,8.31,34.56,7.81-9.16,11.01-7.47,16.69-18.08.08,5.83,0,0,1.87,5.53,2.59,7.65,17.75,21.08,24.53,25.47.77-7.73,11.51-21.71,14.29-28.96,1.58-4.13-18.52-24.13-14.67-26.31,2.96-1.68,63.02,18.34,66.41,18.2,39.71-1.6,34.47,4.01,71.22-10.09l4.16,1.56s-11.79,21.09-18.75,23.17c-6.96,2.08-43.56-10.72-76.27,1.01-3.86,1.39-3.51,7.48-3.95,11.56-.22,1.98-.19,4.09.78,5.83.93,1.66,2.58,2.75,4.18,3.78l26.16,16.89c-8.6.82-17.32.45-25.83-1.08,5.62,1.76,10.54,5.73,14.04,10.54,4.38,6.02,6.77,13.25,8.47,20.5-9.54-6.11-20.1-10.62-31.1-13.3,8.44,7.77,13.67,18.93,14.23,30.39-7.15-3.69-14.3-7.38-21.45-11.07,4.92,8.4,6.51,18.69,4.37,28.18-6.75-5.09-12.3-11.77-16.05-19.34,4.12,17,3.61,36.71-8,49.79-3.86-13.09-7.72-26.17-11.58-39.26-7.29,8.26-5.86,23.16-14.55,29.94-1.65-3.46-10.69-15.15-8.37-18.2-7.99,6.05-17.17,10.52-26.86,13.07,1.28-6.24,4.91-11.97,10-15.8Z"/>
  <path class="st12" d="M394.89,204.46c1.01.05,1.43,2.07,1.73,3.03s.23,1.99.19,3c-.2,5.86,1.38,12,5.45,16.22,4.06,4.22,10.89,6,16.05,3.21,0,0,17.91-11.48,11.17-20.82-6.73-9.34-4.81-9.14-10.6-8.71s-24,4.07-24,4.07Z"/>
  <path class="st1" d="M194.6,218.43c-16.39,9.4-32.44,7.04-49.37,15.44-12.4,6.15-22.91,16.05-29.78,28.06,7.48-5.37,15.94-9.37,24.84-11.73-4.31,12.01-6.53,24.77-6.52,37.53,3.91-5.49,7.86-11.03,12.86-15.54-.77,19.15,2.43,38.45,9.32,56.33.1-10.97.31-22.43,5.47-32.11,14.52,13.86,18.39,36.25,33.07,49.95-4.7-11.79-6-24.91-3.72-37.39,9.32,12.5,18.7,25.05,29.91,35.89,3.96,3.83,8.38,7.56,13.75,8.77-12.5-16.79-17.26-40.16-8.61-59.22l2.21-6.91c-7.31.93-14.13,5.24-18.11,11.44-2.11-7.24.07-15.56,5.47-20.82-8.86.75-17.54,3.52-25.19,8.04.5-9.33,3.51-18.52,8.62-26.35-8.35-.48-16.84,1.92-23.71,6.7-2.53-8.32,2.18-18.19,10.23-21.46,2.64-1.07,5.75-1.66,7.42-3.97-7.04-6.33-17.12-9.13-26.42-7.31,14.02-3.79,27.4-9.94,39.41-18.1l-11.14,2.76Z"/>
  <circle class="st11" cx="281.71" cy="207.22" r="7.72"/>
  <circle class="st12" cx="282.47" cy="207.15" r="4.38"/>
  <path class="st8" d="M215.26,173.91s-25.82-3.3-31.92-12.79c-1.8-2.79-5.11-1.9-8.4-2.3-2.08-.25-4.35-.34-6.08.83s-2.35,4.09-.66,5.31c.81.59,1.89.63,2.9.66,2.9.06,5.81.13,8.71.19-3.37,3.29-8.55,3.66-12.87,5.56-1.44.63-3.01,1.8-2.85,3.37.17,1.69,2.15,2.49,3.83,2.74,3.33.49,6.77.22,9.99-.8-1.31,1.76-3.52,2.6-5.1,4.12s-2.2,4.59-.28,5.64c2.26,1.24,4.6-1.71,7.16-2.03-1,2.15-2.01,4.31-3.01,6.46-.61,1.3-1.1,3.1.06,3.95.47.35,1.09.4,1.67.42,3.38.1,26.81-4.71,29.83-6.24,0,0,2.96-7.63,7.04-15.08Z"/>
  <path class="st3" d="M153.59,219.9c-3.82,1.01-7.78,1.76-11.72,1.44-3.19-.26-6.29-1.21-9.35-2.15-2.61-.8-5.22-1.6-7.83-2.4-.23.53.11,1.13.44,1.6,1.69,2.39,3.77,4.48,5.42,6.89,1.65,2.41,2.87,5.31,2.49,8.2-.02-3.05,2.3-5.6,4.76-7.4,4.04-2.96,8.89-4.8,13.87-5.27"/>
  <path class="st14" d="M256.87,195.79l-26.43,1.83,19.26,13.9s-12.23-5.2,7.16-15.73Z"/>
  <path class="st3" d="M126.97,237c-5.29.09-10.59-.42-15.76-1.52,2.23-.05,4,2.14,4.3,4.36s-.5,4.41-1.28,6.51c-.89-.8-1.78-1.6-2.66-2.4-.02,3.25-.03,6.5-.05,9.75,0,.32-.03.68-.28.87-.37.28-.88-.03-1.24-.33-.68-.57-1.35-1.15-2.03-1.72-1.18,5.24-1.54,10.65-1.07,16,1.08-6.41,4.22-12.26,7.31-17.97.98-1.82,1.98-3.66,3.39-5.17,1.17-1.26,2.59-2.25,3.99-3.24,1.82-1.28,3.64-2.55,5.46-3.83"/>
  <path class="st14" d="M305.38,200.64c2.81,1.59,6.12,3.65,7.79,6.49,1.27,2.15-.32,3.68-2.18,4.82-.97.59-2.05,1.06-3.12,1.43-.16.05-1.29.3-1.32.4s2.84-.46,2.77-.15c0,0-1.16-.72-1.57-.98-.89-.58-1.78-1.17-2.66-1.76-2.38-1.6-4.74-3.24-7.1-4.87-5.2-3.58-10.35-7.49-15.82-10.64-2.2-1.27-5.18-1.28-7.67-1.44-4.28-.28-8.51-.17-12.71.71-1.42.3-3.28,1.46-1.71,2.79s5,.9,6.86.51c2.46-.52,5.29-.11,7.75.16.41.05,1.98.41.33.02-.41-.1-1.66-.86-.41.15s2.74,1.78,4.06,2.66c5.7,3.8,11.31,7.75,16.98,11.6,1.69,1.15,3.37,2.37,5.15,3.36,3.11,1.72,7.33,2.07,10.74,1.21,3.85-.97,13.58-4.23,11.99-9.74-1.16-4.02-6.11-7.07-9.55-9.02-1.98-1.12-4.71-1.1-6.86-.51-1.06.29-3.72,1.65-1.71,2.79h0Z"/>
  <path class="st10" d="M273.76,199.5s-8.27,5.84-3.39,10.22c0,0-8.19-4.4-15.5-4.36-1.04,0-2.07.1-3.05.31-7.85,1.7,10.16-4.29,21.94-6.17Z"/>
  <ellipse class="st10" cx="278.91" cy="203.15" rx="1.78" ry="2.19"/>
  <path class="st0" d="M426.37,212.85c-2.11-2.33-3.8-5.04-4.98-7.95-.1-.26-.21-.53-.43-.7-.44-.35-1.09-.12-1.6.1-5.38,2.33-11.35,3.29-17.2,2.77-.58-.05-1.45.24-1.22.77.09.19.3.29.5.38,1.34.56,2.69,1.12,4.11,1.42,3.26.67,6.67-.11,9.96.4,3.77.58,7.23,2.95,9.14,6.25.92-.97,1.44-2.32,1.4-3.65"/>
  <path class="st9" d="M369.17,267.44c-11.42-.5-22.85-3.12-33.92-5.86-2.13-.53-4.29-1.3-6.49-1.33-5.41-.06-10.87.52-16.21,1.32-4.11.62-8.18,1.47-12.19,2.57-2.27.62-4.96,1.79-6.94,1.84-4.56.1-9.26-1.74-13.39-3.48-8.33-3.51-16.16-8.4-23.53-13.62-.84-.59-1.76-1.16-2.53-1.84-.48-.43.23.28.07.02-.34-.56-.65-1.15-.95-1.74-1.82-3.48-5.56-10.46-2.45-14.09.54-.63-.6-1.16-.98-1.3-3.77-1.39-7.55-2.79-11.32-4.18-1.43-.53-3.59-.42-4.94.31-1.19.64-1.19,1.49.12,1.98,3.77,1.39,7.55,2.79,11.32,4.18l-.98-1.3c-3,3.51-.3,9.49,1.3,13.03.89,1.98,1.65,3.98,3.4,5.28,6.71,5,13.93,9.5,21.44,13.19,9.67,4.75,20.18,8.29,30.83,4.88,7.38-2.36,15.11-3.62,22.84-4.07,1.05-.06,2.11-.1,3.16-.14.35-.01,1.2-.24.35-.01.14-.04.43-.03.58,0-2.84-.52-.52,0,.59.28,12.76,3.26,25.93,6.34,39.13,6.91,1.03.04,3.78-.01,4.24-1.25s-1.79-1.53-2.55-1.57h0Z"/>
</svg>