<?xml version="1.0" encoding="UTF-8"?>
<svg id="ARM_R" xmlns="http://www.w3.org/2000/svg" version="1.1" viewBox="0 0 500 500">
  <!-- Generator: Adobe Illustrator 29.4.0, SVG Export Plug-In . SVG Version: 2.1.0 Build 152)  -->
  <defs>
    <style>
      .st0 {
        fill: #382d26;
      }

      .st1 {
        fill: #302823;
      }

      .st2 {
        fill: #28201c;
      }

      .st3 {
        fill: #ddd5b6;
      }

      .st4 {
        fill: #c9c1a7;
      }
    </style>
  </defs>
  <path class="st0" d="M232.52,303.23c-.43-.22-.86-.41-1.29-.6,0-.01,0-.03,0-.04-.04-.27-.08-.43-.11-.51.02-.52.13-1.21.13-1.39,0,.06,0,.11,0,.16-.09.53-.03.62,0,0,.01-.07.03-.15.04-.24.07-.36.15-.71.24-1.07.2-.81.44-1.61.71-2.41.24-.71.52-1.39.78-2.09-.5,1.34.33-.73.52-1.12.62-1.32,1.26-2.64,1.96-3.91.48-.88,1.03-1.71,1.61-2.52.1-.14.15-.22.17-.26.07-.08.14-.17.23-.28.28-.35.57-.69.87-1.03,1.12-1.29,2.26-2.55,3.35-3.87,1.13-1.37,2.25-2.74,3.5-4.01.27-.28.55-.55.84-.81.04-.03.21-.18.36-.32.23-.15.76-.53.77-.54.31-.19.64-.36.97-.52.3-.15.57-.34.83-.53,4.31,2.34,9.65,4.94,15.53,7.12,14.89,5.52,31.67,16.96,31.67,16.96l25.76,9.71s11.79,9.05,16.52,14.07c4.73,5.02,16.1,16.18,10.68,19.66,0,0,1.35,9.73-3.04,14.26,0,0-8.74-.95-16.43.85,0,0,6.33,14.4-7.02,12,0,0-10.46,2.47-19.79,2.39,0,0-10.28-2.5-10.36-17.79,0,0-12.38-8.3-20.02-12.9,0,0-33.91-8.38-34.53-23.04,0,0-1.37-2.07-4.6-4.6.58-.47,1.11-1.05,1.56-1.74,1.85-2.87.73-7.49-2.37-9.04Z"/>
  <path class="st0" d="M235.53,314.77c-12.52,1.86-63.12-12.03-63.12-12.03l-22.73-9.98s-22.26-59.36-8.81-77.22c13.45-17.86,15.3-85.57,79.77-101.8,0,0,20.41-3.71,32.93,0,0,0,21.33,8.35,19.94,43.6-1.39,35.25-39.42,35.25-39.42,35.25,0,0,2.94,35.42-26.9,65.49,0,0,16.84,15.34,41.77,17.25"/>
  <path class="st3" d="M337.17,352.82c2.44,3.4,4.4,7.14,5.79,11.09.4,1.14.76,2.36.57,3.56-.2,1.24-.97,2.29-1.71,3.3-2.65,3.58-5.29,7.17-7.94,10.75-.97,1.31-1.98,2.66-3.39,3.47-1.41.81-3.35.94-4.58-.13,3-2.77,2.94-7.45,2.62-11.52-.21-2.59-.5-5.37-2.18-7.35-2.08-2.46-6.1-3.55-6.6-6.73-.34-2.23,1.38-4.26,3.27-5.5,4.93-3.24,7.88-5.04,12.79-1.78l1.36.85Z"/>
  <path class="st2" d="M320.25,356.62c-.08-4.22-8.01-16.73-11.74-18.7-3.73-1.97-7.93-2.91-11.69-4.82-3.36-1.71-6.28-4.14-9.14-6.59-3.96-3.38-7.86-6.82-11.71-10.32,3.96,2.08,7.92,4.17,11.87,6.25,5.88,3.1,11.88,6.24,18.41,7.49,1.19.23,2.42.4,3.51.95,1.17.6,2.09,1.59,2.92,2.6,3.23,3.9,10.67,16.25,9.04,21.04l-1.46,2.09Z"/>
  <path class="st2" d="M344.52,351.19c-18.55-12.84,3.4-13.29-23.13-32.64-1.75-1.28-3.56-2.54-4.93-4.22-.61-.75-1.13-1.59-1.91-2.17-1.27-.94-2.96-.99-4.53-1.1-15.54-1.05-28.98-10.75-43.65-16.01,5.03,4.64,10.99,8.13,16.9,11.57,4.25,2.48,8.56,4.99,13.3,6.33,3.96,1.12,8.25,1.45,11.72,3.66,1.73,1.1,5.8,2.96,7.25,4.41,5.68,5.68,9.09,7.03,12.69,12.22.95,1.38,9.62,21.26,10.82,22.43,1.96,1.91,5.02,2.68,8.45-.33l-2.98-4.16Z"/>
  <path class="st3" d="M347.92,337.9c4,2.14,7.93,4.41,11.77,6.8,1.15.71,2.33,1.48,3.02,2.64.79,1.32.82,2.96.64,4.5-.41,3.41-1.79,6.69-3.95,9.36-.83-2.1-1.86-4.41-3.97-5.22-1.03-.4-2.16-.37-3.25-.45-3.79-.29-7.31-2.01-10.71-3.69-1.11-.55-2.29-1.15-2.93-2.22-.8-1.33-.55-3.08.23-4.42s1.99-2.36,3.19-3.34c1.13-.93,2.25-1.86,3.38-2.8,1.02-.84,2.45-1.71,3.54-.98"/>
  <path class="st4" d="M323.01,353.75c1.36-.89,2.56-1.68,3.7-2.27-1.68,3.98-.75,8.98,2.84,12.27.73.67,1.61,1.21,2.43,1.76.27.18.54.35.81.52.01.01.03.02.04.03.14.13.22.19.24.19.05.07.09.15.13.22.12.33.23.67.32,1.02.31,1.12.52,2.27.74,3.4-.24-1.2.06.56.07.82.03.39.04.79.03,1.18-.07.51-.15,1.01-.26,1.51-.06.25-.43,1.45-.36,1.33-.35.89-.77,1.76-1.2,2.62-1.17,2.32-2.53,4.54-3.72,6.84-.07.13-.12.26-.18.4-.99.12-2-.09-2.75-.74,3-2.77,2.94-7.45,2.62-11.52-.21-2.59-.5-5.37-2.18-7.35-2.08-2.46-6.1-3.55-6.6-6.73-.34-2.23,1.38-4.26,3.27-5.5Z"/>
  <path class="st4" d="M341.96,341.84c.4-.33.79-.65,1.19-.98-.17,2.32.6,4.72,2.72,6.93,1.7,1.78,3.97,2.66,6.26,3.39.84.27,1.69.49,2.54.72.27.08.55.15.82.23.05.04.44.2.72.34.34.16.67.4,1.01.54.04.02.07.02.09.03.02.02.03.03.05.05.28.23.56.46.82.71,0,0,.27.27.48.49.18.22.49.61.55.7.22.31.42.63.62.96.51.82.95,1.68,1.37,2.55-.52.95-1.13,1.86-1.81,2.71-.83-2.1-1.86-4.41-3.97-5.22-1.03-.4-2.16-.37-3.25-.45-3.79-.29-7.31-2.01-10.71-3.69-1.11-.55-2.29-1.15-2.93-2.22-.8-1.33-.55-3.08.23-4.42.78-1.34,1.99-2.36,3.19-3.34Z"/>
  <path class="st3" d="M320.57,361.6c1.2,5.37.34,11.18-2.35,15.98-2.69,4.8-7.2,8.55-12.41,10.33,1.15-2.99,2.01-6.14,1.98-9.34-.03-3.2-1.03-6.48-3.2-8.83-.98-1.06-2.18-1.92-2.99-3.11-.74-1.07-1.13-2.37-1.26-3.66-.51-5.13,3.43-10.31,8.51-11.17,5.08-.87,10.52,2.71,11.74,7.71v2.1Z"/>
  <path class="st4" d="M308.84,351.79s.04,0,.06,0c-3.43,6.2-1.21,13.64,1.93,19.86.46.92,1,1.8,1.53,2.69.22.36.43.72.64,1.08.03.1.05.19.08.27-1.1,2.43-2.51,4.7-3.47,7.2-.51,1.33-.86,2.59-1.01,3.85-.9.45-1.83.85-2.78,1.17,1.15-2.99,2.01-6.14,1.98-9.34-.03-3.2-1.03-6.48-3.2-8.83-.98-1.06-2.18-1.92-2.99-3.11-.74-1.07-1.13-2.37-1.26-3.66-.51-5.13,3.43-10.31,8.51-11.17Z"/>
  <path class="st1" d="M140.87,215.54c13.45-17.86,15.3-85.57,79.77-101.8,0,0,20.41-3.71,32.93,0,0,0,21.33,8.35,19.94,43.6-1.06,26.73-23.18,33.19-33.81,34.75-5.21-.9-10.31.35-15.35,2.89-5.01,2.53-10.04,6.15-14.15,9.95-6.22,5.76-9.63,13.06-11.6,20.9-2.74,5.32-4.51,11.09-4.96,17.06-.39,5.23.07,11.05,1.94,16.1-1.4.05-2.78.14-4.15.29-3.04.34-6.08.78-8.75,2.39-3.57,2.15-5.35,6.49-3.95,10.49,1.19,3.4,3.73,6.14,6.28,8.6,2.16,2.08,4.3,4.26,6.58,6.19,7.22,6.1,15.43,11.23,24.37,14.34,7.22,2.51,14.79,3.83,22.1,6.04l-2.54,7.46c-12.52,1.86-63.12-12.03-63.12-12.03l-22.73-9.98s-22.26-59.36-8.81-77.22Z"/>
</svg>