<?xml version="1.0" encoding="UTF-8"?>
<svg id="ARM_L" xmlns="http://www.w3.org/2000/svg" version="1.1" viewBox="0 0 500 500">
  <!-- Generator: Adobe Illustrator 29.4.0, SVG Export Plug-In . SVG Version: 2.1.0 Build 152)  -->
  <defs>
    <style>
      .st0 {
        fill: #59473a;
      }

      .st1 {
        fill: #382d26;
      }

      .st2 {
        fill: #ede6c5;
      }

      .st3 {
        fill: #493a30;
      }

      .st4 {
        fill: #604e42;
      }

      .st5 {
        fill: #c9c1a7;
      }
    </style>
  </defs>
  <path class="st0" d="M101.05,279.52s4.65-46.09,5.42-66.83c.77-20.74,52.4-69.13,52.4-69.13-30.73-19.2-6.83-58.38-6.83-58.38,0,0,22.03-34.57,70.94-3.84,48.91,30.73-4.36,73.74-4.36,73.74,4.61,16.9.77,39.17.77,39.17,2.3,32.26-36.1,70.67-36.1,70.67,61.45-2.3,96.78,26.88,102.93,33.8.51.57,1.21,1.12,2.05,1.64-4.01,4.12-7.28,9.14-9.54,14.02-2.2,4.74-3.8,9.7-3.96,14.96-13.51.57-31.43,7.96-47.7,8.92-19.2,1.13-84.49-24.94-84.49-24.94,0,0-22.28,3.07-33.8,0-11.52-3.07-7.73-33.8-7.73-33.8Z"/>
  <path class="st3" d="M101.05,279.52s4.65-46.09,5.42-66.83c.77-20.74,35.94-68.09,35.94-68.09-13.76-16.22,9.63-59.42,9.63-59.42,0,0,13.82-26.33,53.03-12.6-17.81,3.57-23.81,10.99-29.34,29.16-4.44,14.6-16.94,28.09-7.06,38.61,5.88,6.26,14.62,7.98,22.4,11.2-5.86,2.93-15.22,12.6-20.08,16.99-10.37,9.38-9.94,17.14-17.5,31.44-3.58,6.77-7.46,9.77-10.85,14.86-4.35,6.51-6.72,13.58-7.35,21.37-.55,6.78.56,13.38,2.96,19.49.32,1.46.88,2.87,1.52,4.07.36.68.8,1.31,1.3,1.88,1.88,3.36,4.15,6.52,6.76,9.44,1.31,1.47,2.71,2.86,4.17,4.19-.28.61-.53,1.25-.74,1.93-1.89,5.96,1.72,12.38,7.21,14.7.65.28,1.31.49,1.96.65.19.22.38.43.59.64,6.85,6.8,14.88,12.67,23.64,16.77,15.27,7.14,31.93,10.11,48.74,9.76,8.64-.18,17.27-1.23,25.77-2.69,3.76-.65,7.5-1.41,11.21-2.28,3.24-.76,6.34-1.98,9.56-2.79-.43.81-.83,1.63-1.21,2.43-2.2,4.74-3.8,9.7-3.96,14.96-13.51.57-31.43,7.96-47.7,8.92-19.2,1.13-84.49-24.94-84.49-24.94,0,0-22.28,3.07-33.8,0-11.52-3.07-7.73-33.8-7.73-33.8Z"/>
  <path class="st4" d="M164.83,267.41c1.56-3.18,5.2-7.27,7.65-10.83l.04-.06c3.25-4.55,6.51-9.14,9.03-14.14,3.98-8.19,6.56-16.98,9.59-25.6,1.9-5.74,3.85-11.44,6.27-16.97,1.68-3.93,3.56-7.79,5.09-11.79,3.05-7.93,5.12-17.18,1.26-25.14-1.46-3.29-4.71-6.31-6.39-8.54-1.09-1.46-1.55-2.72-1.1-3.91.42-1.17,1.69-2.31,3.49-3.56,2.77-1.85,6.02-3.86,8.59-6.13,7.83-6.69,12.83-16.38,13.81-26.61.75-7.01.6-14.19-2.73-20.41-1.74-3.31-4.56-6.17-7.56-8.57-1.91-1.62-4.26-3.23-4.99-5.3-.79-4,6.77-3.4,9.78-2.47,2.71.77,5.22,2.12,7.55,3.69,3.06,2.07,5.96,4.4,8.75,7.52,22.15,24.65-.27,50.9-13.52,63.73-.86,1.19-1.12,2.79-1.12,4.39-.01,2.17.22,4.46.39,6.69.84,8.1.78,18.18-.1,26.23-.25,2.78-.4,5.34-.78,8.79-1.62,25.4-24.66,53.84-34.27,63.91-.79.9-2,2.26-.25,2.6.95.29,3.79.29,5.57.33,4.24.05,9.16.21,14.44.73,38.03,3.12,68.58,19.08,83.89,33.21.4.29.86.59,1.35.89-1.98,2-3.78,4.21-5.38,6.53-1.62-.3-3.25-.6-4.87-.91-15.49-7.77-30-17.44-46.11-23.99-4.72-1.91-9.56-3.37-14.31-5.12-4.03-1.43-8.02-2.97-12.11-4.24-11.2-3.52-23.14-3.34-34.72-2.04-3.62.26-8.01.93-6.22-2.89Z"/>
  <g>
    <path class="st0" d="M262,319.45c0-.17,0-.38-.07-.48.01-.4.05-.81.09-1.21.02-.19.18-.76.2-1.07l.02-.06c.27-.9.64-1.74.99-2.61.04-.09.07-.16.09-.23.23-.38.45-.77.68-1.15.49-.78,1.03-1.54,1.59-2.27.58-.75,1.2-1.47,1.82-2.19.03-.03.05-.06.07-.09.07-.06.15-.14.25-.23.35-.33.69-.68,1.05-1.01,1.48-1.39,3.06-2.67,4.71-3.85.39-.28.79-.56,1.19-.82.16-.1.31-.21.47-.31.85-.46,1.67-.98,2.53-1.43,1.53-.8,3.1-1.51,4.73-2.09.37.02.68-.12.68-.16.2-.07.4-.15.56-.18.61-.14,1.22-.25,1.84-.34,9.27,5.85,19.72,10.82,19.72,10.82,0,0,18.46,9.95,26.28,10.47,29.12,1.92,17.06.34,22.83,2.46s16.71,7.97,16.71,7.97l8.99.03c26.43,26.07,10.19,56.93,10.19,56.93-5.03-26.4-29.73-21.55-29.73-21.55,4.33,1.59,3.89,20.59,3.89,20.59,10.68,13.26-5.63,28.69-5.12,27.3.51-1.39-4.28-10.64-4.28-10.64-3.65-7.89-13.55-9.89-13.55-9.89,3.77,12.02-9.8,26.68-9.8,26.68-3.18,8.65-19.33,12.54-19.33,12.54,8.22-6.8-.13-19.69-.13-19.69-4.33-1.59-15.52-30.67-15.52-30.67-7.93-2.91-28.39-25.78-28.39-25.78l2.94-19.15c.97-2.64-4.64-10.61-9.15-16.43-.02-.07-.03-.15-.05-.21Z"/>
    <path class="st3" d="M262,319.45c0-.17,0-.38-.07-.48.01-.4.05-.81.09-1.21.02-.19.18-.76.2-1.07l.02-.06c.27-.9.64-1.74.99-2.61.04-.09.07-.16.09-.23.23-.38.45-.77.68-1.15.49-.78,1.03-1.54,1.59-2.27.58-.75,1.2-1.47,1.82-2.19.03-.03.05-.06.07-.09.07-.06.15-.14.25-.23.35-.33.69-.68,1.05-1.01,1.28-1.2,2.64-2.31,4.05-3.36.68.58,1.36,1.15,2.05,1.7.73.58,1.46,1.15,2.2,1.72-.04,3.17.22,6.33.92,9.45,2.46,11.03,9.77,19.86,20.59,23.52.59.95,1.2,1.89,1.82,2.82-3.02,1.58-5.74,3.69-7.85,6.46-4.03,5.3-4.62,12.77-1.56,18.67,2.14,4.12,5.51,7.31,9.32,9.89,1.81,1.23,3.71,2.36,5.44,3.69.66,1.4,1.2,2.86,1.87,4.24,1.29,2.66,2.82,5.24,4.53,7.65,1.42,2,3.08,3.73,4.91,5.25.39.5.8.99,1.22,1.46,2.26,2.5,5.12,3.95,8.1,4.32.16.08.32.16.49.23.23.11.46.2.7.29.08.07.16.14.24.21.27,1.01.55,2.03.84,3.04.9,3.07,2.18,6.1,5.01,7.94.06.04.13.08.2.12-1.29,1.68-2.21,2.67-2.21,2.67-3.18,8.65-19.33,12.54-19.33,12.54,8.22-6.8-.13-19.69-.13-19.69-4.33-1.59-15.52-30.67-15.52-30.67-7.93-2.91-28.39-25.78-28.39-25.78l2.94-19.15c.97-2.64-4.64-10.61-9.15-16.43-.02-.07-.03-.15-.05-.21Z"/>
    <path class="st1" d="M312.73,357.73c2.24,5.06,4.47,10.12,6.71,15.18.86,1.95,1.79,3.99,3.45,5.33,2.06,1.67,4.87,1.98,7.37,2.86,4.84,1.72,8.74,5.9,10.11,10.86,0,0,6.52,1.39,13.45,4.94,6.93,3.54,1.5-13.8,1.5-13.8,0,0-8.77-8.23-16.28-9.44-7.51-1.21-12.13-7.3-12.13-7.3l-20.63-25.95,6.45,17.32Z"/>
    <path class="st2" d="M312.17,411.69s8.36,12.89.13,19.69c0,0,16.16-3.89,19.33-12.54,0,0,1.59-9.58-7.07-10.83s-12.4,3.69-12.4,3.69Z"/>
    <path class="st2" d="M350.17,396.22c1.89,1.44,3.67,3.34,4.82,5.84,0,0,4.79,9.25,4.28,10.64s15.79-14.04,5.12-27.3c0,0-6.35-7.77-11.68-4.29-5.33,3.48-2.53,15.12-2.53,15.12Z"/>
    <path class="st1" d="M360.49,364.79s-2.23-9.13-12.22-12.53c-10-3.4-14.97-13-14.97-13l-1.85-9.9s6.58,5.98,14.68,7.8c8.11,1.82,15.64,12.66,18.38,16.68,2.73,4.02,15.77,4.65,15.77,4.65,0,0-5.97,7.17-3.12,8.49s-16.68-2.2-16.68-2.2Z"/>
    <path class="st2" d="M375.9,362.91c-3.24,6.04,11.96,11.05,14.32,23.44,0,0,19.07-10.57,2.7-29.47,0,0-6.68-13.26-17.02,6.03Z"/>
    <path class="st4" d="M282.42,298.35c.37.02.68-.12.68-.16.2-.07.4-.15.56-.18.5-.12,1-.21,1.51-.29,5.63,3.85,11.82,7.24,17.61,10.3,8.7,4.52,17.72,8.98,27.25,11.49-.38.08-.76.16-1.14.23-.35.06-.69.12-1.04.17-5.6-1.58-11.16-3.28-16.85-4.54-.78-.17-1.56-.34-2.34-.5-5.48-3.16-11.49-5.33-17.24-8.01-3.99-2.46-8.02-4.85-12.06-7.22,1-.47,2.02-.9,3.06-1.27Z"/>
    <path class="st5" d="M312.17,411.69s1.39-1.83,4.43-2.98c-.09,2.57,1.02,5.15,2.11,7.41.36.76.71,1.52,1,2.31.02.07.14.43.21.64.07.31.18.77.2.85.19.9.28,1.81.38,2.72,0,.07.01.11.02.14-.01.07-.02.17-.04.3-.06.5-.12,1.02-.15,1.51,0,0,0,0,0,.01,0,.02-.02.03-.03.05-.18.38-.29.79-.44,1.19-.05.07-.12.17-.21.29-.1.12-.17.22-.23.3-1.29,1.2-2.36,2.42-3.29,3.79-2.26.78-3.83,1.16-3.83,1.16,8.22-6.8-.13-19.69-.13-19.69Z"/>
    <path class="st5" d="M353.31,396c.72.33-.18.03-.33-.14.24.27.83.54,1.16.76.65.44,1.29.9,1.91,1.38.63.48,1.24.97,1.86,1.47-.85-.68.32.3.57.58.44.48.87.98,1.26,1.5.19.25.35.52.54.76.02.02.03.04.05.06.16.34.31.75.36.87.12.27.2.56.33.82.03.06.05.1.07.13.09.52.16,1.16.17,1.29.06.46.03,2.02.09.41-.05,1.22-.06,2.42-.2,3.64-.06.54-.04,1.06.04,1.57-1.19,1.32-2.03,1.95-1.91,1.62.51-1.39-4.28-10.64-4.28-10.64-1.15-2.49-2.93-4.4-4.82-5.84,0,0-.16-.69-.34-1.77,1.16.53,2.33,1.02,3.48,1.55Z"/>
    <path class="st5" d="M376.59,361.65c.38.63.8,1.24,1.23,1.79,2.16,2.8,5.01,5.07,7.66,7.38.2.17.39.35.59.52.6.77.73.83.62.65.12.12.25.25.36.38.09.1.51.71.7.96.12.23.27.51.3.58.14.3.26.61.38.92-.2-.5.16.61.21.85.58,2.74.66,5.54.95,8.31-3.66-10.69-16.72-15.44-13.69-21.08.23-.44.47-.85.7-1.25Z"/>
  </g>
</svg>