<?xml version="1.0" encoding="UTF-8"?>
<svg id="Layer_1" xmlns="http://www.w3.org/2000/svg" version="1.1" viewBox="0 0 230.32 193.31">
  <!-- Generator: Adobe Illustrator 29.4.0, SVG Export Plug-In . SVG Version: 2.1.0 Build 152)  -->
  <defs>
    <style>
      .st0 {
        fill: #3f2035;
      }

      .st1 {
        fill: #f2dc90;
      }

      .st2 {
        fill: #320a10;
      }

      .st3 {
        fill: #8c2829;
      }

      .st4 {
        fill: #ca6453;
      }

      .st5 {
        fill: #aa5b59;
      }

      .st6 {
        fill: #5b314c;
      }

      .st7 {
        fill: #fec868;
      }

      .st8 {
        fill: #cc7668;
      }

      .st9 {
        fill: #814156;
      }

      .st10 {
        fill: #7d3344;
      }

      .st11 {
        fill: #fed995;
      }

      .st12 {
        fill: #5c2333;
      }

      .st13 {
        fill: #a2433e;
      }

      .st14 {
        fill: #9b474d;
      }

      .st15 {
        fill: #ed976a;
      }
    </style>
  </defs>
  <path class="st6" d="M213.51,134.23c.27,5.63,8.38,14.54,8.01,22.21l-4.37-.73c-.04,1.25,1.78,6.56,1.09,6.92-.94.49-17.52-1.02-21.12-.73-10.86.88-24.1,4.95-34.95,6.55l14.56,1.46c-7.3,5-19.49,5.48-28.76,5.83-9.93.37-19.9.39-29.49-2.18l10.92,5.1-.73,1.46-32.77-2.91-1.82,1.46-2.91-1.82,1.82-1.09c-2.11-.6-4.65-2.43-6.92-2.18.86-1.22.81-2.22.73-3.64,4.23-.68,8.52-.62,12.74-1.46,9.23-1.83,29.57-6.78,37.87-10.19,3.28-1.35,3.01-4.36,5.1-5.1s9.88-.48,13.11-1.46c5.49-1.65,23.25-7.17,26.94-10.19,1.95-1.6.55-3.74,1.46-4.37,1.47-1.01,19.37,2.84,22.94-.36.57-.51-1.62-5.62,6.55-2.55Z"/>
  <path class="st12" d="M197.49,110.2c1.25.35,2.18,1.91,3.64.73,1.52,4.26,2.25,2.97,3.64,5.1,3.47,5.3,10.14,11.11,10.19,17.84,0,.59-1.46.29-1.46.36-8.18-3.07-5.98,2.04-6.55,2.55-3.57,3.2-21.47-.65-22.94.36-.91.62.5,2.77-1.46,4.37-3.69,3.03-21.46,8.54-26.94,10.19-3.23.97-11.04.73-13.11,1.46s-1.81,3.74-5.1,5.1c-8.29,3.42-28.63,8.37-37.87,10.19-4.22.84-8.52.78-12.74,1.46-.06-1.14-.29-2.62-.73-3.64l95.75-40.78c1.24.98-3.17,5.43-3.64,5.83-3.28,2.78-7.54,4.21-11.29,6.19.7,1.45,28.56-6.47,29.13-11.65.18-1.61-2.81-2.42-2.55-4l12.38,2.91c-2.56-7.54-10.54-11.77-17.11-15.66,2.81-.83,6.12.36,8.74,1.09Z"/>
  <path class="st3" d="M40.2,161.9c-.05,0,.28.36-.73.73-4.81-3.05-16.51,2.48-16.75,7.65-.04.94,1.76,4.31,1.46,6.19-.06.37-2.82,3.96-2.91,5.1-3.57-2.2-3.29-7.74-5.1-10.19.87-9.66,1.3-15.32,11.65-18.2,4.22,1.8,10.08,4.62,12.38,8.74Z"/>
  <path class="st11" d="M27.82,153.16c-10.35,2.88-10.78,8.55-11.65,18.2-.63-.86-1.14-1.76-1.46-2.18.78-8.13,2.48-13.87,10.92-16.75.85.28,1.18.3,2.18.73Z"/>
  <path class="st0" d="M169.82,61.41c9.68,7.59,21.19,20.76,26.21,32.04,3.04,6.83,2.98,11.56,5.1,17.48-1.46,1.18-2.39-.38-3.64-.73-5.82-5.58-14.21-7.03-21.12-9.83,3.28-.92,6.39-4.12,1.46-4.73-5.24-7.75-13.99-14.42-22.57-18.2,2.07-2.55,6.99-17.18,7.28-20.39,2.26,1.3,5.27,2.79,7.28,4.37Z"/>
  <path class="st2" d="M43.11,142.97c2.31,1.02,1.52-.99,1.82-.73,1.68,1.47.38,2.48,3.28,4.37,5.21,3.39,11.54,10.27,18.93,7.28.07,1.27,1.48.51,2.18.73,4.13,1.26,15.04,7.67,16.75,11.65.44,1.02.67,2.5.73,3.64.08,1.42.13,2.42-.73,3.64-.76.08-3.85,2.66-6.55,2.91-1.85-1.29-6.18-1.09-8.01,0-5.21.23-13.25-.99-18.2-1.46-.98-.09-.68-.72-.73-.73,2.88-6.18-6.16-11.92-10.92-12.38-.46-.04-.99-.05-1.46,0-2.3-4.12-8.16-6.94-12.38-8.74-1.01-.43-1.33-.45-2.18-.73-1.67-.55-2.38-2.52-5.46-2.18-1.84.2-6.92,4.88-10.19,3.64-1.36-.85,2.07-6.05,2.55-7.28,3.42.11,4.31-1.82,5.83-2.91,1.42-1.02,6.96-5.7,8.01-5.83,1.76-.21,14.33,4.03,16.75,5.1Z"/>
  <path class="st13" d="M52.58,174.28c-3.15-.4-6.59-.02-9.47,1.46-.27-.28-.97-3.15-2.91-1.82.12,3.42.51,5.99,2.18,9.1-.46,1.03.78,4.06-1.82,5.1-.12.05-1.92-1.42-2.18-1.46-.38-.06-.25,2.05-1.46,1.46-.35-.17-1.86-5.72-2.55-7.28-3.76-10.63-.73-12.97,7.28-18.93,4.76.46,13.8,6.2,10.92,12.38Z"/>
  <path class="st11" d="M41.66,161.9c-8.02,5.96-11.04,8.3-7.28,18.93-.29-.64-1.53-1.12-2.18-3.64-1.77-6.83.44-12.05,7.28-14.56,1.01-.37.68-.72.73-.73.46-.05.99-.04,1.46,0Z"/>
  <path class="st9" d="M177.83,95.64c-.4-.05-7.6-.03-8.01,0-2.61-3.66-6.33-6.33-9.47-9.47-2.16-2.16-3.86-4.92-6.55-6.55.1-.08.92-1.52,1.46-2.18,8.58,3.78,17.33,10.45,22.57,18.2Z"/>
  <path class="st1" d="M26.37,137.14v.73c-1.05.13-6.59,4.81-8.01,5.83-3.53,1.33.9-2.78,1.09-2.91,2.15-1.54,4.28-2.98,6.92-3.64Z"/>
  <path class="st8" d="M160.35,86.17c3.14,3.13,6.85,5.8,9.47,9.47-5.03.35-13.06,3.02-18.2,4.37-3.72.97-8.7,1.6-12.01,2.91-9.11,3.6-11.26,12.52-18.57,2.91,2.06-1.48,2.16-4.76,2.91-6.55,10.26-9.12,22.63-13.76,36.41-13.11Z"/>
  <path class="st7" d="M121.03,105.83c7.31,9.61,9.45.69,18.57-2.91,3.31-1.31,8.29-1.94,12.01-2.91l13.47,2.18c-30.82-4.38-50.78,21.09-68.81,41.51-.77-.49-1.88-.27-2.18-2.18,2.47-2,5.58-6.33,8.01-8.74,4.65-4.6,8.99-9.39,13.84-13.84.96-.88,7.21-4.97,7.28-5.46-6.48-8.83-13.21-20.48-10.92-31.68,1.48,2.55,1.09,8.43,2.18,11.29,1.37,3.56,4.29,9.77,6.55,12.74Z"/>
  <g>
    <path class="st3" d="M177.83,95.64c4.93.61,1.82,3.82-1.46,4.73,6.91,2.8,15.29,4.25,21.12,9.83-2.62-.73-5.93-1.92-8.74-1.09,6.57,3.89,14.55,8.12,17.11,15.66l-12.38-2.91c-.26,1.58,2.72,2.39,2.55,4-.56,5.18-28.43,13.1-29.13,11.65,3.75-1.98,8-3.41,11.29-6.19.47-.4,4.88-4.84,3.64-5.83l-95.75,40.78c-1.71-3.98-12.62-10.4-16.75-11.65,2.8-2.08,6.51-2.04,9.47-2.91,7.29-2.16,14.53-4.6,21.85-6.19-2.75-1.65-2.18-.43-4.37-1.82,18.03-20.42,37.99-45.89,68.81-41.51l-13.47-2.18c5.15-1.35,13.17-4.02,18.2-4.37.41-.03,7.61-.05,8.01,0Z"/>
    <path class="st14" d="M138.87,115.3c1.17-.17,2.45.12,3.64,0l.73,1.46-25.85,16.38c2.6-4.12,17.27-17.23,21.48-17.84Z"/>
  </g>
  <path class="st8" d="M94.09,141.51c.31,1.92,1.41,1.7,2.18,2.18,2.19,1.39,1.62.17,4.37,1.82-7.32,1.59-14.55,4.03-21.85,6.19,2.83-3.85,16.89-21.76,10.19-7.65,1.87.63,3.81-1.5,5.1-2.55Z"/>
  <path class="st5" d="M136.32,83.99c-5.54,5.24-9.34,8.04-12.38,15.29-.75,1.8-.85,5.07-2.91,6.55-2.27-2.98-5.19-9.18-6.55-12.74-1.1-2.86-.7-8.73-2.18-11.29-.72-1.24-1.77-1.55-2.91-2.18v-.73c8.95,1.71,17.74,5.47,26.94,5.1Z"/>
  <path class="st8" d="M153.8,79.62c2.69,1.64,4.39,4.4,6.55,6.55-13.78-.65-26.15,3.99-36.41,13.11,3.04-7.26,6.84-10.05,12.38-15.29,2.8-.11,15.53-2.9,17.48-4.37Z"/>
  <g>
    <path class="st0" d="M161.08,36.66c.47,2.18.58,6.98.73,9.47.13,2.23.85,9.58.73,10.92-.29,3.21-5.21,17.84-7.28,20.39-.54.66-1.35,2.11-1.46,2.18-1.95,1.46-14.68,4.25-17.48,4.37-9.21.38-17.99-3.39-26.94-5.1.78-4.44,7.48-.84,9.1-1.46,2.26-.86.93-4.55,1.09-4.73.52-.59,6.96-1.29,8.37-2.55l-2.55-1.82,2.91-1.82c.51-.14,4.74.27,5.1-3.28.22-2.25-2.13-3.69-3.64-4.73l-1.82-5.1,9.1,4-1.46-12.01c.05,3.01,2.53,10.94,4.37,12.38.28.22,1.65,1.49,1.82,1.46,4.23-.77,13.29-28.73,12.01-34.22,3.74,3.45,6.07,6.08,7.28,11.65Z"/>
    <path class="st9" d="M153.8,25c1.28,5.5-7.79,33.45-12.01,34.22-.17.03-1.54-1.24-1.82-1.46,1.52-.47,4.46-7.91,4.37-8.37-.07-.32-1.88-.7-2.18-1.09,1.36-5.56-1.91-25.85-5.1-29.49-1.3-1.48-12.21-7.94-14.56-9.1,9.45,2.41,24.14,8.67,31.31,15.29Z"/>
    <path class="st10" d="M92.63,67.24c14.73,2.22,19.33,1.89,33.13-1.46.95-.23,1.3,1.09,2.55.73l-2.91,1.82,2.55,1.82c-1.41,1.26-7.85,1.96-8.37,2.55-.16.18,1.16,3.87-1.09,4.73-1.62.62-8.32-2.99-9.1,1.46v.73c-5.67-3.13-15.64-3.71-21.12-8.74-8.97-8.25.8-4.18,4.37-3.64Z"/>
    <path class="st5" d="M129.77,58.5c1.51,1.05,3.86,2.48,3.64,4.73-.35,3.55-4.59,3.13-5.1,3.28-1.25.36-1.6-.96-2.55-.73-13.8,3.34-18.4,3.67-33.13,1.46l-6.92-12.38c5.73,4.13,12.39,12.76,20.02,9.83l-2.55-3.28c7.21.52,18.21,3.88,23.67-2.55.97-1.14-3.14-4.57,2.91-.36Z"/>
    <path class="st9" d="M142.15,48.31c.3.39,2.12.77,2.18,1.09.1.46-2.85,7.9-4.37,8.37-1.84-1.44-4.32-9.37-4.37-12.38,0-.55,1.21-4.5,1.09-5.83,1.09,4.21,3.31,5.93,5.46,8.74Z"/>
    <g>
      <path class="st7" d="M102.1,3.89c-4.02.54-14.05,9.38-16.75,12.74-11.65,14.53-11.64,31.39-5.83,48.42-.59-.53-.92-.89-1.46-1.46-6.23-13.46-5.39-28.78,2.18-41.51,2.3-3.87,7.54-10.22,10.92-13.11,1.14-.97,6.13-4.55,7.28-5.1,1.43-.68,2.06-1.42,2.18-1.46.22-.07.5.06.73,0l.73,1.46Z"/>
      <path class="st4" d="M122.49,9.71c2.36,1.16,13.27,7.62,14.56,9.1,3.18,3.64,6.45,23.93,5.1,29.49-2.15-2.81-4.38-4.53-5.46-8.74.12,1.33-1.1,5.28-1.09,5.83l1.46,12.01-9.1-4,1.82,5.1c-6.06-4.2-1.94-.78-2.91.36-5.45,6.43-16.46,3.07-23.67,2.55l2.55,3.28c-7.63,2.93-14.3-5.7-20.02-9.83l6.92,12.38c-3.57-.54-13.34-4.61-4.37,3.64-.43.04-1.41-.07-1.46,0-2.61-1.82-4.92-3.68-7.28-5.83-5.82-17.03-5.83-33.9,5.83-48.42,2.69-3.36,12.72-12.2,16.75-12.74,5.96-.8,15.11,3.23,20.39,5.83Z"/>
      <path class="st15" d="M93.72,30.1c10.42,5.98,21.12,11.62,30.95,18.57-10.73-5.12-21.67-11.1-30.95-18.57Z"/>
    </g>
  </g>
</svg>