<?xml version="1.0" encoding="UTF-8"?>
<svg id="LEG_L" xmlns="http://www.w3.org/2000/svg" version="1.1" viewBox="0 0 500 500">
  <!-- Generator: Adobe Illustrator 29.4.0, SVG Export Plug-In . SVG Version: 2.1.0 Build 152)  -->
  <defs>
    <style>
      .st0 {
        fill: #59473a;
      }

      .st1 {
        fill: #60534c;
      }

      .st2 {
        fill: #ede6c5;
      }

      .st3 {
        fill: #302823;
      }

      .st4 {
        fill: #493a30;
      }

      .st5 {
        fill: #7a685c;
      }

      .st6 {
        fill: #706057;
      }

      .st7 {
        fill: #c9c1a7;
      }
    </style>
  </defs>
  <path class="st0" d="M228.57,243.56c2.3,19.97,19.2,21.51,19.2,21.51,59.15-35.33,49.16-178.21,49.16-178.21,0,0-20.74-60.68-59.91-21.51-39.17,39.17-29.96,89.87-29.96,89.87l6.72,39.58,3.27,19.25s-8.45-9.68-14.59-16.59c-6.15-6.91-13.06,0-13.06,0-9.22,9.99-9.99,32.26,0,47.62,0,0-8.26,7.68-7.2,19.97,1.06,12.29,8.74,34.57,7.2,40.71-1.54,6.15-7.3,59.91-7.3,59.91,0,0-11.5,32.26,7.5,35.33,0,0,93.05,7,108.47,2.1,15.42-4.9,9.62-52.79-18.81-52.79,0,0-10.75-2.3-22.28,0-11.52,2.3-18.01-20.74-18.01-20.74,0,0-14.01-49.17,1.69-66.84"/>
  <path class="st4" d="M182.1,365.69s5.76-53.77,7.3-59.91c1.54-6.15-6.15-28.42-7.2-40.71-1.06-12.29,7.2-19.97,7.2-19.97-9.99-15.36-9.22-37.64,0-47.62,0,0,6.91-6.91,13.06,0,6.15,6.91,14.59,16.59,14.59,16.59l-3.27-19.25-6.72-39.58s-9.22-50.7,29.96-89.87c13.47-13.47,24.75-15.13,33.77-11.52-1.27,1.15-2.53,2.32-3.75,3.5-8.44,8.18-14.74,18.37-19.76,28.91-5.66,11.9-10.58,24.15-13.41,37.05-2.83,12.92-4.19,26.25-4.21,39.47,0,1.62.19,3.2.55,4.71-.13,1.11-.25,2.23-.36,3.34-.52,5.41.38,10.62,1.2,15.98,1.17,7.62,3.13,15.13,5.44,22.48,1.52,4.84,3.23,9.54,5.24,14.2-1.2.44-2.36.95-3.47,1.54-3.65,1.93-6.8,5.67-8.66,9.6-1.66-.58-3.38-.98-5.13-1.18-2.33-2.15-4.77-4.15-7.5-5.82-4.81-2.94-12.03-1.2-14.72,3.86-4.4,8.29-4.7,18.27-3.14,27.34.11.63.36,1.29.7,1.95,0,.11,0,.23,0,.34-.33,3.51-.77,7.01-.95,10.53-.1,1.86-.13,3.73-.02,5.59.2,3.38.53,6.89,1.41,10.16,1.36,5.03,3.59,9.88,6.57,14.15,1.47,2.11,3.02,4.17,4.3,6.39.56,6.85.39,13.73.55,20.61.15,6.49.86,13.38,3.27,19.47,2.72,6.9,6.19,13.48,12.04,18.29,6.04,4.96,12.47,8.53,20.12,10.52,6.82,1.77,14.05,2.43,21.08,2.6,1.31.03,2.6-.09,3.86-.34,4.63,2.43,9.56,4.42,14.63,5.51,5.21,1.12,10.54,1.6,15.84,2.2,1.29.22,2.58.47,3.85.77-.43,7.69-3.2,13.96-8.28,15.57-15.42,4.9-108.47-2.1-108.47-2.1-19-3.07-7.5-35.33-7.5-35.33Z"/>
  <g>
    <path class="st1" d="M274.88,368.65c-1.43-6.74,3.5-13.85,10.07-15.95,6.57-2.09,14.03.26,19.13,4.89,5.1,4.63,8.08,11.23,9.55,17.97,1.43,6.56,1.17,14.33-3.83,18.8-1.96,1.74-4.43,2.78-6.85,3.78-2.41,1-4.81,2-7.22,2.99-1.09.45-2.24.91-3.42.8-1.55-.15-2.81-1.27-3.96-2.33-5.03-4.67-10.18-9.51-13.08-15.72-2.9-6.22-3.06-14.24,1.46-19.4"/>
    <path class="st2" d="M299.36,367.26c3-1.36,6.55-.32,9.42,1.29,5.06,2.82,9.14,7.42,11.15,12.85,2.02,5.43,1.9,11.66-.49,16.93-2.12-3.73-6.61-8.97-10.87-8.41-2.13.28-4.13,4.19-6.25,4.54-4.72.79-9.81-1.46-12.38-5.5s-2.41-9.64.41-13.5c1.19-1.63,2.1-3.6,3.66-4.88,1.54-1.27,2.17-1.96,5.3-3.14"/>
    <path class="st7" d="M292.82,388.86c4.24-1.73,8.57-3.24,13.07-4.1,1.58-.11,3.16-.12,4.74-.01,2.04.38,4.04.88,6,1.54,1.01,1.63,1.89,3.34,2.83,5.02.31,1.16.74,2.26,1.27,3.29-.31,1.28-.73,2.54-1.28,3.74-2.12-3.73-6.61-8.97-10.87-8.41-2.13.28-4.13,4.19-6.25,4.54-4.29.72-8.88-1.08-11.61-4.44.19-.16.38-.33.57-.49.51-.22,1.02-.44,1.53-.67Z"/>
  </g>
  <path class="st3" d="M234.89,310.1s-11.86-23.09-9.8-70.62c0,0,.55,18.81,15.65,22.58,0,0-12.71,28.99-5.85,48.04Z"/>
  <path class="st3" d="M242.53,357.88s-12.22-13.39-10.92-20.08l-9-31.4s2.83,35.52,4.89,38.61c0,0-1.24,17.94,4.53,16.99,5.77-.95,2.63,11.59,10.51-4.12Z"/>
  <g>
    <path class="st6" d="M238.72,369.83c1.06-8.02,6.26-15.38,13.46-19.07,3.51-1.79,7.73-2.73,11.39-1.26,2.89,1.16,5.01,3.64,7.01,6.03,4.26,5.09,8.59,10.28,11.13,16.42,2.16,5.24,2.92,10.94,3.66,16.56.5,3.83,1,7.65,1.51,11.48.11.81.21,1.66-.09,2.42-.31.8-1.02,1.37-1.71,1.89-5.3,4.03-11.8,7.39-18.37,6.3-5.51-.91-10.21-4.84-15.75-5.56-2.57-.33-5.56-.11-7.31-2.02-.82-.9-1.18-2.12-1.49-3.3-2.69-10.1-3.85-20.6-3.42-31.04"/>
    <path class="st2" d="M252.31,384.01c0-9.05,9.15-12.14,9.15-12.14,0,0,8.6-3.23,11.91-2.42,5.33,2.42,6.02,4.27,8.12,6.27,11.11,10.61,5.75,26.87,2.96,38.28-.27-6.02-8.6-18.65-14.63-18.4-5.8.23-.97,3.82-6.77,4.02-1.66.06-3.35-.26-4.78-1.11-.51-.31-.91-.71-1.23-1.17-2.66-3.84-4.73-4.26-4.73-13.32Z"/>
    <path class="st7" d="M262.1,389.39c1.78-1.27,3.63-2.42,5.58-3.4.84-.28,1.69-.53,2.55-.73.51-.02,1.02-.02,1.53,0,.52.12,1.04.26,1.55.42.41.23.82.47,1.22.72.71.66,1.39,1.35,2.03,2.08,3.99,5.8,6.49,12.43,9.59,18.73-.57,2.38-1.18,4.67-1.7,6.78-.27-6.02-8.6-18.65-14.63-18.4-5.8.23-.97,3.82-6.77,4.02-1.66.06-3.35-.26-4.78-1.11-.51-.31-.91-.71-1.23-1.17-.51-.73-.99-1.34-1.45-1.9,2.08-2.1,4.22-4.14,6.5-6.03Z"/>
  </g>
  <g>
    <path class="st5" d="M239.1,400.24s6.24-39.09-6.12-44.51c-12.35-5.42-30.11,0-30.11,0,0,0-16.09,37.12-10.36,46.16,5.73,9.04,42.67,7.74,46.59-1.65Z"/>
    <path class="st2" d="M214.97,374.7c7.15.19,10.91-6.43,14.17-10.36.8-.97,1.69-1.96,2.88-2.34,2.1-.66,4.24.78,5.86,2.27,8.56,7.89,13.49,19.59,13.14,31.23-.15,4.98-1.83,10.7-6.47,12.49-.46-2.51-.3-5.2-1.42-7.49s-4.34-3.86-6.25-2.16c-1.18,1.05-1.32,2.81-1.92,4.27-1.91,4.65-8.67,5.52-12.92,2.84-4.25-2.69-6.44-7.64-7.98-12.42-1.11-3.47-2.02-7.07-1.86-10.72s2.78-7.6,2.78-7.6Z"/>
    <path class="st7" d="M218.36,401.13c2.41-2.77,4.96-5.42,7.76-7.79,1.45-1.01,2.96-1.92,4.54-2.71,1.31-.45,2.64-.81,4-1.09,2.16-.15,4.31-.11,6.47.08,1.56.28,3.1.64,4.61,1.13.17.09.35.18.51.28.09.15.17.31.25.46,1.33,4.02,1.87,8.31,2.45,12.49-1.01,1.8-2.44,3.26-4.4,4.02-.46-2.51-.3-5.2-1.42-7.49-1.13-2.29-4.34-3.86-6.25-2.16-1.18,1.05-1.32,2.81-1.92,4.27-1.91,4.65-8.67,5.52-12.92,2.84-1.62-1.02-2.94-2.38-4.04-3.93.12-.13.25-.25.36-.39Z"/>
  </g>
</svg>