<?xml version="1.0" encoding="UTF-8"?>
<svg id="Layer_1" xmlns="http://www.w3.org/2000/svg" version="1.1" viewBox="0 0 1000 1000">
  <!-- Generator: Adobe Illustrator 29.4.0, SVG Export Plug-In . SVG Version: 2.1.0 Build 152)  -->
  <defs>
    <style>
      .st0 {
        fill: #037193;
      }

      .st1 {
        fill: #f4e0c9;
      }

      .st2 {
        fill: #d8b494;
      }

      .st3 {
        fill: #1197cc;
      }

      .st4 {
        fill: #536183;
      }

      .st5 {
        fill: #fff;
      }

      .st6 {
        fill: #68728f;
      }

      .st7 {
        fill: #3d3338;
      }
    </style>
  </defs>
  <path class="st3" d="M204.83,198.69v131.15l64.71.58c-.72,109.46,2.95,219.21,1.16,328.73l64.71-.58c0,1.5,1.15,1.07,1.16,1.16.14,21.36-.1,42.76,0,64.13,1.79,2.52,53.65-1.09,61.82.58,3.14.64,2.14,2.31,4.04,3.47.16,20.78-.6,41.63.58,62.4h195.28c1.18-20.76.42-41.62.58-62.4l2.31-3.47c17.05,3.21,45.34-1.94,63.55-.58v-64.13c.39,0,.77,0,1.16,0,21.55-.15,43.17.59,64.71-.58-1.79-109.53,1.88-219.28,1.16-328.73l64.71-.58v-131.15h65.86c.15,21.93-.15,43.93,0,65.86.05,7.24-1.38,64.79,1.73,65.86,20.9-3.82,44.25,1.93,64.13-2.31,0,1.1,1.14,1.21,1.16,2.31.08,7.7-3.22,62.84-.58,64.71h65.28c.3,43.93-.87,87.86-1.16,131.72l-64.71,1.73,2.31,65.28-2.31,2.31-65.86-1.73,1.16,131.15-1.16,1.16-65.28-1.16-1.16,64.71-65.28,1.73,2.31,64.13c-.76,0-1.55,0-2.31,0-43.31.28-86.67-.21-129.99,0l.58,65.86c-1-.12-1.05.29-1.16,1.16-65.77-3.52-131.83.21-197.59,0-1.1,0-1.21-1.15-2.31-1.16l.58-65.86-129.99,2.31-2.31-2.31,2.31-64.13-65.86.58c0-.76,0-1.55,0-2.31-.09-7.74,1.3-64.52-1.73-65.86l-64.13,2.31-1.16-1.16,1.16-65.28-65.86-1.73c-.16-21.54-1.01-43.24-1.16-64.71-.05-8.08,3.04-62.62,1.16-65.28l-65.86-1.73c-.28-43.48-.29-87.09,0-130.57l65.86-1.73v-64.13c.08,0-.36-1.12,1.16-1.16,21.92-.48,43.95.83,65.86-.58-2.03-21.17-1.23-42.83-1.16-64.13.08-21.93-.15-43.93,0-65.86h65.86Z"/>
  <path class="st0" d="M600,923.18c-1.06,8.99,1.89,63.1-1.73,64.71h-195.28l-.58-64.71c65.76.21,131.82-3.52,197.59,0Z"/>
  <path class="st0" d="M730.57,856.16l-1.73,65.86h-127.68l-.58-65.86c43.33-.21,86.68.28,129.99,0Z"/>
  <polygon class="st0" points="928.16 596.17 928.16 723.86 863.45 725.59 862.3 594.44 928.16 596.17"/>
  <path class="st0" d="M400.1,922.02c-42.54-.14-85.12.11-127.68,0l-1.73-63.55,129.99-2.31-.58,65.86Z"/>
  <path class="st0" d="M862.3,726.74v62.97l-64.13.58-1.73,65.28c-21.15,1.17-42.39.43-63.55.58l-2.31-64.13,65.28-1.73,1.16-64.71,65.28,1.16Z"/>
  <path class="st0" d="M137.81,725.59l-64.71-1.73c-.12-21.76.16-43.54,0-65.28l65.86,1.73-1.16,65.28Z"/>
  <path class="st0" d="M71.95,593.86l-64.71-1.73c-.11-21.76.14-43.54,0-65.28l65.86,1.73c1.89,2.66-1.21,57.2-1.16,65.28Z"/>
  <path class="st0" d="M930.47,593.86l-2.31-65.28,64.71-1.73c-.14,21.57,2.5,43.6,1.16,65.28l-63.55,1.73Z"/>
  <path class="st0" d="M204.83,790.3h-64.13l-1.73-63.55,64.13-2.31c3.03,1.35,1.64,58.12,1.73,65.86Z"/>
  <path class="st0" d="M268.38,856.16l-63.55-1.73c-.12-20.6.16-41.23,0-61.82l65.86-.58-2.31,64.13Z"/>
  <path class="st0" d="M73.1,330.41v64.13l-65.86,1.73c.15-21.93-.59-43.94.58-65.86,21.75-.33,43.56.44,65.28,0Z"/>
  <path class="st0" d="M928.16,328.1c-19.88,4.25-43.23-1.51-64.13,2.31-3.12-1.07-1.68-58.62-1.73-65.86h65.28c1.17,21.15.42,42.39.58,63.55Z"/>
  <path class="st0" d="M138.97,264.55c-.08,21.3-.87,42.96,1.16,64.13-21.91,1.41-43.94.1-65.86.58l.58-64.71h64.13Z"/>
  <path class="st0" d="M994.02,395.12h-65.28c-2.64-1.87.66-57,.58-64.71l64.71.58c.11,21.37-.15,42.77,0,64.13Z"/>
  <path class="st3" d="M730.57,132.83c21.93.1,43.93-.15,65.86,0l-1.16,65.86h-128.84l-1.73,63.55c-.12,0,.36,2.31-.58,2.31-109.08-.46-218.57-1.88-327.58-1.16l-.58-64.71h-129.99l-1.16-65.86c21.74-.19,43.53.06,65.28,0,.94,0,.46-2.31.58-2.31,1.76,0,.84,2.31,1.73,2.31,42.75-.11,85.51.08,128.26,0l.58-65.86c.39,0,.77,0,1.16,0,64.44-.17,129.17,3.4,193.54,0l4.62,65.86c43.33.14,86.68-.19,129.99,0Z"/>
  <path class="st0" d="M730.57,132.83c-43.31-.19-86.66.14-129.99,0l-4.62-65.86c-64.38,3.4-129.11-.17-193.54,0l.58-65.86h195.28l2.31,67.02h129.41l.58,64.71Z"/>
  <path class="st0" d="M401.26,66.96l-.58,65.86c-42.75.08-85.51-.11-128.26,0-.89,0,.02-2.32-1.73-2.31l.58-62.4c43.31,1.16,86.75-1.04,129.99-1.16Z"/>
  <path class="st0" d="M862.3,198.69h-67.02l1.16-65.86c7.7.05,64.53-1.28,65.86,1.73.11,21.37-.15,42.77,0,64.13Z"/>
  <path class="st0" d="M204.83,132.83l1.16,65.86h-67.02c.05-7.7-1.28-64.53,1.73-65.86,21.37-.14,42.77.19,64.13,0Z"/>
  <path class="st5" d="M336.55,263.4c-21.64.14-43.55,2.29-65.28,1.16.08,21.87-1.59,44.06-1.73,65.86l-64.71-.58v-131.15h131.15l.58,64.71Z"/>
  <path class="st5" d="M795.28,198.69h1.16v131.15l-64.71.58c-.14-21.64-2.29-43.55-1.16-65.28-21.34-1.14-42.76-.46-64.13-.58-.9,0,.03-2.3-1.73-2.31l1.73-63.55h128.84Z"/>
  <path class="st1" d="M731.73,330.41c.73,109.46-2.95,219.21-1.16,328.73-21.53,1.17-43.16.43-64.71.58l-1.16-65.28c-21.87.08-44.06-1.59-65.86-1.73l-.58-64.71c-21.76-.11-43.54.15-65.28,0-21.92-.15-43.94-.15-65.86,0-21.36.15-42.76-.11-64.13,0l-.58,64.71c-21.67.25-43.53,2.21-65.28,1.16.14,21.47-1.66,43.31-1.73,64.71l-64.71.58c1.79-109.53-1.88-219.28-1.16-328.73.14-21.8,1.81-43.99,1.73-65.86,21.74,1.14,43.65-1.01,65.28-1.16,109-.72,218.5.7,327.58,1.16.94,0,.46-2.31.58-2.31,1.76,0,.84,2.31,1.73,2.31,21.37.12,42.79-.57,64.13.58-1.14,21.74,1.01,43.65,1.16,65.28Z"/>
  <polygon class="st7" points="600.58 396.28 664.71 396.85 664.13 462.14 598.85 461.56 600.58 396.28"/>
  <polygon class="st7" points="337.13 396.28 402.42 396.85 401.84 462.14 336.55 460.41 337.13 396.28"/>
  <path class="st5" d="M468.28,724.43h129.41c0,.93,1.17,1.23,1.16,3.47-.16,20.78.6,41.63-.58,62.4h-195.28c-1.17-20.76-.42-41.62-.58-62.4-.02-2.23,1.16-2.53,1.16-3.47h64.71Z"/>
  <path class="st5" d="M665.87,659.73c-.39,0-.77,0-1.16,0-21.93.15-43.93,0-65.86,0h-64.71c-.04-2.9-1.15-2.18-1.16-2.31-.29-20.77.21-41.62,0-62.4,1.1,0,1.21-1.15,2.31-1.16,21.1-.04,42.58-1.29,63.55-1.16,21.8.14,43.99,1.81,65.86,1.73l1.16,65.28Z"/>
  <path class="st5" d="M402.42,592.71c21.21-.24,42.41.01,63.55,1.16l1.16,2.31c.11,20.39-.15,40.85,0,61.24,0,.76,0,1.55,0,2.31h-63.55c-22.25,0-44.71,0-67.02,0,0-.08-1.16.34-1.16-1.16.07-21.4,1.87-43.23,1.73-64.71,21.76,1.06,43.62-.91,65.28-1.16Z"/>
  <path class="st1" d="M403.57,659.73v64.71c0,.93-1.17,1.23-1.16,3.47-1.91-1.16-.9-2.83-4.04-3.47-8.16-1.66-60.03,1.94-61.82-.58-.1-21.37.14-42.77,0-64.13,22.31,0,44.76,0,67.02,0Z"/>
  <path class="st1" d="M664.71,659.73v64.13c-18.21-1.36-46.5,3.79-63.55.58-1.89-.36-.52-2.29-2.31-2.31v-62.4c21.93,0,43.93.15,65.86,0Z"/>
  <path class="st2" d="M601.16,724.43l-2.31,3.47c.02-2.23-1.16-2.53-1.16-3.47,0-.13,1.16.58,1.16-2.31,1.79.02.42,1.96,2.31,2.31Z"/>
  <path class="st6" d="M532.99,528l2.31,65.86c-1.1,0-1.21,1.15-2.31,1.16-19.9.03-40.71-2.95-60.66-1.16-3.09.28-3.12-.65-5.2,2.31l-1.16-2.31,1.16-65.86c21.92-.15,43.94-.15,65.86,0Z"/>
  <path class="st7" d="M598.85,592.71c-20.97-.14-42.46,1.12-63.55,1.16l-2.31-65.86c21.74.15,43.53-.11,65.28,0l.58,64.71Z"/>
  <path class="st6" d="M467.12,528l-1.16,65.86c-21.14-1.14-42.34-1.4-63.55-1.16l.58-64.71c21.37-.11,42.77.15,64.13,0Z"/>
  <path class="st6" d="M532.99,657.42c0,.13,1.12-.59,1.16,2.31.28,21.49.75,43.29-1.16,64.71h-64.71l-1.16-64.71c0-.76,0-1.55,0-2.31h65.86Z"/>
  <path class="st4" d="M598.85,659.73v62.4c0,2.89-1.16,2.18-1.16,2.31h-64.71c1.9-21.42,1.43-43.22,1.16-64.71h64.71Z"/>
  <polygon class="st6" points="467.12 659.73 468.28 724.43 403.57 724.43 403.57 659.73 467.12 659.73"/>
  <path class="st7" d="M532.99,595.02c.21,20.77-.29,41.62,0,62.4h-65.86c-.15-20.39.11-40.85,0-61.24,2.08-2.96,2.11-2.03,5.2-2.31,19.95-1.8,40.77,1.18,60.66,1.16Z"/>
</svg>