<?xml version="1.0" encoding="UTF-8"?>
<svg id="Body" xmlns="http://www.w3.org/2000/svg" version="1.1" viewBox="0 0 500 500">
  <!-- Generator: Adobe Illustrator 29.4.0, SVG Export Plug-In . SVG Version: 2.1.0 Build 152)  -->
  <defs>
    <style>
      .st0 {
        fill: #481224;
      }

      .st1 {
        fill: #320a10;
      }

      .st2 {
        fill: #ef8a4c;
      }

      .st3 {
        fill: #daa08a;
      }

      .st4 {
        fill: #653c47;
      }

      .st5 {
        fill: #ca6453;
      }

      .st6 {
        fill: #f8ceb2;
      }

      .st7 {
        fill: #4f201f;
      }

      .st8 {
        fill: #04040e;
      }

      .st9 {
        fill: #5b314c;
      }

      .st10 {
        fill: #303950;
      }

      .st11 {
        fill: #200309;
      }

      .st12 {
        fill: #cd8f81;
      }

      .st13 {
        fill: #864d4b;
      }

      .st14 {
        fill: #5c2333;
      }

      .st15 {
        fill: #2f1b20;
      }

      .st16 {
        fill: #f4b68d;
      }

      .st17 {
        fill: #7c565e;
      }
    </style>
  </defs>
  <g id="Generative_Object">
    <path class="st8" d="M322.56,93.25l-32.81,22.12c-.03-.45.35-1.55.19-3.1l31.58-21.03"/>
    <path class="st13" d="M273.34,272.17c.97-.22,2.72-.15,3.91-.54-.07.23.02.54-.05.77-1.54,5.01-7.61,13.58-9.71,19.23-1.28,3.44-4.07,9.97-3.91,13.37-9.94,11.88-12.53,30.12-21.24,43.02-6.24,9.22-19.39,18.61-28.69,24.69,1.93-14.95,3.65-29.8,5.8-44.72.97-6.85,2.26-13.93,2.8-20.82l14.76,19.54c2.02.39,1.96-2.12,2.07-2.21,13.29-9.71,25.95-23.74,24.24-41.29.21-.23-.14-1.67.12-1.93,3.06-3.22,7.09-5.62,9.87-9.13h.01s0,.01,0,.01Z"/>
    <path class="st17" d="M309.26,58.16c3.97,11,6.82,22.66,12.27,33.09l-31.58,21.03c-.85-7.89-3.51-15.77-4.8-23.6-.69-4.21-2.81-10.79-2.21-14.9,7.75-2.11,14.89-7.08,20.22-13.16"/>
    <path class="st6" d="M288.35,119.17c-14.43-9.31-34.34-30.03-39.54-46.67-.7-2.22-.72-10.51-1.49-14.07,10.37.81,26.26,12.36,32.16,20.98,1.54,2.26,2.12,8.29,5.66,9.27,1.29,7.81,3.95,15.7,4.8,23.6.16,1.54-.22,2.65-.19,3.1"/>
    <path class="st6" d="M289.76,115.36c1.18,18.05-1.62,30.5-3.66,47.96-21.66-15.23-42.83-33.93-69.1-39.9-.63-1.61-2.05-3.78-2.09-4.01,0-.07-.4.1-.68-1.59-.38-2.3-.07-11.05.07-13.98.3-6.61,2.02-22.03,4.77-27.69.32-.67,1.52-2.76,2.12-2.98.31.47.58.65,1.12.84.07,0,1.36.77,1.5.86,4.87,3.42,11.2,12.03,17.26,16.58,14.37,10.81,31.65,18.91,47.3,27.72"/>
    <path class="st5" d="M217.4,180.94c-2.31-3.98-4.03-5.74-6.36-10.48,10.93,7.04,20.99,9.7,30.72,18.94,12.77,12.13,21.16,30.04,30.74,44.6-4.18,14.94-8.69,29.83-11.27,45.18-.25-.06-.54.02-.77-.05-.64-.18-9.74-3.64-11.76-4.59-11.31-5.34-18.35-13.95-25.36-24.06,1.88-28.86,9.61-42.75-5.92-69.52h-.01s0-.01,0-.01Z"/>
    <path class="st16" d="M216.99,123.42c26.27,5.97,47.44,24.67,69.1,39.9-2.49,21.29-4.08,43.28-10.06,63.9l-44.41-62.51c1.61.66,4.74,2.56,6.17.77-9.21-8.05-15.91-19.69-19.89-31.12-.18-1.42.57-1.74,1.68-2.23l64.7,35.37c-9.57-8.31-53.32-36.46-63.88-36.1-1.87-2.38-2.34-5.26-3.4-7.97h0Z"/>
    <path class="st3" d="M216.51,157.6c6.21,2.01,9.75,4.95,15.11,7.13l44.41,62.51c-.87,2.96-2.59,5.7-2.7,6.05-8.23-18.7-20.19-36.07-34.23-51.02-7.63-8.11-18.52-13.9-23.38-24.71.23.07.54-.02.77.05h.01Z"/>
    <path class="st7" d="M239.09,182.28c14.05,14.95,26,32.33,34.23,51.02-.29,1.05-.81.67-.82.72-9.58-14.56-17.96-32.46-30.74-44.6,2.53-2.83-2.81-3.98-2.68-7.15Z"/>
    <g>
      <path class="st17" d="M289.75,115.39l32.81-22.12c8.6,20.87,5.9,40.87-1,61.72-9.32,28.18-27.46,43.56-35.52,73.64-3.7,13.82-5.06,30.4-8.8,42.99-1.18.39-2.94.32-3.91.54-5.28,1.22-7,8.26-12.08,7.04,2.58-15.36,7.09-30.24,11.27-45.18.02-.06.51.33.82-.72.11-.36,1.85-3.1,2.7-6.05,5.98-20.63,7.57-42.61,10.06-63.9,2.03-17.45,4.84-29.91,3.66-47.96h0Z"/>
      <path class="st15" d="M289.16,163.91c10.29-9.54,21.8-17.51,33.74-24.78-9.34,9.61-22.34,17.19-33.74,24.78h0Z"/>
    </g>
    <path class="st4" d="M261.24,279.18c5.09,1.22,6.81-5.81,12.08-7.04-2.79,3.52-6.81,5.92-9.87,9.13-.25.25.09,1.71-.12,1.93-2.06,2.21-4.57,4.01-6.22,6.62-2.41-1.07,2.04-3.68,2.19-4.14.53-1.52-.72-2.22-.61-2.75.25-1.11,1.94-2.36,1.77-3.78.23.07.52-.01.77.05h0Z"/>
    <path class="st2" d="M217.17,262.57c1.44-.5,2.26-5.31,3.82-5.21,3.43.21,22.68,29.06,29.25,30.51.71.16,2.68-2.07,2.84-2.16,1.85-1,3.58-2.15,5.61-2.77-.13.53,1.12,1.23.61,2.75-.15.47-4.6,3.07-2.19,4.14,1.65-2.59,4.15-4.41,6.22-6.62,1.7,17.54-10.96,31.58-24.24,41.29-4.81-5.1-13.55-15.43-15.77-21.94-3.72-10.87-1.63-28.27-6.14-40.01h0Z"/>
    <path class="st7" d="M222.27,307.14c.14-1.92-1.52-3.99,1.05-4.59,2.21,6.5,10.96,16.84,15.77,21.94-.12.09-.06,2.6-2.07,2.21l-14.76-19.54h.01Z"/>
    <path class="st13" d="M205.72,155.78c1.21-2.82,8.21,1.24,9.99,1.77,4.86,10.81,15.77,16.6,23.38,24.71-.13,3.17,5.21,4.32,2.68,7.15-9.71-9.22-19.78-11.88-30.72-18.94-2.37-4.81-4.78-9.19-5.33-14.7Z"/>
    <path class="st2" d="M253.08,285.7c-1.83-.22-2.53.69-4.26-.26-1.73-.95-25.08-28.08-25.78-29.92-1.23-3.2.22-3.69.3-5.03,7.02,10.11,14.05,18.72,25.36,24.06,2.02.95,11.11,4.41,11.76,4.59.17,1.42-1.52,2.67-1.77,3.78-2.03.62-3.78,1.77-5.61,2.77h0Z"/>
    <path class="st1" d="M284.28,167.5l-64.7-35.37s-.21-.69.82-.72c10.56-.36,54.31,27.79,63.88,36.1h0Z"/>
    <g>
      <path class="st0" d="M242.34,348c-2.22,12.82-17.66,23.75-29.65,27.74.21-1.63.95-2.9.96-3.05,9.31-6.08,22.47-15.47,28.69-24.69Z"/>
      <path class="st8" d="M163.64,267.86c-.43-1-15.84-10.05-18.32-11.98l9.34-13.04-5.38-1.1c2.1-6.18,4.35-12.4,8.81-17.35l-6.24.4c3.22-2.73,6.71-7.92,11.04-9.06,4.12-1.07,1.64-11.17,1.45-13.12-.53-5.26-2.46-18.77-6.64-23.33-4.41-4.79-19.59-10.11-19.59-10.11,10.95-6.4,24.99-16.7,31.97-27.6,8.99,2.58,7.19,21.63,10.15,25.09.5.59,5.5-3.44,6.78,3.52l-1.57.3-9.68-.58-.51,1.91c5.1,9.49,12.99,16.63,13.86,28.04l7.13-2.29c.62,3.68,4.46,14.7,7.97,16.02,3.8,1.44,9.29-1.92,10.97,4.94-1.19,2.46-2.57-2.6-3.33-2.91-5.63-2.34-8.31,6.04-9.66,5.64-.78-2.21-7.85-15.92-8.73-16.46-5.08-3.16.73,14.57-.16,15.53-.48.53-10.49-.93-11.07,3.22-.15,1.1,2.77,2.07,2,5.56-.54,2.39-6.69,6.38-6.8,9.69l4.52-4c2.26,5.93-2.1,8.17-4.26,12.57,6.64-.32,12.65-.38,18.47,3.05,1.28.75,2.27,2.05,3.73,2.56-14.35-3.65-24.26,5.62-33.52,14.69"/>
      <path class="st11" d="M165.87,107.95c1.68-.26,6.89-3.17,8.32-2.61.38.15,20.38,6.42,22.09,7.55,4.52,2.97,12.61,6.4,17.96,4.96.28,1.69.66,1.5.68,1.59-.73,5.36,1.33,10.21,2.98,14.95,3.98,11.42,10.68,23.06,19.89,31.12-1.43,1.8-4.56-.12-6.17-.77-5.37-2.18-8.91-5.12-15.11-7.13l.19-3.1c1.04.19.89,1.53,2.35-.25-8-15.31-40.11-24.19-51.44-36.52l33.8,13.3,8.78,2.47c-10.03-7.78-38.53-13.53-44.33-25.6v.03s.01,0,.01,0Z"/>
      <path class="st14" d="M209.19,72.46c3.53.87,5.83,4.96,9.88,3.7-2.76,5.66-4.48,21.08-4.77,27.69-3.24,3.86-39.49,5.4-40.12,1.47-.26-1.69,33.91-18.41,31.66-22.19-.55-.51-9.47,5.49-10.87,6.34,2.18-7.63,12.16-9.86,14.23-17.02h0Z"/>
      <path class="st12" d="M217.88,134.37c-1.64-4.74-3.71-9.59-2.98-14.95.06.21,1.46,2.39,2.09,4.01,1.06,2.71,1.54,5.58,3.4,7.97-1.03.04-.77.7-.82.72-1.1.5-1.86.82-1.68,2.23h-.01s0,.01,0,.01Z"/>
      <path class="st0" d="M190.67,102.49c.64,3.93,20.38,5.22,23.62,1.35-.13,2.93-.45,11.66-.07,13.98-5.33,1.44-13.43-1.99-17.96-4.96-1.72-1.13-21.71-7.4-22.09-7.55"/>
      <path class="st8" d="M158.72,109.81c.37-.02,5.12-1.59,7.11-1.91,5.81,12.07,34.3,17.83,44.33,25.6l-8.78-2.47-33.8-13.3c11.31,12.34,43.44,21.22,51.44,36.52-1.47,1.78-1.31.44-2.35.25-14.28-2.67-21.55-27.63-27.81,3.77-1.65.11-11.16-17.51-13.18-19.84-1.58-1.81-1.26-2.04-3.8-1.4,4.51-8.76-9.7-14.06-12.55-24.06-.22-.8.39-1.99-.58-3.14h-.01s0-.01,0-.01Z"/>
      <path class="st1" d="M171.88,137.03c2.54-.65,2.22-.42,3.8,1.4,2.01,2.33,11.53,19.95,13.18,19.84,6.25-31.4,13.51-6.46,27.81-3.77l-.19,3.1c-.23-.07-.52.02-.77-.05-1.78-.53-8.78-4.59-9.99-1.77.55,5.51,2.96,9.88,5.33,14.7,2.32,4.74,4.05,6.5,6.36,10.48-3.55,1.71-16.68-4.45-17.01-1.42-.08.83,11.84,12.61,8.92,13.36-4.89-4.33-7.58-13.85-14.3-14.07-.93-6.22-1.3-14.81-7.47-17.93-1.24,3.26,2.47,6.7,2.54,9.48.02.66-2.44,1.22-2.42,1.4.09.81,2.11,3.04,2.14,3.24.54,3.9.59,7.88,1.63,11.76l-6.01-16.3,1.57-.3c-1.28-6.96-6.27-2.92-6.78-3.52-2.96-3.46-1.16-22.49-10.15-25.09.57-.89,1.26-3.47,1.82-4.55h0Z"/>
      <path class="st11" d="M185.4,170.49l6.01,16.3c-1.03-3.87-1.1-7.86-1.63-11.76-.03-.2-2.05-2.43-2.14-3.24-.02-.17,2.43-.73,2.42-1.4-.07-2.78-3.78-6.22-2.54-9.48,6.17,3.13,6.55,11.75,7.47,17.93s.26,13.15,1.21,18.72l-7.13,2.29c-.86-11.42-8.76-18.55-13.86-28.04l.51-1.91,9.68.58h-.01Z"/>
      <g>
        <path class="st1" d="M195.01,178.82c6.71.22,9.42,9.74,14.3,14.07,2.93-.75-9.01-12.55-8.92-13.36.32-3.03,13.46,3.13,17.01,1.42,15.52,26.77,7.79,40.66,5.92,69.52-.08,1.35-1.53,1.83-.3,5.03.7,1.84,23.97,28.94,25.78,29.92s2.43.03,4.26.26c-.15.09-2.14,2.32-2.84,2.16-6.57-1.44-25.82-30.32-29.25-30.51-1.56-.09-2.38,4.71-3.82,5.21-1.58.33-1.41-.82-1.5-.86-2.81-5.95-12.89-11.13-19.52-11.27-5.81-3.43-11.82-3.37-18.47-3.05,2.18-4.4,6.52-6.65,4.26-12.57l-4.52,4c.13-3.31,6.26-7.3,6.8-9.69.77-3.51-2.15-4.46-2-5.56.57-4.14,10.57-2.67,11.07-3.22.89-.96-4.92-18.69.16-15.53.88.56,7.95,14.25,8.73,16.46,1.35.4,4.04-7.97,9.66-5.64.77.31,2.14,5.38,3.33,2.91-1.68-6.85-7.17-3.5-10.97-4.94-3.49-1.32-7.35-12.34-7.97-16.02-.94-5.57-.29-12.54-1.21-18.72h0Z"/>
        <path class="st9" d="M196.14,250.4c6.63.15,16.71,5.31,19.52,11.27-2.93-1.61-13.89-8.23-15.79-8.71-1.46-.51-2.45-1.81-3.73-2.56h0Z"/>
        <path class="st11" d="M194.35,209.12l4.4,17.36c-.63.16-2.82-5.96-3.09-6.8-.55-1.69-2.24-8.77-1.3-10.57h0Z"/>
      </g>
    </g>
    <path class="st10" d="M223.81,74.86c4.83-1.68-5.36-13.74-2.6-14.93l14.42,18.75-5.91-11.62c3.14-.13,4.15,5.85,6.19,6.98.18.11,1.41-1.86,2.42-1.4,1.7.75,3.48,8.85,5.59,10.44l-2.95-9.11c3.05-1.42,3.37,3.3,5.55,4.61l-.77-6.66,2.3.53.77.05c5.2,16.64,25.11,37.37,39.54,46.67-15.66-8.81-32.92-16.91-47.3-27.72-6.06-4.56-12.39-13.17-17.26-16.58h.01Z"/>
    <path class="st13" d="M212.67,375.74c14.15-17.77,13.61-104.1,13.61-104.1,0,0-3.26-16.12-26.42-18.68-23.15-2.56-33.52,14.69-33.52,14.69l-21.05-11.76-17.25,20.22s-11.11,38.79-8.64,49.44c2.48,10.64,43.32,50.01,55.34,53.31,12.01,3.3,37.97-3.12,37.97-3.12h-.03s0,0,0,0Z"/>
  </g>
</svg>