<?xml version="1.0" encoding="UTF-8"?>
<svg id="Layer_1" xmlns="http://www.w3.org/2000/svg" xmlns:xlink="http://www.w3.org/1999/xlink" version="1.1" viewBox="0 0 304.99 277.58">
  <!-- Generator: Adobe Illustrator 29.4.0, SVG Export Plug-In . SVG Version: 2.1.0 Build 152)  -->
  <defs>
    <style>
      .st0 {
        fill: #bc6c69;
      }

      .st1 {
        fill: #3f2035;
      }

      .st2 {
        fill: #6a4d5d;
      }

      .st3 {
        fill: #481224;
      }

      .st4 {
        fill: #c0afbb;
      }

      .st5 {
        fill: #a295a9;
      }

      .st6 {
        fill: #866175;
      }

      .st7 {
        fill: #e32322;
      }

      .st8 {
        fill: #997780;
      }

      .st9 {
        fill: url(#linear-gradient2);
      }

      .st10 {
        fill: url(#linear-gradient1);
      }

      .st11 {
        fill: #320a10;
      }

      .st12 {
        fill: #5d6b81;
      }

      .st13 {
        fill: #b59c9f;
      }

      .st14 {
        fill: #07030c;
      }

      .st15 {
        fill: #f3ce5c;
      }

      .st16 {
        fill: #1d2235;
      }

      .st17 {
        fill: #824158;
      }

      .st18 {
        fill: #f58e5e;
      }

      .st19 {
        fill: #653c47;
      }

      .st20 {
        fill: url(#linear-gradient);
      }

      .st21 {
        fill: #c4b0af;
      }

      .st22 {
        fill: #4d546a;
      }

      .st23 {
        fill: #853a35;
      }

      .st24 {
        fill: #b24a60;
      }

      .st25 {
        fill: #04040e;
      }

      .st26 {
        fill: #aa5b59;
      }

      .st27 {
        fill: #5b314c;
      }

      .st28 {
        fill: #303950;
      }

      .st29 {
        fill: #c5c5d5;
      }

      .st30 {
        fill: #cc7668;
      }

      .st31 {
        fill: #daaeb1;
      }

      .st32 {
        fill: #200309;
      }

      .st33 {
        fill: #7d7387;
      }

      .st34 {
        fill: #976c92;
      }

      .st35 {
        fill: #fff;
      }

      .st36 {
        fill: #eadcde;
      }

      .st37 {
        fill: #fae4db;
      }

      .st38 {
        fill: #fcfb90;
      }

      .st39 {
        fill: #2f2f45;
      }

      .st40 {
        fill: #a97270;
      }

      .st41 {
        fill: #5c2333;
      }

      .st42 {
        fill: #a2433e;
      }

      .st43 {
        fill: #0d0c2c;
      }

      .st44 {
        fill: #8e7e91;
      }

      .st45 {
        fill: #7a8699;
      }

      .st46 {
        fill: #f4be61;
      }

      .st47 {
        fill: #9b474d;
      }

      .st48 {
        fill: #70180f;
      }

      .st49 {
        fill: #d6b7ac;
      }

      .st50 {
        fill: #b5837e;
      }

      .st51 {
        fill: #e3e3e5;
      }

      .st52 {
        fill: #fcfa18;
      }

      .st53 {
        fill: #870904;
      }

      .st54 {
        fill: #9a3043;
      }

      .st55 {
        fill: #806873;
      }

      .st56 {
        fill: #81506b;
      }

      .st57 {
        fill: #1f2233;
      }

      .st58 {
        fill: #7c565e;
      }

      .st59 {
        fill: #150f1c;
      }

      .st60 {
        fill: #70232a;
      }

      .st61 {
        fill: #aa140b;
      }

      .st62 {
        fill: #a58493;
      }

      .st63 {
        fill: #fdfdfd;
      }
    </style>
    <linearGradient id="linear-gradient" x1="-74.7" y1="194.48" x2="-241.03" y2="81.15" gradientTransform="translate(-64.28 401.8) rotate(7.35) scale(1 -1)" gradientUnits="userSpaceOnUse">
      <stop offset=".22" stop-color="#05020b"/>
      <stop offset="1" stop-color="#252739"/>
    </linearGradient>
    <linearGradient id="linear-gradient1" x1="-116.93" y1="256.44" x2="-283.26" y2="143.11" gradientTransform="translate(-64.28 401.8) rotate(7.35) scale(1 -1)" gradientUnits="userSpaceOnUse">
      <stop offset=".22" stop-color="#05020b"/>
      <stop offset="1" stop-color="#252739"/>
    </linearGradient>
    <linearGradient id="linear-gradient2" x1="-152.15" y1="241.77" x2="-95.41" y2="239.07" gradientTransform="translate(-64.28 401.8) rotate(7.35) scale(1 -1)" gradientUnits="userSpaceOnUse">
      <stop offset="0" stop-color="#0d0b18"/>
      <stop offset="1" stop-color="#1d2235"/>
    </linearGradient>
  </defs>
  <g>
    <path class="st14" d="M-179.89.64c-.23,21.03,1.22,33.72-16.6,46.79-4.01-1.74-8.37-3.11-12.08-5.45-.97-.61-2.21-1.32-3.07-2.06,3.47-15.52,14.56-27.48,22.49-40.74,2.43-4.07,4.27-8.63,6.65-12.76.71-1.24,1.31-2.43,2.13-3.62.4,5.92.54,11.89.48,17.85h0Z"/>
    <path class="st22" d="M-246.33,41.56l-6.12,8.66c-3.35-.09-6.78-.67-9.36-2.88-1.12,1.77,2.38,8.38,3.32,8.77,11.16,4.65,16.21-1.83,22.94-7.6-.4,2.2,1.7.91,2.66.9.25,1.39.12,1.09,1.23,1.27,5.42.88,9.5-1.3,13.66,3.99,1.36,3.43-4.95-.09-5.27-.12-1.75-.19-16.94-.04-17.14,1.4-.07.51,2.04.19,1.26,1-4.49,1.6-11,2.39-15.07,4.73-9.33,5.37-17.08,25.4-25.76,27.26-3.13.67-5.75-.85-8.58-.27,1.51,2.88,4.74,1.84,6.79,3.38-1.21.07-1.73.41-3.35.12-5.19-.92-7.09-5.15-10.5-9.14,5.56-3.86,12.44-6.99,16.05-12.38.24-.36,3.1-2.58,1.24-3.18-5.09,4.39-13.04,2.46-18.9,6.46-.5-.28-1.52-.64-2.12-.83,3.4-1.64,7.98-2.44,11.37-4.09,2.64-1.29,25.26-14.42,25.68-15.87.14-.5-3.8-7.36-2.63-9.79.11-.22,2.75-2.02,3.74-3.13l1.68-.06c-1.77,12.2,8.15,3.73,13.16,1.42l.02-.02Z"/>
    <path class="st59" d="M-212.32,19.26c-.6-.16-.5.29-.62.48-.34-.09-.88-.02-1.09-.14-8.11-4.56-14.18.21-21.63,3.88,8.51-15.23,23.16-26.77,28.69-43.56,2.71,5.08,6.2,22.68,4.51,27.55-.68,1.97-9.26,8.34-9.86,11.79Z"/>
    <path class="st22" d="M-211.65,39.92c-6.84-5.94-6.03-12.99-1.29-20.18.12-.18.02-.64.62-.48l29.81-32.85c-2.38,4.13-4.22,8.69-6.65,12.76-7.93,13.26-19.02,25.23-22.49,40.74h0Z"/>
    <path class="st37" d="M-243.95,79.12c-.7,2.13.76,1.88,1.83,3.02-9.67,6.32-14.09,9.37-23.25,16.46-3.61,2.79-5.05,4.43-9.93,3.72-1.26-4.28-8.68-4.92-9.81-10.16,1.62.29,2.15-.05,3.35-.12.58.44,5.63,7.47,6.54,7.52,1.15.05,1.58-3.78,3.3-4.02l3.48,3.23,1.54-1.19c-.21-1.5-1.2-3.03-1.25-3.22-.31-1.21-1.07-3.61-1.62-4.66-.92-1.76-.1.01-1.5-1.31,2.05-1.3,4.7-4.4,7.48-6.26l3.19,5.42c-1.6-.39-2.33-1.32-3.72-1.31,3.71,3.38-1.78,3.82-.68,7.42,1.09-1.46,6.09-4.67,6.59-5.82.11-.26.08-.74.14-1.09,1.78-1.53,3.57-3.03,5.56-4.29.88-.56,1.17-.92,1.23-.95,2.53-1.38,1.88-.87,4.66-1.62.91-.25,1.95-.69,2.88-.74v-.03Z"/>
    <path class="st45" d="M-214.03,19.59c.16,1.06-.39.8-.69,1.02-13.99-2-29.03,10.68-39.68,18.79-1.91-2.3,3.12-5.56,3.72-7.3,4.62-2.95,10.11-6.21,15.01-8.63,7.45-3.67,13.52-8.44,21.63-3.88h.01Z"/>
    <path class="st22" d="M-254.39,39.4c1.78,2.14,2.3.63,4.45.02l9.58-.99c-2.19.69-3.93,2.18-5.96,3.12-5.01,2.31-14.93,10.78-13.16-1.42l-1.68.06c3.84-4.33,5.79-5.09,10.5-8.1-.61,1.74-5.64,5-3.72,7.3h-.01Z"/>
    <path class="st59" d="M-295.6,83.02c-.98-1.15-6.78-6.64-6.85-7.28-.3-3.12,2.23-2.22,3.12-2.66.6.19,1.61.55,2.12.83,6.78,3.77,11.99,1.18,17.66-3.28-3.61,5.39-10.49,8.52-16.05,12.38h0Z"/>
    <path class="st28" d="M-214.73,59.53c1.69.33,6.27-2.02,8.9-2.19,6.61-.43,16.07.94,20.63,6-4.45.83-8.1-2.72-11.63-.39-2.55-.79-13.19-3.89-14.97-2.49-3.08,2.43,14.3,4.14,10.54,6.64-.75.5-10.11-2.2-11.86-.7,2.65-.27,5.92,2.29,7.99,2.7,14.47,2.88,13.69,3.2,27.12,9.61,1,.48,1.72,1.35,2.53-.23.47.79,2.46,1.95,1.49,3.53l-28.77-5.38c1.97,2.77-1.93,1.24-3.49,1.22,1.81,2.44,5.23,3.33,7.64,5.43.81.71,4.76,5.05,4.53,5.87-2.13,1.78-5.08,1.12-7.5,2.09.77-3.43-2.46-2.96-2.66-3.12-5.65-4.56-11.62-8.84-18.9-10.78,2.03.66,7.39-3.74,5.35-4.87-15.24-4.54-30.43-2.77-42.84,6.7-1.91.81-2.7,2.62-3.16,2.93-2.78,1.86-5.43,4.97-7.48,6.26-1.53.97-4.82,2.6-6.51,3.05-1.31.35-2.59.52-3.97.6-2.05-1.54-5.28-.5-6.79-3.38,2.83-.58,5.45.94,8.58.27,8.68-1.85,16.43-21.89,25.76-27.26,4.06-2.34,10.58-3.13,15.07-4.73.78-.81-1.33-.49-1.26-1,.2-1.44,15.39-1.6,17.14-1.4.32.03,6.63,3.56,5.27.12,2.14,2.71.13,4.25,3.26,4.87v.03Z"/>
    <path class="st57" d="M-148.72,56.37c-4.39-1.31-9.09-2.35-13.71-1.49,10.4,6.07,17.57,19.26,19.06,31.09,2.92-5.2.6-12.59-1.33-17.69,9.86,8,10.2,25.77,6.9,37.03-.28.96-1.5,4.88-2.86,4.91,3.14-20.26-9.56-35.15-27.6-42.48-.18-.07-3.89-1.5-3.63.09l-.55-.07c-.12-.15.45-1.17-.06-1.68-1.49-1.47-7.65-1.47-9.16-2.29-1.83-1.01-3.5-7.75-7.22-6.49-2.08-2.14-7.04-3.61-5.72-7.41,4.57-.02,5.87-1.3,10.32,1.89.8.57,1.98,4.49,3.92,4.12.59-2.24-1.45-8.65.89-9.06,1.33-.23,18.2,3.1,20.64,3.78,2.2.61,10.63,3.04,10.1,5.75h.01Z"/>
    <path class="st57" d="M-224.24,77.21c.66.14.91.09,1.09.14,7.29,1.94,13.26,6.22,18.9,10.78.2.16,3.42-.31,2.66,3.12-.33.13-1.74.52-1.75.61,2.86,2.51,7.75,5.37,7.93,9.64-6.38-6.14-15.21-10.44-24.17-10.9l10.9,10.3c-14.74-8.44-40.33-10.46-51.8,4.99-1.68-2.63-1.37-4.9-4.9-7.3,9.17-7.09,13.58-10.14,23.25-16.46,1.43-.94,1.03-.47,2.47-1.91,1.34-1.33,2.25-4.06,2.48-4.13.27-.09,3.77,2.66,5.26,2.35,2.24-.47,2.23-2.34,2.54-2.45.73-.26,1.26,1.28,1.5,1.31,1.17.14,3.45-.13,3.63-.09h0Z"/>
    <path class="st57" d="M-151.01,117.24c-.91,7.84-1.86,12.65-6.37,19.19-.82,1.19-9.84,11.06-10.58,10.87.16-1.81.66-2.14-1.26-1,3.01-10.34,5.53-23.31-1.07-32.66-.39,6.5-2.82,13.28-3.87,19.24-.26,1.5.91,3.05.39,5.61-.12.58-2.71,8.38-3.44,5.12.03-1.13,1.23-4.21-.91-3.73l-5.22,6c-.44-.26-.41-4.22-.73-5.1,1.66-.35,1.62-2.52,2.13-3.62,5.54-11.95,10.45-23.59,5.31-36.85,7.44,2.83,10.06,11.11,12.41,18,.75-.11,1.14-3.75,1.38-4.27.02-.05.96.32,1.13-.13,4.33-11.42,1.29-23.81-1.88-34.99,1.7,1.99,3.61,3.74,5.07,5.94,3.2,4.81,6.75,19.19,7.02,23.15.19,2.77-1.18,7.12.48,9.24h0Z"/>
    <path class="st28" d="M-208.58,41.98c3.72,2.34,8.08,3.71,12.08,5.45-.85.62-2.07,1.12-2.51,2.18.83,1.05,2.93.3,4.41.29-1.32,3.8,3.63,5.27,5.72,7.41,1.86,1.91,3.81,3.76,5.35,5.97-.27.52-1.21-.02-1.68.06-4.56-5.06-14.02-6.42-20.63-6-2.63.17-7.22,2.52-8.9,2.19-.35-10.65-9.92-10.2-18.15-10.13-.96,0-3.06,1.3-2.66-.9,1.38-1.18,2.59-2.62,4.32-3.33,6.34-2.62,15.96-1.98,22.65-3.19Z"/>
    <path class="st59" d="M-181.94,137.16c-.51,1.1-.48,3.27-2.13,3.62-1.07-2.91-3.52-7.85-5.95-9.94,1.85,12,.17,24.39-2.98,36.03-1.41,5.23-3.54,11-6.46,15.57,3.13-17.65,11.14-38.53,4.6-57.23-1.68-4.8-5.28-8.87-7.74-13.23,6.15,3.47,14.52,11.11,17.78,17.31,1.13,2.15.79,6.1,2.88,7.88h0Z"/>
    <path class="st28" d="M-196.83,62.96c9.12,2.81,16.33,7.18,21.35,15.54-.81,1.58-1.53.71-2.53.23-13.43-6.42-12.64-6.73-27.12-9.61-2.07-.41-5.34-2.97-7.99-2.7,1.76-1.5,11.11,1.2,11.86.7,3.76-2.5-13.62-4.21-10.54-6.64,1.77-1.4,12.42,1.7,14.97,2.49h0Z"/>
    <path class="st28" d="M-151.01,117.24c-1.65-2.11-.28-6.47-.48-9.24-.27-3.95-3.82-18.34-7.02-23.15-1.46-2.19-3.37-3.95-5.07-5.94,3.17,11.18,6.21,23.57,1.88,34.99-.17.45-1.1.08-1.13.13,3.16-14.57-.02-34.53-9.6-46.27l.55.07c17.16,9.99,23.05,30.56,20.87,49.4h0Z"/>
    <path class="st28" d="M-153.23,39.67c-5.33-1.09-11.45-1.54-16.69.07-.68.21-7.73,3.15-6.45,4.73,12.81-2.49,26,1.39,37.45,7.06,2.26,1.12,11.55,8.14,12.28,8.26,1.31.21,1.51.26,1.54-1.19l-3.74-5.49c2.34-2.06,2.67.71,4,1.35,10.49,5.08,22.26,10.4,27.2,21.86,2.46-.43.5-2.82,1.93-4.2,2.06,3.71,2.9,5.99,3.11,10.41l-3.62,15.1c-1.77.73-5.73,2.11-7.06,2.98-1.54-10.46,4.13-22.68-8.23-28.86-5.54-2.77-18.39-9.45-23.55-11.38-1.92-.72-6.24-3.02-4.79.49-1.95-1.23-6.72-3.84-8.87-4.48.53-2.71-7.9-5.14-10.1-5.75-2.45-.68-19.31-4.01-20.64-3.78-2.34.41-.3,6.82-.89,9.06-1.94.37-3.12-3.55-3.92-4.12,1.15-5.2-4.48-4.86-2.01-10.27l4.84,3.4c.96-.03,3.24-7.79,3.66-8.98,4.59-.51,9.64-1,14.23-.39,2.63.35,9.18,1.74,10.31,4.11h.01Z"/>
    <path class="st28" d="M-160.47,18.16c-.07,0,.14-.93-1.3-.72-2.08.3-16.35,3.37-16.95,4.21-1.02,1.44-1.56,8.47-2.51,10.8-1.31,3.23-3.78,6.27-5.06,9.08-2.47,5.4,3.16,5.07,2.01,10.27-4.45-3.19-5.75-1.91-10.32-1.89-1.48,0-3.58.76-4.41-.29.43-1.06,1.66-1.56,2.51-2.18,17.82-13.07,16.37-25.76,16.6-46.79,2.87,1.94-.14,13.19,1.24,14.06l30.45-3.3c-.02,2.2-9.63,7.51-10.43,7.55-1.71.1-1.74-.8-1.84-.79h0Z"/>
    <path class="st59" d="M-160.47,18.16c-13.67,1.45-13.45,7-17.31,17.78-.42,1.19-2.7,8.95-3.66,8.98l-4.84-3.4c1.28-2.81,3.75-5.84,5.06-9.08.94-2.32,1.48-9.36,2.51-10.8.6-.84,14.87-3.9,16.95-4.21,1.44-.21,1.22.73,1.3.72h0Z"/>
    <g>
      <path class="st28" d="M-27.69,100.9l10.99,13.93c-2.39,2.34-3.87-1.44-6.04-2.73-2.98-1.77-10.44-6.32-13.24-7.27-5.14-5.76-16.43-5.22-24.13-4.78-10.18.59-33.7,3.52-42.52,8.59-6.49,3.73-9.88,7.93-15.78,12.42-.66-.69,1.83-10.52,2.37-11.93,2.88-7.52,6.18-12.81,13.86-14.71,1.13-.28,10.67-4.6,7.62-8.21-.38-.45-3.14-13.11-5.51-15.16.62,1.35,1.79,1,2.37,2.05-1.43,1.38,2.53,2.77.07,3.2-4.95-11.46-16.71-16.78-27.2-21.86-1.33-.64-1.65-3.41-4-1.35l3.74,5.49c-.03,1.45-.23,1.4-1.54,1.19-.73-.12-10.02-7.14-12.28-8.26-11.46-5.66-24.65-9.54-37.45-7.06-1.29-1.58,5.76-4.52,6.45-4.73l24.34,3.14c-.59-1.87-5.34-2.74-7.65-3.21-1.13-2.37-7.68-3.76-10.31-4.11-4.58-.61-9.64-.12-14.23.39,3.85-10.78,3.64-16.33,17.31-17.78.1,0,.13.89,1.84.79.79-.05,10.41-5.35,10.43-7.55l-30.45,3.3c-1.38-.87,1.63-12.12-1.24-14.06.07-5.96-.08-11.93-.48-17.85.28-.4-.22-2.38,1.27-1.23,1.3,10.9,1.67,21.74,1.61,32.73,11.24-3.13,24.46.83,34.23-6.7-3.53,8.08-12.51,10.18-19.14,14.77,17.28-7.28,35.58-2.54,53.56-1.43l-15.9,6.85c10.11-2.88,20.56-.03,30.15,3.33-6.34.23-12.93.19-18.75,3.14,17.77,2.31,35.48,9.58,48.96,21.33-4.93-.75-10.17-1.08-15.05.28,12.53.91,21.23,5.51,30.52,13.39,3.8,3.22,5.89,8.89,11.52,9.83l-13.43-1.46c11.52,4.5,13.95,15.95,23.13,23.28h-.02Z"/>
      <path class="st12" d="M-115.08,43.48c9.35.57,23.05,2.6,25.84,13.06l-31.99-12.75c1.57-.28,4.63-.41,6.16-.32h0Z"/>
      <path class="st12" d="M-153.23,39.67c2.3.47,7.06,1.34,7.65,3.21l-24.34-3.14c5.24-1.61,11.36-1.16,16.69-.07Z"/>
    </g>
    <path class="st28" d="M-212.93,19.73c-4.75,7.19-5.55,14.24,1.29,20.18.86.75,2.1,1.45,3.07,2.06-6.69,1.21-16.31.58-22.65,3.19.19-1.51,5.64-4.73,5.66-5.11.18-3-6.32,2.4-7.29,2.67-2.07.57-5.69-.2-9.03,1.06-4.75,1.78-6.06,6.55-10.56,6.42l6.12-8.66c2.03-.94,3.77-2.43,5.96-3.12,2.63-.84,5.2-1.71,8.01-1.75,1.17,0,8.61,1.44,8.79.86l-7.37-3.18c5.65-4.12,10.65-9.61,16.23-13.75.3-.22.85.04.69-1.02.21.12.76.05,1.09.14h0Z"/>
    <path class="st22" d="M-279.55,70.63c-5.67,4.46-10.88,7.05-17.66,3.28,5.86-4,13.82-2.06,18.9-6.46,1.86.6-1,2.81-1.24,3.18Z"/>
    <path class="st57" d="M-214.73,59.53c-3.14-.62-1.13-2.16-3.26-4.87-4.16-5.28-8.25-3.11-13.66-3.99-1.11-.18-.97.12-1.23-1.27,8.24-.08,17.8-.52,18.15,10.13Z"/>
    <path class="st15" d="M-224.24,77.21c-.18-.04-2.46.23-3.63.09-.24-.03-.77-1.56-1.5-1.31-.31.11-.3,1.99-2.54,2.45-1.49.31-4.98-2.43-5.26-2.35-.23.07-1.14,2.79-2.48,4.13-2.25-1.54-1.93-1.26-4.3-1.11-.92.06-1.96.49-2.88.74l-.19-2.81c.73-.39,1.39-2.06,2.27-2.49,4.18-2.04,19-3.5,20.51,2.65h0Z"/>
    <path class="st15" d="M-251.75,79.22l.26,2.26c-.07.04-.35.4-1.23.95l-5.29-2.07c-1.69,2.37.15,3.78-.26,6.36-.06.36-.03.84-.14,1.09-.71-.14-1.49-.11-2.19-.28l-3.19-5.42c.45-.3,1.24-2.12,3.16-2.93,4.53-1.91,6.33-.02,8.89.04h-.01Z"/>
    <path class="st35" d="M-277.79,91.43c-2.4,2.7,4.77,8.19,3.48,1.01,1.12,2.45,1.93,1.12,2.87,1.48.2.08.06,2.67,3.28.42.05.19,1.05,1.72,1.25,3.22l-1.54,1.19-3.48-3.23c-1.72.24-2.15,4.08-3.3,4.02-.91-.04-5.95-7.08-6.54-7.52,1.37-.08,2.65-.25,3.97-.6h.01Z"/>
    <path class="st46" d="M-269.78,89.68c-2.41.41-.53,3.05-1.66,4.23-.94-.36-1.74.97-2.87-1.48,1.29,7.19-5.88,1.69-3.48-1.01,1.69-.45,4.98-2.08,6.51-3.05,1.4,1.32.58-.46,1.5,1.31Z"/>
    <path class="st61" d="M-252.72,82.43c-1.99,1.26-3.77,2.76-5.56,4.29.42-2.58-1.42-3.99.26-6.36l5.29,2.07h.01Z"/>
    <path class="st7" d="M-260.6,87.53c.7.17,1.48.14,2.19.28-.5,1.15-5.5,4.36-6.59,5.82-1.1-3.59,4.39-4.04.68-7.42,1.4,0,2.13.92,3.72,1.31h0Z"/>
    <path class="st18" d="M-268.15,94.34c-3.23,2.25-3.08-.34-3.28-.42,1.13-1.18-.76-3.82,1.66-4.23.55,1.05,1.32,3.45,1.62,4.66h0Z"/>
    <path class="st48" d="M-239.64,80.23c-1.44,1.44-1.04.97-2.47,1.91-1.08-1.14-2.53-.89-1.83-3.02,2.37-.14,2.05-.43,4.3,1.11Z"/>
    <path class="st7" d="M-246.82,79.86c-2.78.76-2.13.24-4.66,1.62l-.26-2.26c2.16.04,3.15-1.32,4.73-2.17l.19,2.81Z"/>
    <path class="st22" d="M-214.72,20.61c-5.58,4.14-10.58,9.63-16.23,13.75l7.37,3.18c-.17.58-7.61-.87-8.79-.86-5.83-2.53-12.22,1.19-17.59,2.73-2.14.62-2.67,2.12-4.45-.02,10.65-8.11,25.68-20.79,39.68-18.79h0Z"/>
    <path class="st45" d="M-232.36,36.69c-2.81.04-5.37.91-8.01,1.75l-9.58.99c5.37-1.55,11.76-5.27,17.59-2.73h0Z"/>
    <g>
      <path class="st20" d="M-162.34,237.36c8.54,4.34,17.77,7.68,27.18,9.45-2.27-4.11-4.72-8.41-5.58-10.93-8.37-7.76-8.36-20.73-12.3-29.66-.64-1.46-2.47-2.89-3.3-4.6-.28-.58-.59-1.21-.88-1.78-2.98-5.79-3.21-6.42-3.92-12.74-1.46,2.67-1.91,8.15-1.99,11.14-.07,2.55.76,22.13,3.63,14.93,2.75,6.59,4.5,14.79,8.94,21.17-.42,2.02-7.93-4.18-8.57-4.72-3.9-3.34-6.96-7.88-10.14-11.87-2.13-.47,1.47,9.69,1.7,10.51l5.22,9.11h.01Z"/>
      <path class="st10" d="M-209.88,138.28c.81,2.21,9.88-5.93,10.12-7.31,7.05,18.52-13.12,29.88-11.99,47.66,2.24-3.44,3-8.77,7.43-10.16-2.55,8.31-4.69,18.4-1.75,26.46.25-2.3.74-6.19,3.18-7.37-1.6,9.15.05,18.95,6.36,26.12,1.05-4.01-.47-10.26,2.55-13.29-.96,5.45-.66,11.13.16,16.64,2.25,1.17,4.43,2.48,6.58,3.9,6.16,4.08,11.79,8.94,18.14,12.73,1.95,1.16,3.95,2.27,5.99,3.32-6.46-6.15-16.65-14.15-19.99-21.84-3.12-7.17-3.14-17.11-4.62-24.5-.52-2.59-2.89-5.02-3.46-7.67-1.09-5.12.77-11.87-1.82-16.08-1.41,5.23-3.54,11-6.46,15.57,3.13-17.65,11.14-38.53,4.6-57.23-1.68-4.8-5.28-8.88-7.74-13.23,6.15,3.47,14.52,11.11,17.78,17.31,1.13,2.15.79,6.1,2.88,7.88,5.54-11.95,10.45-23.59,5.31-36.85,7.44,2.83,10.06,11.11,12.41,18,.75-.11,1.14-3.75,1.38-4.27,3.16-14.57-.02-34.53-9.6-46.27-.12-.15.45-1.17-.06-1.68-1.49-1.47-7.65-1.47-9.16-2.29-1.83-1.01-3.5-7.75-7.22-6.49,1.86,1.91,3.81,3.76,5.35,5.97-.27.52-1.21-.02-1.68.06-4.45.83-8.1-2.72-11.63-.39,9.12,2.81,16.33,7.18,21.35,15.54.47.79,2.46,1.95,1.49,3.53l-28.77-5.38c1.97,2.77-1.93,1.24-3.49,1.22,1.81,2.44,5.23,3.33,7.64,5.43.81.71,4.76,5.05,4.53,5.87-2.13,1.78-5.08,1.12-7.5,2.09-.33.13-1.74.52-1.75.61,2.86,2.51,7.75,5.37,7.93,9.64-6.38-6.14-15.21-10.44-24.17-10.9l10.9,10.3c-14.74-8.44-40.33-10.46-51.8,4.99-1.68-2.63-1.37-4.9-4.9-7.3-3.61,2.79-5.05,4.43-9.93,3.72-.18-.03-.36-.05-.55-.07l-5.2,1.55c3.15,11.59,13.79,15.9,25.02,12.96-8.21-1.64.43-9.67,4.05-11.99,27.09-17.37,53.22,4.73,42.1,33.51v-.02Z"/>
      <path class="st28" d="M-194.98,80.99c4.68,2.06,7.8,6.19,9.43,10.95l-9.43-10.95Z"/>
    </g>
    <path class="st28" d="M-148.72,56.37c2.15.64,6.92,3.25,8.87,4.48,17.86,11.27,20.86,33.73,9.62,50.45.35-7.07.88-14.43-2-21.11-1.05-.09-2.51,11.43-3.1,13.22-1.32,4.02-4.15,7.21-5.82,10.65l-1.2.68c.82-1.56,1.42-2.72,1.69-4.51,1.36-.03,2.58-3.96,2.86-4.91,3.3-11.26,2.97-29.04-6.9-37.03,1.93,5.1,4.25,12.49,1.33,17.69-1.49-11.83-8.66-25.02-19.06-31.09,4.61-.86,9.32.18,13.71,1.49h0Z"/>
    <path class="st59" d="M-140.65,110.24c-.28,1.79-.87,2.95-1.69,4.51l1.2-.68c-2.31,4.76-9.16,19.43-12.44,23.14-1.49,1.69-2.41.81-3.79-.77,4.51-6.55,5.46-11.36,6.37-19.19,2.18-18.84-3.71-39.41-20.87-49.4-.26-1.59,3.44-.16,3.63-.09,18.05,7.33,30.74,22.23,27.6,42.48h-.01Z"/>
    <g>
      <path class="st9" d="M-103.27,100.6c-3.84,2.52-8.02,8.49-9.97,12.61-.36.23-.56.44-.62.48-10.77,5.16-21.46,13.19-27.52,23.69-4.59,5.92-10.95,12.31-15.15,18.34-.43.62-7.09,10.33-4,9.49l10.42-13.95c-.28,2.57-2.64,4.45-3.38,6.79-4.29,3.41-4.81,9.87-5.26,14.89-1.46.38-.72-2.1-1.61-.49-2.54,4.64-1.32,9.74-.78,14.63-1.46,2.67-1.91,8.15-1.99,11.14-.07,2.55.76,22.13,3.63,14.93,2.75,6.59,4.5,14.79,8.94,21.17-.42,2.02-7.93-4.18-8.57-4.72-3.9-3.34-6.96-7.88-10.14-11.87-2.13-.47,1.47,9.69,1.7,10.51l5.67,9.91c-6.32-6.29-17.65-14.84-21.21-23.03-3.12-7.17-3.14-17.11-4.62-24.5-.52-2.59-2.89-5.02-3.46-7.67-1.09-5.12.77-11.87-1.82-16.08,3.15-11.64,4.83-24.03,2.98-36.03,2.42,2.1,4.88,7.03,5.95,9.94.32.88.3,4.84.73,5.1l5.22-6c2.13-.48.94,2.6.91,3.73.73,3.27,3.32-4.54,3.44-5.12.52-2.56-.65-4.11-.39-5.61,1.05-5.96,3.48-12.74,3.87-19.24,6.6,9.36,4.08,22.32,1.07,32.66,1.92-1.14,1.42-.81,1.26,1,.74.19,9.76-9.68,10.58-10.87,1.38,1.58,2.3,2.46,3.79.77,3.27-3.71,10.13-18.38,12.44-23.14,1.67-3.44,4.5-6.62,5.82-10.65.59-1.79,2.04-13.32,3.1-13.22,2.89,6.68,2.35,14.04,2,21.11,11.24-16.71,8.24-39.17-9.62-50.45-1.45-3.51,2.87-1.21,4.79-.49,5.16,1.93,18.01,8.61,23.55,11.38,12.36,6.18,6.69,18.41,8.23,28.86h.02Z"/>
      <path class="st57" d="M-115.14,74.05c3.28,3.12,9.27,8.7,9.08,13.68-.16,3.92-8.38,16.65-9.56,13.78,3.91-4.74,5.82-11.24,4.45-17.22-.46-2.02-6.2-8.98-3.96-10.24h0Z"/>
    </g>
    <path class="st59" d="M-223.15,77.35c-.18-.05-.43,0-1.09-.14-1.5-6.15-16.33-4.69-20.51-2.65-.88.43-1.54,2.09-2.27,2.49-1.58.85-2.57,2.21-4.73,2.17-2.56-.05-4.37-1.94-8.89-.04,12.41-9.48,27.6-11.25,42.84-6.7,2.03,1.13-3.33,5.53-5.35,4.87Z"/>
    <g>
      <path class="st14" d="M-231.23,45.17c-1.73.71-2.95,2.16-4.32,3.33-6.74,5.77-11.78,12.25-22.94,7.6-.93-.39-4.44-7-3.32-8.77,2.57,2.21,6.01,2.78,9.36,2.88,4.49.13,5.81-4.64,10.56-6.42,3.34-1.26,6.97-.49,9.03-1.06.97-.27,7.48-5.68,7.29-2.67-.02.38-5.47,3.6-5.66,5.11Z"/>
      <path class="st52" d="M-238.41,44.8c-1.67,3.43-2.74,7.32-5.72,9.83-13.83,3.88-2.41-9.89,5.72-9.83Z"/>
      <path class="st53" d="M-244.12,54.63c2.97-2.51,4.04-6.4,5.72-9.83.06,0,.3-1.14,1.13-.13-1.79,3.87-1.74,8.53-6.85,9.96Z"/>
    </g>
  </g>
  <g>
    <path class="st47" d="M218.35,191.2c-10.78,2.14-24.52,1.5-31.27,11.95l-22.13-17.57c-1.19-12.96-7.32-20.66-18.27-26.7.78-4.47,10.45-3.81,14.4-4.92,4.59-1.29,9.54-2.86,13.7-5.27.3-3.08-17.61-8.92-19.67-10.19-1.54-.94-2.97-2.19-1.76-4.22,21.86,6.45,56.77,35.68,65,56.92Z"/>
    <path class="st19" d="M146.68,158.88c-1.76-.97-3.8-2-5.62-2.81-.05-.1-1.45-1.6-1.41-1.76,1.46-2.69,11.82-5.99,12.65-7.03.31-.38.19-6.84,2.81-8.78,2.06,1.27,19.97,7.1,19.67,10.19-4.16,2.41-9.12,3.98-13.7,5.27-3.96,1.11-13.62.45-14.4,4.92Z"/>
    <path class="st41" d="M218.35,191.2c.86,2.22,1.71,4.67,2.11,7.03-1.93-.37-1.79.39-2.81,1.41-2.22-9.85-26.68-.59-30.92,5.62l-21.08-17.57c-.02-1.35-.64-1.47-.7-2.11l22.13,17.57c6.75-10.45,20.49-9.81,31.27-11.95Z"/>
    <path class="st58" d="M220.46,198.23c2.57,15.22-1.64,27.82-10.54,40.05h-.7c.75-1.97,1.22-9.47,2.11-12.65,1.09-3.9,6.85-23.64,6.32-26,1.02-1.02.88-1.78,2.81-1.41Z"/>
    <g>
      <path class="st25" d="M273.16,189.79c-.98.92-3.32,4.83-4.92,6.32-6.29,5.9-13.72,8.93-20.38,16.16-7.49,8.15-11.69,18.07-14.76,28.81-.08.02-1.28.62-1.41.7-4.28-1.78,5.59-12.13,3.16-13.35l-14.05,16.16,5.97-10.19c-2.83-.29-4.06,5.06-5.97,5.97-.17.08-1.17-1.76-2.11-1.41-1.57.59-3.62,7.81-5.62,9.13l3.16-8.08c-2.69-1.45-3.24,2.8-5.27,3.86l1.05-5.97-2.11.35c8.9-12.24,13.11-24.83,10.54-40.05-.4-2.36-1.25-4.8-2.11-7.03-8.23-21.24-43.14-50.46-65-56.92-1.21,2.03.22,3.27,1.76,4.22-2.62,1.94-2.51,8.4-2.81,8.78-.83,1.04-11.19,4.33-12.65,7.03-.05.15,1.35,1.66,1.41,1.76,1.63,2.98,5.39,6.23,7.73,8.78l-15.81.35,4.92,7.03c-3.47-1.17-7.13,1.47-10.54,1.41s-13.21-3.63-15.46-2.81c-2.29,1.47,2.04,3.78,2.11,5.62-8.8-4.15-15.74-2.59-24.94-.7-.78-1.4.5-.9.7-2.11,8.93-3.94,21.11-6.92,30.92-6.32-3.82.58,1.51,2.09,1.76,2.11,1.65.09,10.75.33,10.89-.35-1.5-.08-5.75-3.06-6.32-3.16l-1.41-3.51c2.03-.35,6.56-1.88,8.43-2.81.39-.2,2.48-.81,1.76-1.41-5.43-.5-10.1-3.34-15.11-4.92,5.47-2.47,12.49-1.85,18.27-2.81,1.39-.23,3.26-.97,4.92-1.05-7.26-4.52-16.09-4.67-23.89-8.08,9.6,1.27,14.52-1.23,22.49-5.62,8.4-4.63,17.43-12.58,23.89-19.67,2.01-2.21,5-3.86,5.97-7.03-6.51,1.77-13.04,3.92-19.32,6.32v-.7c.14-.74.44-2.23.7-2.81.18-.41,3.27-3.62,1.05-4.22-5.03.99-10.13,1.57-15.11,2.81-.53.07-.77-.17-.7-.7l16.16-17.92c-1.3-.9-5.05,1.14-6.32,1.76l-1.41-2.11c4.14-1.78,11.11-5.72,14.76-8.43,6.33-2.13,12.23-7.46,18.27-9.84,7.81-3.07,15.92-3.95,24.24-4.92-5.63,4.52-13.78,6.88-16.86,14.05,14.46-2.98,30.84-4.63,44.27,1.41-7.84,1.21-16.97,2.28-22.84,8.08,15.58-.03,30,3.96,42.86,12.65-6.43-.49-13.04-.95-18.97,2.11,15.27,3.95,26.16,13.3,37.24,23.89l-14.76,1.41c9.24,9.69,14.39,21.07,18.27,33.73l-5.62-1.41,4.92,25.65Z"/>
      <path class="st43" d="M199.38,144.82l1.41,7.38c-2.31-2.22-5.01-1.58-5.27-1.76-.82-.57-13.22-13.54-13.7-14.4-.95-1.69.3-1.07.7-2.46,3.61,2.9,13.54,6.21,16.86,11.24Z"/>
      <path class="st39" d="M253.48,214.39c-1.71-.58-3.88.02-5.62-2.11,6.65-7.24,14.08-10.26,20.38-16.16l-14.76,18.27Z"/>
      <path class="st17" d="M127,165.9c.58.1,4.82,3.09,6.32,3.16-.14.68-9.24.44-10.89.35-.25-.01-5.57-1.53-1.76-2.11.73.04,2.41,1.32,3.86.7l-1.41-2.11c1.23.14,2.71-.21,3.86,0Z"/>
      <g>
        <path class="st39" d="M199.38,144.82c-3.33-5.03-13.25-8.34-16.86-11.24-3.51-2.83-6.46-9.78-11.95-11.59l9.13-2.11-7.73-3.51c1.19-.79,5.58-5.82,5.97-5.97.46-.17,9.38-.18,9.84,0s2.37,6.79,7.03,5.62c.14-.04-.72-2.78,2.11-2.11s8.41,6.82,11.95,7.73l-.7-6.32c1.14.59,6.6,4.9,7.03,4.92,1.11.05.28-2.8,1.41-2.81,1.56,0,16.02,11.63,17.92,13.7,13.7,14.94,18.55,36.28,17.57,56.21-7.14-6.27-2.11-17.67-7.38-25.65-3.39,19.56-2.16-.87-8.78-3.16.09,1.64,4.2,12.96,1.76,13l-3.51-7.03-2.11,4.22-2.46-6.68c-3.52-1.72-.61,2.89-3.86,2.46l-5.62-8.43c-2.9-.11.97,6.84.35,8.08-4.33-1.56-7.04-4.99-9.84-8.43.66-.98,11.31.39.35-6.68l-.7,5.62-10.89-9.84Z"/>
        <g>
          <path class="st16" d="M219.4,123.74c7.43,1.06,2.98,4.76,3.16,5.97.08.51,5.46,3.67,3.86,5.97-6.27-1.78-4.91-7.16-7.03-11.95Z"/>
          <path class="st25" d="M225.02,137.8c2.09-1.62,6.67,8.2,2.81,8.43-1.95.12-3.64-7.79-2.81-8.43Z"/>
          <path class="st25" d="M207.46,128.66c.52-.04,7.46,6.6,4.92,8.43-.76-.46-8.69-8.14-4.92-8.43Z"/>
          <path class="st25" d="M229.24,151.15c.77,1.18,5.92,7.38,4.22,8.43-2.4,1.49-6.05-6.29-4.22-8.43Z"/>
          <path class="st25" d="M240.48,149.74c2.33-1.5,5.84,6.12,2.81,7.73l-2.81-7.73Z"/>
          <path class="st25" d="M214.48,144.12c3.28-1.09,3.77,3.84,2.81,5.62-.66-.85-5.86-4.61-2.81-5.62Z"/>
          <path class="st25" d="M190.59,131.47c.95.67,6.3,6.07,4.22,7.03l-4.22-7.03Z"/>
          <path class="st25" d="M198.32,134.99c1.17-.08,6.09,4.74,4.22,5.62l-4.22-5.62Z"/>
          <polygon class="st25" points="189.19 120.23 192.7 122.34 192 124.45 189.19 120.23"/>
        </g>
      </g>
    </g>
    <g>
      <path class="st17" d="M119.97,85.8c-2.13,3.6-5.16,8.95-7.03,12.65-.04.08-1.19.47-1.41,1.05,1.67,1.3,1.32-.98,1.41-1.05,2.32-2.01,6.27-7.41,9.13-6.32-.18,1.73.66,2.14.7,2.81.13,2,.34,3.05.7,4.92.32,1.66,1.05,3.13.7,4.92-2.83,1.46-5.25,4.04-8.43,4.92.12-.31,2.36-4.86.35-4.92-14.54,3.17-33.42,31.6-46.73,18.27,2.64.09,3.65-2.08,3.86-2.11.48-.06.22,1.48.7,1.41,2.65-.4,6.59-.16,8.08-2.81,9.91-2.55,7.59-8.9,11.24-14.76,3.18-5.09,7.09-9.85,10.54-14.76.56-.8,1.13-3.62,2.11-4.92,5.95-7.95,11.96-13.04,19.67-18.97.19,1.87.96,1.23,0,3.16-1.56,3.14-12.07,13.8-12.65,15.46-.04.12.51,1.84.35,2.46,2.33.98,5.98-7.23,6.68-1.41Z"/>
      <path class="st26" d="M105.92,85.1c-.98,1.3-1.55,4.12-2.11,4.92-3.24,1.66-10.8,13.06-13,14.05-.1.05-1.3-1.45-1.41-1.41-3.22,1.35-7.16,2.32-9.84,3.51-7.17,3.19-13.29,13.9-20.03,7.03.21-.6.59-1.61.7-2.11,3.32-2.34,5.72-5.83,8.78-8.43,5.19-4.41,11.37-6.11,12.3-13.35,1.6-1.18,2.83-3.17,4.92-3.51-.22.49-1.67,4.02-1.05,4.22.88-.57,3.74-4.15,4.22-4.22,1.86-.27,1.96,1.34,3.16,2.11.37.24-1.2,1.1-.35,1.41,2.62.94,10.33-4.1,13-5.62.12.58-.34,1.43.7,1.41Z"/>
      <path class="st21" d="M180.4,73.15c-6.04,2.37-11.94,7.71-18.27,9.84,1.81-1.34,4.12-4.53,7.03-5.27.08-2.83-15.48,3.82-17.22,4.57-2.88,1.24-15.25,8.96-16.16,9.13-.25.05-2.97-2.35-4.57-2.11,30.66-14.81,66.7-26.81,81.86-60.43-2.43,18.86-19.04,32.56-32.67,44.27Z"/>
      <path class="st24" d="M59.54,107.58c-.04.37,1.11,1.74.7,3.51-.11.5-.5,1.51-.7,2.11-.16.47-3.84,3.6-3.51,4.57,4.15.4,7.43,3.62,10.54,4.57.21.07.48-.06.7,0-2.55,3.23-9.35,2.14-13.7,3.51-2.25.71-4.97,3.55-7.73,3.51l-1.05,1.05,3.51,7.03c-5.46-1.48-6.09,4.9-7.38,5.27-.43.13-7.41-2.1-8.78-2.11,3.08-2.74,10.1-11.71,5.62-14.76.89-.14,15.95-7.2,16.16-8.08.09-.38-2.08-4.53-1.41-7.73.64-3.02,7.5-6.61,8.08-10.89.96.58-.9,7.04-1.05,8.43Z"/>
      <path class="st41" d="M37.76,125.85c4.48,3.05-2.54,12.01-5.62,14.76-3.66,3.25-9.19,4.42-12.65,8.08,10.84,7.27,24.2,2.83,35.84.35-2.04.58-3.96,2.26-5.62,2.81-1.77.59-4.01.88-5.62,1.41-3.77,1.22-7.45,2.36-11.24,3.51-.74.22-1.41.49-2.11.7s-1.36.48-2.11.7-2.46,1.3-2.81,1.41c-1.81.52-4.12.12-5.97,0l-.35,5.62c-1.71-4.24-5.89-8.4-6.32-9.49-1.54-3.85-.75-14.02-4.92-18.27-.05-1.94,1.62-.1,2.11.35,1.25,1.16,6,8.29,7.38,8.43,2.64-.56,5.01-5.3,6.68-6.32.54-.33,3.33.33,3.86,0,4.69-2.9,8.17-6.28,5.27-11.95.16-.07,1.79-1.93,2.81-2.11.45-.06.96.07,1.41,0Z"/>
      <path class="st21" d="M171.97,53.48c-10.72,4.37-20.84,11.73-30.57,18.27-.37.25-2.11-.24-2.46,0-.86-.42-1-.67-2.11-.7,26.21-14.24,41.71-37.88,62.19-58.32,2.09.26.8.94.35,1.76-4,7.32-21.66,32.39-27.4,39Z"/>
      <path class="st6" d="M137.54,65.42c-8.28,2.26-13.34,13.21-17.57,20.38-.69-5.83-4.35,2.39-6.68,1.41.16-.62-.39-2.34-.35-2.46.58-1.66,11.09-12.32,12.65-15.46.96-1.93.19-1.29,0-3.16,4.43-3.41,9.85-5.79,14.4-9.84.63-.56,3.35-2.74.35-2.81,4.87-3.79,11.6-10.33,16.16-14.76-5.59,9.39-12.27,18.1-18.97,26.7Z"/>
      <path class="st13" d="M162.13,82.99c-3.65,2.71-10.62,6.65-14.76,8.43-7.89,3.4-16.29,4.46-23.89,8.43-.36-1.87-.57-2.92-.7-4.92,2.83-3.07,4.85-3.89,8.43-5.62,1.59-.24,4.32,2.16,4.57,2.11.91-.17,13.28-7.9,16.16-9.13,1.73-.74,17.29-7.4,17.22-4.57-2.91.74-5.21,3.93-7.03,5.27Z"/>
      <path class="st13" d="M156.51,38.72c-4.56,4.43-11.29,10.97-16.16,14.76-2.52,1.96-7.37,6.11-10.54,4.92,15.89-12.88,27.02-31.85,46.38-39.7-7.73,5.52-12.99,13.53-19.67,20.03Z"/>
      <path class="st62" d="M125.6,66.12c-7.72,5.93-13.73,11.02-19.67,18.97-1.04.03-.58-.83-.7-1.41-.94-4.43,2.12-7.21,3.51-11.24,6.59-4.3,15.05-9.17,21.08-14.05,3.17,1.19,8.02-2.96,10.54-4.92,3,.07.28,2.25-.35,2.81-4.55,4.05-9.97,6.43-14.4,9.84Z"/>
      <path class="st1" d="M137.54,65.42c-1.5,1.92-3.17,3.58-4.92,5.27,1,1.35,2.59.31,4.22.35,1.11.03,1.25.28,2.11.7-.37.26-7.48,6.93-4.22,6.32-4.27,2.68-12.08,8.71-12.65,14.05-2.87-1.09-6.81,4.31-9.13,6.32,1.87-3.7,4.9-9.04,7.03-12.65,4.23-7.17,9.28-18.12,17.57-20.38Z"/>
      <path class="st54" d="M36.36,125.85c-1.02.18-2.65,2.04-2.81,2.11-.51.2-.98-1.1-1.76-.7-3.19,1.62-11.03,8.55-7.38,12.65-1.66,1.02-4.03,5.76-6.68,6.32-1.38-.14-6.13-7.27-7.38-8.43,7.76-.12,10.21-10.02,16.51-11.95,4.01-1.22,7.07.34,9.49,0Z"/>
      <path class="st11" d="M89.76,173.63c-.21,1.21-1.48.71-.7,2.11,1.3,2.35,7.6,1.41,9.84,3.86-7.27,1.33-16.09,1.18-21.78,6.32l8.08,6.68c-4.11.52-7.09-.37-10.89-1.41-.43-.12,1.13-1.02.35-1.41-1.49-.14-3.1.2-4.57,0,5.36-7.89,11.05-12.36,19.67-16.16Z"/>
      <path class="st2" d="M171.97,53.48c-13.32,15.34-22.11,15.08-37.24,24.59-3.27.61,3.85-6.07,4.22-6.32.35-.24,2.09.25,2.46,0,9.73-6.54,19.84-13.9,30.57-18.27Z"/>
      <path class="st6" d="M109.43,68.94l-16.86,18.97c-1.2-.77-1.3-2.38-3.16-2.11-.48.07-3.34,3.64-4.22,4.22-.62-.2.83-3.73,1.05-4.22,4.14-8.96,21.05-15.74,26.35-25.3-.18,3.05-2.15,5.67-3.16,8.43Z"/>
      <path class="st56" d="M108.73,72.45c-1.39,4.04-4.45,6.82-3.51,11.24-2.67,1.52-10.38,6.56-13,5.62-.85-.3.72-1.17.35-1.41l16.86-18.97c-.25.67-.35,2.5-.7,3.51Z"/>
      <path class="st0" d="M60.25,111.1c.4-1.77-.74-3.14-.7-3.51,5.72-8.49,13.89-12.45,21.78-18.27-.92,7.24-7.1,8.95-12.3,13.35-3.06,2.6-5.47,6.1-8.78,8.43Z"/>
      <path class="st44" d="M25.82,159.58l2.81,10.19c-2,1.3-3.19-.99-4.22-1.76-.52-1.8-.88-1.54-2.11-2.11-.96-.44.3-.93-1.41,0-.21.11-.82-.09-.7.7-.65-.84-.4-.66-.7-1.41l.35-5.62c1.85.12,4.17.52,5.97,0Z"/>
      <path class="st5" d="M25.82,159.58c.35-.1,2.06-1.18,2.81-1.41l11.59,12.65c-2.58-.76-8.02-2.35-9.84-4.22-2.41-2.48-1.51-6.2-4.57-7.03Z"/>
      <path class="st44" d="M49.71,151.85l3.16,9.84c-4.27-1.66-4.92-11.75-7.73-3.51l-1.05-4.92c1.61-.52,3.85-.82,5.62-1.41Z"/>
      <path class="st29" d="M55.33,175.04c.1.32-3.56,2.16,2.11,4.22-3.62,4.83-9.27-9.34-4.22-4.57l-.35-5.97c1.12,1.67,1.86,4.36,2.46,6.32Z"/>
      <path class="st25" d="M57.44,173.63c.49-.94-.48-2.48,2.11-3.51l2.81,5.27c-.69,2.08-5.2.62-4.92-1.76Z"/>
      <path class="st44" d="M54.27,151.15l3.51,9.13c-3.86-1.78-4.61-5.28-3.51-9.13Z"/>
      <path class="st33" d="M45.14,174.34l5.62,7.03c-2.2.76-7.59-6.37-5.62-7.03Z"/>
      <path class="st34" d="M32.84,156.77c.36,2.62-.59,2.34-2.11.7.7-.21,1.37-.48,2.11-.7Z"/>
      <path class="st37" d="M138.95,109.69c.36-2.78,6.07-6.45,7.73-8.78-.86-1.59-9.02,5.73-10.89,6.68-2.39,1.2-4.91,1.86-7.38,2.81-4.54,1.75-14.83.35-15.11,8.43,3.16-1.15,6.36-1.42,9.49-2.81,1.22-.54,1.47.94,3.51-1.41,6.54-.8,8.6-3.03,13.35-4.22s10.08-1.82,15.11-2.81c2.22.6-.87,3.81-1.05,4.22-11.28-.55-23.99,5.97-32.32,12.65-4.81,1.77-7.95,6.94-11.95,9.84-.27-.32-3.03.82-2.81-1.05l15.46-11.95-14.76,1.41c3.44-3.1,6.81-8.71,8.43-13,3.19-.88,5.61-3.46,8.43-4.92,7.5-3.88,16.58-7.38,24.59-11.24,1.28-.62,5.02-2.66,6.32-1.76l-16.16,17.92Z"/>
      <path class="st37" d="M166.35,116.01c-3.05,1.38-7.44,3.24-10.19,4.92-5.61,3.43-15.39,11.99-20.73,14.05-3.69,1.43-4.63,1.23-8.43,1.41-8.51.39-15.51,1.5-6.32-6.32,4.88-4.16,24.67-11.83,32.32-14.76,6.28-2.41,12.82-4.56,19.32-6.32-.98,3.16-3.96,4.82-5.97,7.03Z"/>
      <path class="st3" d="M125.6,162.39l1.41,3.51c-1.16-.21-2.64.14-3.86,0l1.41,2.11c-1.45.61-3.13-.66-3.86-.7-9.8-.59-21.99,2.39-30.92,6.32-8.62,3.8-14.31,8.27-19.67,16.16-.09-.01.51,1.6-1.05,1.41-.31-.04-4.39-2.25-5.62-2.81-.83-.38.74-1.17.35-1.41,4.61-3.48,8.63-8.7,13.35-11.95,11.09-7.61,18.77-7.75,31.27-10.54,1.37-.31,2.6.07,2.46-2.11,4.17-.32,9.71.87,14.76,0Z"/>
      <path class="st49" d="M120.68,130.07c-9.18,7.83-2.18,6.71,6.32,6.32-1.97,4.09-7.4.84-10.89,2.81-1.13,1.89,3.18,2.02,3.86,2.11,7.8,3.42,16.63,3.56,23.89,8.08-1.66.09-3.53.82-4.92,1.05.87-2.21.19-2.29-1.76-2.81-6.98-1.85-16.72.5-22.84,3.51-.59.29-.97.77-2.11,1.41,1.76-3.51-.25-13.85-2.11-16.86,3.33-2.13,6.14-5.89,10.54-5.62Z"/>
      <path class="st21" d="M153.7,111.8c-.26.58-.56,2.07-.7,2.81-7.17,2.58-14.24,5.92-21.43,8.43-2.96,1.03-7.27.33-10.19,1.41,8.34-6.68,21.05-13.2,32.32-12.65Z"/>
      <path class="st13" d="M166.35,116.01c-6.46,7.09-15.49,15.04-23.89,19.67l-.7-1.76c-2.55,2.13-3.27,1.29-6.32,1.05,5.34-2.07,15.11-10.63,20.73-14.05,2.75-1.68,7.14-3.54,10.19-4.92Z"/>
      <path class="st27" d="M147.38,91.42l1.41,2.11c-8.01,3.87-17.1,7.37-24.59,11.24.35-1.79-.38-3.26-.7-4.92,7.6-3.97,16.01-5.04,23.89-8.43Z"/>
      <path class="st8" d="M153,114.61v.7c-7.65,2.93-27.44,10.59-32.32,14.76-4.4-.27-7.21,3.49-10.54,5.62-.14-.23.12-.44-.7-1.41,4-2.9,7.13-8.07,11.95-9.84,2.92-1.07,7.23-.37,10.19-1.41,7.19-2.51,14.26-5.85,21.43-8.43Z"/>
      <path class="st58" d="M138.95,150.45c-5.78.96-12.8.34-18.27,2.81-2.17-.68-4.8-.31-6.32-2.11,6.11-3.02,15.86-5.36,22.84-3.51,1.95.52,2.63.6,1.76,2.81Z"/>
      <path class="st58" d="M142.46,135.69c-7.96,4.39-12.88,6.9-22.49,5.62-.68-.09-4.99-.22-3.86-2.11,3.49-1.97,8.92,1.28,10.89-2.81,3.81-.17,4.74.02,8.43-1.41,3.06.23,3.77,1.07,6.32-1.05l.7,1.76Z"/>
      <path class="st50" d="M120.68,153.26c5.01,1.58,9.68,4.42,15.11,4.92.72.6-1.36,1.21-1.76,1.41l-29.86-2.81c1.14-2.58,5.61-1.62,7.73-2.81.66-.37.24-1.35.35-1.41,1.14-.63,1.51-1.11,2.11-1.41,1.52,1.79,4.16,1.43,6.32,2.11Z"/>
      <path class="st55" d="M138.95,109.69c-.07.53.17.78.7.7-4.76,1.19-6.81,3.42-13.35,4.22.16-.18.57-3.45,2.11-4.22,2.46-.95,4.99-1.61,7.38-2.81,1.87-.94,10.03-8.27,10.89-6.68-1.66,2.34-7.37,6.01-7.73,8.78Z"/>
      <path class="st60" d="M110.84,162.39c.14,2.18-1.09,1.8-2.46,2.11-12.5,2.79-20.18,2.93-31.27,10.54-.9-3.78,9.84-9.51,13-10.54,6.96-2.26,13.64-1.56,20.73-2.11Z"/>
      <path class="st25" d="M72.19,116.72c-1.81,4.33,1.28.5,1.76.7,3.65,1.58.71,3.02,7.38,2.11.23-.03.49.06.7,0-1.49,2.65-5.43,2.41-8.08,2.81-.48.07-.22-1.46-.7-1.41-.22.03-1.23,2.2-3.86,2.11-.23,0-1.35-.51-2.11-.7-.22-.06-.49.07-.7,0,1.3-2.99,3.07-3.95,5.62-5.62Z"/>
      <g>
        <path class="st42" d="M115.76,109.69c-1.62,4.29-4.99,9.9-8.43,13l14.76-1.41-15.46,11.95c-.22,1.87,2.54.74,2.81,1.05.82.97.56,1.18.7,1.41,1.86,3.02,3.87,13.36,2.11,16.86-.11.06.31,1.03-.35,1.41-2.12,1.2-6.59.23-7.73,2.81l29.86,2.81c-1.87.93-6.41,2.46-8.43,2.81-5.04.87-10.58-.32-14.76,0-7.09.55-13.77-.16-20.73,2.11-3.16,1.03-13.9,6.76-13,10.54-4.72,3.24-8.74,8.47-13.35,11.95-.94-.57-7.64-1.35-7.03-3.86,11.72-7.76,20.07-19.91,33.73-24.59l-1.76-1.05c7.62-4.97,15.08-12.74,15.11-22.13l-1.41,1.05c-.04-.54-.1-.78-.7-.7,1.01-7.08-4.98-3.69-9.84-2.81-2.74.49-1.92.8-3.51,1.41-1.27.48-2.3.91-3.51,1.41-3.41,1.38-1.83,1.98-2.11,2.11-.52.24-.97.49-1.41.7-.37.17-.37-.82-2.11,0-2.12,1-2.56,1.62-3.51,2.11-.29.15-.91.09-2.11.7-.9.46-.66.68-.7.7-.5.24-.91.45-1.41.7-1.13.59-1.32,1.36-1.41,1.41-.44.22-2.72,1.09-3.51,1.41-.2.08-3.48-.77-4.22.35,1.64,1.7,2.97,4.45,3.51,6.68.1.4-.06.97,0,1.41-4.91-11.11-4.17-4.49-5.27-4.22-.32.08,1.01-2.5-5.27-.7-11.63,2.48-25,6.92-35.84-.35,3.46-3.66,8.99-4.83,12.65-8.08,1.38.01,8.35,2.23,8.78,2.11,1.29-.37,1.92-6.75,7.38-5.27l-3.51-7.03,1.05-1.05c2.76.03,5.48-2.81,7.73-3.51,4.36-1.37,11.15-.29,13.7-3.51.75.2,1.88.7,2.11.7,13.31,13.33,32.19-15.1,46.73-18.27,2.01.06-.23,4.61-.35,4.92Z"/>
        <path class="st30" d="M58.49,130.07c1.77-.76,5.58,4.2,2.81,6.32-2.21,1.69-6.23-4.86-2.81-6.32Z"/>
        <path class="st51" d="M66.57,145.53c-3.58,3.31,3.44,3.16-.7,7.03-.54-2.22-1.87-4.97-3.51-6.68.74-1.12,4.02-.27,4.22-.35Z"/>
      </g>
      <path class="st11" d="M93.27,104.77c-2.75,1.7-5.62,3.32-8.43,4.92-4.11,2.34-8.72,4.45-12.65,7.03-2.56,1.67-4.32,2.63-5.62,5.62-3.11-.95-6.39-4.17-10.54-4.57-.33-.97,3.35-4.1,3.51-4.57,6.74,6.88,12.85-3.84,20.03-7.03,2.68-1.19,6.62-2.16,9.84-3.51.1-.04,1.3,1.45,1.41,1.41,2.2-.99,9.76-12.39,13-14.05-3.45,4.91-7.36,9.66-10.54,14.76Z"/>
      <path class="st23" d="M82.03,119.53c-.21.06-.48-.03-.7,0,2.79-2.82,4.81-5.64,3.51-9.84,2.81-1.6,5.68-3.22,8.43-4.92-3.65,5.86-1.34,12.21-11.24,14.76Z"/>
      <path class="st1" d="M112.95,98.45c-.08.07.26,2.35-1.41,1.05.21-.58,1.37-.98,1.41-1.05Z"/>
      <g>
        <path class="st25" d="M101.71,135.69c-.69,4.82-5.38,10.81-8.78,14.05l-2.11-3.51c.64,12.17-3.01,3.95-3.51,4.22-1.03.55.91,2.98-.35,4.57-1.48,1.87-3.05.23-3.16.35-1.92,2.09,1.77.82-1.41,3.51-1.61,1.37-3.6-1.95-3.86,3.51-.18.15-1.22.55-1.41.7-.8-.3-1.12-1.42-1.41-2.11-1.44-3.44-1.6-3.03-3.51-5.62-.72-1.41-1.13-3.13-2.46-4.22-1.01,2.14,1.83,3.36,2.46,4.22.82,1.6,1.15,4.36,2.81,5.62-2.11,3.61-3.31,8.39-7.73,5.97,2.09,3.45-1.27,4.64-3.16,7.38-.61,0-2.99-3.53-3.16-4.22-.12-.46-.13-9.03,0-9.49,1.78-6.02,6.49,4.12,4.92-6.68-.06-.44.1-1,0-1.41,4.14-3.87-2.88-3.72.7-7.03.79-.31,3.07-1.19,3.51-1.41-.28.68,1.25,4.06,1.41,4.22,1.14,1.13,1.48.98,1.41-.7.37-1.21-.95-3.67-1.41-4.92.49-.26.91-.46,1.41-.7l1.05,7.03c2.01-1.76.69-4.81,1.05-7.03.01-.08,1.09.04.7-1.41.96-.49,1.4-1.11,3.51-2.11l.35,3.51-2.46-1.05,3.16,5.27,1.05-7.73c.44-.21.89-.47,1.41-.7.82,4.09,2.72.93,2.11-2.11,1.22-.49,2.24-.92,3.51-1.41l3.16,2.81.35-4.22c4.86-.88,10.84-4.26,9.84,2.81Z"/>
        <g>
          <path class="st51" d="M102.41,136.39c1,12.18-17.78,20.83-23.89,26,.27-5.46,2.25-2.15,3.86-3.51,3.17-2.7-.51-1.42,1.41-3.51.11-.12,1.68,1.52,3.16-.35,1.26-1.59-.68-4.02.35-4.57.5-.26,4.16,7.95,3.51-4.22l2.11,3.51c3.4-3.24,8.1-9.23,8.78-14.05.6-.07.66.17.7.7Z"/>
          <path class="st63" d="M81.33,138.5l-1.05,7.73-3.16-5.27,2.46,1.05-.35-3.51c1.74-.82,1.74.17,2.11,0Z"/>
          <path class="st51" d="M75,142.01c-.36,2.22.96,5.27-1.05,7.03l-1.05-7.03s-.2-.24.7-.7l1.41.7Z"/>
          <path class="st36" d="M91.87,132.88l-.35,4.22-3.16-2.81c1.59-.61.77-.91,3.51-1.41Z"/>
          <path class="st63" d="M72.9,147.63c-.02.08-1.09.6-1.41.7-.16-.16-1.69-3.54-1.41-4.22.09-.04.27-.82,1.41-1.41.46,1.24,1.77,3.7,1.41,4.92Z"/>
          <path class="st63" d="M84.84,135.69c.61,3.04-1.29,6.2-2.11,2.11.28-.13-1.3-.73,2.11-2.11Z"/>
          <path class="st62" d="M75.71,140.61c.39,1.45-.69,1.33-.7,1.41l-1.41-.7c1.2-.61,1.82-.55,2.11-.7Z"/>
          <path class="st59" d="M75.71,160.99h-.7c-1.66-1.26-2-4.03-2.81-5.62,1.91,2.59,2.07,2.18,3.51,5.62Z"/>
          <path class="st59" d="M72.19,155.36c-.63-.86-3.47-2.08-2.46-4.22,1.32,1.08,1.74,2.81,2.46,4.22Z"/>
          <path class="st4" d="M62.71,168.71c1.01-.32,3.34,2.42,2.11,2.81-.86.08-2.23-2.05-2.11-2.81Z"/>
          <path class="st4" d="M80.27,155.36c1.26-.66,1.48,2.35.7,2.81-.33.19-1.88-2.19-.7-2.81Z"/>
          <path class="st33" d="M71.49,148.34c.32-.1,1.38-.63,1.41-.7.07,1.68-.27,1.83-1.41.7Z"/>
        </g>
      </g>
      <g>
        <path class="st32" d="M63.76,186.98c.39.24-1.18,1.03-.35,1.41,1.23.56,5.31,2.77,5.62,2.81,1.57.2.97-1.42,1.05-1.41,1.47.2,3.08-.14,4.57,0,.78.39-.78,1.29-.35,1.41-11.8,1.76.28,9.75,3.16,14.76l4.22,1.41-20.38-3.51,5.27,3.16c-6.18,1.83-27.72-11.99-27.4-17.57.07-1.31,4.19.29.7-2.81,5.58-1.23,12.81-3.71,18.27-6.68,8.36-4.54,12.92-11.86,18.97-16.86.19-.15,1.23-.55,1.41-.7,6.11-5.17,24.9-13.82,23.89-26l1.41-1.05c-.02,9.39-7.49,17.17-15.11,22.13l1.76,1.05c-13.65,4.69-22.01,16.84-33.73,24.59-.61,2.52,6.09,3.29,7.03,3.86Z"/>
        <path class="st29" d="M77.11,163.09c-6.05,5-10.61,12.32-18.97,16.86.1-.74-.35-.57-.7-.7-5.67-2.06-2.01-3.9-2.11-4.22.93.33,1.84-.88,2.11-1.41-.28,2.38,4.23,3.83,4.92,1.76l-2.81-5.27c.29-.12.96.06,1.41,0,.17.69,2.55,4.22,3.16,4.22,1.89-2.73,5.25-3.93,3.16-7.38,4.42,2.41,5.62-2.36,7.73-5.97h.7c.29.69.6,1.81,1.41,2.11Z"/>
        <path class="st41" d="M54.98,185.58l3.51,12.65c-4.56-2.81-10.22-9.43-3.51-12.65Z"/>
        <path class="st41" d="M48.65,189.79c2.22.32.98,9.5-1.76,3.16-.63-.89,1.44-3.21,1.76-3.16Z"/>
      </g>
      <path class="st13" d="M128.41,110.39c-1.54.77-1.95,4.04-2.11,4.22-.65.08-4.1-.32-3.51,1.41-3.12,1.39-6.32,1.66-9.49,2.81.28-8.08,10.56-6.68,15.11-8.43Z"/>
      <path class="st55" d="M126.3,114.61c-2.05,2.34-2.29.86-3.51,1.41-.58-1.72,2.86-1.33,3.51-1.41Z"/>
      <path class="st38" d="M81.33,119.53c-6.67.91-3.72-.53-7.38-2.11-.47-.2-3.57,3.63-1.76-.7,3.93-2.57,8.53-4.69,12.65-7.03,1.3,4.2-.72,7.02-3.51,9.84Z"/>
      <g>
        <path class="st31" d="M33.55,127.96c2.9,5.67-.58,9.05-5.27,11.95-.54.33-3.33-.33-3.86,0-3.66-4.1,4.19-11.03,7.38-12.65.78-.4,1.25.91,1.76.7Z"/>
        <path class="st25" d="M30.38,130.07c.8-.08,2.7-.21,3.16.35-6.72,18.86-12.49.61-3.16-.35Z"/>
      </g>
    </g>
    <path class="st17" d="M186.73,205.25c-3.05,4.47-3.99,14.89-4.22,20.38-.51.46-.9.32-1.41,1.41-8.73.89-15.62-7.43-20.03-14.05-1.12-.16-.86.65-1.76,1.41.88-8.91,6.43-17.57,6.32-26.7l21.08,17.57Z"/>
    <path class="st40" d="M211.32,225.63c-9.42.16-24.41,9.73-30.21,17.22-1.52,1.96-2.37,7.38-5.62,8.08.86-3.77,3.13-9.6,2.81-13.35-.02-.23.05-.48,0-.7,2.71-1.92,1.98-8.04,2.81-9.84.5-1.09.9-.95,1.41-1.41,3.83-3.44,18.18-8.34,24.24-13.35,4.76-3.94,7.1-8.85,10.89-12.65.53,2.36-5.23,22.1-6.32,26Z"/>
    <path class="st19" d="M178.3,236.87c.05.22-.02.47,0,.7-6.89-2.33-13.08-7.21-17.57-13,3.77,2.98,16.62,7.84,17.57,12.3Z"/>
    <path class="st58" d="M217.65,199.63c-3.8,3.8-6.13,8.71-10.89,12.65-6.07,5.01-20.41,9.91-24.24,13.35.23-5.49,1.17-15.91,4.22-20.38,4.23-6.21,28.7-15.47,30.92-5.62Z"/>
    <path class="st58" d="M155.35,222.03c.6-1.39,1.21-2.77,1.86-4.12.85-1.78.41-2.08,2.11-3.51.9-.76.63-1.57,1.76-1.41,4.4,6.62,11.29,14.95,20.03,14.05-.83,1.79-.1,7.91-2.81,9.84-.94-4.46-13.79-9.31-17.57-12.3"/>
  </g>
</svg>