<?xml version="1.0" encoding="UTF-8"?>
<svg id="LEG_L" xmlns="http://www.w3.org/2000/svg" version="1.1" viewBox="0 0 500 500">
  <!-- Generator: Adobe Illustrator 29.4.0, SVG Export Plug-In . SVG Version: 2.1.0 Build 152)  -->
  <defs>
    <style>
      .st0 {
        fill: #3f2035;
      }

      .st1 {
        fill: #c0afbb;
      }

      .st2 {
        fill: #866175;
      }

      .st3 {
        fill: #320a10;
      }

      .st4 {
        fill: #5c415b;
      }

      .st5 {
        fill: #1d2235;
      }

      .st6 {
        fill: #49364e;
      }

      .st7 {
        fill: #836a86;
      }

      .st8 {
        fill: #303950;
      }

      .st9 {
        fill: #1d1a31;
      }

      .st10 {
        fill: #7d3344;
      }

      .st11 {
        fill: #8e7e91;
      }

      .st12 {
        fill: #150f1c;
      }
    </style>
  </defs>
  <path class="st10" d="M199.79,124.02c8.71-12.89,11.3-31.14,21.24-43.02.29,6.32,17.86,22.98,20.54,33.1,6.56,24.73-19.32,59.05-39.99,70.64.38-1.68-1.34-2.58-2.52-3.26-8.32-4.73-17.67-10.4-25.92-14.77-7.04-6.64-4.08-6.52-2.98-14.95,11.99-3.99,27.43-14.92,29.65-27.74,0,0-.01,0-.01,0Z"/>
  <path class="st3" d="M241.58,114.09c14.05,28.27,10.2,77.65-19.33,95.2-3.45.34-3.48-5.09-5.62-3.45l-20.63-18.73c1.77-.92,3.87-1.41,5.59-2.38,20.67-11.58,46.54-45.91,39.99-70.64h0Z"/>
  <g>
    <path class="st12" d="M234.68,48.42c8.53.81,6.34,9.96,7.75,13.29.71,1.69,12.98,7.49,15.47,14.14,2.73,7.28-1.25,13.92,2.59,21.52-1.38-1.9-4.79-2.65-6.66-5.45-.9-1.35-13.89-29.61-16.58-27.81-2.03,9.02.02,16.77,2.77,25.04,2.03,9.45,5.67,18.47,8.43,27.71,3.6,12,5.92,21.58,8.06,33.91.27,1.56.58,3.14.88,4.71l2.33-6.47c2.43,13.19,1.78,29.36,4.45,42.23,2.67,12.86,12.69,21.69,23.13,28.98-3.44-.8-4.13.36-6.36,2.33-15.44,13.67-53.01,52.26-60.18,70.21-8.1,20.3-1.25,44.77,4.63,65.17,1.92,6.66.12,6.97,5.36,14.3,10.37,14.51,23.62,7.85,28.85,24.27-4.2-6.81-6.03-9.45-14.16-10.18-.1,0,.57-1.94-1.07-1.61-13.39,2.61,4.1,11.78,6.17,13.58.13.12,3.73,3.28,1.36,3.19-6.18-7.36-41.39-8.07-43.85-13.91-.52-1.23,1.34-4.46-.81-5.87-2.44,5.42-24.57,5.09-25.13-2.29-.14-1.89,2.45-10.64,3.87-12.6,4.8-6.63,13.21-3.51,15.44-4.89,6.94-4.34-16.79-66.98-25.5-73.43l7.01-.35-12.77-20.19c6.37,1.37,13.62,1.13,19.54-1.93-4.95-13.82-.26-25.39,12.07-32.69-5.97-3.47-13.02-.78-18.4,2.4,3.57-14.67,17.14-29.15,33.28-29.86,2.12-1.64,2.16,3.79,5.62,3.45,29.53-17.56,33.4-66.93,19.33-95.2-2.68-10.12-20.25-26.78-20.54-33.1-.16-3.41,2.64-9.93,3.91-13.37,2.11-5.65,8.17-14.22,9.71-19.23h.01s0,.01,0,.01Z"/>
    <path class="st5" d="M239.98,89.15c-2.75-8.27-4.8-16.01-2.77-25.04,2.68-1.81,15.68,26.46,16.58,27.81,1.87,2.8,5.29,3.55,6.66,5.45,17.39,23.79,26.58,90.05,30.86,119.98-1.82,3.38-7.33-5.81-8.12-7.1-13.14-21.47-18.08-50.61-21.89-75.15-3.36-1.45-.14,5.17-.33,5.42-.6.86-2.57-.28-3.14.58-1.24,1.88,2.6,8.96-1.35,9.64-2.14-12.34-4.46-21.92-8.06-33.91l-3.5-19.26c-1.08-1.2-4.6-7.46-4.93-8.46h0Z"/>
    <path class="st9" d="M256.48,150.71c3.95-.69.1-7.76,1.35-9.64.57-.85,2.54.28,3.14-.58.19-.27-3.03-6.89.33-5.42,3.8,24.53,8.74,53.68,21.89,75.15.79,1.3,6.3,10.48,8.12,7.1.37,2.58,1.44,3.87,1.56,6.31-1.68.87-4.68-2.8-5.62-3.45-10.45-7.27-20.48-16.17-23.13-28.98-2.65-12.8-2.02-29.04-4.45-42.23l-2.33,6.47c-.3-1.57-.61-3.15-.88-4.71v-.03s0,0,0,0Z"/>
    <path class="st0" d="M225.36,357.93c10.8,11.11,30.59,2.23,44.63,7.34-2.65-.15-6.11,1.21-8.95.24l.98,3.17c-2.01.67-3.41,8.09-4,8.31-7.14-8.59-17.73-10.17-27.3-4.75-5.24-7.32-3.44-7.63-5.36-14.3Z"/>
    <path class="st4" d="M269.99,365.27c6.55.34,6.61,2.04,11.43,3.8-.46,5.78,9.46,4.14,11.99,7.33,1.41,1.76.18,2.3-1.63,1.45-.26.55,3.76,9.03.91,10.55-6.16-9.6-6.86-8.56-15.51-13.37-3.65-2.03-10.18-8-15.16-6.36l-.98-3.17c2.83.97,6.3-.37,8.95-.24h0Z"/>
    <path class="st7" d="M292.68,388.4c2.86-1.52-1.17-10-.91-10.55,1.82.87,3.05.32,1.63-1.45-2.54-3.19-12.45-1.55-11.99-7.33,10.92,3.96,17.2,5.97,20.66,18.33-1.61-.38-2.4-.62-3.8-1.4l2.49,10.25c-3.19,4.31-4.53-1.71-6.8-3.12,1.08-1.13-.66-3.78-1.26-4.73h-.01s0,0,0,0Z"/>
    <path class="st1" d="M245.4,386.33c8.13.73,9.95,3.37,14.16,10.18.39,1.21,1.87,5.68,1.95,6.33.48,3.78.33,7.85.07,11.67l-.77-.05c.42-13.03-13.68-17.48-15.4-28.13h-.01s0,0,0,0Z"/>
    <path class="st6" d="M262.02,368.68c4.98-1.64,11.51,4.32,15.16,6.36,2.91,6.59,5.11,15.15,8.03,21.47l-4.68,6.71c1.66-4.67,4.39-13.1-3.52-12.65-1.59-3.77-7.13-1.22-10.69-2.98-1.39-.7-10.86-13.05-12.58-10.48,2.47,4.28,6.14,9.67,9.29,13.39l-1.52,12.34c-.09-.65-1.58-5.13-1.95-6.33-5.24-16.41-18.49-9.76-28.85-24.27,9.57-5.42,20.15-3.84,27.3,4.75.59-.22,2.01-7.66,4-8.31h0Z"/>
    <path class="st8" d="M244.91,97.59l3.5,19.26c-2.76-9.24-6.4-18.26-8.43-27.71.33.99,3.87,7.25,4.93,8.46Z"/>
    <path class="st0" d="M277.19,375.05c8.66,4.81,9.34,3.77,15.51,13.37.6.94,2.34,3.59,1.26,4.73-.47-.3-.99-.59-1.5-.86-1.83-.97-4.78-2.78-6.17-.77,3.68,1.67,1.16,5.98,4.15,8.41-3.16,4.28-3.72-.14-5.24-3.42-2.93-6.32-5.12-14.88-8.03-21.47h.01s0,.01,0,.01Z"/>
    <path class="st4" d="M253.75,377.11c1.72-2.56,11.17,9.79,12.58,10.48-1.06,5,6.71,7.06,6.99,12.86-3.41-.09-7.86-7.08-10.27-9.94-3.14-3.73-6.82-9.12-9.29-13.39Z"/>
    <path class="st11" d="M277.02,390.57c1.51,3.59.74,9.99-3.7,9.88-.28-5.8-8.05-7.86-6.99-12.86,3.57,1.76,9.18-.62,10.69,2.98Z"/>
    <path class="st2" d="M290.44,399.91c-2.98-2.42-.47-6.74-4.15-8.41,1.39-2,4.34-.2,6.17.77.05,2.98-.17,5.15-2.01,7.64h-.01Z"/>
  </g>
</svg>