<?xml version="1.0" encoding="UTF-8"?>
<svg id="Layer_1" xmlns="http://www.w3.org/2000/svg" version="1.1" viewBox="0 0 230.32 193.31">
  <!-- Generator: Adobe Illustrator 29.4.0, SVG Export Plug-In . SVG Version: 2.1.0 Build 152)  -->
  <defs>
    <style>
      .st0 {
        fill: #481224;
      }

      .st1 {
        fill: #c0afbb;
      }

      .st2 {
        fill: #866175;
      }

      .st3 {
        fill: #320a10;
      }

      .st4 {
        fill: #ef8a4c;
      }

      .st5 {
        fill: #e2b1cc;
      }

      .st6 {
        fill: #b25545;
      }

      .st7 {
        fill: #824158;
      }

      .st8 {
        fill: #b16684;
      }

      .st9 {
        fill: #853a35;
      }

      .st10 {
        fill: #c84e36;
      }

      .st11 {
        fill: #04040e;
      }

      .st12 {
        fill: #d47550;
      }

      .st13 {
        fill: #200309;
      }

      .st14 {
        fill: #ecae65;
      }

      .st15 {
        fill: #7d3344;
      }

      .st16 {
        fill: #5c2333;
      }

      .st17 {
        fill: #a2433e;
      }

      .st18 {
        fill: #705b6d;
      }

      .st19 {
        fill: #f4be61;
      }

      .st20 {
        fill: #70180f;
      }

      .st21 {
        fill: #15050a;
      }

      .st22 {
        fill: #e3e3e5;
      }

      .st23 {
        fill: #9a3043;
      }

      .st24 {
        fill: #c785a4;
      }

      .st25 {
        fill: #a58493;
      }

      .st26 {
        fill: #fdfdfd;
      }
    </style>
  </defs>
  <path class="st15" d="M182.51,18.08c.38.78,2.65,9.47,2.51,9.97-.05.16-.31.26-.35.43-.1.37-3.4,4.22-2.7,6.73l-.51-5.45c-.69,1.32-10.33,10.8-10.51,9.23l.84-3.61c-5.62,6.59-11.78,13.97-20.71,15.49-12.19-5.57-17.49-20.45-20.9-32.37,2.58-5.03,1.05-2.45,3.44-7.19.82-1.61,2.51-2.33,3.6-3.48,3.65,4.69,8.2-2.8,11.3-4.99.92-.2,2.42-1.01,3.82-1.14,3.25-.3,3.91-.18,7.07.12l-4.05,4.89,4.86,3.66.43.35c-.42.41-2.97,10.94-2.65,11.43.55.85,3.38,1.6,4.61,3.1,2.36,2.87.92,10.22,7.42,7.93,1.39-.49,12.09-8.65,7.85-10.35.38-.39.66-.91,1.06-1.28,1.23-1.13,1.54.15,2.08-.78.12-.21-1.05-3.88-.26-4.88.29.49,1.41,1.45,1.78,2.19Z"/>
  <path class="st16" d="M185.18,33.92c-1.06.1-.25,2.65-.66,3.4-1.24,2.24-12.72,11.44-15.59,13.63-.54.41-2.89,1.87-3.64.93.53-.61,3.16-4.78,2.46-5.14-6.63,4.85-8.65,7.79-16.68,4.12,8.93-1.52,15.09-8.89,20.71-15.49l-.84,3.61c.18,1.57,9.82-7.91,10.51-9.23l.51,5.45c-.69-2.5,2.6-6.36,2.7-6.73.63,1.76.48,3.62.51,5.45Z"/>
  <path class="st3" d="M171.75,57.94c-2.59,1.8-6.1,2.47-9.12,3.21l-10.16-1.59c1-1.51,7.84-1.59,8.06-1.94.33-.52-.69-1.73-.57-1.91,1.62-2.48,3.46-1.69,5.33-3.84.75.94,3.1-.52,3.64-.93,2.87-2.2,14.35-11.39,15.59-13.63.41-.75-.4-3.3.66-3.4.14,9.44-5.66,18.64-13.43,24.02Z"/>
  <path class="st5" d="M180.74,15.9c-.78,1,.39,4.67.26,4.88-.54.93-.85-.35-2.08.78l-5.61-5.36c-.44-3.09-3.27-4.76-4.97-6.99-1.22-1.6-3.01-4.47-4.12-6.28,10.17,2.88,10.95,3.46,16.52,12.96Z"/>
  <path class="st8" d="M164.21,2.93c1.11,1.82,2.91,4.68,4.12,6.28-2.92-1.03-3.09,2.3-3.49,2.49-.22.1-2.32-2.86-4.21-.98l-.43-.35,1.6-8c.98.18,1.44.28,2.41.56Z"/>
  <path class="st7" d="M161.81,2.37l-1.6,8-4.86-3.66,4.05-4.89c1.21.12,1.68.42,2.41.56Z"/>
  <path class="st0" d="M125.08,31.14c.96-.75,2.08-11.77,5.09-12.64.53,0-.32-1.12,0,0,3.41,11.91,8.72,26.79,20.9,32.37,8.03,3.67,10.05.73,16.68-4.12.7.35-1.93,4.53-2.46,5.14-1.87,2.15-3.71,1.35-5.33,3.84-.12.18.9,1.39.57,1.91-.22.35-7.06.43-8.06,1.94l10.16,1.59c-13.24,3.26-19.19-4.58-28.55-13.6-.15-.15-1.35.39-1.77-.03-.18-.19-1.89-3.31-2.77-4.45-.74-.95-2.04-5-3.06-5.4"/>
  <path class="st23" d="M137.21,7.83c5.28-5.58,4.54-3.51,11.3-4.99-3.1,2.18-7.65,9.68-11.3,4.99Z"/>
  <path class="st7" d="M173.31,16.2c-2.7,1.75.39.98-1.79,3.9-.07.1-2.25.87-2.26,1-.05.83,4.72,3.11,2.96,6.39l5.64-4.65c4.23,1.71-6.46,9.86-7.85,10.35-6.5,2.28-5.06-5.07-7.42-7.93-1.23-1.49-4.06-2.25-4.61-3.1-.32-.49,2.23-11.02,2.65-11.43,1.9-1.88,3.99,1.08,4.21.98.4-.19.58-3.52,3.49-2.49,1.7,2.23,4.53,3.9,4.97,6.99Z"/>
  <path class="st24" d="M178.92,21.56c-.4.36-.68.89-1.06,1.28l-5.64,4.65c1.76-3.28-3.01-5.56-2.96-6.39,0-.12,2.19-.9,2.26-1,2.18-2.91-.9-2.15,1.79-3.9l5.61,5.36Z"/>
  <path class="st16" d="M178.14,67.54c-.05.16-.29.26-.35.43-1.23,3.19-7.6,9.28-8.56,11.2-.18.36,1.37,4.74-2.1,6.87l-2.7-3.67c2.5,7.22-5.82,12.99-11.95,12.7-1.26-3.54-1.67-1.86-3.48-3.6.49-.4,1-1.51,1.41-1.7,6.92-3.33,10.12-15.53,15.56-22.26,3.08-3.81,1.66-1,2.38,2.33l1.2.28c1.54-2.22,2.47-4.95,3.83-7.23.75-1.25,2.26-4.62,3.66-4.86.18,2.02,1.61,7.82,1.09,9.51Z"/>
  <path class="st19" d="M180.51,121.86c-9.21-1.04-10.4-1.55-19.26-4.47-.48-.16-1.7-1.07-2.48-1.34,5.94-1.77,13.03,2.45,19.29,2.7.33-.85-14.61-5.97-15.55-6.78s-.29-1.67-.36-1.73c1.58-.35,3.45-4.19,3.8-5.46,7.59,5.26,14.73,11.08,23.18,14.89l4.24-.79c-2.02,4.19-18.6-2.34-12.87,2.98Z"/>
  <path class="st0" d="M174.37,81.63l-15.5,18.72c-1.69-.25-3.47-.47-5.17-.69-2.02-1.24-.82-3.47-1.22-4.59,6.13.29,14.45-5.48,11.95-12.7l2.7,3.67c3.47-2.13,1.92-6.51,2.1-6.87.96-1.93,7.33-8.02,8.56-11.2-.19,4.86-1.77,9.16-3.42,13.66Z"/>
  <path class="st19" d="M165.88,104.01c-1.04-.19-2.16-.31-3.18-.48-4.26-.71-8.28-1.79-12.67-1.16-2.47-1.05-6.9.44-9.27-.5s-1.59-1.91-1.99-2.36c3.04-1.52,5.88-.7,8.98-.45,1.96.16,4,.36,5.94.62,1.7.23,3.48.45,5.17.69,1.95.28,4.75,1.77,6.72.54-.29.82.34,2.96.29,3.11Z"/>
  <path class="st21" d="M165.59,100.9c-1.98,1.23-4.77-.26-6.72-.54l15.5-18.72c-2.49,6.78-6.53,12.95-8.78,19.27Z"/>
  <path class="st12" d="M165.95,104.79c-.35,1.27-2.22,5.11-3.8,5.46-1.65-1.54-2.85-3.9-5.36-4.79l5.9-1.93c1.03.17,2.14.3,3.18.48-.01.04.29,0,.07.78Z"/>
  <path class="st3" d="M149.01,91.48c1.81,1.74,2.22.06,3.48,3.6.4,1.13-.8,3.36,1.22,4.59-1.95-.26-3.98-.46-5.94-.62l-3.43-11.45c2.87,1.56,2.66,1.94,4.68,3.88Z"/>
  <path class="st17" d="M162.15,110.25c.06.06-.59.92.36,1.73s15.88,5.92,15.55,6.78c-6.25-.24-13.34-4.47-19.29-2.7-3.56-1.23-5.29-2.07-9.55-1.45,1.71-.21,2.1-4.05,1.75-4.29-.41-.28-9,3.19.06-3.54-.49-1.13-9.15.42-8.04-1.99,2.37-2.03,4.06-2,7.03-2.43,4.39-.63,8.41.45,12.67,1.16l-5.9,1.93c2.51.9,3.71,3.25,5.36,4.79Z"/>
  <path class="st9" d="M150.03,102.37c-2.97.42-4.66.4-7.03,2.43-1.11,2.41,7.55.86,8.04,1.99-9.06,6.73-.47,3.26-.06,3.54.34.23-.04,4.07-1.75,4.29-13.93,2.02-38.05,18.23-48.62,27.53-1.97,1.73-5.28,6.67-7.3,7.95l-5.53-2.42,2.15-2.16c-5.38-3.29,1.13-2.68,2.49-6.91-4.86,3.95-8.87,5.86-13.16-.13,18.48.64,27.54-26.89,42.26-34.59,1.4-.73,1.86-.6,3.04-1.07,1.92-.76,6.08-1.68,8.41-2.36,1.74-.51,3.62-.78,5.37-1.29.12.13.31.22.43.35.4.46-.28,1.46,1.99,2.36s6.8-.55,9.27.5Z"/>
  <path class="st16" d="M144.32,87.6l3.43,11.45c-3.11-.25-5.95-1.06-8.98.45-.12-.14-.3-.22-.43-.35-1.4-1.54-.97-3.57-2.88-3.46l-2.5,4.75c-2.33.68-6.49,1.6-8.41,2.36,1.07-2.45-.36-4.4-1.01-6.58-2.58-8.66-4.88-20.84-3.21-29.91.14-.75,1.03-2.43,1.26-3.26,1.92-6.75,2.52-10.35,8.87-14.18-3.91,6.18-2.94,14.87-4.5,21.02-.03.12-1.9-.22-2.26,1-2.03,6.82-.4,24.13,9.68,19.49,5.03-2.32,3.42-6.86,10.92-2.79Z"/>
  <g>
    <path class="st3" d="M161.26,117.4c1.84,3.12-1.7,4.45-2.24,7.47.67,1.33,14.34-2.99,7.33,2.84-3.69,3.07-15.22,1.16-17.04,2.39-4.14,2.81-7.61,10.1-15.14,10.06l7.55-7.38c-9.7.38-14.59,6.97-21.72,11.07-6.44,3.71-24.87,12.29-29.02,16.86-10.07,11.08-6.31,15-23.09,23.56,1.52-2.68.8-3.12-1.22-4.59-.74-.54-1.4-1.21-2.13-1.76,5.39-2.01,12.19-5.76,16.38-9.39,4.68-2.86,9.51-7.68,9.12-13.61-.17-2.58-1.54-2.27-1.6-2.4-.42-.93-.83-1.89-1.25-2.83,2.53-.03,3.72,1.93,6.12.4,2.02-1.28,5.33-6.21,7.3-7.95,10.56-9.3,34.68-25.52,48.62-27.53,4.27-.62,5.99.23,9.55,1.45.78.27,2,1.18,2.48,1.34Z"/>
    <path class="st3" d="M143.02,121.67c-5.18,7.97-12.77,13.05-22.53,10.75-.56-2.75,19.7-8.62,22.53-10.75Z"/>
    <path class="st13" d="M126.3,135.8l-19.86,5.79c4.31-6.03,13.15-5.71,19.86-5.79Z"/>
  </g>
  <g>
    <path class="st15" d="M173.39,62.89c-1.36,2.28-2.29,5.01-3.83,7.23l-1.2-.28c-.71-3.33.7-6.14-2.38-2.33-2.45-.1-5.56,4.33-5.11,6.17-2,.56-2.79-2.83-3.02-2.86-1.4-.17-1.12,3.51-3.24,3.05-.52-.24-.43-9.97-2.49-5.65-.69,1.45.77,4.43-1.54,4.46l-3.66-5.54c-.32.15.95,6.37.66,7-.8,1.72-5.7,3.63-3.84,5.07,2.14,1.65,12.12-5.27,15.76-3.45-1.71,1.33-5.21,9.84-6.09,10.38-.45.28-7.82-4.91-2.99,3.62-.41.19-.92,1.3-1.41,1.7-2.02-1.94-1.81-2.32-4.68-3.88-7.5-4.07-5.89.48-10.92,2.79-10.08,4.64-11.72-12.67-9.68-19.49.36-1.22,2.23-.88,2.26-1,1.56-6.15.59-14.84,4.5-21.02.51-.3.77-1.22,1.83-1.35.42.42,1.61-.12,1.77.03,9.36,9.01,15.31,16.86,28.55,13.6,3.02-.74,6.53-1.42,9.12-3.21.13,1.86-.21,3.75,1.64,4.95Z"/>
    <path class="st16" d="M150.41,89.77c-4.82-8.53,2.55-3.34,2.99-3.62.87-.54,4.38-9.06,6.09-10.38-3.64-1.82-13.63,5.09-15.76,3.45-1.86-1.44,3.04-3.35,3.84-5.07.29-.63-.98-6.85-.66-7l3.66,5.54c2.32-.03.85-3.01,1.54-4.46,2.06-4.32,1.97,5.41,2.49,5.65,2.12.46,1.84-3.23,3.24-3.05.23.03,1.01,3.41,3.02,2.86-.45-1.84,2.66-6.28,5.11-6.17-5.44,6.74-8.64,18.94-15.56,22.26Z"/>
    <path class="st16" d="M147.06,81.26l-2.04,3.33c-.13-1.44.08-3.51,2.04-3.33Z"/>
  </g>
  <path class="st3" d="M138.35,99.15c-1.75.51-3.63.78-5.37,1.29l2.5-4.75c1.91-.11,1.47,1.92,2.88,3.46Z"/>
  <path class="st11" d="M80.54,175.73c-.15-.87,10.66-12.15,11.79-13.19,8.32-7.67,28.51-9.62,39.22-12.72,13.5-3.9,26.8-8.94,40.5-11.66,1.3-1.71-8.38-3.42-9.07-4.64,2.91-.26,24.54-8.64,23.7-10.86-2.09.16-4.15-.57-6.16-.79-9.21-1.04-10.4-1.55-19.26-4.47,1.84,3.12-1.7,4.45-2.24,7.47.67,1.33,14.34-2.99,7.33,2.84-3.69,3.07-15.22,1.16-17.04,2.39-4.14,2.81-7.61,10.1-15.14,10.06l7.55-7.38c-9.7.38-14.59,6.97-21.72,11.07-6.44,3.71-24.87,12.29-29.02,16.86-6.18,6.8-7.15,10.9-10.86,15.04"/>
  <path class="st18" d="M45.54,142.81c.26,1.33,1.6,2.69.44,4.67l-33.88,2.8c-.01-.11-.34-.92-.5-1.13,1.76-.96,4.02-3.72,6.46-4.34l4.67-.44-9.01,4.38c5.15-.2,9.46-3.58,14.27-4.68,5.18-1.18,12.19-1.51,17.54-1.26Z"/>
  <path class="st22" d="M42.49,164.68c-7.53,1.43-17.7.34-22.9,6.86-1.58.38-3.31,1.48-5.3,2.07,2.98-2.53,5.96-5.21,9.1-7.53s14.57-9.89,18.3-7.8c1.87,1.05.85,4.87.8,6.4Z"/>
  <path class="st20" d="M51.48,143.43c-.09,1.75-1.97,3.66-.69,5.17-1.61-.34-3.29-.3-4.81-1.12,1.16-1.98-.18-3.34-.44-4.67-.45-2.32-.19-4.2-1.79-6.5,1.76,1.35,1.92,3.48,3.34,4.2,1.97.99,4.7-3.04,4.4,2.92Z"/>
  <path class="st1" d="M28,144.07c-4.81,1.1-9.12,4.48-14.27,4.68l9.01-4.38-4.67.44c-2.44.62-4.7,3.37-6.46,4.34-.59.32-2,1.31-2.16,0,3.55-4.62,8.16-9.65,13.58-12.07.66-.29,4.11-1.62,4.38-1.39l-.56,2.41c3.42-1.11,8.14-2.47,11.73-2.48-3.35,2.74-11.08,2.85-10.58,8.45Z"/>
  <path class="st3" d="M44.05,147.64s6.7.31,5.66,5.8-8.01,4.84-8.01,4.84l-.32,11.21,2.55-.04s16.69.65,15.62,9.7,23.98-9.93,23.98-9.93l-.77-15.06-19.18-11.49-20.07,5.62"/>
  <path class="st26" d="M43.75,136.31c1.6,2.3,1.34,4.18,1.79,6.5-5.35-.25-12.36.08-17.54,1.26-.5-5.6,7.23-5.71,10.58-8.45,1.53,0,3.2-.56,4.74.34.15.09.28.24.43.35Z"/>
  <path class="st14" d="M60.8,138.23c-4.85-1.89-10.75,2.87-11.4-4.42.75-.24,1.51-.84,2.26-1,1.56.85,7.66,1.22,8.64,2.13,1.04.97.26,2.29.51,3.29Z"/>
  <path class="st6" d="M93.31,150.09c-2.4,1.52-3.59-.43-6.12-.4.42.94.83,1.89,1.25,2.83l-12.2,1.74c-1.14,1.19,3.48,2.34-.94,4.6-3.56,1.83-11.3,2.88-12.29,7.04-2.52.64-4.65,1.41-7.28,1.86.48-1.55-.39-3.19-.44-4.67-.04-1.15.94-2.93-.01-4.32,4.69-.86,9.67-3.87,13.28-6.94-6.47,2.79-12.65-2.16-17.77-3.23-1.28-1.5.6-3.41.69-5.17l10.26.6.95-.29c-.26-1.89-.33-3.75-.34-5.66,3.67-.31,15.51,5.22,15.7.09.26.02.97.27,1.2.28,4.29,6,8.3,4.08,13.16.13-1.36,4.23-7.87,3.61-2.49,6.91l-2.15,2.16,5.53,2.42Z"/>
  <path class="st25" d="M61.59,184.07c-5.61,5.73-14.13,4.88-22.37,6.23-1.24.2-1.27-1.19-.88,1.06-.23-.02-1.56.57-2.12.4-.54-.81,2.19-3.3,2.96-4.01.27,1.39.99.76,1.81.42,3.45-1.44,6.88-3.41,10.6-4.14,3.03-.59,6.39.69,8.73-1.02l1.28,1.06Z"/>
  <path class="st9" d="M67.88,184.26c-8.49,4.33-19.93,7.74-29.55,7.1-.39-2.25-.36-.86.88-1.06,8.24-1.35,16.76-.49,22.37-6.23,1.56-1.59,3.12-3.29,5.08-4.4,2.02,1.48,2.74,1.91,1.22,4.59Z"/>
  <path class="st4" d="M55.29,163.08l-11.6,1.88c-.01-.84-.19-5.86.02-6.08.56-.64,9.99.18,11.57-.11.95,1.38-.03,3.17.01,4.32Z"/>
  <path class="st12" d="M55.73,167.75c-3.93.68-7.77,1.68-11.81,1.7-1.41-.9-.2-3.05-.23-4.49l11.6-1.88c.05,1.48.92,3.11.44,4.67Z"/>
  <path class="st26" d="M60.31,183.01c-2.35,1.71-5.71.43-8.73,1.02-3.72.73-7.15,2.7-10.6,4.14-.82.34-1.53.97-1.81-.42,4.93-4.51,9.68-5.3,15.4-7.34,1.99,1.45,3.64.86,5.74,2.6Z"/>
  <path class="st12" d="M66.66,179.67c-1.96,1.11-3.52,2.81-5.08,4.4l-1.28-1.06c-2.1-1.74-3.75-1.15-5.74-2.6,3.25-1.16,7.21-1.48,9.97-2.51.73.55,1.39,1.22,2.13,1.76Z"/>
  <path class="st4" d="M60.8,138.23c.48,1.93.39,3.89.94,5.8l-10.26-.6c.31-5.96-2.43-1.93-4.4-2.92-1.42-.72-1.58-2.84-3.34-4.2-.14-.11-.27-.26-.43-.35,1.79-1.31,4.06-1.5,6.08-2.14.65,7.29,6.55,2.53,11.4,4.42Z"/>
  <path class="st10" d="M62.36,138.09c0-.75-1.45-2.64-.08-2.94.71-.31,13.13,2.46,15.36,2.67.15.01.27.34.43.35-.2,5.13-12.03-.4-15.7-.09Z"/>
  <g>
    <path class="st17" d="M80.92,168.52c-5.63,3.44-25.08,7.84-11.68-3.22,1.85-1.53,5.94-1.84,6.06-6.46,4.42-2.26-.2-3.41.94-4.6l12.2-1.74c.06.13,1.43-.18,1.6,2.4.4,5.93-4.44,10.76-9.12,13.61Z"/>
    <path class="st3" d="M85.27,158.49c-.58,1.44-5.24,1.08-6.26.2l6.26-.2Z"/>
  </g>
  <path class="st9" d="M69.24,165.3c-1.85-.57-4.45.13-6.22.59.99-4.16,8.72-5.22,12.29-7.04-.13,4.62-4.21,4.93-6.06,6.46Z"/>
  <path class="st11" d="M62.28,135.15c-1.37.3.08,2.18.08,2.94,0,1.91.08,3.76.34,5.66l-.95.29c-.55-1.91-.46-3.86-.94-5.8-.25-1,.54-2.32-.51-3.29-.98-.91-7.08-1.28-8.64-2.13,4.89-1,4.68.49,9.31.89"/>
  <path class="st2" d="M19.6,171.54c5.19-6.53,15.37-5.44,22.9-6.86-.03.86.41,4.69.26,4.88-.72.92-18.76.94-23.16,1.98Z"/>
</svg>