<?xml version="1.0" encoding="UTF-8"?>
<svg id="Extras" xmlns="http://www.w3.org/2000/svg" version="1.1" viewBox="0 0 500 500">
  <!-- Generator: Adobe Illustrator 29.4.0, SVG Export Plug-In . SVG Version: 2.1.0 Build 152)  -->
  <defs>
    <style>
      .st0 {
        fill: #1d2235;
      }

      .st1 {
        fill: #04040e;
      }

      .st2 {
        fill: #303950;
      }

      .st3 {
        fill: #5c2333;
      }

      .st4 {
        fill: #150f1c;
      }
    </style>
  </defs>
  <path class="st3" d="M403.39,327c23.12,17.72,50.64,23.54,78.95,15.37,6.66-19.83-3.1-36.55-8.76-55.2-69.18,23.75-134.18-52.43-127.83-115.28-2.58,2.42-1.71,5.39-1.75,8.73-.41,39.35,23.88,102.4,48.21,133.45,3.48,4.44,8.34,8.03,11.18,12.93Z"/>
  <path class="st2" d="M355.18,69.88c-1.61-5.71-3.98-10.87-7.69-15.37,12.94,26.29,2.98,56.94,2.79,84.89-.31,47.5,12.36,91.69,54.85,117.03,2.51,1.5,7.9,4.94,10.83,4.54-3.77-2.54-4.64-6.42-6.99-9.78-5.71-8.17-18.41-15.64-25.85-25.85-38.51-52.83-13.26-103.33-27.95-155.46Z"/>
  <path class="st1" d="M477.28,291.52c-79.3,31.02-137.88-56.78-131.53-119.63-2.58,2.42-1.71,5.39-1.75,8.73-.41,39.35,23.88,102.4,48.21,133.45,3.48,4.44,8.34,8.03,11.18,12.93-37.9-29.04-60.74-90.76-63.58-137.29-2.36-38.68,7.03-75.87,6.36-114.09.03-.1.07-.19.1-.29l.27-2.05c0-1.39-.35-2.68-1.05-3.88-.32-.42-.65-.84-.97-1.25.47-.1.78-.32.87-.71-3.84-12.47-13.23-21.72-25.15-26.9,1.53-1.9,3,1.3,2.79-1.4,5.63,3.4,12.88,4.97,18.86,9.78.76.61,4.94,4.8,5.59,5.59,12.94,26.29,2.98,56.94,2.79,84.89-.31,47.5,12.36,91.69,54.85,117.03,2.51,1.5,7.9,4.94,10.83,4.54-3.77-2.54-4.64-6.42-6.99-9.78-5.71-8.17-18.41-15.64-25.85-25.85-38.51-52.83-13.26-103.33-27.95-155.46,5.2-2.67,3.1-3.78,4.19-8.38.13.97,1.27,5.51,1.75,5.59l5.94-4.54c-.7,4.52-4.46,16.52-2.1,20.26l7.69-2.1c-4.58,6.81-8.24,14.73-8.38,23.06l1.4.7,9.78-4.19c-6.18,6.81-12.55,15.02-10.13,24.8l10.13-3.14c-4.28,8.89-12.45,12.37-8.38,23.76l11.18-1.4c-5.72,6.94-11.97,16.61-5.24,24.8l9.43-3.84c-1.65,7.46-7.94,9.89-6.29,18.17,2.45,12.25,5.5,2.82,10.13,2.45,8.21-.66-.38,6.24-1.05,9.43-1.1,5.26.5,13.97,4.54,17.82,2.2.17,4.21-13.43,10.83-10.13-1.04,10.85-.66,30.64,14.32,29.69-3.07-41.11,12.3,8.83,18.86,6.29.58-3.08-3.14-20.88,2.1-22.36,4.93-1.39,28.85,31.03,35.16,25.62"/>
  <path class="st0" d="M300.68,25.16c2.08,1.58.99-2.41,3.84-.7.65.39,4.51,5.7,6.29,6.99,3.89,2.83,8.12,5.2,12.23,7.69,5.63,3.4,12.88,4.97,18.86,9.78,6.57-5.21,6.2-5.71,6.29-13.97-.27-.96-.11-2.19-.7-3.14l-4.54,8.73c-6.87-4.11-7.36-12.92-10.48-19.56l-1.05,10.13c-.58.66-.79.99-1.75,1.05-4.49.26-32.26-17.51-34.93-23.76.73,6.05,3.53,11.32,5.94,16.77Z"/>
  <path class="st4" d="M300.68,25.16c2.64,5.97,5.55,11.98,9.08,17.47l11.53,13.28c.73-.88-.25-1.54-.35-2.79-.26-3.16-2.55-10.28-.7-12.58,1.53-1.9,3,1.3,2.79-1.4-4.11-2.48-8.33-4.86-12.23-7.69-1.77-1.29-5.64-6.6-6.29-6.99-2.85-1.71-1.76,2.28-3.84.7Z"/>
  <path class="st4" d="M341.9,48.92c.76.61,4.94,4.8,5.59,5.59,3.7,4.5,6.08,9.66,7.69,15.37,5.2-2.67,3.1-3.78,4.19-8.38-.68-5.23.5-11.72,0-17.12l-4.54,8.03c-5.57-4.81-4.87-11.13-6.64-17.47-.08,8.27.29,8.76-6.29,13.97Z"/>
  <path class="st1" d="M321.29,55.91c.45-.54.25-1,.01-1.56.34.7.9,1.46,1.63,2.25-.57.15-1.11.34-1.6.6-.09.05-.15.11-.24.16-4-4.07-7.59-8.91-11.33-14.73l11.53,13.28Z"/>
</svg>