<?xml version="1.0" encoding="UTF-8"?>
<svg id="Layer_1" xmlns="http://www.w3.org/2000/svg" version="1.1" viewBox="0 0 220.09 277.58">
  <!-- Generator: Adobe Illustrator 29.4.0, SVG Export Plug-In . SVG Version: 2.1.0 Build 152)  -->
  <defs>
    <style>
      .st0 {
        fill: #3f2035;
      }

      .st1 {
        fill: #c0afbb;
      }

      .st2 {
        fill: #a295a9;
      }

      .st3 {
        fill: #231523;
      }

      .st4 {
        fill: #49364e;
      }

      .st5 {
        fill: #836a86;
      }

      .st6 {
        fill: #04040e;
      }

      .st7 {
        fill: #5b314c;
      }

      .st8 {
        fill: #362d55;
      }

      .st9 {
        fill: #2f2f45;
      }

      .st10 {
        fill: #150f1c;
      }

      .st11 {
        fill: #a58493;
      }
    </style>
  </defs>
  <path class="st7" d="M97.99,264.03c.48,2.12,3.18,8.67,2.76,10.5-2.64-2.49-6.7-3.97-9.39-6.08-15.22-11.92-.97-12.82,6.63-4.42Z"/>
  <path class="st10" d="M109.61,78.38c1.29-1.11,3.74-.69,5.52,0l-4.42,37.85c2.1.57.76-3.58,1.1-4.42.45-1.1,2.11-.66,2.21-1.1.26-1.1-.81-3.56-.55-4.97,1.09-5.89,2.25-11.8,3.31-17.68.14,5.44,1.44,10.82,3.59,15.75,1.28-1.01-1.78-5.32.83-4.7-.32,2.16,2.43,9.79,2.21,11.05-.41,2.33-2.29.52-2.76,2.21s7.77,20.66,9.39,23.48l-13.54,6.63c-8.14-8.75-13.81-30.22-11.33-41.71.22-1.02,2-2.2,2.21-3.04,2.59,1.66,4.74-6.33,4.97-8.01.3-2.22,1.17-12.53-2.76-11.33h.02Z"/>
  <path class="st0" d="M93.01,243.04c7.39.9,15.76-4.89,23.2-.55-1.06-.21-3.81-.44-4.97-.28,5.26,2.58,11.89,4.96,13.54,11.33,1.39-.28-.45-3.94,1.1-4.42.43-.14,6.11,4.78,6.91,5.52,1.4,1.29,3.18,2.17,3.31,4.42-1.05-.22-3-1.18-4.42-1.66-.72-.25-5.76-4.69-6.63-.83-.33,1.5,3.65,4.09,3.87,5.8-1.28.9-3.06,1.21-3.87,1.66.64-3.02-1.06-3.96-2.21-5.52-1.41-1.93-8.47-7.8-10.5-4.42-.96,1.59,3.82,8.46,4.97,9.39-3.82-.89-4.66,3.58-6.35,6.08-2.18-2.94.19-9.55-4.14-10.5-.39-5.33-7.45-6.53-11.6-5.8,1.17,1.2,1.84,2.76,2.76,4.14-7.48-2.53-17.76-3.49-17.68-13.54,4.98-4.45,8.21-1.38,12.71-.83h0Z"/>
  <path class="st10" d="M109.04,81.14c-2.54,3.71-.19,9.3-1.66,13.54-.73,2.11-3.89,3.79-4.97,5.52-.14.23-.03,3.6-1.38,4.7-.99-.05-3.19-18.59-3.04-19.61.38-2.55,9.25-10.85,11.05-6.35-.68,1.41.12,1.06,0,2.21h0Z"/>
  <g>
    <path class="st6" d="M77.81,80.58c4.47,14.75,9.77,29.25,15.19,43.65.37.96,5.83,11.59,4.7,12.15-15.75-11.66-28.5-.23-36.74,13.54-.05,1.63,6.53-2.34,7.46-2.49,2.45-.39,5.72.29,8.29,0,2.68,2.99-4.14,3.84-5.52,4.97-12.7,10.32,3.95,31.95-17.96,24.03-.26.43,1.82,8.95,2.21,9.94,1.72,4.38,7.33,5.42-.55,6.08,9.63,13.85,11.23,34.48,8.01,50.55-7.66-1.86-15.62,3.67-16.3,11.6-.63,7.36,4.9,6.15,11.33,5.53.28-.03,1.42-1.66,1.66-1.66.85,0,1.88,3.87,3.32,4.97,4.76,3.62,22.1,3.35,28.45,4.97-15.22-11.92-.97-12.82,6.63-4.42.93,1.03,1.56,2.55,2.76,2.76,0-.99-.49-1.11-.55-1.93.82-.64,1.83-.68,2.76-.83-.89-2.56-3.53-4.46-4.97-6.63-7.48-2.53-17.76-3.49-17.68-13.54,4.98-4.45,8.21-1.38,12.71-.83-5.23-5.98-8.21-20.48-8.29-28.45-.21-20.93,32.61-45.68,45.3-60.77,2.06-2.45,3.26-7.64,7.18-8.01-2.33-1.61-5.69-7.33-7.18-9.94l-13.54,6.63c-8.14-8.75-13.81-30.22-11.33-41.71.22-1.02,2-2.2,2.21-3.04,1.82-7.24.97-9.74,1.66-16.57-2.54,3.71-.19,9.3-1.66,13.54-.73,2.12-3.89,3.8-4.97,5.53-.14.23-.03,3.6-1.38,4.7-.99-.05-3.19-18.59-3.04-19.61.38-2.55,9.25-10.85,11.05-6.35.01-.03.46-.48.55-.55,1.3-1.11,3.75-.69,5.53,0,1.15.45,6.11,4.6,7.46,3.87.82-2.09-2.36-3.41-3.04-4.42-1.15-1.73,15.75-8.62,21.55-14.29l-4.96-20.74c-1.7-.34-29.02-33.1-30.48-33.87-4.63-2.44-7.23,2.04-12.08.94.92,5.47-27.48,30.84-27.62,27.35"/>
    <path class="st10" d="M99.92,144.7c.29,0,3.99,3.56,4.14,4.14,1.32,5.12-9.94,16.7-12.43,21.82-3.16-3.99,5.16-26,8.29-25.97h0Z"/>
  </g>
  <path class="st1" d="M95.23,253.26c4.14-.73,11.21.47,11.6,5.8.09,1.24-.91,5.31-1.66,5.8-1.22.8-1.49-.94-2.21-.83-.89-2.56-3.53-4.46-4.97-6.63-.91-1.38-1.59-2.93-2.76-4.14Z"/>
  <path class="st9" d="M109.59,78.38c3.93-1.19,3.06,9.12,2.76,11.33-.23,1.68-2.37,9.66-4.97,8.01,1.82-7.24.97-9.74,1.66-16.57.12-1.15-.68-.8,0-2.21.01-.03.46-.48.55-.55h0Z"/>
  <path class="st5" d="M125.88,249.11c-1.54.48.29,4.14-1.1,4.42-1.66-6.37-8.28-8.75-13.54-11.33,1.16-.16,3.91.07,4.97.28,7.3,1.41,16.02,10.15,19.34,11.05v.55s-2.76.55-2.76.55c-.81-.73-6.49-5.65-6.91-5.52Z"/>
  <path class="st2" d="M117.32,263.47c-1.15-.93-5.92-7.8-4.97-9.39,8.6-2.08,10.9,14.19,4.97,9.39Z"/>
  <path class="st11" d="M125.05,256.57c.87-3.86,5.91.58,6.63.83.33,1.96-.35,4.22-1.93,5.52-.04.03-.55-.75-.83-.55-.22-1.71-4.21-4.3-3.87-5.8Z"/>
  <path class="st7" d="M125.06,264.02c-.11.06.23,1.59-.28,1.66l-1.93-7.18c1.15,1.56,2.85,2.49,2.21,5.52Z"/>
  <path class="st4" d="M109.04,17.34c6.19-6.85,12.84-13.86,23.2-11.88,1.37.26,9.44,4.49,11.6,5.52.05.02-.02.85,1.1.55,3.72,8.15,2.98,20.61,6.08,28.18-1.8.53-.52,1.94-.55,3.31-.09,4.92-.69,10.01-1.1,14.92h-1.66c0-2.48,0-4.97,0-7.46-.95-1.1-1.3.89-1.38.83-.19-.14-.41-1.36-.83-2.21-.57-5.55-1.25-12.24-4.42-16.85.15,1.78.68,3.53,1.1,5.25l-1.66.83c2.94,5.7-2.77,2.25.55,7.73-2.1-.25-4.45-6.05-4.97-1.93-.32-.65-2.13-3.87-2.49-3.87l-1.1,2.21c-1.93-3.04-4.69-7.09-7.46-9.39-1.18-.98-2.11-2.47-3.87-2.76-.54-2.15-2.17-3.74-3.31-5.52-.42-.67-.62-1.61-1.1-2.21-3.12-3.89-3.91-2.61-7.73-5.25Z"/>
  <path class="st10" d="M142.17,37.51c-.41-1.72-.94-3.47-1.1-5.25,3.17,4.61,3.85,11.3,4.42,16.85-1.35-2.75-2.52-8.36-3.31-11.6h-.01Z"/>
  <g>
    <path class="st8" d="M136.1,44.14c.51-4.13,2.87,1.68,4.97,1.93-3.32-5.48,2.4-2.03-.55-7.73l1.66-.83c.79,3.23,1.96,8.84,3.31,11.6.42.85.64,2.07.83,2.21.07.05.43-1.93,1.38-.83,0,2.49,0,4.98,0,7.46.07,15.33-2.3,30.6-2.76,45.86l-4.97,42.82c-.64,1.1-2.26-.49-2.76-.83-2.33-1.61-5.69-7.33-7.18-9.94-1.62-2.82-9.86-21.79-9.39-23.48s2.35.12,2.76-2.21c.22-1.26-2.53-8.89-2.21-11.05-2.61-.61.44,3.69-.83,4.7-2.15-4.94-3.45-10.31-3.59-15.75-1.06,5.88-2.22,11.79-3.31,17.68-.26,1.41.81,3.87.55,4.97-.1.43-1.76,0-2.21,1.1-.34.84,1.01,4.99-1.1,4.42l4.42-37.85c1.15.45,6.11,4.6,7.46,3.87.82-2.09-2.36-3.41-3.04-4.42-.68-3.85-1.26-7.81-2.21-11.6,6.35-6.68,12.98.7,18.78-4.97.07-.07.85-.49,1.1-.55.25.62.71,2.28,1.66,1.38.21-5.82-.13-12.64-2.76-17.96h-.01Z"/>
    <g>
      <path class="st3" d="M147.71,57.96h1.66c-.89,10.7-1.48,21.33-2.21,32.04,0,.11-.47,1.04-.55,2.21-.42,6.04-2.53,6.08,2.76,10.5-1.17-.53-2.04-1.89-3.59-1.66l-.83,2.76c.46-15.26,2.82-30.54,2.76-45.86h0Z"/>
      <path class="st10" d="M125.89,110.43c-3.05-1.46-4.95-20.95-3.87-20.99-.34,1.83,7.5,20.84,3.87,20.99Z"/>
      <path class="st10" d="M126.43,78.94c-2.83-3.15-4.08-10.14-3.31-14.36l3.31,14.36Z"/>
      <path class="st10" d="M129.2,108.22c-.73-1.43-4.52-19.72-3.31-19.89,1.28,6.55,3.41,13.12,3.31,19.89Z"/>
      <path class="st10" d="M132.51,109.33c-1.14-1.26-3.65-17.55-2.76-17.68,1.35,5.77,2.53,11.74,2.76,17.68Z"/>
      <path class="st10" d="M131.97,81.15c-1.28-.77-2.39-10.38-1.66-10.5.53-.08,2.63,9.48,1.66,10.5Z"/>
    </g>
  </g>
</svg>