<?xml version="1.0" encoding="UTF-8"?>
<svg id="ARM_L" xmlns="http://www.w3.org/2000/svg" version="1.1" viewBox="0 0 500 500">
  <!-- Generator: Adobe Illustrator 29.4.0, SVG Export Plug-In . SVG Version: 2.1.0 Build 152)  -->
  <defs>
    <style>
      .st0 {
        fill: #481224;
      }

      .st1 {
        fill: #c0afbb;
      }

      .st2 {
        fill: #866175;
      }

      .st3 {
        fill: #320a10;
      }

      .st4 {
        fill: #ef8a4c;
      }

      .st5 {
        fill: #e2b1cc;
      }

      .st6 {
        fill: #b25545;
      }

      .st7 {
        fill: #824158;
      }

      .st8 {
        fill: #b16684;
      }

      .st9 {
        fill: #853a35;
      }

      .st10 {
        fill: #c84e36;
      }

      .st11 {
        fill: #04040e;
      }

      .st12 {
        fill: #d47550;
      }

      .st13 {
        fill: #200309;
      }

      .st14 {
        fill: #ecae65;
      }

      .st15 {
        fill: #7d3344;
      }

      .st16 {
        fill: #5c2333;
      }

      .st17 {
        fill: #a2433e;
      }

      .st18 {
        fill: #705b6d;
      }

      .st19 {
        fill: #f4be61;
      }

      .st20 {
        fill: #70180f;
      }

      .st21 {
        fill: #15050a;
      }

      .st22 {
        fill: #e3e3e5;
      }

      .st23 {
        fill: #9a3043;
      }

      .st24 {
        fill: #c785a4;
      }

      .st25 {
        fill: #a58493;
      }

      .st26 {
        fill: #fdfdfd;
      }
    </style>
  </defs>
  <path class="st15" d="M198.84,133.67c.52-.9,2.01-2.03,2.41-2.62.92,1.32-.83,5.85-.7,6.13.61,1.21,1.1-.38,2.56,1.14.48.5.79,1.17,1.24,1.69-5.47,1.82,7.39,12.91,9.1,13.63,8.01,3.38,6.76-5.99,9.95-9.43,1.66-1.8,5.28-2.53,6.04-3.56.44-.59-1.97-14.05-2.47-14.6l.57-.41,6.4-4.24-4.73-6.47c4-.14,4.84-.24,8.91.38,1.75.27,3.58,1.4,4.73,1.73,3.74,2.99,8.9,12.77,13.86,7.14,1.29,1.53,3.36,2.57,4.27,4.66,2.65,6.15.92,2.79,3.79,9.32-5.2,14.76-13,33.1-28.78,39.19-11.13-2.59-18.33-12.35-24.91-21.08l.78,4.61c-.35,1.96-11.77-10.71-12.54-12.42l-1.06,6.83c1.07-3.11-2.79-8.21-2.89-8.68-.04-.22-.36-.36-.41-.57-.14-.64,3.38-11.41,3.92-12.37,0,0-.04,0-.04,0Z"/>
  <path class="st16" d="M194.33,153.42c.18-2.3.13-4.66,1.06-6.83.1.47,3.95,5.59,2.89,8.68l1.06-6.83c.77,1.71,12.19,14.39,12.54,12.42l-.78-4.61c6.58,8.74,13.78,18.49,24.91,21.08-10.39,4.01-12.71.16-20.7-6.45-.91.4,2.09,5.85,2.71,6.66-1.02,1.13-3.87-.89-4.51-1.45-3.45-2.98-17.21-15.43-18.6-18.35-.46-.98.75-4.13-.57-4.33,0,0,.01,0,.01,0Z"/>
  <path class="st3" d="M209.41,184.68c-9.38-7.37-15.99-19.39-15.1-31.27,1.33.21.11,3.36.57,4.33,1.39,2.92,15.16,15.36,18.6,18.35.65.56,3.5,2.57,4.51,1.45,2.19,2.85,4.57,1.99,6.42,5.24.14.24-1.24,1.68-.86,2.36.25.46,8.86,1.08,10.01,3.05l-12.92,1.23c-3.75-1.16-8.12-2.27-11.24-4.73h0Z"/>
  <path class="st5" d="M201.27,131.05c7.74-11.54,8.76-12.22,21.79-15.07-1.54,2.2-4.01,5.68-5.67,7.6-2.31,2.68-6,4.57-6.79,8.43l-7.47,6.33c-1.46-1.52-1.95.07-2.56-1.14-.15-.27,1.6-4.81.7-6.13h0Z"/>
  <path class="st8" d="M226.15,115.45l1.41,10.2-.57.41c-2.24-2.51-5.11,1.06-5.38.92-.49-.27-.45-4.48-4.21-3.4,1.65-1.92,4.13-5.39,5.67-7.6,1.24-.28,1.83-.37,3.08-.52Z"/>
  <path class="st7" d="M226.14,115.46c.93-.12,1.54-.46,3.08-.52l4.73,6.47-6.4,4.24-1.41-10.2h0Z"/>
  <path class="st0" d="M267.97,162.62c-1.32.43-3.26,5.43-4.26,6.57-1.19,1.37-3.59,5.17-3.83,5.4-.56.5-2.03-.27-2.23-.1-12.47,10.65-20.56,20.08-36.99,14.97l12.92-1.23c-1.15-1.98-9.75-2.6-10.01-3.05-.38-.68,1-2.13.86-2.36-1.85-3.26-4.23-2.39-6.42-5.24-.62-.81-3.62-6.27-2.71-6.66,7.98,6.61,10.31,10.47,20.7,6.45,15.76-6.11,23.58-24.45,28.78-39.19.49-1.39-.67-.04,0,0,3.73,1.32,4.3,15.29,5.45,16.31"/>
  <path class="st23" d="M242.86,117.05c8.4,2.38,7.63-.29,13.86,7.14-4.95,5.63-10.12-4.16-13.86-7.14Z"/>
  <path class="st7" d="M210.62,132.01c.79-3.86,4.48-5.75,6.79-8.43,3.74-1.08,3.72,3.13,4.21,3.4.27.14,3.13-3.43,5.38-.92.5.55,2.91,14.01,2.47,14.6-.76,1.03-4.38,1.77-6.04,3.56-3.19,3.42-1.93,12.79-9.95,9.43-1.71-.72-14.56-11.8-9.1-13.63l6.75,6.28c-1.97-4.26,4.21-6.78,4.21-7.82,0-.16-2.69-1.3-2.77-1.43-2.52-3.84,1.31-2.64-1.96-5.05h.01Z"/>
  <path class="st24" d="M203.14,138.33l7.47-6.33c3.26,2.41-.57,1.22,1.96,5.05.08.13,2.78,1.28,2.77,1.43,0,1.05-6.18,3.56-4.21,7.82l-6.75-6.28c-.45-.52-.76-1.21-1.24-1.69h0Z"/>
  <path class="st16" d="M200.65,196.3c-.53-2.17,1.71-9.37,2.09-11.9,1.75.41,3.39,4.77,4.24,6.4,1.54,2.97,2.5,6.48,4.28,9.4l1.53-.26c1.16-4.14-.42-7.79,3.17-2.75,6.34,8.89,9.45,24.5,17.91,29.22.5.27,1.06,1.71,1.65,2.25-2.41,2.05-2.8-.09-4.66,4.27-7.74-.1-17.79-8-14.09-16.9l-3.68,4.42c-4.21-2.95-1.92-8.35-2.12-8.81-1.06-2.49-8.63-10.64-9.93-14.76-.06-.22-.36-.36-.41-.57h.01Z"/>
  <path class="st19" d="M193.54,264.54c7.62-6.27-13.76.7-15.99-4.73l5.28,1.32c10.93-4.16,20.37-10.95,30.33-17,.34,1.63,2.41,6.6,4.37,7.17-.09.07.66,1.2-.58,2.15s-20.45,6.27-20.1,7.36c7.9.16,17.15-4.62,24.5-1.94-1,.28-2.61,1.33-3.23,1.5-11.38,3.01-12.92,3.56-24.6,4.17h.01Z"/>
  <path class="st0" d="M201.04,196.87c1.31,4.1,8.87,12.25,9.93,14.76.2.47-2.08,5.87,2.12,8.81l3.68-4.42c-3.7,8.9,6.35,16.8,14.09,16.9-.59,1.38.75,4.28-1.88,5.69-2.16.15-4.42.29-6.56.48l-18.1-24.75c-1.74-5.79-3.4-11.33-3.27-17.47Z"/>
  <path class="st19" d="M213.32,243.18c-.05-.19.9-2.84.6-3.9,2.39,1.7,6.03.03,8.51-.17,2.15-.17,4.41-.32,6.56-.48,2.46-.18,5.05-.28,7.53-.33,3.92-.08,7.56-.9,11.28,1.25-.54.54.37,1.82-2.69,2.82s-8.52-1.21-11.71-.07c-5.48-1.13-10.63-.07-16.05.5-1.3.14-2.72.2-4.04.36h.01s0,.01,0,.01Z"/>
  <path class="st21" d="M213.91,239.28c-2.36-8.13-6.98-16.21-9.6-24.94l18.1,24.75c-2.48.2-6.1,1.87-8.51.17h0Z"/>
  <path class="st12" d="M213.18,244.15c-.22-1,.16-.93.15-.98,1.32-.15,2.73-.23,4.04-.36l7.29,2.88c-3.23.93-4.92,3.81-7.11,5.63-1.96-.56-4.03-5.54-4.37-7.17h.01Z"/>
  <path class="st3" d="M235.5,228.66c2.69-2.29,2.46-2.79,6.19-4.53l-5.19,14.16c-2.48.05-5.05.15-7.53.33,2.64-1.4,1.3-4.3,1.88-5.69,1.86-4.36,2.24-2.22,4.66-4.27h-.01Z"/>
  <path class="st17" d="M217.54,251.3c2.2-1.81,3.88-4.68,7.11-5.63l-7.29-2.88c5.42-.57,10.57-1.63,16.05-.5,3.71.77,5.84.86,8.67,3.59,1.22,3.12-9.58.51-10.28,1.9,10.9,9.16.34,4.14-.19,4.46-.46.28-.26,5.14,1.88,5.54-5.32-1.1-7.56-.18-12.14,1.1-7.36-2.68-16.61,2.11-24.5,1.94-.35-1.11,18.84-6.41,20.1-7.36s.5-2.08.58-2.15h0Z"/>
  <path class="st9" d="M233.4,242.32c3.19-1.14,8.79,1.03,11.71.07s2.15-2.27,2.69-2.82c.16-.15.41-.25.57-.41,2.17.78,4.51,1.26,6.67,2.03,2.88,1.03,8.05,2.51,10.41,3.61,1.45.68,2.04.55,3.75,1.58,17.96,10.81,27.28,46.18,50.61,46.77-5.86,7.22-10.76,4.51-16.59-.83,1.39,5.43,9.64,5.16,2.61,8.89l2.54,2.88-7.15,2.63c-2.45-1.77-6.24-8.24-8.59-10.57-12.61-12.52-41.76-34.76-59.15-38.36-2.14-.41-2.32-5.27-1.88-5.54.54-.32,11.09,4.7.19-4.46.7-1.39,11.49,1.22,10.28-1.9-2.83-2.74-4.96-2.84-8.67-3.59h0Z"/>
  <path class="st16" d="M241.74,224.12c9.76-4.56,7.38,1.04,13.54,4.34,12.35,6.61,15.71-15.07,13.67-23.82-.36-1.56-2.74-1.28-2.77-1.43-1.5-7.86.38-18.74-4.07-26.82,7.71,5.31,8.19,9.89,10.1,18.53.23,1.06,1.22,3.25,1.34,4.2,1.42,11.55-2.4,26.72-6.31,37.43-.98,2.7-2.93,5.04-1.77,8.21-2.36-1.1-7.53-2.58-10.41-3.61l-2.79-6.17c-2.4-.28-2.01,2.31-3.89,4.14-.17.15-.41.24-.57.41-3.7-2.13-7.34-1.33-11.28-1.25l5.19-14.16h.03s0-.01,0-.01Z"/>
  <g>
    <path class="st3" d="M218.12,260.38c.62-.17,2.22-1.22,3.23-1.5,4.58-1.27,6.81-2.21,12.14-1.1,17.41,3.59,46.56,25.85,59.15,38.36,2.35,2.34,6.15,8.8,8.59,10.57,2.91,2.11,4.55-.27,7.74-.04-.6,1.15-1.19,2.33-1.79,3.47-.09.16-1.79-.34-2.2,2.9-.94,7.44,4.78,13.88,10.46,17.83,5,4.89,13.28,10.13,19.92,13.07-.96.64-1.84,1.43-2.82,2.06-2.66,1.7-3.6,2.2-1.88,5.69-20.49-12.05-15.45-16.71-27.3-31.43-4.88-6.07-27.44-18.28-35.28-23.44-8.67-5.7-14.33-14.38-26.52-15.59l8.95,9.87c-9.49-.52-13.31-9.97-18.31-13.82-2.2-1.69-16.87-.16-21.28-4.3-8.39-7.87,8.5-1.4,9.45-3.02-.45-3.84-4.81-5.79-2.26-9.58h0Z"/>
    <path class="st3" d="M268.33,282.39c-12.47,2.16-21.64-4.82-27.56-15.25,3.4,2.9,28.48,11.83,27.56,15.25Z"/>
    <path class="st13" d="M285.33,295.01l-24.58-8.8c8.45.61,19.6.88,24.58,8.8Z"/>
  </g>
  <g>
    <path class="st15" d="M206.96,190.79c2.42-1.37,2.14-3.78,2.44-6.11,3.13,2.45,7.5,3.57,11.24,4.73,16.43,5.11,24.52-4.33,36.99-14.97.21-.18,1.67.59,2.23.1,1.33.24,1.58,1.42,2.2,1.84,4.46,8.08,2.58,18.95,4.07,26.82.03.15,2.41-.13,2.77,1.43,2.05,8.75-1.33,30.42-13.67,23.82-6.16-3.29-3.79-8.9-13.54-4.34-3.73,1.75-3.5,2.24-6.19,4.53-.59-.54-1.15-1.98-1.65-2.25,6.73-10.38-2.95-4.4-3.49-4.79-1.07-.75-4.83-11.73-6.88-13.54,4.72-2.02,16.77,7.46,19.59,5.54,2.45-1.67-3.58-4.45-4.45-6.68-.32-.82,1.75-8.55,1.36-8.77l-5.03,6.7c-2.91-.21-.84-3.86-1.6-5.73-2.27-5.6-2.89,6.67-3.56,6.93-2.71.42-2.07-4.2-3.85-4.09-.29.02-1.54,4.23-4.02,3.37.71-2.28-2.88-8.1-5.97-8.16-3.59-5.03-2.03-1.39-3.17,2.75l-1.53.26c-1.77-2.91-2.74-6.42-4.28-9.4h-.01Z"/>
    <path class="st16" d="M233.88,226.42c-8.46-4.71-11.57-20.32-17.91-29.22,3.09.05,6.68,5.88,5.97,8.16,2.49.85,3.73-3.35,4.02-3.37,1.78-.12,1.14,4.51,3.85,4.09.67-.26,1.3-12.53,3.56-6.93.76,1.88-1.32,5.52,1.6,5.73l5.03-6.7c.39.21-1.68,7.95-1.36,8.77.88,2.23,6.9,5,4.45,6.68-2.81,1.9-14.87-7.56-19.59-5.54,2.05,1.79,5.83,12.79,6.88,13.54.53.39,10.21-5.59,3.49,4.79h0Z"/>
    <path class="st16" d="M241.06,220.29l-2.32-4.35c2.48-.08,2.59,2.55,2.32,4.35Z"/>
  </g>
  <path class="st3" d="M248.34,239.13c1.89-1.83,1.49-4.42,3.89-4.14l2.79,6.17c-2.15-.77-4.5-1.26-6.67-2.03,0,0-.01,0-.01,0Z"/>
  <path class="st11" d="M315.9,340.03c-4.36-5.5-5.27-10.73-12.54-19.77-4.88-6.07-27.44-18.28-35.28-23.44-8.67-5.7-14.33-14.38-26.52-15.59l8.95,9.87c-9.49-.52-13.31-9.97-18.31-13.82-2.2-1.69-16.87-.16-21.28-4.3-8.39-7.87,8.5-1.4,9.45-3.02-.45-3.84-4.81-5.79-2.26-9.58-11.38,3.01-12.92,3.56-24.6,4.17-2.55.12-5.2.89-7.82.53-1.23,2.73,25.38,14.93,29.03,15.48-.96,1.48-13.28,2.9-11.78,5.16,17.05,4.46,33.42,11.82,50.13,17.76,13.26,4.72,38.54,8.7,48.44,18.99,1.34,1.4,14.11,16.42,13.85,17.51"/>
  <path class="st18" d="M361.96,301.16c6.76.09,15.56,1.04,22,2.92,5.98,1.75,11.15,6.33,17.62,6.98l-11.02-6.2,5.85.91c3.03.97,5.66,4.61,7.81,5.96-.22.25-.69,1.25-.72,1.39l-42.46-6.09c-1.31-2.58.48-4.19.91-5.85h.01s0,0,0,0Z"/>
  <path class="st22" d="M365.63,320.94c4.86-2.35,18.68,8.05,22.46,11.21s7.33,6.76,10.89,10.17c-2.46-.89-4.56-2.41-6.52-3.01-6.06-8.61-18.95-8-28.32-10.38.05-1.93-.94-6.82,1.49-8h0Z"/>
  <path class="st20" d="M354.41,301.49c.07-7.53,3.21-2.25,5.76-3.34,1.84-.8,2.21-3.47,4.53-5.04-2.19,2.78-2,5.16-2.75,8.05-.43,1.66-2.22,3.27-.91,5.85-1.98.92-4.09.74-6.14,1.05,1.73-1.8-.5-4.35-.48-6.56h-.01Z"/>
  <path class="st1" d="M383.95,304.08c1.05-7.02-8.67-7.74-12.69-11.45,4.52.27,10.36,2.36,14.59,4.01l-.52-3.08c.36-.27,4.6,1.67,5.41,2.08,6.64,3.46,12.07,10.14,16.19,16.23-.3,1.64-2,.28-2.72-.16-2.14-1.36-4.78-4.99-7.81-5.96l-5.85-.91,11.02,6.2c-6.47-.64-11.64-5.23-17.62-6.98h0Z"/>
  <path class="st3" d="M364.09,308.22l-24.85-8.6-25.03,13.02-2.11,18.91s30.11,25.81,29.45,14.33c-.66-11.48,20.41-11.03,20.41-11.03l3.21.24.45-14.14s-8.83.29-9.72-6.7,7.57-6.88,7.57-6.88"/>
  <path class="st26" d="M365.27,292.7c2.01-1.02,4.07-.18,6-.07,4.01,3.71,13.74,4.43,12.69,11.45-6.44-1.88-15.24-2.83-22-2.92.74-2.89.56-5.28,2.75-8.05.2-.13.37-.31.57-.41h0Z"/>
  <path class="st14" d="M343.06,294.23c.39-1.24-.49-2.96.89-4.11,1.3-1.07,9.01-1.08,11.04-2.03.93.26,1.84,1.07,2.77,1.43-1.37,9.13-8.44,2.69-14.69,4.7h-.01Z"/>
  <path class="st6" d="M301.24,306.69l7.15-2.63-2.54-2.88c7.03-3.75-1.22-3.46-2.61-8.89,5.82,5.34,10.73,8.07,16.59.83.29.02,1.2-.26,1.53-.26-.15,6.48,15.18.41,19.78,1.08-.14,2.41-.39,4.74-.86,7.1l1.17.44,12.97.02c-.02,2.22,2.2,4.77.48,6.56-6.53.96-14.69,6.73-22.63,2.72,4.31,4.14,10.36,8.31,16.2,9.75-1.3,1.68-.2,4-.33,5.44-.18,1.86-1.4,3.86-.91,5.85-3.28-.77-5.9-1.9-9.03-2.89-.93-5.31-10.6-7.22-14.95-9.8-5.4-3.18.51-4.28-.84-5.87l-15.24-3.12c.6-1.15,1.19-2.32,1.79-3.47-3.18-.23-4.83,2.14-7.74.04v-.03s0,0,0,0Z"/>
  <path class="st25" d="M338.59,351.91l1.69-1.24c2.82,2.33,7.15.97,10.92,1.95,4.63,1.2,8.8,3.94,13.04,6.02,1.01.49,1.87,1.34,2.31-.39.92.95,4.17,4.3,3.42,5.28-.72.17-2.35-.67-2.64-.66.66-2.8.52-1.06-1.03-1.4-10.28-2.33-21.07-1.9-27.7-9.54h-.01s0,0,0,0Z"/>
  <path class="st9" d="M330.67,351.68c-1.71-3.49-.77-3.98,1.88-5.69,2.38,1.55,4.22,3.81,6.07,5.93,6.63,7.66,17.43,7.22,27.7,9.54,1.55.35,1.69-1.4,1.03,1.4-12.17.08-26.32-5.09-36.68-11.18h0Z"/>
  <path class="st4" d="M348.13,325.97c.14-1.45-.96-3.77.33-5.44,1.97.49,13.91.17,14.57,1.02.25.29-.36,6.6-.44,7.66l-14.47-3.25h.01Z"/>
  <path class="st12" d="M347.23,331.8c-.49-2,.73-3.99.91-5.85l14.47,3.25c-.15,1.81,1.21,4.61-.63,5.64-5.09-.33-9.85-1.88-14.75-3.04h0Z"/>
  <path class="st26" d="M340.3,350.68c2.78-2.03,4.81-1.16,7.43-2.84,7.05,3,12.97,4.36,18.84,10.41-.46,1.73-1.3.88-2.31.39-4.24-2.08-8.41-4.82-13.04-6.02-3.76-.97-8.09.39-10.92-1.95h0Z"/>
  <path class="st12" d="M332.55,345.98c.97-.62,1.86-1.42,2.82-2.06,3.4,1.51,8.36,2.21,12.37,3.92-2.62,1.68-4.65.81-7.43,2.84l-1.69,1.24c-1.84-2.12-3.68-4.38-6.07-5.93h0Z"/>
  <path class="st4" d="M343.09,294.25c6.25-2.01,13.32,4.43,14.69-4.7,2.5.96,5.34,1.37,7.5,3.16-.21.1-.38.28-.57.41-2.32,1.58-2.68,4.24-4.53,5.04-2.56,1.1-5.7-4.19-5.76,3.34l-12.97-.02c.84-2.36.87-4.84,1.62-7.23h.01s0,.01,0,.01Z"/>
  <path class="st10" d="M341.11,293.93c-4.6-.67-19.92,5.4-19.78-1.08.2,0,.38-.41.57-.41,2.82-.1,18.68-2.64,19.55-2.2,1.7.48-.27,2.75-.32,3.7h-.01Z"/>
  <g>
    <path class="st17" d="M315.44,330.85c-5.68-3.94-11.41-10.4-10.46-17.83.41-3.24,2.11-2.74,2.2-2.9l15.24,3.12c1.35,1.59-4.56,2.68.84,5.87-.2,5.83,4.93,6.53,7.14,8.6,16.04,14.95-8.13,7.93-14.96,3.17h0Z"/>
    <path class="st3" d="M318.59,318.63c-1.35,1.03-7.25,1.13-7.87-.73l7.87.73Z"/>
  </g>
  <path class="st9" d="M330.38,327.7c-2.21-2.07-7.33-2.77-7.14-8.6,4.36,2.56,14.02,4.48,14.95,9.8-2.19-.71-5.42-1.79-7.79-1.21h-.01s0,.01,0,.01Z"/>
  <path class="st11" d="M343.2,288.53c5.86-.15,5.71-2.05,11.79-.42-2.03.95-9.74.96-11.04,2.03-1.4,1.14-.5,2.86-.89,4.11-.75,2.41-.79,4.87-1.62,7.23l-1.17-.44c.47-2.37.71-4.7.86-7.1.06-.96,2.03-3.22.32-3.7"/>
  <path class="st2" d="M363.42,335.07c-.17-.25.67-5.04.7-6.13,9.38,2.36,22.28,1.76,28.32,10.38-5.46-1.64-28.19-3.04-29.02-4.25h0Z"/>
</svg>