<?xml version="1.0" encoding="UTF-8"?>
<svg id="LEG_R" xmlns="http://www.w3.org/2000/svg" version="1.1" viewBox="0 0 500 500">
  <!-- Generator: Adobe Illustrator 29.4.0, SVG Export Plug-In . SVG Version: 2.1.0 Build 152)  -->
  <defs>
    <style>
      .st0 {
        fill: #3f2035;
      }

      .st1 {
        fill: #c0afbb;
      }

      .st2 {
        fill: #a295a9;
      }

      .st3 {
        fill: #231523;
      }

      .st4 {
        fill: #49364e;
      }

      .st5 {
        fill: #836a86;
      }

      .st6 {
        fill: #04040e;
      }

      .st7 {
        fill: #5b314c;
      }

      .st8 {
        fill: #362d55;
      }

      .st9 {
        fill: #2f2f45;
      }

      .st10 {
        fill: #150f1c;
      }

      .st11 {
        fill: #a58493;
      }
    </style>
  </defs>
  <path class="st7" d="M229.23,411.39c.49,3.01,3.73,12.42,2.98,14.95-3.49-3.71-9.06-6.13-12.65-9.31-20.33-17.99-.28-18.05,9.66-5.64Z"/>
  <path class="st10" d="M261.17,152.18c1.9-1.45,5.3-.65,7.74.47l-9.39,52.68c2.9.98,1.37-4.95,1.91-6.1.72-1.5,3.01-.75,3.19-1.36.46-1.52-.83-5.06-.35-7.01,2.02-8.16,4.15-16.35,6.13-24.5-.26,7.64,1.11,15.29,3.7,22.38,1.88-1.31-2.05-7.61,1.56-6.52-.63,3,2.58,13.93,2.17,15.67-.77,3.23-3.25.54-4.05,2.86s9.15,29.61,11.18,33.7l-19.54,8.15c-10.67-12.95-16.81-43.52-12.36-59.41.39-1.41,2.99-2.91,3.35-4.07,3.49,2.54,7.18-8.47,7.64-10.81.61-3.09,2.7-17.46-2.91-16.11h.03s0-.01,0-.01Z"/>
  <path class="st0" d="M224.02,381.56c10.28,1.88,22.5-5.52,32.56,1.19-1.47-.38-5.3-.94-6.94-.81,7.15,4.06,16.25,7.95,18.02,17.02,1.97-.28-.3-5.56,1.91-6.1.61-.16,8.16,7.21,9.22,8.32,1.85,1.93,4.27,3.31,4.27,6.47-1.45-.4-4.11-1.91-6.05-2.7-.99-.41-7.68-7.06-9.22-1.72-.59,2.07,4.77,6.04,4.93,8.46-1.87,1.15-4.39,1.44-5.56,2,1.15-4.18-1.15-5.64-2.63-7.92-1.81-2.82-11.21-11.65-14.34-7.08-1.48,2.15,4.64,12.18,6.17,13.58-5.28-1.57-6.83,4.62-9.41,7.99-2.81-4.3,1.07-13.37-4.92-15.07-.1-7.5-9.89-9.78-15.77-9.11,1.54,1.78,2.35,4.02,3.52,6.04-10.27-4.18-24.6-6.39-23.64-20.47,7.35-5.82,11.62-1.24,17.88-.09h0Z"/>
  <path class="st10" d="M260.14,156c-3.87,4.99-1.05,13.02-3.47,18.84-1.2,2.9-5.77,4.98-7.43,7.32-.22.31-.35,5.04-2.33,6.47-1.38-.15-2.9-26.32-2.61-27.74.75-3.54,13.88-14.43,16.02-7.97-1.07,1.92.08,1.5-.19,3.1h0Z"/>
  <g>
    <path class="st6" d="M216.42,152.58c5.02,21.05,11.23,41.82,17.61,62.46.44,1.38,7.19,16.74,5.56,17.43-21.09-17.67-39.92-2.73-52.63,15.88-.21,2.28,9.35-2.73,10.67-2.86,3.47-.34,7.99.89,11.62.7,3.5,4.42-6.13,5.03-8.16,6.5-18.67,13.39,2.84,45.11-27.2,32.16-.4.58,1.8,12.7,2.26,14.12,2.04,6.28,9.82,8.21-1.28,8.47,12.33,20.22,12.83,49.27,6.96,71.52-10.58-3.25-22.2,3.83-23.82,14.88-1.5,10.26,6.35,9.03,15.41,8.71.39-.02,2.13-2.21,2.47-2.19,1.19.07,2.31,5.58,4.23,7.25,6.37,5.48,30.69,6.56,39.45,9.37-20.33-17.99-.28-18.05,9.66-5.64,1.22,1.52,1.97,3.71,3.64,4.1.08-1.39-.59-1.6-.61-2.75,1.2-.83,2.62-.8,3.94-.93-1.03-3.66-4.57-6.55-6.41-9.71-10.27-4.18-24.6-6.39-23.64-20.47,7.35-5.82,11.62-1.24,17.88-.09-6.83-8.82-9.78-29.4-9.22-40.57,1.47-29.35,49.56-61.27,68.61-81.35,3.09-3.26,5.21-10.43,10.74-10.62-3.13-2.45-7.36-10.75-9.22-14.54l-19.54,8.15c-10.67-12.95-16.81-43.52-12.36-59.41.39-1.41,2.99-2.91,3.35-4.07,3.16-9.99,2.18-13.57,3.72-23.08-3.87,4.99-1.05,13.02-3.47,18.84-1.2,2.91-5.77,5-7.43,7.33-.22.31-.35,5.04-2.33,6.47-1.38-.15-2.9-26.32-2.61-27.74.75-3.54,13.88-14.43,16.02-7.97.02-.04.69-.63.82-.72,1.92-1.45,5.31-.65,7.75.47,1.57.73,8.18,6.96,10.13,6.05,1.33-2.86-3.02-4.98-3.89-6.45-1.47-2.52,22.8-10.75,31.41-18.21l-5.2-29.49c-2.35-.62-37.88-48.84-39.86-50.04-6.28-3.81-10.31,2.25-17.01.3.83,7.74-41.12,40.91-41.02,36"/>
    <path class="st10" d="M242,244.31c.41.02,5.29,5.33,5.45,6.15,1.42,7.29-15.34,22.57-19.26,29.53-4.09-5.86,9.42-36,13.81-35.7h0Z"/>
  </g>
  <path class="st1" d="M226.27,396.07c5.86-.67,15.67,1.6,15.77,9.11.02,1.75-1.72,7.37-2.82,7.99-1.78,1.02-2.01-1.44-3.03-1.35-1.03-3.66-4.57-6.55-6.41-9.71-1.16-2.01-1.98-4.24-3.52-6.04Z"/>
  <path class="st9" d="M261.14,152.18c5.61-1.34,3.52,13.04,2.91,16.11-.46,2.34-4.14,13.34-7.64,10.81,3.16-9.99,2.18-13.57,3.72-23.08.27-1.6-.89-1.18.19-3.1.02-.04.69-.63.82-.72h0Z"/>
  <path class="st5" d="M269.58,392.83c-2.2.54.06,5.83-1.91,6.1-1.79-9.07-10.87-12.96-18.02-17.02,1.64-.13,5.47.43,6.94.81,10.11,2.59,21.6,15.58,26.17,17.12l-.05.77-3.91.54c-1.07-1.09-8.62-8.47-9.22-8.32Z"/>
  <path class="st2" d="M256.37,412.24c-1.53-1.4-7.64-11.43-6.17-13.58,12.23-2.19,14.08,20.81,6.17,13.58Z"/>
  <path class="st11" d="M267.78,403.22c1.54-5.34,8.23,1.31,9.22,1.72.3,2.77-.85,5.88-3.17,7.57-.06.04-.71-1.1-1.12-.84-.16-2.42-5.54-6.38-4.93-8.46Z"/>
  <path class="st7" d="M267.17,413.66c-.16.07.19,2.25-.53,2.3l-2.1-10.23c1.48,2.28,3.78,3.73,2.63,7.92Z"/>
  <path class="st4" d="M265.52,66.58c9.25-9.08,19.16-18.34,33.52-14.69,1.9.48,12.85,7.09,15.79,8.71.07.03-.1,1.19,1.5.86,4.53,11.74,2.44,29.14,6.14,40.01-2.57.59-.89,2.68-1.05,4.59-.54,6.89-1.81,13.97-2.8,20.82l-2.33-.14c.21-3.48.42-6.97.63-10.46-1.24-1.62-1.9,1.14-2,1.05-.25-.21-.46-1.94-.98-3.17-.33-7.83-.72-17.26-4.77-23.99.06,2.51.66,5,1.1,7.45l-2.4,1.02c3.64,8.24-4.07,2.92.12,10.88-2.92-.53-5.73-8.85-6.8-3.12-.39-.94-2.66-5.6-3.16-5.63l-1.73,3c-2.45-4.42-5.98-10.33-9.66-13.79-1.57-1.47-2.75-3.64-5.19-4.19-.58-3.06-2.73-5.42-4.17-8.02-.53-.97-.73-2.31-1.36-3.19-4.04-5.72-5.26-3.99-10.39-8.01Z"/>
  <path class="st10" d="M310.25,97.64c-.43-2.45-1.02-4.94-1.1-7.45,4.05,6.73,4.44,16.16,4.77,23.99-1.66-3.97-2.83-11.93-3.66-16.54h-.01Z"/>
  <g>
    <path class="st8" d="M301.19,106.42c1.06-5.75,3.88,2.6,6.8,3.12-4.19-7.96,3.53-2.64-.12-10.88l2.4-1.02c.83,4.59,2,12.55,3.66,16.54.52,1.23.72,2.96.98,3.17.09.08.77-2.67,2-1.05-.21,3.49-.42,6.98-.63,10.46-1.19,21.49-5.8,42.69-7.74,64.04l-10.58,59.59c-.99,1.49-3.13-.88-3.8-1.4-3.13-2.45-7.36-10.75-9.22-14.54-2.03-4.09-11.98-31.37-11.18-33.7.8-2.33,3.28.37,4.05-2.86.41-1.75-2.8-12.67-2.17-15.67-3.61-1.08.31,5.21-1.56,6.52-2.6-7.1-3.97-14.74-3.7-22.38-1.98,8.15-4.11,16.34-6.13,24.5-.48,1.95.81,5.49.35,7.01-.18.59-2.47-.15-3.19,1.36-.55,1.15.99,7.08-1.91,6.1l9.39-52.68c1.57.73,8.18,6.96,10.13,6.05,1.33-2.86-3.02-4.98-3.89-6.45-.63-5.45-1.11-11.05-2.12-16.44,9.46-8.83,18.13,2.08,26.74-5.38.1-.09,1.23-.62,1.59-.68.3.89.8,3.26,2.21,2.07.79-8.14.88-17.73-2.35-25.4h-.01s0,0,0,0Z"/>
    <g>
      <path class="st3" d="M316.29,126.77l2.33.14c-2.15,14.92-3.87,29.77-5.8,44.72,0,.15-.75,1.42-.96,3.05-1.1,8.43-4.06,8.31,2.98,14.95-1.6-.84-2.7-2.82-4.89-2.63l-1.4,3.8c1.93-21.35,6.53-42.57,7.74-64.04h0Z"/>
      <path class="st10" d="M281.29,198.47c-4.15-2.3-5.17-29.78-3.65-29.74-.63,2.54,8.75,29.84,3.65,29.74Z"/>
      <path class="st10" d="M284.7,154.38c-3.7-4.65-4.86-14.56-3.43-20.41l3.43,20.41Z"/>
      <path class="st10" d="M286.11,195.65c-.9-2.07-4.67-28.02-2.96-28.16,1.24,9.29,3.67,18.68,2.96,28.16Z"/>
      <path class="st10" d="M290.66,197.49c-1.49-1.86-3.64-24.9-2.38-25.01,1.41,8.2,2.56,16.67,2.38,25.01Z"/>
      <path class="st10" d="M292.28,157.95c-1.73-1.19-2.47-14.75-1.44-14.86.75-.07,2.89,13.51,1.44,14.86Z"/>
    </g>
  </g>
</svg>