<?xml version="1.0" encoding="UTF-8"?>
<svg id="Layer_1" xmlns="http://www.w3.org/2000/svg" version="1.1" viewBox="0 0 220.09 277.58">
  <!-- Generator: Adobe Illustrator 29.4.0, SVG Export Plug-In . SVG Version: 2.1.0 Build 152)  -->
  <defs>
    <style>
      .st0 {
        fill: #3f2035;
      }

      .st1 {
        fill: #c0afbb;
      }

      .st2 {
        fill: #866175;
      }

      .st3 {
        fill: #320a10;
      }

      .st4 {
        fill: #5c415b;
      }

      .st5 {
        fill: #1d2235;
      }

      .st6 {
        fill: #49364e;
      }

      .st7 {
        fill: #836a86;
      }

      .st8 {
        fill: #303950;
      }

      .st9 {
        fill: #1d1a31;
      }

      .st10 {
        fill: #7d3344;
      }

      .st11 {
        fill: #8e7e91;
      }

      .st12 {
        fill: #150f1c;
      }
    </style>
  </defs>
  <path class="st10" d="M56.28,64.69c5.64-9.54,6.7-22.62,13.26-31.49.48,4.48,13.68,15.57,16.02,22.65,5.72,17.3-11.21,42.81-25.41,51.93.2-1.21-1.06-1.78-1.93-2.21-6.12-3.01-13.01-6.64-19.06-9.39-5.29-4.42-3.18-4.46-2.76-10.5,8.35-3.35,18.86-11.78,19.89-20.99h-.01Z"/>
  <path class="st3" d="M85.57,55.84c11.2,19.5,10.57,54.77-9.67,68.51-2.44.39-2.69-3.47-4.14-2.21l-15.47-12.43c1.22-.73,2.69-1.17,3.87-1.93,14.2-9.12,31.12-34.63,25.41-51.93h0Z"/>
  <g>
    <path class="st12" d="M77.85,9.45c6.1.21,4.93,6.81,6.08,9.12.58,1.17,9.55,4.77,11.6,9.39,2.25,5.06-.29,9.95,2.76,15.19-1.06-1.29-3.52-1.68-4.97-3.59-.7-.92-11.14-20.46-12.98-19.06-1.06,6.5.73,11.92,3.04,17.68,1.85,6.63,4.82,12.89,7.18,19.34,3.07,8.38,5.13,15.09,7.18,23.76.26,1.1.55,2.21.83,3.31l1.38-4.7c2.29,9.27,2.52,20.8,4.97,29.83s9.95,14.88,17.68,19.61c-2.48-.42-2.92.43-4.42,1.93-10.39,10.38-35.45,39.42-39.78,52.49-4.89,14.78,1.03,31.88,6.08,46.13,1.65,4.65.38,4.95,4.42,9.94,7.99,9.87,17.13,4.57,21.55,16.02-3.28-4.66-4.69-6.46-10.5-6.63-.07,0,.32-1.4-.83-1.1-9.41,2.43,3.42,8.2,4.97,9.39.1.08,2.79,2.17,1.1,2.21-4.71-4.97-29.77-3.97-31.77-8.01-.42-.85.76-3.23-.83-4.14-1.5,3.96-17.25,4.67-17.96-.55-.18-1.34,1.29-7.67,2.21-9.12,3.13-4.92,9.24-3.06,10.77-4.14,4.75-3.38-14.8-46.9-21.27-51.11l4.97-.55-9.94-13.81c4.59.7,9.73.22,13.81-2.21-4.11-9.61-1.27-18.04,7.18-23.76-4.39-2.21-9.29,0-12.98,2.49,1.91-10.58,10.94-21.46,22.38-22.65,1.44-1.26,1.7,2.6,4.14,2.21,20.24-13.75,20.88-49.01,9.67-68.51-2.34-7.08-15.54-18.17-16.02-22.65-.26-2.42,1.45-7.17,2.21-9.67,1.26-4.11,5.2-10.46,6.08-14.09h.01Z"/>
    <path class="st5" d="M83.36,38.18c-2.31-5.76-4.1-11.18-3.04-17.68,1.83-1.4,12.28,18.14,12.98,19.06,1.45,1.91,3.91,2.3,4.97,3.59,13.38,16.17,22.75,62.88,27.07,83.98-1.15,2.48-5.46-3.82-6.08-4.7-10.26-14.7-15.02-35.21-18.78-52.49-2.45-.89.12,3.68,0,3.87-.39.64-1.84-.09-2.21.55-.8,1.39,2.23,6.26-.55,6.91-2.05-8.68-4.11-15.39-7.18-23.76l-3.31-13.54c-.82-.81-3.59-5.11-3.87-5.8h0Z"/>
    <path class="st9" d="M97.73,81.24c2.78-.66-.26-5.52.55-6.91.37-.63,1.82.09,2.21-.55.12-.2-2.45-4.77,0-3.87,3.75,17.28,8.51,37.79,18.78,52.49.62.89,4.93,7.18,6.08,4.7.37,1.82,1.19,2.69,1.38,4.42-1.16.69-3.45-1.79-4.14-2.21-7.74-4.72-15.25-10.62-17.68-19.61s-2.68-20.56-4.97-29.83l-1.38,4.7c-.28-1.1-.57-2.21-.83-3.31v-.02Z"/>
    <path class="st0" d="M84.47,229.89c8.15,7.44,21.84.28,32.04,3.31-1.89.01-4.29,1.12-6.35.55l.83,2.21c-1.4.56-2.08,5.9-2.49,6.08-5.44-5.8-13.04-6.47-19.61-2.21-4.04-4.98-2.77-5.28-4.42-9.94Z"/>
    <path class="st4" d="M116.51,233.2c4.67-.04,4.79,1.17,8.29,2.21-.08,4.13,6.9,2.54,8.84,4.7,1.08,1.19.23,1.63-1.1,1.1-.16.4,3.06,6.26,1.1,7.46-4.79-6.56-5.24-5.79-11.6-8.84-2.68-1.29-7.58-5.25-11.05-3.87l-.83-2.21c2.05.57,4.46-.53,6.35-.55h0Z"/>
    <path class="st7" d="M133.63,248.67c1.97-1.2-1.26-7.06-1.1-7.46,1.33.54,2.18.1,1.1-1.1-1.94-2.16-8.92-.57-8.84-4.7,7.93,2.35,12.48,3.51,15.47,12.15-1.16-.2-1.73-.34-2.76-.83l2.21,7.18c-2.08,3.2-3.29-1.02-4.97-1.93.72-.85-.63-2.66-1.1-3.31h-.01Z"/>
    <path class="st1" d="M99.93,249.22c5.81.17,7.22,1.97,10.5,6.63.33.84,1.57,3.96,1.66,4.42.5,2.67.57,5.57.55,8.29h-.55c-.26-9.28-10.47-11.84-12.15-19.34h-.01Z"/>
    <path class="st6" d="M110.99,235.96c3.47-1.38,8.37,2.58,11.05,3.87,2.35,4.56,4.28,10.55,6.63,14.92l-3.04,4.97c.98-3.39,2.56-9.5-3.04-8.84-1.29-2.61-5.12-.56-7.73-1.66-1.02-.44-8.28-8.81-9.39-6.91,1.94,2.94,4.78,6.61,7.18,9.12l-.55,8.84c-.09-.46-1.34-3.58-1.66-4.42-4.43-11.44-13.56-6.15-21.55-16.02,6.57-4.26,14.16-3.59,19.61,2.21.41-.18,1.1-5.53,2.49-6.08h0Z"/>
    <path class="st8" d="M87.23,43.97l3.31,13.54c-2.36-6.45-5.33-12.71-7.18-19.34.28.69,3.06,4.99,3.87,5.8Z"/>
    <path class="st0" d="M122.05,239.84c6.36,3.05,6.8,2.28,11.6,8.84.47.64,1.82,2.45,1.1,3.31-.35-.19-.73-.38-1.1-.55-1.34-.61-3.52-1.77-4.42-.28,2.69,1.03,1.08,4.2,3.31,5.8-2.06,3.18-2.65.06-3.87-2.21-2.35-4.37-4.28-10.36-6.63-14.92h.01Z"/>
    <path class="st4" d="M105.47,242.31c1.11-1.89,8.36,6.48,9.39,6.91-.54,3.6,5.07,4.73,5.52,8.84-2.43.08-5.89-4.7-7.73-6.63-2.39-2.52-5.24-6.19-7.18-9.12Z"/>
    <path class="st11" d="M122.59,250.88c1.23,2.49.95,7.07-2.21,7.18-.45-4.11-6.06-5.24-5.52-8.84,2.61,1.1,6.5-.83,7.73,1.66Z"/>
    <path class="st2" d="M132.53,256.95c-2.22-1.59-.62-4.77-3.31-5.8.9-1.48,3.08-.33,4.42.28.16,2.12.1,3.67-1.1,5.52h-.01Z"/>
  </g>
</svg>