<?xml version="1.0" encoding="UTF-8"?>
<svg id="Head" xmlns="http://www.w3.org/2000/svg" version="1.1" viewBox="0 0 500 500">
  <!-- Generator: Adobe Illustrator 29.4.0, SVG Export Plug-In . SVG Version: 2.1.0 Build 152)  -->
  <defs>
    <style>
      .st0 {
        fill: #bc6c69;
      }

      .st1 {
        fill: #3f2035;
      }

      .st2 {
        fill: #6a4d5d;
      }

      .st3 {
        fill: #481224;
      }

      .st4 {
        fill: #c0afbb;
      }

      .st5 {
        fill: #a295a9;
      }

      .st6 {
        fill: #866175;
      }

      .st7 {
        fill: #997780;
      }

      .st8 {
        fill: #320a10;
      }

      .st9 {
        fill: #b59c9f;
      }

      .st10 {
        fill: #1d2235;
      }

      .st11 {
        fill: #824158;
      }

      .st12 {
        fill: #653c47;
      }

      .st13 {
        fill: #c4b0af;
      }

      .st14 {
        fill: #853a35;
      }

      .st15 {
        fill: #b24a60;
      }

      .st16 {
        fill: #04040e;
      }

      .st17 {
        fill: #aa5b59;
      }

      .st18 {
        fill: #5b314c;
      }

      .st19 {
        fill: #c5c5d5;
      }

      .st20 {
        fill: #cc7668;
      }

      .st21 {
        fill: #daaeb1;
      }

      .st22 {
        fill: #200309;
      }

      .st23 {
        fill: #7d7387;
      }

      .st24 {
        fill: #976c92;
      }

      .st25 {
        fill: #eadcde;
      }

      .st26 {
        fill: #fae4db;
      }

      .st27 {
        fill: #fcfb90;
      }

      .st28 {
        fill: #2f2f45;
      }

      .st29 {
        fill: #a97270;
      }

      .st30 {
        fill: #5c2333;
      }

      .st31 {
        fill: #a2433e;
      }

      .st32 {
        fill: #0d0c2c;
      }

      .st33 {
        fill: #8e7e91;
      }

      .st34 {
        fill: #9b474d;
      }

      .st35 {
        fill: #d6b7ac;
      }

      .st36 {
        fill: #b5837e;
      }

      .st37 {
        fill: #e3e3e5;
      }

      .st38 {
        fill: #9a3043;
      }

      .st39 {
        fill: #806873;
      }

      .st40 {
        fill: #81506b;
      }

      .st41 {
        fill: #7c565e;
      }

      .st42 {
        fill: #150f1c;
      }

      .st43 {
        fill: #70232a;
      }

      .st44 {
        fill: #a58493;
      }

      .st45 {
        fill: #fdfdfd;
      }
    </style>
  </defs>
  <path class="st34" d="M143.96,294.8c11.4-24.87,55.36-57.39,82.03-63.55,1.3,2.52-.5,3.92-2.41,4.93-2.56,1.37-24.45,7.08-24.32,10.8,4.81,3.19,10.63,5.43,16.04,7.31,4.66,1.62,16.3,1.52,16.91,6.94-13.56,6.45-21.47,15.24-23.83,30.69l-27.8,19.47c-7.34-13.02-23.86-13.24-36.63-16.58h0Z"/>
  <path class="st12" d="M232.21,261.23c-.61-5.42-12.24-5.32-16.91-6.94-5.4-1.88-11.23-4.12-16.04-7.31-.14-3.73,21.76-9.42,24.32-10.8,3,2.51,2.39,10.25,2.74,10.73.92,1.31,13.1,6.01,14.66,9.34.04.19-1.75,1.89-1.82,2.01-2.24.84-4.76,1.93-6.94,2.96h0Z"/>
  <path class="st30" d="M143.96,294.8c12.77,3.34,29.29,3.57,36.63,16.58l27.8-19.47c-.12.76-.87.86-.99,2.48l-26.54,19.54c-4.64-7.75-33.29-20.62-36.66-8.97-1.15-1.3-.93-2.2-3.27-1.89.65-2.8,1.85-5.68,3.04-8.28h0Z"/>
  <path class="st41" d="M149.38,340.09c.36.16.69.35,1.04.52-.14-1.56-.3-2.98-.53-4.02-1.03-4.75-6.51-28.84-5.7-31.63-1.15-1.3-.93-2.2-3.27-1.89h0c-2.92,12.61-1.77,23.92,2.5,34.81,2.02.62,4.01,1.33,5.95,2.21Z"/>
  <g>
    <path class="st16" d="M299.4,282.99c-10.42-5.37-24.81-9.82-36.61-9.81,4.54.97-1.96,2.4-2.26,2.4-1.98-.01-12.91-.38-13.03-1.21,1.8.01,7.11-3.25,7.8-3.33l1.94-4.11c-2.41-.57-7.73-2.73-9.9-3.98-.45-.27-2.91-1.15-2.01-1.82,6.55-.21,12.35-3.28,18.47-4.81-6.38-3.36-14.84-3.12-21.7-4.69-1.65-.38-3.84-1.4-5.82-1.61,9.03-4.9,19.63-4.44,29.22-7.96-11.6.83-17.32-2.52-26.56-8.36-9.74-6.16-19.99-16.34-27.22-25.31-2.25-2.79-5.72-4.99-6.65-8.86,7.68,2.59,15.35,5.64,22.71,8.97l.05-.84c-.11-.9-.37-2.71-.64-3.42-.19-.5-3.66-4.58-.95-5.13,5.96,1.55,12.03,2.61,17.91,4.46.63.12.94-.15.89-.79l-18.08-22.65c1.62-.99,5.97,1.73,7.45,2.57l1.84-2.43c-4.83-2.43-12.91-7.66-17.09-11.17-7.44-3.01-14.12-9.83-21.19-13.11-9.14-4.24-18.8-5.88-28.71-7.65,6.42,5.83,16.02,9.24,19.2,18.06-17.12-4.62-36.64-7.78-53.18-1.5,9.31,2.02,20.18,3.96,26.8,11.33-18.68-1.16-36.25,2.58-52.3,12.07,7.74-.12,15.7-.2,22.59,3.9-18.59,3.63-32.32,14.06-46.37,25.95l17.59,2.76c-11.78,10.95-18.77,24.22-24.34,39.12l6.84-1.28-7.75,30.4h-.01c1.11,1.17,3.63,6.03,5.44,7.93,7.12,7.53,15.8,11.7,23.27,20.84,3.19,3.92,5.78,8.11,7.94,12.51,1.52.3,3.03.72,4.52,1.28,7.78,2.9,16.08,3.75,23.95,6.16-4.29-10.9-5.45-22.22-2.53-34.84.65-2.8,1.84-5.66,3.04-8.28,11.4-24.87,55.36-57.38,82.03-63.55,1.3,2.52-.5,3.9-2.41,4.93,3,2.51,2.4,10.25,2.74,10.73.92,1.31,13.1,6,14.66,9.34.05.18-1.74,1.89-1.82,2.01-2.17,3.46-6.91,7.08-9.9,9.97l18.93,1.56-6.41,8.07c4.24-1.15,8.44,2.28,12.53,2.45,4.09.17,16.1-3.4,18.74-2.25,2.64,1.93-2.72,4.38-2.94,6.59,10.85-4.34,19.06-1.97,29.95.96,1.04-1.62-.53-1.12-.69-2.58Z"/>
    <path class="st32" d="M170.05,240.57c4.34-5.79,16.49-9.04,21.02-12.26.38,1.7,1.92,1.04.66,3-.64,1-16.44,15.65-17.46,16.28-.32.2-3.52-.77-6.44,1.73l2.22-8.75h0Z"/>
    <path class="st28" d="M83.79,297.1c7.13,7.53,15.82,11.68,23.27,20.84-2.24,2.43-4.8,1.55-6.89,2.12l-16.38-22.97Z"/>
    <path class="st11" d="M255.33,271.05c1.39-.17,3.14.36,4.63.28l-1.84,2.43c1.69.85,3.8-.57,4.68-.56,4.53.97-1.96,2.41-2.26,2.4-1.98-.01-12.91-.38-13.03-1.21,1.8.02,7.1-3.25,7.8-3.33h.02s0-.01,0-.01Z"/>
    <g>
      <path class="st28" d="M170.01,240.57l-13.77,11.01-.43-6.79c-13.65,7.69-.78,6.81-.06,8.03-3.6,3.92-7.1,7.84-12.4,9.4-.65-1.53,4.49-9.58,1-9.66l-7.35,9.7c-3.93.28-.11-5.04-4.45-3.23l-3.43,7.83-2.23-5.21-4.72,8.17c-2.92-.22,2.82-13.5,3.05-15.46-8.1,2.27-8.1,26.85-10.75,3.16-6.89,9.19-1.69,23.22-10.7,30.22.26-23.96,7.62-49.2,25.12-66.12,2.43-2.34,20.6-15.24,22.47-15.13,1.35.08.15,3.45,1.49,3.47.52,0,7.37-4.77,8.78-5.39l-1.3,7.53c4.31-.84,11.44-7.81,14.88-8.41s2.21,2.62,2.38,2.68c5.5,1.74,8.27-6.05,8.83-6.23s11.26.47,11.8.71c.46.21,5.36,6.55,6.73,7.59l-9.52,3.65,10.79,3.19c-6.71,1.77-10.75,9.89-15.16,13.03-4.54,3.22-16.67,6.47-21.02,12.26h-.04s0,0,0,0Z"/>
      <g>
        <path class="st10" d="M147.58,213.84c-2.89,5.59-1.64,12.14-9.29,13.82-1.75-2.87,4.93-6.27,5.06-6.88.3-1.44-4.76-6.19,4.22-6.93h.01Z"/>
        <path class="st16" d="M139.81,230.3c.95.83-1.65,10.19-3.98,9.9-4.61-.55,1.59-12,3.98-9.9h0Z"/>
        <path class="st16" d="M155.02,230.36c-2.91-2.38,5.89-9.84,6.51-9.75,4.5.62-5.56,9.25-6.51,9.75Z"/>
        <path class="st16" d="M128.13,255.81c-1.96-1.38,4.66-8.44,5.67-9.8,2.04,2.7-2.9,11.76-5.67,9.8h0Z"/>
        <path class="st16" d="M116.49,252.57c-3.52-2.15,1.24-11.03,3.93-9.06l-3.93,9.06Z"/>
        <path class="st16" d="M148.22,245.17c-1.02-2.2-.08-8.08,3.77-6.53,3.58,1.43-2.92,5.56-3.77,6.53Z"/>
        <path class="st16" d="M175.98,233.32c-2.42-1.3,4.38-7.39,5.57-8.12l-5.57,8.12Z"/>
        <path class="st16" d="M166.56,235.29c-2.18-1.19,4.07-6.61,5.46-6.43l-5.46,6.43Z"/>
        <polygon class="st16" points="180.36 216.68 179.68 214.1 184.04 211.82 180.36 216.68"/>
      </g>
    </g>
  </g>
  <g>
    <path class="st11" d="M269.54,175.54c1.26-6.93,5.04,3.18,7.91,2.17-.15-.75.64-2.78.6-2.92-.58-2.03-12.41-15.57-14.05-19.45-1.01-2.38-.13-1.56.23-3.79,8.82,7.67,15.65,14.2,22.21,24.16,1.08,1.63,1.56,5.05,2.17,6.05,3.78,6.14,8.13,12.12,11.57,18.46,3.95,7.29.71,14.73,12.41,18.51,1.6,3.28,6.34,3.28,9.48,3.95.57.12.37-1.75.94-1.64.25.05,1.3,2.73,4.48,2.81-16.92,15.02-37.5-20.43-54.7-25.27-2.41-.07-.06,5.54.06,5.92-3.75-1.28-6.46-4.55-9.75-6.51-.29-2.17.69-3.88,1.19-5.85.57-2.22.89-3.46,1.19-5.85.1-.8,1.13-1.23,1.04-3.32,3.51-1.1,7.85,5.66,10.49,8.24.1.09-.48,2.8,1.61,1.36-.22-.71-1.57-1.26-1.61-1.36-1.97-4.57-5.22-11.2-7.52-15.67h.04Z"/>
    <path class="st17" d="M286.41,175.73c1.25.1.76-.95.94-1.64,3.09,2.01,11.97,8.61,15.18,7.68,1.04-.31-.78-1.45-.32-1.72,1.49-.84,1.73-2.76,3.94-2.3.57.12,3.74,4.62,4.75,5.36.76-.2-.73-4.53-.95-5.13,2.48.56,3.81,3.03,5.65,4.56.59,8.75,7.88,11.23,13.78,16.89,3.48,3.34,6.11,7.69,9.92,10.74.1.61.48,1.85.69,2.58-8.58,7.75-15.14-5.53-23.51-9.87-3.13-1.62-7.78-3.07-11.54-4.92-.13-.06-1.68,1.66-1.79,1.59-2.57-1.35-10.81-15.56-14.57-17.78-.61-1-1.09-4.42-2.17-6.05h.01Z"/>
    <path class="st13" d="M197.97,156.02c-15.5-15.02-34.42-32.64-35.97-55.43,15.75,41.4,58.09,58.39,93.78,78.35-1.9-.4-5.33,2.28-5.63,2.2-1.08-.27-15.35-10.42-18.72-12.11-2.03-1.02-20.21-10.12-20.31-6.72,3.44,1.1,5.97,5.09,8.05,6.83-7.44-3.01-14.12-9.84-21.19-13.11h0Z"/>
    <path class="st15" d="M340.38,206c-.08-1.68-1.84-9.56-.65-10.18.39,5.17,8.35,9.97,8.9,13.64.57,3.88-2.33,8.7-2.25,9.17.19,1.07,17.73,10.62,18.79,10.85-5.59,3.33,2.18,14.59,5.67,18.1-1.64-.1-10.17,2.08-10.68,1.9-1.52-.54-1.81-8.23-8.47-6.85l4.72-8.17-1.18-1.33c-3.31-.15-6.37-3.75-9.01-4.77-5.12-1.96-13.35-1.14-16.17-5.2.27-.06.58.12.84.05,3.8-.91,7.96-4.54,12.97-4.72.47-1.14-3.72-5.16-3.88-5.73-.2-.73-.59-1.97-.69-2.58-.36-2.15,1.11-3.71,1.09-4.16h0Z"/>
    <path class="st30" d="M365.15,229.47c.53.12,1.16,0,1.69.1,1.21.29,3.03,2.64,3.22,2.73-3.89,6.59.04,10.89,5.46,14.71.61.43,4-.16,4.63.28,1.93,1.34,4.43,7.2,7.55,8.06,1.66-.07,7.87-8.27,9.46-9.57.62-.5,2.75-2.59,2.55-.27-5.31,4.79-5.09,17.04-7.22,21.55-.59,1.28-5.91,5.96-8.26,10.92v-6.76c-2.24.01-5.04.32-7.17-.43-.41-.16-2.38-1.58-3.27-1.89s-1.66-.69-2.48-.99-1.61-.67-2.48-.99c-4.46-1.65-8.79-3.28-13.22-5.02-1.89-.75-4.56-1.26-6.64-2.1-1.95-.78-4.13-2.93-6.53-3.77,13.78,3.81,29.47,10.1,42.99,2.17-3.88-4.64-10.43-6.44-14.58-10.6-3.49-3.52-11.26-14.77-5.67-18.1h-.02s0-.01,0-.01Z"/>
    <path class="st13" d="M209.5,133.05c-6.4-8.34-25.77-39.67-30.04-48.73-.48-1.02-1.98-1.92.55-2.08,23.08,25.98,39.96,55.44,70.35,74.4-1.33-.04-1.52.25-2.58.69-.4-.31-2.52.15-2.95-.18-11.19-8.54-22.79-18.1-35.33-24.11h0Z"/>
    <path class="st6" d="M249.93,149.84c-7.41-10.79-14.79-21.72-20.82-33.38,5.15,5.64,12.74,13.97,18.31,18.86-3.6-.13-.5,2.68.22,3.39,5.16,5.18,11.49,8.43,16.55,12.84-.36,2.23-1.24,1.41-.23,3.79,1.64,3.88,13.47,17.42,14.05,19.45.04.15-.74,2.17-.6,2.92-2.86,1.01-6.66-9.11-7.91-2.17-4.55-8.9-9.83-22.39-19.59-25.7h.01Z"/>
    <path class="st9" d="M219.17,169.13c-2.09-1.74-4.61-5.73-8.05-6.83.12-3.4,18.29,5.71,20.31,6.72,3.36,1.68,17.64,11.84,18.72,12.11.3.08,3.74-2.6,5.63-2.2,4.17,2.33,6.53,3.46,9.7,7.35-.3,2.39-.63,3.63-1.19,5.85-8.82-5.31-18.82-7.18-28.03-11.83-4.83-2.43-12.91-7.66-17.09-11.17h0Z"/>
    <path class="st9" d="M229.08,116.47c-7.54-8.27-13.27-18.26-22.14-25.43,22.64,10.81,34.62,34.35,52.74,50.94-3.89,1.2-9.4-4.13-12.28-6.66-5.57-4.9-13.16-13.22-18.31-18.86h-.01s0,.01,0,.01Z"/>
    <path class="st44" d="M264.17,151.54c-5.06-4.41-11.39-7.65-16.55-12.84-.71-.72-3.82-3.53-.22-3.39,2.88,2.53,8.39,7.86,12.28,6.66,6.88,6.29,16.67,12.73,24.26,18.36,1.38,4.93,4.84,8.49,3.4,13.73-.19.69.3,1.75-.94,1.64-6.55-9.96-13.39-16.5-22.21-24.16h-.01Z"/>
    <path class="st1" d="M249.9,149.82c9.78,3.31,15.04,16.8,19.59,25.7,2.29,4.48,5.54,11.1,7.52,15.67-2.64-2.58-6.97-9.34-10.49-8.24-.3-6.44-9.23-14.24-14.15-17.76,3.86.97-4.18-7.54-4.6-7.88,1.06-.44,1.25-.73,2.58-.69,1.96.07,3.79,1.43,5.08-.12-1.98-2.15-3.86-4.26-5.52-6.67v-.02s-.01,0-.01,0Z"/>
    <path class="st38" d="M366.87,229.59c2.88.58,6.66-1.07,11.38.68,7.41,2.77,9.64,14.81,18.93,15.52-1.58,1.3-7.79,9.51-9.46,9.57-3.14-.86-5.64-6.72-7.55-8.06,4.67-4.65-4.23-13.53-7.94-15.7-.91-.54-1.56.99-2.16.71-.19-.1-2.01-2.44-3.22-2.73h.01s0,0,0,0Z"/>
    <path class="st8" d="M299.39,283c10.06,5.18,16.56,10.95,22.42,20.79-1.78.13-3.68-.39-5.48-.33-.96.41.84,1.6.32,1.72-4.63.97-8.27,1.82-13.16.9l10.17-7.43c-6.45-6.57-17.04-7.03-25.66-9.15,2.86-2.78,10.35-1.19,12.08-3.92,1.04-1.62-.52-1.11-.69-2.58h0Z"/>
    <path class="st2" d="M209.49,133.04c12.55,6.01,24.14,15.57,35.33,24.11.43.33,2.55-.14,2.95.18.43.33,8.48,8.85,4.6,7.88-17.45-12.49-28.01-12.82-42.87-32.17h-.01Z"/>
    <path class="st6" d="M283.36,156.08c-1.01-3.38-3.18-6.66-3.18-10.33,5.66,11.84,25.45,21.19,29.76,32.23.23.6,1.71,4.94.95,5.13-1.01-.76-4.18-5.25-4.75-5.36-2.21-.46-2.45,1.47-3.94,2.3l-18.84-23.96h0Z"/>
    <path class="st40" d="M283.95,160.33c-.35-1.24-.33-3.44-.59-4.26l18.84,23.96c-.46.26,1.36,1.42.32,1.72-3.21.94-12.09-5.66-15.18-7.68,1.45-5.23-2.02-8.78-3.4-13.73h0Z"/>
    <path class="st0" d="M329.36,199.44c-5.92-5.65-13.2-8.15-13.78-16.89,9.04,7.55,18.55,12.88,24.79,23.47.02.45-1.44,2.01-1.09,4.16-3.8-3.03-6.44-7.4-9.92-10.74Z"/>
    <path class="st33" d="M377.07,270.77c2.12.75,4.93.44,7.16.43v6.76c-.4.88-.09.68-.93,1.64.2-.94-.54-.74-.79-.89-1.98-1.24-.51-.56-1.69-.1-1.52.59-1.93.26-2.68,2.38-1.29.85-2.88,3.51-5.19,1.81l4.1-12.01h.01s0-.01,0-.01Z"/>
    <path class="st5" d="M377.07,270.77c-3.73.77-2.92,5.3-5.99,8.1-2.32,2.11-8.95,3.62-12.1,4.35l14.81-14.33c.88.33,2.85,1.75,3.27,1.89h.01Z"/>
    <path class="st33" d="M355.61,261.89l-1.61,5.82c-2.77-10.08-4.28,1.97-9.52,3.65l4.5-11.57c2.08.84,4.74,1.36,6.64,2.1Z"/>
    <path class="st19" d="M343.97,279.79l-.85,7.13c6.4-5.35-1.4,11.23-5.39,5.17,6.95-2.06,2.69-4.53,2.83-4.91.86-2.31,1.94-5.48,3.41-7.4Z"/>
    <path class="st16" d="M338.14,285.35c.16,2.87-5.35,4.3-6.03,1.76l3.75-6.12c3.03,1.42,1.76,3.2,2.28,4.36h0Z"/>
    <path class="st33" d="M338.69,269.32l4.87-10.69c1.04,4.69-.11,8.84-4.87,10.69Z"/>
    <path class="st23" d="M345.59,295.11l7.24-8.02c2.31.93-4.66,9.09-7.24,8.02Z"/>
    <path class="st24" d="M371.32,267.9c-1.94,1.86-3.1,2.12-2.48-.99.87.32,1.66.69,2.48.99Z"/>
    <path class="st26" d="M245.04,202.82l-18.08-22.65c1.62-.99,5.96,1.73,7.45,2.57,9.32,5.21,19.96,10.06,28.67,15.25,3.28,1.95,5.99,5.22,9.75,6.51,1.63,5.26,5.27,12.23,9.17,16.19l-17.59-2.76,17.67,15.44c.13,2.26-3.1.69-3.44,1.06-4.59-3.77-7.98-10.19-13.62-12.66-9.5-8.61-24.27-17.34-37.83-17.5-.19-.5-3.66-4.58-.95-5.13,5.96,1.55,12.3,2.69,17.91,4.46s7.92,4.59,15.7,6.02c2.28,2.96,2.68,1.21,4.11,1.94,3.65,1.89,7.47,2.45,11.17,4.05.25-9.71-12.19-8.77-17.51-11.2-2.89-1.32-5.87-2.29-8.64-3.9-2.17-1.27-11.43-10.64-12.57-8.79,1.82,2.91,8.4,7.72,8.63,11.08h.01Z"/>
    <path class="st26" d="M211.72,208.42c-2.25-2.79-5.7-5-6.65-8.86,7.67,2.58,15.35,5.63,22.71,8.97,8.96,4.06,32.13,14.69,37.68,20.03,10.45,10.04,2.14,8.2-8.03,7.12-4.54-.49-5.68-.32-10-2.3-6.25-2.85-17.36-13.82-23.84-18.34-3.18-2.21-8.3-4.76-11.86-6.63h0Z"/>
    <path class="st3" d="M257.2,266.94c5.99,1.41,12.72.38,17.7,1.06-.33,2.6,1.18,2.24,2.8,2.71,14.78,4.25,23.98,4.97,36.73,14.89,5.42,4.24,9.87,10.78,15.14,15.29-.48.26,1.34,1.32.32,1.72-1.51.58-6.57,2.94-6.94,2.96-1.88.12-1.05-1.77-1.16-1.77-5.86-9.85-12.36-15.62-22.42-20.79-10.42-5.36-24.82-9.81-36.61-9.81-.88,0-2.98,1.4-4.68.56l1.84-2.43c-1.47.08-3.22-.45-4.63-.28l1.94-4.11h-.04s0-.01,0-.01Z"/>
    <path class="st35" d="M265.49,228.56c5.29,0,8.39,4.7,12.23,7.5-2.45,3.47-5.6,15.73-3.75,20.06-1.32-.85-1.74-1.45-2.43-1.84-7.12-4.05-18.63-7.57-27.13-5.86-2.38.48-3.2.53-2.31,3.24-1.65-.38-3.84-1.39-5.82-1.61,9.03-4.9,19.63-4.43,29.22-7.96.82-.06,6,.1,4.78-2.25-4.04-2.61-10.79.89-12.85-4.15,10.16,1.08,18.47,2.93,8.03-7.12h.02s0,0,0,0Z"/>
    <path class="st13" d="M227.19,204.28c13.55.15,28.32,8.89,37.83,17.5-3.42-1.51-8.64-.98-12.11-2.43-8.44-3.53-16.67-8.04-25.08-11.65-.11-.9-.37-2.71-.64-3.42h0Z"/>
    <path class="st9" d="M211.71,208.4c3.56,1.87,8.69,4.42,11.86,6.63,6.49,4.51,17.59,15.47,23.84,18.34-3.67.07-4.6,1.02-7.5-1.71l-.97,2.06c-9.74-6.16-19.99-16.34-27.22-25.31h-.01Z"/>
    <path class="st18" d="M236.23,180.3c9.2,4.63,19.21,6.52,28.03,11.83-.5,1.97-1.48,3.68-1.19,5.85-8.7-5.18-19.35-10.03-28.67-15.25l1.84-2.43h-.01s0,0,0,0Z"/>
    <path class="st7" d="M227.82,207.68c8.41,3.61,16.64,8.12,25.08,11.65,3.47,1.46,8.69.93,12.11,2.43,5.65,2.47,9.03,8.89,13.62,12.66-1.05,1.1-.76,1.37-.94,1.64-3.84-2.79-6.94-7.5-12.23-7.5-5.55-5.35-28.72-15.96-37.68-20.03l.05-.84h-.01s0-.01,0-.01Z"/>
    <path class="st41" d="M242.08,251.68c-.88-2.71-.06-2.76,2.31-3.24,8.5-1.71,20.02,1.79,27.13,5.86-1.95,2.05-5.08,1.41-7.73,2.07-6.38-3.36-14.84-3.12-21.7-4.69h-.01Z"/>
    <path class="st41" d="M238.96,233.73l.97-2.06c2.9,2.73,3.82,1.77,7.5,1.71,4.32,1.98,5.45,1.82,10,2.3,2.07,5.05,8.81,1.54,12.85,4.15,1.22,2.35-3.96,2.19-4.78,2.25-11.61.84-17.33-2.52-26.56-8.36h.01Z"/>
    <path class="st36" d="M271.52,254.29c.7.4,1.11,1.01,2.43,1.84.13.08-.45,1.22.32,1.72,2.46,1.58,7.88.75,9.06,3.93l-36,1.21c-.47-.27-2.91-1.15-2.01-1.82,6.55-.21,12.35-3.28,18.47-4.81,2.64-.66,5.78-.04,7.73-2.07h0Z"/>
    <path class="st39" d="M245.03,202.8c-.23-3.35-6.81-8.16-8.63-11.08,1.15-1.84,10.4,7.53,12.57,8.79,2.78,1.61,5.76,2.58,8.64,3.9,1.79,1.03,2.05,4.98,2.23,5.21-7.78-1.43-10.08-4.25-15.7-6.02.63.13.94-.15.89-.79h0Z"/>
    <path class="st43" d="M299.63,272.05c3.71,1.46,16.18,9.11,14.82,13.57-12.75-9.92-21.94-10.65-36.73-14.89-1.62-.47-3.12-.1-2.8-2.71,8.46,1.17,16.52.81,24.7,4.03h0Z"/>
    <path class="st16" d="M324.55,216.06c2.94,2.19,4.99,3.46,6.33,7.14-.26.07-.57-.11-.84-.05-.92.17-2.3.7-2.58.69-3.16-.08-4.21-2.76-4.48-2.81-.57-.09-.37,1.76-.94,1.64-3.15-.67-7.89-.67-9.48-3.95.25.09.57,0,.84.05,7.93,1.57,4.51-.37,9-2,.59-.21,4.02,4.61,2.16-.71,0,0-.01,0-.01,0Z"/>
    <g>
      <path class="st31" d="M272.85,204.55c-.12-.38-2.48-6-.06-5.92,17.2,4.85,37.79,40.3,54.7,25.27.28.02,1.67-.5,2.58-.69,2.82,4.04,11.04,3.24,16.17,5.2,2.65,1,5.7,4.6,9.01,4.77l1.18,1.33-4.72,8.17c6.65-1.38,6.95,6.31,8.47,6.85.51.17,9.02-1.98,10.68-1.9,4.15,4.16,10.7,5.96,14.58,10.6-13.52,7.93-29.23,1.65-42.99-2.17-7.4-2.61-5.99.58-6.37.46-1.3-.4.07-8.29-6.62,4.68.1-.52-.05-1.22.1-1.69.81-2.63,2.6-5.84,4.69-7.76-.81-1.4-4.8-.61-5.03-.72-.92-.44-3.59-1.65-4.11-1.94-.1-.07-.28-1-1.59-1.79-.58-.34-1.06-.62-1.64-.94-.05-.03.26-.27-.79-.89-1.39-.82-2.14-.79-2.48-.99-1.1-.66-1.59-1.43-4.06-2.78-2.03-1.11-2.1.08-2.53-.15-.51-.28-1.03-.62-1.64-.94-.33-.18,1.61-.78-2.38-2.68-1.41-.69-2.62-1.28-4.11-1.94-1.86-.85-.86-1.16-4.11-1.94-5.76-1.41-12.7-5.9-12,2.66-.71-.14-.8.14-.89.79l-1.61-1.36c-.64,11.26,7.74,21.11,16.52,27.62l-2.19,1.13c16.04,6.6,25.17,21.76,38.66,31.91.55,3.05-7.54,3.5-8.71,4.12-5.28-4.5-9.72-11.06-15.14-15.29,1.35-4.47-11.11-12.11-14.82-13.57-8.18-3.22-16.24-2.85-24.7-4.03-4.99-.69-11.72.34-17.7-1.06-2.4-.57-7.73-2.73-9.9-3.98l36-1.21c-1.18-3.18-6.61-2.33-9.06-3.93-.76-.5-.19-1.64-.32-1.72-1.86-4.32,1.3-16.57,3.75-20.06.18-.27-.11-.54.94-1.64.35-.35,3.57,1.2,3.44-1.06l-17.67-15.44,17.59,2.76c-3.9-3.96-7.54-10.93-9.17-16.19l.02.06h0Z"/>
      <path class="st20" d="M336.19,240.42c-3.17-2.74,1.76-8.41,3.82-7.37,3.99,2-1.3,9.56-3.82,7.37Z"/>
      <path class="st37" d="M329.21,251c.23.11,4.23-.67,5.03.72-2.09,1.93-3.88,5.13-4.69,7.76-4.68-4.94,3.72-4.25-.33-8.48h-.01s0,0,0,0Z"/>
    </g>
    <path class="st8" d="M300.14,200.22c-3.44-6.34-7.79-12.32-11.57-18.46,3.76,2.22,12.01,16.44,14.57,17.78.13.06,1.68-1.64,1.79-1.59,3.76,1.85,8.42,3.3,11.54,4.92,8.38,4.34,14.93,17.64,23.51,9.87.16.58,4.34,4.59,3.88,5.73-5,.18-9.17,3.8-12.97,4.72-1.34-3.68-3.38-4.96-6.33-7.14-4.53-3.38-9.9-6.24-14.66-9.34-3.25-2.12-6.58-4.27-9.75-6.51h-.01Z"/>
    <path class="st14" d="M300.15,200.21c3.17,2.24,6.5,4.39,9.75,6.51-1.86,4.94.36,8.47,3.5,12.05-.26-.05-.59.04-.84-.05-11.68-3.77-8.46-11.22-12.41-18.51h0Z"/>
    <path class="st1" d="M278.63,192.57c-2.1,1.44-1.52-1.27-1.61-1.36.04.09,1.4.65,1.61,1.36Z"/>
    <g>
      <path class="st16" d="M287.81,236.62c-.69-8.55,6.24-4.06,12-2.66l.12,5.08,3.99-3.14c1.49.68,2.68,1.27,4.11,1.94-.95,3.6,1.1,7.53,2.38,2.68.61.31,1.13.66,1.64.94l.7,9.34,4.17-6.09-3.02,1.08.67-4.18c2.46,1.35,2.94,2.13,4.06,2.78-.57,1.71.73,1.64.74,1.74.27,2.69-1.53,6.25.75,8.5l1.77-8.35c.58.32,1.07.59,1.64.94-.64,1.47-2.4,4.32-2.05,5.8-.21,2.01.19,2.21,1.64.94.2-.18,2.28-4.12,1.99-4.96.51.3,3.18,1.51,4.11,1.94,4.05,4.23-4.35,3.54.33,8.48-.15.48,0,1.17-.1,1.69-2.66,12.83,3.72,1.02,5.42,8.36.12.56-.51,10.83-.68,11.38-.25.81-3.36,4.88-4.09,4.83-2.07-3.42-6.01-5.09-3.26-9.08-5.47,2.58-6.57-3.23-8.84-7.71,2.08-1.39,2.68-4.68,3.77-6.53.82-.99,4.31-2.24,3.25-4.88-1.67,1.21-2.29,3.24-3.25,4.88-2.48,2.97-2.64,2.46-4.61,6.48-.4.81-.86,2.13-1.84,2.43-.22-.19-1.43-.75-1.64-.94.08-6.56-2.54-2.73-4.37-4.49-3.62-3.45.71-1.67-1.44-4.31-.12-.15-2.12,1.7-3.76-.65-1.4-2,1.11-4.77-.09-5.5-.58-.36-5.55,9.23-3.9-5.31l-2.78,4.06c-3.84-4.13-9.03-11.65-9.51-17.48v-.05s.01,0,.01,0Z"/>
      <g>
        <path class="st37" d="M286.92,237.46c.09-.63.18-.92.89-.79.47,5.83,5.67,13.35,9.51,17.48l2.78-4.06c-1.66,14.54,3.32,4.96,3.9,5.31,1.2.73-1.31,3.51.09,5.5,1.64,2.35,3.64.5,3.76.65,2.15,2.64-2.17.84,1.44,4.31,1.83,1.75,4.44-2.08,4.37,4.49-6.95-6.64-28.84-18.36-26.77-32.89h.01Z"/>
        <path class="st45" d="M312.02,241.51c.43.23.5-.96,2.53.15l-.67,4.18,3.02-1.08-4.17,6.09-.7-9.34h-.01Z"/>
        <path class="st37" d="M319.35,246.17l1.74-.74c1.05.62.79.89.79.89l-1.77,8.35c-2.28-2.26-.48-5.82-.75-8.5h-.01Z"/>
        <path class="st25" d="M303.91,235.95l-3.99,3.14-.12-5.08c3.25.8,2.24,1.1,4.11,1.94h0Z"/>
        <path class="st45" d="M321.48,253.05c-.34-1.49,1.4-4.34,2.05-5.8,1.32.79,1.48,1.74,1.59,1.79.29.84-1.79,4.78-1.99,4.96-.38-.14-1.62-.84-1.64-.94h0Z"/>
        <path class="st45" d="M310.4,240.57c-1.28,4.84-3.33.92-2.38-2.68,3.99,1.9,2.05,2.51,2.38,2.68Z"/>
        <path class="st44" d="M318.61,244.46c.34.2,1.08.17,2.48.99l-1.74.74c0-.1-1.31-.03-.74-1.74h0Z"/>
        <path class="st42" d="M321.76,262.39c-1.09,1.85-1.69,5.14-3.77,6.53l-.84-.05c1.97-4.02,2.14-3.52,4.61-6.48Z"/>
        <path class="st42" d="M325.02,257.5c1.06,2.64-2.44,3.9-3.25,4.88.96-1.64,1.59-3.68,3.25-4.88Z"/>
        <path class="st4" d="M329.44,282.29c-1.45-.56,1.54-3.67,2.73-3.22.09.92-1.71,3.37-2.73,3.22Z"/>
        <path class="st4" d="M311.04,265.12c-.9-.61-.42-4.2,1.04-3.32,1.37.83-.66,3.57-1.04,3.32Z"/>
        <path class="st23" d="M321.48,253.07c.03.09,1.26.8,1.64.94-1.45,1.27-1.85,1.07-1.64-.94Z"/>
      </g>
    </g>
    <g>
      <path class="st22" d="M329.58,300.9c1.17-.62,9.26-1.06,8.71-4.12-13.49-10.14-22.64-25.31-38.66-31.91l2.19-1.13c-8.78-6.5-17.17-16.36-16.52-27.62l1.61,1.36c-2.09,14.53,19.81,26.26,26.77,32.89.2.19,1.42.75,1.64.94,6.89,6.43,11.83,15.54,21.53,21.58,6.33,3.95,14.82,7.45,21.42,9.33-4.41,3.46.65,1.84.64,3.42-.02,6.71-26.84,21.73-34.12,19.09l6.55-3.41-24.69,2.74,5.16-1.39c3.81-5.8,18.87-14.51,4.85-17.47.52-.11-1.28-1.3-.32-1.72,1.8-.06,3.7.46,5.48.33.1,0-.74,1.89,1.16,1.77.37-.03,5.43-2.38,6.94-2.96,1.02-.4-.8-1.46-.32-1.72h-.01s0,0,0,0Z"/>
      <path class="st19" d="M315.3,271.29c.99-.3,1.45-1.62,1.84-2.43l.84.05c2.27,4.48,3.36,10.29,8.84,7.71-2.75,3.99,1.19,5.67,3.26,9.08.73.04,3.84-4.02,4.09-4.83.54.1,1.35-.06,1.69.1l-3.75,6.12c.68,2.53,6.19,1.12,6.03-1.76.29.65,1.29,2.17,2.43,1.84-.14.38,4.11,2.85-2.83,4.91-.43.13-.96-.11-.89.79-9.69-6.05-14.63-15.15-21.53-21.58h-.01s0,0,0,0Z"/>
      <path class="st30" d="M335.1,314.76l5.12-14.91c7.81,4.34.55,11.87-5.12,14.91Z"/>
      <path class="st30" d="M349.39,309.27c-3.74,7.4-4.57-3.69-1.88-3.92.39-.04,2.7,2.89,1.88,3.92Z"/>
    </g>
    <path class="st9" d="M257.61,204.42c5.33,2.43,17.75,1.49,17.51,11.2-3.72-1.61-7.53-2.16-11.17-4.05.83-2.03-3.33-1.8-4.11-1.94-.18-.23-.43-4.18-2.23-5.21h0Z"/>
    <path class="st39" d="M263.95,211.57c-1.42-.75-1.82,1.01-4.11-1.94.77.14,4.93-.08,4.11,1.94Z"/>
    <path class="st27" d="M309.9,206.72c4.77,3.1,10.13,5.98,14.66,9.34,1.86,5.32-1.58.51-2.16.71-4.5,1.63-1.07,3.57-9,2-3.14-3.58-5.36-7.11-3.5-12.05Z"/>
    <g>
      <path class="st21" d="M370.06,232.32c.6.29,1.25-1.25,2.16-.71,3.71,2.17,12.62,11.05,7.94,15.7-.61-.43-4,.16-4.63-.28-5.41-3.82-9.34-8.12-5.46-14.71h-.01Z"/>
      <path class="st16" d="M369.91,235.27c.59-.64,2.86-.35,3.81-.19,11.12,1.82,2.88,23.29-3.81.19Z"/>
    </g>
  </g>
  <path class="st11" d="M180.88,313.95l26.54-19.54c-.79,10.94,5.24,21.72,5.65,32.47-1.02-.98-.65-1.93-2.01-1.82-5.76,7.62-14.62,17.1-25.03,15.4-.53-1.34-1.01-1.2-1.59-1.79.12-6.6-.25-19.16-3.59-24.74,0,0,.02.03.02.03Z"/>
  <path class="st29" d="M149.9,336.59c10.94.85,27.5,12.67,34.34,21.96,1.49-.23,2.98-.47,4.47-.71-.21-1.66-.28-3.22-.08-4.54.04-.27-.03-.58.05-.84-3.11-2.5-1.79-9.78-2.66-12-.52-1.34-1.01-1.2-1.59-1.79-4.34-4.4-21.19-11.31-28.1-17.75-5.42-5.07-7.87-11.12-12.14-15.95-.81,2.79,4.68,26.87,5.7,31.63h.01Z"/>
  <path class="st12" d="M188.68,352.44c1.46-5.28,17.22-10.18,21.95-13.48-5.8,6.62-13.57,12.02-22,14.32.04-.27-.03-.58.05-.84h0Z"/>
  <path class="st41" d="M144.18,304.96c3.37-11.65,32.04,1.22,36.66,8.97,3.33,5.58,3.71,18.14,3.59,24.74-4.34-4.4-21.18-11.31-28.1-17.75-5.42-5.07-7.86-11.12-12.14-15.95h-.01Z"/>
  <path class="st41" d="M210.63,338.98c-4.75,3.31-20.5,8.2-21.95,13.48-3.11-2.51-1.79-9.79-2.66-12,10.41,1.71,19.27-7.78,25.03-15.4,1.37-.11.98.84,2.01,1.82,1.93,1.84,1.39,2.16,2.28,4.36.68,1.67,1.31,3.36,1.93,5.07"/>
</svg>