<?xml version="1.0" encoding="UTF-8"?>
<svg id="Layer_1" xmlns="http://www.w3.org/2000/svg" version="1.1" viewBox="0 0 223 273.79">
  <!-- Generator: Adobe Illustrator 29.4.0, SVG Export Plug-In . SVG Version: 2.1.0 Build 152)  -->
  <defs>
    <style>
      .st0 {
        fill: #481224;
      }

      .st1 {
        fill: #320a10;
      }

      .st2 {
        fill: #ef8a4c;
      }

      .st3 {
        fill: #daa08a;
      }

      .st4 {
        fill: #653c47;
      }

      .st5 {
        fill: #ca6453;
      }

      .st6 {
        fill: #f8ceb2;
      }

      .st7 {
        fill: #4f201f;
      }

      .st8 {
        fill: #04040e;
      }

      .st9 {
        fill: #5b314c;
      }

      .st10 {
        fill: #303950;
      }

      .st11 {
        fill: #200309;
      }

      .st12 {
        fill: #cd8f81;
      }

      .st13 {
        fill: #864d4b;
      }

      .st14 {
        fill: #5c2333;
      }

      .st15 {
        fill: #2f1b20;
      }

      .st16 {
        fill: #f4b68d;
      }

      .st17 {
        fill: #7c565e;
      }
    </style>
  </defs>
  <g id="Generative_Object">
    <path class="st8" d="M47.48,42.21l21.55,16.3c-.18,1.09.04,1.89,0,2.21l-22.38-17.13"/>
    <path class="st13" d="M74,172.88c1.83,2.61,4.59,4.49,6.63,6.91.17.2-.14,1.21,0,1.38-1.96,12.4,6.44,22.92,15.47,30.39.08.07-.07,1.85,1.38,1.66l11.33-13.26c.09,4.92.7,10.01,1.1,14.92.89,10.7,1.48,21.33,2.21,32.04-6.35-4.72-15.3-11.96-19.34-18.78-5.64-9.54-6.7-22.62-13.26-31.49.26-2.41-1.45-7.17-2.21-9.67-1.25-4.11-5.2-10.46-6.08-14.09-.04-.17.04-.38,0-.55.83.33,2.08.35,2.76.55Z"/>
    <path class="st17" d="M61.84,21.22c3.53,4.55,8.39,8.39,13.81,10.22.25,2.95-1.54,7.54-2.21,10.5-1.25,5.51-3.48,11-4.42,16.57l-21.55-16.3c4.32-7.18,6.85-15.35,10.14-23"/>
    <path class="st6" d="M69.03,60.72c.04-.32-.18-1.12,0-2.21.94-5.58,3.17-11.07,4.42-16.57,2.56-.55,3.23-4.81,4.42-6.35,4.56-5.88,16.35-13.41,23.76-13.54-.7,2.5-1.07,8.39-1.66,9.94-4.41,11.61-19.45,25.49-30.11,31.49"/>
    <path class="st6" d="M69.85,63.48c11.5-5.59,24.13-10.61,34.81-17.68,4.5-2.98,9.37-8.83,12.98-11.05.1-.06,1.05-.54,1.1-.55.39-.11.59-.23.83-.55.42.18,1.18,1.72,1.38,2.21,1.72,4.14,2.28,15.18,2.21,19.89-.03,2.09-.18,8.32-.55,9.94-.27,1.19-.54,1.05-.55,1.1-.04.16-1.14,1.64-1.66,2.76-18.93,3.12-34.78,15.51-50.83,25.41-.7-12.5-2.16-21.47-.55-34.25"/>
    <path class="st5" d="M117.65,110.44c-12.18,18.37-7.28,28.57-7.18,49.17-5.42,6.89-10.79,12.71-19.06,16.02-1.48.59-8.1,2.66-8.56,2.76-.17.04-.37-.03-.55,0-1.18-11.02-3.75-21.8-6.08-32.6,7.43-9.94,14.16-22.31,23.76-30.39,7.31-6.15,14.58-7.61,22.65-12.15-1.86,3.27-3.16,4.45-4.97,7.18Z"/>
    <path class="st16" d="M120.41,69.56c-.87,1.88-1.33,3.91-2.76,5.52-7.49-.71-39.8,17.43-46.96,22.93l47.51-22.38c.77.4,1.29.66,1.1,1.66-3.32,7.95-8.58,15.94-15.47,21.27.94,1.34,3.25.12,4.42-.28l-34.25,42.54c-3.37-14.92-3.56-30.62-4.42-45.86,16.05-9.9,31.9-22.29,50.83-25.41Z"/>
    <path class="st3" d="M119.3,93.87c.17-.04.38.04.55,0-3.92,7.48-11.91,11.13-17.68,16.57-10.62,10.03-19.87,21.87-26.52,34.81-.06-.26-1.17-2.28-1.66-4.42l34.25-42.54c3.91-1.32,6.55-3.26,11.05-4.42Z"/>
    <path class="st7" d="M99.97,115.42c-9.6,8.08-16.33,20.45-23.76,30.39,0-.04-.39.21-.55-.55,6.65-12.94,15.89-24.78,26.52-34.81-.04,2.26-3.89,2.85-2.21,4.97Z"/>
    <g>
      <path class="st17" d="M69.03,60.72c-1.61,12.78-.15,21.76.55,34.25.86,15.24,1.05,30.94,4.42,45.86.48,2.14,1.6,4.16,1.66,4.42.17.76.54.51.55.55,2.33,10.8,4.9,21.57,6.08,32.6-3.67.65-4.59-4.43-8.29-5.52-.68-.2-1.94-.22-2.76-.55-2.12-9.11-2.38-20.96-4.42-30.94-4.44-21.73-16.68-33.44-22.1-53.87-4.01-15.12-5.08-29.45,1.93-43.92l22.38,17.13Z"/>
      <path class="st15" d="M44.44,76.19c8.18,5.68,16.02,11.84,22.93,19.06-7.78-5.88-16.7-11.83-22.93-19.06Z"/>
    </g>
    <path class="st4" d="M82.29,178.4c.18-.03.38.04.55,0-.18,1,.97,1.96,1.1,2.76.06.38-.86.83-.55,1.93.09.34,3.14,2.38,1.38,3.04-1.06-1.92-2.77-3.31-4.14-4.97-.14-.17.17-1.19,0-1.38-2.04-2.41-4.8-4.29-6.63-6.91,3.7,1.1,4.62,6.17,8.29,5.52Z"/>
    <path class="st2" d="M114.33,168.46c-3.71,8.15-2.97,20.61-6.08,28.18-1.86,4.53-8.51,11.5-12.15,14.92-9.03-7.47-17.43-17.99-15.47-30.39,1.38,1.66,3.08,3.06,4.14,4.97,1.76-.66-1.29-2.7-1.38-3.04-.3-1.1.62-1.55.55-1.93,1.42.53,2.6,1.42,3.87,2.21.11.07,1.42,1.74,1.93,1.66,4.73-.75,19.65-20.45,22.1-20.44,1.11,0,1.49,3.45,2.49,3.87Z"/>
    <path class="st7" d="M108.81,199.95l-11.33,13.26c-1.45.19-1.3-1.59-1.38-1.66,3.64-3.42,10.3-10.39,12.15-14.92,1.8.54.53,1.94.55,3.31Z"/>
    <path class="st13" d="M122.62,103.26c-8.08,4.55-15.35,6.01-22.65,12.15-1.68-2.12,2.17-2.71,2.21-4.97,5.76-5.44,13.76-9.09,17.68-16.57,1.29-.3,6.44-2.89,7.18-.83-.63,3.89-2.53,6.9-4.42,10.22Z"/>
    <path class="st2" d="M87.81,183.37c-1.26-.79-2.45-1.68-3.87-2.21-.13-.8-1.28-1.76-1.1-2.76.47-.1,7.08-2.17,8.56-2.76,8.27-3.31,13.64-9.13,19.06-16.02,0,.96,1.01,1.37,0,3.59-.58,1.28-18.34,19.57-19.61,20.17s-1.73-.08-3.04,0Z"/>
    <path class="st1" d="M117.65,75.08c.73.07.52.53.55.55l-47.51,22.38c7.16-5.5,39.47-23.64,46.96-22.93Z"/>
    <g>
      <path class="st0" d="M112.12,246.91c0,.11.47,1.04.55,2.21-8.35-3.35-18.86-11.78-19.89-20.99,4.03,6.82,12.98,14.06,19.34,18.78Z"/>
      <path class="st8" d="M150.24,174.26c-6.19-6.85-12.84-13.86-23.2-11.88,1.06-.3,1.82-1.18,2.76-1.66,4.28-2.19,8.55-1.89,13.26-1.38-1.35-3.22-4.35-5-2.49-9.12l3.04,3.04c.06-2.36-4.14-5.46-4.42-7.18-.4-2.52,1.72-3.08,1.66-3.87-.23-2.97-7.41-2.36-7.73-2.76-.59-.72,4.3-13.08.55-11.05-.65.35-6.26,9.79-6.91,11.33-.98.23-2.53-5.84-6.63-4.42-.55.19-1.75,3.73-2.49,1.93,1.49-4.8,5.25-2.18,8.01-3.04,2.55-.79,5.75-8.46,6.35-11.05l4.97,1.93c1.1-8.07,7.02-12.81,11.05-19.34l-.28-1.38h-6.91l-1.1-.28c1.21-4.89,4.59-1.81,4.97-2.21,2.25-2.33,1.79-15.95,8.29-17.4,4.5,8.05,14.04,15.97,21.55,20.99,0,0-11.02,3.13-14.36,6.35-3.17,3.06-5.12,12.58-5.72,16.3-.22,1.38-2.41,8.45.47,9.39,3.03.99,5.29,4.83,7.46,6.91l-4.42-.55c2.96,3.71,4.29,8.23,5.52,12.71l-3.87.55,6.08,9.67c-1.85,1.26-13.19,7.04-13.54,7.73"/>
      <path class="st11" d="M157.43,60.72c-4.64,8.33-25.15,11.2-32.61,16.3l6.35-1.38,24.6-8.01c-8.58,8.28-31.79,13.22-38.13,23.76.96,1.33.91.37,1.66.28v2.21c-4.5,1.16-7.14,3.1-11.05,4.42-1.17.39-3.48,1.62-4.42.28,6.89-5.33,12.15-13.32,15.47-21.27,1.38-3.3,3.05-6.66,2.76-10.5.02-.06.28.09.55-1.1,3.74,1.25,9.64-.84,12.98-2.76,1.27-.73,15.75-4.33,16.03-4.42,1.04-.34,4.62,1.95,5.8,2.21Z"/>
      <path class="st14" d="M128.14,33.65c1.17,5.18,8.17,7.19,9.39,12.71-.96-.66-7.05-5.31-7.46-4.97-1.76,2.59,21.82,15.94,21.56,17.13-.62,2.77-26.32.12-28.46-2.76.07-4.71-.49-15.75-2.21-19.89,2.82,1.07,4.63-1.74,7.18-2.21Z"/>
      <path class="st12" d="M119.3,77.29c.19-1-.34-1.26-1.1-1.66-.03-.02.18-.48-.55-.55,1.43-1.62,1.89-3.64,2.76-5.52.52-1.12,1.61-2.61,1.66-2.76.29,3.84-1.39,7.2-2.76,10.5Z"/>
      <path class="st0" d="M151.63,58.51c-.28.09-14.76,3.69-16.03,4.42-3.35,1.92-9.25,4.01-12.98,2.76.37-1.63.52-7.85.55-9.94,2.14,2.89,16.23,2.82,16.85.05"/>
      <path class="st8" d="M162.41,62.38c-.74.78-.36,1.65-.55,2.21-2.45,6.99-12.78,10.15-9.95,16.57-1.78-.57-1.56-.39-2.76.83-1.54,1.57-9.05,13.69-10.22,13.54-3.11-22.59-9.34-5.16-19.61-3.87-.75.09-.69,1.05-1.66-.28,6.34-10.53,29.56-15.47,38.13-23.76l-24.6,8.01-6.35,1.38c7.46-5.09,27.96-7.97,32.61-16.3,1.4.31,4.71,1.63,4.97,1.66Z"/>
      <path class="st1" d="M151.9,81.16c.35.79.73,2.65,1.1,3.31-6.5,1.46-6.04,15.07-8.29,17.4-.39.4-3.76-2.68-4.97,2.21l1.1.28-4.97,11.33c.9-2.71,1.11-5.54,1.66-8.29.03-.14,1.56-1.64,1.66-2.21.02-.13-1.7-.63-1.66-1.1.17-1.97,2.95-4.26,2.21-6.63-4.52,1.96-5.15,8.05-6.08,12.43-4.79-.13-7.11,6.52-10.77,9.39-2.05-.66,6.93-8.53,6.91-9.12-.1-2.17-9.7,1.65-12.15.28,1.81-2.73,3.12-3.91,4.97-7.18,1.89-3.32,3.79-6.33,4.42-10.22-.74-2.06-5.89.53-7.18.83-.18.04-.38-.04-.55,0v-2.21c10.28-1.3,16.51-18.72,19.61,3.87,1.17.15,8.69-11.97,10.22-13.54,1.2-1.22.98-1.4,2.76-.83Z"/>
      <path class="st11" d="M140.85,104.37h6.91l.28,1.38c-4.03,6.53-9.95,11.26-11.05,19.34l-4.97-1.93c.91-3.92.74-8.9,1.66-13.26s1.56-10.47,6.08-12.43c.74,2.37-2.04,4.66-2.21,6.63-.04.48,1.68.98,1.66,1.1-.1.57-1.63,2.07-1.66,2.21-.54,2.75-.76,5.58-1.66,8.29l4.97-11.33Z"/>
      <g>
        <path class="st1" d="M133.67,109.89c-.92,4.36-.75,9.34-1.66,13.26-.6,2.59-3.81,10.26-6.35,11.05-2.76.86-6.52-1.76-8.01,3.04.74,1.8,1.93-1.74,2.49-1.93,4.1-1.42,5.65,4.65,6.63,4.42.65-1.54,6.26-10.97,6.91-11.33,3.75-2.03-1.14,10.33-.55,11.05.33.41,7.5-.21,7.73,2.76.06.79-2.06,1.34-1.66,3.87.28,1.72,4.47,4.82,4.42,7.18l-3.04-3.04c-1.86,4.11,1.13,5.9,2.49,9.12-4.71-.51-8.98-.81-13.26,1.38-4.72-.18-12.11,3.07-14.36,7.18-.06.03.01.85-1.1.55-1-.42-1.38-3.86-2.49-3.87-2.45-.01-17.37,19.7-22.1,20.44-.51.08-1.83-1.59-1.93-1.66,1.31-.08,1.71.62,3.04,0s19.03-18.89,19.61-20.17c1.01-2.22,0-2.63,0-3.59-.1-20.6-5-30.8,7.18-49.17,2.45,1.37,12.05-2.45,12.15-.28.03.58-8.96,8.46-6.91,9.12,3.66-2.87,5.99-9.52,10.77-9.39Z"/>
        <path class="st9" d="M129.8,160.72c-.94.48-1.7,1.36-2.76,1.66-1.37.26-9.45,4.5-11.6,5.52,2.25-4.12,9.64-7.36,14.36-7.18Z"/>
        <path class="st11" d="M132.84,131.44c.59,1.32-.92,6.28-1.38,7.46-.23.58-2.05,4.84-2.49,4.7l3.87-12.15Z"/>
      </g>
    </g>
    <path class="st10" d="M117.65,34.75c-3.61,2.22-8.48,8.07-12.98,11.05-10.68,7.07-23.3,12.09-34.81,17.68,10.66-6,25.7-19.88,30.11-31.49h.55l1.66-.28-.83,4.7c1.6-.84,2.03-4.18,4.14-3.04l-2.49,6.35c1.57-1.04,3.18-6.72,4.42-7.18.74-.28,1.53,1.17,1.66,1.1,1.5-.72,2.47-4.93,4.7-4.7l-4.7,8.01,11.05-12.71c1.91.96-5.85,9.1-2.49,10.5Z"/>
    <path class="st13" d="M112.67,249.12s18.18,5.67,26.86,3.84,39.4-28.07,41.62-35.53c2.21-7.47-4.03-35.52-4.03-35.52l-11.4-15.11-15.47,7.46s-6.63-12.71-23.2-11.88-19.58,12.15-19.58,12.15c0,0-4.08,61.35,5.22,74.59Z"/>
  </g>
</svg>