<?xml version="1.0" encoding="UTF-8"?>
<svg id="Extras" xmlns="http://www.w3.org/2000/svg" version="1.1" viewBox="0 0 500 500">
  <!-- Generator: Adobe Illustrator 29.4.0, SVG Export Plug-In . SVG Version: 2.1.0 Build 152)  -->
  <defs>
    <style>
      .st0 {
        fill: #1d2235;
      }

      .st1 {
        fill: #ec7329;
      }

      .st2 {
        fill: #04040e;
      }

      .st3 {
        fill: #854935;
      }

      .st4 {
        fill: #b8643e;
      }

      .st5 {
        fill: #150f1c;
      }
    </style>
  </defs>
  <path class="st5" d="M228.99,144.62c11.28,4.02,23.32,8.64,34.06,13.95,15.29,7.56,30.65,15.69,42.27,28.32,25.12,27.31,25.12,45.06,66.08,57.05,9.56,2.8,30.6,15.57,40.09,18.46,1.12-.51,42.29,10.85,43.08,11.17,41.44,16.61-7.4-16.64-3.96-13.21.82.07,2.32-1.59,2.46-1.64l-17.24-21.34c-1.86-1.75-4.6-6.31-5.75-7.39-4.88-4.61-26.96-24.89-28.73-29.14-2.16-5.18-4.61-33.34-7.8-35.71l-44.73-11.9c13.79,11.04,27.09,21.94,31.19,39.81.24,1.04.83,3.23,1.64,4.1-.07-.89-.79-11.9,2.46-9.44,1.21,6.32,19.76,41.68,16.01,44.73-2.67-.28-6.1-1.37-8.62-1.64-30.99-3.4-57.97-10.79-73.87-39.81l-21.34-37.35c-28.28-4.68-56.96-12.42-84.95-15.6,6.14,1.46,11.97,3.93,17.65,6.57Z"/>
  <path class="st1" d="M242.95,152.01c10,23.72,15.04,51.67-4.92,71.82,24.28-1.94,51.33,17.73,54.99,42.27,4.04-7.08,9.54-11.41,10.67-20.93,4.49-37.88-26.74-28.8-52.53-27.91l45.56-2.05c1.96-1.41-10.02-20.85-11.49-21.34-10.31-3.41-26.27,18.79-35.71,20.93l33.65-23.8-4.51-11.08,16.01,10.67c-15.51-17.58-31.19-27.73-51.71-38.58Z"/>
  <path class="st2" d="M228.99,144.62c4.79,2.23,9.3,4.93,13.95,7.39,20.52,10.85,36.2,21,51.71,38.58,13.12,14.86,20.71,32,33.24,46.79l134.2,44.32c.3-.7,4.98-2.95,6.16-3.49-9.49-2.89-87.3-31.47-96.86-34.27-40.95-11.99-40.96-29.74-66.08-57.05-11.62-12.63-26.98-20.75-42.27-28.32-10.74-5.31-22.78-9.94-34.06-13.95Z"/>
  <path class="st0" d="M296.3,153.65l21.34,37.35c15.9,29.02,42.88,36.41,73.87,39.81-2.32-11.14-8.97-22.28-9.85-33.65-.81-.88-1.4-3.06-1.64-4.1l-6.98,28.73c-33.92-2.81-40.88-38.97-52.94-64.43l-2.05-2.05c-6.82-.43-15.11-.54-21.75-1.64Z"/>
  <g>
    <path class="st4" d="M293.01,266.1c-2.91,5.1-5.31,10.67-8.62,15.6,31.07-9.24,60.21-.69,74.28,29.55,1.01-2.43,8.13-7.7,10.26-9.85,1.38,1.6-.08,6.89-.41,9.03,3.25.39,15.19-19.34,43.27-1.45-3.79-13.53,26.82,17.24,35.94,6.58,1.76-2.06,15.8-17.3,18.19-18.73.1-.23-6.39-15.71-6.29-15.95l-131.74-43.51c-12.53-14.79-20.13-31.92-33.24-46.79l-16.01-10.67,4.51,11.08-33.65,23.8c9.44-2.14,25.4-24.34,35.71-20.93,1.48.49,13.45,19.93,11.49,21.34l-45.56,2.05c25.79-.89,57.02-9.97,52.53,27.91-1.13,9.52-6.63,13.86-10.67,20.93Z"/>
    <path class="st3" d="M345.96,257.07c-16.17,2.52-31.48,8.84-46.38,15.19,15.73-3.79,31.56-8.69,46.38-15.19Z"/>
  </g>
  <path class="st2" d="M381.66,197.15c.88,11.37,7.53,22.51,9.85,33.65,2.51.28,5.95,1.37,8.62,1.64,3.75-3.05-14.79-38.42-16.01-44.73-3.25-2.46-2.53,8.55-2.46,9.44Z"/>
</svg>