<?xml version="1.0" encoding="UTF-8"?>
<svg id="Layer_1" xmlns="http://www.w3.org/2000/svg" version="1.1" viewBox="0 0 230.32 193.31">
  <!-- Generator: Adobe Illustrator 29.4.0, SVG Export Plug-In . SVG Version: 2.1.0 Build 152)  -->
  <defs>
    <style>
      .st0 {
        fill: #481224;
      }

      .st1 {
        fill: #c0afbb;
      }

      .st2 {
        fill: #866175;
      }

      .st3 {
        fill: #320a10;
      }

      .st4 {
        fill: #ef8a4c;
      }

      .st5 {
        fill: #e2b1cc;
      }

      .st6 {
        fill: #b25545;
      }

      .st7 {
        fill: #824158;
      }

      .st8 {
        fill: #b16684;
      }

      .st9 {
        fill: #853a35;
      }

      .st10 {
        fill: #c84e36;
      }

      .st11 {
        fill: #04040e;
      }

      .st12 {
        fill: #d47550;
      }

      .st13 {
        fill: #200309;
      }

      .st14 {
        fill: #ecae65;
      }

      .st15 {
        fill: #7d3344;
      }

      .st16 {
        fill: #5c2333;
      }

      .st17 {
        fill: #a2433e;
      }

      .st18 {
        fill: #705b6d;
      }

      .st19 {
        fill: #f4be61;
      }

      .st20 {
        fill: #70180f;
      }

      .st21 {
        fill: #15050a;
      }

      .st22 {
        fill: #e3e3e5;
      }

      .st23 {
        fill: #9a3043;
      }

      .st24 {
        fill: #c785a4;
      }

      .st25 {
        fill: #a58493;
      }

      .st26 {
        fill: #fdfdfd;
      }
    </style>
  </defs>
  <path class="st15" d="M20.28,18.08c.37-.74,1.49-1.7,1.78-2.19.79,1-.38,4.67-.26,4.88.54.93.85-.35,2.08.78.4.37.68.89,1.06,1.28-4.24,1.7,6.46,9.86,7.85,10.35,6.5,2.29,5.06-5.06,7.42-7.93,1.23-1.5,4.06-2.25,4.61-3.1.32-.49-2.23-11.02-2.65-11.43l.43-.35,4.86-3.66-4.05-4.89c3.16-.3,3.82-.42,7.07-.12,1.4.13,2.9.94,3.82,1.14,3.1,2.19,7.65,9.68,11.3,4.99,1.09,1.15,2.78,1.87,3.6,3.48,2.39,4.74.86,2.16,3.44,7.19-3.41,11.92-8.71,26.8-20.9,32.37-8.93-1.52-15.09-8.9-20.71-15.49l.84,3.61c-.18,1.57-9.82-7.91-10.51-9.23l-.51,5.45c.7-2.51-2.6-6.36-2.7-6.73-.04-.17-.3-.27-.35-.43-.14-.5,2.13-9.19,2.51-9.97h-.03Z"/>
  <path class="st16" d="M17.65,33.92c.03-1.83-.12-3.69.51-5.45.1.37,3.39,4.23,2.7,6.73l.51-5.45c.69,1.32,10.33,10.8,10.51,9.23l-.84-3.61c5.62,6.6,11.78,13.97,20.71,15.49-8.03,3.67-10.05.73-16.68-4.12-.7.36,1.93,4.53,2.46,5.14-.75.94-3.1-.52-3.64-.93-2.87-2.19-14.35-11.39-15.59-13.63-.41-.75.4-3.3-.66-3.4h.01Z"/>
  <path class="st3" d="M31.07,57.93c-7.77-5.38-13.57-14.58-13.43-24.02,1.06.1.25,2.65.66,3.4,1.24,2.24,12.72,11.43,15.59,13.63.54.41,2.89,1.87,3.64.93,1.87,2.15,3.71,1.36,5.33,3.84.12.18-.9,1.39-.57,1.91.22.35,7.06.43,8.06,1.94l-10.16,1.59c-3.02-.74-6.53-1.41-9.12-3.21h0Z"/>
  <path class="st5" d="M22.08,15.89c5.57-9.5,6.35-10.08,16.52-12.96-1.11,1.81-2.9,4.68-4.12,6.28-1.7,2.23-4.53,3.9-4.97,6.99l-5.61,5.36c-1.23-1.13-1.54.15-2.08-.78-.13-.21,1.04-3.88.26-4.88h0Z"/>
  <path class="st8" d="M41.02,2.37l1.6,8-.43.35c-1.89-1.88-3.99,1.08-4.21.98-.4-.19-.57-3.52-3.49-2.49,1.21-1.6,3.01-4.46,4.12-6.28.97-.28,1.43-.38,2.41-.56Z"/>
  <path class="st7" d="M41.01,2.38c.73-.14,1.2-.44,2.41-.56l4.05,4.89-4.86,3.66-1.6-8h0Z"/>
  <path class="st0" d="M76.34,37.69c-1.02.4-2.32,4.45-3.06,5.4-.88,1.14-2.59,4.26-2.77,4.45-.42.42-1.62-.12-1.77.03-9.36,9.02-15.31,16.86-28.55,13.6l10.16-1.59c-1-1.51-7.84-1.59-8.06-1.94-.33-.52.69-1.73.57-1.91-1.62-2.49-3.46-1.69-5.33-3.84-.53-.61-3.16-4.79-2.46-5.14,6.63,4.85,8.65,7.79,16.68,4.12,12.18-5.58,17.49-20.46,20.9-32.37.32-1.12-.53,0,0,0,3.01.87,4.13,11.89,5.09,12.64"/>
  <path class="st23" d="M54.31,2.84c6.76,1.48,6.02-.59,11.3,4.99-3.65,4.69-8.2-2.81-11.3-4.99Z"/>
  <path class="st7" d="M29.52,16.21c.44-3.09,3.27-4.76,4.97-6.99,2.91-1.03,3.09,2.3,3.49,2.49.22.1,2.31-2.86,4.21-.98.42.41,2.97,10.94,2.65,11.43-.55.85-3.38,1.61-4.61,3.1-2.36,2.86-.92,10.21-7.42,7.93-1.39-.49-12.08-8.64-7.85-10.35l5.64,4.65c-1.76-3.28,3.01-5.56,2.96-6.39,0-.13-2.19-.9-2.26-1-2.18-2.92.91-2.15-1.79-3.9h0Z"/>
  <path class="st24" d="M23.9,21.56l5.61-5.36c2.69,1.75-.39.99,1.79,3.9.07.1,2.26.88,2.26,1,.05.83-4.72,3.11-2.96,6.39l-5.64-4.65c-.38-.39-.66-.92-1.06-1.28h0Z"/>
  <path class="st16" d="M24.69,67.54c-.52-1.69.91-7.49,1.09-9.51,1.4.24,2.91,3.61,3.66,4.86,1.36,2.28,2.29,5.01,3.83,7.23l1.2-.28c.72-3.33-.7-6.14,2.38-2.33,5.44,6.73,8.64,18.93,15.56,22.26.41.19.92,1.3,1.41,1.7-1.81,1.74-2.22.06-3.48,3.6-6.13.29-14.45-5.48-11.95-12.7l-2.7,3.67c-3.47-2.13-1.92-6.51-2.1-6.87-.96-1.92-7.33-8.01-8.56-11.2-.06-.17-.3-.27-.35-.43h0Z"/>
  <path class="st19" d="M22.32,121.86c5.73-5.32-10.85,1.21-12.87-2.98l4.24.79c8.45-3.81,15.59-9.63,23.18-14.89.35,1.27,2.22,5.11,3.8,5.46-.07.06.58.92-.36,1.73s-15.88,5.93-15.55,6.78c6.26-.25,13.35-4.47,19.29-2.7-.78.27-2,1.18-2.48,1.34-8.86,2.92-10.05,3.43-19.26,4.47h0Z"/>
  <path class="st0" d="M25.03,67.97c1.23,3.18,7.6,9.27,8.56,11.2.18.36-1.37,4.74,2.1,6.87l2.7-3.67c-2.5,7.22,5.82,12.99,11.95,12.7-.4,1.12.8,3.35-1.22,4.59-1.7.22-3.48.44-5.17.69l-15.5-18.72c-1.65-4.5-3.23-8.8-3.42-13.66Z"/>
  <path class="st19" d="M36.95,104.02c-.05-.15.58-2.29.29-3.11,1.97,1.23,4.77-.26,6.72-.54,1.69-.24,3.47-.46,5.17-.69,1.94-.26,3.98-.46,5.94-.62,3.1-.25,5.94-1.07,8.98.45-.4.45.38,1.42-1.99,2.36s-6.8-.55-9.27.5c-4.39-.63-8.41.45-12.67,1.16-1.02.17-2.14.29-3.18.48h.01Z"/>
  <path class="st21" d="M37.23,100.91c-2.25-6.32-6.29-12.49-8.78-19.27l15.5,18.72c-1.95.28-4.74,1.77-6.72.54h0Z"/>
  <path class="st12" d="M36.88,104.79c-.22-.78.08-.74.07-.78,1.04-.18,2.15-.31,3.18-.48l5.9,1.93c-2.51.89-3.71,3.25-5.36,4.79-1.58-.35-3.45-4.19-3.8-5.46h.01Z"/>
  <path class="st3" d="M53.8,91.48c2.02-1.94,1.81-2.32,4.68-3.88l-3.43,11.45c-1.96.16-3.99.36-5.94.62,2.02-1.23.82-3.46,1.22-4.59,1.26-3.54,1.67-1.86,3.48-3.6h0Z"/>
  <path class="st17" d="M40.67,110.24c1.65-1.54,2.85-3.89,5.36-4.79l-5.9-1.93c4.26-.71,8.28-1.79,12.67-1.16,2.97.43,4.66.4,7.03,2.43,1.11,2.41-7.55.86-8.04,1.99,9.06,6.73.47,3.26.06,3.54-.35.24.04,4.08,1.75,4.29-4.26-.62-5.99.22-9.55,1.45-5.95-1.77-13.04,2.46-19.29,2.7-.33-.86,14.6-5.97,15.55-6.78s.3-1.67.36-1.73h0Z"/>
  <path class="st9" d="M52.79,102.38c2.47-1.05,7,.4,9.27-.5s1.59-1.9,1.99-2.36c.12-.13.31-.22.43-.35,1.75.51,3.63.78,5.37,1.29,2.33.68,6.49,1.6,8.41,2.36,1.18.47,1.64.34,3.04,1.07,14.72,7.7,23.78,35.23,42.26,34.59-4.29,5.99-8.3,4.08-13.16.13,1.36,4.23,7.87,3.62,2.49,6.91l2.15,2.16-5.53,2.42c-2.02-1.28-5.33-6.22-7.3-7.95-10.57-9.3-34.69-25.51-48.62-27.53-1.71-.22-2.09-4.06-1.75-4.29.41-.28,9,3.19-.06-3.54.49-1.13,9.15.42,8.04-1.99-2.37-2.03-4.06-2.01-7.03-2.43h0Z"/>
  <path class="st16" d="M58.52,87.59c7.5-4.07,5.89.47,10.92,2.79,10.08,4.64,11.71-12.67,9.68-19.49-.36-1.22-2.23-.88-2.26-1-1.56-6.15-.59-14.84-4.5-21.02,6.35,3.83,6.95,7.43,8.87,14.18.23.83,1.12,2.51,1.26,3.26,1.67,9.07-.63,21.25-3.21,29.91-.65,2.18-2.08,4.13-1.01,6.58-1.92-.76-6.08-1.68-8.41-2.36l-2.5-4.75c-1.91-.11-1.48,1.92-2.88,3.46-.13.13-.31.21-.43.35-3.03-1.51-5.87-.7-8.98-.45l3.43-11.45h.02Z"/>
  <g>
    <path class="st3" d="M41.56,117.4c.48-.16,1.7-1.07,2.48-1.34,3.56-1.22,5.28-2.07,9.55-1.45,13.94,2.01,38.06,18.23,48.62,27.53,1.97,1.74,5.28,6.67,7.3,7.95,2.4,1.53,3.59-.43,6.12-.4-.42.94-.83,1.9-1.25,2.83-.06.13-1.43-.18-1.6,2.4-.39,5.93,4.44,10.75,9.12,13.61,4.19,3.63,10.99,7.38,16.38,9.39-.73.55-1.39,1.22-2.13,1.76-2.02,1.47-2.74,1.91-1.22,4.59-16.78-8.56-13.02-12.48-23.09-23.56-4.15-4.57-22.58-13.15-29.02-16.86-7.13-4.1-12.02-10.69-21.72-11.07l7.55,7.38c-7.53.04-11-7.25-15.14-10.06-1.82-1.23-13.35.68-17.04-2.39-7.01-5.83,6.66-1.51,7.33-2.84-.54-3.02-4.08-4.35-2.24-7.47h0Z"/>
    <path class="st3" d="M82.33,132.42c-9.76,2.3-17.35-2.78-22.53-10.75,2.83,2.13,23.09,8,22.53,10.75Z"/>
    <path class="st13" d="M96.38,141.59l-19.86-5.79c6.71.08,15.55-.24,19.86,5.79Z"/>
  </g>
  <g>
    <path class="st15" d="M29.42,62.88c1.85-1.2,1.51-3.09,1.64-4.95,2.59,1.79,6.1,2.47,9.12,3.21,13.24,3.26,19.19-4.59,28.55-13.6.16-.15,1.35.39,1.77-.03,1.06.13,1.32,1.05,1.83,1.35,3.91,6.18,2.94,14.87,4.5,21.02.03.12,1.9-.22,2.26,1,2.04,6.82.4,24.13-9.68,19.49-5.03-2.31-3.42-6.86-10.92-2.79-2.87,1.56-2.66,1.94-4.68,3.88-.49-.4-1-1.51-1.41-1.7,4.83-8.53-2.54-3.34-2.99-3.62-.88-.54-4.38-9.05-6.09-10.38,3.64-1.82,13.62,5.1,15.76,3.45,1.86-1.44-3.04-3.35-3.84-5.07-.29-.63.98-6.85.66-7l-3.66,5.54c-2.31-.03-.85-3.01-1.54-4.46-2.06-4.32-1.97,5.41-2.49,5.65-2.12.46-1.84-3.22-3.24-3.05-.23.03-1.02,3.42-3.02,2.86.45-1.84-2.66-6.27-5.11-6.17-3.08-3.81-1.67-1-2.38,2.33l-1.2.28c-1.54-2.22-2.47-4.95-3.83-7.23h0Z"/>
    <path class="st16" d="M52.41,89.78c-6.92-3.32-10.12-15.52-15.56-22.26,2.45-.11,5.56,4.33,5.11,6.17,2.01.55,2.79-2.83,3.02-2.86,1.4-.18,1.12,3.51,3.24,3.05.52-.24.43-9.97,2.49-5.65.69,1.45-.78,4.43,1.54,4.46l3.66-5.54c.32.15-.95,6.37-.66,7,.8,1.72,5.7,3.63,3.84,5.07-2.13,1.64-12.12-5.27-15.76-3.45,1.71,1.32,5.22,9.84,6.09,10.38.44.28,7.81-4.91,2.99,3.62h0Z"/>
    <path class="st16" d="M57.8,84.59l-2.04-3.33c1.96-.18,2.17,1.89,2.04,3.33Z"/>
  </g>
  <path class="st3" d="M64.46,99.15c1.41-1.54.97-3.57,2.88-3.46l2.5,4.75c-1.74-.51-3.62-.78-5.37-1.29h-.01Z"/>
  <path class="st11" d="M122.7,175.75c-3.71-4.14-4.68-8.24-10.86-15.04-4.15-4.57-22.58-13.15-29.02-16.86-7.13-4.1-12.02-10.69-21.72-11.07l7.55,7.38c-7.53.04-11-7.25-15.14-10.06-1.82-1.23-13.35.68-17.04-2.39-7.01-5.83,6.66-1.51,7.33-2.84-.54-3.02-4.08-4.35-2.24-7.47-8.86,2.92-10.05,3.43-19.26,4.47-2.01.22-4.07.95-6.16.79-.84,2.22,20.79,10.6,23.7,10.86-.69,1.22-10.37,2.93-9.07,4.64,13.7,2.72,27,7.76,40.5,11.66,10.71,3.1,30.9,5.05,39.22,12.72,1.13,1.04,11.94,12.32,11.79,13.19"/>
  <path class="st18" d="M157.29,142.81c5.35-.25,12.36.08,17.54,1.26,4.81,1.1,9.12,4.48,14.27,4.68l-9.01-4.38,4.67.44c2.44.62,4.7,3.38,6.46,4.34-.16.21-.49,1.02-.5,1.13l-33.88-2.8c-1.16-1.98.18-3.34.44-4.67h.01Z"/>
  <path class="st22" d="M161.13,158.28c3.73-2.09,15.16,5.48,18.3,7.8s6.12,5,9.1,7.53c-1.99-.59-3.72-1.69-5.3-2.07-5.2-6.52-15.37-5.43-22.9-6.86-.05-1.53-1.07-5.35.8-6.4Z"/>
  <path class="st20" d="M151.33,143.43c-.3-5.96,2.43-1.93,4.4-2.92,1.42-.72,1.58-2.85,3.34-4.2-1.6,2.3-1.34,4.18-1.79,6.5-.26,1.33-1.6,2.69-.44,4.67-1.52.82-3.2.78-4.81,1.12,1.28-1.51-.6-3.42-.69-5.17h-.01Z"/>
  <path class="st1" d="M174.82,144.07c.5-5.6-7.23-5.71-10.58-8.45,3.59,0,8.31,1.37,11.73,2.48l-.56-2.41c.27-.23,3.72,1.1,4.38,1.39,5.42,2.42,10.03,7.45,13.58,12.07-.16,1.31-1.57.32-2.16,0-1.76-.97-4.02-3.72-6.46-4.34l-4.67-.44,9.01,4.38c-5.15-.2-9.46-3.58-14.27-4.68h0Z"/>
  <path class="st3" d="M159.31,148.29l-20.07-5.62-19.18,11.49-.77,15.06s25.05,18.98,23.98,9.93c-1.07-9.05,15.62-9.7,15.62-9.7l2.55.04-.32-11.21s-6.97.65-8.01-4.84,5.66-5.8,5.66-5.8"/>
  <path class="st26" d="M159.5,135.96c1.54-.9,3.21-.34,4.74-.34,3.35,2.74,11.08,2.85,10.58,8.45-5.18-1.18-12.19-1.51-17.54-1.26.45-2.32.19-4.2,1.79-6.5.15-.11.28-.26.43-.35Z"/>
  <path class="st14" d="M142.01,138.23c.25-1-.53-2.32.51-3.29.98-.91,7.08-1.28,8.64-2.13.75.16,1.51.76,2.26,1-.65,7.29-6.55,2.53-11.4,4.42h0Z"/>
  <path class="st6" d="M109.52,150.07l5.53-2.42-2.15-2.16c5.38-3.3-1.13-2.68-2.49-6.91,4.86,3.95,8.87,5.87,13.16-.13.23,0,.94-.26,1.2-.28.19,5.13,12.03-.4,15.7-.09,0,1.91-.08,3.77-.34,5.66l.95.29,10.26-.6c.09,1.76,1.97,3.67.69,5.17-5.12,1.07-11.3,6.02-17.77,3.23,3.61,3.07,8.59,6.08,13.28,6.94-.95,1.39.03,3.17,0,4.32-.05,1.48-.92,3.12-.44,4.67-2.63-.45-4.76-1.22-7.28-1.86-.99-4.16-8.73-5.21-12.29-7.04-4.42-2.26.2-3.41-.94-4.6l-12.2-1.74c.42-.94.83-1.89,1.25-2.83-2.53-.03-3.72,1.92-6.12.4v-.02Z"/>
  <path class="st25" d="M141.22,184.07l1.28-1.06c2.34,1.71,5.7.43,8.73,1.02,3.72.73,7.15,2.7,10.6,4.14.82.34,1.54.97,1.81-.42.77.71,3.5,3.2,2.96,4.01-.56.17-1.89-.42-2.12-.4.39-2.25.36-.86-.88-1.06-8.24-1.35-16.76-.5-22.37-6.23h-.01Z"/>
  <path class="st9" d="M134.94,184.26c-1.52-2.68-.8-3.11,1.22-4.59,1.96,1.11,3.52,2.81,5.08,4.4,5.61,5.74,14.13,4.88,22.37,6.23,1.24.2,1.27-1.19.88,1.06-9.62.64-21.06-2.77-29.55-7.1h0Z"/>
  <path class="st4" d="M147.53,163.09c.04-1.15-.94-2.94,0-4.32,1.58.29,11.01-.53,11.57.11.21.22.03,5.24.02,6.08l-11.6-1.88h0Z"/>
  <path class="st12" d="M147.09,167.75c-.48-1.56.39-3.19.44-4.67l11.6,1.88c-.03,1.44,1.18,3.59-.23,4.49-4.04-.02-7.88-1.02-11.81-1.7h0Z"/>
  <path class="st26" d="M142.51,183.01c2.1-1.74,3.75-1.15,5.74-2.6,5.72,2.04,10.47,2.83,15.4,7.34-.28,1.39-.99.76-1.81.42-3.45-1.44-6.88-3.41-10.6-4.14-3.02-.59-6.38.69-8.73-1.02h0Z"/>
  <path class="st12" d="M136.16,179.66c.74-.54,1.4-1.21,2.13-1.76,2.76,1.03,6.72,1.35,9.97,2.51-1.99,1.45-3.64.86-5.74,2.6l-1.28,1.06c-1.56-1.59-3.12-3.29-5.08-4.4h0Z"/>
  <path class="st4" d="M142.03,138.24c4.85-1.89,10.75,2.87,11.4-4.42,2.02.64,4.29.83,6.08,2.14-.16.09-.29.24-.43.35-1.76,1.36-1.92,3.48-3.34,4.2-1.97.99-4.71-3.04-4.4,2.92l-10.26.6c.55-1.91.46-3.87.94-5.8h.01Z"/>
  <path class="st10" d="M140.45,138.08c-3.67-.31-15.5,5.22-15.7.09.16-.01.28-.34.43-.35,2.23-.21,14.65-2.98,15.36-2.67,1.37.3-.08,2.19-.08,2.94h0Z"/>
  <g>
    <path class="st17" d="M121.9,168.51c-4.68-2.85-9.52-7.68-9.12-13.61.17-2.58,1.54-2.27,1.6-2.4l12.2,1.74c1.14,1.19-3.48,2.34.94,4.6.12,4.62,4.21,4.93,6.06,6.46,13.4,11.06-6.05,6.66-11.68,3.22h0Z"/>
    <path class="st3" d="M123.81,158.69c-1.02.88-5.68,1.24-6.26-.2l6.26.2Z"/>
  </g>
  <path class="st9" d="M133.57,165.31c-1.85-1.53-5.93-1.84-6.06-6.46,3.57,1.82,11.3,2.88,12.29,7.04-1.77-.46-4.37-1.16-6.22-.59h-.01Z"/>
  <path class="st11" d="M141.85,133.71c4.63-.4,4.42-1.89,9.31-.89-1.56.85-7.66,1.22-8.64,2.13-1.05.97-.26,2.29-.51,3.29-.48,1.94-.39,3.89-.94,5.8l-.95-.29c.26-1.9.34-3.75.34-5.66,0-.76,1.45-2.64.08-2.94"/>
  <path class="st2" d="M160.06,169.56c-.15-.19.29-4.02.26-4.88,7.53,1.42,17.71.33,22.9,6.86-4.4-1.04-22.44-1.06-23.16-1.98Z"/>
</svg>