<?xml version="1.0" encoding="UTF-8"?>
<svg id="Layer_1" xmlns="http://www.w3.org/2000/svg" version="1.1" viewBox="0 0 223 273.79">
  <!-- Generator: Adobe Illustrator 29.4.0, SVG Export Plug-In . SVG Version: 2.1.0 Build 152)  -->
  <defs>
    <style>
      .st0 {
        fill: #481224;
      }

      .st1 {
        fill: #320a10;
      }

      .st2 {
        fill: #ef8a4c;
      }

      .st3 {
        fill: #daa08a;
      }

      .st4 {
        fill: #653c47;
      }

      .st5 {
        fill: #ca6453;
      }

      .st6 {
        fill: #f8ceb2;
      }

      .st7 {
        fill: #4f201f;
      }

      .st8 {
        fill: #04040e;
      }

      .st9 {
        fill: #5b314c;
      }

      .st10 {
        fill: #303950;
      }

      .st11 {
        fill: #200309;
      }

      .st12 {
        fill: #cd8f81;
      }

      .st13 {
        fill: #864d4b;
      }

      .st14 {
        fill: #5c2333;
      }

      .st15 {
        fill: #2f1b20;
      }

      .st16 {
        fill: #f4b68d;
      }

      .st17 {
        fill: #7c565e;
      }
    </style>
  </defs>
  <g id="Generative_Object">
    <path class="st8" d="M176.52,43.59l-22.38,17.13c-.04-.32.18-1.12,0-2.21l21.55-16.3"/>
    <path class="st13" d="M149.18,172.89c.68-.2,1.93-.22,2.76-.55-.04.17.04.38,0,.55-.88,3.63-4.83,9.98-6.08,14.09-.76,2.5-2.47,7.26-2.21,9.67-6.56,8.87-7.62,21.95-13.26,31.49-4.04,6.82-12.99,14.06-19.34,18.78.73-10.71,1.32-21.34,2.21-32.04.4-4.91,1.01-10,1.1-14.92l11.33,13.26c1.45.19,1.3-1.59,1.38-1.66,9.03-7.47,17.43-17.99,15.47-30.39.14-.17-.17-1.18,0-1.38,2.04-2.42,4.8-4.3,6.63-6.91h.01Z"/>
    <path class="st17" d="M165.56,19.21c3.29,7.65,5.82,15.82,10.14,23l-21.55,16.3c-.94-5.57-3.17-11.06-4.42-16.57-.67-2.96-2.46-7.55-2.21-10.5,5.42-1.83,10.28-5.67,13.81-10.22"/>
    <path class="st6" d="M153.31,63.48c-10.66-6-25.7-19.88-30.11-31.49-.59-1.55-.96-7.44-1.66-9.94,7.41.13,19.2,7.66,23.76,13.54,1.19,1.54,1.86,5.8,4.42,6.35,1.25,5.5,3.48,10.99,4.42,16.57.18,1.09-.04,1.89,0,2.21"/>
    <path class="st6" d="M154.15,60.71c1.61,12.78.15,21.75-.55,34.25-16.05-9.9-31.9-22.29-50.83-25.41-.52-1.12-1.62-2.6-1.66-2.76-.01-.05-.28.09-.55-1.1-.37-1.62-.52-7.85-.55-9.94-.07-4.71.49-15.75,2.21-19.89.2-.49.96-2.03,1.38-2.21.24.32.44.44.83.55.05,0,1,.49,1.1.55,3.61,2.22,8.48,8.07,12.98,11.05,10.68,7.07,23.31,12.09,34.81,17.68"/>
    <path class="st5" d="M105.51,110.43c-1.81-2.73-3.11-3.91-4.97-7.18,8.07,4.54,15.34,6,22.65,12.15,9.6,8.08,16.33,20.45,23.76,30.39-2.33,10.8-4.9,21.58-6.08,32.6-.18-.03-.38.04-.55,0-.46-.1-7.08-2.17-8.56-2.76-8.27-3.31-13.64-9.13-19.06-16.02.1-20.6,5-30.8-7.18-49.17h-.01Z"/>
    <path class="st16" d="M102.76,69.55c18.93,3.12,34.78,15.51,50.83,25.41-.86,15.24-1.05,30.94-4.42,45.86l-34.25-42.54c1.17.4,3.48,1.62,4.42.28-6.89-5.33-12.15-13.32-15.47-21.27-.19-1,.33-1.26,1.1-1.66l47.51,22.38c-7.16-5.5-39.47-23.64-46.96-22.93-1.43-1.61-1.89-3.64-2.76-5.52h0Z"/>
    <path class="st3" d="M103.88,93.87c4.5,1.16,7.14,3.1,11.05,4.42l34.25,42.54c-.49,2.14-1.6,4.16-1.66,4.42-6.65-12.94-15.9-24.78-26.52-34.81-5.77-5.44-13.76-9.09-17.68-16.57.17.04.38-.04.55,0h0Z"/>
    <path class="st7" d="M120.99,110.45c10.63,10.03,19.87,21.87,26.52,34.81-.16.76-.55.51-.55.55-7.43-9.94-14.16-22.31-23.76-30.39,1.68-2.12-2.17-2.71-2.21-4.97Z"/>
    <g>
      <path class="st17" d="M154.14,60.73l22.38-17.13c7.01,14.47,5.94,28.8,1.93,43.92-5.42,20.43-17.66,32.14-22.1,53.87-2.04,9.98-2.3,21.83-4.42,30.94-.82.33-2.08.35-2.76.55-3.7,1.09-4.62,6.17-8.29,5.52,1.18-11.03,3.75-21.8,6.08-32.6.01-.04.38.21.55-.55.06-.26,1.18-2.28,1.66-4.42,3.37-14.92,3.56-30.62,4.42-45.86.7-12.49,2.16-21.47.55-34.25h0Z"/>
      <path class="st15" d="M155.8,95.25c6.91-7.22,14.75-13.38,22.93-19.06-6.23,7.23-15.15,13.18-22.93,19.06Z"/>
    </g>
    <path class="st4" d="M140.88,178.39c3.67.65,4.59-4.42,8.29-5.52-1.83,2.62-4.59,4.5-6.63,6.91-.17.19.14,1.21,0,1.38-1.37,1.66-3.08,3.05-4.14,4.97-1.76-.66,1.29-2.7,1.38-3.04.31-1.1-.61-1.55-.55-1.93.13-.8,1.28-1.76,1.1-2.76.17.04.37-.03.55,0h0Z"/>
    <path class="st2" d="M108.84,168.47c1-.42,1.38-3.87,2.49-3.87,2.45,0,17.37,19.69,22.1,20.44.51.08,1.82-1.59,1.93-1.66,1.27-.79,2.45-1.68,3.87-2.21-.07.38.85.83.55,1.93-.09.34-3.14,2.38-1.38,3.04,1.06-1.91,2.76-3.31,4.14-4.97,1.96,12.4-6.44,22.92-15.47,30.39-3.64-3.42-10.29-10.39-12.15-14.92-3.11-7.57-2.37-20.03-6.08-28.18h0Z"/>
    <path class="st7" d="M114.37,199.94c.02-1.37-1.25-2.77.55-3.31,1.85,4.53,8.51,11.5,12.15,14.92-.08.07.07,1.85-1.38,1.66l-11.33-13.26h0Z"/>
    <path class="st13" d="M96.13,93.04c.74-2.06,5.89.53,7.18.83,3.92,7.48,11.92,11.13,17.68,16.57.04,2.26,3.89,2.85,2.21,4.97-7.3-6.14-14.57-7.6-22.65-12.15-1.89-3.32-3.79-6.33-4.42-10.22Z"/>
    <path class="st2" d="M135.36,183.38c-1.31-.08-1.77.6-3.04,0s-19.03-18.89-19.61-20.17c-1.01-2.22,0-2.63,0-3.59,5.42,6.89,10.79,12.71,19.06,16.02,1.48.59,8.09,2.66,8.56,2.76.18,1-.97,1.96-1.1,2.76-1.42.53-2.61,1.42-3.87,2.21h0Z"/>
    <path class="st1" d="M152.48,98.01l-47.51-22.38s-.18-.48.55-.55c7.49-.71,39.8,17.43,46.96,22.93Z"/>
    <g>
      <path class="st0" d="M130.39,228.13c-1.03,9.21-11.54,17.64-19.89,20.99.08-1.17.55-2.1.55-2.21,6.36-4.72,15.31-11.96,19.34-18.78Z"/>
      <path class="st8" d="M71.01,174.52c-.35-.69-11.69-6.47-13.54-7.73l6.08-9.67-3.87-.55c1.23-4.48,2.56-9,5.52-12.71l-4.42.55c2.17-2.08,4.43-5.92,7.46-6.91,2.88-.94.69-8.01.47-9.39-.6-3.72-2.55-13.24-5.72-16.3-3.34-3.22-14.36-6.35-14.36-6.35,7.51-5.02,17.05-12.94,21.55-20.99,6.5,1.45,6.04,15.07,8.29,17.4.38.4,3.76-2.68,4.97,2.21l-1.1.28h-6.91s-.28,1.38-.28,1.38c4.03,6.53,9.95,11.27,11.05,19.34l4.97-1.93c.6,2.59,3.8,10.26,6.35,11.05,2.76.86,6.52-1.76,8.01,3.04-.74,1.8-1.94-1.74-2.49-1.93-4.1-1.42-5.65,4.65-6.63,4.42-.65-1.54-6.26-10.98-6.91-11.33-3.75-2.03,1.14,10.33.55,11.05-.32.4-7.5-.21-7.73,2.76-.06.79,2.06,1.35,1.66,3.87-.28,1.72-4.48,4.82-4.42,7.18l3.04-3.04c1.86,4.12-1.14,5.9-2.49,9.12,4.71-.51,8.98-.81,13.26,1.38.94.48,1.7,1.36,2.76,1.66-10.36-1.98-17.01,5.03-23.2,11.88"/>
      <path class="st11" d="M65.75,60.74c1.18-.26,4.76-2.55,5.8-2.21.28.09,14.76,3.69,16.03,4.42,3.34,1.92,9.24,4.01,12.98,2.76.27,1.19.53,1.04.55,1.1-.29,3.84,1.38,7.2,2.76,10.5,3.32,7.95,8.58,15.94,15.47,21.27-.94,1.34-3.25.11-4.42-.28-3.91-1.32-6.55-3.26-11.05-4.42v-2.21c.75.09.7,1.05,1.66-.28-6.34-10.54-29.55-15.48-38.13-23.76l24.6,8.01,6.35,1.38c-7.46-5.1-27.97-7.97-32.61-16.3v.02Z"/>
      <path class="st14" d="M95.03,33.66c2.55.47,4.36,3.28,7.18,2.21-1.72,4.14-2.28,15.18-2.21,19.89-2.14,2.88-27.84,5.53-28.46,2.76-.26-1.19,23.32-14.54,21.56-17.13-.41-.34-6.5,4.31-7.46,4.97,1.22-5.52,8.22-7.53,9.39-12.71h0Z"/>
      <path class="st12" d="M103.86,77.3c-1.37-3.3-3.05-6.66-2.76-10.5.05.15,1.14,1.64,1.66,2.76.87,1.88,1.33,3.9,2.76,5.52-.73.07-.52.53-.55.55-.76.4-1.29.66-1.1,1.66h-.01Z"/>
      <path class="st0" d="M83.15,55.8c.62,2.77,14.71,2.84,16.85-.05.03,2.09.18,8.31.55,9.94-3.73,1.25-9.63-.84-12.98-2.76-1.27-.73-15.75-4.33-16.03-4.42"/>
      <path class="st8" d="M60.75,62.37c.26-.03,3.57-1.35,4.97-1.66,4.65,8.33,25.15,11.21,32.61,16.3l-6.35-1.38-24.6-8.01c8.57,8.29,31.79,13.23,38.13,23.76-.97,1.33-.91.37-1.66.28-10.27-1.29-16.5-18.72-19.61,3.87-1.17.15-8.68-11.97-10.22-13.54-1.2-1.22-.98-1.4-2.76-.83,2.83-6.42-7.5-9.58-9.95-16.57-.19-.56.19-1.43-.55-2.21h-.01Z"/>
      <path class="st1" d="M71.27,81.16c1.78-.57,1.56-.39,2.76.83,1.53,1.57,9.05,13.69,10.22,13.54,3.1-22.59,9.33-5.17,19.61-3.87v2.21c-.17-.04-.37.04-.55,0-1.29-.3-6.44-2.89-7.18-.83.63,3.89,2.53,6.9,4.42,10.22,1.85,3.27,3.16,4.45,4.97,7.18-2.45,1.37-12.05-2.45-12.15-.28-.02.59,8.96,8.46,6.91,9.12-3.66-2.87-5.98-9.52-10.77-9.39-.93-4.38-1.56-10.47-6.08-12.43-.74,2.37,2.04,4.66,2.21,6.63.04.47-1.68.97-1.66,1.1.1.57,1.63,2.07,1.66,2.21.55,2.75.76,5.58,1.66,8.29l-4.97-11.33,1.1-.28c-1.21-4.89-4.58-1.81-4.97-2.21-2.25-2.33-1.79-15.94-8.29-17.4.37-.66.75-2.52,1.1-3.31h0Z"/>
      <path class="st11" d="M82.31,104.37l4.97,11.33c-.9-2.71-1.12-5.54-1.66-8.29-.03-.14-1.56-1.64-1.66-2.21-.02-.12,1.7-.62,1.66-1.1-.17-1.97-2.95-4.26-2.21-6.63,4.52,1.96,5.16,8.07,6.08,12.43s.75,9.34,1.66,13.26l-4.97,1.93c-1.1-8.08-7.02-12.81-11.05-19.34l.28-1.38h6.91s0,0,0,0Z"/>
      <g>
        <path class="st1" d="M89.5,109.88c4.78-.13,7.11,6.52,10.77,9.39,2.05-.66-6.94-8.54-6.91-9.12.1-2.17,9.7,1.65,12.15.28,12.18,18.37,7.28,28.57,7.18,49.17,0,.96-1.01,1.37,0,3.59.58,1.28,18.28,19.55,19.61,20.17s1.73-.08,3.04,0c-.1.07-1.42,1.74-1.93,1.66-4.73-.74-19.65-20.45-22.1-20.44-1.11,0-1.49,3.45-2.49,3.87-1.11.3-1.04-.52-1.1-.55-2.25-4.11-9.64-7.36-14.36-7.18-4.28-2.19-8.55-1.89-13.26-1.38,1.36-3.22,4.35-5.01,2.49-9.12l-3.04,3.04c-.05-2.36,4.14-5.46,4.42-7.18.4-2.53-1.72-3.08-1.66-3.87.23-2.97,7.4-2.35,7.73-2.76.59-.72-4.3-13.08-.55-11.05.65.36,6.26,9.79,6.91,11.33.98.23,2.53-5.84,6.63-4.42.56.19,1.75,3.73,2.49,1.93-1.49-4.8-5.25-2.18-8.01-3.04-2.54-.79-5.75-8.46-6.35-11.05-.91-3.92-.74-8.9-1.66-13.26h0Z"/>
        <path class="st9" d="M93.37,160.72c4.72-.18,12.11,3.06,14.36,7.18-2.15-1.02-10.23-5.26-11.6-5.52-1.06-.3-1.82-1.18-2.76-1.66h0Z"/>
        <path class="st11" d="M90.33,131.45l3.87,12.15c-.44.14-2.26-4.12-2.49-4.7-.46-1.18-1.97-6.14-1.38-7.46h0Z"/>
      </g>
    </g>
    <path class="st10" d="M105.53,34.74c3.36-1.4-4.4-9.54-2.49-10.5l11.05,12.71-4.7-8.01c2.23-.23,3.2,3.98,4.7,4.7.13.07.92-1.38,1.66-1.1,1.24.46,2.85,6.14,4.42,7.18l-2.49-6.35c2.11-1.14,2.54,2.2,4.14,3.04l-.83-4.7,1.66.28h.55c4.41,11.61,19.45,25.49,30.11,31.49-11.51-5.59-24.13-10.61-34.81-17.68-4.5-2.98-9.37-8.83-12.98-11.05h0Z"/>
    <path class="st13" d="M110.48,249.12c9.3-13.24,5.22-74.59,5.22-74.59,0,0-3.01-11.32-19.58-12.15s-23.2,11.88-23.2,11.88l-15.47-7.46-11.4,15.11s-6.24,28.05-4.03,35.52c2.22,7.46,32.94,33.7,41.62,35.53s26.86-3.84,26.86-3.84h-.02Z"/>
  </g>
</svg>