<?xml version="1.0" encoding="UTF-8"?>
<svg id="ARM_R" xmlns="http://www.w3.org/2000/svg" version="1.1" viewBox="0 0 500 500">
  <!-- Generator: Adobe Illustrator 29.4.0, SVG Export Plug-In . SVG Version: 2.1.0 Build 152)  -->
  <defs>
    <style>
      .st0 {
        fill: #481224;
      }

      .st1 {
        fill: #c0afbb;
      }

      .st2 {
        fill: #866175;
      }

      .st3 {
        fill: #320a10;
      }

      .st4 {
        fill: #ef8a4c;
      }

      .st5 {
        fill: #e2b1cc;
      }

      .st6 {
        fill: #b25545;
      }

      .st7 {
        fill: #824158;
      }

      .st8 {
        fill: #b16684;
      }

      .st9 {
        fill: #853a35;
      }

      .st10 {
        fill: #c84e36;
      }

      .st11 {
        fill: #04040e;
      }

      .st12 {
        fill: #d47550;
      }

      .st13 {
        fill: #200309;
      }

      .st14 {
        fill: #ecae65;
      }

      .st15 {
        fill: #7d3344;
      }

      .st16 {
        fill: #5c2333;
      }

      .st17 {
        fill: #a2433e;
      }

      .st18 {
        fill: #705b6d;
      }

      .st19 {
        fill: #f4be61;
      }

      .st20 {
        fill: #70180f;
      }

      .st21 {
        fill: #15050a;
      }

      .st22 {
        fill: #e3e3e5;
      }

      .st23 {
        fill: #9a3043;
      }

      .st24 {
        fill: #c785a4;
      }

      .st25 {
        fill: #a58493;
      }

      .st26 {
        fill: #fdfdfd;
      }
    </style>
  </defs>
  <path class="st15" d="M153.4,96.95c.58-1.01,2.23-2.26,2.68-2.92,1.02,1.47-.93,6.51-.78,6.82.68,1.35,1.22-.42,2.85,1.27.53.55.88,1.3,1.38,1.88-6.09,2.03,8.22,14.36,10.13,15.17,8.92,3.76,7.52-6.67,11.07-10.49,1.85-2,5.88-2.81,6.72-3.96.49-.66-2.2-15.63-2.75-16.24l.63-.45,7.12-4.72-5.26-7.2c4.45-.15,5.39-.27,9.92.43,1.95.3,3.99,1.56,5.26,1.92,4.16,3.33,9.91,14.21,15.42,7.95,1.43,1.7,3.74,2.86,4.75,5.18,2.95,6.84,1.02,3.1,4.21,10.37-5.78,16.42-14.47,36.83-32.02,43.61-12.39-2.88-20.4-13.75-27.72-23.46l.87,5.13c-.38,2.19-13.1-11.91-13.95-13.82l-1.17,7.6c1.19-3.46-3.11-9.13-3.22-9.66-.04-.24-.4-.4-.45-.63-.15-.71,3.76-12.7,4.36-13.76h-.04Z"/>
  <path class="st16" d="M148.38,118.92c.2-2.56.14-5.18,1.17-7.6.11.53,4.39,6.21,3.22,9.66l1.17-7.6c.86,1.91,13.57,16.01,13.95,13.82l-.87-5.13c7.32,9.72,15.33,20.57,27.72,23.46-11.56,4.47-14.15.18-23.03-7.18-1.01.45,2.32,6.51,3.01,7.41-1.13,1.25-4.3-.99-5.02-1.61-3.84-3.31-19.15-17.17-20.7-20.42-.51-1.09.84-4.59-.64-4.82,0,0,.01,0,.01,0Z"/>
  <path class="st3" d="M165.16,153.71c-10.44-8.2-17.79-21.58-16.8-34.8,1.48.23.13,3.74.64,4.82,1.55,3.24,16.86,17.09,20.7,20.42.72.62,3.89,2.86,5.02,1.61,2.44,3.17,5.09,2.22,7.15,5.83.15.26-1.38,1.87-.96,2.63.28.51,9.86,1.2,11.13,3.4l-14.37,1.37c-4.17-1.29-9.03-2.53-12.51-5.27h0Z"/>
  <path class="st5" d="M156.11,94.03c8.61-12.84,9.75-13.59,24.25-16.77-1.71,2.44-4.46,6.31-6.3,8.45-2.57,2.98-6.68,5.08-7.56,9.38l-8.31,7.04c-1.63-1.69-2.17.08-2.85-1.27-.16-.31,1.78-5.35.78-6.82h0Z"/>
  <path class="st8" d="M183.79,76.68l1.57,11.35-.63.45c-2.49-2.79-5.68,1.18-5.98,1.02-.54-.3-.5-4.98-4.68-3.78,1.83-2.14,4.59-6,6.3-8.45,1.38-.31,2.04-.41,3.42-.58Z"/>
  <path class="st7" d="M183.78,76.69c1.03-.13,1.72-.52,3.42-.58l5.26,7.2-7.12,4.72-1.57-11.35h0Z"/>
  <path class="st0" d="M230.32,129.16c-1.46.47-3.63,6.04-4.74,7.31-1.33,1.52-3.99,5.75-4.26,6-.62.55-2.26-.3-2.48-.11-13.88,11.85-22.88,22.34-41.16,16.65l14.37-1.37c-1.27-2.2-10.85-2.89-11.13-3.4-.42-.76,1.11-2.37.96-2.63-2.06-3.63-4.71-2.66-7.15-5.83-.69-.9-4.02-6.98-3.01-7.41,8.88,7.36,11.47,11.65,23.03,7.18,17.54-6.79,26.24-27.2,32.02-43.61.54-1.54-.74-.04,0,0,4.15,1.47,4.79,17.01,6.07,18.14"/>
  <path class="st23" d="M202.38,78.46c9.35,2.64,8.49-.32,15.42,7.95-5.51,6.27-11.26-4.63-15.42-7.95Z"/>
  <path class="st7" d="M166.51,95.1c.88-4.29,4.98-6.4,7.56-9.38,4.17-1.2,4.14,3.48,4.68,3.78.3.16,3.48-3.81,5.98-1.02.55.61,3.24,15.58,2.75,16.24-.84,1.14-4.87,1.97-6.72,3.96-3.55,3.81-2.15,14.23-11.07,10.49-1.91-.8-16.2-13.13-10.13-15.17l7.51,6.99c-2.19-4.75,4.69-7.54,4.69-8.71.01-.18-2.99-1.45-3.08-1.59-2.81-4.28,1.46-2.94-2.18-5.62h.01Z"/>
  <path class="st24" d="M158.18,102.13l8.31-7.04c3.62,2.68-.63,1.35,2.18,5.62.09.15,3.09,1.42,3.08,1.59,0,1.17-6.88,3.96-4.69,8.71l-7.51-6.99c-.5-.58-.85-1.35-1.38-1.88h0Z"/>
  <path class="st16" d="M155.41,166.64c-.59-2.41,1.91-10.42,2.33-13.24,1.94.45,3.77,5.3,4.72,7.12,1.71,3.31,2.79,7.21,4.76,10.46l1.71-.29c1.29-4.61-.46-8.66,3.53-3.06,7.06,9.89,10.51,27.26,19.93,32.51.56.3,1.18,1.9,1.83,2.5-2.68,2.29-3.12-.1-5.18,4.75-8.62-.11-19.79-8.9-15.68-18.81l-4.09,4.92c-4.68-3.28-2.14-9.29-2.36-9.81-1.18-2.77-9.6-11.84-11.05-16.42-.07-.24-.4-.4-.45-.63h.01Z"/>
  <path class="st19" d="M147.51,242.57c8.48-6.97-15.31.78-17.79-5.26l5.88,1.46c12.16-4.63,22.66-12.18,33.74-18.91.38,1.81,2.68,7.35,4.87,7.97-.1.08.74,1.34-.65,2.39s-22.76,6.97-22.37,8.19c8.79.18,19.09-5.14,27.26-2.16-1.12.31-2.9,1.49-3.59,1.67-12.66,3.35-14.37,3.96-27.37,4.64h.01Z"/>
  <path class="st0" d="M155.85,167.27c1.46,4.56,9.87,13.63,11.05,16.42.22.52-2.32,6.53,2.36,9.81l4.09-4.92c-4.11,9.91,7.06,18.7,15.68,18.81-.66,1.54.84,4.76-2.1,6.33-2.4.16-4.91.32-7.3.53l-20.15-27.54c-1.93-6.45-3.78-12.61-3.64-19.43Z"/>
  <path class="st19" d="M169.52,218.8c-.06-.21,1.01-3.16.67-4.33,2.66,1.89,6.71.04,9.46-.19,2.39-.19,4.9-.35,7.3-.53,2.74-.2,5.62-.31,8.38-.37,4.37-.09,8.42-1,12.55,1.39-.6.6.41,2.02-2.99,3.14s-9.48-1.34-13.03-.08c-6.1-1.25-11.82-.08-17.86.56-1.44.15-3.02.23-4.5.4h.01s0,.01,0,.01Z"/>
  <path class="st21" d="M170.17,214.46c-2.62-9.05-7.76-18.04-10.68-27.75l20.15,27.54c-2.76.23-6.79,2.08-9.46.19h0Z"/>
  <path class="st12" d="M169.35,219.87c-.24-1.11.17-1.03.16-1.09,1.47-.16,3.04-.25,4.5-.4l8.11,3.2c-3.59,1.04-5.47,4.24-7.92,6.26-2.18-.62-4.48-6.16-4.87-7.97h.01Z"/>
  <path class="st3" d="M194.19,202.65c2.99-2.55,2.73-3.1,6.89-5.04l-5.77,15.76c-2.76.06-5.62.17-8.38.37,2.93-1.55,1.44-4.78,2.1-6.33,2.06-4.86,2.5-2.47,5.18-4.75h-.01Z"/>
  <path class="st17" d="M174.21,227.83c2.44-2.02,4.32-5.21,7.92-6.26l-8.11-3.2c6.03-.64,11.76-1.81,17.86-.56,4.13.85,6.5.95,9.65,4,1.35,3.47-10.65.57-11.44,2.11,12.13,10.2.38,4.61-.21,4.97-.51.31-.29,5.72,2.09,6.16-5.92-1.23-8.41-.2-13.51,1.23-8.19-2.98-18.48,2.35-27.26,2.16-.39-1.23,20.97-7.14,22.37-8.19s.56-2.32.65-2.39h0Z"/>
  <path class="st9" d="M191.86,217.84c3.55-1.26,9.78,1.15,13.03.08,3.26-1.07,2.39-2.53,2.99-3.14.18-.17.45-.28.63-.45,2.41.86,5.02,1.4,7.42,2.26,3.21,1.15,8.96,2.79,11.59,4.02,1.61.76,2.27.61,4.17,1.76,19.98,12.03,30.36,51.38,56.31,52.04-6.52,8.03-11.98,5.02-18.46-.93,1.55,6.04,10.72,5.74,2.91,9.89l2.83,3.21-7.95,2.93c-2.72-1.96-6.95-9.17-9.56-11.76-14.03-13.93-46.47-38.68-65.82-42.68-2.38-.45-2.59-5.87-2.09-6.16.6-.36,12.34,5.23.21-4.97.78-1.54,12.79,1.36,11.44-2.11-3.15-3.05-5.52-3.16-9.65-4h0Z"/>
  <path class="st16" d="M201.13,197.59c10.85-5.07,8.22,1.16,15.07,4.83,13.74,7.35,17.48-16.77,15.21-26.5-.4-1.74-3.05-1.42-3.08-1.59-1.67-8.75.42-20.85-4.53-29.84,8.58,5.9,9.11,11,11.24,20.62.25,1.18,1.36,3.61,1.49,4.68,1.58,12.85-2.68,29.73-7.02,41.65-1.09,3-3.26,5.61-1.97,9.14-2.63-1.23-8.38-2.87-11.59-4.02l-3.1-6.87c-2.67-.32-2.24,2.57-4.33,4.61-.19.17-.45.27-.63.45-4.12-2.37-8.17-1.48-12.55-1.39l5.77-15.76h.03s0-.01,0-.01Z"/>
  <g>
    <path class="st3" d="M174.85,237.94c.69-.18,2.47-1.36,3.59-1.67,5.09-1.41,7.57-2.46,13.51-1.23,19.37,3.99,51.81,28.76,65.82,42.68,2.61,2.6,6.84,9.79,9.56,11.76,3.23,2.35,5.07-.3,8.61-.04-.67,1.28-1.32,2.59-1.99,3.86-.1.18-1.99-.37-2.44,3.23-1.05,8.28,5.32,15.44,11.63,19.84,5.57,5.44,14.78,11.27,22.17,14.54-1.07.71-2.05,1.59-3.13,2.29-2.96,1.89-4,2.45-2.1,6.33-22.8-13.41-17.2-18.59-30.37-34.97-5.43-6.76-30.54-20.33-39.25-26.08-9.65-6.35-15.94-16-29.51-17.35l9.96,10.98c-10.56-.58-14.81-11.09-20.37-15.38-2.45-1.88-18.77-.17-23.68-4.79-9.33-8.76,9.46-1.55,10.51-3.36-.5-4.28-5.35-6.44-2.51-10.66h0Z"/>
    <path class="st3" d="M230.72,262.43c-13.87,2.4-24.08-5.36-30.67-16.97,3.79,3.22,31.69,13.16,30.67,16.97Z"/>
    <path class="st13" d="M249.64,276.47l-27.35-9.79c9.4.68,21.81.98,27.35,9.79Z"/>
  </g>
  <g>
    <path class="st15" d="M162.43,160.5c2.69-1.53,2.38-4.2,2.72-6.8,3.48,2.73,8.34,3.98,12.51,5.27,18.28,5.69,27.28-4.81,41.16-16.65.24-.2,1.86.66,2.48.11,1.47.27,1.76,1.58,2.45,2.05,4.96,8.99,2.87,21.09,4.53,29.84.03.17,2.68-.15,3.08,1.59,2.28,9.73-1.47,33.85-15.21,26.5-6.85-3.66-4.21-9.9-15.07-4.83-4.15,1.94-3.89,2.49-6.89,5.04-.65-.6-1.27-2.2-1.83-2.5,7.49-11.55-3.28-4.9-3.89-5.33-1.19-.83-5.38-13.05-7.66-15.06,5.26-2.24,18.66,8.3,21.8,6.16,2.73-1.86-3.98-4.95-4.95-7.43-.35-.91,1.95-9.52,1.52-9.76l-5.6,7.46c-3.24-.24-.94-4.29-1.78-6.38-2.52-6.23-3.22,7.42-3.97,7.71-3.01.47-2.31-4.67-4.28-4.55-.32.02-1.72,4.71-4.47,3.75.79-2.54-3.2-9.01-6.64-9.08-4-5.6-2.26-1.54-3.53,3.06l-1.71.29c-1.97-3.24-3.04-7.15-4.76-10.46h-.01Z"/>
    <path class="st16" d="M192.39,200.15c-9.42-5.24-12.87-22.61-19.93-32.51,3.44.05,7.43,6.54,6.64,9.08,2.77.94,4.15-3.73,4.47-3.75,1.98-.13,1.27,5.01,4.28,4.55.75-.29,1.44-13.94,3.97-7.71.84,2.09-1.47,6.14,1.78,6.38l5.6-7.46c.44.24-1.87,8.85-1.52,9.76.98,2.48,7.68,5.57,4.95,7.43-3.12,2.12-16.54-8.41-21.8-6.16,2.29,1.99,6.49,14.23,7.66,15.06.59.43,11.36-6.22,3.89,5.33h0Z"/>
    <path class="st16" d="M200.38,193.33l-2.58-4.84c2.76-.09,2.88,2.83,2.58,4.84Z"/>
  </g>
  <path class="st3" d="M208.48,214.29c2.11-2.04,1.66-4.92,4.33-4.61l3.1,6.87c-2.4-.86-5.01-1.4-7.42-2.26,0,0-.01,0-.01,0Z"/>
  <path class="st11" d="M283.65,326.56c-4.85-6.12-5.86-11.94-13.95-22-5.43-6.76-30.54-20.33-39.25-26.08-9.65-6.35-15.94-16-29.51-17.35l9.96,10.98c-10.56-.58-14.81-11.09-20.37-15.38-2.45-1.88-18.77-.17-23.68-4.79-9.33-8.76,9.46-1.55,10.51-3.36-.5-4.28-5.35-6.44-2.51-10.66-12.66,3.35-14.37,3.96-27.37,4.64-2.84.14-5.78.99-8.7.59-1.36,3.04,28.24,16.61,32.3,17.22-1.07,1.65-14.78,3.23-13.1,5.74,18.97,4.97,37.19,13.15,55.78,19.76,14.75,5.25,42.88,9.68,53.9,21.14,1.5,1.55,15.7,18.27,15.41,19.48"/>
  <path class="st18" d="M334.91,283.31c7.52.1,17.32,1.15,24.48,3.25,6.65,1.95,12.4,7.05,19.61,7.76l-12.26-6.9,6.51,1.01c3.37,1.07,6.3,5.13,8.69,6.63-.24.28-.77,1.39-.8,1.54l-47.25-6.78c-1.46-2.87.53-4.67,1.01-6.51h.01s0,0,0,0Z"/>
  <path class="st22" d="M338.98,305.32c5.4-2.61,20.79,8.96,24.99,12.48,4.21,3.52,8.16,7.52,12.12,11.32-2.74-.99-5.07-2.68-7.25-3.35-6.74-9.58-21.08-8.91-31.52-11.55.06-2.15-1.05-7.59,1.66-8.9h0Z"/>
  <path class="st20" d="M326.5,283.68c.08-8.38,3.57-2.5,6.41-3.72,2.05-.89,2.45-3.86,5.04-5.6-2.44,3.09-2.23,5.75-3.06,8.96-.48,1.84-2.47,3.64-1.01,6.51-2.2,1.02-4.55.82-6.84,1.16,1.92-2.01-.55-4.84-.53-7.3h-.01Z"/>
  <path class="st1" d="M359.37,286.56c1.17-7.81-9.65-8.61-14.12-12.74,5.03.3,11.53,2.62,16.23,4.47l-.58-3.42c.4-.3,5.12,1.86,6.02,2.32,7.39,3.85,13.43,11.29,18.01,18.06-.33,1.82-2.23.32-3.03-.18-2.38-1.51-5.32-5.55-8.69-6.63l-6.51-1.01,12.26,6.9c-7.2-.71-12.96-5.82-19.61-7.76h0Z"/>
  <path class="st3" d="M337.28,291.17l-27.65-9.57-27.85,14.49-2.35,21.04s33.51,28.71,32.77,15.94,22.71-12.28,22.71-12.28l3.57.27.5-15.74s-9.82.32-10.82-7.46c-.99-7.78,8.42-7.65,8.42-7.65"/>
  <path class="st26" d="M338.58,273.9c2.23-1.13,4.53-.21,6.67-.08,4.46,4.12,15.29,4.93,14.12,12.74-7.16-2.09-16.96-3.14-24.48-3.25.83-3.21.62-5.87,3.06-8.96.22-.14.41-.34.63-.45h0Z"/>
  <path class="st14" d="M313.88,275.61c.43-1.38-.55-3.3.99-4.57,1.45-1.19,10.03-1.2,12.29-2.26,1.04.29,2.05,1.19,3.08,1.59-1.53,10.16-9.39,2.99-16.35,5.23h-.01Z"/>
  <path class="st6" d="M267.34,289.46l7.95-2.93-2.83-3.21c7.82-4.17-1.36-3.85-2.91-9.89,6.48,5.95,11.94,8.98,18.46.93.32.02,1.34-.29,1.71-.29-.17,7.21,16.89.45,22.01,1.2-.16,2.68-.43,5.28-.95,7.9l1.31.49,14.43.02c-.02,2.47,2.45,5.31.53,7.3-7.27,1.07-16.35,7.48-25.18,3.03,4.8,4.61,11.53,9.25,18.03,10.85-1.45,1.87-.23,4.45-.36,6.05-.19,2.07-1.55,4.3-1.01,6.51-3.65-.85-6.57-2.11-10.05-3.22-1.04-5.91-11.8-8.04-16.63-10.9-6-3.54.57-4.76-.93-6.53l-16.95-3.47c.67-1.28,1.32-2.58,1.99-3.86-3.54-.26-5.38,2.38-8.61.04v-.03s0,0,0,0Z"/>
  <path class="st25" d="M308.9,339.79l1.88-1.38c3.14,2.59,7.95,1.08,12.15,2.17,5.15,1.34,9.79,4.39,14.51,6.7,1.12.55,2.08,1.49,2.57-.44,1.02,1.06,4.64,4.78,3.81,5.87-.8.19-2.61-.75-2.94-.74.74-3.12.58-1.17-1.14-1.56-11.43-2.59-23.45-2.11-30.83-10.62h-.01s0,0,0,0Z"/>
  <path class="st9" d="M300.09,339.52c-1.9-3.88-.86-4.43,2.1-6.33,2.65,1.72,4.7,4.24,6.75,6.6,7.38,8.52,19.39,8.03,30.83,10.62,1.72.38,1.88-1.56,1.14,1.56-13.54.09-29.28-5.66-40.82-12.44h0Z"/>
  <path class="st4" d="M319.52,310.91c.15-1.61-1.07-4.2.36-6.05,2.19.54,15.48.19,16.21,1.13.28.33-.4,7.35-.48,8.52l-16.1-3.61h.01Z"/>
  <path class="st12" d="M318.51,317.41c-.54-2.23.82-4.44,1.01-6.51l16.1,3.61c-.16,2.02,1.35,5.13-.7,6.27-5.66-.37-10.96-2.09-16.41-3.38h0Z"/>
  <path class="st26" d="M310.8,338.41c3.09-2.26,5.35-1.3,8.26-3.16,7.84,3.34,14.44,4.85,20.96,11.59-.51,1.92-1.45.98-2.57.44-4.71-2.31-9.35-5.36-14.51-6.7-4.18-1.08-9,.43-12.15-2.17h0Z"/>
  <path class="st12" d="M302.18,333.18c1.08-.69,2.06-1.58,3.13-2.29,3.78,1.68,9.3,2.46,13.76,4.36-2.91,1.86-5.17.9-8.26,3.16l-1.88,1.38c-2.05-2.36-4.1-4.87-6.75-6.6h0Z"/>
  <path class="st4" d="M313.9,275.62c6.96-2.24,14.82,4.93,16.35-5.23,2.78,1.07,5.94,1.53,8.34,3.51-.23.11-.43.31-.63.45-2.58,1.76-2.98,4.72-5.04,5.6-2.84,1.22-6.34-4.66-6.41,3.72l-14.43-.02c.93-2.63.97-5.39,1.81-8.05h.01s0,.01,0,.01Z"/>
  <path class="st10" d="M311.7,275.26c-5.12-.74-22.16,6.01-22.01-1.2.23,0,.42-.45.63-.45,3.14-.11,20.78-2.94,21.75-2.45,1.89.54-.3,3.06-.36,4.11h-.01Z"/>
  <g>
    <path class="st17" d="M283.14,316.35c-6.32-4.39-12.69-11.57-11.63-19.84.46-3.6,2.35-3.05,2.44-3.23l16.95,3.47c1.5,1.76-5.07,2.99.93,6.53-.22,6.49,5.48,7.26,7.95,9.57,17.85,16.63-9.04,8.82-16.64,3.53h0Z"/>
    <path class="st3" d="M286.64,302.75c-1.5,1.15-8.07,1.26-8.76-.81l8.76.81Z"/>
  </g>
  <path class="st9" d="M299.76,312.85c-2.46-2.3-8.16-3.08-7.95-9.57,4.85,2.85,15.59,4.99,16.63,10.9-2.44-.79-6.03-1.99-8.67-1.35h-.01s0,.01,0,.01Z"/>
  <path class="st11" d="M314.03,269.26c6.52-.17,6.35-2.28,13.12-.46-2.26,1.06-10.84,1.06-12.29,2.26-1.55,1.27-.56,3.19-.99,4.57-.84,2.68-.87,5.42-1.81,8.05l-1.31-.49c.52-2.64.79-5.23.95-7.9.06-1.07,2.25-3.58.36-4.11"/>
  <path class="st2" d="M336.53,321.04c-.19-.28.75-5.61.78-6.82,10.43,2.63,24.79,1.96,31.52,11.55-6.08-1.83-31.36-3.38-32.29-4.73h0Z"/>
</svg>