<?xml version="1.0" encoding="UTF-8"?>
<svg id="Layer_1" xmlns="http://www.w3.org/2000/svg" version="1.1" viewBox="0 0 304.99 277.58">
  <!-- Generator: Adobe Illustrator 29.4.0, SVG Export Plug-In . SVG Version: 2.1.0 Build 152)  -->
  <defs>
    <style>
      .st0 {
        fill: #bc6c69;
      }

      .st1 {
        fill: #3f2035;
      }

      .st2 {
        fill: #6a4d5d;
      }

      .st3 {
        fill: #481224;
      }

      .st4 {
        fill: #c0afbb;
      }

      .st5 {
        fill: #a295a9;
      }

      .st6 {
        fill: #866175;
      }

      .st7 {
        fill: #997780;
      }

      .st8 {
        fill: #320a10;
      }

      .st9 {
        fill: #b59c9f;
      }

      .st10 {
        fill: #1d2235;
      }

      .st11 {
        fill: #824158;
      }

      .st12 {
        fill: #653c47;
      }

      .st13 {
        fill: #c4b0af;
      }

      .st14 {
        fill: #853a35;
      }

      .st15 {
        fill: #b24a60;
      }

      .st16 {
        fill: #04040e;
      }

      .st17 {
        fill: #aa5b59;
      }

      .st18 {
        fill: #5b314c;
      }

      .st19 {
        fill: #c5c5d5;
      }

      .st20 {
        fill: #cc7668;
      }

      .st21 {
        fill: #daaeb1;
      }

      .st22 {
        fill: #200309;
      }

      .st23 {
        fill: #7d7387;
      }

      .st24 {
        fill: #976c92;
      }

      .st25 {
        fill: #eadcde;
      }

      .st26 {
        fill: #fae4db;
      }

      .st27 {
        fill: #fcfb90;
      }

      .st28 {
        fill: #2f2f45;
      }

      .st29 {
        fill: #a97270;
      }

      .st30 {
        fill: #5c2333;
      }

      .st31 {
        fill: #a2433e;
      }

      .st32 {
        fill: #0d0c2c;
      }

      .st33 {
        fill: #8e7e91;
      }

      .st34 {
        fill: #9b474d;
      }

      .st35 {
        fill: #d6b7ac;
      }

      .st36 {
        fill: #b5837e;
      }

      .st37 {
        fill: #e3e3e5;
      }

      .st38 {
        fill: #9a3043;
      }

      .st39 {
        fill: #806873;
      }

      .st40 {
        fill: #81506b;
      }

      .st41 {
        fill: #7c565e;
      }

      .st42 {
        fill: #150f1c;
      }

      .st43 {
        fill: #70232a;
      }

      .st44 {
        fill: #a58493;
      }

      .st45 {
        fill: #fdfdfd;
      }
    </style>
  </defs>
  <path class="st34" d="M63.76,191.2c8.23-21.24,43.14-50.47,65-56.92,1.21,2.03-.22,3.28-1.76,4.22-2.06,1.27-19.97,7.11-19.67,10.19,4.16,2.41,9.11,3.98,13.7,5.27,3.95,1.11,13.62.45,14.4,4.92-10.95,6.04-17.08,13.74-18.27,26.7l-22.13,17.57c-6.75-10.45-20.49-9.81-31.27-11.95h0Z"/>
  <path class="st12" d="M135.43,158.88c-.78-4.47-10.44-3.81-14.4-4.92-4.58-1.29-9.54-2.86-13.7-5.27-.3-3.09,17.61-8.92,19.67-10.19,2.62,1.94,2.5,8.4,2.81,8.78.83,1.04,11.19,4.34,12.65,7.03.04.16-1.36,1.66-1.41,1.76-1.82.81-3.86,1.84-5.62,2.81h0Z"/>
  <path class="st30" d="M63.76,191.2c10.78,2.14,24.52,1.5,31.27,11.95l22.13-17.57c-.06.64-.68.76-.7,2.11l-21.08,17.57c-4.24-6.21-28.7-15.47-30.92-5.62-1.02-1.02-.88-1.78-2.81-1.41.4-2.36,1.25-4.81,2.11-7.03h0Z"/>
  <path class="st41" d="M61.65,198.22c1.93-.37,1.79.39,2.81,1.41-.53,2.36,5.23,22.1,6.32,26,.89,3.18,1.36,10.68,2.11,12.65h-.7c-8.9-12.23-13.11-24.83-10.54-40.05h0Z"/>
  <g>
    <path class="st16" d="M8.96,189.79l4.92-25.65-5.62,1.41c3.88-12.66,9.03-24.04,18.27-33.73l-14.76-1.41c11.08-10.59,21.97-19.94,37.24-23.89-5.93-3.06-12.54-2.6-18.97-2.11,12.86-8.69,27.28-12.68,42.86-12.65-5.87-5.8-15-6.87-22.84-8.08,13.43-6.04,29.81-4.39,44.27-1.41-3.08-7.17-11.23-9.53-16.86-14.05,8.32.97,16.43,1.85,24.24,4.92,6.04,2.38,11.94,7.71,18.27,9.84,3.65,2.71,10.62,6.65,14.76,8.43l-1.41,2.11c-1.27-.62-5.02-2.66-6.32-1.76l16.16,17.92c.07.53-.17.77-.7.7-4.98-1.24-10.08-1.82-15.11-2.81-2.22.6.87,3.81,1.05,4.22.26.58.56,2.07.7,2.81v.7c-6.28-2.4-12.81-4.55-19.32-6.32.97,3.17,3.96,4.82,5.97,7.03,6.46,7.09,15.49,15.04,23.89,19.67,7.97,4.39,12.89,6.89,22.49,5.62-7.8,3.41-16.63,3.56-23.89,8.08,1.66.08,3.53.82,4.92,1.05,5.78.96,12.8.34,18.27,2.81-5.01,1.58-9.68,4.42-15.11,4.92-.72.6,1.37,1.21,1.76,1.41,1.87.93,6.4,2.46,8.43,2.81l-1.41,3.51c-.57.1-4.82,3.08-6.32,3.16.14.68,9.24.44,10.89.35.25-.02,5.58-1.53,1.76-2.11,9.81-.6,21.99,2.38,30.92,6.32.2,1.21,1.48.71.7,2.11-9.2-1.89-16.14-3.45-24.94.7.07-1.84,4.4-4.15,2.11-5.62-2.25-.82-12.05,2.75-15.46,2.81s-7.07-2.58-10.54-1.41l4.92-7.03-15.81-.35c2.34-2.55,6.1-5.8,7.73-8.78.06-.1,1.46-1.61,1.41-1.76-1.46-2.7-11.82-5.99-12.65-7.03-.3-.38-.19-6.84-2.81-8.78,1.54-.95,2.97-2.19,1.76-4.22-21.86,6.46-56.77,35.68-65,56.92-.86,2.23-1.71,4.67-2.11,7.03-2.57,15.22,1.64,27.81,10.54,40.05l-2.11-.35,1.05,5.97c-2.03-1.06-2.58-5.31-5.27-3.86l3.16,8.08c-2-1.32-4.05-8.54-5.62-9.13-.94-.35-1.94,1.49-2.11,1.41-1.91-.91-3.14-6.26-5.97-5.97l5.97,10.19-14.05-16.16c-2.43,1.22,7.44,11.57,3.16,13.35-.13-.08-1.33-.68-1.41-.7-3.07-10.74-7.27-20.66-14.76-28.81-6.66-7.23-14.09-10.26-20.38-16.16-1.6-1.49-3.94-5.4-4.92-6.32h0Z"/>
    <path class="st32" d="M82.73,144.82c3.32-5.03,13.25-8.34,16.86-11.24.4,1.39,1.65.77.7,2.46-.48.86-12.88,13.83-13.7,14.4-.26.18-2.96-.46-5.27,1.76l1.41-7.38h0Z"/>
    <path class="st28" d="M13.87,196.12c6.3,5.9,13.73,8.92,20.38,16.16-1.74,2.13-3.91,1.53-5.62,2.11l-14.76-18.27Z"/>
    <path class="st11" d="M155.13,165.89c1.15-.21,2.63.14,3.86,0l-1.41,2.11c1.45.62,3.13-.66,3.86-.7,3.81.58-1.51,2.1-1.76,2.11-1.65.09-10.75.33-10.89-.35,1.5-.07,5.74-3.06,6.32-3.16h.02Z"/>
    <g>
      <path class="st28" d="M82.7,144.82l-10.89,9.84-.7-5.62c-10.96,7.07-.31,5.7.35,6.68-2.8,3.44-5.51,6.87-9.84,8.43-.62-1.24,3.25-8.19.35-8.08l-5.62,8.43c-3.25.43-.34-4.18-3.86-2.46l-2.46,6.68-2.11-4.22-3.51,7.03c-2.44-.04,1.67-11.36,1.76-13-6.62,2.29-5.39,22.72-8.78,3.16-5.27,7.98-.24,19.38-7.38,25.65-.98-19.93,3.87-41.27,17.57-56.21,1.9-2.07,16.36-13.7,17.92-13.7,1.13,0,.3,2.86,1.41,2.81.43-.02,5.89-4.33,7.03-4.92l-.7,6.32c3.54-.91,9.12-7.06,11.95-7.73s1.97,2.07,2.11,2.11c4.66,1.17,6.57-5.44,7.03-5.62s9.38-.17,9.84,0c.39.15,4.78,5.18,5.97,5.97l-7.73,3.51,9.13,2.11c-5.49,1.81-8.44,8.76-11.95,11.59-3.61,2.9-13.53,6.21-16.86,11.24h-.03Z"/>
      <g>
        <path class="st10" d="M62.72,123.73c-2.12,4.79-.76,10.17-7.03,11.95-1.6-2.3,3.78-5.46,3.86-5.97.18-1.21-4.27-4.91,3.16-5.97h0Z"/>
        <path class="st16" d="M57.09,137.8c.83.64-.86,8.55-2.81,8.43-3.86-.23.72-10.05,2.81-8.43h0Z"/>
        <path class="st16" d="M69.73,137.09c-2.54-1.83,4.4-8.47,4.92-8.43,3.77.29-4.16,7.97-4.92,8.43Z"/>
        <path class="st16" d="M48.65,159.58c-1.7-1.05,3.45-7.25,4.22-8.43,1.83,2.14-1.82,9.92-4.22,8.43Z"/>
        <path class="st16" d="M38.82,157.47c-3.03-1.61.48-9.23,2.81-7.73l-2.81,7.73Z"/>
        <path class="st16" d="M64.82,149.74c-.96-1.78-.47-6.71,2.81-5.62,3.05,1.01-2.15,4.77-2.81,5.62Z"/>
        <path class="st16" d="M87.3,138.5c-2.08-.96,3.27-6.36,4.22-7.03l-4.22,7.03Z"/>
        <path class="st16" d="M79.57,140.61c-1.87-.88,3.05-5.7,4.22-5.62l-4.22,5.62Z"/>
        <polygon class="st16" points="90.11 124.45 89.41 122.34 92.92 120.23 90.11 124.45"/>
      </g>
    </g>
  </g>
  <g>
    <path class="st11" d="M162.17,85.8c.7-5.82,4.35,2.39,6.68,1.41-.16-.62.39-2.34.35-2.46-.58-1.66-11.09-12.32-12.65-15.46-.96-1.93-.19-1.29,0-3.16,7.71,5.93,13.72,11.02,19.67,18.97.98,1.3,1.55,4.12,2.11,4.92,3.45,4.91,7.36,9.67,10.54,14.76,3.65,5.86,1.33,12.21,11.24,14.76,1.49,2.65,5.43,2.41,8.08,2.81.48.07.22-1.47.7-1.41.21.03,1.22,2.2,3.86,2.11-13.31,13.33-32.19-15.1-46.73-18.27-2.01.06.23,4.61.35,4.92-3.18-.88-5.6-3.46-8.43-4.92-.35-1.79.38-3.26.7-4.92.36-1.87.57-2.92.7-4.92.04-.67.88-1.08.7-2.81,2.86-1.09,6.81,4.31,9.13,6.32.09.07-.26,2.35,1.41,1.05-.22-.58-1.37-.97-1.41-1.05-1.87-3.7-4.9-9.05-7.03-12.65h.03Z"/>
    <path class="st17" d="M176.2,85.11c1.04.02.58-.83.7-1.41,2.67,1.52,10.38,6.56,13,5.62.85-.31-.72-1.17-.35-1.41,1.2-.77,1.3-2.38,3.16-2.11.48.07,3.34,3.65,4.22,4.22.62-.2-.83-3.73-1.05-4.22,2.09.34,3.32,2.33,4.92,3.51.93,7.24,7.11,8.94,12.3,13.35,3.06,2.6,5.46,6.09,8.78,8.43.11.5.49,1.51.7,2.11-6.74,6.87-12.86-3.84-20.03-7.03-2.68-1.19-6.62-2.16-9.84-3.51-.11-.04-1.31,1.46-1.41,1.41-2.2-.99-9.76-12.39-13-14.05-.56-.8-1.13-3.62-2.11-4.92h0Z"/>
    <path class="st13" d="M101.71,73.15c-13.63-11.71-30.24-25.41-32.67-44.27,15.16,33.62,51.2,45.62,81.86,60.43-1.6-.24-4.32,2.16-4.57,2.11-.91-.17-13.28-7.89-16.16-9.13-1.74-.75-17.3-7.4-17.22-4.57,2.91.74,5.22,3.93,7.03,5.27-6.33-2.13-12.23-7.47-18.27-9.84h0Z"/>
    <path class="st15" d="M222.57,107.57c-.15-1.39-2.01-7.85-1.05-8.43.58,4.28,7.44,7.87,8.08,10.89.67,3.2-1.5,7.35-1.41,7.73.21.88,15.27,7.94,16.16,8.08-4.48,3.05,2.54,12.02,5.62,14.76-1.37,0-8.35,2.24-8.78,2.11-1.29-.37-1.92-6.75-7.38-5.27l3.51-7.03-1.05-1.05c-2.76.04-5.48-2.8-7.73-3.51-4.35-1.37-11.15-.28-13.7-3.51.22-.06.49.07.7,0,3.11-.95,6.39-4.17,10.54-4.57.33-.97-3.35-4.1-3.51-4.57-.2-.6-.59-1.61-.7-2.11-.41-1.77.74-3.14.7-3.51h0Z"/>
    <path class="st30" d="M244.33,125.84c.45.07.96-.06,1.41,0,1.02.18,2.65,2.04,2.81,2.11-2.9,5.67.58,9.05,5.27,11.95.53.33,3.32-.33,3.86,0,1.67,1.02,4.04,5.76,6.68,6.32,1.38-.14,6.13-7.27,7.38-8.43.49-.45,2.16-2.29,2.11-.35-4.17,4.25-3.38,14.42-4.92,18.27-.43,1.09-4.61,5.25-6.32,9.49l-.35-5.62c-1.85.12-4.16.52-5.97,0-.35-.11-2.06-1.19-2.81-1.41s-1.41-.49-2.11-.7-1.37-.48-2.11-.7c-3.79-1.15-7.47-2.29-11.24-3.51-1.61-.53-3.85-.82-5.62-1.41-1.66-.55-3.58-2.23-5.62-2.81,11.64,2.48,25,6.92,35.84-.35-3.46-3.66-8.99-4.83-12.65-8.08-3.08-2.75-10.1-11.71-5.62-14.76h-.02Z"/>
    <path class="st13" d="M110.14,53.49c-5.74-6.61-23.4-31.68-27.4-39-.45-.82-1.74-1.5.35-1.76,20.48,20.44,35.98,44.08,62.19,58.32-1.11.03-1.25.28-2.11.7-.35-.24-2.09.25-2.46,0-9.73-6.54-19.85-13.9-30.57-18.27h0Z"/>
    <path class="st6" d="M144.58,65.42c-6.7-8.6-13.38-17.31-18.97-26.7,4.56,4.43,11.29,10.97,16.16,14.76-3,.07-.28,2.25.35,2.81,4.55,4.05,9.97,6.43,14.4,9.84-.19,1.87-.96,1.23,0,3.16,1.56,3.14,12.07,13.8,12.65,15.46.04.12-.51,1.84-.35,2.46-2.33.98-5.99-7.24-6.68-1.41-4.23-7.17-9.29-18.12-17.57-20.38h0Z"/>
    <path class="st9" d="M119.98,82.99c-1.82-1.34-4.12-4.53-7.03-5.27-.07-2.83,15.49,3.83,17.22,4.57,2.88,1.23,15.25,8.96,16.16,9.13.25.05,2.98-2.35,4.57-2.11,3.58,1.73,5.6,2.55,8.43,5.62-.13,2-.34,3.05-.7,4.92-7.6-3.97-16-5.03-23.89-8.43-4.14-1.78-11.11-5.72-14.76-8.43h0Z"/>
    <path class="st9" d="M125.59,38.73c-6.68-6.5-11.94-14.51-19.67-20.03,19.36,7.85,30.49,26.82,46.38,39.7-3.17,1.19-8.02-2.96-10.54-4.92-4.87-3.79-11.6-10.33-16.16-14.76h-.01Z"/>
    <path class="st44" d="M156.5,66.12c-4.43-3.41-9.85-5.79-14.4-9.84-.63-.56-3.35-2.74-.35-2.81,2.52,1.96,7.37,6.11,10.54,4.92,6.03,4.88,14.49,9.75,21.08,14.05,1.39,4.03,4.45,6.81,3.51,11.24-.12.58.34,1.44-.7,1.41-5.94-7.95-11.95-13.04-19.67-18.97h0Z"/>
    <path class="st1" d="M144.56,65.4c8.29,2.26,13.34,13.21,17.57,20.38,2.13,3.61,5.16,8.95,7.03,12.65-2.32-2.01-6.26-7.41-9.13-6.32-.57-5.34-8.38-11.37-12.65-14.05,3.26.61-3.85-6.06-4.22-6.32.86-.42,1-.67,2.11-.7,1.63-.04,3.22,1,4.22-.35-1.75-1.69-3.42-3.35-4.92-5.27v-.02Z"/>
    <path class="st38" d="M245.76,125.85c2.42.34,5.48-1.22,9.49,0,6.3,1.93,8.75,11.83,16.51,11.95-1.25,1.16-6,8.29-7.38,8.43-2.65-.56-5.02-5.3-6.68-6.32,3.65-4.1-4.19-11.03-7.38-12.65-.78-.4-1.25.9-1.76.7-.16-.07-1.79-1.93-2.81-2.11h.01Z"/>
    <path class="st8" d="M192.35,173.62c8.62,3.8,14.31,8.27,19.67,16.16-1.47.2-3.08-.14-4.57,0-.78.39.78,1.29.35,1.41-3.8,1.04-6.78,1.93-10.89,1.41l8.08-6.68c-5.69-5.14-14.51-4.99-21.78-6.32,2.24-2.45,8.54-1.51,9.84-3.86.78-1.4-.49-.9-.7-2.11h0Z"/>
    <path class="st2" d="M110.13,53.48c10.73,4.37,20.84,11.73,30.57,18.27.37.25,2.11-.24,2.46,0,.37.25,7.49,6.93,4.22,6.32-15.13-9.51-23.92-9.25-37.24-24.59h-.01Z"/>
    <path class="st6" d="M172.68,68.93c-1.01-2.76-2.98-5.38-3.16-8.43,5.3,9.56,22.21,16.34,26.35,25.3.22.49,1.67,4.02,1.05,4.22-.88-.58-3.74-4.15-4.22-4.22-1.86-.27-1.96,1.34-3.16,2.11l-16.86-18.97h0Z"/>
    <path class="st40" d="M173.38,72.44c-.35-1.01-.45-2.84-.7-3.51l16.86,18.97c-.37.24,1.2,1.11.35,1.41-2.62.94-10.33-4.1-13-5.62.94-4.42-2.12-7.2-3.51-11.24h0Z"/>
    <path class="st0" d="M213.08,102.67c-5.2-4.4-11.38-6.11-12.3-13.35,7.89,5.82,16.06,9.78,21.78,18.27.04.37-1.1,1.74-.7,3.51-3.31-2.33-5.72-5.83-8.78-8.43Z"/>
    <path class="st33" d="M256.3,159.57c1.8.52,4.12.12,5.97,0l.35,5.62c-.3.75-.05.57-.7,1.41.12-.79-.49-.59-.7-.7-1.71-.93-.45-.44-1.41,0-1.23.57-1.59.31-2.11,2.11-1.03.77-2.22,3.06-4.22,1.76l2.81-10.19h.01Z"/>
    <path class="st5" d="M256.3,159.57c-3.06.83-2.16,4.55-4.57,7.03-1.82,1.87-7.26,3.46-9.84,4.22l11.59-12.65c.75.23,2.46,1.31,2.81,1.41h0Z"/>
    <path class="st33" d="M238.02,153.26l-1.05,4.92c-2.81-8.24-3.46,1.85-7.73,3.51l3.16-9.84c1.77.59,4.01.89,5.62,1.41Z"/>
    <path class="st19" d="M229.24,168.72l-.35,5.97c5.05-4.77-.6,9.4-4.22,4.57,5.67-2.06,2.01-3.9,2.11-4.22.6-1.96,1.34-4.65,2.46-6.32Z"/>
    <path class="st16" d="M224.67,173.63c.28,2.38-4.23,3.84-4.92,1.76l2.81-5.27c2.59,1.03,1.62,2.57,2.11,3.51h0Z"/>
    <path class="st33" d="M224.33,160.28l3.51-9.13c1.1,3.85.35,7.35-3.51,9.13Z"/>
    <path class="st23" d="M231.35,181.37l5.62-7.03c1.97.66-3.42,7.79-5.62,7.03Z"/>
    <path class="st24" d="M251.38,157.47c-1.52,1.64-2.47,1.92-2.11-.7.74.22,1.41.49,2.11.7Z"/>
    <path class="st26" d="M143.17,109.7l-16.16-17.92c1.3-.9,5.04,1.14,6.32,1.76,8.01,3.86,17.09,7.36,24.59,11.24,2.82,1.46,5.24,4.04,8.43,4.92,1.62,4.29,4.99,9.9,8.43,13l-14.76-1.41,15.46,11.95c.22,1.87-2.54.73-2.81,1.05-4-2.9-7.14-8.07-11.95-9.84-8.33-6.68-21.04-13.2-32.32-12.65-.18-.41-3.27-3.62-1.05-4.22,5.03.99,10.36,1.62,15.11,2.81s6.81,3.42,13.35,4.22c2.04,2.35,2.29.87,3.51,1.41,3.13,1.39,6.33,1.66,9.49,2.81-.28-8.08-10.57-6.68-15.11-8.43-2.47-.95-4.99-1.61-7.38-2.81-1.87-.95-10.03-8.27-10.89-6.68,1.66,2.33,7.37,6,7.73,8.78h0Z"/>
    <path class="st26" d="M115.76,116.02c-2.01-2.21-4.99-3.87-5.97-7.03,6.5,1.76,13.04,3.91,19.32,6.32,7.65,2.93,27.44,10.6,32.32,14.76,9.19,7.82,2.19,6.71-6.32,6.32-3.8-.18-4.74.02-8.43-1.41-5.34-2.06-15.12-10.62-20.73-14.05-2.75-1.68-7.14-3.54-10.19-4.92h0Z"/>
    <path class="st3" d="M156.48,162.38c5.05.87,10.59-.32,14.76,0-.14,2.18,1.09,1.8,2.46,2.11,12.5,2.79,20.18,2.93,31.27,10.54,4.72,3.25,8.74,8.47,13.35,11.95-.39.24,1.18,1.03.35,1.41-1.23.56-5.31,2.77-5.62,2.81-1.56.19-.96-1.42-1.05-1.41-5.36-7.89-11.05-12.36-19.67-16.16-8.93-3.93-21.12-6.91-30.92-6.32-.73.04-2.41,1.31-3.86.7l1.41-2.11c-1.22.14-2.7-.21-3.86,0l1.41-3.51h-.03Z"/>
    <path class="st35" d="M161.45,130.07c4.4-.27,7.21,3.49,10.54,5.62-1.86,3.01-3.87,13.35-2.11,16.86-1.14-.64-1.52-1.12-2.11-1.41-6.12-3.01-15.86-5.36-22.84-3.51-1.95.52-2.63.6-1.76,2.81-1.39-.23-3.26-.96-4.92-1.05,7.26-4.52,16.09-4.66,23.89-8.08.68-.09,4.99-.22,3.86-2.11-3.49-1.97-8.92,1.28-10.89-2.81,8.5.39,15.5,1.51,6.32-6.32h.02Z"/>
    <path class="st13" d="M128.41,111.8c11.27-.55,23.98,5.97,32.32,12.65-2.92-1.08-7.23-.38-10.19-1.41-7.19-2.51-14.26-5.85-21.43-8.43-.14-.74-.44-2.23-.7-2.81h0Z"/>
    <path class="st9" d="M115.75,116c3.05,1.38,7.44,3.24,10.19,4.92,5.62,3.42,15.39,11.98,20.73,14.05-3.05.24-3.77,1.08-6.32-1.05l-.7,1.76c-8.4-4.63-17.43-12.58-23.89-19.67h0Z"/>
    <path class="st18" d="M134.72,91.42c7.88,3.39,16.29,4.46,23.89,8.43-.32,1.66-1.05,3.13-.7,4.92-7.49-3.87-16.58-7.37-24.59-11.24l1.41-2.11h-.01Z"/>
    <path class="st7" d="M129.1,114.6c7.17,2.58,14.24,5.92,21.43,8.43,2.96,1.04,7.27.34,10.19,1.41,4.82,1.77,7.95,6.94,11.95,9.84-.82.97-.56,1.18-.7,1.41-3.33-2.13-6.14-5.89-10.54-5.62-4.88-4.17-24.67-11.83-32.32-14.76v-.7s-.01-.01-.01-.01Z"/>
    <path class="st41" d="M143.15,150.45c-.87-2.21-.19-2.29,1.76-2.81,6.98-1.85,16.73.49,22.84,3.51-1.52,1.8-4.15,1.43-6.32,2.11-5.47-2.47-12.49-1.85-18.27-2.81h0Z"/>
    <path class="st41" d="M139.66,135.69l.7-1.76c2.55,2.12,3.26,1.28,6.32,1.05,3.69,1.43,4.62,1.24,8.43,1.41,1.97,4.09,7.4.84,10.89,2.81,1.13,1.89-3.18,2.02-3.86,2.11-9.61,1.28-14.53-1.23-22.49-5.62h0Z"/>
    <path class="st36" d="M167.75,151.15c.6.3.97.78,2.11,1.41.11.06-.31,1.04.35,1.41,2.12,1.19,6.59.23,7.73,2.81l-29.86,2.81c-.4-.2-2.48-.81-1.76-1.41,5.43-.5,10.1-3.34,15.11-4.92,2.16-.68,4.8-.32,6.32-2.11Z"/>
    <path class="st39" d="M143.16,109.68c-.36-2.77-6.07-6.44-7.73-8.78.86-1.59,9.02,5.74,10.89,6.68,2.39,1.2,4.92,1.86,7.38,2.81,1.54.77,1.95,4.04,2.11,4.22-6.54-.8-8.59-3.03-13.35-4.22.53.08.77-.17.7-.7h0Z"/>
    <path class="st43" d="M192,164.5c3.16,1.03,13.9,6.76,13,10.54-11.09-7.61-18.77-7.75-31.27-10.54-1.37-.31-2.6.07-2.46-2.11,7.09.55,13.77-.15,20.73,2.11Z"/>
    <path class="st16" d="M209.91,116.72c2.55,1.67,4.32,2.63,5.62,5.62-.21.07-.48-.06-.7,0-.76.19-1.88.7-2.11.7-2.63.09-3.64-2.08-3.86-2.11-.48-.05-.22,1.48-.7,1.41-2.65-.4-6.59-.16-8.08-2.81.21.06.47-.03.7,0,6.67.91,3.73-.53,7.38-2.11.48-.2,3.57,3.63,1.76-.7h-.01Z"/>
    <g>
      <path class="st31" d="M166.37,109.74c-.12-.31-2.36-4.86-.35-4.92,14.54,3.17,33.42,31.6,46.73,18.27.23,0,1.36-.5,2.11-.7,2.55,3.22,9.34,2.14,13.7,3.51,2.25.7,4.97,3.54,7.73,3.51l1.05,1.05-3.51,7.03c5.46-1.48,6.09,4.9,7.38,5.27.43.12,7.4-2.1,8.78-2.11,3.66,3.25,9.19,4.42,12.65,8.08-10.84,7.27-24.21,2.83-35.84.35-6.28-1.8-4.95.78-5.27.7-1.1-.27-.36-6.89-5.27,4.22.06-.44-.1-1.01,0-1.41.54-2.23,1.87-4.98,3.51-6.68-.74-1.12-4.02-.27-4.22-.35-.79-.32-3.07-1.19-3.51-1.41-.09-.05-.28-.82-1.41-1.41-.5-.25-.91-.46-1.41-.7-.04-.02.2-.24-.7-.7-1.2-.61-1.82-.55-2.11-.7-.95-.49-1.39-1.11-3.51-2.11-1.74-.82-1.74.17-2.11,0-.44-.21-.89-.46-1.41-.7-.28-.13,1.3-.73-2.11-2.11-1.21-.5-2.24-.93-3.51-1.41-1.59-.61-.77-.92-3.51-1.41-4.86-.88-10.85-4.27-9.84,2.81-.6-.08-.66.16-.7.7l-1.41-1.05c.03,9.39,7.49,17.16,15.11,22.13l-1.76,1.05c13.66,4.68,22.01,16.83,33.73,24.59.61,2.51-6.09,3.29-7.03,3.86-4.61-3.48-8.63-8.71-13.35-11.95.9-3.78-9.84-9.51-13-10.54-6.96-2.27-13.64-1.56-20.73-2.11-4.18-.32-9.72.87-14.76,0-2.02-.35-6.56-1.88-8.43-2.81l29.86-2.81c-1.14-2.58-5.61-1.61-7.73-2.81-.66-.38-.24-1.35-.35-1.41-1.76-3.5.25-13.84,2.11-16.86.14-.23-.12-.44.7-1.41.27-.31,3.03.82,2.81-1.05l-15.46-11.95,14.76,1.41c-3.44-3.1-6.81-8.71-8.43-13l.02.05Z"/>
      <path class="st20" d="M220.81,136.39c-2.77-2.12,1.04-7.08,2.81-6.32,3.42,1.46-.6,8.01-2.81,6.32Z"/>
      <path class="st37" d="M215.53,145.53c.2.08,3.48-.77,4.22.35-1.64,1.71-2.97,4.46-3.51,6.68-4.14-3.87,2.88-3.72-.7-7.03h-.01Z"/>
    </g>
    <path class="st8" d="M188.83,104.78c-3.18-5.1-7.09-9.85-10.54-14.76,3.24,1.66,10.8,13.06,13,14.05.11.04,1.31-1.45,1.41-1.41,3.22,1.35,7.16,2.32,9.84,3.51,7.18,3.19,13.29,13.91,20.03,7.03.16.47,3.84,3.6,3.51,4.57-4.15.4-7.43,3.62-10.54,4.57-1.3-2.99-3.06-3.95-5.62-5.62-3.93-2.58-8.54-4.69-12.65-7.03-2.81-1.6-5.68-3.22-8.43-4.92h0Z"/>
    <path class="st14" d="M188.84,104.77c2.75,1.7,5.62,3.32,8.43,4.92-1.3,4.2.72,7.02,3.51,9.84-.22-.03-.49.06-.7,0-9.9-2.55-7.59-8.9-11.24-14.76Z"/>
    <path class="st1" d="M170.57,99.5c-1.67,1.3-1.33-.98-1.41-1.05.04.07,1.2.47,1.41,1.05Z"/>
    <g>
      <path class="st16" d="M180.41,135.65c-1-7.07,4.98-3.69,9.84-2.81l.35,4.22,3.16-2.81c1.27.49,2.29.92,3.51,1.41-.61,3.04,1.29,6.2,2.11,2.11.52.23.97.49,1.41.7l1.05,7.73,3.16-5.27-2.46,1.05.35-3.51c2.11,1,2.55,1.62,3.51,2.11-.39,1.45.69,1.33.7,1.41.36,2.22-.96,5.27,1.05,7.03l1.05-7.03c.5.24.92.44,1.41.7-.46,1.25-1.78,3.71-1.41,4.92-.07,1.68.27,1.83,1.41.7.16-.16,1.69-3.54,1.41-4.22.44.22,2.72,1.1,3.51,1.41,3.58,3.31-3.44,3.16.7,7.03-.1.41.06.97,0,1.41-1.57,10.8,3.14.66,4.92,6.68.13.46.12,9.03,0,9.49-.17.69-2.55,4.22-3.16,4.22-1.89-2.74-5.25-3.93-3.16-7.38-4.42,2.42-5.62-2.36-7.73-5.97,1.66-1.26,1.99-4.02,2.81-5.62.63-.86,3.47-2.08,2.46-4.22-1.33,1.09-1.74,2.81-2.46,4.22-1.91,2.59-2.07,2.18-3.51,5.62-.29.69-.61,1.81-1.41,2.11-.19-.15-1.23-.55-1.41-.7-.26-5.46-2.25-2.14-3.86-3.51-3.18-2.69.51-1.42-1.41-3.51-.11-.12-1.68,1.52-3.16-.35-1.26-1.59.68-4.02-.35-4.57-.5-.27-4.15,7.95-3.51-4.22l-2.11,3.51c-3.4-3.24-8.09-9.23-8.78-14.05v-.04Z"/>
      <g>
        <path class="st37" d="M179.71,136.39c.04-.53.1-.77.7-.7.68,4.82,5.38,10.81,8.78,14.05l2.11-3.51c-.65,12.17,3.01,3.96,3.51,4.22,1.03.55-.91,2.98.35,4.57,1.48,1.87,3.05.23,3.16.35,1.92,2.09-1.76.81,1.41,3.51,1.61,1.36,3.59-1.95,3.86,3.51-6.11-5.17-24.89-13.82-23.89-26h0Z"/>
        <path class="st45" d="M200.77,138.5c.37.17.37-.82,2.11,0l-.35,3.51,2.46-1.05-3.16,5.27-1.05-7.73h0Z"/>
        <path class="st37" d="M207.1,142.01l1.41-.7c.9.46.7.7.7.7l-1.05,7.03c-2.01-1.76-.69-4.81-1.05-7.03h0Z"/>
        <path class="st25" d="M193.75,134.29l-3.16,2.81-.35-4.22c2.74.5,1.92.8,3.51,1.41Z"/>
        <path class="st45" d="M209.21,147.62c-.36-1.22.95-3.68,1.41-4.92,1.14.59,1.32,1.37,1.41,1.41.28.68-1.25,4.06-1.41,4.22-.32-.1-1.39-.62-1.41-.7h0Z"/>
        <path class="st45" d="M199.38,137.8c-.82,4.09-2.72.93-2.11-2.11,3.41,1.38,1.83,1.98,2.11,2.11Z"/>
        <path class="st44" d="M206.4,140.62c.29.15.91.09,2.11.7l-1.41.7c0-.08-1.09.04-.7-1.41h0Z"/>
        <path class="st42" d="M209.91,155.37c-.81,1.59-1.15,4.36-2.81,5.62h-.7c1.44-3.44,1.6-3.03,3.51-5.62Z"/>
        <path class="st42" d="M212.38,151.14c1.01,2.14-1.83,3.36-2.46,4.22.72-1.41,1.14-3.14,2.46-4.22Z"/>
        <path class="st4" d="M217.29,171.52c-1.23-.39,1.1-3.13,2.11-2.81.12.76-1.25,2.89-2.11,2.81Z"/>
        <path class="st4" d="M201.14,158.17c-.78-.46-.56-3.47.7-2.81,1.18.62-.37,3-.7,2.81Z"/>
        <path class="st23" d="M209.21,147.64c.03.07,1.09.6,1.41.7-1.14,1.13-1.48.98-1.41-.7Z"/>
      </g>
    </g>
    <g>
      <path class="st22" d="M218.34,186.98c.94-.57,7.64-1.34,7.03-3.86-11.72-7.75-20.08-19.9-33.73-24.59l1.76-1.05c-7.62-4.96-15.09-12.74-15.11-22.13l1.41,1.05c-1.01,12.18,17.78,20.83,23.89,26,.18.15,1.22.55,1.41.7,6.05,5,10.61,12.32,18.97,16.86,5.46,2.97,12.69,5.45,18.27,6.68-3.49,3.1.63,1.5.7,2.81.32,5.58-21.22,19.4-27.4,17.57l5.27-3.16-20.38,3.51,4.22-1.41c2.88-5.01,14.96-13,3.16-14.76.43-.12-1.13-1.02-.35-1.41,1.49-.14,3.1.2,4.57,0,.08,0-.52,1.61,1.05,1.41.31-.04,4.39-2.25,5.62-2.81.83-.38-.74-1.17-.35-1.41h-.01Z"/>
      <path class="st19" d="M204.99,163.09c.81-.3,1.12-1.42,1.41-2.11h.7c2.11,3.61,3.31,8.38,7.73,5.97-2.09,3.45,1.27,4.65,3.16,7.38.61,0,2.99-3.53,3.16-4.22.45.06,1.12-.12,1.41,0l-2.81,5.27c.69,2.07,5.2.62,4.92-1.76.27.53,1.18,1.74,2.11,1.41-.1.32,3.56,2.16-2.11,4.22-.35.13-.8-.04-.7.7-8.36-4.54-12.92-11.86-18.97-16.86h-.01Z"/>
      <path class="st30" d="M223.62,198.23l3.51-12.65c6.71,3.22,1.05,9.84-3.51,12.65Z"/>
      <path class="st30" d="M235.22,192.95c-2.74,6.34-3.98-2.84-1.76-3.16.32-.05,2.39,2.27,1.76,3.16Z"/>
    </g>
    <path class="st9" d="M153.7,110.4c4.55,1.75,14.83.35,15.11,8.43-3.17-1.15-6.37-1.42-9.49-2.81.59-1.73-2.86-1.33-3.51-1.41-.16-.18-.57-3.45-2.11-4.22h0Z"/>
    <path class="st39" d="M159.32,116.02c-1.22-.55-1.46.93-3.51-1.41.65.08,4.09-.31,3.51,1.41Z"/>
    <path class="st27" d="M197.27,109.69c4.12,2.34,8.72,4.46,12.65,7.03,1.81,4.33-1.29.5-1.76.7-3.66,1.58-.71,3.02-7.38,2.11-2.79-2.82-4.81-5.64-3.51-9.84Z"/>
    <g>
      <path class="st21" d="M248.55,127.96c.51.21.98-1.1,1.76-.7,3.19,1.62,11.04,8.55,7.38,12.65-.53-.33-3.32.33-3.86,0-4.69-2.9-8.17-6.28-5.27-11.95h0Z"/>
      <path class="st16" d="M248.57,130.42c.46-.56,2.36-.43,3.16-.35,9.33.96,3.56,19.21-3.16.35Z"/>
    </g>
  </g>
  <path class="st11" d="M95.4,205.27l21.08-17.57c-.11,9.13,5.44,17.79,6.32,26.7-.9-.76-.64-1.57-1.76-1.41-4.41,6.62-11.3,14.94-20.03,14.05-.51-1.09-.9-.95-1.41-1.41-.23-5.49-1.17-15.91-4.22-20.38l.02.02Z"/>
  <path class="st29" d="M70.78,225.63c-1.09-3.9-6.85-23.64-6.32-26,3.79,3.8,6.13,8.71,10.89,12.65,6.06,5.01,20.41,9.91,24.24,13.35.51.46.91.32,1.41,1.41.83,1.8.1,7.92,2.81,9.84-.05.22.02.47,0,.7-.32,3.75,1.95,9.58,2.81,13.35-3.25-.7-4.1-6.12-5.62-8.08-5.8-7.49-20.79-17.06-30.21-17.22h-.01Z"/>
  <path class="st12" d="M103.81,236.87c.95-4.46,13.8-9.32,17.57-12.3-4.49,5.79-10.68,10.67-17.57,13,.02-.23-.05-.48,0-.7h0Z"/>
  <path class="st41" d="M64.45,199.63c2.22-9.85,26.69-.59,30.92,5.62,3.05,4.47,3.99,14.89,4.22,20.38-3.83-3.44-18.17-8.34-24.24-13.35-4.76-3.94-7.09-8.85-10.89-12.65h0Z"/>
  <path class="st41" d="M121.38,224.58c-3.78,2.99-16.63,7.84-17.57,12.3-2.71-1.93-1.98-8.05-2.81-9.84,8.74.9,15.63-7.43,20.03-14.05,1.13-.16.86.65,1.76,1.41,1.7,1.43,1.26,1.73,2.11,3.51.65,1.35,1.26,2.73,1.86,4.12"/>
</svg>