<?xml version="1.0" encoding="UTF-8"?>
<svg id="Layer_1" xmlns="http://www.w3.org/2000/svg" version="1.1" viewBox="0 0 220.09 277.58">
  <!-- Generator: Adobe Illustrator 29.4.0, SVG Export Plug-In . SVG Version: 2.1.0 Build 152)  -->
  <defs>
    <style>
      .st0 {
        fill: #3f2035;
      }

      .st1 {
        fill: #c0afbb;
      }

      .st2 {
        fill: #a295a9;
      }

      .st3 {
        fill: #231523;
      }

      .st4 {
        fill: #49364e;
      }

      .st5 {
        fill: #836a86;
      }

      .st6 {
        fill: #04040e;
      }

      .st7 {
        fill: #5b314c;
      }

      .st8 {
        fill: #362d55;
      }

      .st9 {
        fill: #2f2f45;
      }

      .st10 {
        fill: #150f1c;
      }

      .st11 {
        fill: #a58493;
      }
    </style>
  </defs>
  <path class="st7" d="M106.21,268.45c-2.69,2.11-6.75,3.59-9.39,6.08-.42-1.83,2.28-8.38,2.76-10.5,7.6-8.4,21.85-7.5,6.63,4.42Z"/>
  <path class="st10" d="M87.98,78.39c-3.93-1.2-3.06,9.11-2.76,11.33.23,1.68,2.38,9.67,4.97,8.01.21.84,1.99,2.02,2.21,3.04,2.48,11.49-3.19,32.96-11.33,41.71l-13.54-6.63c1.62-2.82,9.86-21.79,9.39-23.48s-2.35.12-2.76-2.21c-.22-1.26,2.53-8.89,2.21-11.05,2.61-.62-.45,3.69.83,4.7,2.15-4.93,3.45-10.31,3.59-15.75,1.06,5.88,2.22,11.79,3.31,17.68.26,1.41-.81,3.87-.55,4.97.1.44,1.76,0,2.21,1.1.34.84-1,4.99,1.1,4.42l-4.42-37.85c1.78-.69,4.23-1.11,5.52,0Z"/>
  <path class="st0" d="M104.56,243.03c4.5-.55,7.73-3.62,12.71.83.08,10.05-10.2,11.01-17.68,13.54.92-1.38,1.59-2.94,2.76-4.14-4.15-.73-11.21.47-11.6,5.8-4.33.95-1.96,7.56-4.14,10.5-1.69-2.5-2.53-6.97-6.35-6.08,1.15-.93,5.93-7.8,4.97-9.39-2.03-3.38-9.09,2.49-10.5,4.42-1.15,1.56-2.85,2.5-2.21,5.52-.81-.45-2.59-.76-3.87-1.66.22-1.71,4.2-4.3,3.87-5.8-.87-3.86-5.91.58-6.63.83-1.42.48-3.37,1.44-4.42,1.66.13-2.25,1.91-3.13,3.31-4.42.8-.74,6.48-5.66,6.91-5.52,1.55.48-.29,4.14,1.1,4.42,1.65-6.37,8.28-8.75,13.54-11.33-1.16-.16-3.91.07-4.97.28,7.44-4.34,15.81,1.45,23.2.55Z"/>
  <path class="st10" d="M88.53,81.15c-.12-1.15.68-.8,0-2.21,1.8-4.5,10.67,3.8,11.05,6.35.15,1.02-2.05,19.56-3.04,19.61-1.35-1.1-1.24-4.47-1.38-4.7-1.08-1.73-4.24-3.41-4.97-5.52-1.47-4.24.88-9.83-1.66-13.54Z"/>
  <g>
    <path class="st6" d="M131.63,37.23c-.14,3.49-28.54-21.88-27.62-27.35-4.85,1.1-7.45-3.38-12.08-.94-1.46.77-28.78,33.53-30.48,33.87l-4.96,20.74c5.8,5.67,22.7,12.56,21.55,14.29-.68,1.01-3.86,2.33-3.04,4.42,1.35.73,6.31-3.42,7.46-3.87,1.78-.69,4.23-1.11,5.53,0,.09.07.54.52.55.55,1.8-4.5,10.67,3.8,11.05,6.35.15,1.02-2.05,19.56-3.04,19.61-1.35-1.1-1.24-4.47-1.38-4.7-1.08-1.73-4.24-3.41-4.97-5.53-1.47-4.24.88-9.83-1.66-13.54.69,6.83-.16,9.33,1.66,16.57.21.84,1.99,2.02,2.21,3.04,2.48,11.49-3.19,32.96-11.33,41.71l-13.54-6.63c-1.49,2.61-4.85,8.33-7.18,9.94,3.92.37,5.12,5.56,7.18,8.01,12.69,15.09,45.51,39.84,45.3,60.77-.08,7.97-3.06,22.47-8.29,28.45,4.5-.55,7.73-3.62,12.71.83.08,10.05-10.2,11.01-17.68,13.54-1.44,2.17-4.08,4.07-4.97,6.63.93.15,1.94.19,2.76.83-.06.82-.55.94-.55,1.93,1.2-.21,1.83-1.73,2.76-2.76,7.6-8.4,21.85-7.5,6.63,4.42,6.35-1.62,23.69-1.35,28.45-4.97,1.44-1.1,2.47-4.97,3.32-4.97.24,0,1.38,1.63,1.66,1.66,6.43.62,11.96,1.83,11.33-5.53-.68-7.93-8.64-13.46-16.3-11.6-3.22-16.07-1.62-36.7,8.01-50.55-7.88-.66-2.27-1.7-.55-6.08.39-.99,2.47-9.51,2.21-9.94-21.91,7.92-5.26-13.71-17.96-24.03-1.38-1.13-8.2-1.98-5.52-4.97,2.57.29,5.84-.39,8.29,0,.93.15,7.51,4.12,7.46,2.49-8.24-13.77-20.99-25.2-36.74-13.54-1.13-.56,4.33-11.19,4.7-12.15,5.42-14.4,10.72-28.9,15.19-43.65"/>
    <path class="st10" d="M97.65,144.69c3.13-.03,11.45,21.98,8.29,25.97-2.49-5.12-13.75-16.7-12.43-21.82.15-.58,3.85-4.14,4.14-4.14Z"/>
  </g>
  <path class="st1" d="M99.58,257.4c-1.44,2.17-4.08,4.07-4.97,6.63-.72-.11-.99,1.63-2.21.83-.75-.49-1.75-4.56-1.66-5.8.39-5.33,7.46-6.53,11.6-5.8-1.17,1.21-1.85,2.76-2.76,4.14Z"/>
  <path class="st9" d="M87.98,78.39c.09.07.54.52.55.55.68,1.41-.12,1.06,0,2.21.69,6.83-.16,9.33,1.66,16.57-2.6,1.65-4.74-6.33-4.97-8.01-.3-2.21-1.17-12.52,2.76-11.33Z"/>
  <path class="st5" d="M64.78,254.63l-2.76-.55v-.55c3.32-.9,12.04-9.64,19.34-11.05,1.06-.21,3.81-.44,4.97-.28-5.26,2.58-11.88,4.96-13.54,11.33-1.39-.28.44-3.94-1.1-4.42-.42-.13-6.1,4.79-6.91,5.52Z"/>
  <path class="st2" d="M85.22,254.08c.95,1.59-3.82,8.46-4.97,9.39-5.93,4.8-3.63-11.47,4.97-9.39Z"/>
  <path class="st11" d="M68.65,262.37c-.28-.2-.79.58-.83.55-1.58-1.3-2.26-3.56-1.93-5.52.72-.25,5.76-4.69,6.63-.83.34,1.5-3.65,4.09-3.87,5.8Z"/>
  <path class="st7" d="M74.72,258.5l-1.93,7.18c-.51-.07-.17-1.6-.28-1.66-.64-3.03,1.06-3.96,2.21-5.52Z"/>
  <path class="st4" d="M80.8,22.59c-.48.6-.68,1.54-1.1,2.21-1.14,1.78-2.77,3.37-3.31,5.52-1.76.29-2.69,1.78-3.87,2.76-2.77,2.3-5.53,6.35-7.46,9.39l-1.1-2.21c-.36,0-2.17,3.22-2.49,3.87-.52-4.12-2.87,1.68-4.97,1.93,3.32-5.48-2.39-2.03.55-7.73l-1.66-.83c.42-1.72.95-3.47,1.1-5.25-3.17,4.61-3.85,11.3-4.42,16.85-.42.85-.64,2.07-.83,2.21-.08.06-.43-1.93-1.38-.83,0,2.49.01,4.98,0,7.46h-1.66c-.41-4.91-1.01-10-1.1-14.92-.03-1.37,1.25-2.78-.55-3.31,3.1-7.57,2.36-20.03,6.08-28.18,1.12.3,1.05-.53,1.1-.55,2.16-1.03,10.23-5.26,11.6-5.52,10.36-1.98,17.01,5.03,23.2,11.88-3.82,2.64-4.61,1.36-7.73,5.25Z"/>
  <path class="st10" d="M55.39,37.51c-.79,3.24-1.96,8.85-3.31,11.6.57-5.55,1.25-12.24,4.42-16.85-.16,1.78-.69,3.53-1.1,5.25Z"/>
  <g>
    <path class="st8" d="M61.46,44.14c-2.63,5.32-2.97,12.14-2.76,17.96.95.9,1.41-.76,1.66-1.38.25.06,1.03.48,1.1.55,5.8,5.67,12.43-1.71,18.78,4.97-.95,3.79-1.53,7.75-2.21,11.6-.68,1.01-3.86,2.33-3.04,4.42,1.35.73,6.31-3.42,7.46-3.87l4.42,37.85c-2.11.57-.76-3.58-1.1-4.42-.45-1.1-2.11-.67-2.21-1.1-.26-1.1.81-3.56.55-4.97-1.09-5.89-2.25-11.8-3.31-17.68-.14,5.44-1.44,10.81-3.59,15.75-1.27-1.01,1.78-5.31-.83-4.7.32,2.16-2.43,9.79-2.21,11.05.41,2.33,2.29.52,2.76,2.21s-7.77,20.66-9.39,23.48c-1.49,2.61-4.85,8.33-7.18,9.94-.5.34-2.12,1.93-2.76.83l-4.97-42.82c-.46-15.26-2.83-30.53-2.76-45.86.01-2.48,0-4.97,0-7.46.95-1.1,1.31.88,1.38.83.19-.14.41-1.36.83-2.21,1.35-2.76,2.52-8.37,3.31-11.6l1.66.83c-2.95,5.7,2.77,2.25-.55,7.73,2.1-.25,4.46-6.06,4.97-1.93Z"/>
    <g>
      <path class="st3" d="M49.86,57.95c-.06,15.32,2.3,30.6,2.76,45.86l-.83-2.76c-1.55-.23-2.42,1.13-3.59,1.66,5.29-4.42,3.18-4.46,2.76-10.5-.08-1.17-.54-2.1-.55-2.21-.73-10.71-1.32-21.34-2.21-32.04h1.66Z"/>
      <path class="st10" d="M75.55,89.44c1.08.04-.82,19.53-3.87,20.99-3.63-.15,4.21-19.16,3.87-20.99Z"/>
      <path class="st10" d="M74.45,64.58c.77,4.22-.48,11.21-3.31,14.36l3.31-14.36Z"/>
      <path class="st10" d="M71.68,88.33c1.21.17-2.58,18.46-3.31,19.89-.1-6.77,2.03-13.34,3.31-19.89Z"/>
      <path class="st10" d="M67.82,91.65c.89.13-1.62,16.42-2.76,17.68.23-5.94,1.41-11.91,2.76-17.68Z"/>
      <path class="st10" d="M67.26,70.65c.73.12-.38,9.73-1.66,10.5-.97-1.02,1.13-10.58,1.66-10.5Z"/>
    </g>
  </g>
</svg>