<?xml version="1.0" encoding="UTF-8"?>
<svg id="Layer_1" xmlns="http://www.w3.org/2000/svg" version="1.1" viewBox="0 0 220.09 277.58">
  <!-- Generator: Adobe Illustrator 29.4.0, SVG Export Plug-In . SVG Version: 2.1.0 Build 152)  -->
  <defs>
    <style>
      .st0 {
        fill: #3f2035;
      }

      .st1 {
        fill: #c0afbb;
      }

      .st2 {
        fill: #866175;
      }

      .st3 {
        fill: #320a10;
      }

      .st4 {
        fill: #5c415b;
      }

      .st5 {
        fill: #1d2235;
      }

      .st6 {
        fill: #49364e;
      }

      .st7 {
        fill: #836a86;
      }

      .st8 {
        fill: #303950;
      }

      .st9 {
        fill: #1d1a31;
      }

      .st10 {
        fill: #7d3344;
      }

      .st11 {
        fill: #8e7e91;
      }

      .st12 {
        fill: #150f1c;
      }
    </style>
  </defs>
  <path class="st10" d="M141.28,64.69c1.03,9.21,11.54,17.64,19.89,20.99.42,6.04,2.53,6.08-2.76,10.5-6.05,2.75-12.94,6.38-19.06,9.39-.87.43-2.13,1-1.93,2.21-14.2-9.12-31.13-34.63-25.41-51.93,2.34-7.08,15.54-18.17,16.02-22.65,6.56,8.87,7.62,21.95,13.26,31.49Z"/>
  <path class="st3" d="M112,55.85c-5.71,17.3,11.21,42.81,25.41,51.93,1.18.76,2.65,1.2,3.87,1.93l-15.47,12.43c-1.45-1.26-1.7,2.6-4.14,2.21-20.24-13.74-20.87-49.01-9.67-68.51Z"/>
  <g>
    <path class="st12" d="M119.73,9.44c.88,3.63,4.82,9.98,6.08,14.09.76,2.5,2.47,7.25,2.21,9.67-.48,4.48-13.68,15.57-16.02,22.65-11.21,19.5-10.57,54.76,9.67,68.51,2.44.39,2.7-3.47,4.14-2.21,11.44,1.19,20.47,12.07,22.38,22.65-3.69-2.49-8.59-4.7-12.98-2.49,8.45,5.72,11.29,14.15,7.18,23.76,4.08,2.43,9.22,2.91,13.81,2.21l-9.94,13.81,4.97.55c-6.47,4.21-26.02,47.73-21.27,51.11,1.53,1.08,7.64-.78,10.77,4.14.92,1.45,2.39,7.78,2.21,9.12-.71,5.22-16.46,4.51-17.96.55-1.59.91-.41,3.29-.83,4.14-2,4.04-27.06,3.04-31.77,8.01-1.69-.04,1-2.13,1.1-2.21,1.55-1.19,14.38-6.96,4.97-9.39-1.15-.3-.76,1.1-.83,1.1-5.81.17-7.22,1.97-10.5,6.63,4.42-11.45,13.56-6.15,21.55-16.02,4.04-4.99,2.77-5.29,4.42-9.94,5.05-14.25,10.97-31.35,6.08-46.13-4.33-13.07-29.39-42.11-39.78-52.49-1.5-1.5-1.94-2.35-4.42-1.93,7.73-4.73,15.23-10.58,17.68-19.61s2.68-20.56,4.97-29.83l1.38,4.7c.28-1.1.57-2.21.83-3.31,2.05-8.67,4.11-15.38,7.18-23.76,2.36-6.45,5.33-12.71,7.18-19.34,2.31-5.76,4.1-11.18,3.04-17.68-1.84-1.4-12.28,18.14-12.98,19.06-1.45,1.91-3.91,2.3-4.97,3.59,3.05-5.24.51-10.13,2.76-15.19,2.05-4.62,11.02-8.22,11.6-9.39,1.15-2.31-.02-8.91,6.08-9.12Z"/>
    <path class="st5" d="M114.21,38.17c-.28.69-3.05,4.99-3.87,5.8l-3.31,13.54c-3.07,8.37-5.13,15.08-7.18,23.76-2.78-.65.25-5.52-.55-6.91-.37-.64-1.82.09-2.21-.55-.12-.19,2.45-4.76,0-3.87-3.76,17.28-8.52,37.79-18.78,52.49-.62.88-4.93,7.18-6.08,4.7,4.32-21.1,13.69-67.81,27.07-83.98,1.06-1.29,3.52-1.68,4.97-3.59.7-.92,11.15-20.46,12.98-19.06,1.06,6.5-.73,11.92-3.04,17.68Z"/>
    <path class="st9" d="M99.84,81.26c-.26,1.1-.55,2.21-.83,3.31l-1.38-4.7c-2.29,9.27-2.54,20.84-4.97,29.83s-9.94,14.89-17.68,19.61c-.69.42-2.98,2.9-4.14,2.21.19-1.73,1.01-2.6,1.38-4.42,1.15,2.48,5.46-3.81,6.08-4.7,10.27-14.7,15.03-35.21,18.78-52.49,2.45-.9-.12,3.67,0,3.87.39.64,1.84-.08,2.21.55.81,1.39-2.23,6.25.55,6.91Z"/>
    <path class="st0" d="M108.68,239.83c-6.57-4.26-14.17-3.59-19.61,2.21-.41-.18-1.09-5.52-2.49-6.08l.83-2.21c-2.06.57-4.46-.54-6.35-.55,10.2-3.03,23.89,4.13,32.04-3.31-1.65,4.66-.38,4.96-4.42,9.94Z"/>
    <path class="st4" d="M81.06,233.2c1.89.02,4.3,1.12,6.35.55l-.83,2.21c-3.47-1.38-8.37,2.58-11.05,3.87-6.36,3.05-6.81,2.28-11.6,8.84-1.96-1.2,1.26-7.06,1.1-7.46-1.33.53-2.18.09-1.1-1.1,1.94-2.16,8.92-.57,8.84-4.7,3.5-1.04,3.62-2.25,8.29-2.21Z"/>
    <path class="st7" d="M63.93,248.67c-.47.65-1.82,2.46-1.1,3.31-1.68.91-2.89,5.13-4.97,1.93l2.21-7.18c-1.03.49-1.6.63-2.76.83,2.99-8.64,7.54-9.8,15.47-12.15.08,4.13-6.9,2.54-8.84,4.7-1.08,1.2-.23,1.64,1.1,1.1.16.4-3.07,6.26-1.1,7.46Z"/>
    <path class="st1" d="M97.63,249.22c-1.68,7.5-11.89,10.06-12.15,19.34-.18,0-.37,0-.55,0-.02-2.72.05-5.62.55-8.29.09-.46,1.33-3.58,1.66-4.42,3.28-4.66,4.69-6.46,10.5-6.63Z"/>
    <path class="st6" d="M86.58,235.96c1.39.55,2.08,5.9,2.49,6.08,5.45-5.8,13.04-6.47,19.61-2.21-7.99,9.87-17.12,4.58-21.55,16.02-.32.84-1.57,3.96-1.66,4.42l-.55-8.84c2.4-2.51,5.24-6.18,7.18-9.12-1.11-1.9-8.37,6.47-9.39,6.91-2.61,1.1-6.44-.95-7.73,1.66-5.6-.66-4.02,5.45-3.04,8.84l-3.04-4.97c2.35-4.37,4.28-10.36,6.63-14.92,2.68-1.29,7.58-5.25,11.05-3.87Z"/>
    <path class="st8" d="M114.21,38.17c-1.85,6.63-4.82,12.89-7.18,19.34l3.31-13.54c.81-.81,3.59-5.11,3.87-5.8Z"/>
    <path class="st0" d="M75.53,239.83c-2.35,4.56-4.28,10.55-6.63,14.92-1.22,2.27-1.81,5.39-3.87,2.21,2.23-1.6.62-4.77,3.31-5.8-.9-1.49-3.08-.33-4.42.28-.37.17-.75.36-1.1.55-.72-.86.63-2.67,1.1-3.31,4.8-6.56,5.24-5.79,11.6-8.84Z"/>
    <path class="st4" d="M84.92,251.43c-1.84,1.93-5.3,6.71-7.73,6.63.45-4.11,6.06-5.24,5.52-8.84,1.03-.43,8.28-8.8,9.39-6.91-1.94,2.93-4.79,6.6-7.18,9.12Z"/>
    <path class="st11" d="M82.71,249.22c.54,3.6-5.07,4.73-5.52,8.84-3.16-.11-3.44-4.69-2.21-7.18s5.12-.56,7.73-1.66Z"/>
    <path class="st2" d="M65.03,256.95c-1.2-1.85-1.26-3.4-1.1-5.52,1.34-.61,3.52-1.76,4.42-.28-2.69,1.03-1.09,4.21-3.31,5.8Z"/>
  </g>
</svg>