<?xml version="1.0" encoding="UTF-8"?>
<svg id="Layer_1" xmlns="http://www.w3.org/2000/svg" version="1.1" viewBox="0 0 1000 1000">
  <!-- Generator: Adobe Illustrator 29.4.0, SVG Export Plug-In . SVG Version: 2.1.0 Build 152)  -->
  <defs>
    <style>
      .st0 {
        fill: #f8eadc;
      }

      .st1 {
        fill: #feb48c;
      }

      .st2 {
        fill: #fff;
      }

      .st3 {
        fill: #8b4f17;
      }

      .st4 {
        fill: #d28146;
      }
    </style>
  </defs>
  <g id="Generative_Object">
    <path class="st3" d="M126.93,714.91c4.3,124.22,172.76,156.88,223.88,43.71,30.43-67.37-16.19-92.16,65.04-148.82,71.88-50.14,170.89-110.55,247.88-152.87,97.87-53.8,93.81,8.4,174.9,6.19,119.06-3.24,159.74-165.39,50.52-220.06,136.43,63.53,90.91,262.14-70.87,236.17-66.66-10.7-64.49-37.83-138.13,1.42-49.38,26.32-261.35,152.95-287,187.69-18.43,24.97-13.81,58.69-22.87,87.17-49.48,155.57-245.8,107.46-243.35-40.61Z"/>
    <path class="st3" d="M871.36,234.42c-2.19-.75-8.89,5.02-12.92-3.61-1.18-2.52,3.22-29.33,2.95-35.68-1.84-42.15-19.5-74.41-52.86-100.17,48.45,29.85,71.02,83.91,62.84,139.46Z"/>
    <path class="st3" d="M127.71,693.04c-44.93-15.43-87.34-55.85-93.11-104.75,14.61,50.84,47.61,74.75,95.68,91.58,4.5,3.72-2.48,12.33-2.57,13.17Z"/>
    <g>
      <path class="st4" d="M808.52,94.97c33.36,25.76,51.02,58.01,52.86,100.17.28,6.35-4.12,33.16-2.95,35.68,4.03,8.63,10.73,2.87,12.92,3.61,5.14,1.75,12.73,6.09,17.8,8.63,109.22,54.67,68.54,216.81-50.52,220.06-81.09,2.21-77.03-59.99-174.9-6.19-76.99,42.32-176,102.73-247.88,152.87-81.23,56.66-34.62,81.45-65.04,148.82-51.11,113.17-219.58,80.51-223.88-43.71.12-7.04.05-14.91.77-21.86.09-.84,7.07-9.45,2.57-13.17-48.08-16.83-81.07-40.74-95.68-91.58-22.14-77.03,43.59-151.52,122.43-146.79,66.22,3.98,73.9,67.27,148.39,29.67,101.09-51.03,201.71-131.47,301.31-187.61,43.51-38.74,6.92-80.1,23.92-128.81,26.23-75.14,111.86-100.47,177.87-59.79Z"/>
      <path class="st0" d="M204.91,474.35c8.92,4.83,8.43,7.54,14.72,12.31,28.93,21.95,45.5,24.53,80.35,7.47,108.16-52.95,217.67-143.12,324.55-201.94,47.62-41.9,8.03-73.26,20.95-116.28,20.25-67.44,97.22-94.2,156.8-59.28,26.84,15.73,39.31,43.83,44.89,75.68,1.58,10.82-5.67,28.19-3.44,37.76,4.36,18.71,22.79,14.67,37.09,22.57,31.12,17.2,52.97,52.38,55.83,87.64,4.19,51.62-36.74,97.48-85.7,108.1-54.95,11.92-96.12-41.94-153.25-23.11-94.29,66.36-224.34,121.32-313.23,191.39-56.81,44.79-15.27,113.68-63.84,162.34-33.54,33.6-89.68,45.18-130.51,18.11-18.1-12-33.28-30.78-41.98-50.74l-4.1-26.88c-.45-8.22,6.6-37.89,4.43-41.94-.32-.6-4.43-1.44-4.57-1.64-14.39-19.45-18.88-10.65-37.58-20.48-27.37-14.39-48.66-43.05-52.54-73.63-10.37-81.67,79.46-146.29,151.14-107.47Z"/>
      <g>
        <path class="st3" d="M936.65,340.29c12.23,53.27-32.35,102.57-82.52,113.26-54.47,11.61-95.78-42.4-153.25-23.11-93.59,66.63-226.74,121.87-314.52,192.19-47.22,37.83-23.4,92.3-43.89,134-27.49,55.94-102.11,81.86-152.35,40.49,40.82,27.07,96.97,15.48,130.51-18.11,48.57-48.66,7.03-117.55,63.84-162.34,88.89-70.08,218.95-125.03,313.23-191.39,57.14-18.83,98.31,35.03,153.25,23.11,48.96-10.62,89.89-56.48,85.7-108.1Z"/>
        <path class="st2" d="M802.28,116.64c-59.58-34.92-136.55-8.16-156.8,59.28-12.92,43.03,26.67,74.39-20.95,116.28-106.88,58.82-216.39,148.99-324.55,201.94-34.85,17.06-51.42,14.48-80.35-7.47,28.41,15.6,52.28,14.28,81.04-.08,106.91-53.38,213.9-139.89,319.39-198.75,47.7-42.19,6.63-77.39,23.73-123.34,23.49-63.13,106.36-94.6,158.5-47.85Z"/>
        <path class="st2" d="M204.91,474.35c-71.68-38.82-161.51,25.8-151.14,107.47-26.52-82.44,82.28-158.97,151.14-107.47Z"/>
        <path class="st2" d="M148.13,746.39c-10.27-23.54-8.39-46.12-4.24-70.45.14.2,4.25,1.03,4.57,1.64,2.17,4.05-4.88,33.72-4.43,41.94l4.1,26.88Z"/>
        <path class="st3" d="M843.73,230.08c-2.23-9.57,5.02-26.94,3.44-37.76,2.2,12.55,4.3,26.4-3.44,37.76Z"/>
        <path class="st2" d="M740.56,409.54c38.72,4.47,65.76,32.56,103.72,25.14,52.97-10.36,90.29-60.33,74.97-113.95,26.33,63.46-28.23,125.41-95.43,121.23-22.96-1.43-27.85-11.16-45.48-17.4-69.07-24.43-93.1-1.89-152.06,32.29-85.15,49.36-166.99,105.08-250.96,156.55-56,49.32-13.7,119.74-65.62,165.22-44.86,39.29-105.74,33.29-137.7-16.66,37.09,48.48,104.77,46.52,143.74.46,25.76-30.45,16.14-78.78,29.65-118.08,7.18-11.41,14.79-26.64,25.45-35.3,88.19-71.61,224.7-125.65,317.6-195.87,17.88-5.55,33.92-5.73,52.12-3.63Z"/>
        <path class="st3" d="M805.88,134.02l-21.48-11.71c-48.19-24.73-108.09,6.38-125.1,55.77-9.73,28.25,5.58,45.16,2.7,72.29-1.89,17.82-11.95,28.93-18.84,44.59-4.39,1.86-5.5,5.11-8.24,6.86-99.88,63.8-230.82,160.45-335.53,208.7-17.95,8.27-45.09,10-63.45,2.6-22.14-8.93-40.71-36.94-65.32-33.67-62.42-10.71-117.82,48.71-101.15,110.5-26.26-61.71,32.83-123.18,95.73-117.85,48.32,4.1,64.7,64.18,132.29,32.47,84.65-39.71,218.34-127.55,297.74-181.84,31.11-21.27,61.42-41.22,63.77-82.99,1.49-26.46-13.33-41.41-1.91-71,22.22-57.56,104.51-82.85,148.78-34.72Z"/>
        <path class="st4" d="M170.63,479.45c-11.45,1.52-47.36,15.18-57.86,23.21-37.8,28.91-42.4,115.38.38,137.88,15.24,8.02,22.41.8,35.19,16.61-19.7-11.47-39.13-10.86-56.67-28.32-13.3-13.23-17.48-21.39-22.2-38.88-16.67-61.79,38.74-121.21,101.15-110.5Z"/>
        <path class="st4" d="M740.56,409.54c-18.2-2.1-34.24-1.92-52.12,3.63-92.9,70.22-229.41,124.26-317.6,195.87-10.67,8.66-18.28,23.89-25.45,35.3,8.5-24.74,17.39-24.1,25.15-38.68,2.07-3.89.65-20.42,10.31-29.52,7.91-7.45,9.33.96,19.62-1.41,13.48-3.11,23.71-16.97,17.06-30.13,2.98-3.22,7.24-7.64,10.67-10.15,48.84-35.63,137.49-91.6,190.93-119.53,4.64-2.43,11.83-1.41,17.73-7.37,3.02-3.06,2.59-11.26,4.91-13.72,3.04-3.23,39.62-29.89,44.74-32.94,21.48-12.79,24.87-1.09,44.58,7.26,10.85,4.6,38.87,3.61,26.31,23.87-4.95,7.98-19.39,10.42-16.83,17.51Z"/>
        <path class="st4" d="M784.4,122.32c-60.01-9.36-103.59,18.17-111.02,80.05-2.18,18.2,3.37,35.29-2.98,54.41-4.76,14.34-18.85,25.88-18.4,38.08-1.13-.68-6.79-.76-8.84.11,6.89-15.66,16.95-26.76,18.84-44.59,2.88-27.13-12.43-44.04-2.7-72.29,17.01-49.39,76.91-80.5,125.1-55.77Z"/>
        <path class="st1" d="M417.53,544.6c6.65,13.15-3.58,27.02-17.06,30.13-52.34-10.86-1.23-66.31,17.06-30.13Z"/>
        <path class="st1" d="M641.77,393.84c-2.32,2.46-1.88,10.66-4.91,13.72-5.9,5.96-13.09,4.95-17.73,7.37-39.42-16.48,4.91-63.12,22.64-21.09Z"/>
        <path class="st1" d="M643.16,294.96c2.05-.87,7.71-.79,8.84-.11,24.01,14.48-14.28,41.64-17.09,6.97,2.74-1.75,3.85-5,8.24-6.86Z"/>
        <g>
          <path class="st4" d="M170.63,479.45c24.61-3.27,43.18,24.75,65.32,33.67,18.36,7.41,45.49,5.68,63.45-2.6,104.71-48.25,235.65-144.91,335.53-208.7,2.81,34.67,41.1,7.51,17.09-6.97-.46-12.19,13.63-23.73,18.4-38.08,6.35-19.12.79-36.21,2.98-54.41,7.43-61.88,51.01-89.41,111.02-80.05l21.48,11.71c15.17,16.5,26.81,39.83,27.69,62.23,1,25.51-12.96,27.48,5.22,54.7,10.02,15,21.83,13.12,38.08,18.4l19.79,11.86c11.59,12.59,16.3,24.37,22.6,39.53,15.33,53.62-22,103.6-74.97,113.95-37.96,7.42-64.99-20.67-103.72-25.14-2.57-7.09,11.88-9.52,16.83-17.51,12.57-20.27-15.45-19.28-26.31-23.87-19.71-8.35-23.09-20.05-44.58-7.26-5.11,3.04-41.69,29.71-44.74,32.94-17.72-42.03-62.06,4.61-22.64,21.09-53.44,27.93-142.09,83.9-190.93,119.53-3.44,2.51-7.69,6.92-10.67,10.15-18.29-36.18-69.4,19.26-17.06,30.13-10.29,2.37-11.72-6.04-19.62,1.41-9.65,9.1-8.23,25.63-10.31,29.52-7.76,14.58-16.65,13.94-25.15,38.68-13.51,39.3-3.88,87.63-29.65,118.08-38.97,46.07-106.65,48.03-143.74-.46-8.24-12.88-9.5-15.22-12.85-29.5-5.91-25.23,7.59-40.87-2.05-61.11-1.79-3.75-6.19-11.03-8.76-14.2-12.78-15.81-19.95-8.59-35.19-16.61-42.78-22.5-38.19-108.97-.38-137.88,10.5-8.03,46.41-21.69,57.86-23.21Z"/>
          <g>
            <path class="st3" d="M896.65,281.2l-19.79-11.86c-16.24-5.28-28.05-3.39-38.08-18.4,19.62,11.57,40.71,11.62,57.86,30.25Z"/>
            <path class="st3" d="M159.15,732.46c-12.38-19.68.88-40.88-2.05-61.11,9.64,20.25-3.87,35.88,2.05,61.11Z"/>
            <path class="st1" d="M455.66,460.5c18.05-17.86,39.87,9.78,26.55,22.83-17.34,16.99-39.9-9.63-26.55-22.83Z"/>
            <path class="st1" d="M653.99,339.97c16.66-13.69,36.38,11.67,21.88,23.93-17.15,14.51-35.89-12.42-21.88-23.93Z"/>
            <path class="st1" d="M416.22,468.78c15.99-14.57,37.32,11.43,21.88,23.93-16.05,12.99-34.3-12.62-21.88-23.93Z"/>
            <path class="st1" d="M606.78,329.88c13.02-12.8,29,6.82,19.19,16.68-13.23,13.29-28.83-7.21-19.19-16.68Z"/>
            <path class="st1" d="M488,403.13c13.95-14.94,31.18,11.58,13.23,18.57-10.57,4.12-19.52-11.84-13.23-18.57Z"/>
            <path class="st1" d="M579.36,343.22c10.73-11.43,26.17,6.08,16.31,14.89-11.01,9.84-23.78-6.94-16.31-14.89Z"/>
          </g>
        </g>
      </g>
    </g>
  </g>
</svg>