<?xml version="1.0" encoding="UTF-8"?>
<svg id="Layer_1" xmlns="http://www.w3.org/2000/svg" version="1.1" viewBox="0 0 1000 1000">
  <!-- Generator: Adobe Illustrator 29.4.0, SVG Export Plug-In . SVG Version: 2.1.0 Build 152)  -->
  <defs>
    <style>
      .st0 {
        fill: #b17436;
      }

      .st1 {
        fill: #a36429;
      }

      .st2 {
        fill: #2f4cf4;
      }

      .st3 {
        fill: #f6eac7;
      }

      .st4 {
        fill: #d9bb9b;
      }

      .st5 {
        fill: #2047ed;
      }

      .st6 {
        fill: #f1d8bd;
      }

      .st7 {
        fill: #c1a78f;
      }

      .st8 {
        fill: #fff;
      }

      .st9 {
        fill: #1831c4;
      }

      .st10 {
        fill: #2b3cd8;
      }

      .st11 {
        fill: #c6bbaf;
      }

      .st12 {
        fill: #5e7bf7;
      }

      .st13 {
        fill: #f4bb7d;
      }

      .st14 {
        fill: #ce8b46;
      }

      .st15 {
        fill: #e9d882;
      }

      .st16 {
        fill: #4e65ea;
      }
    </style>
  </defs>
  <g id="Generative_Object">
    <g>
      <path class="st7" d="M186.88,431.35c-122.1,122.1-112.85,330.37,21.13,439.29,210.3,170.97,513.7,7.52,486.84-261.01,50.82,277.54-263.75,463.3-489.42,299.2-147.87-107.53-165.58-331.11-38.33-459.8l19.77-17.67Z"/>
      <path class="st7" d="M637.35,467.75c-1.89-3.36-4.93-5.84-6.51-9.43l106.01-161.34c29.99,17.2,48.26,26.09,67.27-13.29,5.29,3.83-3.66,10.67-5.15,14.51-.8,2.07,3.87-.15,2.96,1.91-16.86,38.27-38.13,53.33-78.2,33.51l-86.39,134.13Z"/>
      <g>
        <path class="st8" d="M583.24,200.14l-.95,1.48c-7.67,20.59-31.38,46.1-31.2,67.98l-73.98,114.87c-132.03-34.71-269,22.48-329.71,147.27-46.58,95.74-20.52,266.67,62.53,335.94l-1.91,2.96c-133.98-108.92-143.23-317.2-21.13-439.29,79.66-72.81,179.12-100.66,284.85-77.61l102.62-159.33c1.97,1.39,5.77,3.59,8.89,5.73Z"/>
        <path class="st11" d="M736.85,296.98l-106.01,161.34c1.57,3.59,4.61,6.07,6.51,9.43,32.12,56.99,45.25,74.98,57.5,141.88,26.86,268.53-276.54,431.98-486.84,261.01l1.91-2.96c.22.18.52-4.54,5.61-.58,237.29,184.6,563.02-74.61,427.6-343.21-5.29-10.5-10.36-23.17-14.91-30.57-3.12-5.08-24.99-29.18-24.71-31.64,28.62-35.48,48.73-77.24,75.46-113.91,13.14-18.03,36.42-36.12,46.02-58.43,4,2.41,7.81,5.32,11.86,7.64Z"/>
        <path class="st6" d="M643.13,523.9c-5.04-3.23-4.61.36-3.6,3.97,2.59,9.3,9.37,18.36,9.99,28.45.53,8.72-8.12,38.48-7.13,43.64.76,4,14.92,15.74,10.63,22.57-4-8.27-6.78-10.93-11.53-17.91-49.43-72.54-157.53-143.22-237.55-178.16,27.7-10.15,60.37,10.73,62.84-30.82-41.34-6.23-85.96-6.09-124.79,9.8-1.81-.43-3.77-1.05-5.4-1.38-26.41-5.42-43.28-6.12-67.37,6.93-68.07,36.87-115.44,111.31-132.03,185.47,1.64-13.55,5.27-32.56,8.57-45.86,1.41-5.68,14.3-15.3,1.66-18.85,60.71-124.79,197.68-181.98,329.71-147.27l73.98-114.87c.21,24.72,33.23,44.54,51.75,56.4,22.42,14.35,49.29,33.56,76.14,21.78-26.74,36.67-46.85,78.43-75.46,113.91-.28,2.46,21.59,26.56,24.71,31.64,4.55,7.4,9.62,20.08,14.91,30.57Z"/>
        <path class="st4" d="M643.13,523.9c135.42,268.6-190.31,527.81-427.6,343.21-5.1-3.97-5.4.76-5.61.58-83.05-69.28-109.11-240.2-62.53-335.94,12.64,3.56-.25,13.18-1.66,18.85-3.29,13.29-6.93,32.31-8.57,45.86-10.65,88.25,17.63,181.86,85.49,241.69,152.2,134.19,389.02,58.03,434.47-140.62,2.38-10.38,5.73-33.52,5.17-43.85-.65-12.22-4.09-20.37-9.3-31.15,4.29-6.83-9.86-18.57-10.63-22.57-.98-5.16,7.66-34.91,7.13-43.64-.61-10.09-7.4-19.15-9.99-28.45-1-3.61-1.44-7.2,3.6-3.97Z"/>
        <path class="st6" d="M403.93,426.45c-.18-.08,0,1.23-3.92-.43-18.75-7.91-38.21-15.94-58.03-20.6,38.83-15.88,83.45-16.03,124.79-9.8-2.47,41.55-35.14,20.67-62.84,30.82Z"/>
        <g>
          <g>
            <path class="st15" d="M624.71,132.49c37.48,22.18,78.62,50.32,115.61,74.46,9.32,6.09,18.92,11.93,28.16,18.14,21.85,14.68,50.69,27.46,35.65,58.61-19.02,39.38-37.28,30.49-67.27,13.29-4.05-2.32-7.86-5.23-11.86-7.64-45.43-27.39-98.29-59.54-141.76-89.2-3.13-2.13-6.92-4.34-8.89-5.73-2.45-1.73-7.91-6.65-10.9-9.12-1.19-15.18-3.45-33.11,15.81-35.95l213.43,137.46c8.05-8.35,3.09-26.36-3.47-33.69-11.1-12.42-187.99-126.29-204.54-131.73-6.44-2.12-17.49,1.9-24.68.88,22.85-22.37,42.99-2.63,64.71,10.22Z"/>
            <path class="st3" d="M563.44,185.29c-10.34-8.55-20.95-13.62-20.05-30.74.67-12.67,7.72-23.59,16.6-32.29,7.19,1.02,18.24-3,24.68-.88,16.55,5.44,193.43,119.31,204.54,131.73,6.55,7.33,11.51,25.34,3.47,33.69l-213.43-137.46c-19.26,2.84-17,20.77-15.81,35.95Z"/>
          </g>
          <g>
            <path class="st0" d="M768.48,225.08c-9.24-6.21-18.84-12.05-28.16-18.14l42.73-50.07c6.49,2.05,27.91,5.48,33.79,2.89l-48.36,65.32Z"/>
            <path class="st0" d="M725,289.34c-9.6,22.31-32.88,40.41-46.02,58.43-26.85,11.78-53.73-7.43-76.14-21.78,9.96-7.37,30.58-16.64,30.85-28.36,4.16,3.77,4.18-1.57,5.83-2.54,4.17-2.46,25.15-15.96,20.46-20.37-33.41-5.57-53.59-50.2-77.69-73.1l.95-1.48c43.47,29.66,96.33,61.81,141.76,89.2Z"/>
            <g>
              <path class="st14" d="M783.05,156.88l-42.73,50.07c-36.99-24.14-78.12-52.28-115.61-74.46,13.81-23.22,24.67-48.39,39.46-71.04,16.77,40.89,77.92,82.47,118.87,95.43Z"/>
              <path class="st0" d="M671.75,122.94c17.35,3.84,4.29,23.83-6.68,10.38-3.57-4.38.8-11.68,6.68-10.38Z"/>
              <path class="st0" d="M709.23,142.89c10.27,2.61,2.69,14.17-3.82,5.93-2.17-2.74.45-6.78,3.82-5.93Z"/>
              <path class="st1" d="M672.83,98.47c1.77.14,8.08,5.36,6.72,7.47-3.19,4.97-13.72-8.03-6.72-7.47Z"/>
              <path class="st0" d="M724.58,154.87c2.9.83,4.74,4.22,2.8,7.05-7.5.13-9.35-8.92-2.8-7.05Z"/>
            </g>
            <g>
              <path class="st13" d="M816.84,159.77c-5.88,2.59-27.3-.84-33.79-2.89-40.96-12.96-102.1-54.55-118.87-95.43,2.85-4.37,1.25-9.17,9.07-14.08,19.42-12.21,85.85,25.84,102.56,37.74,13.53,9.64,73.65,60.27,41.04,74.66Z"/>
              <path class="st14" d="M747.21,70.89c13.54,7.62,40.42,26.69,51.45,37.33,14.78,14.25,37.95,48.67-2.26,42.58-30.5-4.62-108.11-52.83-119.63-81.24-14.76-36.41,58.48-5.4,70.44,1.33Z"/>
            </g>
            <g>
              <path class="st14" d="M639.51,295.09c-15.23-12.29-5.81,1.65-5.83,2.54-.27,11.72-20.89,20.99-30.85,28.36-18.52-11.86-51.54-31.67-51.75-56.4-.18-21.88,23.53-47.39,31.2-67.98,24.1,22.9,44.28,67.53,77.69,73.1,4.69,4.42-16.29,17.91-20.46,20.37Z"/>
              <path class="st1" d="M639.51,295.09c-1.64.97-1.67,6.31-5.83,2.54.02-.89-9.4-14.82,5.83-2.54Z"/>
              <path class="st1" d="M611.79,258.37c8.29,2.54.85,10.81-3.82,5.93-2.23-2.33.5-6.94,3.82-5.93Z"/>
            </g>
          </g>
        </g>
        <g>
          <path class="st2" d="M641.47,604.61c-5.06,22.35-9.74,44.62-17.53,66.29-.19.54-.76.94-.95,1.48-123.66-20.15-245.3-101.65-327.78-194.33,8.47-6.91,14.83-12.07,24.17-17.99,25.79-16.36,51.74-25.19,80.64-34.04,3.93,1.66,3.74.35,3.92.43,80.02,34.93,188.11,105.62,237.55,178.16Z"/>
          <path class="st12" d="M400.01,426.03c-28.9,8.85-54.84,17.68-80.64,34.04-9.59-2.39-19.56,15.71-28.4,13.16-4.75-1.37-15.22-28.94-22.75-31.43,1.09-.8,1.8-3.69,2.86-4.45,19.87-14.11,43.9-22.47,65.49-33.31,1.64.34,3.59.96,5.4,1.38,19.82,4.66,39.28,12.68,58.03,20.6Z"/>
          <path class="st5" d="M653,622.52c5.21,10.78,8.64,18.93,9.3,31.15-10.47,13.49-20.69,20.59-38.36,17.23,7.79-21.67,12.47-43.94,17.53-66.29,4.76,6.98,7.53,9.64,11.53,17.91Z"/>
          <path class="st5" d="M271.09,437.36l-1.88-26.38c24.09-13.05,40.96-12.35,67.37-6.93-21.59,10.84-45.62,19.21-65.49,33.31Z"/>
          <path class="st9" d="M222.66,838.14c57.43,21.4,145,41,203.68,15.85,3.54-1.52,8.92.4,13.14-4.12,88.86-19.82,152.87-94.53,183.51-177.48.2-.54.76-.94.95-1.48,17.67,3.36,27.89-3.75,38.36-17.23.55,10.33-2.8,33.46-5.17,43.85-45.45,198.65-282.27,274.81-434.47,140.62Z"/>
          <path class="st16" d="M319.37,460.07c-9.33,5.92-15.7,11.08-24.17,17.99-14.34,11.69-28.53,23.81-40.97,37.57-9.83,10.87-27.77,42.02-35.42,48.48-3.89,3.28-19.03,1.17-24.2.14l2.73-28.65c-3.75,9.82-27.63,80.65-23.85,84.24.36.35,9.22-1.29,9.58,3.03.21,2.56-13.23,39.12-14.87,49.14-2.89,17.56.43,34.21-.68,49.89-.16,2.33,1.64,5.51-3.13,3.23-37.32-115.4,8.94-213.29,103.84-283.32,7.52,2.49,18,30.06,22.75,31.43,8.83,2.55,18.81-15.56,28.4-13.16Z"/>
          <g>
            <path class="st10" d="M271.09,437.36c-1.07.76-1.77,3.64-2.86,4.45-94.9,70.03-141.15,167.92-103.84,283.32,4.77,2.29,2.96-.89,3.13-3.23,1.11-15.68-2.21-32.33.68-49.89,1.65-10.02,15.08-46.58,14.87-49.14-.36-4.31-9.22-2.68-9.58-3.03-3.78-3.59,20.1-74.42,23.85-84.24l-2.73,28.65c5.18,1.03,20.32,3.15,24.2-.14,7.65-6.46,25.59-37.62,35.42-48.48,12.44-13.76,26.63-25.88,40.97-37.57,82.49,92.69,204.12,174.18,327.78,194.33-30.64,82.95-94.65,157.66-183.51,177.48,27.45-29.44-53.32-35.86-13.14,4.12-58.69,25.15-146.25,5.55-203.68-15.85-67.86-59.83-96.14-153.44-85.49-241.69,16.59-74.16,63.96-148.6,132.03-185.47l1.88,26.38Z"/>
            <g>
              <path class="st16" d="M547.96,705.85c35.72,19.43,7.65,69.83-23.04,58.56-46.62-17.12-13.06-78.2,23.04-58.56Z"/>
              <path class="st16" d="M187.69,605.92l23.01-29.22c71.87,6.52,27.19,94.41-16.04,52.58-6.46-6.25-6.36-15.42-6.97-23.36Z"/>
              <path class="st16" d="M231.13,709.39c36.27,16.64,9.38,64.89-19.22,52.63-36.5-15.65-10.72-66.37,19.22-52.63Z"/>
              <path class="st16" d="M301.32,756.7c45.81,17.23-.72,76.72-28.74,38.11-12.19-16.79,9.02-45.53,28.74-38.11Z"/>
              <path class="st16" d="M339.68,615.74c32.47,12.83,10.86,59-16.35,48.18-34.97-13.9-10.17-58.67,16.35-48.18Z"/>
              <path class="st16" d="M503.52,647.87c36.79,16.58,2.23,70.66-28.21,40.55-17.25-17.07,5.97-50.57,28.21-40.55Z"/>
              <path class="st16" d="M456.19,747.4c27.89,10.01,9.93,47.95-12.11,38.33-25.46-11.11-7.78-45.48,12.11-38.33Z"/>
              <path class="st16" d="M284.54,561.36c24.11,9.34,1.27,42.8-16.76,22.76-8.74-9.71,4.7-27.43,16.76-22.76Z"/>
              <path class="st16" d="M210.7,576.7l-23.01,29.22c-.79-10.27-.54-18.4,3.47-28.17,6.8-.44,12.62-1.67,19.54-1.04Z"/>
              <path class="st16" d="M439.48,849.87c-4.22,4.52-9.6,2.6-13.14,4.12-40.18-39.98,40.59-33.56,13.14-4.12Z"/>
            </g>
          </g>
        </g>
      </g>
    </g>
  </g>
</svg>