<?xml version="1.0" encoding="UTF-8"?>
<svg id="Layer_1" xmlns="http://www.w3.org/2000/svg" xmlns:xlink="http://www.w3.org/1999/xlink" version="1.1" viewBox="0 0 1000 1000">
  <!-- Generator: Adobe Illustrator 29.4.0, SVG Export Plug-In . SVG Version: 2.1.0 Build 152)  -->
  <defs>
    <style>
      .st0 {
        fill: #d8d1ca;
      }

      .st1 {
        fill: #fef5ea;
      }

      .st2 {
        fill: #5f6269;
      }

      .st3 {
        fill: #222226;
      }

      .st4 {
        fill: url(#linear-gradient);
      }

      .st5 {
        fill: #89919d;
      }

      .st6 {
        fill: #bcb5af;
      }

      .st7 {
        fill: #a9abb1;
      }

      .st8 {
        fill: #36373c;
      }

      .st9 {
        fill: #fff;
      }

      .st10 {
        fill: #d9dde1;
      }

      .st11 {
        fill: #494b51;
      }

      .st12 {
        fill: #a4afbf;
      }

      .st13 {
        fill: #0e0f13;
      }
    </style>
    <linearGradient id="linear-gradient" x1="415.41" y1="702.79" x2="195.26" y2="714.24" gradientUnits="userSpaceOnUse">
      <stop offset="0" stop-color="#474f5e"/>
      <stop offset="1" stop-color="#5f6876"/>
    </linearGradient>
  </defs>
  <g id="Generative_Object">
    <g>
      <path class="st12" d="M252.8,526.41c19.91,25.5,45.56,47.99,69.1,70.74,1.62,10.13.03,13.53-5.48,21.39l-7.68,1.1c3.68-6.23,7.61-11.57,4.39-19.19l-65.26-65.26c-18.62,15.86-34.75,34.42-52.1,51.55-30.98,30.59-79.1,70.08-96.51,109.13-26.76,60.01-28.23,124.63-13.71,188.09,1.02,1.25,12.85.57,15.35,1.1,29.86,6.25,61.47,9.44,94.87,5.48,37.21-4.41,74.68-16.38,106.93-35.1l133.26-132.16c-21.56-20.99-43.04-48.29-66.9-66.35-2.98-2.26-2.04-5.27-9.87-5.48,4.6-2.33,7.75-4.44,13.16-5.48,11.86,14.28,67.91,61.54,72.39,71.84.89,2.06,1.51,4.31,1.1,6.58-1.8,9.92-127.54,124.67-143.13,142.03-64.54,40.7-148.11,40.08-219.9,20.29-11.97-47.54-17.7-97.37-7.68-145.87,4.42-21.39,17.55-57.25,30.71-74.58,20.02-26.37,106.9-113.33,133.26-134.35,3.81-3.04,8.67-8.63,13.71-5.48Z"/>
      <path class="st4" d="M308.73,619.64c-9.53,16.16-32.8,35.8-44.97,52.1-19.91,26.68-50.94,78.97,12.61,46.61,24.71-12.58,62.54-54.83,80.06-61.42,3.52-1.32,9.11-1.9,12.61,0,23.86,18.06,45.35,45.36,66.9,66.35l-133.26,132.16c-32.26,18.72-69.72,30.69-106.93,35.1v-303.8c17.34-17.13,33.48-35.69,52.1-51.55l65.26,65.26c3.23,7.63-.71,12.96-4.39,19.19Z"/>
      <path class="st5" d="M195.77,586.74v303.8c-33.4,3.96-65.01.76-94.87-5.48-2.5-.52-14.34.15-15.35-1.1-14.52-63.46-13.05-128.08,13.71-188.09,17.41-39.04,65.54-78.53,96.51-109.13Z"/>
    </g>
    <g>
      <g>
        <path class="st13" d="M715.63,282.93c-.63-2.19-3-3-4.39-4.39-1.09-1.09-2.21-2.2-3.29-3.29-4.07-4.08-10.94-10.27-14.26-14.26-1.25-1.5-4.13-3.83-4.39-4.39-.72-1.58-1.69-2.98-1.1-4.94,2.65-8.77,78.84-73.48,80.06-78.97,1.1-4.96-2.71-25.81-2.19-34,1.86-29.51,20.15-46.15,37.29-66.9,5.58-6.76,12.75-17.24,22.48-12.61l86.1,86.1c5.39,13.06-12.54,18.68-18.1,23.58-10.44,9.2-22.23,23.09-35.1,28.52-19.44,8.2-40.92,5.06-61.42,6.58-25.2,26.26-50.46,52.73-76.77,77.87-1.03.98-4.75.92-4.94,1.1Z"/>
        <g>
          <path class="st9" d="M880.14,160.1c-12.69,11.09-21.34,17.66-38.39,20.84-7.55,1.41-47.77,3.9-50.45-1.65-2.91-32.38-8.4-65.67,20.29-88.29,22.35,23.45,46.81,45.08,68.55,69.1Z"/>
          <path class="st7" d="M779.24,179.84l-79.51,77.87,69.64-74.58c7.51-6.8,1.05-21.31,1.1-31.26.14-31.99,4.02-51.23,31.26-70.74l2.74,2.74c-11.83,11.28-25.19,25.84-27.42,42.77-1.95,14.79,4.52,42.96,2.19,53.19Z"/>
          <path class="st7" d="M819.27,61.39l88.29,89.39-14.81,15.9-1.1-3.29,11.52-12.61c-11.9-7.84-78-83.28-83.9-83.9-3.61-.38-4.51,7.41-8.23,6.03l8.23-11.52Z"/>
          <path class="st10" d="M769.37,183.13l-69.64,74.58,79.51-77.87c-2.32,10.23-68.93,66.31-78.42,80.06l-4.94-3.84,73.48-72.93Z"/>
          <path class="st8" d="M841.75,180.94c17.05-3.18,25.7-9.75,38.39-20.84.25.27,5.97,1.91,5.48,4.94-11.66,12.96-26.19,24.36-44.42,25.77l.55-9.87Z"/>
          <path class="st12" d="M887.27,165.58c6.14-.54-8.91,13.42-9.87,14.26-13.9,12.06-28.96,16.27-47.16,17.55l-19.19-1.65c6.3-1.69,13.81.14,20.29-.55,22.47-2.39,41.57-12.19,55.93-29.61Z"/>
        </g>
      </g>
      <g>
        <g>
          <path class="st0" d="M693.69,261l-268.7,271.45,7.13,8.23,270.9-268.7,4.94,3.29c1.08,1.09,2.2,2.2,3.29,3.29l-275.29,275.29c-2.41-2.81-19.93-20.63-21.94-21.94l275.29-275.29c.25.56,3.14,2.89,4.39,4.39Z"/>
          <path class="st6" d="M715.63,282.93c-93.72,89.71-181.96,185.18-276.38,274.19-.12-.2-2.36-2.21-3.29-3.29l275.29-275.29c1.39,1.39,3.76,2.2,4.39,4.39Z"/>
          <path class="st1" d="M707.95,275.26l-4.94-3.29-270.9,268.7-7.13-8.23,268.7-271.45c3.32,3.99,10.19,10.17,14.26,14.26Z"/>
        </g>
        <g>
          <path class="st5" d="M335.05,600.99c6.67,3.24,4.41,7.8,6.58,14.26-31.23,31.43-61.46,64-93.77,94.32-2.39-2.69.2-6.34,1.65-9.32,13.92-28.78,48.81-55.92,66.9-81.71,5.51-7.85,7.11-11.26,5.48-21.39-23.54-22.75-49.18-45.25-69.1-70.74l72.93,72.39c2.31,2.24,8.16,1.63,9.32,2.19Z"/>
          <path class="st3" d="M414.02,531.9c2.01,1.31,19.52,19.12,21.94,21.94.93,1.08,3.17,3.09,3.29,3.29.71,1.15,2.44,2.62,2.19,3.84l-70.19,70.19-1.1,9.32c-3-4.06-7.36-5.04-8.77-13.16,19.9-19.28,38.95-39.73,58.68-59.22,5.22-.9,4.78,8.37,9.32.55-6.5-2.39-7.76-12.23-8.77-13.71,6.04-.98,6.1-7.87.55-9.87-7.4,3.59-5.89.63-.55-2.74-.97-.18-2.58-1.64-2.74-1.65-4.08-.15-46.73,44.99-53.19,51.55h-1.1l6.58-10.42c-5.57-1.45-3.86-5-9.87-1.65l49.9-50.45c1.17-.23,2.75,1.49,3.84,2.19Z"/>
          <path class="st8" d="M370.15,640.48c.41.55.99,4.04,2.19,5.48-5.41,1.05-8.56,3.15-13.16,5.48-33.41,16.94-59.49,57.32-97.61,68,17.91-10.75,44.08-39.65,60.32-54.84,13.22-12.36,26.48-24.69,39.48-37.29,1.41,8.12,5.78,9.1,8.77,13.16Z"/>
          <path class="st2" d="M363.57,592.22h1.1c-7.63,7.74-15.38,15.33-23.03,23.03-2.17-6.46.09-11.02-6.58-14.26,6.39-1.87,10.61-6.78,15.35-10.97l1.65,8.77,11.52-6.58Z"/>
          <path class="st11" d="M363.57,592.22l-11.52,6.58-1.65-8.77c3.38-2.98,5.74-7.57,9.87-9.87,6.01-3.35,4.3.19,9.87,1.65l-6.58,10.42Z"/>
          <path class="st12" d="M420.6,554.93c-.25-.37-5.95-2.46-6.03-6.58-12.1,13.6-25.05,26.56-37.84,39.48-44.8,45.25-90.25,90.3-133.26,137.09,7.89,1.3,11.86-1.74,18.1-5.48,38.12-10.68,64.2-51.06,97.61-68,7.83.22,6.89,3.22,9.87,5.48-3.5-1.9-9.09-1.32-12.61,0-17.53,6.59-55.36,48.84-80.06,61.42-63.55,32.36-32.53-19.93-12.61-46.61,12.17-16.3,35.44-35.94,44.97-52.1l7.68-1.1c-18.1,25.79-52.99,52.93-66.9,81.71-1.44,2.98-4.03,6.63-1.65,9.32,32.31-30.32,62.54-62.89,93.77-94.32,7.65-7.7,15.4-15.3,23.03-23.03,6.46-6.55,49.11-51.69,53.19-51.55.16,0,1.78,1.47,2.74,1.65-5.35,3.38-6.85,6.33.55,2.74,5.55,2,5.49,8.89-.55,9.87Z"/>
          <path class="st13" d="M420.6,554.93c1.01,1.48,2.28,11.32,8.77,13.71-4.54,7.82-4.1-1.45-9.32-.55-19.73,19.49-38.78,39.95-58.68,59.22-13,12.6-26.26,24.93-39.48,37.29l-7.68,2.74c9.24-15.18,102.34-96.9,103.09-104.19.16-1.57-5.55-7.29-7.13-7.13-2.4.25-27.21,30.03-33.45,31.81,12.79-12.92,25.74-25.88,37.84-39.48.08,4.12,5.78,6.21,6.03,6.58Z"/>
          <path class="st13" d="M321.89,664.61c-16.24,15.18-42.41,44.08-60.32,54.84-6.23,3.74-10.21,6.78-18.1,5.48,43-46.79,88.46-91.85,133.26-137.09,6.25-1.77,31.05-31.56,33.45-31.81,1.57-.16,7.29,5.55,7.13,7.13-.75,7.29-93.85,89.01-103.09,104.19l7.68-2.74Z"/>
        </g>
      </g>
    </g>
  </g>
</svg>