<?xml version="1.0" encoding="UTF-8"?>
<svg id="Layer_1" xmlns="http://www.w3.org/2000/svg" version="1.1" viewBox="0 0 1000 1000">
  <!-- Generator: Adobe Illustrator 29.4.0, SVG Export Plug-In . SVG Version: 2.1.0 Build 152)  -->
  <defs>
    <style>
      .st0 {
        fill: #9ca1a1;
      }

      .st1 {
        fill: #fb9a13;
      }

      .st2 {
        fill: #f6eac7;
      }

      .st3 {
        fill: #f1d8bd;
      }

      .st4 {
        fill: #2d2e2e;
      }

      .st5 {
        fill: #f39f9f;
      }

      .st6 {
        fill: #441d11;
      }

      .st7 {
        fill: #aa2c10;
      }

      .st8 {
        fill: #0d0b0a;
      }

      .st9 {
        fill: #fff;
      }

      .st10 {
        fill: #f76d36;
      }

      .st11 {
        fill: #f44c1b;
      }

      .st12 {
        fill: #ed6f19;
      }

      .st13 {
        fill: #f78016;
      }

      .st14 {
        fill: #bd3c15;
      }
    </style>
  </defs>
  <g id="Generative_Object">
    <g>
      <path class="st6" d="M875.71,745.1c-5.74,1.76-17.86,3.93-23.73,3.95-35.72.14-41.84-28.79-37.57-58.82,3.26-22.94,20.45-39.5,11.86-63.27-1.88-5.21-7.08-9.83-8.4-15.32,24.61,10.27,52.6,26.22,68.71,47.95,20.6,27.79,31.37,72.53-10.88,85.52Z"/>
      <g>
        <g>
          <path class="st12" d="M504.97,883.51c1.9,11.25,2.36,22.8,6.92,33.61h-88.98c6.08-14.09,8.97-33.16,7.91-48.44,23.06,7.9,48.65,6.18,71.68-.99,1.26.91.08,12.77.49,15.32.14.83,1.96.39,1.98.49Z"/>
          <path class="st13" d="M511.89,837.05c-5.16,13.43-8.98,32.13-6.92,46.47-.02-.1-1.84.34-1.98-.49-.42-2.56.77-14.41-.49-15.32-23.03,7.17-48.62,8.89-71.68.99-.61-8.75-4.7-23.3-7.91-31.64,29.19,5.24,59.71,5.42,88.98,0Z"/>
        </g>
        <g>
          <path class="st11" d="M875.71,745.1c26.35,108.76-80.3,183.3-180.43,163.13-26.9,49.43-89.96,81.8-143.35,52.4-13.99-7.7-33.83-28.78-40.04-43.5-4.56-10.81-5.02-22.36-6.92-33.61-2.06-14.34,1.76-33.04,6.92-46.47,10.26-26.71,39.35-56.16,66.24-66.24,10.65-3.99,27.24-7.79,38.56-7.91,10.75-.12,23.38,2.82,33.61,5.93,46.95,14.28,70.37,62.98,56.35,109.25,78.76,19.48,163.02-44.43,145.33-129.02,5.86-.02,17.99-2.19,23.73-3.95Z"/>
          <g>
            <path class="st3" d="M656.24,878.57c.91,7.95.54,9.1-.99,16.81-13.66,68.8-126.64,72.35-119.63-9.39,6.62-77.06,112.89-75.03,120.61-7.41Z"/>
            <path class="st10" d="M625.09,776.74c36.02-6.07,36.73,51.28-2.97,44.49-24.53-4.2-18.7-40.84,2.97-44.49Z"/>
            <path class="st10" d="M565.78,784.65c36.13-6.3,38.55,51.52-1.98,44.49-24.9-4.32-18.29-40.96,1.98-44.49Z"/>
            <path class="st10" d="M675.51,809.36c33.33-1.45,25.43,52.22-6.92,46.47-23.07-4.1-16.22-45.46,6.92-46.47Z"/>
            <path class="st10" d="M655.25,895.38c1.53-7.71,1.9-8.86.99-16.81,9.63-13.18,31.6-17.42,40.53-1.48,15.93,28.43-25.62,41.24-41.52,18.29Z"/>
          </g>
        </g>
        <g>
          <path class="st11" d="M318.12,763.89c12.5.07,25.81,2.7,37.57,6.92,28.74,10.32,56.28,37.76,67.23,66.24,3.21,8.34,7.3,22.89,7.91,31.64,1.06,15.29-1.83,34.35-7.91,48.44-11.72,27.18-43.91,51.76-73.65,54.38-115.39,10.13-176.77-167.47-65.74-202.67,10.02-3.18,24.16-5,34.6-4.94Z"/>
          <g>
            <path class="st3" d="M279.56,895.38c-1-5.78-1.69-12.99-.99-18.78,7.64-63.5,113.78-68.83,120.61,9.39,7.34,84.02-108.17,75.62-119.63,9.39Z"/>
            <path class="st10" d="M303.78,775.75c26.61-.49,36.25,41.5,7.91,45.48-37.12,5.21-36.63-44.95-7.91-45.48Z"/>
            <path class="st10" d="M359.15,784.65c29.97-5.14,39.72,40.06,10.88,44.49-35.14,5.39-36.91-40.03-10.88-44.49Z"/>
            <path class="st10" d="M255.34,809.36c27.84-2.98,34.58,42.72,10.88,46.47-30,4.74-39.2-43.43-10.88-46.47Z"/>
            <path class="st10" d="M278.57,876.59c-.7,5.79-.01,13,.99,18.78-16.51,23.97-56.95,8.75-40.53-19.28,8.54-14.58,29.71-10.6,39.55.49Z"/>
          </g>
        </g>
      </g>
      <g>
        <g>
          <g>
            <path class="st13" d="M651.29,744.11c-3.85-5.99-1.73-12.38-2.97-18.78,27.42,17.01,87.94,90.41,117.65,41.03,12.52-20.82,7.11-39.51-6.92-57.34-22.52-28.62-60.2-54.14-85.02-81.56,1.14-.55,6.71-4.07,7.91-4.94,25.59,23.85,92.42,73.96,98.86,108.26,7.93,42.21-24.01,74.04-66.73,56.85-8.48-3.41-58.82-37.33-62.78-43.5Z"/>
            <path class="st1" d="M674.03,627.45c24.82,27.43,62.5,52.94,85.02,81.56,14.03,17.83,19.44,36.53,6.92,57.34-29.71,49.38-90.23-24.02-117.65-41.03-6.17-32.05-12.37-64.15-19.77-95.9,14.45,5.81,31.6,4.66,45.48-1.98Z"/>
          </g>
          <g>
            <path class="st13" d="M253.86,623.5c1.35.92,7.48,4.34,8.9,4.94-25.02,26.23-61.84,51.51-84.03,79.59-14.44,18.27-20.56,38.06-6.92,59.32,29.92,46.63,86.74-23.57,113.69-40.04.57,6.17-.55,12.62-.99,18.78-29.99,19.56-89.37,77.25-119.63,28.18-28.65-46.47,13.53-81.71,43.99-111.22,14.22-13.78,29.37-27.34,44.98-39.55Z"/>
            <path class="st1" d="M262.76,628.44c13.55,5.75,28.64,6.34,42.51.99l-19.77,97.88c-26.95,16.47-83.77,86.67-113.69,40.04-13.64-21.26-7.52-41.05,6.92-59.32,22.2-28.08,59.02-53.35,84.03-79.59Z"/>
          </g>
          <g>
            <path class="st12" d="M628.55,629.43c7.4,31.75,13.6,63.85,19.77,95.9,1.23,6.41-.88,12.79,2.97,18.78l-.99,24.72c-10.23-3.11-22.86-6.05-33.61-5.93,8.96-43.02-10.98-87.22-17.8-129.51.33-1.27,1.53-1.66,1.98-2.97,1.99-5.83,5.98-11.71,7.91-17.8,2.77,5.76,14.15,14.55,19.77,16.81Z"/>
            <path class="st13" d="M616.69,762.9c-11.32.12-27.91,3.92-38.56,7.91,4.23-30.56.92-61.48-1.98-91.94,22.42-12.35,17.84-26.5,22.74-45.48,6.81,42.3,26.76,86.49,17.8,129.51Z"/>
          </g>
          <g>
            <path class="st12" d="M334.93,633.39c3.27,17.94-23.3,82.76-20.76,113.2.49,5.85,4.68,11.51,3.95,17.3-10.44-.06-24.58,1.77-34.6,4.94-.64-7.65.46-15.17.99-22.74.43-6.16,1.56-12.62.99-18.78l19.77-97.88c4.53-1.75,18.06-11.43,19.77-15.82,2.28,4.48,9.11,15.52,9.89,19.77Z"/>
            <path class="st13" d="M335.92,633.39c-2.72,17.78,7.27,38.38,23.73,46.47-6.27,29.79-5.08,60.74-3.95,90.96-11.76-4.22-25.07-6.85-37.57-6.92.73-5.79-3.47-11.45-3.95-17.3-2.53-30.44,24.03-95.26,20.76-113.2h.99Z"/>
          </g>
        </g>
        <g>
          <path class="st3" d="M576.16,678.86c2.9,30.46,6.21,61.38,1.98,91.94-26.89,10.08-55.98,39.53-66.24,66.24-29.26,5.42-59.79,5.24-88.98,0-10.95-28.48-38.49-55.92-67.23-66.24-1.12-30.21-2.31-61.17,3.95-90.96,6.08,2.99,13.94,4.77,20.76,4.94-.45,32.27-9.95,67.63,9.89,95.4,35.84,50.17,110.34,53.99,149.29,5.93,29.69-36.63,11.04-57.93,14.83-96.89.15-1.58,1.46-3,1.98-4.45,5.38-.37,15.06-3.33,19.77-5.93Z"/>
          <path class="st3" d="M556.38,684.79c-.52,1.45-1.82,2.87-1.98,4.45-3.79,38.95,14.86,60.25-14.83,96.89-38.95,48.06-113.45,44.24-149.29-5.93-19.84-27.77-10.33-63.14-9.89-95.4,17.61.43,33.97-7.87,42.02-23.73,13.88,44.27,75.69,45.19,88.98,0,10.11,16.53,25.54,25.08,44.98,23.73Z"/>
        </g>
      </g>
    </g>
    <g>
      <path class="st7" d="M681.94,622.51c-1.2.87-6.77,4.4-7.91,4.94-13.87,6.64-31.03,7.78-45.48,1.98-5.62-2.26-17-11.04-19.77-16.81.84-2.66-1.22-12.23,3.46-13.84s17.18,10.82,23.73,12.85c36.87,11.45,56.93-27.08,40.04-57.84-2.45-4.47-16.58-17.99-16.81-19.77-1.19-9.45,22.6-6.79,28.18-5.44,8.11,1.97,16.19,11.46,23.73,13.84,34,10.76,58.84-28.05,37.07-56.85-7.54-9.98-20.38-13.79-28.67-22.74.06-.56,7.69-7.01,8.4-7.41,20.27-11.49,39.89,13.31,60.8-13.35,20.59-26.25,3.57-56.48-19.28-73.65-4.17-3.13-30.06-16.53-30.15-18.29-.35-6.48,23.56-3.66,27.19-4.45,26.05-5.65,28.21-59.78-7.91-67.23-21.14-4.36-25.95,12.81-44.98,4.45,12.56-12.89,30.76-23.95,37.57-41.52,11.81-30.48-5.85-64.45-41.03-59.81-9.1,1.2-26.24,14.37-34.6,9.89-9.14-4.9,4.64-14.41,4.45-24.22-.99-51.94-71.6-89.48-98.37-33.12-3.87-17.41-3.83-29.69-13.35-45.97-13.33-22.81-31.32-34.77-55.86-17.3-21.02,14.97-21.53,54.65-49.43,50.42-16.66-2.53-17.66-20.73-24.22-32.13-18.95-32.91-51.55-36.67-72.17-1.98-9.71,16.33-9.11,29.43-13.35,46.96-15.65-30.5-47.11-36.74-74.15-15.82-12.82,9.92-28.09,37.5-25.21,53.88.8,4.58,15.34,14.22,5.44,19.28-9.83,5.02-24.82-8.51-34.6-9.89-30.7-4.32-50.62,21.82-44.98,50.92,4.25,21.97,25.15,35.81,40.53,49.43-11.43,10.09-19.54-1.86-28.18-3.46-50.11-9.29-61.08,62.08-16.81,68.22,1.5.21,19.76-3.24,19.28,3.46-29.47,16.6-70.18,40.23-55.36,81.07,2.11,5.8,12.8,18.56,18.29,21.26,19.98,9.8,39.57-12.18,56.85,10.38-10.04,10.33-25.91,14.99-32.63,28.67-7.68,15.65-5,37.47,10.38,46.96,34.12,21.06,49.49-25.42,82.55-7.41,1.37,5.1-11.79,14.98-14.83,19.77-20.77,32.72,2.02,74.73,41.03,59.81,5.53-2.11,16.25-13.77,21.75-11.86,4.11,3.53,4.33,10.06,2.47,14.83-1.71,4.39-15.24,14.07-19.77,15.82-13.88,5.35-28.96,4.76-42.51-.99-1.42-.6-7.55-4.02-8.9-4.94-19.95-13.63-30.68-41.96-20.76-64.76-58.22,28.9-107.94-58.93-61.3-97.88-58.65-5.11-80.24-92.62-16.81-108.75-49.43-21.3-30.39-88.92,18.78-93.92-42.67-48.84,29.45-124.8,80.08-82.06-33.48-65.43,55.68-123.41,98.37-57.84-5.84-64.7,83.05-95.17,114.68-37.57,33.4-57.59,122.32-27.35,114.68,38.56,43.06-66.72,130.52-10.25,99.85,57.34,49.65-43.87,120.09,32.09,79.59,81.56,48.94,6.05,66.61,72.48,17.8,93.92,53.66,11.81,48.5,83.9,2.47,103.31-6.17,2.6-13.18,2.63-19.28,5.44,46.98,37.82-3.25,128.09-60.8,97.38,8.38,23.29.88,49.62-19.28,64.26Z"/>
      <path class="st7" d="M600.87,630.42c-.45,1.3-1.65,1.69-1.98,2.97-4.9,18.98-.32,33.13-22.74,45.48-4.72,2.6-14.39,5.56-19.77,5.93-19.45,1.35-34.87-7.2-44.98-23.73-13.29,45.19-75.1,44.27-88.98,0-8.05,15.86-24.41,24.16-42.02,23.73-6.82-.17-14.68-1.96-20.76-4.94-16.46-8.08-26.45-28.68-23.73-46.47,1.93-12.59,13.17-21.51,24.22-25.7,3.7,1-4.06,17.21-4.45,20.27-1.8,13.99,2.27,28.05,15.32,35.1,24.74,13.36,47.25-3.32,59.32-24.72,10.36,47.98,62.18,49.37,73.16.99,1.94-.6,11.27,14.44,13.84,16.81,15.95,14.64,44.76,16.68,56.85-3.46,10.08-16.81.27-27.93-.49-44.98,12.61,3.59,16.76,11.73,23.23,21.26,1.87,2.75.53,2.28,3.95,1.48Z"/>
      <g>
        <path class="st14" d="M608.78,612.62c-1.93,6.09-5.91,11.97-7.91,17.8-3.42.8-2.09,1.26-3.95-1.48-6.47-9.52-10.62-17.66-23.23-21.26.76,17.05,10.58,28.18.49,44.98-12.09,20.14-40.9,18.1-56.85,3.46-2.58-2.36-11.9-17.4-13.84-16.81-10.98,48.39-62.8,46.99-73.16-.99-12.07,21.39-34.58,38.08-59.32,24.72-13.05-7.05-17.12-21.11-15.32-35.1.39-3.06,8.15-19.26,4.45-20.27-11.06,4.2-22.29,13.11-24.22,25.7h-.99c-.77-4.25-7.61-15.29-9.89-19.77,1.86-4.77,1.64-11.3-2.47-14.83-5.5-1.91-16.22,9.75-21.75,11.86-39,14.92-61.8-27.09-41.03-59.81,3.04-4.79,16.2-14.67,14.83-19.77-33.07-18.01-48.43,28.47-82.55,7.41-15.38-9.49-18.06-31.31-10.38-46.96,6.71-13.68,22.59-18.34,32.63-28.67-17.27-22.56-36.86-.58-56.85-10.38-5.49-2.69-16.18-15.45-18.29-21.26-14.81-40.84,25.89-64.47,55.36-81.07.48-6.7-17.78-3.25-19.28-3.46-44.28-6.14-33.3-77.51,16.81-68.22,8.64,1.6,16.75,13.55,28.18,3.46-15.38-13.62-36.28-27.46-40.53-49.43-5.63-29.1,14.29-55.23,44.98-50.92,9.78,1.38,24.77,14.91,34.6,9.89,9.9-5.06-4.63-14.7-5.44-19.28-2.88-16.38,12.39-43.96,25.21-53.88,27.04-20.92,58.5-14.68,74.15,15.82,4.24-17.53,3.64-30.63,13.35-46.96,20.62-34.69,53.22-30.93,72.17,1.98,6.56,11.4,7.56,29.6,24.22,32.13,27.9,4.23,28.41-35.45,49.43-50.42,24.54-17.47,42.52-5.51,55.86,17.3,9.52,16.28,9.48,28.56,13.35,45.97,26.77-56.36,97.38-18.82,98.37,33.12.19,9.81-13.59,19.32-4.45,24.22,8.36,4.48,25.5-8.69,34.6-9.89,35.18-4.64,52.84,29.34,41.03,59.81-6.81,17.57-25,28.63-37.57,41.52,19.03,8.36,23.84-8.81,44.98-4.45,36.12,7.45,33.96,61.58,7.91,67.23-3.63.79-27.54-2.03-27.19,4.45.09,1.76,25.99,15.16,30.15,18.29,22.84,17.17,39.87,47.4,19.28,73.65-20.91,26.65-40.53,1.86-60.8,13.35-.72.41-8.35,6.86-8.4,7.41,8.29,8.95,21.13,12.76,28.67,22.74,21.77,28.8-3.08,67.61-37.07,56.85-7.53-2.38-15.61-11.87-23.73-13.84-5.58-1.35-29.37-4.01-28.18,5.44.23,1.78,14.35,15.31,16.81,19.77,16.89,30.76-3.17,69.28-40.04,57.84-6.54-2.03-18.95-14.5-23.73-12.85s-2.62,11.18-3.46,13.84Z"/>
        <g>
          <path class="st13" d="M422.92,223.1c.38,2.08-1.97,3.3-3.46,3.95-88.52,38.95-144.16,127.01-110.23,224.92,3.15,9.08,9.75,24.92,17.8,30.15-1.32,11.25-.32,21,3.95,31.64-60.66-56.52-56.84-149.37-12.85-215.03.05-.07-1.34-.97-.99-1.48,1.78-2.59,11.26-13.86,13.84-16.81,16.6-18.96,44.98-39.65,68.22-49.43,5.5-2.32,15.36-6.45,20.76-7.91.84-.23,2.1.22,2.97,0Z"/>
          <path class="st13" d="M536.61,231.01c22.83,9.06,52.06,30.93,68.22,49.43,3.72,4.26,10.74,13.18,13.84,17.8,42.28,62.9,46.16,160.13-12.85,213.55,3.3-9.68,4.19-19.64,2.97-29.66,6.84-4.81,12.81-18.24,15.82-26.2,33.81-89.44-15.48-195.09-104.3-227.88.94-4.08,13.33,1.78,16.31,2.97Z"/>
          <path class="st5" d="M604.83,280.44c-16.16-18.5-45.38-40.37-68.22-49.43,28.84-78.8,133.76-4.4,68.22,49.43Z"/>
          <g>
            <path class="st1" d="M419.95,223.1c-5.4,1.46-15.26,5.59-20.76,7.91-28.64-78.6-132.97-4.73-68.22,49.43-2.58,2.95-12.06,14.21-13.84,16.81-43.82-25.24-45.94-88.41-4.45-117.65,42.24-29.77,98.74-7.29,107.27,43.5Z"/>
            <path class="st5" d="M399.19,231.01c-23.24,9.79-51.62,30.47-68.22,49.43-64.75-54.16,39.58-128.03,68.22-49.43Z"/>
          </g>
          <g>
            <path class="st2" d="M597.91,453.45c5.15,9.52,9.52,17.56,10.88,28.67,1.22,10.02.33,19.98-2.97,29.66-29.6,86.87-240.14,88.4-274.84,1.98-4.27-10.63-5.28-20.39-3.95-31.64,1.39-11.85,5.21-19.57,10.88-29.66-3.75,36.62,1.58,68.8,33.12,90.96,49.04,34.45,146.42,35.24,194.76-.99,30.47-22.83,33.44-53.04,32.13-88.98Z"/>
            <g>
              <path class="st2" d="M436.76,396.11c-47.91,19.56-.26,51.02,26.2,59.32l1.48,2.97c-1.62,17.07,6.19,57.66-12.36,67.23s-26.35-17.74-28.67-17.8c-9.18-.22,7.64,23.24,17.8,24.72,12.01,1.75,21.62-8.39,25.7-18.78,1.75-.76,7.81,21.66,26.69,18.78,10.03-1.53,26.74-24.85,17.8-24.72-2.35.03-16.07,36.18-35.1,11.37-11.63-15.17-3.46-43.67-5.93-61.79,22.18-7.62,76.25-41.65,30.65-59.32,38.73,3.55,77.76,20.02,96.89,55.36,1.31,35.94-1.66,66.15-32.13,88.98-48.34,36.22-145.73,35.43-194.76.99-31.54-22.15-36.87-54.33-33.12-90.96,19.96-35.56,60.16-50.6,98.86-56.35Z"/>
              <path class="st5" d="M546.99,452.46c26.5-4.76,30.88,33.75,8.9,37.57-27.62,4.8-30.26-33.73-8.9-37.57Z"/>
              <path class="st5" d="M378.92,452.46c26.41-4.62,30.95,34.05,7.91,37.57-26.79,4.1-28.91-33.89-7.91-37.57Z"/>
              <path class="st8" d="M470.37,457.41c2.47,18.12-5.7,46.62,5.93,61.79,19.03,24.81,32.75-11.33,35.1-11.37,8.95-.13-7.76,23.19-17.8,24.72-18.89,2.87-24.94-19.55-26.69-18.78-4.08,10.4-13.69,20.53-25.7,18.78-10.16-1.48-26.98-24.94-17.8-24.72,2.32.06,10.8,27.01,28.67,17.8s10.74-50.16,12.36-67.23c.93-2.93,5.01-.67,5.93-.99Z"/>
            </g>
            <g>
              <path class="st4" d="M501.02,398.09c45.6,17.67-8.46,51.7-30.65,59.32-.92.32-5-1.94-5.93.99l-1.48-2.97c-26.46-8.3-74.11-39.76-26.2-59.32,21.22-3.16,43.65-6.01,64.26,1.98Z"/>
              <path class="st0" d="M457.02,401.05c4.01-.36,48.36-.09,43.99,9.39-20.85,4.97-43.36,1.88-64.76,1.48l-2.47-2.47c5.34-6.01,15.42-7.7,23.23-8.4Z"/>
            </g>
          </g>
          <g>
            <path class="st1" d="M618.67,298.23c-3.1-4.62-10.12-13.54-13.84-17.8,65.54-53.84-39.37-128.24-68.22-49.43-2.99-1.18-15.37-7.05-16.31-2.97,88.82,32.79,138.11,138.45,104.3,227.88-3.01,7.96-8.97,21.39-15.82,26.2-1.35-11.11-5.72-19.15-10.88-28.67-19.12-35.34-58.16-51.82-96.89-55.36-20.61-7.98-43.04-5.13-64.26-1.98-38.71,5.76-78.9,20.79-98.86,56.35-5.66,10.09-9.48,17.81-10.88,29.66-8.05-5.24-14.65-21.08-17.8-30.15-33.93-97.9,21.71-185.96,110.23-224.92,1.49-.66,3.84-1.87,3.46-3.95,29.97-7.49,61.8-9,91.45.99,41.46-131.78,212.82-9.84,104.3,74.15Z"/>
            <g>
              <path class="st9" d="M540.07,320.97c46.78-2.81,41.78,75.29-6.92,63.27-32.85-8.1-27.37-61.21,6.92-63.27Z"/>
              <g>
                <path class="st4" d="M537.1,339.76c30-4.45,31.28,38.1,5.93,40.53s-29.52-37.04-5.93-40.53Z"/>
                <path class="st9" d="M539.08,341.74c10.9-.54,10.06,19.21-2.97,14.83-5.7-1.91-4.64-14.46,2.97-14.83Z"/>
              </g>
            </g>
            <g>
              <path class="st9" d="M384.85,321.96c45.52-7.15,49.74,58.81,11.86,63.27-42.86,5.05-47.46-57.69-11.86-63.27Z"/>
              <g>
                <path class="st4" d="M388.81,339.76c34.07-5.44,30.74,48.63-1.98,39.55-18.85-5.23-17.49-36.44,1.98-39.55Z"/>
                <path class="st9" d="M391.77,342.72c10.65-3.41,14.13,10.05,6.92,13.84-9.65,5.08-14.97-11.26-6.92-13.84Z"/>
              </g>
            </g>
          </g>
        </g>
      </g>
    </g>
  </g>
</svg>