<?xml version="1.0" encoding="UTF-8"?>
<svg id="Layer_1" xmlns="http://www.w3.org/2000/svg" version="1.1" viewBox="0 0 1200 1200">
  <!-- Generator: Adobe Illustrator 29.4.0, SVG Export Plug-In . SVG Version: 2.1.0 Build 152)  -->
  <defs>
    <style>
      .st0 {
        fill: #e1e98e;
      }

      .st1 {
        fill: #5a7233;
      }

      .st2 {
        fill: #c4d048;
      }

      .st3 {
        fill: #bdbbbd;
      }

      .st4 {
        fill: #a8be50;
      }

      .st5 {
        fill: #fff;
      }

      .st6 {
        fill: #758c39;
      }

      .st7 {
        fill: #aabb38;
      }

      .st8 {
        fill: #d6d4d4;
      }

      .st9 {
        fill: #8ca33b;
      }
    </style>
  </defs>
  <g id="Generative_Object">
    <path class="st6" d="M1140.07,375.73c36.71,93.18,49.66,184.42,39.92,284.03-14.96,15.86-16.69,31.51-33.01,47.59-.49.48-5.32-.52-11.51,5.37-17.71,16.87-13.11,35.34-18.42,50.66-2.37,6.85-13.82,17.69-15.35,24.56-.42,1.88,4.31,4.34,3.07,10.75-.67,3.46-14.39,24.89-19.19,26.87-5.05,2.08-3.38-3.46-10.75,0-9.59,4.51-13.55,18.75-17.66,23.8-7.63,9.38-16.02,19.03-24.56,27.64,14.05,14.31-6.08,12.9-9.98,16.12-7.32,6.05-18,23.58-26.1,30.71-4.12,3.63-11.68.57-16.12,8.44s2.96,9.92-10.75,21.49c-.58.49.94,4.3-.77,5.37-1.47.92-9.93-.91-12.28,0-5.85,2.26-6.33,12.09-8.44,14.59-1.96,2.31-7.2,8.73-7.68,9.21-1.49,1.54-15.14,11.4-16.12,11.51-3.95.46-8.57-9.12-9.21-9.21-1.35-.2-17.1,13.04-19.19,16.12-.78,1.15,1.41,9.73-6.91,13.05-.43.17-2.23-3.6-4.61-3.07-2.74.61-3.79,6.77-6.14,9.21-.26.27-3.52-1.06-6.91,2.3-.72.72-.8,8.92-11.51,14.59-4.91,2.6-27.64,6.9-29.17,7.68-4.63,2.36-12.46,13.13-13.82,13.82-5.13,2.6-17.35-.88-19.96,0-9.21,3.12-5.61,11.74-6.14,12.28-.27.28-7.22,1.19-7.68,1.54-1.99,1.5-6.4,7.27-7.68,7.68-8.07,2.6-21.99-5.33-27.64,10.75-2.63-12.46-19.13-1.74-23.03-1.54-6.85.35-8.43-4.63-9.21-4.61-5.53.18-11.29,2.51-18.42,3.07-1.2.09-.32,2.92-1.54,3.07-2.87.35-5.9-4.32-13.82-3.07-6.2.98-15.73,13.15-19.96,13.82-4.29.68-19.51-4.53-23.03-4.61-7.9-.16-22.6,3.94-32.24,1.54-1.6-.4-3.77-7.11-6.14-7.68-13.45-3.21-48.22,1.32-61.41,6.14-2.12.78-2.5,5.39-4.61,6.14-7.94,2.82-11-4.79-18.42-6.14-14.01-2.55-29.24-5.24-38.38,6.14-15.82-16.37-36.15-14.92-56.81-7.68-5.04-18.23-24.81-1.64-27.64-1.54-1.19.04-21.97-5.6-23.03-6.14-3.55-1.82-10.01-14.78-10.75-15.35-2.82-2.18-24.21-3.78-25.33-5.37-.6-.85.1-19.01-2.3-20.73-.94-.67-20.66-4.63-21.49,0-5.38-5.08,1.27-13.97.77-14.59-1.09-1.33-12.26-.49-16.12-2.3s-6.97-10.99-8.44-13.05c-.66-.93-5.81-.71-7.68-4.61-1.14-2.37.37-13.24,0-13.82-1.01-1.58-28.8-14.66-33.01-17.66-.76-.54-9.99-14.8-10.75-15.35-3.59-2.62-19.09-5.57-19.96-6.14-14-9.18-22.79-25.66-30.71-39.92,14.03,38.54-10.34-1.22-19.19-9.98-10.74-10.62-62.42-56.55-72.93-60.64-5.8-2.26-6.57,1.51-11.51,0-22.6-48.24-38.85-99.31-47.59-151.99,6.01,2.23,15.14,2.16,20.73,4.61,18.2,7.97,70.99,69.26,90.58,87.51,44.46,41.42,98.18,98.58,160.44,104.4,199.36,169.38,529.7,114.46,655.57-115.91,58.14-106.4,69.29-253.94,138.18-350.05,6.83-9.54,41.14-40.02,41.45-42.99.7-6.67-4.59-1.82-6.14-5.37,1.78-1.33,3.64-3.35,6.14-3.07Z"/>
    <path class="st7" d="M350.93,76.35c12.12,5.84,10.17,35.89,9.21,49.13-.63,8.72-4.46,18.1-6.14,26.1-6.23,4.35-18.19,1.56-22.26,3.07-5.06,1.88-3.3,11.7-7.68,15.35-.71.59-13.73,5.13-16.89,7.68-11.13,8.98-15.28,28.51-16.89,29.17-1.85.76-2.98-2.47-4.61-1.54-13.28,7.64-14.7,14.26-23.03,21.49-4.61,4-11.76,4.21-12.28,4.61-7.39,5.66-15.44,26.21-14.59,36.08.57,6.66,9.25,21.79,9.21,23.03-.21,6.13-16.83,15.74-18.42,18.42-2.55,4.29-1.22,16.1-1.54,16.89-1.36,3.45-11.21,7.52-12.28,10.75-.5,1.5-.51,31.4,6.14,29.94-7.44,11.69-13.69,24.48-19.96,36.85-63.24,124.66-49.41,270.17,21.49,388.43,13.53,22.56,27.05,41.74,44.52,61.41,12.37,13.93,25.71,27.85,39.92,39.92-62.26-5.82-115.98-62.98-160.44-104.4-19.59-18.25-72.39-79.54-90.58-87.51-5.59-2.45-14.71-2.38-20.73-4.61C-5.69,462.7,118.47,163.68,350.93,76.35Z"/>
    <path class="st9" d="M1133.93,833.25c-9.79,11.85-8.58,3.31-16.12,6.14-25.72,9.66-33.48,16.34-42.22,42.22-.26.77-3.86,1.11-4.61,3.07-2.2,7.77,14.17-.98,7.68,12.28-4.17,8.53-15.64,9.33-23.8,16.12-4.5,3.75-16.09,23.52-18.42,24.56-1.75.78-7.66-.79-9.21,0-14.78,7.55-7.6,10.54-3.84,22.26.57,1.78,2.94-2,3.07,0,.05.7-4.72,12.66-5.37,13.05-1.04.62-17,1.12-23.03,4.61-4.93,2.85-21.33,22.96-26.1,26.1-1.27.84-20.29,5.35-23.03,7.68-6.34,5.37-4.72,20.52-3.07,27.64-3.62,2.65-20.51,4.12-21.49,4.61-2.44,1.21-10.87,13.51-16.89,15.35-3.42,1.05-20.56.2-23.03,1.54-1.34.73-3.25,12.54-6.14,15.35-.12.12-1.85-2.62-3.07-1.54-17.94,16.03-13.91,2.57-26.1,7.68-5.86,2.45-16.71,16.77-18.42,23.03-25.78-19.64-14.94-7.54-30.71,4.61-6.57,5.06-15.67,4.99-18.42,6.14-1.15.48-10.22,9.15-12.28,9.21-2.51.07-7.9-14.91-16.89-12.28-4.01,1.17-3.16,10.28-9.21,13.82-5.56,3.25-31.41,3.04-39.92,4.61-.95.17-15.93,9.18-16.89,9.21-1.46.05-25.04-9.35-27.64-9.21-1.13.06-14.39,7.43-18.42,7.68-8.41.51-4.31-4.28-6.14-4.61-17.75-3.12-20.45,16.04-35.31,16.89-2.83.16-10.85-6.13-16.89-6.14-1.26,0-14.58,2.59-18.42,3.07-2.11.26-.85,4.99-6.14,4.61-1.07-.08-15.62-6.31-19.96-7.68-2.04-.64-2.29-4.36-3.07-4.61-.26-.08-4.34,3.16-4.61,3.07-3.49-1.13-4.75-5.71-6.14-6.14-3.57-1.1-6.99,2.56-10.75,1.54-.52-.14-5.92-7.47-7.68-7.68-3.11-.36-7.23,4.6-7.68,4.61-2.03.03-10.19-4.79-10.75-4.61-.72.23-3.53,7.78-10.75,9.21-6.9,1.37-7.26-3.53-9.21-3.07-.32.08-1.74,3.9-4.61,4.61-11.65,2.87-24.25,1.48-34.54,9.21-20.97-6.29-42.88-14.28-62.95-23.03-10.26-4.48-22.32-10.19-32.24-15.35-7.22-3.76-15.76-9.54-23.03-13.82-6.02-3.54-12.58-7-18.42-10.75-89.24-57.25-165.33-143.41-210.33-239.51,4.95,1.51,5.71-2.26,11.51,0,10.5,4.09,62.19,50.02,72.93,60.64,8.85,8.76,33.22,48.52,19.19,9.98,7.91,14.26,16.7,30.73,30.71,39.92.87.57,16.36,3.52,19.96,6.14.76.55,9.98,14.81,10.75,15.35,4.21,3,32,16.08,33.01,17.66.37.58-1.14,11.45,0,13.82,1.87,3.9,7.01,3.68,7.68,4.61,1.47,2.06,4.68,11.28,8.44,13.05s15.04.97,16.12,2.3c.5.61-6.15,9.5-.77,14.59.84-4.63,20.56-.67,21.49,0,2.41,1.71,1.7,19.87,2.3,20.73,1.12,1.59,22.52,3.19,25.33,5.37.74.57,7.19,13.54,10.75,15.35,1.06.54,21.84,6.18,23.03,6.14,2.83-.1,22.6-16.69,27.64,1.54,20.65-7.24,40.98-8.69,56.81,7.68,9.14-11.38,24.37-8.69,38.38-6.14,7.42,1.35,10.48,8.96,18.42,6.14,2.11-.75,2.49-5.37,4.61-6.14,13.19-4.82,47.97-9.36,61.41-6.14,2.37.57,4.54,7.28,6.14,7.68,9.64,2.4,24.34-1.7,32.24-1.54,3.52.07,18.74,5.29,23.03,4.61,4.23-.67,13.76-12.84,19.96-13.82,7.91-1.25,10.95,3.42,13.82,3.07,1.21-.15.34-2.98,1.54-3.07,7.13-.56,12.9-2.89,18.42-3.07.78-.03,2.36,4.96,9.21,4.61,3.9-.2,20.4-10.92,23.03,1.54,5.64-16.07,19.57-8.15,27.64-10.75,1.27-.41,5.69-6.17,7.68-7.68.45-.34,7.4-1.25,7.68-1.54.53-.55-3.07-9.16,6.14-12.28,2.61-.88,14.83,2.6,19.96,0,1.35-.69,9.19-11.46,13.82-13.82,1.53-.78,24.26-5.08,29.17-7.68,10.72-5.67,10.79-13.87,11.51-14.59,3.39-3.37,6.65-2.03,6.91-2.3,2.35-2.44,3.41-8.61,6.14-9.21,2.38-.53,4.18,3.24,4.61,3.07,8.32-3.32,6.13-11.9,6.91-13.05,2.09-3.08,17.84-16.32,19.19-16.12.64.09,5.26,9.67,9.21,9.21.98-.11,14.63-9.98,16.12-11.51.47-.49,5.72-6.9,7.68-9.21,2.11-2.49,2.59-12.33,8.44-14.59,2.35-.91,10.81.92,12.28,0,1.7-1.07.19-4.89.77-5.37,13.71-11.57,6.21-13.46,10.75-21.49s12-4.81,16.12-8.44c8.1-7.12,18.78-24.66,26.1-30.71,3.9-3.22,24.03-1.81,9.98-16.12,8.54-8.61,16.94-18.26,24.56-27.64,4.1-5.05,8.06-19.28,17.66-23.8,7.36-3.46,5.69,2.08,10.75,0s18.53-23.41,19.19-26.87c1.23-6.41-3.49-8.86-3.07-10.75,1.54-6.87,12.98-17.71,15.35-24.56,5.31-15.33.71-33.8,18.42-50.66,6.19-5.9,11.03-4.89,11.51-5.37,16.32-16.08,18.05-31.73,33.01-47.59-3.53,36.09-24.43,147.31-46.06,173.49Z"/>
    <path class="st4" d="M922.06,1085.03c-6.46,4.21-13.31,8.37-19.96,12.28-5.47,3.22-11.29,6.19-16.89,9.21-4.2,2.27-8.16,5.6-12.28,7.68-72.33,36.41-160.82,59.38-241.81,62.95-.34.02-1.29-.05-3.07,0-28.7.87-55.99-.49-84.44-3.07-3.45-.31-2.73.04-3.07,0-38.01-3.98-76.25-12.06-112.84-23.03,10.29-7.73,22.9-6.34,34.54-9.21,2.87-.71,4.29-4.53,4.61-4.61,1.95-.46,2.31,4.44,9.21,3.07,7.22-1.43,10.03-8.98,10.75-9.21.56-.18,8.71,4.63,10.75,4.61.45,0,4.57-4.97,7.68-4.61,1.76.2,7.15,7.53,7.68,7.68,3.75,1.02,7.17-2.63,10.75-1.54,1.39.43,2.65,5.01,6.14,6.14.26.09,4.34-3.15,4.61-3.07.78.25,1.03,3.96,3.07,4.61,4.34,1.36,18.89,7.6,19.96,7.68,5.29.39,4.03-4.34,6.14-4.61,3.85-.48,17.16-3.07,18.42-3.07,6.04.01,14.06,6.3,16.89,6.14,14.86-.85,17.56-20.01,35.31-16.89,1.83.32-2.27,5.11,6.14,4.61,4.03-.24,17.29-7.62,18.42-7.68,2.59-.13,26.18,9.26,27.64,9.21.96-.03,15.94-9.04,16.89-9.21,8.5-1.56,34.36-1.36,39.92-4.61,6.05-3.54,5.21-12.65,9.21-13.82,8.99-2.63,14.38,12.36,16.89,12.28,2.07-.06,11.13-8.73,12.28-9.21,2.76-1.15,11.85-1.08,18.42-6.14,15.76-12.15,4.93-24.24,30.71-4.61,1.72-6.26,12.56-20.58,18.42-23.03,12.19-5.1,8.16,8.36,26.1-7.68,1.22-1.09,2.95,1.66,3.07,1.54,2.89-2.81,4.8-14.63,6.14-15.35,2.47-1.34,19.61-.49,23.03-1.54,6.02-1.84,14.45-14.14,16.89-15.35.98-.49,17.87-1.96,21.49-4.61-1.65-7.11-3.27-22.26,3.07-27.64,2.74-2.32,21.76-6.84,23.03-7.68,4.77-3.14,21.17-23.25,26.1-26.1,6.03-3.48,21.99-3.98,23.03-4.61.65-.39,5.42-12.35,5.37-13.05-.13-2-2.5,1.78-3.07,0-3.76-11.72-10.95-14.71,3.84-22.26,1.55-.79,7.46.78,9.21,0,2.34-1.05,13.92-20.82,18.42-24.56,8.16-6.79,19.62-7.59,23.8-16.12,6.49-13.27-9.87-4.51-7.68-12.28.74-1.96,4.34-2.3,4.61-3.07,8.74-25.89,16.5-32.56,42.22-42.22,7.54-2.83,6.33,5.71,16.12-6.14-41.2,100.79-120.86,192.4-211.87,251.79Z"/>
    <path class="st0" d="M354,151.58c-20.21,96.43-86,137.79-135.11,214.94-6.65,1.46-6.64-28.44-6.14-29.94,1.08-3.23,10.92-7.3,12.28-10.75.31-.79-1.02-12.59,1.54-16.89,1.6-2.69,18.21-12.29,18.42-18.42.04-1.24-8.64-16.37-9.21-23.03-.85-9.87,7.2-30.42,14.59-36.08.52-.4,7.67-.6,12.28-4.61,8.33-7.23,9.75-13.85,23.03-21.49,1.62-.93,2.76,2.3,4.61,1.54,1.61-.66,5.76-20.19,16.89-29.17,3.16-2.55,16.18-7.08,16.89-7.68,4.37-3.65,2.62-13.47,7.68-15.35,4.07-1.51,16.03,1.28,22.26-3.07Z"/>
    <g>
      <path class="st8" d="M1121.65,335.81c2.08,4.17,4.14,7.98,6.14,12.28-24.25,14.75-52.25,40.53-67.55,64.48-.23.36.23,1.17,0,1.54-74.33,100.73-81.61,233.22-141.25,341.6-98.12,178.31-332.14,244.82-512.79,152.76,7.66-17.02-11.72-18.02-23.8-26.1-41.42-27.71-81.17-60.98-106.7-104.4.09.13.89-3.66,3.07-.77,23.37,31.09,45.17,59.36,77.53,82.14l5.37-9.21c124.71,97.97,297.28,98.91,426.04,7.68,128.1-90.76,144.8-228.48,201.89-363.86,4.39,9.19,9.75-7.04,7.68,2.3-13.62,61.41-66.58,207.33-98.26,261-79.16,134.11-242,199.38-393.8,171.18-16.88-3.14-34.08-12.53-51.43-13.05,147.89,58.96,334.93,1.98,428.35-125.89,103.96-142.31,79.21-331.96,231.06-447.54,5.57-4.24,1.44-7.27,8.44-6.14Z"/>
      <path class="st6" d="M1113.97,320.46c-67.91,42.55-94.78,103.34-124.36,173.49-57.09,135.38-73.8,273.11-201.89,363.86-128.76,91.23-301.33,90.3-426.04-7.68-44.3-34.8-86.45-88.16-109.01-139.71-12.88-29.45-20.86-56.89-24.56-89.05l7.68,3.07c22.01,214.39,268.86,336.11,464.42,264.07,202.26-74.51,213.16-261.8,287.87-433.72,26.78-61.64,62.43-108.3,118.22-146.62,2.37,4.08,5.32,7.93,7.68,12.28Z"/>
      <path class="st1" d="M304.88,893.12c-14.21-12.07-27.54-25.99-39.92-39.92,1.15-7.51,4.5-12.08,10.75-7.68,15.37,16.62,31.24,30.69,49.13,44.52,35.04,27.1,70.35,47.66,112.08,62.95,188.22,68.94,406.52.39,506.65-175.79,68.21-120.02,77.52-313.74,190.38-398.41,1.55,3.56,6.84-1.3,6.14,5.37-.31,2.97-34.62,33.45-41.45,42.99-68.88,96.1-80.04,243.64-138.18,350.05-125.87,230.37-456.21,285.29-655.57,115.91Z"/>
      <path class="st8" d="M1135.47,363.45c-134.26,93.03-130.33,278.62-207.26,410.69-88.87,152.57-274.24,219.06-443.7,178.86l1.54-10.75c122.86,30.05,265.59-3.01,360.03-87.51,129.65-116.02,126.7-303.25,214.17-440.63.23-.36-.23-1.17,0-1.54l67.55-62.95c2.12,4.59,5.62,8.98,7.68,13.82Z"/>
      <path class="st8" d="M1140.07,375.73c-2.5-.28-4.36,1.74-6.14,3.07-112.86,84.67-122.17,278.39-190.38,398.41-100.13,176.18-318.43,244.73-506.65,175.79v-9.21c146.9,63.86,353.64,7.52,455.98-112.84,118.99-139.96,94.1-349.51,242.58-464.42,1.21,2.9,3.36,6.04,4.61,9.21Z"/>
      <path class="st7" d="M235.79,624.45l-7.68-3.07c-26.33-228.41,170.52-288.92,198.05-469.03,5.45-35.66,1.1-61.22-12.28-94.42,2.99,1.61,6.59,2.26,9.21-.77,1.44,6.14-4.96,2.57-6.14,4.61-.83,1.43,10.94,25.46,12.28,30.71,49.34,193.47-216.87,303.78-193.45,531.98Z"/>
      <path class="st3" d="M1121.65,335.81c-7-1.13-2.87,1.9-8.44,6.14-151.85,115.58-127.1,305.23-231.06,447.54-93.41,127.87-280.45,184.85-428.35,125.89,17.36.52,34.55,9.91,51.43,13.05,151.8,28.2,314.64-37.08,393.8-171.18,31.68-53.67,84.64-199.59,98.26-261,2.07-9.35-3.29,6.89-7.68-2.3,29.58-70.15,56.45-130.93,124.36-173.49,2.76,5.11,5.1,10.18,7.68,15.35Z"/>
      <path class="st7" d="M217.36,391.08c-68.49,122.3-60.47,279.51,13.82,397.64-6.34-3.18-3.53,4.14-10.75,3.07-70.9-118.26-84.73-263.77-21.49-388.43,12.42,9.45,8.38-9.54,18.42-12.28Z"/>
      <path class="st3" d="M1135.47,363.45c.29.68-.29,2.38,0,3.07-148.47,114.92-123.58,324.47-242.58,464.42-102.34,120.37-309.08,176.71-455.98,112.84-3.67-1.6-8.92-4.52-12.28-6.91,19.33,4.13,39.66,11.32,59.88,16.12,169.46,40.2,354.83-26.29,443.7-178.86,76.93-132.07,73-317.66,207.26-410.69Z"/>
      <path class="st3" d="M486.04,942.25c-37.77-9.24-79.41-25.92-105.93-47.59,9.26,3.33,17.41,9.39,26.1,13.82,180.65,92.06,414.66,25.55,512.79-152.76,59.64-108.38,66.92-240.87,141.25-341.6-87.48,137.38-84.52,324.61-214.17,440.63-94.44,84.51-237.16,117.57-360.03,87.51Z"/>
      <path class="st2" d="M369.36,137.76c-12.7,106.53-103.15,166.09-151.99,253.32-10.04,2.74-6,21.74-18.42,12.28,6.27-12.37,12.52-25.16,19.96-36.85,49.11-77.15,114.89-118.51,135.11-214.94,1.68-8,5.51-17.38,6.14-26.1,16.78-1.89-1.04,9.91,9.21,12.28Z"/>
      <path class="st5" d="M252.68,710.42c22.55,51.55,64.71,104.91,109.01,139.71l-5.37,9.21c-32.36-22.77-54.17-51.05-77.53-82.14-2.18-2.9-2.98.89-3.07.77-21.31-28.77-34.04-62.07-44.52-95.96,8.06-12.14,10.01,29.61,21.49,28.4Z"/>
      <path class="st6" d="M231.18,788.72c12.62,20.07,28.44,39.42,44.52,56.81-6.25-4.41-9.6.16-10.75,7.68-17.47-19.67-31-38.85-44.52-61.41,7.22,1.07,4.41-6.25,10.75-3.07Z"/>
      <path class="st7" d="M369.36,137.76c-10.25-2.37,7.57-14.18-9.21-12.28.96-13.24,2.91-43.29-9.21-49.13,2.33-.87,9.31-5.72,11.51-4.61,9.44,21.09,9.62,43.24,6.91,66.02Z"/>
      <path class="st3" d="M1127.79,349.63l-67.55,62.95c15.3-23.96,43.3-49.73,67.55-64.48.2.42-.19,1.11,0,1.54Z"/>
      <g>
        <path class="st2" d="M1106.3,308.18c-55.79,38.32-91.43,84.98-118.22,146.62-74.71,171.92-85.61,359.21-287.87,433.72-195.57,72.04-442.42-49.68-464.42-264.07-23.42-228.2,242.79-338.5,193.45-531.98-1.34-5.25-13.11-29.28-12.28-30.71,1.19-2.04,7.58,1.54,6.14-4.61-2.62,3.03-6.22,2.37-9.21.77-1.11-.59-4.73-1.4-4.61-3.84.27-5.31,57.53-20.27,66.79-22.26,251.4-54.14,502.3,55.56,630.24,276.35Z"/>
        <g>
          <path class="st0" d="M558.97,431c2.67-.53,6.24,6.52,1.54,7.68-4.18,1.02-5.22-6.95-1.54-7.68Z"/>
          <path class="st7" d="M945.86,509.3c3-.72,5.42,4.6,3.07,6.14-4.9,3.22-7.77-5.01-3.07-6.14Z"/>
          <path class="st7" d="M958.14,454.03c1.58.16,5.26,7.06,1.54,7.68-5.65.93-5.35-8.06-1.54-7.68Z"/>
          <path class="st0" d="M486.81,487.81c5.88-1.34,4.25,5.46,1.54,6.14-3.66.92-5.2-5.31-1.54-6.14Z"/>
          <path class="st7" d="M835.32,652.08c3.77-.84,5.13,5.34,1.54,6.14-3.77.84-5.13-5.34-1.54-6.14Z"/>
          <path class="st7" d="M864.49,572.25c2.96.39,2.96,7.29,0,7.68-3.66.48-3.66-8.16,0-7.68Z"/>
          <path class="st7" d="M689.47,665.9c4.72-3.02,4.75,6.14,1.54,6.14-3.61,0-2.77-5.35-1.54-6.14Z"/>
          <path class="st7" d="M839.92,606.02c.78-.16,5.94,5.41,1.54,6.14-6.25,1.04-3.89-5.67-1.54-6.14Z"/>
          <path class="st7" d="M861.42,200.71c3.27-.47,4.4,5.9,1.54,6.14-4.57.38-4.53-5.71-1.54-6.14Z"/>
          <path class="st7" d="M775.44,682.79c.24,0,2.55,4.14,1.54,4.61-5.11,2.34-4.08-4.65-1.54-4.61Z"/>
          <path class="st7" d="M687.93,733.45c2.64-1.18,3.25,3.84,1.54,4.61-2.64,1.18-3.25-3.84-1.54-4.61Z"/>
        </g>
      </g>
      <g>
        <path class="st8" d="M363.22,883.91c.1.09-3.19.8-1.54,2.3.66.6,16.07,12.15,15.35,5.37,1.24,1.1,2.53,2.63,3.07,3.07,26.52,21.68,68.17,38.36,105.93,47.59l-1.54,10.75c-20.21-4.8-40.55-11.99-59.88-16.12,3.37,2.39,8.61,5.31,12.28,6.91v9.21c-41.72-15.28-77.04-35.85-112.08-62.95-3.22-3.9.19-10.97,0-11.51-1.35-3.9-49.56-47.3-58.34-58.34-42.16-53.02-69.91-122.5-77.53-189.61,5.38-.8,3.02,1.67,3.84,3.84,5.01,13.38,6.32,38.18,10.75,53.74,18.17,63.82,53.72,122.7,102.1,168.11.35-3.57,7.5-7.13,6.91-9.98-.49-2.34-30.64-34.26-33.01-34.54-2.95-.35-6.59,7.21-8.44,3.84-1.91-5.71,6.47-5.62,6.14-7.68-.76-4.73-38.33-53.6-42.99-70.62-.78-2.86-2.32-3.14.77-5.37,22.85,46.86,52.09,87.61,90.58,122.82,11.62,10.63,25.67,18.79,37.61,29.17Z"/>
        <path class="st8" d="M377.03,891.59c.72,6.78-14.7-4.78-15.35-5.37-1.65-1.5,1.64-2.21,1.54-2.3,3.63,1.53,11.17,5.33,13.82,7.68Z"/>
        <path class="st3" d="M391.62,919.22l25.33,13.05c-1.15,2.28-26.1-8.54-25.33-13.05Z"/>
      </g>
    </g>
  </g>
</svg>