<?xml version="1.0" encoding="UTF-8"?>
<svg id="Layer_1" xmlns="http://www.w3.org/2000/svg" version="1.1" viewBox="0 0 1200 1200">
  <!-- Generator: Adobe Illustrator 29.4.0, SVG Export Plug-In . SVG Version: 2.1.0 Build 152)  -->
  <defs>
    <style>
      .st0 {
        fill: #dfe9eb;
      }

      .st1 {
        fill: #395466;
      }

      .st2 {
        fill: #5d7b8c;
      }

      .st3 {
        fill: #2d4453;
      }

      .st4 {
        fill: #f8c492;
      }

      .st5 {
        fill: #a3bac3;
      }

      .st6 {
        fill: #26343f;
      }

      .st7 {
        fill: #ba7540;
      }

      .st8 {
        fill: #88a7b5;
      }

      .st9 {
        fill: #e4a772;
      }

      .st10 {
        fill: #a26128;
      }

      .st11 {
        fill: #bdc7ca;
      }

      .st12 {
        fill: #8b5924;
      }

      .st13 {
        fill: #bbd9e4;
      }

      .st14 {
        fill: #71858d;
      }

      .st15 {
        fill: #5b5335;
      }

      .st16 {
        fill: #36423f;
      }

      .st17 {
        fill: #ab702e;
      }

      .st18 {
        fill: #e89953;
      }

      .st19 {
        fill: #323738;
      }

      .st20 {
        fill: #d2894e;
      }

      .st21 {
        fill: #764e21;
      }

      .st22 {
        fill: #638daa;
      }

      .st23 {
        fill: #403d29;
      }

      .st24 {
        fill: #7894a0;
      }

      .st25 {
        fill: #b37e3c;
      }

      .st26 {
        fill: #f9fdfe;
      }

      .st27 {
        fill: #70562d;
      }

      .st28 {
        fill: #49677a;
      }

      .st29 {
        fill: #a09d98;
      }
    </style>
  </defs>
  <g id="Generative_Object">
    <path class="st2" d="M1040.58,408.23c-5.14,2.68-8.8,4.29-10.24,10.24-3.36-118.32-256.84-168.63-346.74-176.57.01-3,11.52-3.64,15.35-3.84,99.95-5.14,315,58.25,341.62,170.17Z"/>
    <path class="st1" d="M1040.58,408.23c.43,1.81-.43,4.58,0,6.4-4.16,12.38-1.84,22.51,0,34.55-1.4,5.89-4.94,10.28-7.68,15.35-5.1-2.72-26.18,30.22-33.91,35.83-3.71,2.69-11.77,7.6-15.99,3.84,25.91-21.98,48.36-49.82,47.34-85.73,1.44-5.94,5.1-7.56,10.24-10.24Z"/>
    <path class="st24" d="M698.95,238.05c-3.84.2-15.34.83-15.35,3.84-23.83-2.1-42.3-.77-65.25-1.28-6.81-.15-14.31-1.23-20.47-1.28l95.96-3.84c1.72.37,1.07,3.78,5.12,2.56Z"/>
    <path class="st13" d="M683.6,241.89c89.9,7.94,343.39,58.25,346.74,176.57,1.02,35.91-21.43,63.75-47.34,85.73-41.93,35.56-115.02,64.1-167.61,78.05-21.44,5.69-43,8.34-64.61,12.79-3.6.74-3.25,5-3.84,5.12-27.34,5.53-59.67,8.16-87.65,10.24l81.25-12.79,5.76-1.92c-3.12-5.9-12.2-2.36-17.91-1.92v-12.79c89.17-13.12,344.77-63.47,271.25-202.8-20.35-38.56-84.64-80.02-127.31-85.09-1.99-.24-4.71.71-5.76,2.56-6.19-2.15-12.94-4.53-19.19-6.4,4.93.32.18-2.36-.64-2.56-17.72-4.28-35.8-10.86-52.46-14.07-.88-.17-14.17-1.42-14.71,1.28-80.88-15.06-180.05-21.45-262.3-15.35-3.92.66-2.32-3.36-2.56-6.4,43.6-3.6,87.35-5.78,131.15-6.4,2.05-2.82-7.63-3.62-8.96-3.84-5.83-.95-12.64.12-18.55-1.28,22.95.51,41.42-.83,65.25,1.28Z"/>
    <path class="st5" d="M728.38,580.96c-5.05.74-10.3,1.9-15.35,2.56-11.46,1.5-23.1,2.2-34.55,3.84.13-.03-.48-2.17.64-2.56,4.95-1.71,11.27,4.14,9.6-6.4,83.04-8.38,203.96-33.91,268.69-88.28,8.35-7.01,10.98-9.22,17.91-17.91.36-.46,1.46-1.06,2.56-2.56,4.98-6.78,6.77-10.33,10.24-17.91,14.22-31.11,13.84-50.85-6.4-79.33,2.22-3.05-4.6-10.1-6.4-12.16-25.92-29.51-72.05-51.84-108.76-64.61,1.05-1.85,3.77-2.8,5.76-2.56,42.67,5.06,106.96,46.52,127.31,85.09,73.52,139.33-182.08,189.68-271.25,202.8Z"/>
    <path class="st5" d="M514.71,252.13c.24,3.04-1.36,7.06,2.56,6.4-2.83.21-15.02,1.07-11.52,3.84-52.31,3.73-105.54,11.85-156.1,25.59-66.12,17.96-194.09,61.92-172.73,150.98-.38-.73-1.82,2.1-2.56.64-6.96-13.71-6.88-37.19-2.56-51.82,9.22-31.17,57.75-60.26,83.17-78.05,82.48-38.36,169.65-50.14,259.74-57.58Z"/>
    <path class="st13" d="M254.97,309.7c-25.41,17.79-73.95,46.88-83.17,78.05-11.59,16.41-10.59,37.12-8.96,56.3-25.23-67.9,40.14-110.17,92.12-134.35Z"/>
    <path class="st0" d="M779.56,273.88c21.58,4.02,46.91,9.1,67.81,15.35,6.25,1.87,13,4.24,19.19,6.4,36.71,12.77,82.83,35.1,108.76,64.61,1.8,2.05,8.62,9.11,6.4,12.16-9.33-13.14-30.49-30.81-44.78-38.38-.33-.18-.94.17-1.28,0-29.91-20.1-64.19-31.93-98.52-42.22-28.51-8.55-57.46-15.98-87.01-20.47-3.32-.5-6.88-.81-10.24-1.28-74.88-10.39-158.74-13.05-234.15-7.68-3.51-2.77,8.69-3.63,11.52-3.84,82.25-6.09,181.41.3,262.3,15.35Z"/>
    <path class="st5" d="M847.37,289.23c-20.9-6.26-46.24-11.34-67.81-15.35.54-2.7,13.84-1.45,14.71-1.28,16.66,3.21,34.74,9.8,52.46,14.07.82.2,5.57,2.88.64,2.56Z"/>
    <g>
      <path class="st13" d="M528.78,234.21c-6.91,1.09-17.04,2.83-23.03,6.4-101.86,6.07-263.01,37.06-333.95,115.79-108.28,120.19,106.51,201.32,195.12,223.27,111.92,27.72,230.59,26.99,344.82,16.63,5.47-.5,11.06-2.13,16.63-2.56s14.79-3.98,17.91,1.92l-5.76,1.92-81.25,12.79c-10.86.81-24.71-.23-34.55,3.84-4.64-.66-9.55-.1-14.07,1.28.56-3.84-3.42-2.49-5.76-2.56-68.81-1.99-130.38-1.9-198.96-12.79-.81-.13-1.75.13-2.56,0-.32-7.7-19.96-5.82-27.51-7.68-54.67-13.47-120.99-33.73-168.25-62.7-10.41-6.38-21.76-13.49-30.71-21.75-15.51-14.31-29.42-33.53-35.83-53.74-6.38-20.13-7.54-33.86-5.12-55.02,33.19-115.6,246.56-156.33,348.66-165.05,13.84-1.18,31.38-3.07,44.14,0Z"/>
      <path class="st0" d="M597.87,239.33c6.16.05,13.66,1.13,20.47,1.28,5.92,1.4,12.72.33,18.55,1.28,1.33.22,11.01,1.02,8.96,3.84-43.8.62-87.55,2.8-131.15,6.4-90.09,7.44-177.25,19.22-259.74,57.58-51.98,24.17-117.36,66.45-92.12,134.35,27.23,73.26,172.04,118.07,241.82,131.79,61.79,12.15,215.55,26.51,273.81,11.52,11.45-1.64,23.08-2.34,34.55-3.84,2,5.62,1.89,8.01-1.28,12.79-114.24,10.36-232.9,11.09-344.82-16.63-88.62-21.95-303.4-103.09-195.12-223.27,70.93-78.73,232.08-109.72,333.95-115.79,30.59-1.82,61.43-1.52,92.12-1.28Z"/>
      <path class="st13" d="M728.38,580.96v12.79c-5.57.43-11.17,2.06-16.63,2.56,3.16-4.78,3.28-7.17,1.28-12.79,5.05-.66,10.31-1.82,15.35-2.56Z"/>
      <path class="st28" d="M1032.9,464.52c-38.89,72.07-141.99,102.01-216.23,121.55l-1.28-3.84c52.59-13.95,125.69-42.49,167.61-78.05,4.22,3.76,12.28-1.14,15.99-3.84,7.72-5.61,28.8-38.55,33.91-35.83Z"/>
      <g>
        <path class="st5" d="M141.1,454.29l-52.46,249.5c-2.82-6.7-4.89-10.39-6.4-17.91-.79-3.93-3.29-7.82-2.56-12.16l28.15-141.38c2.27-7.97,5.98-17.14,5.12-25.59,7.04-33.81,13.68-74.9,23.03-107.48-2.42,21.16-1.26,34.89,5.12,55.02Z"/>
        <path class="st1" d="M1071.29,655.17c3.94,15.79,7.58,31.71,12.16,47.34,13-13.1,3.86-30.21.64-44.78l3.84-1.28c.68,2.4,4.63,16.81,5.76,16.63l3.2-3.2c-2.83,92.75-114.64,146.17-191.28,170.81-9.28,2.98-22.47,4.36-31.99,7.68-1.69.59-9.11,7.86-9.6,2.56,1.45-.83,5.13-.73,6.4-3.2l-43.5-259.1c23.25-5.58,46.63-12.29,69.09-20.47,14.28,74.21,25.93,148.94,39.66,223.27,1.2,6.49-1.36,30.72,8.32,30.07,2.91-.2,23.06-11.91,27.51-14.07,13.9-6.76,24.06-12,37.11-20.47,4.41-2.86,8.55-5.86,12.79-8.96,22.4-16.33,40.31-32.69,56.3-55.66l-55.02-232.23c2.08-2.6,6.33-7.62,7.68-10.24,14.99,58.07,26.41,117.11,40.94,175.29Z"/>
        <path class="st5" d="M335.58,586.07l-34.55,264.85c-16.09-4.87-31.75-10.37-47.34-16.63l44.78-259.74c11.08,3.75,25.95,8.53,37.11,11.52Z"/>
        <path class="st28" d="M207.63,529.78c-.06,1.56,1.73,1.95,2.56,2.56l-1.28,2.56-51.18,245.02c2.21,3.57,6.19,4.89,8.96,7.04,1.07.83,3.59,3.72,3.84,3.84l-1.28,5.12c-28.31-16.56-84.02-66.35-90.84-99.16-.86-4.13-3.61-11.84,3.84-10.88,1.51,7.53,3.58,11.21,6.4,17.91,3.14,7.47,8.34,18.23,12.79,24.95,1.91,2.88,17.22,23.64,20.47,20.47l55.02-241.18c8.95,8.26,20.3,15.37,30.71,21.75Z"/>
        <path class="st13" d="M368.84,593.75l-28.15,264.85-3.2,3.84c-12.13-3.99-24.25-7.82-36.47-11.52l34.55-264.85c10.29,2.75,22.77,5.45,33.27,7.68Z"/>
        <path class="st2" d="M403.39,600.15c.81.13,1.75-.13,2.56,0l-30.71,266.13c-11.54-2.31-23.25-4.31-34.55-7.68l28.15-264.85c11.14,2.36,23.31,4.57,34.55,6.4Z"/>
        <path class="st13" d="M298.47,574.56l-44.78,259.74c-10.46-4.2-18.23-8.21-28.15-12.79l40.94-259.74c10.13,4.24,21.69,9.31,31.99,12.79Z"/>
        <path class="st3" d="M794.92,595.03l34.55,267.41c-.47.13-4.3,4.46-8.32,5.12-5.58.91-13.15-1.01-23.67,1.28l-28.15-264.21c.11-7.19,21.87-1.26,19.19-8.32,2.17-.4,4.25-.87,6.4-1.28Z"/>
        <path class="st28" d="M239.62,550.25c.54.28,2.44.59,3.84,1.28l-43.5,255.9c-2.7-1.28-11.47-6.34-12.16-6.4-5.17-.44-2.33,3.45-3.84,3.84-.83.21-12.49-7.66-14.71-8.96l1.28-5.12c1.2.58,3.33.18,4.48,2.56,17.13-82.24,28.73-166.7,41.58-250.14,3.5-7.36,20,16.89,23.03,7.04Z"/>
        <path class="st22" d="M266.49,561.76l-40.94,259.74c-8.9-4.12-17.02-10.01-25.59-14.07l43.5-255.9c7.51,3.71,15.3,7,23.03,10.24Z"/>
        <path class="st14" d="M1087.92,656.45l-3.84,1.28c-5.68-25.71-12.92-52.67-22.39-79.33-1.38,4.86.86,13.45,1.92,18.55,1.46,7.08,13.03,43.27,12.79,46.06-.46,5.51-3.43,2.21-3.84,3.84-.59,2.33,3.1,5.74-1.28,8.32-14.53-58.18-25.95-117.22-40.94-175.29,1.28-2.49,5.04-14.03,2.56-15.35,2.74-5.07,6.28-9.46,7.68-15.35,9.31,60.78,30.5,147.49,47.34,207.28Z"/>
        <path class="st1" d="M176.92,508.03l-55.02,241.18c-3.25,3.17-18.56-17.59-20.47-20.47-4.45-6.72-9.65-17.48-12.79-24.95l52.46-249.5c6.4,20.21,20.31,39.43,35.83,53.74Z"/>
        <path class="st0" d="M403.39,600.15c-11.24-1.83-23.4-4.03-34.55-6.4-10.5-2.23-22.97-4.92-33.27-7.68-11.16-2.99-26.03-7.77-37.11-11.52-10.3-3.49-21.85-8.56-31.99-12.79-7.74-3.24-15.52-6.52-23.03-10.24-1.4-.69-3.3-1-3.84-1.28-8.91-4.55-21.36-11.99-29.43-17.91-.83-.61-2.62-1-2.56-2.56,47.26,28.97,113.59,49.23,168.25,62.7,7.55,1.86,27.19-.02,27.51,7.68Z"/>
        <path class="st13" d="M1030.34,479.88c-1.35,2.62-5.6,7.63-7.68,10.24-11.89,14.9-34.95,31.95-51.18,42.22-3.32,2.1-6.86,4.46-10.24,6.4-14.63,8.41-32.93,16.67-48.62,23.03-5.44,2.21-11.12,4.39-16.63,6.4-22.46,8.18-45.84,14.89-69.09,20.47-4.66,1.12-9.46,1.54-14.07,2.56-2.16.48-4.26.83-6.4,1.28-3.83.8-7.63,1.81-11.52,2.56-2.15.41-4.22.88-6.4,1.28-10.43,1.93-20.97,4.13-31.35,6.4v-2.56c20.46-2.35,39.77-8.88,59.5-14.07,74.24-19.54,177.34-49.48,216.23-121.55,2.48,1.32-1.28,12.86-2.56,15.35Z"/>
        <path class="st19" d="M1021.39,778l-49.9-245.66c16.23-10.27,39.29-27.32,51.18-42.22l55.02,232.23c-15.99,22.96-33.9,39.33-56.3,55.66Z"/>
        <path class="st3" d="M1008.59,786.95c-13.04,8.48-23.2,13.71-37.11,20.47-7.14.5-7.28,5.6-10.24-3.2-18.21-54.25-20.37-135.9-35.83-191.92l-12.79-50.54c15.69-6.37,34-14.62,48.62-23.03l47.34,248.22Z"/>
        <path class="st3" d="M912.63,561.76l12.79,50.54c15.45,56.02,17.61,137.67,35.83,191.92,2.95,8.8,3.1,3.7,10.24,3.2-4.45,2.17-24.6,13.88-27.51,14.07-9.67.65-7.12-23.58-8.32-30.07-13.73-74.33-25.38-149.06-39.66-223.27,5.51-2.01,11.2-4.19,16.63-6.4Z"/>
        <path class="st3" d="M1021.39,778c-4.24,3.09-8.39,6.09-12.79,8.96l-47.34-248.22c3.37-1.94,6.92-4.3,10.24-6.4l49.9,245.66Z"/>
        <path class="st24" d="M1084.08,657.73c3.22,14.57,12.36,31.68-.64,44.78-4.57-15.63-8.21-31.56-12.16-47.34,4.38-2.58.69-5.99,1.28-8.32.41-1.63,3.38,1.68,3.84-3.84.23-2.79-11.33-38.98-12.79-46.06-1.06-5.11-3.3-13.69-1.92-18.55,9.47,26.66,16.71,53.61,22.39,79.33Z"/>
        <path class="st22" d="M239.62,550.25c-3.03,9.85-19.53-14.4-23.03-7.04-12.86,83.44-24.45,167.9-41.58,250.14-1.15-2.38-3.28-1.98-4.48-2.56-.24-.12-2.77-3.01-3.84-3.84,13.72-73.41,28.87-146.99,40.94-220.71.81-4.96,1.96-10.49,2.56-15.35.34-2.76,1.47-14.18-1.28-15.99l1.28-2.56c8.07,5.92,20.52,13.36,29.43,17.91Z"/>
        <path class="st24" d="M166.69,786.95c-2.76-2.15-6.74-3.47-8.96-7.04l51.18-245.02c2.75,1.81,1.62,13.23,1.28,15.99-.6,4.87-1.75,10.4-2.56,15.35-12.07,73.72-27.22,147.3-40.94,220.71Z"/>
        <g>
          <path class="st28" d="M826.9,588.63l43.5,259.1c-1.27,2.47-4.94,2.37-6.4,3.2-9.85,5.65-23.69,8.4-34.55,11.52l-34.55-267.41c3.89-.75,7.69-1.76,11.52-2.56l35.19,207.28-28.79-208.56c4.61-1.02,9.41-1.44,14.07-2.56Z"/>
          <path class="st3" d="M806.43,592.47c2.13-.45,4.23-.8,6.4-1.28l28.79,208.56-35.19-207.28Z"/>
          <path class="st1" d="M840.34,802.31c2.47,7.85,7.28,26.47,7.04,33.91-.13,3.94,1.13,5-3.2,7.04l-3.84-40.94Z"/>
        </g>
      </g>
      <path class="st0" d="M171.8,387.75c-4.32,14.63-4.4,38.11,2.56,51.82.74,1.46,2.17-1.37,2.56-.64,4.47,8.54,6.87,12.74,12.79,20.47,16.32,21.3,26.32,29.08,48.62,43.5,30.72,19.87,59.26,31.29,93.4,42.22,21.37,13.77,46.48,14.32,70.37,19.19.14.03-.4.69,2.56,1.28v10.24c-69.79-13.72-214.6-58.52-241.82-131.79-1.64-19.18-2.63-39.89,8.96-56.3Z"/>
      <path class="st13" d="M409.79,566.88c4.25.81,8.56,1.84,12.79,2.56,10.17,1.73,20.5,3.72,30.71,5.12,6.32.87,12.88,1.85,19.19,2.56,11.8,1.32,23.96,1.66,35.83,2.56,1.68.13,3.44-.12,5.12,0,6.87.48,13.55.95,20.47,1.28,26.4,1.27,51.6,1.9,78.05,1.28s51.32-1.27,76.77-3.84c1.67,10.54-4.64,4.68-9.6,6.4-1.12.39-.51,2.53-.64,2.56-58.26,14.99-212.02.63-273.81-11.52v-10.24c1.99.39,3.69,1.01,5.12,1.28Z"/>
      <g>
        <path class="st29" d="M56.65,639.81c-9.75,17.43-11.23,29.78-11.52,49.26-.01.96-2.57.33-2.56,1.28.01,1,2.32-.7,2.56,3.2-4.77,3.34-1.21,20.39,0,25.59l-1.28,1.28c-.23-1.24-1.4-6.24-2.56-7.04-1.77,43.61,29.5,82.29,60.78,109.4,137.2,118.92,436.49,142.47,610.32,125.39,115.82-11.38,342.77-61.42,402.4-172.73,16.78-24.95,22.34-56.77,12.79-85.73-.2-7.95-.47-15.97-2.56-23.67-2.66-9.77-12.04-18.34-11.52-27.51,77.56,58.85,45.27,152.33-17.27,207.28-148.3,130.29-468.96,145.49-656.38,122.83-149.19-18.04-535.76-108.83-384.49-330.11l1.28,1.28Z"/>
        <path class="st0" d="M1110.95,637.25c.73.18,2.03.88,2.56,1.28-.53,9.17,8.86,17.74,11.52,27.51,2.09,7.7,2.36,15.72,2.56,23.67,2.48,99.61-147.86,164.25-227.75,188.09v-5.12c9.15-2.83,52.69-17.35,57.58-21.75,83.22-33.61,211.63-107.45,149.7-214.95,1.63,1.18,1.55,2.69,3.2,3.84l.64-2.56Z"/>
        <path class="st19" d="M43.85,720.42c15.82,85.12,104.66,130.42,177.85,161.22,3.4,3.62,6.71,2.66,8.96,3.84,72.76,38.26,224.89,57.74,307.72,60.14,10.65.31,82.98,1.65,87.01,0,.2-.08,1.8-3.5,1.92-3.84l111.32-7.68c73.7-5.25,147.56-22.81,216.23-49.9,76.69-30.25,152.96-72.07,174.01-158.66,3.27,9.85-8.96,40.35-14.07,49.9-59.63,111.31-286.58,161.35-402.4,172.73-173.83,17.08-473.12-6.47-610.32-125.39-31.27-27.11-62.54-65.79-60.78-109.4,1.16.8,2.33,5.8,2.56,7.04Z"/>
        <path class="st6" d="M1114.79,775.44c5.12-9.55,17.35-40.05,14.07-49.9-.48-1.45,1.13-5.3-2.56-3.2-20.63,68.58-103.76,115.99-166.33,142.66-57.08,24.33-118.88,39.5-179.77,51.18-5.8,1.11-35.9,3.71-37.74,5.76s-.83,9.33-3.84,12.16l-111.32,7.68c.61-1.77.54-10.43-1.92-11.52-63.18,1.35-126.1-1.17-188.72-8.96-1.16-9.6,8.49-3.43,8.96-10.24,16.65,1.88,33.14,3.96,49.9,5.12l-5.76,3.84c22.98.64,46.16,4.54,69.09,5.12,12.52.32,55.58,1.57,65.25-1.28,3.1-.91,1.4-2.82,3.2-5.12,88.91-2.93,187.35-15.53,272.53-40.94,79.89-23.84,230.23-88.48,227.75-188.09,9.54,28.96,3.99,60.77-12.79,85.73Z"/>
        <path class="st0" d="M78.4,615.5c-4.29,7.32-4.9,15.77-8.96,24.31-3.22,6.78-9.82,14.82-12.79,22.39-20.47,52.08,12.06,93.47,49.9,126.03,16.25,13.99,27.88,21.14,46.06,31.99,105.88,63.17,240.28,85.04,362.74,92.12,16.53.96,54.97-1.75,67.81,1.28,4.42,1.04,3.26.22,3.2,5.12-30.52.07-60.37-.45-90.84-2.56-16.76-1.16-33.25-3.24-49.9-5.12-92.42-10.41-193-30.89-275.73-74.21-53.99-28.27-120.64-77.56-124.75-143.3-.24-3.9-2.54-2.2-2.56-3.2s2.54-.32,2.56-1.28c.29-19.48,1.77-31.83,11.52-49.26,5-8.94,12.95-19.08,21.75-24.31Z"/>
        <path class="st3" d="M45.13,693.55c4.11,65.74,70.76,115.03,124.75,143.3,82.73,43.32,183.31,63.8,275.73,74.21-.46,6.8-10.12.64-8.96,10.24-70.17-8.72-141.9-23.16-207.28-49.9-4.17-1.71-8.72-3.34-12.79-5.12-58.87-25.66-155.85-79.9-171.45-147.14-1.21-5.2-4.77-22.25,0-25.59Z"/>
        <path class="st8" d="M216.59,866.28c-1.33,4.42,2.28,12.33,5.12,15.35-73.19-30.79-162.03-76.1-177.85-161.22l1.28-1.28c15.6,67.24,112.58,121.48,171.45,147.14Z"/>
        <path class="st28" d="M1107.11,635.97c61.93,107.5-66.48,181.35-149.7,214.95,3.63-3.26,3.13-10.34-3.2-10.24-2.92.05-39.99,16.79-47.34,19.19-15.87,5.19-34.53,11.18-50.54,15.35-83.87,21.85-183.19,32.3-269.97,31.99-.07-2.4,2.18-4.68,1.28-7.68,137.03.02,396.31-36.07,487.49-149.06,30.81-38.18,36.84-80.14,17.91-125.39,4.46-2.51,8.3,6.71,14.07,10.88Z"/>
        <path class="st2" d="M70.72,646.21c-4.87,52.18,3.51,80.25,40.94,117.71l-5.12,24.31c-37.84-32.56-70.37-73.95-49.9-126.03,2.97-7.57,9.58-15.61,12.79-22.39,3.09,3.45,1.6,2.94,1.28,6.4Z"/>
        <path class="st24" d="M221.7,834.3c104.37,45.6,252.17,65.24,365.93,65.25.9,2.99-1.34,5.28-1.28,7.68-94.96-.34-204.24-13.03-294.92-40.94-12.94-3.98-60.08-19.66-68.45-26.87-2.14-1.84-6.93-4.67-1.28-5.12Z"/>
        <path class="st8" d="M221.7,834.3c-5.65.45-.86,3.28,1.28,5.12-24.75-4.9-45.15-33.17-70.37-19.19-18.18-10.85-29.81-18-46.06-31.99l5.12-24.31c27.77,27.79,74.06,54.65,110.04,70.37Z"/>
        <path class="st3" d="M70.72,646.21c.32-3.46,1.81-2.94-1.28-6.4,4.05-8.54,4.67-16.99,8.96-24.31,1.49-2.54,6.85-12.58,8.96-7.04.95,2.48-8.22,51.71-10.88,51.82l-5.76-14.07Z"/>
        <g>
          <path class="st3" d="M1110.95,637.25l-.64,2.56c-1.65-1.15-1.57-2.66-3.2-3.84-5.78-4.16-9.61-13.38-14.07-10.88,18.93,45.25,12.89,87.21-17.91,125.39-91.17,113-350.45,149.08-487.49,149.06-113.76-.02-261.56-19.65-365.93-65.25-35.98-15.72-82.27-42.59-110.04-70.37-37.44-37.46-45.81-65.54-40.94-117.71l5.76,14.07c2.65-.11,11.82-49.34,10.88-51.82-2.11-5.54-7.47,4.5-8.96,7.04-8.81,5.23-16.75,15.37-21.75,24.31l-1.28-1.28c33.25-48.64,35.55-46.93,52.46-106.2l-28.15,141.38c-.73,4.33,1.77,8.23,2.56,12.16-7.45-.96-4.7,6.74-3.84,10.88,6.83,32.81,62.54,82.6,90.84,99.16,2.22,1.3,13.88,9.17,14.71,8.96,1.51-.39-1.33-4.28,3.84-3.84.68.06,9.46,5.12,12.16,6.4,8.57,4.06,16.69,9.95,25.59,14.07,9.92,4.59,17.69,8.6,28.15,12.79,15.59,6.26,31.26,11.76,47.34,16.63,12.22,3.7,24.33,7.53,36.47,11.52l3.2-3.84c11.3,3.37,23,5.37,34.55,7.68,9.79,1.96,19.57,3.51,29.43,5.12,4.71.77,9.23,1.86,14.07,2.56,27.95,4.02,56.25,7.2,84.45,8.96.62,4.6,3.2,2.74,4.48,6.4,94.26,3.9,195.2,2.85,287.89-16.63,2.07-.43,1.71-3.79,1.92-3.84,10.52-2.29,18.1-.37,23.67-1.28,4.02-.66,7.85-4.98,8.32-5.12,10.86-3.11,24.7-5.87,34.55-11.52.48,5.3,7.91-1.97,9.6-2.56,9.52-3.31,22.71-4.69,31.99-7.68,76.65-24.64,188.45-78.07,191.28-170.81l-3.2,3.2c-1.13.18-5.08-14.23-5.76-16.63-16.84-59.79-38.04-146.49-47.34-207.28-1.84-12.04-4.16-22.16,0-34.55,15.13,64.73,27.64,130.24,42.22,195.12l28.15,27.51Z"/>
          <polygon class="st5" points="1088.56 618.06 1089.84 619.34 1089.84 620.62 1088.56 620.62 1088.56 618.06"/>
        </g>
        <path class="st5" d="M222.98,839.41c8.37,7.21,55.51,22.89,68.45,26.87,90.68,27.92,199.96,40.6,294.92,40.94.08,2.8.96,5.12,1.92,7.68,91.27-2.18,182.12-10.14,270.61-31.99,13.53-3.34,27.66-6.12,40.94-10.24v5.12c-85.18,25.42-183.62,38.02-272.53,40.94-13.58.45-27.35-.03-40.94,0,.06-4.9,1.22-4.08-3.2-5.12-12.85-3.03-51.28-.32-67.81-1.28-122.46-7.09-256.85-28.95-362.74-92.12,25.22-13.98,45.62,14.29,70.37,19.19Z"/>
        <path class="st24" d="M957.41,850.93c-4.89,4.4-48.43,18.92-57.58,21.75-13.29,4.12-27.42,6.9-40.94,10.24l-2.56-7.68c16.01-4.17,34.67-10.16,50.54-15.35,7.35-2.4,44.42-19.14,47.34-19.19,6.33-.1,6.82,6.97,3.2,10.24Z"/>
        <path class="st1" d="M436.66,921.3c62.62,7.78,125.55,10.31,188.72,8.96,2.46,1.09,2.52,9.75,1.92,11.52-.12.34-1.72,3.76-1.92,3.84-4.03,1.65-76.36.31-87.01,0-82.82-2.4-234.95-21.88-307.72-60.14l-1.28-14.07c65.38,26.74,137.11,41.18,207.28,49.9Z"/>
        <path class="st3" d="M959.97,865l-5.12,19.19c-68.67,27.09-142.53,44.65-216.23,49.9,3.01-2.82,2.01-10.12,3.84-12.16s31.94-4.64,37.74-5.76c60.89-11.68,122.69-26.85,179.77-51.18Z"/>
        <path class="st3" d="M1128.86,725.54c-21.05,86.58-97.32,128.4-174.01,158.66l5.12-19.19c62.58-26.68,145.7-74.08,166.33-142.66,3.69-2.11,2.08,1.75,2.56,3.2Z"/>
        <path class="st2" d="M229.38,871.4l1.28,14.07c-2.25-1.18-5.56-.22-8.96-3.84-2.84-3.03-6.44-10.94-5.12-15.35,4.08,1.78,8.63,3.41,12.79,5.12Z"/>
        <path class="st3" d="M586.36,918.74c13.59-.03,27.37.45,40.94,0-1.8,2.3-.1,4.21-3.2,5.12-9.68,2.85-52.74,1.6-65.25,1.28-22.93-.58-46.11-4.48-69.09-5.12l5.76-3.84c30.47,2.11,60.32,2.63,90.84,2.56Z"/>
        <path class="st3" d="M611.95,824.06l-7.04,61.42c-33.64-1.55-67.96-.46-101.72-2.56-1.34-9.86,4.61-28.61,2.56-39.66,46.04-11.18,51.45-33.2,106.2-19.19Z"/>
        <g>
          <path class="st6" d="M815.39,582.24l1.28,3.84c-19.73,5.19-39.03,11.72-59.5,14.07v2.56c10.38-2.27,20.92-4.47,31.35-6.4,2.68,7.06-19.08,1.13-19.19,8.32l28.15,264.21c-.21.05.15,3.4-1.92,3.84-92.68,19.48-193.63,20.54-287.89,16.63-1.27-3.66-3.85-1.79-4.48-6.4,33.76,2.1,68.08,1.01,101.72,2.56l7.04-61.42c16,4.09,52.82,21.23,64.61,21.75,10.13.45,21.19-7.06,24.95-15.99,1.2-2.86-1.34-3.04-1.28-3.2,14.09-41.08-33.38-92.12-66.53-112.6-6.81-7.24-16.27-12.14-25.59-15.35v-16.63c39.23,30.24,64.07-36.17,30.71-58.86-4.06-5.65-6.26-7.85-14.07-8.96,9.84-4.07,23.69-3.03,34.55-3.84,27.98-2.08,60.31-4.71,87.65-10.24.59-.12.24-4.37,3.84-5.12,21.61-4.46,43.17-7.11,64.61-12.79Z"/>
          <path class="st0" d="M697.67,676.92c53.93,73.95-53.87,71.66-18.55,0-3.11.94-8.49,7.07-9.6,9.6-2.51,5.74-.99,13.74-5.12,17.27-.79-24.39,8.43-39.13,33.27-26.87Z"/>
          <path class="st29" d="M664.41,703.79c4.13-3.53,2.61-11.53,5.12-17.27,1.1-2.52,6.49-8.66,9.6-9.6-35.31,71.66,72.48,73.95,18.55,0,34.82,17.18,21.2,95.41-15.99,66.53-10.04-7.79-16.87-27.11-17.27-39.66Z"/>
        </g>
        <path class="st8" d="M856.33,875.24l2.56,7.68c-88.49,21.85-179.34,29.81-270.61,31.99-.95-2.56-1.84-4.88-1.92-7.68,86.78.31,186.1-10.14,269.97-31.99Z"/>
        <g>
          <g>
            <path class="st0" d="M624.74,614.22c7.82,1.1,10.02,3.31,14.07,8.96,32.79,45.63-35.15,71.36-41.58,19.19-2.78,2.45-2.46,16.49-1.92,19.19-8.53-15.69-2.53-40.6,15.35-46.06,4.52-1.38,9.43-1.93,14.07-1.28Z"/>
            <path class="st29" d="M608.11,682.04c-4.37-3.37-11.69-14.92-12.79-20.47-.54-2.7-.86-16.75,1.92-19.19,6.44,52.17,74.37,26.44,41.58-19.19,33.36,22.69,8.52,89.1-30.71,58.86Z"/>
          </g>
          <g>
            <path class="st29" d="M633.7,714.02c33.15,20.48,80.62,71.52,66.53,112.6-7.06,6.41-8.93,9.23-19.19,8.96l-30.71-14.71c33.36-7.47,26.01-44.14,10.24-65.25-7.59-10.16-57.9-51.99-69.09-53.1l1.28-2.56c14.28.7,28.9,6.64,40.94,14.07Z"/>
            <path class="st26" d="M608.11,698.67c9.32,3.22,18.78,8.11,25.59,15.35-12.04-7.44-26.66-13.37-40.94-14.07-38.17-1.87-63.12,31.68-88.28,55.66l8.96-3.2c-13.78,19.67-9.43,56.64,15.35,65.89-7.79,5.63-11.45,1.42-17.27,1.92-1.06.09-.51,2.55-.64,2.56-12.86.45-28.52-1.47-33.27-15.99-1.67-5.09.14-12.58-1.92-17.27-2.78,6.85-7.2,18.4-7.04,25.59-3.87-34.5,40.66-76.79,65.89-97.24s42.3-29.99,73.57-19.19Z"/>
            <path class="st1" d="M681.04,835.58c10.26.27,12.14-2.55,19.19-8.96-.06.16,2.48.34,1.28,3.2-3.76,8.94-14.82,16.44-24.95,15.99-11.79-.52-48.62-17.66-64.61-21.75-54.75-14.01-60.16,8.01-106.2,19.19-16.99,4.13-31.76-.77-34.55-19.19,5.91,12.95,15.44,11.9,26.87,8.96,32.55-8.39,57.33-29.46,95.32-26.87,28.8,1.96,64.83,28.82,87.65,29.43Z"/>
            <path class="st11" d="M510.87,822.78l-12.79,10.24c-11.43,2.95-20.96,4-26.87-8.96-1.1-2.42-2.5-6.28-2.56-8.96-.16-7.19,4.25-18.74,7.04-25.59,2.06,4.69.25,12.18,1.92,17.27,4.75,14.52,20.4,16.44,33.27,15.99Z"/>
            <path class="st0" d="M591.48,702.51c11.19,1.11,61.5,42.93,69.09,53.1,15.77,21.11,23.13,57.78-10.24,65.25l30.71,14.71c-22.81-.61-58.85-27.47-87.65-29.43-38-2.59-62.77,18.48-95.32,26.87l12.79-10.24c.13,0-.42-2.47.64-2.56,5.82-.5,9.48,3.71,17.27-1.92-24.79-9.26-29.13-46.22-15.35-65.89,5.29-7.56,63.13-48.54,71.01-49.9,1.72-.3,5.18-.18,7.04,0Z"/>
            <path class="st5" d="M592.76,699.95l-1.28,2.56c-1.85-.18-5.32-.3-7.04,0-7.88,1.36-65.72,42.34-71.01,49.9l-8.96,3.2c25.16-23.98,50.12-57.53,88.28-55.66Z"/>
          </g>
        </g>
        <g>
          <path class="st28" d="M610.67,615.5c-17.88,5.47-23.88,30.37-15.35,46.06,1.1,5.55,8.43,17.11,12.79,20.47v16.63c-31.27-10.8-49.26-.5-73.57,19.19s-69.76,62.74-65.89,97.24c.06,2.68,1.46,6.54,2.56,8.96,2.78,18.42,17.56,23.32,34.55,19.19,2.05,11.06-3.89,29.8-2.56,39.66-28.2-1.75-56.5-4.94-84.45-8.96l7.04-211.12-21.11,208.56c-9.85-1.61-19.64-3.16-29.43-5.12l30.71-266.13c68.58,10.89,130.15,10.81,198.96,12.79,2.34.07,6.32-1.28,5.76,2.56Z"/>
          <g>
            <path class="st2" d="M418.75,873.96c-4.84-.7-9.36-1.79-14.07-2.56l21.11-208.56-7.04,211.12Z"/>
            <g>
              <g>
                <path class="st26" d="M504.47,684.6c-5.47-.69-7.77-9.52-14.07-7.04,23.22,19.18-8.42,70.33-28.15,40.94-1.93-2.87-1.17-11.74-5.12-11.52-5.05,27.06,14.5,56.08,39.66,30.07-30.91,38.26-55.42-18.07-34.55-50.54,10.15-15.79,32.74-21.79,42.22-1.92Z"/>
                <path class="st13" d="M504.47,684.6c8.21,17.21,3.93,38.1-7.68,52.46-25.17,26.01-44.72-3-39.66-30.07,3.95-.23,3.19,8.64,5.12,11.52,19.73,29.39,51.37-21.76,28.15-40.94,6.31-2.48,8.61,6.35,14.07,7.04Z"/>
              </g>
              <g>
                <path class="st13" d="M577.4,635.97c13.31,46.04-49.64,78.9-58.86,33.27,4.12-4.02-3.69-10.52,2.56-12.79,9.59,38.1,75.44-4.01,43.5-31.99,6.16-2.21,8.9,9.3,12.79,11.52Z"/>
                <path class="st0" d="M577.4,635.97c-3.89-2.21-6.63-13.72-12.79-11.52-18.82-16.48-48.57,11.83-43.5,31.99-6.25,2.27,1.56,8.78-2.56,12.79-10.11-50.08,46.32-76.65,58.86-33.27Z"/>
                <path class="st0" d="M564.61,624.46c31.93,27.97-33.92,70.09-43.5,31.99-5.07-20.15,24.68-48.47,43.5-31.99Z"/>
              </g>
            </g>
          </g>
        </g>
      </g>
    </g>
    <path class="st3" d="M981.72,372.4c20.24,28.48,20.62,48.22,6.4,79.33-5.83,2.98-4.67-6.09-6.4-8.32-4.09-5.28-34.12-22.8-42.22-27.51,2.45-8.36,23.02-53.8,21.75-58.22-.37-1.28-14.16-10.96-16.63-13.43-.54-.54,1.36-1.84,1.28-1.92-2.76-2.86-8.55-3.85-8.96-8.32,14.29,7.58,35.45,25.25,44.78,38.38Z"/>
    <path class="st3" d="M739.9,270.04c-.34,4.9,5.86.64,7.68,4.48,3.23,6.82-6.91,52.3-7.68,62.7.32.88,15.52,4.96,17.91,5.76.33.72,1.14,4.89,1.28,5.12-6.17-4.22-13.07-4.03-19.83-7.68-3.4-1.83-6.51-7.73-11.52-10.24-15.08-7.56-38.42-16.45-55.66-24.31-13.56-11.24-45.9-26.8-63.33-28.15-26.52-2.05-51.44,14.9-74.21,24.31-6.39,2.64-19.23,2.36-23.03,3.84-4.23,1.65-11.11,13.51-20.47,16.63-10.42,3.47-25.7.94-34.55,3.84-3.13,1.03-7.59,6.65-10.24,7.68-20.18,7.82-40.51,10.85-60.78,19.19-4.85-2.57-18.28,9.95-20.47,4.48-2.33-12.62-2.82-55.95-8.32-64.61-.22-.34-2.89.31-3.2,0-1.32-1.3-2.75-3.54-3.84-5.12,50.56-13.74,103.79-21.86,156.1-25.59,75.41-5.37,159.27-2.72,234.15,7.68Z"/>
    <path class="st3" d="M353.49,293.07l-40.94,13.43,11.52,61.42c-.52,2.03-7.31,3.79-10.24,5.76-6.88,4.61-13.64,9.43-20.47,14.07-13.3-.88-25.23,5.16-37.11,10.24-3.8,1.63-12.64,4.83-15.35,6.4l-14.71-53.74c-1.24-.48-20.72,14.72-21.11,15.99-1.23,4,13.82,44.73,16.63,51.82-.73.55-4.41,7.85-5.76,8.96-2.02,1.67-8.62,1.63-11.52,3.84-8.78,6.69-13.39,17.21-14.71,28.15-5.93-7.73-8.32-11.93-12.79-20.47-21.36-89.06,106.62-133.02,172.73-150.98,1.09,1.58,2.52,3.81,3.84,5.12Z"/>
    <path class="st2" d="M837.14,291.79l56.3,22.39-14.07,72.29c-19.75-8.49-43.55-16.8-63.97-24.31-1.76-.65-1.19-1.25-1.28-1.28l12.79-68.45-76.77-21.11c29.55,4.5,58.49,11.92,87.01,20.47Z"/>
    <path class="st1" d="M750.13,271.32l76.77,21.11-12.79,68.45c-18.4-6.74-37.71-11.72-56.3-17.91-2.39-.8-17.59-4.87-17.91-5.76.76-10.39,10.9-55.87,7.68-62.7-1.81-3.84-8.02.42-7.68-4.48,3.36.47,6.92.77,10.24,1.28Z"/>
    <path class="st28" d="M837.14,291.79c34.33,10.3,68.61,22.12,98.52,42.22-1.8-.91-15.96-7.64-16.63-7.04l-10.24,72.29c-1.68-.81-4.31-1.58-6.4-2.56-7.6-3.55-15.33-6.92-23.03-10.24l14.07-72.29-56.3-22.39Z"/>
    <path class="st1" d="M935.66,334.01c.34.17.95-.18,1.28,0,.41,4.47,6.19,5.46,8.96,8.32.08.08-1.82,1.38-1.28,1.92l-20.47,62.7c-4.76-2.49-10.51-5.33-15.35-7.68l10.24-72.29c.68-.6,14.83,6.12,16.63,7.04Z"/>
    <path class="st28" d="M939.5,415.9c-4.88-2.84-10.46-6.39-15.35-8.96l20.47-62.7c2.48,2.47,16.27,12.16,16.63,13.43,1.27,4.42-19.3,49.86-21.75,58.22Z"/>
    <path class="st16" d="M879.36,386.47c7.7,3.31,15.43,6.69,23.03,10.24-2.74,7.38-5.3,9.41-1.28,16.63-6.59-4.79-16.24-1-22.39-2.56-5.23-1.33-19.62-22.67-28.15-25.59-8.58-2.94-14.13,1.36-20.47,0-1.23-.27-22.41-7.16-23.67-7.68,9.16-1.49,3.37-10.55,8.96-15.35,20.42,7.51,44.23,15.82,63.97,24.31Z"/>
    <path class="st6" d="M385.48,353.21c-8.9,3.66-39.48,23.71-45.42,24.31-8.99.91-14.42-9.5-26.23-3.84,2.93-1.96,9.72-3.73,10.24-5.76l-11.52-61.42,40.94-13.43c.31.31,2.98-.34,3.2,0,5.49,8.66,5.99,52,8.32,64.61,2.19,5.47,15.63-7.05,20.47-4.48Z"/>
    <path class="st6" d="M814.11,360.88c.08.03-.48.63,1.28,1.28-5.58,4.81.2,13.86-8.96,15.35-12.91-5.34-21.43-18.21-28.79-21.75-8.3-3.99-13.06,1.28-18.55-7.68-.14-.22-.95-4.4-1.28-5.12,18.59,6.19,37.9,11.18,56.3,17.91Z"/>
    <path class="st3" d="M240.9,404.39c-4.89,2.82-14.1,10.27-19.19,14.07-2.82-7.09-17.87-47.82-16.63-51.82.39-1.27,19.87-16.47,21.11-15.99l14.71,53.74Z"/>
    <g>
      <path class="st15" d="M908.79,399.27c4.84,2.35,10.59,5.19,15.35,7.68s10.47,6.12,15.35,8.96c8.1,4.71,38.13,22.23,42.22,27.51,1.73,2.23.57,11.29,6.4,8.32-3.47,7.58-5.25,11.13-10.24,17.91,2.13-10.88-6.76-4.51-10.88-6.4s-13.01-8.48-19.83-11.52-13.08-7.26-21.11-6.4c14.52-9.89-6.75.93-12.16-1.28-.45-1.01-1.11-1.58-1.28-2.56-1.38-8.2,2.07-11.35,1.28-14.71-.35-1.48-11.89-11.81-12.79-13.43-4.02-7.23-1.46-9.25,1.28-16.63,2.09.97,4.72,1.75,6.4,2.56Z"/>
      <path class="st25" d="M977.88,469.64c-1.1,1.49-2.2,2.1-2.56,2.56-10.38,1.02-5.57-6.79-7.04-7.68-1.73-1.04-4.02,1.93-5.76,1.28-4.61-1.73-13.01-8.05-17.91-8.96l2.56-5.12c6.82,3.04,15.56,9.55,19.83,11.52s13.01-4.48,10.88,6.4Z"/>
      <path class="st17" d="M975.32,472.2c-6.93,8.69-9.56,10.9-17.91,17.91-2.43-6.86,1.73-7.42,3.84-14.07.7-2.22.87-7.6,1.28-10.24,1.74.65,4.03-2.32,5.76-1.28,1.47.88-3.35,8.7,7.04,7.68Z"/>
      <path class="st10" d="M508.31,579.68c-11.86-.9-24.02-1.24-35.83-2.56,4.4-10.97,38.24-11.6,35.83,2.56Z"/>
      <path class="st20" d="M759.09,348.09c5.5,8.95,10.25,3.68,18.55,7.68,7.36,3.54,15.88,16.41,28.79,21.75,1.26.52,22.44,7.41,23.67,7.68,6.35,1.36,11.89-2.94,20.47,0,8.53,2.92,22.92,24.26,28.15,25.59,6.15,1.56,15.8-2.23,22.39,2.56.91,1.63,12.45,11.95,12.79,13.43.79,3.37-2.66,6.51-1.28,14.71-6.34-3.96-6.8-19.76-14.71-23.03-4.98-2.06-15.02,1.11-21.75-1.28-3.7-1.31-8.44-7.5-12.16-10.24-7.81-5.76-12.03-13.65-24.31-15.35-.76-.11-5.84,2.83-7.04,2.56-1.92-.43-7.92-7.96-19.83-10.24-1.89-.36-3.29,1.66-6.4,1.28-1.88-.23-17.59-8.53-21.75-10.24-.48-.2-3.22-4.67-8.96-5.12-.18-10.73-8.02-14.07-17.91-11.52-2.92-8.98-13.28-6.44-19.83-10.24-4.26-2.47-6.91-6.28-10.88-8.96-6.5-4.39-1.9-5.59-14.07-5.12-1.44-11.95-14.56-7.85-21.75-11.52-1.01-.52-12.76-7.21-13.43-7.68-3.07-2.13-5.32-8.59-5.76-8.96,17.24,7.86,40.57,16.75,55.66,24.31,5,2.51,8.12,8.41,11.52,10.24,6.76,3.65,13.66,3.45,19.83,7.68Z"/>
      <path class="st17" d="M757.81,358.33c.78,2.39-1.53,6.96-.64,10.24-2.3,1.98-19.7.65-21.75-1.28-2.4-2.25,4.27-8.72-.64-10.88-1.88-.82-1.04,4.1-5.76,3.2-8.21-1.57-6.14-15.48-1.92-20.47,3.97,2.68,6.62,6.49,10.88,8.96,6.55,3.79,16.92,1.25,19.83,10.24Z"/>
      <path class="st12" d="M940.78,458.13c3.87.36,3.64-1.32,3.84-1.28,4.9.9,13.31,7.22,17.91,8.96-.41,2.64-.58,8.02-1.28,10.24-11.89-8.86-19.79-12.8-35.19-8.96-4.15-3.02-4.06-5.97-1.28-10.24,5.49-.95,10.77.79,15.99,1.28Z"/>
      <path class="st17" d="M864.01,406.95c-14.19,9.77-30.2.73-24.31-15.35,12.28,1.71,16.5,9.6,24.31,15.35Z"/>
      <path class="st17" d="M688.72,497.79c-1.77,6.05-2.32,12.07-5.12,17.91-1.51.27-3.98-.42-5.12,0-4.92-2.56-9.94-5.22-15.35-2.56-8.26.37-.52-5.5,1.92-6.4,10.38-3.82,24.41,3.19,7.68-11.52l15.99,2.56Z"/>
      <path class="st12" d="M713.03,334.01c-.16,0,.75,3.2-1.92,2.56l-2.56-5.12c-6.21,10.32-19.03,4.46-24.95.64l7.68-9.6c7.19,3.66,20.31-.43,21.75,11.52Z"/>
      <path class="st12" d="M661.85,341.69c-2.53-6.4-4.92-12.88-7.68-19.19,4.71-2.15,4.29-2.04,6.4-6.4,13.41.27,3.88,9.43,5.12,10.88,1.5,1.76,6.24-1.25,7.68,3.84-1.76,6.76-7.01,6.98-11.52,10.88Z"/>
      <path class="st25" d="M947.18,451.73l-2.56,5.12c-.2-.04.03,1.64-3.84,1.28-8.87-10.93-21.1-1.17-26.87-14.07,5.4,2.21,26.68-8.61,12.16,1.28,8.03-.87,14.6,3.5,21.11,6.4Z"/>
      <path class="st17" d="M660.57,316.1c-2.11,4.35-1.68,4.25-6.4,6.4-1.44-3.29-3.51-6.77-5.12-10.24l10.88-7.68c4.73,4.65,3.03,6.58.64,11.52Z"/>
      <path class="st23" d="M293.35,387.75c-9.24,6.28-27.84,15.83-34.55,21.75l-2.56-11.52c11.87-5.08,23.8-11.11,37.11-10.24Z"/>
      <path class="st17" d="M512.15,523.38c-.09.82.19,1.9,0,2.56-.54,1.92-2.66,3-3.84,4.48,7.73,3.19,12.7-4.33,19.19-7.04.98.56,1.91.91,2.56,1.92-6.84,7.14-9.16,11.07-19.83,10.88-5.75-.11-4.57-8.89-14.07,5.12l-15.99-7.68c3.76-1.13,12.82-9.64,18.55-10.24,11.09-1.16,5.26,6.32,13.43,0Z"/>
      <path class="st7" d="M513.43,500.35c-2.85,1.28-7.01,1.29-7.68,5.76,9.93,3.69,18.62-4.59,26.87-7.04.64-.19,1.74.1,2.56,0-5.82,5.6-10.41,11.02-16.63,16.63-7.87-.97-15.87-.73-21.75-7.04-.86-4.02,13.83-15.95,16.63-8.32Z"/>
      <path class="st17" d="M550.53,484.99c1.37-1.46,3.64-2.24,5.12-3.84,3.46-3.75,6.89-7.66,10.24-11.52,1.17-1.36,2.75-2.49,3.84-3.84,11.9,11.44-8.07,23.2-19.19,19.19Z"/>
      <path class="st9" d="M532.62,499.07c-8.25,2.44-16.94,10.72-26.87,7.04.66-4.46,4.83-4.48,7.68-5.76,1.82-.82,22.89-8.05,19.19-1.28Z"/>
      <g>
        <path class="st20" d="M613.23,303.31c-.66,4.53,1.39,25.4-1.28,27.51-3.3,2.62-11.64-2.54-20.47,3.84-.99.71,2.75,2.36-.64,4.48-.78.48-11.07,1.39-13.43,5.76-.12,4.27,30.31-1.85,31.99,5.12-2.44,8.59-.25,22.59-1.28,30.07-.33,2.4.41,5.39,0,7.68-.04.25-3.05-.22-3.84,3.2-1.49,6.5-9.08,41.61-18.55,39.02v-10.24l-10.88,8.32,14.07,10.24c-6.59,9.03-12.15,18.8-19.19,27.51-1.09,1.35-2.66,2.48-3.84,3.84l-31.99,5.76c-.35,4.02,18.65,4.38,21.75,5.76-1.48,1.6-3.75,2.38-5.12,3.84-4.63,4.92-10.46,9.37-15.35,14.07-.82.1-1.92-.19-2.56,0,3.7-6.77-17.37.46-19.19,1.28-2.81-7.63-17.5,4.3-16.63,8.32,5.88,6.31,13.89,6.06,21.75,7.04-1.8,1.62-4.68,6.35-6.4,7.68-8.17,6.32-2.34-1.16-13.43,0-5.73.6-14.79,9.11-18.55,10.24-13.53,4.05-29.78-5.1-42.22-1.28-1.19.37-8.22,4.43-8.96,5.76l-1.28,3.84c1.78.89,4.16,5.12,5.12,5.76-5.99,10.11-26.24,2.66-30.07,3.84-2.51.78-2.61,9.76-14.07,8.96-18.07-1.26-39.94-9.91-56.94-15.35-34.14-10.93-62.68-22.35-93.4-42.22-3.77-7.34-11.55-14.35-12.79-23.03,2.03-3.95,11.99-16.53,6.4-18.55l15.35-3.84-10.88-4.48h34.55c3.99-2.1-3.56-5.16-1.92-10.88,2.28-7.95,26.49-10.08,31.99-2.56-.43,1.41-19.67-6.34-24.31,1.28-5.54,9.11,8.73,1.95,10.88,1.92,28.54-.43,68.43-18.15,96.6-29.43l-6.4,7.04c.58,3.13,12.1,4.04,14.71,3.2,4.12-1.32,4.53-8.47,5.12-8.96,2.51-2.08,12.57-5.82,13.43-9.6.53-2.31-2.49-3.01-2.56-3.2s-3.38-3.02-1.92-3.84c6.95,7.43,53.35-12.33,49.9-16.63-.28-.35-7.15,1.5-8.32-3.2-2.62-10.53,18.6-5.5,23.67-4.48l-3.84,6.4c23.97-10.62,50.28-34.1,75.49-28.15l-2.56-8.96c8.37-.7,33.91-22.39,38.38-23.03,8.18-1.18-2.36,4.65-1.92,7.04,14.85,10.14,7.64-8.78,8.32-9.6,2.69-3.24,22.57-11.34,27.51-14.07Z"/>
        <g>
          <path class="st7" d="M407.87,492.67c16.39,7.84-10.2,33.12-22.39,18.55-1.73-3.95,11.57-14.63,12.79-11.52.17.42-6.92,4.74-1.92,5.76,5.16-4.39,9.97-6.28,11.52-12.79Z"/>
          <path class="st20" d="M384.2,413.34c8.27-3.31,15.51-9.1,24.31-11.52.07.19,3.09.89,2.56,3.2-.87,3.77-10.92,7.52-13.43,9.6-.59.49-1,7.64-5.12,8.96-2.61.84-14.13-.07-14.71-3.2l6.4-7.04Z"/>
          <path class="st20" d="M446.89,442.77l-21.75,2.56c-2.67-1.41,6.59-7.39,7.04-7.68,10.04-6.5,19.55-9.6,30.07-3.2-4.96,2.63-10.3,6.06-15.35,8.32Z"/>
          <path class="st20" d="M522.38,442.77c-1.55.15-21.16,3.46-18.55,6.4,10.7,5.74,17.88-1.52,28.79-1.28-.2,1.13,2.08,1.89,1.28,3.2-3.71,6.1-16,9.3-22.39,7.04-2.08-.74,1.29-3.33,0-3.84-4.96-1.93-11.74.01-13.43-7.04.54-3.55,20.73-9.6,24.31-4.48Z"/>
          <path class="st7" d="M472.48,504.19c-14.15,3.99-4.99,23.99,2.56,5.12,2.76-6.91-.14-6.63,0-7.04,1.98-5.64,13.17-9.7,12.79-3.84-.09,1.41-15.9,22.07-17.27,22.39-13.2,3.06-12.57-18.1-1.28-21.75.51-.07,2.6,4.14,3.2,5.12Z"/>
          <path class="st9" d="M407.23,538.73c-3.74,2.01-8.66,1.4-12.79,1.28-4.52-.13-11.4-.11-15.35-2.56-1.22-.76-2.33-1.36-3.2-2.56-.43-4.21,12.46-2.37,15.99-2.56,5.19-.28,10.3,4.05,15.99-2.56,7.55,4.39,1.25,6.16-.64,8.96Z"/>
          <path class="st9" d="M551.17,374.96c1.21-.07,3.74-.44,4.48.64-5.06,6.53-16,17.8-24.95,15.99-14.01-2.83,14.89-16.33,20.47-16.63Z"/>
          <path class="st7" d="M316.39,456.85c1.09,8.25,14.19-.94,19.19,0-3.7,21.1-31.95,10.09-24.95,0,1.89-2.72,5.48.09,5.76,0Z"/>
          <path class="st9" d="M565.89,469.64c-3.34,3.86-6.78,7.77-10.24,11.52-3.1-1.38-22.1-1.74-21.75-5.76l31.99-5.76Z"/>
          <path class="st7" d="M475.04,455.57c-20.08,5.72.81,7.1,10.24,5.12,3.52,14.4-24.93,6.3-25.59.64-.2-4.15,12.89-10.58,15.35-5.76Z"/>
          <path class="st20" d="M382.92,451.73c1.43-3.04,3.96-6.74,6.4-8.96,6.55-1.74,21.39-1.42,15.35,8.32-4.8,7.73-11.29-.51-14.71-.64-.36-.01-2.69,1.83-7.04,1.28Z"/>
          <path class="st7" d="M383.56,429.98l-17.91,19.19-17.27-.64c.02-1.32,29.43-7,22.39-10.88l-14.71,3.2c8.45-10.25,17-2.13,27.51-10.88Z"/>
          <path class="st9" d="M532.62,447.89c-10.91-.24-18.09,7.02-28.79,1.28-2.61-2.94,17-6.24,18.55-6.4,4.64-.46,9.05-3.85,12.79,1.92,1.06,4.12-2.52,3-2.56,3.2Z"/>
          <path class="st7" d="M590.84,385.19c9.66-1.47,6.39,6.81,3.84,7.68-1,.34-4.23-2.46-6.4-1.28-2.52,1.37-13.81,14.59-17.27,4.48-3.93-11.49,5.75-4.21,7.04-4.48,2.52-.52,11.01-6.13,12.79-6.4Z"/>
          <path class="st7" d="M457.13,490.11c-.13-1.97-3.17-.6-2.56-3.2.3-1.29,10.2-7.02,10.88-7.04,1.22-.03,2.07,3.71,2.56,3.84,1.49.4,5.29-3.65,8.32,1.92.94,13.54-12.9,3.78-19.19,4.48Z"/>
          <path class="st20" d="M394.43,540.01c4.14.12,9.05.74,12.79-1.28-.06.1,2.36.36,1.28,1.92-2.16,3.11-4.82,1.13-6.4,2.56-.29.26.69,5.58-3.2,7.04-11.76,4.4-24.95-8.5-4.48-10.24Z"/>
          <path class="st9" d="M414.27,456.85c3.44-.8,5.02.85,7.04,3.2-1.99,5.2-11.44,17.75-17.27,13.43-3.92-2.9,9.17-16.39,10.24-16.63Z"/>
          <path class="st17" d="M442.42,478.6c5.38,14.1-23.03,13.86-23.67,5.76s19.63,2.9,23.67-5.76Z"/>
          <path class="st9" d="M483.36,422.3c12.55-2.32,7.65,17.43-3.84,14.07-7.91-2.31-1.92-13.01,3.84-14.07Z"/>
          <path class="st20" d="M389.32,442.77c-2.44,2.22-4.97,5.92-6.4,8.96-21.86-2.76,16.78-24.09,17.91-15.99.11.76-7.63,3.51-11.52,7.04Z"/>
          <path class="st9" d="M450.09,408.23c.38-.06,2.11,2.57,2.56,2.56,5.52-.12,10.56-3.16,14.71,1.92-7.45,6.39-16.48-.77-22.39,8.32l-4.48-7.04c.16-.61,8.98-5.66,9.6-5.76Z"/>
          <path class="st9" d="M430.9,510.58c1.04-.19,10.98-.2,11.52,0,2.51.76.91,8,.64,8.32-3.48,4.13-36.07-4.06-12.16-8.32Z"/>
          <path class="st9" d="M368.21,506.75c1.28,0,2.56,0,3.84,0,7.81,9.29-11.63,9.82-16.63,14.07-3.05-6.42,8.03-14.05,12.79-14.07Z"/>
          <path class="st9" d="M485.28,460.68c-9.42,1.98-30.32.6-10.24-5.12,10.96-3.12,28.14,1.36,10.24,5.12Z"/>
          <path class="st17" d="M411.71,413.34c1.13-.27,15.97.47,10.24,5.12l-12.16,3.2,10.24,1.28-17.27,3.2c-2-1.13,6.43-12.19,8.96-12.79Z"/>
          <path class="st9" d="M543.5,360.88c5.4-.86,14.57,4.37,20.47,2.56l.64,4.48c-2.11,7.76-11.42-.78-14.71-1.92s-10.34,2.42-10.88-3.2c1.47-.05,4.24-1.88,4.48-1.92Z"/>
          <path class="st9" d="M346.45,472.2c2.72-.56,18.79,1.47,18.55,4.48-3.26,2.83-25.56,4.39-24.95.64,1.41-1.43,4.64-4.76,6.4-5.12Z"/>
          <path class="st7" d="M391.88,532.34c-3.53.19-16.42-1.65-15.99,2.56.87,1.2,1.98,1.8,3.2,2.56-2.58,7.8-7.91-4.8-10.24-5.76.43-4.7,26.83-7.38,23.03.64Z"/>
          <path class="st9" d="M516.63,418.46c11.83-3.08,1.03,16.85-6.4,15.35-.51-.1-5.04-4.61-4.48-5.76.32-.65,10.17-9.41,10.88-9.6Z"/>
          <path class="st9" d="M291.44,473.48c2.34-.55,16.65-.29,17.27,1.92-4.45,10.09-36.03,2.46-17.27-1.92Z"/>
          <path class="st20" d="M547.33,447.89c1.53,3.88,9.28,5.3,9.6,5.76,6.48,9.46-22.9,12.01-9.6-5.76Z"/>
          <path class="st9" d="M553.73,431.26c3.61-.82,17.74-.78,15.99,5.76-1.5,5.6-14.3-1.74-19.83-1.92-2.37-1.99,3.18-3.69,3.84-3.84Z"/>
          <path class="st7" d="M542.22,399.27c3.87,11.74-11.09,14.36-18.55,8.32l18.55-8.32Z"/>
          <path class="st9" d="M335.58,456.85c-5.01-.94-18.1,8.25-19.19,0,6.11-1.98,12.13-4.16,18.55-5.12,3.57,2.54.98,3.17.64,5.12Z"/>
          <path class="st9" d="M444.97,467.08c15.47,2.29-6.99,12.99-10.88,8.32-2.89-3.48,9.23-8.56,10.88-8.32Z"/>
          <path class="st18" d="M472.48,504.19c1.04,1.71,2.86,2.85,2.56,5.12-7.54,18.87-16.71-1.12-2.56-5.12Z"/>
          <path class="st9" d="M487.2,382.64c16.63-3.08-4.77,14.01-8.96,11.52-.05-3.76,5.52-10.88,8.96-11.52Z"/>
          <path class="st9" d="M343.89,429.98c13.21-1.06,1.37,11.52-7.68,10.24-4-3.3,5.83-10.09,7.68-10.24Z"/>
          <path class="st7" d="M500.63,392.87c-6.32-.41-9.58,4.96-14.07,7.68-2.9,1.75-8.82,7.99-11.52,4.48,6.19-.84,24.92-23.45,28.15-14.07.22.65-2.49,1.77-2.56,1.92Z"/>
          <path class="st9" d="M329.82,493.95c1.27,9.19-12.52,16.01-19.19,20.47l19.19-20.47Z"/>
          <path class="st9" d="M581.88,371.12c2.45-1.11,15.96,3.5,15.99,5.76-4.31,3.67-25.92-1.27-15.99-5.76Z"/>
          <path class="st9" d="M272.24,508.03c12.39-3.56,8.58,10.52-1.28,7.68-4.54-1.31-1.8-6.79,1.28-7.68Z"/>
          <path class="st9" d="M457.13,490.11c.23,3.61,2.63,13.99-7.04,10.24-6.2-2.41,4.37-9.94,7.04-10.24Z"/>
          <path class="st9" d="M557.57,340.41c7.41,1.26,1.59,10.39-5.12,7.68-5.64-2.28,3.18-8.01,5.12-7.68Z"/>
          <path class="st9" d="M569.09,408.23c6.53-1.32,5,8.21,1.28,8.96-6.53,1.32-5-8.21-1.28-8.96Z"/>
          <path class="st9" d="M341.34,493.95c8.12-3.87,7.83,7.05,2.56,7.68-5.52.66-5.91-6.08-2.56-7.68Z"/>
          <path class="st9" d="M446.89,442.77c-.56.25-4.68,4.42-8.32,5.12-3.16.61-11.31.64-13.43-2.56l21.75-2.56Z"/>
          <path class="st9" d="M322.14,487.55c7.28-.28-5.29,9.53-8.96,10.24-2.4-3.22,8.28-10.21,8.96-10.24Z"/>
          <path class="st9" d="M314.47,524.66c5.19-1.05,6.05,6.04,2.56,7.68-6.12,2.87-7.49-6.68-2.56-7.68Z"/>
          <path class="st9" d="M500.63,392.87c-2.43,5.08-7.03,8.06-14.07,7.68,4.49-2.72,7.76-8.09,14.07-7.68Z"/>
          <path class="st9" d="M551.17,387.75c6.2-2.1,7.14,5.1,2.56,6.4-8.38,2.38-5.25-5.49-2.56-6.4Z"/>
          <path class="st9" d="M574.2,358.33c5.01-.17,4.17,10.31-2.56,7.68-4.62-1.81,1.85-7.65,2.56-7.68Z"/>
        </g>
      </g>
      <path class="st20" d="M527.5,523.38c-6.49,2.71-11.46,10.23-19.19,7.04,1.17-1.48,3.3-2.56,3.84-4.48,4.4-.43,10.99-5.07,15.35-2.56Z"/>
      <path class="st20" d="M459.69,542.57c.09.2,2.39,1.43,1.28,3.84-1.37.07-3.56,2.38-6.4,2.56-.96.06-2.84-2.23-5.12-1.28,3.56-1.41,5.56-5.92,10.24-5.12Z"/>
      <g>
        <path class="st27" d="M258.81,409.5c-11.93,10.52-5.84,13-8.96,18.55-9.37,16.72-27.34,30.65-24.31,51.82,1.24,8.68,9.03,15.69,12.79,23.03-22.3-14.42-32.3-22.21-48.62-43.5,1.32-10.94,5.93-21.46,14.71-28.15,2.89-2.2,9.5-2.17,11.52-3.84,1.34-1.11,5.02-8.41,5.76-8.96,5.09-3.8,14.3-11.25,19.19-14.07,2.71-1.56,11.55-4.77,15.35-6.4l2.56,11.52Z"/>
        <path class="st12" d="M210.83,460.68c7.39-1.54,6.93,7.89,0,6.4-3.31-.71-3.26-5.72,0-6.4Z"/>
      </g>
      <g>
        <path class="st9" d="M672.08,305.87c-7.03-3.2-28.26-15.24-33.27-15.35-8.52-.2-16.83,4.56-24.95,8.96-1.29.7-.35,3.68-.64,3.84-4.94,2.73-24.82,10.83-27.51,14.07-.68.82,6.53,19.73-8.32,9.6-.45-2.39,10.1-8.22,1.92-7.04-4.47.64-30.02,22.33-38.38,23.03l2.56,8.96c-25.21-5.95-51.52,17.53-75.49,28.15l3.84-6.4c-5.07-1.02-26.29-6.05-23.67,4.48,1.17,4.7,8.04,2.85,8.32,3.2,3.45,4.3-42.95,24.06-49.9,16.63-1.46.82,1.85,3.64,1.92,3.84-8.81,2.41-16.04,8.2-24.31,11.52-28.17,11.28-68.06,29-96.6,29.43-2.14.03-16.42,7.19-10.88-1.92,4.64-7.62,23.88.13,24.31-1.28-5.5-7.52-29.71-5.4-31.99,2.56-1.64,5.72,5.91,8.77,1.92,10.88h-34.55l10.88,4.48-15.35,3.84c5.59,2.02-4.37,14.6-6.4,18.55-3.03-21.17,14.94-35.1,24.31-51.82,3.11-5.56-2.97-8.03,8.96-18.55,6.71-5.92,25.31-15.47,34.55-21.75,6.83-4.65,13.59-9.46,20.47-14.07,11.81-5.66,17.23,4.75,26.23,3.84,5.95-.6,36.52-20.65,45.42-24.31,20.27-8.35,40.6-11.37,60.78-19.19,2.65-1.03,7.11-6.65,10.24-7.68,8.84-2.9,24.13-.37,34.55-3.84,9.36-3.12,16.25-14.98,20.47-16.63,3.8-1.48,16.64-1.2,23.03-3.84,22.77-9.41,47.69-26.36,74.21-24.31,17.44,1.35,49.77,16.91,63.33,28.15Z"/>
        <g>
          <path class="st20" d="M359.25,394.15c5.14-1.05,7.8.64,10.88,4.48-8.78,1.85-11.51,2.71-16.63,10.24l11.52,1.28c-3.53,3.78-12.51,8.63-17.27,7.04l-3.2-4.48c6.64-2.95,8.47-17.28,14.71-18.55Z"/>
          <path class="st20" d="M480.8,335.29c11.32-2.8,3.22,4.29,6.4,5.12,2.94.76,8.95-.86,11.52,0,7.73,2.58,4.28,18.82-5.76,12.16-1.07-2.05,7.01-1.74,3.2-7.04-10.32-3.38-11.23,6.88-16.63-6.4l-5.12,3.84c-1.83-2.82,5.11-7.36,6.4-7.68Z"/>
          <path class="st20" d="M589.56,294.35l-1.28,8.96c4.69-4.67,10.01-11.3,17.27-8.32-9.95,9.97-13.89,10.62-26.23,13.43-.55.12-8.64,8.03-8.32.64.05-1.22,17.48-7.26,18.55-14.71Z"/>
          <path class="st9" d="M318.94,406.95c-2.66,3.23-9.11,5.36-11.52,7.68-4.97-7.76,3.79-21.1,11.52-12.16.46.53-.44,3.54,0,4.48Z"/>
          <path class="st20" d="M307.43,414.62c2.4-2.31,8.85-4.45,11.52-7.68,1.11,2.38,3.59.61,3.84,1.92,1.77,9.3-28.8,18.69-15.35,5.76Z"/>
          <path class="st4" d="M457.77,354.49c2.12-.48,5.33.33,7.68,0,7.35,18.42-28.47,4.74-7.68,0Z"/>
          <path class="st20" d="M265.85,421.02c9.62-6.61,7.23,18.93-13.43,8.32,1.07-3.4,6.65.53,9.6-.64,3.84-1.52,2.86-7,3.84-7.68Z"/>
          <path class="st20" d="M462.89,332.74l-2.56,10.24c-20.44,1.56-7.93-6.38,2.56-10.24Z"/>
          <path class="st4" d="M356.69,376.24c4.63-.71,8.07,1.1,9.6,5.76-10.16,5.86-24.24-3.5-9.6-5.76Z"/>
          <path class="st20" d="M538.38,317.38c1.24-.16,2.58.11,3.84,0,2.9,1.57-17.88,9.45-19.83,9.6l1.92-7.04c4.49.58,11.13-2.19,14.07-2.56Z"/>
          <path class="st20" d="M388.68,377.52c2.07.4,3.85,3.29,2.56,5.12-4.19-8.03-17.06,11.76-18.55,1.92-.7-4.63,13.97-7.43,15.99-7.04Z"/>
          <path class="st20" d="M369.48,368.56l19.83,1.92c-5.8,5.51-16.02,6.22-19.83-1.92Z"/>
          <path class="st20" d="M595.95,284.11c.5-.05,8.39,5.26,8.32,5.76-.78,5.33-11.85-1.43-14.71-.64.65-1,5.99-5.07,6.4-5.12Z"/>
          <path class="st20" d="M439.86,367.28c2.7,1.56-6.47,9.41-7.04,9.6-8.71,2.91,2.78-9.23,7.04-9.6Z"/>
          <path class="st4" d="M337.5,400.55c1.32.52,3.86,7.36-1.28,7.68-7.09.43-3.18-9.44,1.28-7.68Z"/>
          <path class="st4" d="M343.89,386.47c10.95-2.37-.84,11.89-3.2,4.48-.37-1.16,2.49-4.32,3.2-4.48Z"/>
          <path class="st20" d="M258.17,421.02c6.37-1.97,4.72,5.17,2.56,5.12-.29,0-2.84-4.33-2.56-5.12Z"/>
          <path class="st20" d="M557.57,310.98h1.28c2.53-.2,2.53,1.48,0,1.28l-1.28-1.28Z"/>
        </g>
      </g>
      <g>
        <path class="st12" d="M672.08,305.87c.44.36,2.69,6.82,5.76,8.96.67.47,12.42,7.16,13.43,7.68l-7.68,9.6c5.92,3.82,18.74,9.68,24.95-.64l2.56,5.12c2.67.64,1.76-2.55,1.92-2.56,12.17-.47,7.57.73,14.07,5.12-4.22,4.99-6.29,18.9,1.92,20.47,4.71.9,3.88-4.02,5.76-3.2,4.91,2.15-1.76,8.62.64,10.88,2.06,1.93,19.45,3.26,21.75,1.28-.89-3.28,1.41-7.85.64-10.24,9.89-2.55,17.73.78,17.91,11.52-.13-.01.41,2.51-.64,2.56-3.79.18-15.87-5.28-10.88,7.04,1.82,4.5,14.79,3.97,18.55,1.92,4.43-2.42-4.54-5.78,1.92-6.4,4.16,1.71,19.87,10.01,21.75,10.24,1.37,4.07,3.35,19.7,9.6,19.19.59-.05,8.27-7.73,8.32-8.32.4-5.44-10.45-8.4-11.52-12.16,11.92,2.27,17.91,9.81,19.83,10.24,1.2.27,6.28-2.66,7.04-2.56-5.89,16.08,10.12,25.12,24.31,15.35,3.72,2.74,8.45,8.92,12.16,10.24,6.73,2.39,16.77-.78,21.75,1.28,7.91,3.27,8.37,19.07,14.71,23.03.16.98.83,1.55,1.28,2.56,5.77,12.9,18,3.14,26.87,14.07-5.22-.49-10.5-2.23-15.99-1.28-2.78,4.26-2.87,7.21,1.28,10.24,15.4-3.84,23.29.1,35.19,8.96-2.11,6.66-6.27,7.22-3.84,14.07-64.73,54.37-185.65,79.9-268.69,88.28-25.45,2.57-51.18,3.24-76.77,3.84,29.73-16.44,56.64-35.21,71.65-66.53,2.8-5.84,3.35-11.86,5.12-17.91.11-.37,4.86-4.63,5.12-5.76,1.41-6.07-.2-19.78,1.28-26.87-5,.03-6.32,7.51-12.79,3.84,2.38-4.7-1.05-9.29,0-14.07,1.27-5.82,9.57-6.19,10.24-12.79.61-6-9.21-36-11.52-44.14,14.87-2.61,5.44-14.44-1.28-7.68-4-13.42-11.82-33.22-17.91-48.62,4.5-3.89,9.75-4.11,11.52-10.88-1.43-5.09-6.18-2.08-7.68-3.84-1.24-1.45,8.29-10.6-5.12-10.88,2.39-4.93,4.09-6.87-.64-11.52l-10.88,7.68c-3.37-7.27-6.72-14.56-10.24-21.75,5.01.12,26.24,12.15,33.27,15.35Z"/>
        <g>
          <path class="st21" d="M833.3,506.75c-1.25.74-15.08,5.03-16.63,5.12-8.38.47-18.16-3.88-12.79-13.43s25.44-1.77,33.91-.64l1.92,3.2c0,.47-5.47,5.21-6.4,5.76Z"/>
          <path class="st12" d="M831.38,436.37c15.64-4.07,31.22,26.85,17.91,26.87-8.64-6.87-25.29-9.22-22.39-23.67.3-.68,3.95-3.06,4.48-3.2Z"/>
          <path class="st17" d="M733.5,380.08c3.97,1.84,7.39,1.22,10.24,5.76,2.13,2.69-7.73,7.06-8.32,7.04-4.67-.15-8.63-11.17-11.52-11.52-5.09-.61-2.1,4.18-5.12,5.12-9.75,3.05-22.19,3.73-15.99-8.96,9.58-5.06,21.63-1.65,30.71,2.56Z"/>
          <path class="st12" d="M861.45,429.98c1.92.51,5.27,2.67,10.24,3.84,2.34.55,3.06-2.61,5.12.64-1.51,3.62-4.6,13.63-8.32,14.71-10.39,3.04-31.08-25.53-7.04-19.19Z"/>
          <path class="st17" d="M855.69,469.64c9.65-.03,14.56-.6,18.55,9.6-12.25,7.25-25.67,2.62-34.55-7.68,4.55.19,12.25-1.91,15.99-1.92Z"/>
          <path class="st12" d="M792.36,520.82c-5.07,2.54-11.27.24-16.63,6.4-.05-.13-2.35.44-2.56-.64-6.02-31.01,34.01-13.2,19.19-5.76Z"/>
          <path class="st17" d="M833.3,506.75c16.6,10.38-6.45,16.91-15.99,14.07l-.64-8.96c1.55-.09,15.38-4.38,16.63-5.12Z"/>
          <path class="st17" d="M850.57,486.27c2.23-.84,19.28-.75,18.55,4.48-.09.67-8.94,9.41-9.6,9.6-11.99,3.35-15.69-11.55-8.96-14.07Z"/>
          <path class="st17" d="M755.25,525.94c.08-.12,2.48-1.16,2.56-1.28,19.83,8.39-6.38,26.08-10.24,14.71-1.9-5.6,4.74-9.18,7.68-13.43Z"/>
          <path class="st17" d="M812.83,383.91c1.06,3.75,11.92,6.71,11.52,12.16-.04.59-7.73,8.27-8.32,8.32-6.24.51-8.22-15.12-9.6-19.19,3.11.38,4.51-1.64,6.4-1.28Z"/>
          <path class="st17" d="M784.68,374.96c-6.46.62,2.51,3.98-1.92,6.4-3.76,2.05-16.73,2.58-18.55-1.92-5-12.32,7.09-6.86,10.88-7.04,1.05-.05.51-2.57.64-2.56,5.73.45,8.48,4.92,8.96,5.12Z"/>
          <path class="st21" d="M732.22,546.41c2.7-.16,5.77-.76,7.68,1.92-3.68,13.17-18.4,17.55-20.47,1.92,4.68.41,8.89-3.6,12.79-3.84Z"/>
          <path class="st12" d="M732.22,546.41c-3.9.24-8.12,4.25-12.79,3.84-21.92-1.93,11.41-25.85,12.79-3.84Z"/>
          <path class="st17" d="M699.59,520.82c6.63-2.49,6.23,11.21,5.76,14.71-3.89,6.02-8.88,1-14.71,3.2-2.59-1.65,8-17.55,8.96-17.91Z"/>
          <path class="st17" d="M749.49,429.98c4.53-.84,11.99,1.55,10.88,7.04-5.23,6.7-14.39,10.95-19.19,1.28,1.5-2.62,5.36-7.77,8.32-8.32Z"/>
          <path class="st17" d="M764.85,401.83c10.07-3.91,20.36,10.88,8.96,14.07-9.1,2.55-17.17-10.88-8.96-14.07Z"/>
          <path class="st17" d="M915.83,481.16c2.09-.09,8.24,2.03,9.6,4.48.64,5.23-21.64,12.28-23.03,5.12-.63-3.25,11.6-9.51,13.43-9.6Z"/>
          <path class="st17" d="M799.39,413.34c2.6-.56,18.46-.28,17.27,4.48-4.76,4.75-11.49,2.44-17.27,3.2-.63.08-2.75,8.15-9.6-.64,3.64-2.41,4.6-5.97,9.6-7.04Z"/>
          <path class="st17" d="M823.7,412.06c6.95,2.06,19.7,4.98,17.27,14.71-8.35,2.36-20.81-4.05-17.27-14.71Z"/>
          <path class="st17" d="M698.31,400.55c14.02-2.74,9.92,18-2.56,14.07-7.61-2.39-3.11-12.97,2.56-14.07Z"/>
          <path class="st17" d="M787.88,467.08c1.8-.25,23.29,3.85,19.83,8.32-3.22,4.16-21.39-.1-24.31-5.12-.75-1.44,4.21-3.16,4.48-3.2Z"/>
          <path class="st17" d="M871.69,433.82c-4.97-1.16-8.31-3.33-10.24-3.84,5.66-5.32-6.6-5.41-5.12-9.6,2.91-8.21,19.99,5.15,15.35,13.43Z"/>
          <path class="st21" d="M733.5,380.08c-9.07-4.21-21.13-7.62-30.71-2.56,5.6-11.46,25.42-10.06,30.71,2.56Z"/>
          <path class="st21" d="M792.36,520.82c8.42,8.09-9.84,12.31-14.71,11.52-3.88-.63-1.82-4.86-1.92-5.12,5.36-6.16,11.57-3.85,16.63-6.4Z"/>
          <path class="st21" d="M753.33,481.16c2.76-.5,21.81-.93,18.55,5.76-.38.78-11.86-3.17-17.27-1.92-4.86,1.12-8.87,8.29-11.52,7.68-8.07-1.86,6.8-10.89,10.24-11.52Z"/>
          <path class="st21" d="M844.18,522.1c4.08-.04,11.25,3.17,13.43,7.04-8.39,1.08-14.91-.31-22.39,4.48l8.32-5.76-8.96-2.56c2.12-.28,8.34-3.19,9.6-3.2Z"/>
          <path class="st21" d="M693.2,547.69c2.61-.85,12.93-.3,12.79,3.84-22.17.98-6.18,4.89,3.2,8.32-7.03,5.14-27.35-8.46-15.99-12.16Z"/>
          <path class="st17" d="M714.95,414.62c7.72-3.1,11.94,9.3,5.12,11.52-7.74,2.51-13.38-8.2-5.12-11.52Z"/>
          <path class="st21" d="M753.33,491.39c2.22-.32,16.54-.31,17.27.64-5.04,6.37-18.54,6.33-24.31,1.28,2.17.04,5.86-1.75,7.04-1.92Z"/>
          <path class="st17" d="M813.47,453.01c8.67-.9,7.28,8.96,2.56,10.24-9.9,2.68-10.27-9.44-2.56-10.24Z"/>
          <path class="st17" d="M782.76,538.73c6.8-.2,6.16,12.6-3.84,10.24-7.2-1.7-3.84-10.01,3.84-10.24Z"/>
          <path class="st17" d="M725.18,458.13c6.7-2.98,17.05,12.52,3.84,10.24-4.03-.7-8.77-8.04-3.84-10.24Z"/>
          <path class="st17" d="M791.72,438.93c6.04-.99,11.01,3.76,6.4,8.96-8.65,1.56-17.65-7.11-6.4-8.96Z"/>
          <path class="st21" d="M799.39,481.16c1.52-.01,7.15.76,5.12,3.84-3.63-1.93-15.86,8.18-17.27,5.76-2.17-3.72,8.78-9.56,12.16-9.6Z"/>
          <path class="st17" d="M718.79,490.11c1-.29,7.8,3.53,10.24,0l1.92,4.48-1.92,3.2-12.79-1.28c-1.52-.77,2.23-6.3,2.56-6.4Z"/>
          <path class="st17" d="M690.64,449.17c7.77-2.19.78,14.06-5.12,14.07-4.12-2.43,4.14-13.8,5.12-14.07Z"/>
          <path class="st17" d="M725.18,396.71c3.04-.88,11.66.95,9.6,5.76-2.83,6.6-19.11-3-9.6-5.76Z"/>
          <path class="st21" d="M681.04,397.99c-.47-1.65-.77-3.38-1.28-5.12-.2-.69.21-1.87,0-2.56,6.72-6.77,16.15,5.07,1.28,7.68Z"/>
          <path class="st17" d="M705.99,349.37c4.28.05,6.65,8.65,2.56,10.24-4.73,1.83-10.99-10.33-2.56-10.24Z"/>
          <path class="st17" d="M746.93,450.45c4-.23,6.59,7.27,2.56,8.96-4.44,1.86-7.91-8.65-2.56-8.96Z"/>
          <g>
            <path class="st21" d="M757.81,524.66c-.08.12-2.48,1.16-2.56,1.28-6.27,1.85-26.86,2.74-24.31-8.32,1.82-7.91,43.22-15.97,26.87,7.04Z"/>
            <path class="st12" d="M741.82,513.14c.84-.25,10.95-.23,11.52,0,4.55,16.24-31.63,6-11.52,0Z"/>
          </g>
        </g>
      </g>
      <g>
        <path class="st17" d="M638.82,290.51c3.52,7.19,6.87,14.48,10.24,21.75,1.61,3.47,3.68,6.95,5.12,10.24,2.76,6.31,5.14,12.79,7.68,19.19,6.09,15.4,13.91,35.2,17.91,48.62.21.69-.2,1.87,0,2.56-7.5-.19-20.93-.77-10.24-9.6-15.89-5.72-17,1.54-15.35,15.35,4.53,3.91,10.44-4.25,12.16-4.48,4.78-.65,7.13,5.17,14.71,3.84,2.3,8.14,12.12,38.14,11.52,44.14-.67,6.6-8.96,6.98-10.24,12.79-1.05,4.79,2.38,9.37,0,14.07,6.47,3.68,7.79-3.81,12.79-3.84-1.48,7.09.13,20.8-1.28,26.87-.26,1.12-5.01,5.39-5.12,5.76l-15.99-2.56c16.74,14.7,2.7,7.7-7.68,11.52-2.44.9-10.18,6.77-1.92,6.4-.49.24-7.21,7.37-4.48,8.96,4.42,2.57,15.69-4.85,19.83-6.4,1.13-.42,3.61.27,5.12,0-15.01,31.33-41.92,50.1-71.65,66.53-26.45.62-51.65,0-78.05-1.28l-11.52-4.48,4.48-8.32-13.43,11.52c-1.68-.12-3.44.13-5.12,0,2.41-14.16-31.43-13.52-35.83-2.56-6.31-.71-12.87-1.69-19.19-2.56.28-3.6,9.71-9.82,3.2-12.79-7.48-3.41-13.26,13.71-17.27,8.32,1.87-1.39,5.45-5.33,3.84-7.68-4.05-5.89-12.23,9.11-20.47,7.04-4.23-.72-8.55-1.75-12.79-2.56-.32-9.46,18.41-1.29,14.71-11.52-6.22,5.33-18.8.56-22.39,8.96-23.89-4.87-49-5.42-70.37-19.19,16.99,5.44,38.86,14.09,56.94,15.35,11.47.8,11.56-8.18,14.07-8.96,3.83-1.18,24.07,6.27,30.07-3.84,5.7,3.78,10.49,2.43,16.63,0,2.28-.95,4.16,1.34,5.12,1.28-3.88,9.37,24.62,3.84,24.31.64-4.5-4.49-11.88-3.52-17.91-3.2,1.11-2.41-1.19-3.63-1.28-3.84-.37-.85.66-3.44-.64-3.84-2.71-.84-29.03,8.47-26.23-.64.28-.9,8.95-2.32,5.12-5.76,12.45-3.82,28.69,5.33,42.22,1.28l15.99,7.68c9.51-14.01,8.32-5.22,14.07-5.12,10.67.2,12.99-3.74,19.83-10.88-.65-1.01-1.58-1.36-2.56-1.92-4.37-2.51-10.95,2.13-15.35,2.56.19-.66-.09-1.74,0-2.56,1.72-1.33,4.6-6.06,6.4-7.68,6.23-5.61,10.82-11.03,16.63-16.63,4.89-4.71,10.72-9.15,15.35-14.07,11.12,4.01,31.09-7.75,19.19-19.19,7.04-8.7,12.6-18.48,19.19-27.51l-14.07-10.24,10.88-8.32v10.24c9.47,2.58,17.06-32.52,18.55-39.02.78-3.42,3.79-2.95,3.84-3.2,2.59,1.78,17.34,4.39,16.63-.64s-12.25,2.43-12.79-3.84l9.6-5.76-13.43,2.56c1.03-7.48-1.16-21.47,1.28-30.07-1.68-6.96-32.1-.85-31.99-5.12,2.37-4.37,12.66-5.27,13.43-5.76,3.39-2.11-.35-3.76.64-4.48,8.83-6.38,17.17-1.22,20.47-3.84,2.67-2.11.62-22.98,1.28-27.51.29-.16-.65-3.14.64-3.84,8.12-4.4,16.43-9.15,24.95-8.96Z"/>
        <g>
          <path class="st17" d="M409.79,566.88c-1.42-.27-3.13-.89-5.12-1.28-2.96-.59-2.42-1.25-2.56-1.28,3.59-8.4,16.17-3.63,22.39-8.96,3.7,10.23-15.04,2.06-14.71,11.52Z"/>
          <path class="st20" d="M453.29,574.56c-10.21-1.4-20.54-3.39-30.71-5.12,8.25,2.07,16.42-12.92,20.47-7.04,1.61,2.34-1.97,6.29-3.84,7.68,4.02,5.4,9.79-11.73,17.27-8.32,6.51,2.97-2.92,9.19-3.2,12.79Z"/>
          <path class="st10" d="M533.9,580.96c-6.92-.33-13.6-.8-20.47-1.28l13.43-11.52-4.48,8.32,11.52,4.48Z"/>
          <path class="st17" d="M459.69,542.57c-4.67-.8-6.67,3.71-10.24,5.12-6.14,2.43-10.93,3.78-16.63,0-.96-.64-3.34-4.87-5.12-5.76l1.28-3.84c.73-1.33,7.77-5.39,8.96-5.76,3.83,3.44-4.84,4.86-5.12,5.76-2.8,9.11,23.52-.2,26.23.64,1.3.4.27,2.99.64,3.84Z"/>
          <path class="st17" d="M608.11,387.75c.41-2.29-.33-5.28,0-7.68l13.43-2.56-9.6,5.76c.54,6.27,12.11-1.06,12.79,3.84s-14.04,2.42-16.63.64Z"/>
          <path class="st20" d="M613.87,482.44c.6.1,7.27,7.22,10.24,6.4l-1.28,2.56c-6.81,2.26-30.78,16.42-35.19,7.04-3.92-8.33,22.52-16.62,26.23-15.99Z"/>
          <path class="st10" d="M568.45,548.97c5.47,30.21-32.59,19.38-24.95,7.68,1.1-1.68,20.84-6.53,24.95-7.68Z"/>
          <path class="st17" d="M660.57,453.01c-12.34,3.76-24.61,6.45-34.55,15.35-2.78-3.23-3.08-2.59-2.56-7.68,9.78-7.82,15.16-10.7,28.15-11.52,4.4.95,5.21-.78,8.96,3.84Z"/>
          <path class="st17" d="M679.76,392.87c.51,1.74.81,3.47,1.28,5.12-7.58,1.33-9.94-4.49-14.71-3.84-1.72.23-7.62,8.39-12.16,4.48-1.65-13.81-.53-21.08,15.35-15.35-10.69,8.83,2.73,9.41,10.24,9.6Z"/>
          <path class="st20" d="M597.23,463.24c21.49-5.88-2.11,33-10.88,13.43.02-1.34,9.34-13.01,10.88-13.43Z"/>
          <path class="st10" d="M554.37,533.62c4.54-.97,1.64,7.66,1.28,8.32-5.73,10.42-22.79,6.42-21.75-5.12,1.29-1.34,3.55-.31,5.12-.64,3.66-.77,11.57-.25,15.35-2.56Z"/>
          <path class="st20" d="M638.82,418.46c3.33,1.04,7.19,7.15,6.4,10.88-2.98,14.05-33.68-6.75-12.79-10.88,1.1-.22,5.54-.27,6.4,0Z"/>
          <path class="st20" d="M568.45,548.97c-.39-2.13-4.41-3.62-3.84-5.76.83-3.11,26.12-10.48,30.71-6.4-1.01,1.24-22.55,7.55-17.27,9.6l12.79-5.12c-4.05,7.14-16.25,5.97-22.39,7.68Z"/>
          <path class="st17" d="M553.73,495.23c2.69-.62,11.25-.72,8.96,3.84-15.48-3.08-8.57,18.61-26.23,12.16-.25-1.15,14.62-15.38,17.27-15.99Z"/>
          <path class="st12" d="M651.61,460.68c-7.99-2.31-14.06,8.12-21.75,8.96-1.37-.57-1.96.9-3.84-1.28,9.93-8.91,22.21-11.59,34.55-15.35.1.12,2.23.93,2.56,1.92-.54,3.9-7.36,3.72-11.52,5.76Z"/>
          <path class="st20" d="M554.37,533.62c-3.78,2.31-11.69,1.79-15.35,2.56.23-18.06,29.48-11.19,15.35-2.56Z"/>
          <path class="st17" d="M454.57,548.97c2.84-.18,5.03-2.49,6.4-2.56,6.04-.32,13.42-1.29,17.91,3.2.31,3.2-28.19,8.73-24.31-.64Z"/>
          <path class="st17" d="M617.71,330.18c30.33-3.67-14.74,27.76-7.04,12.16,2.02-4.1,11.55-6.53,11.52-7.68l-8.32-.64c-2.5-1.95,3.57-3.81,3.84-3.84Z"/>
          <path class="st20" d="M636.9,366c1.67-.18,3.43.12,5.12,0l1.92,5.76c-15.76,16.67-22.71-4.12-7.04-5.76Z"/>
          <path class="st18" d="M642.02,394.15c17.98-1.79,4.41,19.74-8.32,5.76-.15-2.11,6.8-5.61,8.32-5.76Z"/>
          <path class="st20" d="M678.48,515.7c-4.15,1.55-15.41,8.97-19.83,6.4-2.73-1.59,3.99-8.72,4.48-8.96,5.41-2.66,10.43,0,15.35,2.56Z"/>
          <path class="st10" d="M592.76,559.21c-3.52-.35-6.53.55-8.96,3.2l12.79,4.48c-11.1,7.16-27.54-4.82-13.43-10.24.46-.18,12.64-1.55,9.6,2.56Z"/>
          <path class="st20" d="M651.61,460.68c-1.2.59-7.33,3-6.4,4.48l10.88,3.2c-8.96-2.25-17.45,5.02-25.59,3.84-1.07-.16-.51-2.51-.64-2.56,7.69-.84,13.76-11.27,21.75-8.96Z"/>
          <path class="st12" d="M651.61,449.17c-12.99.82-18.37,3.7-28.15,11.52,1.52-14.85,17.23-13.87,28.15-11.52Z"/>
          <path class="st17" d="M638.82,418.46c-.86-.27-5.3-.22-6.4,0l-10.88,1.28c-1.99-4.35,9.62-5.16,9.6-5.76l-10.88-.64c2.83-4.66,22.67-4.5,18.55,5.12Z"/>
          <path class="st20" d="M626.66,538.73c20.16-5.6,17.23,10.87-3.84,6.4-2.35-3,1.8-5.83,3.84-6.4Z"/>
          <path class="st17" d="M607.47,442.77c4.73,9.01-14.41,13.38-15.99,8.32-1.29-4.13,14.12-6.15,15.99-8.32Z"/>
          <path class="st20" d="M635.62,516.98c7.13.36,6.24,11.35,0,11.52-5.78.16-8.84-11.96,0-11.52Z"/>
          <path class="st20" d="M648.41,477.32c11.16-3.65,15.2,14.39-1.28,6.4-3.59-3.13-2.22-4.56,1.28-6.4Z"/>
          <path class="st20" d="M592.76,559.21c5.53.55,10.23,3.56,3.84,7.68l-12.79-4.48c2.43-2.65,5.44-3.55,8.96-3.2Z"/>
          <path class="st20" d="M624.1,308.42c3.79-.46,10.38,7.96,5.12,10.24-7.12,3.08-10.51-9.59-5.12-10.24Z"/>
          <path class="st20" d="M657.37,429.98c7.21,0,5.3,13.2-3.84,8.96-3.52-1.64.56-8.95,3.84-8.96Z"/>
          <path class="st20" d="M670.17,404.39c6.1-2.76,9.94,5.44,5.12,7.68-4.42,2.05-10.16-5.4-5.12-7.68Z"/>
          <path class="st20" d="M613.87,399.27c6.91-1.95,6.57,5.51,2.56,6.4-4.37.96-8.25-4.79-2.56-6.4Z"/>
          <path class="st17" d="M610.03,524.66c2.13.06,4.4-.38,2.56,2.56l-17.27,3.2c3.96-.53,11.31-5.86,14.71-5.76Z"/>
          <g>
            <path class="st10" d="M510.23,546.41c6.3-.94,15.63.01,13.43,8.32-8.1,9.71-19.62,5.39-28.15,1.28-.25-1.65,12.21-9.22,14.71-9.6Z"/>
            <path class="st17" d="M512.79,548.97c17.34-.16-4.3,11.33-13.43,5.76,3.29-1.35,10.26-5.73,13.43-5.76Z"/>
          </g>
        </g>
      </g>
    </g>
  </g>
</svg>