<?xml version="1.0" encoding="UTF-8"?>
<svg id="Layer_1" xmlns="http://www.w3.org/2000/svg" version="1.1" viewBox="0 0 1200 1200">
  <!-- Generator: Adobe Illustrator 29.4.0, SVG Export Plug-In . SVG Version: 2.1.0 Build 152)  -->
  <defs>
    <style>
      .st0 {
        fill: #395466;
      }

      .st1 {
        fill: #2d4453;
      }

      .st2 {
        fill: #a3bac3;
      }

      .st3 {
        fill: #dfe9eb;
      }

      .st4 {
        fill: #5d7b8c;
      }

      .st5 {
        fill: #26343f;
      }

      .st6 {
        fill: #88a7b5;
      }

      .st7 {
        fill: #bdc7ca;
      }

      .st8 {
        fill: #a09d98;
      }

      .st9 {
        fill: #36423f;
      }

      .st10 {
        fill: #bbd9e4;
      }

      .st11 {
        fill: #71858d;
      }

      .st12 {
        fill: #638daa;
      }

      .st13 {
        fill: #7894a0;
      }

      .st14 {
        fill: #f9fdfe;
      }

      .st15 {
        fill: #323738;
      }

      .st16 {
        fill: #49677a;
      }
    </style>
  </defs>
  <polygon class="st9" points="278.83 287.96 157.73 376.87 160 582.22 541 606.82 794.92 595.03 1008.35 490.12 1008.59 380.07 897.15 291.78 645.86 245.74 278.83 287.96"/>
  <g id="Generative_Object">
    <path class="st4" d="M1040.58,408.23c-5.14,2.68-8.8,4.29-10.24,10.24-3.36-118.32-256.84-168.63-346.74-176.57.01-3,11.52-3.64,15.35-3.84,99.95-5.14,315,58.25,341.62,170.17h.01Z"/>
    <path class="st0" d="M1040.58,408.23c.43,1.81-.43,4.58,0,6.4-4.16,12.38-1.84,22.51,0,34.55-1.4,5.89-4.94,10.28-7.68,15.35-5.1-2.72-26.18,30.22-33.91,35.83-3.71,2.69-11.77,7.6-15.99,3.84,25.91-21.98,48.36-49.82,47.34-85.73,1.44-5.94,5.1-7.56,10.24-10.24h0Z"/>
    <path class="st13" d="M698.95,238.05c-3.84.2-15.34.83-15.35,3.84-23.83-2.1-42.3-.77-65.25-1.28-6.81-.15-14.31-1.23-20.47-1.28l95.96-3.84c1.72.37,1.07,3.78,5.12,2.56h-.01Z"/>
    <path class="st10" d="M683.6,241.89c89.9,7.94,343.39,58.25,346.74,176.57,1.02,35.91-21.43,63.75-47.34,85.73-41.93,35.56-115.02,64.1-167.61,78.05-21.44,5.69-43,8.34-64.61,12.79-3.6.74-3.25,5-3.84,5.12-27.34,5.53-59.67,8.16-87.65,10.24l81.25-12.79,5.76-1.92c-3.12-5.9-12.2-2.36-17.91-1.92v-12.79c89.17-13.12,344.77-63.47,271.25-202.8-20.35-38.56-84.64-80.02-127.31-85.09-1.99-.24-4.71.71-5.76,2.56-6.19-2.15-12.94-4.53-19.19-6.4,4.93.32.18-2.36-.64-2.56-17.72-4.28-35.8-10.86-52.46-14.07-.88-.17-14.17-1.42-14.71,1.28-80.88-15.06-180.05-21.45-262.3-15.35-3.92.66-2.32-3.36-2.56-6.4,43.6-3.6,87.35-5.78,131.15-6.4,2.05-2.82-7.63-3.62-8.96-3.84-5.83-.95-12.64.12-18.55-1.28,22.95.51,41.42-.83,65.25,1.28h0Z"/>
    <path class="st2" d="M728.38,580.96c-5.05.74-10.3,1.9-15.35,2.56-11.46,1.5-23.1,2.2-34.55,3.84.13-.03-.48-2.17.64-2.56,4.95-1.71,11.27,4.14,9.6-6.4,83.04-8.38,203.96-33.91,268.69-88.28,8.35-7.01,10.98-9.22,17.91-17.91.36-.46,1.46-1.06,2.56-2.56,4.98-6.78,6.77-10.33,10.24-17.91,14.22-31.11,13.84-50.85-6.4-79.33,2.22-3.05-4.6-10.1-6.4-12.16-25.92-29.51-72.05-51.84-108.76-64.61,1.05-1.85,3.77-2.8,5.76-2.56,42.67,5.06,106.96,46.52,127.31,85.09,73.52,139.33-182.08,189.68-271.25,202.8h0Z"/>
    <path class="st2" d="M514.71,252.13c.24,3.04-1.36,7.06,2.56,6.4-2.83.21-15.02,1.07-11.52,3.84-52.31,3.73-105.54,11.85-156.1,25.59-66.12,17.96-194.09,61.92-172.73,150.98-.38-.73-1.82,2.1-2.56.64-6.96-13.71-6.88-37.19-2.56-51.82,9.22-31.17,57.75-60.26,83.17-78.05,82.48-38.36,169.65-50.14,259.74-57.58h0Z"/>
    <path class="st10" d="M254.97,309.7c-25.41,17.79-73.95,46.88-83.17,78.05-11.59,16.41-10.59,37.12-8.96,56.3-25.23-67.9,40.14-110.17,92.12-134.35h.01Z"/>
    <path class="st3" d="M779.56,273.88c21.58,4.02,46.91,9.1,67.81,15.35,6.25,1.87,13,4.24,19.19,6.4,36.71,12.77,82.83,35.1,108.76,64.61,1.8,2.05,8.62,9.11,6.4,12.16-9.33-13.14-30.49-30.81-44.78-38.38-.33-.18-.94.17-1.28,0-29.91-20.1-64.19-31.93-98.52-42.22-28.51-8.55-57.46-15.98-87.01-20.47-3.32-.5-6.88-.81-10.24-1.28-74.88-10.39-158.74-13.05-234.15-7.68-3.51-2.77,8.69-3.63,11.52-3.84,82.25-6.09,181.41.3,262.3,15.35Z"/>
    <path class="st2" d="M847.37,289.23c-20.9-6.26-46.24-11.34-67.81-15.35.54-2.7,13.84-1.45,14.71-1.28,16.66,3.21,34.74,9.8,52.46,14.07.82.2,5.57,2.88.64,2.56h0Z"/>
    <g>
      <path class="st10" d="M528.78,234.21c-6.91,1.09-17.04,2.83-23.03,6.4-101.86,6.07-263.01,37.06-333.95,115.79-108.28,120.19,106.51,201.32,195.12,223.27,111.92,27.72,230.59,26.99,344.82,16.63,5.47-.5,11.06-2.13,16.63-2.56s14.79-3.98,17.91,1.92l-5.76,1.92-81.25,12.79c-10.86.81-24.71-.23-34.55,3.84-4.64-.66-9.55-.1-14.07,1.28.56-3.84-3.42-2.49-5.76-2.56-68.81-1.99-130.38-1.9-198.96-12.79-.81-.13-1.75.13-2.56,0-.32-7.7-19.96-5.82-27.51-7.68-54.67-13.47-120.99-33.73-168.25-62.7-10.41-6.38-21.76-13.49-30.71-21.75-15.51-14.31-29.42-33.53-35.83-53.74-6.38-20.13-7.54-33.86-5.12-55.02,33.19-115.6,246.56-156.33,348.66-165.05,13.84-1.18,31.38-3.07,44.14,0h.03Z"/>
      <path class="st3" d="M597.87,239.33c6.16.05,13.66,1.13,20.47,1.28,5.92,1.4,12.72.33,18.55,1.28,1.33.22,11.01,1.02,8.96,3.84-43.8.62-87.55,2.8-131.15,6.4-90.09,7.44-177.25,19.22-259.74,57.58-51.98,24.17-117.36,66.45-92.12,134.35,27.23,73.26,172.04,118.07,241.82,131.79,61.79,12.15,215.55,26.51,273.81,11.52,11.45-1.64,23.08-2.34,34.55-3.84,2,5.62,1.89,8.01-1.28,12.79-114.24,10.36-232.9,11.09-344.82-16.63-88.62-21.95-303.4-103.09-195.12-223.27,70.93-78.73,232.08-109.72,333.95-115.79,30.59-1.82,61.43-1.52,92.12-1.28v-.02Z"/>
      <path class="st10" d="M728.38,580.96v12.79c-5.57.43-11.17,2.06-16.63,2.56,3.16-4.78,3.28-7.17,1.28-12.79,5.05-.66,10.31-1.82,15.35-2.56Z"/>
      <path class="st16" d="M1032.9,464.52c-38.89,72.07-141.99,102.01-216.23,121.55l-1.28-3.84c52.59-13.95,125.69-42.49,167.61-78.05,4.22,3.76,12.28-1.14,15.99-3.84,7.72-5.61,28.8-38.55,33.91-35.83h0Z"/>
      <g>
        <path class="st2" d="M141.1,454.29l-52.46,249.5c-2.82-6.7-4.89-10.39-6.4-17.91-.79-3.93-3.29-7.82-2.56-12.16l28.15-141.38c2.27-7.97,5.98-17.14,5.12-25.59,7.04-33.81,13.68-74.9,23.03-107.48-2.42,21.16-1.26,34.89,5.12,55.02h0Z"/>
        <path class="st0" d="M1071.29,655.17c3.94,15.79,7.58,31.71,12.16,47.34,13-13.1,3.86-30.21.64-44.78l3.84-1.28c.68,2.4,4.63,16.81,5.76,16.63l3.2-3.2c-2.83,92.75-114.64,146.17-191.28,170.81-9.28,2.98-22.47,4.36-31.99,7.68-1.69.59-9.11,7.86-9.6,2.56,1.45-.83,5.13-.73,6.4-3.2l-43.5-259.1c23.25-5.58,46.63-12.29,69.09-20.47,14.28,74.21,25.93,148.94,39.66,223.27,1.2,6.49-1.36,30.72,8.32,30.07,2.91-.2,23.06-11.91,27.51-14.07,13.9-6.76,24.06-12,37.11-20.47,4.41-2.86,8.55-5.86,12.79-8.96,22.4-16.33,40.31-32.69,56.3-55.66l-55.02-232.23c2.08-2.6,6.33-7.62,7.68-10.24,14.99,58.07,26.41,117.11,40.94,175.29h0Z"/>
        <path class="st2" d="M335.58,586.07l-34.55,264.85c-16.09-4.87-31.75-10.37-47.34-16.63l44.78-259.74c11.08,3.75,25.95,8.53,37.11,11.52h0Z"/>
        <path class="st16" d="M207.63,529.78c-.06,1.56,1.73,1.95,2.56,2.56l-1.28,2.56-51.18,245.02c2.21,3.57,6.19,4.89,8.96,7.04,1.07.83,3.59,3.72,3.84,3.84l-1.28,5.12c-28.31-16.56-84.02-66.35-90.84-99.16-.86-4.13-3.61-11.84,3.84-10.88,1.51,7.53,3.58,11.21,6.4,17.91,3.14,7.47,8.34,18.23,12.79,24.95,1.91,2.88,17.22,23.64,20.47,20.47l55.02-241.18c8.95,8.26,20.3,15.37,30.71,21.75h-.01Z"/>
        <path class="st10" d="M368.84,593.75l-28.15,264.85-3.2,3.84c-12.13-3.99-24.25-7.82-36.47-11.52l34.55-264.85c10.29,2.75,22.77,5.45,33.27,7.68h0Z"/>
        <path class="st4" d="M403.39,600.15c.81.13,1.75-.13,2.56,0l-30.71,266.13c-11.54-2.31-23.25-4.31-34.55-7.68l28.15-264.85c11.14,2.36,23.31,4.57,34.55,6.4Z"/>
        <path class="st10" d="M298.47,574.56l-44.78,259.74c-10.46-4.2-18.23-8.21-28.15-12.79l40.94-259.74c10.13,4.24,21.69,9.31,31.99,12.79Z"/>
        <path class="st1" d="M794.92,595.03l34.55,267.41c-.47.13-4.3,4.46-8.32,5.12-5.58.91-13.15-1.01-23.67,1.28l-28.15-264.21c.11-7.19,21.87-1.26,19.19-8.32,2.17-.4,4.25-.87,6.4-1.28h0Z"/>
        <path class="st16" d="M239.62,550.25c.54.28,2.44.59,3.84,1.28l-43.5,255.9c-2.7-1.28-11.47-6.34-12.16-6.4-5.17-.44-2.33,3.45-3.84,3.84-.83.21-12.49-7.66-14.71-8.96l1.28-5.12c1.2.58,3.33.18,4.48,2.56,17.13-82.24,28.73-166.7,41.58-250.14,3.5-7.36,20,16.89,23.03,7.04h0Z"/>
        <path class="st12" d="M266.49,561.76l-40.94,259.74c-8.9-4.12-17.02-10.01-25.59-14.07l43.5-255.9c7.51,3.71,15.3,7,23.03,10.24h0Z"/>
        <path class="st11" d="M1087.92,656.45l-3.84,1.28c-5.68-25.71-12.92-52.67-22.39-79.33-1.38,4.86.86,13.45,1.92,18.55,1.46,7.08,13.03,43.27,12.79,46.06-.46,5.51-3.43,2.21-3.84,3.84-.59,2.33,3.1,5.74-1.28,8.32-14.53-58.18-25.95-117.22-40.94-175.29,1.28-2.49,5.04-14.03,2.56-15.35,2.74-5.07,6.28-9.46,7.68-15.35,9.31,60.78,30.5,147.49,47.34,207.28h0Z"/>
        <path class="st0" d="M176.92,508.03l-55.02,241.18c-3.25,3.17-18.56-17.59-20.47-20.47-4.45-6.72-9.65-17.48-12.79-24.95l52.46-249.5c6.4,20.21,20.31,39.43,35.83,53.74h0Z"/>
        <path class="st3" d="M403.39,600.15c-11.24-1.83-23.4-4.03-34.55-6.4-10.5-2.23-22.97-4.92-33.27-7.68-11.16-2.99-26.03-7.77-37.11-11.52-10.3-3.49-21.85-8.56-31.99-12.79-7.74-3.24-15.52-6.52-23.03-10.24-1.4-.69-3.3-1-3.84-1.28-8.91-4.55-21.36-11.99-29.43-17.91-.83-.61-2.62-1-2.56-2.56,47.26,28.97,113.59,49.23,168.25,62.7,7.55,1.86,27.19-.02,27.51,7.68h.02Z"/>
        <path class="st10" d="M1030.34,479.88c-1.35,2.62-5.6,7.63-7.68,10.24-11.89,14.9-34.95,31.95-51.18,42.22-3.32,2.1-6.86,4.46-10.24,6.4-14.63,8.41-32.93,16.67-48.62,23.03-5.44,2.21-11.12,4.39-16.63,6.4-22.46,8.18-45.84,14.89-69.09,20.47-4.66,1.12-9.46,1.54-14.07,2.56-2.16.48-4.26.83-6.4,1.28-3.83.8-7.63,1.81-11.52,2.56-2.15.41-4.22.88-6.4,1.28-10.43,1.93-20.97,4.13-31.35,6.4v-2.56c20.46-2.35,39.77-8.88,59.5-14.07,74.24-19.54,177.34-49.48,216.23-121.55,2.48,1.32-1.28,12.86-2.56,15.35h.01Z"/>
        <path class="st15" d="M1021.39,778l-49.9-245.66c16.23-10.27,39.29-27.32,51.18-42.22l55.02,232.23c-15.99,22.96-33.9,39.33-56.3,55.66h0Z"/>
        <path class="st1" d="M1008.59,786.95c-13.04,8.48-23.2,13.71-37.11,20.47-7.14.5-7.28,5.6-10.24-3.2-18.21-54.25-20.37-135.9-35.83-191.92l-12.79-50.54c15.69-6.37,34-14.62,48.62-23.03l47.34,248.22h0Z"/>
        <path class="st1" d="M912.63,561.76l12.79,50.54c15.45,56.02,17.61,137.67,35.83,191.92,2.95,8.8,3.1,3.7,10.24,3.2-4.45,2.17-24.6,13.88-27.51,14.07-9.67.65-7.12-23.58-8.32-30.07-13.73-74.33-25.38-149.06-39.66-223.27,5.51-2.01,11.2-4.19,16.63-6.4h0Z"/>
        <path class="st1" d="M1021.39,778c-4.24,3.09-8.39,6.09-12.79,8.96l-47.34-248.22c3.37-1.94,6.92-4.3,10.24-6.4l49.9,245.66h-.01Z"/>
        <path class="st13" d="M1084.08,657.73c3.22,14.57,12.36,31.68-.64,44.78-4.57-15.63-8.21-31.56-12.16-47.34,4.38-2.58.69-5.99,1.28-8.32.41-1.63,3.38,1.68,3.84-3.84.23-2.79-11.33-38.98-12.79-46.06-1.06-5.11-3.3-13.69-1.92-18.55,9.47,26.66,16.71,53.61,22.39,79.33h0Z"/>
        <path class="st12" d="M239.62,550.25c-3.03,9.85-19.53-14.4-23.03-7.04-12.86,83.44-24.45,167.9-41.58,250.14-1.15-2.38-3.28-1.98-4.48-2.56-.24-.12-2.77-3.01-3.84-3.84,13.72-73.41,28.87-146.99,40.94-220.71.81-4.96,1.96-10.49,2.56-15.35.34-2.76,1.47-14.18-1.28-15.99l1.28-2.56c8.07,5.92,20.52,13.36,29.43,17.91Z"/>
        <path class="st13" d="M166.69,786.95c-2.76-2.15-6.74-3.47-8.96-7.04l51.18-245.02c2.75,1.81,1.62,13.23,1.28,15.99-.6,4.87-1.75,10.4-2.56,15.35-12.07,73.72-27.22,147.3-40.94,220.71h0Z"/>
        <g>
          <path class="st16" d="M826.9,588.63l43.5,259.1c-1.27,2.47-4.94,2.37-6.4,3.2-9.85,5.65-23.69,8.4-34.55,11.52l-34.55-267.41c3.89-.75,7.69-1.76,11.52-2.56l35.19,207.28-28.79-208.56c4.61-1.02,9.41-1.44,14.07-2.56h0Z"/>
          <path class="st1" d="M806.43,592.47c2.13-.45,4.23-.8,6.4-1.28l28.79,208.56-35.19-207.28Z"/>
          <path class="st0" d="M840.34,802.31c2.47,7.85,7.28,26.47,7.04,33.91-.13,3.94,1.13,5-3.2,7.04l-3.84-40.94h0Z"/>
        </g>
      </g>
      <path class="st3" d="M171.8,387.75c-4.32,14.63-4.4,38.11,2.56,51.82.74,1.46,2.17-1.37,2.56-.64,4.47,8.54,6.87,12.74,12.79,20.47,16.32,21.3,26.32,29.08,48.62,43.5,30.72,19.87,59.26,31.29,93.4,42.22,21.37,13.77,46.48,14.32,70.37,19.19.14.03-.4.69,2.56,1.28v10.24c-69.79-13.72-214.6-58.52-241.82-131.79-1.64-19.18-2.63-39.89,8.96-56.3h0Z"/>
      <path class="st10" d="M409.79,566.88c4.25.81,8.56,1.84,12.79,2.56,10.17,1.73,20.5,3.72,30.71,5.12,6.32.87,12.88,1.85,19.19,2.56,11.8,1.32,23.96,1.66,35.83,2.56,1.68.13,3.44-.12,5.12,0,6.87.48,13.55.95,20.47,1.28,26.4,1.27,51.6,1.9,78.05,1.28s51.32-1.27,76.77-3.84c1.67,10.54-4.64,4.68-9.6,6.4-1.12.39-.51,2.53-.64,2.56-58.26,14.99-212.02.63-273.81-11.52v-10.24c1.99.39,3.69,1.01,5.12,1.28h0Z"/>
      <g>
        <path class="st8" d="M56.65,639.81c-9.75,17.43-11.23,29.78-11.52,49.26,0,.96-2.57.33-2.56,1.28,0,1,2.32-.7,2.56,3.2-4.77,3.34-1.21,20.39,0,25.59l-1.28,1.28c-.23-1.24-1.4-6.24-2.56-7.04-1.77,43.61,29.5,82.29,60.78,109.4,137.2,118.92,436.49,142.47,610.32,125.39,115.82-11.38,342.77-61.42,402.4-172.73,16.78-24.95,22.34-56.77,12.79-85.73-.2-7.95-.47-15.97-2.56-23.67-2.66-9.77-12.04-18.34-11.52-27.51,77.56,58.85,45.27,152.33-17.27,207.28-148.3,130.29-468.96,145.49-656.38,122.83-149.19-18.04-535.76-108.83-384.49-330.11l1.28,1.28h.01Z"/>
        <path class="st3" d="M1110.95,637.25c.73.18,2.03.88,2.56,1.28-.53,9.17,8.86,17.74,11.52,27.51,2.09,7.7,2.36,15.72,2.56,23.67,2.48,99.61-147.86,164.25-227.75,188.09v-5.12c9.15-2.83,52.69-17.35,57.58-21.75,83.22-33.61,211.63-107.45,149.7-214.95,1.63,1.18,1.55,2.69,3.2,3.84l.64-2.56h-.01Z"/>
        <path class="st15" d="M43.85,720.42c15.82,85.12,104.66,130.42,177.85,161.22,3.4,3.62,6.71,2.66,8.96,3.84,72.76,38.26,224.89,57.74,307.72,60.14,10.65.31,82.98,1.65,87.01,0,.2-.08,1.8-3.5,1.92-3.84l111.32-7.68c73.7-5.25,147.56-22.81,216.23-49.9,76.69-30.25,152.96-72.07,174.01-158.66,3.27,9.85-8.96,40.35-14.07,49.9-59.63,111.31-286.58,161.35-402.4,172.73-173.83,17.08-473.12-6.47-610.32-125.39-31.27-27.11-62.54-65.79-60.78-109.4,1.16.8,2.33,5.8,2.56,7.04h-.01Z"/>
        <path class="st5" d="M1114.79,775.44c5.12-9.55,17.35-40.05,14.07-49.9-.48-1.45,1.13-5.3-2.56-3.2-20.63,68.58-103.76,115.99-166.33,142.66-57.08,24.33-118.88,39.5-179.77,51.18-5.8,1.11-35.9,3.71-37.74,5.76s-.83,9.33-3.84,12.16l-111.32,7.68c.61-1.77.54-10.43-1.92-11.52-63.18,1.35-126.1-1.17-188.72-8.96-1.16-9.6,8.49-3.43,8.96-10.24,16.65,1.88,33.14,3.96,49.9,5.12l-5.76,3.84c22.98.64,46.16,4.54,69.09,5.12,12.52.32,55.58,1.57,65.25-1.28,3.1-.91,1.4-2.82,3.2-5.12,88.91-2.93,187.35-15.53,272.53-40.94,79.89-23.84,230.23-88.48,227.75-188.09,9.54,28.96,3.99,60.77-12.79,85.73h0Z"/>
        <path class="st3" d="M78.4,615.5c-4.29,7.32-4.9,15.77-8.96,24.31-3.22,6.78-9.82,14.82-12.79,22.39-20.47,52.08,12.06,93.47,49.9,126.03,16.25,13.99,27.88,21.14,46.06,31.99,105.88,63.17,240.28,85.04,362.74,92.12,16.53.96,54.97-1.75,67.81,1.28,4.42,1.04,3.26.22,3.2,5.12-30.52.07-60.37-.45-90.84-2.56-16.76-1.16-33.25-3.24-49.9-5.12-92.42-10.41-193-30.89-275.73-74.21-53.99-28.27-120.64-77.56-124.75-143.3-.24-3.9-2.54-2.2-2.56-3.2s2.54-.32,2.56-1.28c.29-19.48,1.77-31.83,11.52-49.26,5-8.94,12.95-19.08,21.75-24.31h0Z"/>
        <path class="st1" d="M45.13,693.55c4.11,65.74,70.76,115.03,124.75,143.3,82.73,43.32,183.31,63.8,275.73,74.21-.46,6.8-10.12.64-8.96,10.24-70.17-8.72-141.9-23.16-207.28-49.9-4.17-1.71-8.72-3.34-12.79-5.12-58.87-25.66-155.85-79.9-171.45-147.14-1.21-5.2-4.77-22.25,0-25.59h0Z"/>
        <path class="st6" d="M216.59,866.28c-1.33,4.42,2.28,12.33,5.12,15.35-73.19-30.79-162.03-76.1-177.85-161.22l1.28-1.28c15.6,67.24,112.58,121.48,171.45,147.14h0Z"/>
        <path class="st16" d="M1107.11,635.97c61.93,107.5-66.48,181.35-149.7,214.95,3.63-3.26,3.13-10.34-3.2-10.24-2.92.05-39.99,16.79-47.34,19.19-15.87,5.19-34.53,11.18-50.54,15.35-83.87,21.85-183.19,32.3-269.97,31.99-.07-2.4,2.18-4.68,1.28-7.68,137.03.02,396.31-36.07,487.49-149.06,30.81-38.18,36.84-80.14,17.91-125.39,4.46-2.51,8.3,6.71,14.07,10.88h0Z"/>
        <path class="st4" d="M70.72,646.21c-4.87,52.18,3.51,80.25,40.94,117.71l-5.12,24.31c-37.84-32.56-70.37-73.95-49.9-126.03,2.97-7.57,9.58-15.61,12.79-22.39,3.09,3.45,1.6,2.94,1.28,6.4h.01Z"/>
        <path class="st13" d="M221.7,834.3c104.37,45.6,252.17,65.24,365.93,65.25.9,2.99-1.34,5.28-1.28,7.68-94.96-.34-204.24-13.03-294.92-40.94-12.94-3.98-60.08-19.66-68.45-26.87-2.14-1.84-6.93-4.67-1.28-5.12h0Z"/>
        <path class="st6" d="M221.7,834.3c-5.65.45-.86,3.28,1.28,5.12-24.75-4.9-45.15-33.17-70.37-19.19-18.18-10.85-29.81-18-46.06-31.99l5.12-24.31c27.77,27.79,74.06,54.65,110.04,70.37h0Z"/>
        <path class="st1" d="M70.72,646.21c.32-3.46,1.81-2.94-1.28-6.4,4.05-8.54,4.67-16.99,8.96-24.31,1.49-2.54,6.85-12.58,8.96-7.04.95,2.48-8.22,51.71-10.88,51.82l-5.76-14.07Z"/>
        <g>
          <path class="st1" d="M1110.95,637.25l-.64,2.56c-1.65-1.15-1.57-2.66-3.2-3.84-5.78-4.16-9.61-13.38-14.07-10.88,18.93,45.25,12.89,87.21-17.91,125.39-91.17,113-350.45,149.08-487.49,149.06-113.76-.02-261.56-19.65-365.93-65.25-35.98-15.72-82.27-42.59-110.04-70.37-37.44-37.46-45.81-65.54-40.94-117.71l5.76,14.07c2.65-.11,11.82-49.34,10.88-51.82-2.11-5.54-7.47,4.5-8.96,7.04-8.81,5.23-16.75,15.37-21.75,24.31l-1.28-1.28c33.25-48.64,35.55-46.93,52.46-106.2l-28.15,141.38c-.73,4.33,1.77,8.23,2.56,12.16-7.45-.96-4.7,6.74-3.84,10.88,6.83,32.81,62.54,82.6,90.84,99.16,2.22,1.3,13.88,9.17,14.71,8.96,1.51-.39-1.33-4.28,3.84-3.84.68.06,9.46,5.12,12.16,6.4,8.57,4.06,16.69,9.95,25.59,14.07,9.92,4.59,17.69,8.6,28.15,12.79,15.59,6.26,31.26,11.76,47.34,16.63,12.22,3.7,24.33,7.53,36.47,11.52l3.2-3.84c11.3,3.37,23,5.37,34.55,7.68,9.79,1.96,19.57,3.51,29.43,5.12,4.71.77,9.23,1.86,14.07,2.56,27.95,4.02,56.25,7.2,84.45,8.96.62,4.6,3.2,2.74,4.48,6.4,94.26,3.9,195.2,2.85,287.89-16.63,2.07-.43,1.71-3.79,1.92-3.84,10.52-2.29,18.1-.37,23.67-1.28,4.02-.66,7.85-4.98,8.32-5.12,10.86-3.11,24.7-5.87,34.55-11.52.48,5.3,7.91-1.97,9.6-2.56,9.52-3.31,22.71-4.69,31.99-7.68,76.65-24.64,188.45-78.07,191.28-170.81l-3.2,3.2c-1.13.18-5.08-14.23-5.76-16.63-16.84-59.79-38.04-146.49-47.34-207.28-1.84-12.04-4.16-22.16,0-34.55,15.13,64.73,27.64,130.24,42.22,195.12l28.15,27.51h-.03Z"/>
          <polygon class="st2" points="1088.56 618.06 1089.84 619.34 1089.84 620.62 1088.56 620.62 1088.56 618.06"/>
        </g>
        <path class="st2" d="M222.98,839.41c8.37,7.21,55.51,22.89,68.45,26.87,90.68,27.92,199.96,40.6,294.92,40.94.08,2.8.96,5.12,1.92,7.68,91.27-2.18,182.12-10.14,270.61-31.99,13.53-3.34,27.66-6.12,40.94-10.24v5.12c-85.18,25.42-183.62,38.02-272.53,40.94-13.58.45-27.35-.03-40.94,0,.06-4.9,1.22-4.08-3.2-5.12-12.85-3.03-51.28-.32-67.81-1.28-122.46-7.09-256.85-28.95-362.74-92.12,25.22-13.98,45.62,14.29,70.37,19.19h.01Z"/>
        <path class="st13" d="M957.41,850.93c-4.89,4.4-48.43,18.92-57.58,21.75-13.29,4.12-27.42,6.9-40.94,10.24l-2.56-7.68c16.01-4.17,34.67-10.16,50.54-15.35,7.35-2.4,44.42-19.14,47.34-19.19,6.33-.1,6.82,6.97,3.2,10.24h0Z"/>
        <path class="st0" d="M436.66,921.3c62.62,7.78,125.55,10.31,188.72,8.96,2.46,1.09,2.52,9.75,1.92,11.52-.12.34-1.72,3.76-1.92,3.84-4.03,1.65-76.36.31-87.01,0-82.82-2.4-234.95-21.88-307.72-60.14l-1.28-14.07c65.38,26.74,137.11,41.18,207.28,49.9h.01Z"/>
        <path class="st1" d="M959.97,865l-5.12,19.19c-68.67,27.09-142.53,44.65-216.23,49.9,3.01-2.82,2.01-10.12,3.84-12.16s31.94-4.64,37.74-5.76c60.89-11.68,122.69-26.85,179.77-51.18h0Z"/>
        <path class="st1" d="M1128.86,725.54c-21.05,86.58-97.32,128.4-174.01,158.66l5.12-19.19c62.58-26.68,145.7-74.08,166.33-142.66,3.69-2.11,2.08,1.75,2.56,3.2h0Z"/>
        <path class="st4" d="M229.38,871.4l1.28,14.07c-2.25-1.18-5.56-.22-8.96-3.84-2.84-3.03-6.44-10.94-5.12-15.35,4.08,1.78,8.63,3.41,12.79,5.12h.01Z"/>
        <path class="st1" d="M586.36,918.74c13.59-.03,27.37.45,40.94,0-1.8,2.3-.1,4.21-3.2,5.12-9.68,2.85-52.74,1.6-65.25,1.28-22.93-.58-46.11-4.48-69.09-5.12l5.76-3.84c30.47,2.11,60.32,2.63,90.84,2.56Z"/>
        <path class="st1" d="M611.95,824.06l-7.04,61.42c-33.64-1.55-67.96-.46-101.72-2.56-1.34-9.86,4.61-28.61,2.56-39.66,46.04-11.18,51.45-33.2,106.2-19.19h0Z"/>
        <g>
          <path class="st5" d="M815.39,582.24l1.28,3.84c-19.73,5.19-39.03,11.72-59.5,14.07v2.56c10.38-2.27,20.92-4.47,31.35-6.4,2.68,7.06-19.08,1.13-19.19,8.32l28.15,264.21c-.21.05.15,3.4-1.92,3.84-92.68,19.48-193.63,20.54-287.89,16.63-1.27-3.66-3.85-1.79-4.48-6.4,33.76,2.1,68.08,1.01,101.72,2.56l7.04-61.42c16,4.09,52.82,21.23,64.61,21.75,10.13.45,21.19-7.06,24.95-15.99,1.2-2.86-1.34-3.04-1.28-3.2,14.09-41.08-33.38-92.12-66.53-112.6-6.81-7.24-16.27-12.14-25.59-15.35v-16.63c39.23,30.24,64.07-36.17,30.71-58.86-4.06-5.65-6.26-7.85-14.07-8.96,9.84-4.07,23.69-3.03,34.55-3.84,27.98-2.08,60.31-4.71,87.65-10.24.59-.12.24-4.37,3.84-5.12,21.61-4.46,43.17-7.11,64.61-12.79v.02Z"/>
          <path class="st3" d="M697.67,676.92c53.93,73.95-53.87,71.66-18.55,0-3.11.94-8.49,7.07-9.6,9.6-2.51,5.74-.99,13.74-5.12,17.27-.79-24.39,8.43-39.13,33.27-26.87h0Z"/>
          <path class="st8" d="M664.41,703.79c4.13-3.53,2.61-11.53,5.12-17.27,1.1-2.52,6.49-8.66,9.6-9.6-35.31,71.66,72.48,73.95,18.55,0,34.82,17.18,21.2,95.41-15.99,66.53-10.04-7.79-16.87-27.11-17.27-39.66h0Z"/>
        </g>
        <path class="st6" d="M856.33,875.24l2.56,7.68c-88.49,21.85-179.34,29.81-270.61,31.99-.95-2.56-1.84-4.88-1.92-7.68,86.78.31,186.1-10.14,269.97-31.99h0Z"/>
        <g>
          <g>
            <path class="st3" d="M624.74,614.22c7.82,1.1,10.02,3.31,14.07,8.96,32.79,45.63-35.15,71.36-41.58,19.19-2.78,2.45-2.46,16.49-1.92,19.19-8.53-15.69-2.53-40.6,15.35-46.06,4.52-1.38,9.43-1.93,14.07-1.28h.01Z"/>
            <path class="st8" d="M608.11,682.04c-4.37-3.37-11.69-14.92-12.79-20.47-.54-2.7-.86-16.75,1.92-19.19,6.44,52.17,74.37,26.44,41.58-19.19,33.36,22.69,8.52,89.1-30.71,58.86h0Z"/>
          </g>
          <g>
            <path class="st8" d="M633.7,714.02c33.15,20.48,80.62,71.52,66.53,112.6-7.06,6.41-8.93,9.23-19.19,8.96l-30.71-14.71c33.36-7.47,26.01-44.14,10.24-65.25-7.59-10.16-57.9-51.99-69.09-53.1l1.28-2.56c14.28.7,28.9,6.64,40.94,14.07h0Z"/>
            <path class="st14" d="M608.11,698.67c9.32,3.22,18.78,8.11,25.59,15.35-12.04-7.44-26.66-13.37-40.94-14.07-38.17-1.87-63.12,31.68-88.28,55.66l8.96-3.2c-13.78,19.67-9.43,56.64,15.35,65.89-7.79,5.63-11.45,1.42-17.27,1.92-1.06.09-.51,2.55-.64,2.56-12.86.45-28.52-1.47-33.27-15.99-1.67-5.09.14-12.58-1.92-17.27-2.78,6.85-7.2,18.4-7.04,25.59-3.87-34.5,40.66-76.79,65.89-97.24,25.23-20.45,42.3-29.99,73.57-19.19h0Z"/>
            <path class="st0" d="M681.04,835.58c10.26.27,12.14-2.55,19.19-8.96-.06.16,2.48.34,1.28,3.2-3.76,8.94-14.82,16.44-24.95,15.99-11.79-.52-48.62-17.66-64.61-21.75-54.75-14.01-60.16,8.01-106.2,19.19-16.99,4.13-31.76-.77-34.55-19.19,5.91,12.95,15.44,11.9,26.87,8.96,32.55-8.39,57.33-29.46,95.32-26.87,28.8,1.96,64.83,28.82,87.65,29.43h0Z"/>
            <path class="st7" d="M510.87,822.78l-12.79,10.24c-11.43,2.95-20.96,4-26.87-8.96-1.1-2.42-2.5-6.28-2.56-8.96-.16-7.19,4.25-18.74,7.04-25.59,2.06,4.69.25,12.18,1.92,17.27,4.75,14.52,20.4,16.44,33.27,15.99h-.01Z"/>
            <path class="st3" d="M591.48,702.51c11.19,1.11,61.5,42.93,69.09,53.1,15.77,21.11,23.13,57.78-10.24,65.25l30.71,14.71c-22.81-.61-58.85-27.47-87.65-29.43-38-2.59-62.77,18.48-95.32,26.87l12.79-10.24c.13,0-.42-2.47.64-2.56,5.82-.5,9.48,3.71,17.27-1.92-24.79-9.26-29.13-46.22-15.35-65.89,5.29-7.56,63.13-48.54,71.01-49.9,1.72-.3,5.18-.18,7.04,0h.01Z"/>
            <path class="st2" d="M592.76,699.95l-1.28,2.56c-1.85-.18-5.32-.3-7.04,0-7.88,1.36-65.72,42.34-71.01,49.9l-8.96,3.2c25.16-23.98,50.12-57.53,88.28-55.66h.01Z"/>
          </g>
        </g>
        <g>
          <path class="st16" d="M610.67,615.5c-17.88,5.47-23.88,30.37-15.35,46.06,1.1,5.55,8.43,17.11,12.79,20.47v16.63c-31.27-10.8-49.26-.5-73.57,19.19s-69.76,62.74-65.89,97.24c.06,2.68,1.46,6.54,2.56,8.96,2.78,18.42,17.56,23.32,34.55,19.19,2.05,11.06-3.89,29.8-2.56,39.66-28.2-1.75-56.5-4.94-84.45-8.96l7.04-211.12-21.11,208.56c-9.85-1.61-19.64-3.16-29.43-5.12l30.71-266.13c68.58,10.89,130.15,10.81,198.96,12.79,2.34.07,6.32-1.28,5.76,2.56v.02Z"/>
          <g>
            <path class="st4" d="M418.75,873.96c-4.84-.7-9.36-1.79-14.07-2.56l21.11-208.56-7.04,211.12h0Z"/>
            <g>
              <g>
                <path class="st14" d="M504.47,684.6c-5.47-.69-7.77-9.52-14.07-7.04,23.22,19.18-8.42,70.33-28.15,40.94-1.93-2.87-1.17-11.74-5.12-11.52-5.05,27.06,14.5,56.08,39.66,30.07-30.91,38.26-55.42-18.07-34.55-50.54,10.15-15.79,32.74-21.79,42.22-1.92h0Z"/>
                <path class="st10" d="M504.47,684.6c8.21,17.21,3.93,38.1-7.68,52.46-25.17,26.01-44.72-3-39.66-30.07,3.95-.23,3.19,8.64,5.12,11.52,19.73,29.39,51.37-21.76,28.15-40.94,6.31-2.48,8.61,6.35,14.07,7.04h0Z"/>
              </g>
              <g>
                <path class="st10" d="M577.4,635.97c13.31,46.04-49.64,78.9-58.86,33.27,4.12-4.02-3.69-10.52,2.56-12.79,9.59,38.1,75.44-4.01,43.5-31.99,6.16-2.21,8.9,9.3,12.79,11.52h.01Z"/>
                <path class="st3" d="M577.4,635.97c-3.89-2.21-6.63-13.72-12.79-11.52-18.82-16.48-48.57,11.83-43.5,31.99-6.25,2.27,1.56,8.78-2.56,12.79-10.11-50.08,46.32-76.65,58.86-33.27h-.01Z"/>
                <path class="st3" d="M564.61,624.46c31.93,27.97-33.92,70.09-43.5,31.99-5.07-20.15,24.68-48.47,43.5-31.99Z"/>
              </g>
            </g>
          </g>
        </g>
      </g>
    </g>
    <path class="st1" d="M981.72,372.4c20.24,28.48,20.62,48.22,6.4,79.33-5.83,2.98-4.67-6.09-6.4-8.32-4.09-5.28-34.12-22.8-42.22-27.51,2.45-8.36,23.02-53.8,21.75-58.22-.37-1.28-14.16-10.96-16.63-13.43-.54-.54,1.36-1.84,1.28-1.92-2.76-2.86-8.55-3.85-8.96-8.32,14.29,7.58,35.45,25.25,44.78,38.38h0Z"/>
    <path class="st1" d="M739.9,270.04c-.34,4.9,5.86.64,7.68,4.48,3.23,6.82-6.91,52.3-7.68,62.7.32.88,15.52,4.96,17.91,5.76.33.72,1.14,4.89,1.28,5.12-6.17-4.22-13.07-4.03-19.83-7.68-3.4-1.83-6.51-7.73-11.52-10.24-15.08-7.56-29.46,4.62-46.7-3.24-13.56-11.24-56.61-10.14-74.04-11.49-26.52-2.05-42.23-9.41-65,0-6.39,2.64-23.62-1.48-27.42,0-4.23,1.65-14.18,3.93-23.54,7.05-10.42,3.47-25.7.94-34.55,3.84-3.13,1.03-7.59,6.65-10.24,7.68-20.18,7.82-40.51,10.85-60.78,19.19-4.85-2.57-18.28,9.95-20.47,4.48-2.33-12.62-2.82-55.95-8.32-64.61-.22-.34-2.89.31-3.2,0-1.32-1.3-2.75-3.54-3.84-5.12,50.56-13.74,103.79-21.86,156.1-25.59,75.41-5.37,159.27-2.72,234.15,7.68h.01Z"/>
    <path class="st1" d="M353.49,293.07l-40.94,13.43,11.52,61.42c-.52,2.03-7.31,3.79-10.24,5.76-6.88,4.61-13.64,9.43-20.47,14.07-13.3-.88-25.23,5.16-37.11,10.24-3.8,1.63-12.64,4.83-15.35,6.4l-14.71-53.74c-1.24-.48-20.72,14.72-21.11,15.99-1.23,4,13.82,44.73,16.63,51.82-.73.55-4.41,7.85-5.76,8.96-2.02,1.67-8.62,1.63-11.52,3.84-8.78,6.69-13.39,17.21-14.71,28.15-5.93-7.73-8.32-11.93-12.79-20.47-21.36-89.06,106.62-133.02,172.73-150.98,1.09,1.58,2.52,3.81,3.84,5.12h0Z"/>
    <path class="st4" d="M837.14,291.79l56.3,22.39-14.07,72.29c-19.75-8.49-43.55-16.8-63.97-24.31-1.76-.65-1.19-1.25-1.28-1.28l12.79-68.45-76.77-21.11c29.55,4.5,58.49,11.92,87.01,20.47h0Z"/>
    <path class="st0" d="M750.13,271.32l76.77,21.11-12.79,68.45c-18.4-6.74-37.71-11.72-56.3-17.91-2.39-.8-17.59-4.87-17.91-5.76.76-10.39,10.9-55.87,7.68-62.7-1.81-3.84-8.02.42-7.68-4.48,3.36.47,6.92.77,10.24,1.28h-.01Z"/>
    <path class="st16" d="M837.14,291.79c34.33,10.3,68.61,22.12,98.52,42.22-1.8-.91-15.96-7.64-16.63-7.04l-10.24,72.29c-1.68-.81-4.31-1.58-6.4-2.56-7.6-3.55-15.33-6.92-23.03-10.24l14.07-72.29-56.3-22.39h.01Z"/>
    <path class="st0" d="M935.66,334.01c.34.17.95-.18,1.28,0,.41,4.47,6.19,5.46,8.96,8.32.08.08-1.82,1.38-1.28,1.92l-20.47,62.7c-4.76-2.49-10.51-5.33-15.35-7.68l10.24-72.29c.68-.6,14.83,6.12,16.63,7.04h-.01Z"/>
    <path class="st16" d="M939.5,415.9c-4.88-2.84-10.46-6.39-15.35-8.96l20.47-62.7c2.48,2.47,16.27,12.16,16.63,13.43,1.27,4.42-19.3,49.86-21.75,58.22h0Z"/>
    <path class="st9" d="M879.36,386.47c7.7,3.31,15.43,6.69,23.03,10.24-2.74,7.38-5.3,9.41-1.28,16.63-6.59-4.79-16.24-1-22.39-2.56-5.23-1.33-19.62-22.67-28.15-25.59-8.58-2.94-14.13,1.36-20.47,0-1.23-.27-22.41-7.16-23.67-7.68,9.16-1.49,3.37-10.55,8.96-15.35,20.42,7.51,44.23,15.82,63.97,24.31Z"/>
    <path class="st5" d="M385.48,353.21c-8.9,3.66-39.48,23.71-45.42,24.31-8.99.91-14.42-9.5-26.23-3.84,2.93-1.96,9.72-3.73,10.24-5.76l-11.52-61.42,40.94-13.43c.31.31,2.98-.34,3.2,0,5.49,8.66,5.99,52,8.32,64.61,2.19,5.47,15.63-7.05,20.47-4.48h0Z"/>
    <path class="st5" d="M814.11,360.88c.08.03-.48.63,1.28,1.28-5.58,4.81.2,13.86-8.96,15.35-12.91-5.34-21.43-18.21-28.79-21.75-8.3-3.99-13.06,1.28-18.55-7.68-.14-.22-.95-4.4-1.28-5.12,18.59,6.19,37.9,11.18,56.3,17.91h0Z"/>
    <path class="st1" d="M240.9,404.39c-4.89,2.82-14.1,10.27-19.19,14.07-2.82-7.09-17.87-47.82-16.63-51.82.39-1.27,19.87-16.47,21.11-15.99l14.71,53.74Z"/>
  </g>
</svg>