<?xml version="1.0" encoding="UTF-8"?>
<svg id="Layer_1" xmlns="http://www.w3.org/2000/svg" version="1.1" viewBox="0 0 1200 1200">
  <!-- Generator: Adobe Illustrator 29.4.0, SVG Export Plug-In . SVG Version: 2.1.0 Build 152)  -->
  <path d="M458,800c5.43-30.53,1.22-61.55-13.83-88.67-35.96-64.83-118.78-84.92-179.89-41.55-41.16,29.21-59.96,80.66-51.29,130.22-34.76-3.38-64.68-20.74-83.01-50.48-18.7-30.33-18.55-74.01-15.97-109.01,3.18-43.07,36.32-83.14,77.98-94.02,23.95-6.26,49.3-2.27,73.81-3.7,21.47-35.36,44.96-69.49,67.01-104.49,4.14-6.57,7.43-14.38,11.78-21.22,37.47-58.94,102.94-98.28,172.93-103.07,73.86,2.81,150.5-3.76,224.04-.06,77.61,3.91,147.8,52.54,183.97,120.03,4.59,8.57,7.69,17.91,13.09,25.91,21.96,32.58,52.08,62.85,74.4,95.6,55.12,31.53,58.9,87.31,55.03,145.05-3.18,47.42-40.48,90.82-88.04,97.45,12.55-64.63-28.47-132.1-92.8-147.7-91.4-22.16-169.35,59.91-152.21,149.71h-277ZM647,532v-182.5c-.75-1.02-.87-1.08-2.04-1.09-39.11-.12-78.31,1.3-117.45.6-67.52,6.8-125.18,50.37-154.1,110.9l-45.42,72.08h319ZM933,532l-46.39-61.11c-25.77-65.2-88.06-116.15-159.12-121.88-11.7-.94-23.3.34-35.05.05-1.7-.04-2.94-.33-4.44-1.06v184h245Z"/>
  <path d="M330.82,665.26c86.97-2.13,142.62,91.91,100.98,168.03-38.66,70.67-138.74,78.34-187.21,13.62-54.5-72.77-4.83-179.42,86.23-181.65ZM366.65,746.35c-42.87-42.35-110.15,19.1-70.16,65.66,42.33,49.29,117.01-19.38,70.16-65.66Z"/>
  <path d="M848.8,669.3c80.75-5.7,138.59,76.1,112.22,151.22-28.27,80.52-133.9,100.8-189.99,35.96-60.83-70.32-15.03-180.63,77.77-187.17ZM852.55,736.62c-64.76,2.88-58.24,102.07,7.94,95.37,58.44-5.91,53.88-98.12-7.94-95.37Z"/>
</svg>