<?xml version="1.0" encoding="UTF-8"?>
<svg id="Layer_1" xmlns="http://www.w3.org/2000/svg" version="1.1" viewBox="0 0 500 500">
  <!-- Generator: Adobe Illustrator 29.4.0, SVG Export Plug-In . SVG Version: 2.1.0 Build 152)  -->
  <path d="M495.54,302.84l-120.07-182.94c-2.11-7.85-1.88-12.2,5.67-14.65,3.51-1.14,3.07-1.23,6.62,0,1.7.59,3.56.65,4.73,2.36l35.93,54.84V14.48c-1.19-2.97-3.12-8.42-6.62-9.45-1.4-.41-4.01.28-5.67,0l-88.4,86.98h-154.11L85.22,5.03c-1.48.19-3.38-.29-4.73,0-1.47.32-6.14,4.3-6.62,6.15,2.47,49.19-2.88,101.05-.95,149.85.03.68-.31,1.42.47,1.89.42-.51,1.03-.9,1.42-1.42,6.63-8.81,32.05-55.24,39.24-57.2,2.36-.64,4.84.19,7.09.95,5.07,1.71,4.88,3.45,5.67,7.56.03.14,2.58,1.88,0,2.84-37.74,63.79-80.9,125.41-121.02,188.14.15,1.2-.23,2.63,0,3.78.2,1.02,4.4,6.26,5.67,6.62,8.77,2.45,40.44-20.01,51.05-22.69l1.89.95c.17,1.1-.94.88-.95.95-.05,2.34-.92,1.79-.95,1.89-.37,1.28-.47,2.28-.95,3.78-.33,1.32-.77,2.21-.95,2.84-.3,1.04-.65,1.91-.95,2.84-.31.97-.64,1.9-.95,2.84-.35,1.07-.46,2.26-.95,3.78-.29.99-.67,1.96-.95,2.84-.3.98-.67,1.95-.95,2.84-.3.95-.68,1.97-.95,2.84-.3.96-.68,1.97-.95,2.84-.3.96-.68,1.97-.95,2.84-.37,1.2-.53,2.42-.95,3.78-.3.95-.66,1.94-.95,2.84-.3.95-.67,1.95-.95,2.84-.29.93-.69,1.99-.95,2.84-.29.97-.69,1.98-.95,2.84-.29.96-.69,1.99-.95,2.84-.36,1.2-.55,2.44-.95,3.78-.29.97-.69,1.98-.95,2.84-.29.96-.7,2-.95,2.84-.28.96-.71,2.01-.95,2.84-.31,1.08-.77,2.23-.95,2.84-.32,1.12-.78,2.25-.95,2.84-.32,1.13-.78,2.25-.95,2.84-.32,1.15-.77,2.22-.95,2.84-.34,1.18-.62,2.54-.95,3.78-.31,1.79-.93,2.69-.95,2.84-.24,2.24-.94,2.69-.95,2.84-.14,3.92.23,10.69,4.73,12.29,1.42.51,4.81-.35,6.62,0l76.11-48.22c14.61,6.41,21.97,22.71,27.89,36.87.16.36.54.94.95,1.89.47,1.19.6,1.9.95,2.84.37,1.02.61,1.85.95,2.84.32.95.63,1.84.95,2.84.65,1.82.61,2.79.95,3.78.32.94.63,1.87.95,2.84.38,1.33.59,2.58.95,3.78.4,1.34.58,2.58.95,3.78.41,1.36.58,2.57.95,3.78.7,2.2.57,3.54.95,4.73.43,1.39.57,2.56.95,3.78.42,1.36.58,2.58.95,3.78.42,1.36.58,2.58.95,3.78.41,1.35.57,2.63.95,3.78.29.9.64,1.91.95,2.84.3.91.63,1.94.95,2.84,9.2,21.52,25.72,40.29,47.27,50.11,1.05.44,3.84,1.59,4.73,1.89.84.29,2.04.71,2.84.95,1.08.32,2.65.67,3.78.95,1.04.28,2.69.91,2.84.95,1.4.31,3.36.72,4.73.95,1.94.32,4.73.76,6.62.95,5.85.45,14.95.45,20.8,0,1.87-.18,4.71-.61,6.62-.95,1.38-.24,3.34-.63,4.73-.95.18-.04,1.83-.67,2.84-.95,1.12-.26,2.7-.63,3.78-.95.78-.23,2-.66,2.84-.95.1-.03.74-.51,1.89-.95,21.99-9,41.17-28.18,50.11-50.11.3-.74.53-1.74.95-2.84.29-.77.3-1.99.95-3.78.3-.84.37-2.09.95-3.78.35-1.03.47-2.28.95-3.78.37-1.16.25-2.54.95-4.73.35-1.24.56-2.45.95-3.78.36-1.23.55-2.44.95-3.78.35-1.21.56-2.46.95-3.78.35-1.21.57-2.47.95-3.78.35-1.24.55-2.43.95-3.78.37-1.26.51-2.38.95-3.78.32-.96.61-1.87.95-2.84.33-.96.58-1.83.95-2.84.35-.95.5-1.71.95-2.84,4.09-10.74,15.84-38.14,28.36-40.65.05,0,.47-2,.95,0l76.58,47.27c1.84-.35,5.14.5,6.62,0,.78-.26,5.42-5.64,5.67-6.62.18-.71,0-1.94,0-2.84,0-.19-.71-2.29-.95-3.78-.02-.15-.63-1.32-.95-2.84-.03-.15-.64-1.39-.95-2.84-.03-.15-.64-1.51-.95-2.84-.04-.17-.65-1.63-.95-2.84-.08-.31-.64-1.66-.95-2.84-.43-1.38-.57-2.58-.95-3.78-.27-.88-.65-1.85-.95-2.84-.26-.86-.65-1.87-.95-2.84-.26-.86-.65-1.87-.95-2.84-.26-.86-.65-1.88-.95-2.84-.26-.86-.65-1.88-.95-2.84-.27-.87-.65-1.88-.95-2.84-.27-.88-.65-1.88-.95-2.84-.27-.87-.65-1.9-.95-2.84-.29-.9-.64-1.88-.95-2.84-.43-1.38-.57-2.58-.95-3.78-.28-.88-.64-1.89-.95-2.84-.29-.9-.64-1.88-.95-2.84-.28-.9-.64-1.87-.95-2.84-.28-.89-.65-1.86-.95-2.84-.27-.88-.65-1.84-.95-2.84-.25-.86-.66-1.82-.95-2.84-.16-.58-.62-1.63-.95-2.84-.53-1.63-.6-2.75-.95-3.78-.31-.94-.64-1.85-.95-2.84-.29-.93-.66-1.75-.95-2.84-.12-.46-.63-1.31-.95-2.84-.03-.15-1.72-.78-.95-2.84l-.47-1.89c1.85-.71,2.24.91,2.36.95,12.2,3.06,33.98,19.69,43.49,21.74.91.2,5.88.22,6.62,0,.85-.25,5.43-4.83,5.67-5.67.41-1.42-.28-4,0-5.67ZM146.67,258.4c-5.22-1.08-12.27-8.93-13.24-14.18-.74-4.04-.82-42.83,0-46.33.43-1.83,4.94-7.08,6.62-7.56,1.42-.41,4,.28,5.67,0,7.93,8.57,70.05,49.45,71.85,54.84,1.64,4.91-2.59,12.06-7.56,13.24-3.78.9-59.13.87-63.34,0ZM294.04,429.89c-1.58,4.96-29.66,29.04-38.09,30.25-1.84.27-8.59.24-10.51,0-.2-.03-3.39-.79-3.94-.95-5.38-1.55-33.16-26.3-34.15-30.25-.27-1.06-.31-4.71,0-5.67.47-1.43,8.94-8.2,10.51-8.51,3.13-.63,61.7-.6,65.02,0,2.93.53,10.53,6.63,11.17,8.51.31.92.3,5.67,0,6.62ZM367.9,245.16c-.62,2.96-7.78,11.26-10.4,12.29-.18.07-3.52.9-3.78.95-4.85.83-59.95.92-63.34,0-.89-.24-6.36-5.71-6.62-6.62-.47-1.63.33-4.7,0-6.62l71.85-54.84c.76-.19,4.99-.2,5.67,0,.91.26,6.38,5.73,6.62,6.62.63,2.33.62,45.21,0,48.22Z"/>
</svg>