<?xml version="1.0" encoding="UTF-8"?>
<svg id="Layer_1" xmlns="http://www.w3.org/2000/svg" version="1.1" viewBox="0 0 500 500">
  <!-- Generator: Adobe Illustrator 29.4.0, SVG Export Plug-In . SVG Version: 2.1.0 Build 152)  -->
  <defs>
    <style>
      .st0 {
        fill: #fee959;
        stroke: #f3b12c;
      }

      .st0, .st1 {
        stroke-linecap: round;
        stroke-linejoin: round;
        stroke-width: 15.97px;
      }

      .st1 {
        fill: #fdd335;
        stroke: #f4b12c;
      }

      .st2 {
        fill: #fffade;
      }
    </style>
  </defs>
  <g id="Generative_Object">
    <path class="st0" d="M243.72,9.53c186.52-6.7,309.28,199.15,213.8,359.87-108.68,182.94-380.82,144.56-436.53-60.69C-18.55,163.1,93.15,14.94,243.72,9.53Z"/>
    <g>
      <path class="st1" d="M200.47,142.74h112.63l50.27-49.47c-30.21-21.81-69.43-34.69-117.51-33.14-39.88,1.28-73.04,12.09-99.6,29.28l54.2,53.33Z"/>
      <path class="st1" d="M426.68,305.12c-6.95-1.5-22.87-13.65-31.79-15.89-.09-.03-.37-1.21-1.72-.69l.34,1.38c-.56,1.51.67,1.97.69,2.08.23,1.12.61,1.74.69,2.08.21.8.48,1.4.69,2.08.23.72.47,1.39.69,2.08.26.75.31,1.57.69,2.76.24.88.58,1.65.69,2.08.21.75.51,1.45.69,2.08.22.73.5,1.43.69,2.08.22.72.49,1.43.69,2.08.23.71.49,1.42.69,2.08.23.7.48,1.42.69,2.08.23.69.49,1.43.69,2.08.28.88.38,1.75.69,2.76.23.7.48,1.42.69,2.08.22.69.5,1.44.69,2.08.22.7.5,1.43.69,2.08.22.7.5,1.44.69,2.08.22.7.5,1.45.69,2.08.22.7.5,1.45.69,2.08.22.71.5,1.45.69,2.08.22.71.5,1.45.69,2.08.22.72.5,1.43.69,2.08.28.88.38,1.75.69,2.76.23.86.64,1.85.69,2.08.22.88.67,1.95.69,2.08.23.97.67,1.97.69,2.08.23,1.06.67,1.97.69,2.08.11.54.28,1.02.42,1.39,7.94-13.87,14.04-28.76,18.3-44.22-1.19.08-3.75.05-4.3-.07Z"/>
      <path class="st1" d="M386.69,113.66v80.57l-26.26-40.08c-.86-1.25-2.21-1.29-3.46-1.72-2.59-.9-2.27-.83-4.84,0-5.52,1.79-5.69,4.97-4.14,10.71l85.77,130.68c13.53-63.07-2.49-133.28-47.07-180.14Z"/>
      <path class="st1" d="M227.06,264.36c3.63-.86,6.72-6.09,5.53-9.68-1.32-3.94-46.72-33.82-52.51-40.08-1.22.2-3.11-.3-4.14,0-1.23.35-4.52,4.19-4.84,5.53-.6,2.56-.54,30.91,0,33.86.71,3.84,5.86,9.57,9.68,10.36h0c3.08.64,43.53.67,46.29,0Z"/>
      <path class="st1" d="M404.67,359.78l-55.97-34.55c-.35-1.46-.66,0-.69,0-9.15,1.83-17.74,21.86-20.73,29.71-.33.83-.44,1.38-.69,2.08-.27.74-.45,1.37-.69,2.08-.25.71-.46,1.37-.69,2.08-.32,1.02-.42,1.84-.69,2.76-.29.99-.44,1.86-.69,2.76-.28.96-.44,1.88-.69,2.76-.29.96-.44,1.88-.69,2.76-.29.98-.43,1.86-.69,2.76-.29.97-.44,1.86-.69,2.76-.51,1.6-.42,2.61-.69,3.46-.35,1.1-.44,2.01-.69,2.76-.42,1.24-.48,2.15-.69,2.76-.48,1.31-.48,2.2-.69,2.76-.31.8-.48,1.53-.69,2.08-6.53,16.03-20.55,30.05-36.62,36.62-.84.32-1.31.67-1.38.69-.61.21-1.51.53-2.08.69-.79.23-1.94.5-2.76.69-.74.2-1.94.67-2.08.69-1.02.23-2.45.52-3.46.69-1.4.25-3.47.56-4.84.69-4.28.33-10.93.33-15.2,0-1.38-.14-3.42-.46-4.84-.69-1-.17-2.43-.47-3.46-.69-.11-.03-1.32-.49-2.08-.69-.83-.2-1.97-.46-2.76-.69-.58-.18-1.46-.48-2.08-.69-.65-.22-2.69-1.06-3.46-1.38-15.75-7.18-27.82-20.9-34.55-36.62-.23-.66-.48-1.41-.69-2.08-.23-.68-.48-1.42-.69-2.08-.28-.84-.39-1.78-.69-2.76-.27-.88-.39-1.77-.69-2.76-.27-.88-.39-1.77-.69-2.76-.28-.89-.38-1.75-.69-2.76-.28-.87-.18-1.85-.69-3.46-.27-.88-.39-1.77-.69-2.76-.27-.88-.4-1.78-.69-2.76-.26-.88-.42-1.79-.69-2.76-.23-.71-.46-1.39-.69-2.08-.25-.72-.22-1.43-.69-2.76-.23-.73-.46-1.38-.69-2.08-.25-.72-.42-1.33-.69-2.08-.26-.69-.35-1.21-.69-2.08-.3-.69-.58-1.12-.69-1.38-4.33-10.35-9.71-22.26-20.38-26.95l-55.63,35.24c-1.32-.26-3.8.37-4.84,0-3.29-1.17-3.56-6.12-3.46-8.98,0-.11.52-.44.69-2.08.01-.11.47-.77.69-2.08.24-.91.45-1.9.69-2.76.13-.45.46-1.24.69-2.08.12-.43.46-1.25.69-2.08.12-.43.46-1.26.69-2.08.13-.45.47-1.29.69-2.08.18-.61.49-1.37.69-2.08.18-.61.48-1.37.69-2.08.19-.63.48-1.37.69-2.08.29-.98.43-1.89.69-2.76.19-.62.48-1.37.69-2.08.19-.63.48-1.37.69-2.08.19-.62.48-1.4.69-2.08.2-.65.48-1.38.69-2.08.21-.66.48-1.38.69-2.08.31-.99.42-1.89.69-2.76.2-.64.48-1.37.69-2.08.2-.64.48-1.37.69-2.08.2-.64.48-1.38.69-2.08.2-.65.48-1.36.69-2.08.2-.64.48-1.35.69-2.08.36-1.11.44-1.98.69-2.76.23-.69.47-1.37.69-2.08.22-.68.48-1.32.69-2.08.13-.46.45-1.11.69-2.08.35-1.1.42-1.83.69-2.76.02-.07.66.33.69-1.38,0-.05.82.11.69-.69l-1.38-.69c-7.75,1.96-30.9,18.37-37.31,16.58-.93-.26-4-4.09-4.14-4.84-.17-.84.11-1.89,0-2.76,29.32-45.85,60.87-90.88,88.45-137.51,1.89-.7.02-1.97,0-2.08-.58-3-.44-4.28-4.14-5.53-1.64-.56-3.46-1.16-5.18-.69-5.25,1.43-23.83,35.37-28.68,41.81-.29.38-.73.67-1.04,1.04-.57-.34-.32-.88-.34-1.38-1.16-29.31,1.27-60.12,1.17-90.12C11.71,203.34,59.12,443.57,258.01,437.18c69.82-2.24,119.07-33.63,148.28-77.43-.6-.04-1.18-.06-1.63.03Z"/>
      <path class="st1" d="M332.1,264.35c.19-.04,2.63-.64,2.76-.69,1.91-.75,7.15-6.82,7.6-8.98h0c.45-2.2.46-33.54,0-35.24-.18-.65-4.17-4.65-4.84-4.84-.5-.15-3.59-.14-4.14,0l-52.51,40.08c.24,1.4-.34,3.65,0,4.84.19.67,4.19,4.66,4.84,4.84,2.48.67,42.75.61,46.29,0Z"/>
      <path class="st1" d="M250.08,411.1c.4.12,2.73.67,2.88.69,1.4.18,6.34.2,7.68,0,6.16-.88,26.68-18.48,27.84-22.11h0c.22-.69.23-4.17,0-4.84-.47-1.37-6.02-5.83-8.16-6.22-2.43-.44-45.23-.46-47.52,0-1.15.23-7.34,5.17-7.68,6.22-.23.7-.2,3.37,0,4.14.72,2.89,21.03,20.98,24.96,22.11Z"/>
    </g>
  </g>
  <path class="st2" d="M170.67,40.46s-68.83,33.88-85.2,73.2c0,0-58.3,72.05-35.8,192.75,0,0-5.17-119.55,57.92-192.75,0,0,64.13-69.89,149.22-60.92,0,0,65.97-52.74-86.14-12.27Z"/>
</svg>